%TF.GenerationSoftware,KiCad,Pcbnew,10.0.0*%
%TF.CreationDate,2026-05-31T14:23:45+02:00*%
%TF.ProjectId,Maglev,4d61676c-6576-42e6-9b69-6361645f7063,rev?*%
%TF.SameCoordinates,Original*%
%TF.FileFunction,Legend,Top*%
%TF.FilePolarity,Positive*%
%FSLAX46Y46*%
G04 Gerber Fmt 4.6, Leading zero omitted, Abs format (unit mm)*
G04 Created by KiCad (PCBNEW 10.0.0) date 2026-05-31 14:23:45*
%MOMM*%
%LPD*%
G01*
G04 APERTURE LIST*
%ADD10C,0.100000*%
%ADD11C,0.150000*%
%ADD12C,0.080000*%
%ADD13C,0.120000*%
%ADD14C,0.300000*%
%ADD15C,0.200000*%
G04 APERTURE END LIST*
D10*
X245871871Y-151783608D02*
X245431929Y-151965839D01*
X245431929Y-151965839D02*
X245049245Y-151041959D01*
X245979378Y-151172110D02*
X246287338Y-151044549D01*
X246619774Y-151473817D02*
X246179831Y-151656047D01*
X246179831Y-151656047D02*
X245797148Y-150732168D01*
X245797148Y-150732168D02*
X246237091Y-150549937D01*
X247015723Y-151309810D02*
X246633039Y-150385930D01*
X246633039Y-150385930D02*
X246853010Y-150294815D01*
X246853010Y-150294815D02*
X247003216Y-150284140D01*
X247003216Y-150284140D02*
X247127651Y-150335683D01*
X247127651Y-150335683D02*
X247208091Y-150405448D01*
X247208091Y-150405448D02*
X247324977Y-150563202D01*
X247324977Y-150563202D02*
X247379647Y-150695185D01*
X247379647Y-150695185D02*
X247408544Y-150889385D01*
X247408544Y-150889385D02*
X247400996Y-150995597D01*
X247400996Y-150995597D02*
X247349454Y-151120031D01*
X247349454Y-151120031D02*
X247235694Y-151218695D01*
X247235694Y-151218695D02*
X247015723Y-151309810D01*
X249127447Y-150435105D02*
X248599516Y-150653781D01*
X248863482Y-150544443D02*
X248480798Y-149620563D01*
X248480798Y-149620563D02*
X248447479Y-149788992D01*
X248447479Y-149788992D02*
X248395936Y-149913427D01*
X248395936Y-149913427D02*
X248326171Y-149993867D01*
X245071871Y-149783608D02*
X244631929Y-149965839D01*
X244631929Y-149965839D02*
X244249245Y-149041959D01*
X245179378Y-149172110D02*
X245487338Y-149044549D01*
X245819774Y-149473817D02*
X245379831Y-149656047D01*
X245379831Y-149656047D02*
X244997148Y-148732168D01*
X244997148Y-148732168D02*
X245437091Y-148549937D01*
X246215723Y-149309810D02*
X245833039Y-148385930D01*
X245833039Y-148385930D02*
X246053010Y-148294815D01*
X246053010Y-148294815D02*
X246203216Y-148284140D01*
X246203216Y-148284140D02*
X246327651Y-148335683D01*
X246327651Y-148335683D02*
X246408091Y-148405448D01*
X246408091Y-148405448D02*
X246524977Y-148563202D01*
X246524977Y-148563202D02*
X246579647Y-148695185D01*
X246579647Y-148695185D02*
X246608544Y-148889385D01*
X246608544Y-148889385D02*
X246600996Y-148995597D01*
X246600996Y-148995597D02*
X246549454Y-149120031D01*
X246549454Y-149120031D02*
X246435694Y-149218695D01*
X246435694Y-149218695D02*
X246215723Y-149309810D01*
X247453279Y-147817890D02*
X247479050Y-147755673D01*
X247479050Y-147755673D02*
X247548816Y-147675232D01*
X247548816Y-147675232D02*
X247768787Y-147584117D01*
X247768787Y-147584117D02*
X247874998Y-147591665D01*
X247874998Y-147591665D02*
X247937216Y-147617437D01*
X247937216Y-147617437D02*
X248017656Y-147687202D01*
X248017656Y-147687202D02*
X248054102Y-147775191D01*
X248054102Y-147775191D02*
X248064777Y-147925397D01*
X248064777Y-147925397D02*
X247755522Y-148672004D01*
X247755522Y-148672004D02*
X248327447Y-148435105D01*
X80166666Y-91042580D02*
X80642856Y-91042580D01*
X80642856Y-91042580D02*
X80642856Y-92042580D01*
X79309523Y-91042580D02*
X79880951Y-91042580D01*
X79595237Y-91042580D02*
X79595237Y-92042580D01*
X79595237Y-92042580D02*
X79690475Y-91899723D01*
X79690475Y-91899723D02*
X79785713Y-91804485D01*
X79785713Y-91804485D02*
X79880951Y-91756866D01*
X79833333Y-108957419D02*
X79357143Y-108957419D01*
X79357143Y-108957419D02*
X79357143Y-107957419D01*
X80071429Y-107957419D02*
X80690476Y-107957419D01*
X80690476Y-107957419D02*
X80357143Y-108338371D01*
X80357143Y-108338371D02*
X80500000Y-108338371D01*
X80500000Y-108338371D02*
X80595238Y-108385990D01*
X80595238Y-108385990D02*
X80642857Y-108433609D01*
X80642857Y-108433609D02*
X80690476Y-108528847D01*
X80690476Y-108528847D02*
X80690476Y-108766942D01*
X80690476Y-108766942D02*
X80642857Y-108862180D01*
X80642857Y-108862180D02*
X80595238Y-108909800D01*
X80595238Y-108909800D02*
X80500000Y-108957419D01*
X80500000Y-108957419D02*
X80214286Y-108957419D01*
X80214286Y-108957419D02*
X80119048Y-108909800D01*
X80119048Y-108909800D02*
X80071429Y-108862180D01*
X88457419Y-100166666D02*
X88457419Y-100642856D01*
X88457419Y-100642856D02*
X87457419Y-100642856D01*
X87790752Y-99404761D02*
X88457419Y-99404761D01*
X87409800Y-99642856D02*
X88124085Y-99880951D01*
X88124085Y-99880951D02*
X88124085Y-99261904D01*
D11*
X79360588Y-159667438D02*
X79265350Y-159619819D01*
X79265350Y-159619819D02*
X79122493Y-159619819D01*
X79122493Y-159619819D02*
X78979636Y-159667438D01*
X78979636Y-159667438D02*
X78884398Y-159762676D01*
X78884398Y-159762676D02*
X78836779Y-159857914D01*
X78836779Y-159857914D02*
X78789160Y-160048390D01*
X78789160Y-160048390D02*
X78789160Y-160191247D01*
X78789160Y-160191247D02*
X78836779Y-160381723D01*
X78836779Y-160381723D02*
X78884398Y-160476961D01*
X78884398Y-160476961D02*
X78979636Y-160572200D01*
X78979636Y-160572200D02*
X79122493Y-160619819D01*
X79122493Y-160619819D02*
X79217731Y-160619819D01*
X79217731Y-160619819D02*
X79360588Y-160572200D01*
X79360588Y-160572200D02*
X79408207Y-160524580D01*
X79408207Y-160524580D02*
X79408207Y-160191247D01*
X79408207Y-160191247D02*
X79217731Y-160191247D01*
X79836779Y-160619819D02*
X79836779Y-159619819D01*
X79836779Y-159619819D02*
X80408207Y-160619819D01*
X80408207Y-160619819D02*
X80408207Y-159619819D01*
X80884398Y-160619819D02*
X80884398Y-159619819D01*
X80884398Y-159619819D02*
X81122493Y-159619819D01*
X81122493Y-159619819D02*
X81265350Y-159667438D01*
X81265350Y-159667438D02*
X81360588Y-159762676D01*
X81360588Y-159762676D02*
X81408207Y-159857914D01*
X81408207Y-159857914D02*
X81455826Y-160048390D01*
X81455826Y-160048390D02*
X81455826Y-160191247D01*
X81455826Y-160191247D02*
X81408207Y-160381723D01*
X81408207Y-160381723D02*
X81360588Y-160476961D01*
X81360588Y-160476961D02*
X81265350Y-160572200D01*
X81265350Y-160572200D02*
X81122493Y-160619819D01*
X81122493Y-160619819D02*
X80884398Y-160619819D01*
X214360588Y-159667438D02*
X214265350Y-159619819D01*
X214265350Y-159619819D02*
X214122493Y-159619819D01*
X214122493Y-159619819D02*
X213979636Y-159667438D01*
X213979636Y-159667438D02*
X213884398Y-159762676D01*
X213884398Y-159762676D02*
X213836779Y-159857914D01*
X213836779Y-159857914D02*
X213789160Y-160048390D01*
X213789160Y-160048390D02*
X213789160Y-160191247D01*
X213789160Y-160191247D02*
X213836779Y-160381723D01*
X213836779Y-160381723D02*
X213884398Y-160476961D01*
X213884398Y-160476961D02*
X213979636Y-160572200D01*
X213979636Y-160572200D02*
X214122493Y-160619819D01*
X214122493Y-160619819D02*
X214217731Y-160619819D01*
X214217731Y-160619819D02*
X214360588Y-160572200D01*
X214360588Y-160572200D02*
X214408207Y-160524580D01*
X214408207Y-160524580D02*
X214408207Y-160191247D01*
X214408207Y-160191247D02*
X214217731Y-160191247D01*
X214836779Y-160619819D02*
X214836779Y-159619819D01*
X214836779Y-159619819D02*
X215408207Y-160619819D01*
X215408207Y-160619819D02*
X215408207Y-159619819D01*
X215884398Y-160619819D02*
X215884398Y-159619819D01*
X215884398Y-159619819D02*
X216122493Y-159619819D01*
X216122493Y-159619819D02*
X216265350Y-159667438D01*
X216265350Y-159667438D02*
X216360588Y-159762676D01*
X216360588Y-159762676D02*
X216408207Y-159857914D01*
X216408207Y-159857914D02*
X216455826Y-160048390D01*
X216455826Y-160048390D02*
X216455826Y-160191247D01*
X216455826Y-160191247D02*
X216408207Y-160381723D01*
X216408207Y-160381723D02*
X216360588Y-160476961D01*
X216360588Y-160476961D02*
X216265350Y-160572200D01*
X216265350Y-160572200D02*
X216122493Y-160619819D01*
X216122493Y-160619819D02*
X215884398Y-160619819D01*
X42223489Y-50167986D02*
X42223489Y-50100643D01*
X42223489Y-50100643D02*
X42290832Y-49965956D01*
X42290832Y-49965956D02*
X42358176Y-49898612D01*
X42358176Y-49898612D02*
X42492863Y-49831269D01*
X42492863Y-49831269D02*
X42627550Y-49831269D01*
X42627550Y-49831269D02*
X42728565Y-49864940D01*
X42728565Y-49864940D02*
X42896924Y-49965956D01*
X42896924Y-49965956D02*
X42997939Y-50066971D01*
X42997939Y-50066971D02*
X43098954Y-50235330D01*
X43098954Y-50235330D02*
X43132626Y-50336345D01*
X43132626Y-50336345D02*
X43132626Y-50471032D01*
X43132626Y-50471032D02*
X43065282Y-50605719D01*
X43065282Y-50605719D02*
X42997939Y-50673062D01*
X42997939Y-50673062D02*
X42863252Y-50740406D01*
X42863252Y-50740406D02*
X42795908Y-50740406D01*
X42425519Y-51245482D02*
X42290832Y-51380169D01*
X42290832Y-51380169D02*
X42189817Y-51413841D01*
X42189817Y-51413841D02*
X42055130Y-51413841D01*
X42055130Y-51413841D02*
X41886771Y-51312826D01*
X41886771Y-51312826D02*
X41651069Y-51077123D01*
X41651069Y-51077123D02*
X41550054Y-50908765D01*
X41550054Y-50908765D02*
X41550054Y-50774078D01*
X41550054Y-50774078D02*
X41583725Y-50673062D01*
X41583725Y-50673062D02*
X41718412Y-50538375D01*
X41718412Y-50538375D02*
X41819428Y-50504704D01*
X41819428Y-50504704D02*
X41954115Y-50504704D01*
X41954115Y-50504704D02*
X42122473Y-50605719D01*
X42122473Y-50605719D02*
X42358176Y-50841421D01*
X42358176Y-50841421D02*
X42459191Y-51009780D01*
X42459191Y-51009780D02*
X42459191Y-51144467D01*
X42459191Y-51144467D02*
X42425519Y-51245482D01*
X41112321Y-51144467D02*
X41819428Y-51851574D01*
X40438886Y-51817902D02*
X40775604Y-51481184D01*
X40775604Y-51481184D02*
X41482710Y-52188291D01*
X39664436Y-52592352D02*
X40371542Y-53299459D01*
X40371542Y-53299459D02*
X40102168Y-53568833D01*
X40102168Y-53568833D02*
X40001153Y-53602505D01*
X40001153Y-53602505D02*
X39933810Y-53602505D01*
X39933810Y-53602505D02*
X39832794Y-53568833D01*
X39832794Y-53568833D02*
X39731779Y-53467818D01*
X39731779Y-53467818D02*
X39698107Y-53366802D01*
X39698107Y-53366802D02*
X39698107Y-53299459D01*
X39698107Y-53299459D02*
X39731779Y-53198444D01*
X39731779Y-53198444D02*
X40001153Y-52929070D01*
X39529749Y-54141253D02*
X39395062Y-54275940D01*
X39395062Y-54275940D02*
X39294046Y-54309612D01*
X39294046Y-54309612D02*
X39159359Y-54309612D01*
X39159359Y-54309612D02*
X38991001Y-54208596D01*
X38991001Y-54208596D02*
X38755298Y-53972894D01*
X38755298Y-53972894D02*
X38654283Y-53804535D01*
X38654283Y-53804535D02*
X38654283Y-53669848D01*
X38654283Y-53669848D02*
X38687955Y-53568833D01*
X38687955Y-53568833D02*
X38822642Y-53434146D01*
X38822642Y-53434146D02*
X38923657Y-53400474D01*
X38923657Y-53400474D02*
X39058344Y-53400474D01*
X39058344Y-53400474D02*
X39226703Y-53501489D01*
X39226703Y-53501489D02*
X39462405Y-53737192D01*
X39462405Y-53737192D02*
X39563420Y-53905551D01*
X39563420Y-53905551D02*
X39563420Y-54040238D01*
X39563420Y-54040238D02*
X39529749Y-54141253D01*
X38991001Y-54680001D02*
X38115535Y-54141253D01*
X38115535Y-54141253D02*
X38485924Y-54781016D01*
X38485924Y-54781016D02*
X37846161Y-54410627D01*
X37846161Y-54410627D02*
X38384909Y-55286092D01*
X37778818Y-55218749D02*
X37543115Y-55454451D01*
X37071711Y-55185077D02*
X37408428Y-54848359D01*
X37408428Y-54848359D02*
X38115535Y-55555466D01*
X38115535Y-55555466D02*
X37778818Y-55892184D01*
X36364604Y-55892184D02*
X36937024Y-55993199D01*
X36768665Y-55488123D02*
X37475772Y-56195230D01*
X37475772Y-56195230D02*
X37206398Y-56464604D01*
X37206398Y-56464604D02*
X37105382Y-56498275D01*
X37105382Y-56498275D02*
X37038039Y-56498275D01*
X37038039Y-56498275D02*
X36937024Y-56464604D01*
X36937024Y-56464604D02*
X36836008Y-56363588D01*
X36836008Y-56363588D02*
X36802337Y-56262573D01*
X36802337Y-56262573D02*
X36802337Y-56195230D01*
X36802337Y-56195230D02*
X36836008Y-56094214D01*
X36836008Y-56094214D02*
X37105382Y-55824840D01*
X35186092Y-57205382D02*
X35186092Y-57138039D01*
X35186092Y-57138039D02*
X35253436Y-57003352D01*
X35253436Y-57003352D02*
X35320779Y-56936008D01*
X35320779Y-56936008D02*
X35455466Y-56868665D01*
X35455466Y-56868665D02*
X35590154Y-56868665D01*
X35590154Y-56868665D02*
X35691169Y-56902336D01*
X35691169Y-56902336D02*
X35859528Y-57003352D01*
X35859528Y-57003352D02*
X35960543Y-57104367D01*
X35960543Y-57104367D02*
X36061558Y-57272726D01*
X36061558Y-57272726D02*
X36095230Y-57373741D01*
X36095230Y-57373741D02*
X36095230Y-57508428D01*
X36095230Y-57508428D02*
X36027886Y-57643115D01*
X36027886Y-57643115D02*
X35960543Y-57710459D01*
X35960543Y-57710459D02*
X35825856Y-57777802D01*
X35825856Y-57777802D02*
X35758512Y-57777802D01*
X35388123Y-58282878D02*
X35253436Y-58417565D01*
X35253436Y-58417565D02*
X35152421Y-58451237D01*
X35152421Y-58451237D02*
X35017734Y-58451237D01*
X35017734Y-58451237D02*
X34849375Y-58350222D01*
X34849375Y-58350222D02*
X34613673Y-58114520D01*
X34613673Y-58114520D02*
X34512657Y-57946161D01*
X34512657Y-57946161D02*
X34512657Y-57811474D01*
X34512657Y-57811474D02*
X34546329Y-57710459D01*
X34546329Y-57710459D02*
X34681016Y-57575772D01*
X34681016Y-57575772D02*
X34782031Y-57542100D01*
X34782031Y-57542100D02*
X34916718Y-57542100D01*
X34916718Y-57542100D02*
X35085077Y-57643115D01*
X35085077Y-57643115D02*
X35320779Y-57878817D01*
X35320779Y-57878817D02*
X35421795Y-58047176D01*
X35421795Y-58047176D02*
X35421795Y-58181863D01*
X35421795Y-58181863D02*
X35388123Y-58282878D01*
X34074925Y-58181863D02*
X34782032Y-58888970D01*
X34782032Y-58888970D02*
X33670864Y-58585924D01*
X33670864Y-58585924D02*
X34377970Y-59293031D01*
X33334146Y-58922642D02*
X34041253Y-59629748D01*
X34041253Y-59629748D02*
X32930085Y-59326703D01*
X32930085Y-59326703D02*
X33637192Y-60033809D01*
X32963757Y-60033809D02*
X32728055Y-60269512D01*
X32256650Y-60000138D02*
X32593368Y-59663420D01*
X32593368Y-59663420D02*
X33300475Y-60370527D01*
X33300475Y-60370527D02*
X32963757Y-60707244D01*
X31616887Y-60774588D02*
X31616887Y-60707244D01*
X31616887Y-60707244D02*
X31684230Y-60572557D01*
X31684230Y-60572557D02*
X31751574Y-60505214D01*
X31751574Y-60505214D02*
X31886261Y-60437870D01*
X31886261Y-60437870D02*
X32020948Y-60437870D01*
X32020948Y-60437870D02*
X32121963Y-60471542D01*
X32121963Y-60471542D02*
X32290322Y-60572557D01*
X32290322Y-60572557D02*
X32391337Y-60673573D01*
X32391337Y-60673573D02*
X32492352Y-60841931D01*
X32492352Y-60841931D02*
X32526024Y-60942947D01*
X32526024Y-60942947D02*
X32526024Y-61077634D01*
X32526024Y-61077634D02*
X32458681Y-61212321D01*
X32458681Y-61212321D02*
X32391337Y-61279664D01*
X32391337Y-61279664D02*
X32256650Y-61347008D01*
X32256650Y-61347008D02*
X32189307Y-61347008D01*
X32054620Y-61616382D02*
X31650559Y-62020443D01*
X31145482Y-61111305D02*
X31852589Y-61818412D01*
X31280169Y-62390832D02*
X31145482Y-62525519D01*
X31145482Y-62525519D02*
X31044467Y-62559191D01*
X31044467Y-62559191D02*
X30909780Y-62559191D01*
X30909780Y-62559191D02*
X30741421Y-62458176D01*
X30741421Y-62458176D02*
X30505719Y-62222473D01*
X30505719Y-62222473D02*
X30404704Y-62054115D01*
X30404704Y-62054115D02*
X30404704Y-61919428D01*
X30404704Y-61919428D02*
X30438375Y-61818412D01*
X30438375Y-61818412D02*
X30573062Y-61683725D01*
X30573062Y-61683725D02*
X30674078Y-61650054D01*
X30674078Y-61650054D02*
X30808765Y-61650054D01*
X30808765Y-61650054D02*
X30977123Y-61751069D01*
X30977123Y-61751069D02*
X31212826Y-61986771D01*
X31212826Y-61986771D02*
X31313841Y-62155130D01*
X31313841Y-62155130D02*
X31313841Y-62289817D01*
X31313841Y-62289817D02*
X31280169Y-62390832D01*
X29562910Y-62693878D02*
X30135330Y-62794893D01*
X29966971Y-62289817D02*
X30674078Y-62996924D01*
X30674078Y-62996924D02*
X30404704Y-63266298D01*
X30404704Y-63266298D02*
X30303688Y-63299969D01*
X30303688Y-63299969D02*
X30236345Y-63299969D01*
X30236345Y-63299969D02*
X30135330Y-63266298D01*
X30135330Y-63266298D02*
X30034314Y-63165282D01*
X30034314Y-63165282D02*
X30000643Y-63064267D01*
X30000643Y-63064267D02*
X30000643Y-62996924D01*
X30000643Y-62996924D02*
X30034314Y-62895908D01*
X30034314Y-62895908D02*
X30303688Y-62626534D01*
X139667438Y-100639411D02*
X139619819Y-100734649D01*
X139619819Y-100734649D02*
X139619819Y-100877506D01*
X139619819Y-100877506D02*
X139667438Y-101020363D01*
X139667438Y-101020363D02*
X139762676Y-101115601D01*
X139762676Y-101115601D02*
X139857914Y-101163220D01*
X139857914Y-101163220D02*
X140048390Y-101210839D01*
X140048390Y-101210839D02*
X140191247Y-101210839D01*
X140191247Y-101210839D02*
X140381723Y-101163220D01*
X140381723Y-101163220D02*
X140476961Y-101115601D01*
X140476961Y-101115601D02*
X140572200Y-101020363D01*
X140572200Y-101020363D02*
X140619819Y-100877506D01*
X140619819Y-100877506D02*
X140619819Y-100782268D01*
X140619819Y-100782268D02*
X140572200Y-100639411D01*
X140572200Y-100639411D02*
X140524580Y-100591792D01*
X140524580Y-100591792D02*
X140191247Y-100591792D01*
X140191247Y-100591792D02*
X140191247Y-100782268D01*
X140619819Y-100163220D02*
X139619819Y-100163220D01*
X139619819Y-100163220D02*
X140619819Y-99591792D01*
X140619819Y-99591792D02*
X139619819Y-99591792D01*
X140619819Y-99115601D02*
X139619819Y-99115601D01*
X139619819Y-99115601D02*
X139619819Y-98877506D01*
X139619819Y-98877506D02*
X139667438Y-98734649D01*
X139667438Y-98734649D02*
X139762676Y-98639411D01*
X139762676Y-98639411D02*
X139857914Y-98591792D01*
X139857914Y-98591792D02*
X140048390Y-98544173D01*
X140048390Y-98544173D02*
X140191247Y-98544173D01*
X140191247Y-98544173D02*
X140381723Y-98591792D01*
X140381723Y-98591792D02*
X140476961Y-98639411D01*
X140476961Y-98639411D02*
X140572200Y-98734649D01*
X140572200Y-98734649D02*
X140619819Y-98877506D01*
X140619819Y-98877506D02*
X140619819Y-99115601D01*
X274667438Y-100639411D02*
X274619819Y-100734649D01*
X274619819Y-100734649D02*
X274619819Y-100877506D01*
X274619819Y-100877506D02*
X274667438Y-101020363D01*
X274667438Y-101020363D02*
X274762676Y-101115601D01*
X274762676Y-101115601D02*
X274857914Y-101163220D01*
X274857914Y-101163220D02*
X275048390Y-101210839D01*
X275048390Y-101210839D02*
X275191247Y-101210839D01*
X275191247Y-101210839D02*
X275381723Y-101163220D01*
X275381723Y-101163220D02*
X275476961Y-101115601D01*
X275476961Y-101115601D02*
X275572200Y-101020363D01*
X275572200Y-101020363D02*
X275619819Y-100877506D01*
X275619819Y-100877506D02*
X275619819Y-100782268D01*
X275619819Y-100782268D02*
X275572200Y-100639411D01*
X275572200Y-100639411D02*
X275524580Y-100591792D01*
X275524580Y-100591792D02*
X275191247Y-100591792D01*
X275191247Y-100591792D02*
X275191247Y-100782268D01*
X275619819Y-100163220D02*
X274619819Y-100163220D01*
X274619819Y-100163220D02*
X275619819Y-99591792D01*
X275619819Y-99591792D02*
X274619819Y-99591792D01*
X275619819Y-99115601D02*
X274619819Y-99115601D01*
X274619819Y-99115601D02*
X274619819Y-98877506D01*
X274619819Y-98877506D02*
X274667438Y-98734649D01*
X274667438Y-98734649D02*
X274762676Y-98639411D01*
X274762676Y-98639411D02*
X274857914Y-98591792D01*
X274857914Y-98591792D02*
X275048390Y-98544173D01*
X275048390Y-98544173D02*
X275191247Y-98544173D01*
X275191247Y-98544173D02*
X275381723Y-98591792D01*
X275381723Y-98591792D02*
X275476961Y-98639411D01*
X275476961Y-98639411D02*
X275572200Y-98734649D01*
X275572200Y-98734649D02*
X275619819Y-98877506D01*
X275619819Y-98877506D02*
X275619819Y-99115601D01*
X80639411Y-40332561D02*
X80734649Y-40380180D01*
X80734649Y-40380180D02*
X80877506Y-40380180D01*
X80877506Y-40380180D02*
X81020363Y-40332561D01*
X81020363Y-40332561D02*
X81115601Y-40237323D01*
X81115601Y-40237323D02*
X81163220Y-40142085D01*
X81163220Y-40142085D02*
X81210839Y-39951609D01*
X81210839Y-39951609D02*
X81210839Y-39808752D01*
X81210839Y-39808752D02*
X81163220Y-39618276D01*
X81163220Y-39618276D02*
X81115601Y-39523038D01*
X81115601Y-39523038D02*
X81020363Y-39427800D01*
X81020363Y-39427800D02*
X80877506Y-39380180D01*
X80877506Y-39380180D02*
X80782268Y-39380180D01*
X80782268Y-39380180D02*
X80639411Y-39427800D01*
X80639411Y-39427800D02*
X80591792Y-39475419D01*
X80591792Y-39475419D02*
X80591792Y-39808752D01*
X80591792Y-39808752D02*
X80782268Y-39808752D01*
X80163220Y-39380180D02*
X80163220Y-40380180D01*
X80163220Y-40380180D02*
X79591792Y-39380180D01*
X79591792Y-39380180D02*
X79591792Y-40380180D01*
X79115601Y-39380180D02*
X79115601Y-40380180D01*
X79115601Y-40380180D02*
X78877506Y-40380180D01*
X78877506Y-40380180D02*
X78734649Y-40332561D01*
X78734649Y-40332561D02*
X78639411Y-40237323D01*
X78639411Y-40237323D02*
X78591792Y-40142085D01*
X78591792Y-40142085D02*
X78544173Y-39951609D01*
X78544173Y-39951609D02*
X78544173Y-39808752D01*
X78544173Y-39808752D02*
X78591792Y-39618276D01*
X78591792Y-39618276D02*
X78639411Y-39523038D01*
X78639411Y-39523038D02*
X78734649Y-39427800D01*
X78734649Y-39427800D02*
X78877506Y-39380180D01*
X78877506Y-39380180D02*
X79115601Y-39380180D01*
X215639411Y-40332561D02*
X215734649Y-40380180D01*
X215734649Y-40380180D02*
X215877506Y-40380180D01*
X215877506Y-40380180D02*
X216020363Y-40332561D01*
X216020363Y-40332561D02*
X216115601Y-40237323D01*
X216115601Y-40237323D02*
X216163220Y-40142085D01*
X216163220Y-40142085D02*
X216210839Y-39951609D01*
X216210839Y-39951609D02*
X216210839Y-39808752D01*
X216210839Y-39808752D02*
X216163220Y-39618276D01*
X216163220Y-39618276D02*
X216115601Y-39523038D01*
X216115601Y-39523038D02*
X216020363Y-39427800D01*
X216020363Y-39427800D02*
X215877506Y-39380180D01*
X215877506Y-39380180D02*
X215782268Y-39380180D01*
X215782268Y-39380180D02*
X215639411Y-39427800D01*
X215639411Y-39427800D02*
X215591792Y-39475419D01*
X215591792Y-39475419D02*
X215591792Y-39808752D01*
X215591792Y-39808752D02*
X215782268Y-39808752D01*
X215163220Y-39380180D02*
X215163220Y-40380180D01*
X215163220Y-40380180D02*
X214591792Y-39380180D01*
X214591792Y-39380180D02*
X214591792Y-40380180D01*
X214115601Y-39380180D02*
X214115601Y-40380180D01*
X214115601Y-40380180D02*
X213877506Y-40380180D01*
X213877506Y-40380180D02*
X213734649Y-40332561D01*
X213734649Y-40332561D02*
X213639411Y-40237323D01*
X213639411Y-40237323D02*
X213591792Y-40142085D01*
X213591792Y-40142085D02*
X213544173Y-39951609D01*
X213544173Y-39951609D02*
X213544173Y-39808752D01*
X213544173Y-39808752D02*
X213591792Y-39618276D01*
X213591792Y-39618276D02*
X213639411Y-39523038D01*
X213639411Y-39523038D02*
X213734649Y-39427800D01*
X213734649Y-39427800D02*
X213877506Y-39380180D01*
X213877506Y-39380180D02*
X214115601Y-39380180D01*
X20332561Y-99360588D02*
X20380180Y-99265350D01*
X20380180Y-99265350D02*
X20380180Y-99122493D01*
X20380180Y-99122493D02*
X20332561Y-98979636D01*
X20332561Y-98979636D02*
X20237323Y-98884398D01*
X20237323Y-98884398D02*
X20142085Y-98836779D01*
X20142085Y-98836779D02*
X19951609Y-98789160D01*
X19951609Y-98789160D02*
X19808752Y-98789160D01*
X19808752Y-98789160D02*
X19618276Y-98836779D01*
X19618276Y-98836779D02*
X19523038Y-98884398D01*
X19523038Y-98884398D02*
X19427800Y-98979636D01*
X19427800Y-98979636D02*
X19380180Y-99122493D01*
X19380180Y-99122493D02*
X19380180Y-99217731D01*
X19380180Y-99217731D02*
X19427800Y-99360588D01*
X19427800Y-99360588D02*
X19475419Y-99408207D01*
X19475419Y-99408207D02*
X19808752Y-99408207D01*
X19808752Y-99408207D02*
X19808752Y-99217731D01*
X19380180Y-99836779D02*
X20380180Y-99836779D01*
X20380180Y-99836779D02*
X19380180Y-100408207D01*
X19380180Y-100408207D02*
X20380180Y-100408207D01*
X19380180Y-100884398D02*
X20380180Y-100884398D01*
X20380180Y-100884398D02*
X20380180Y-101122493D01*
X20380180Y-101122493D02*
X20332561Y-101265350D01*
X20332561Y-101265350D02*
X20237323Y-101360588D01*
X20237323Y-101360588D02*
X20142085Y-101408207D01*
X20142085Y-101408207D02*
X19951609Y-101455826D01*
X19951609Y-101455826D02*
X19808752Y-101455826D01*
X19808752Y-101455826D02*
X19618276Y-101408207D01*
X19618276Y-101408207D02*
X19523038Y-101360588D01*
X19523038Y-101360588D02*
X19427800Y-101265350D01*
X19427800Y-101265350D02*
X19380180Y-101122493D01*
X19380180Y-101122493D02*
X19380180Y-100884398D01*
X155332561Y-99360588D02*
X155380180Y-99265350D01*
X155380180Y-99265350D02*
X155380180Y-99122493D01*
X155380180Y-99122493D02*
X155332561Y-98979636D01*
X155332561Y-98979636D02*
X155237323Y-98884398D01*
X155237323Y-98884398D02*
X155142085Y-98836779D01*
X155142085Y-98836779D02*
X154951609Y-98789160D01*
X154951609Y-98789160D02*
X154808752Y-98789160D01*
X154808752Y-98789160D02*
X154618276Y-98836779D01*
X154618276Y-98836779D02*
X154523038Y-98884398D01*
X154523038Y-98884398D02*
X154427800Y-98979636D01*
X154427800Y-98979636D02*
X154380180Y-99122493D01*
X154380180Y-99122493D02*
X154380180Y-99217731D01*
X154380180Y-99217731D02*
X154427800Y-99360588D01*
X154427800Y-99360588D02*
X154475419Y-99408207D01*
X154475419Y-99408207D02*
X154808752Y-99408207D01*
X154808752Y-99408207D02*
X154808752Y-99217731D01*
X154380180Y-99836779D02*
X155380180Y-99836779D01*
X155380180Y-99836779D02*
X154380180Y-100408207D01*
X154380180Y-100408207D02*
X155380180Y-100408207D01*
X154380180Y-100884398D02*
X155380180Y-100884398D01*
X155380180Y-100884398D02*
X155380180Y-101122493D01*
X155380180Y-101122493D02*
X155332561Y-101265350D01*
X155332561Y-101265350D02*
X155237323Y-101360588D01*
X155237323Y-101360588D02*
X155142085Y-101408207D01*
X155142085Y-101408207D02*
X154951609Y-101455826D01*
X154951609Y-101455826D02*
X154808752Y-101455826D01*
X154808752Y-101455826D02*
X154618276Y-101408207D01*
X154618276Y-101408207D02*
X154523038Y-101360588D01*
X154523038Y-101360588D02*
X154427800Y-101265350D01*
X154427800Y-101265350D02*
X154380180Y-101122493D01*
X154380180Y-101122493D02*
X154380180Y-100884398D01*
X129027952Y-61884741D02*
X128320845Y-62591848D01*
X128657563Y-62255130D02*
X128253502Y-61851069D01*
X128623891Y-61480680D02*
X127916784Y-62187786D01*
X128118815Y-61379664D02*
X127782097Y-61042947D01*
X128388189Y-61244977D02*
X127445380Y-61716382D01*
X127445380Y-61716382D02*
X127916784Y-60773573D01*
X127344364Y-60201153D02*
X127681082Y-60537871D01*
X127681082Y-60537871D02*
X126973975Y-61244977D01*
X126771944Y-59628733D02*
X127108662Y-59965451D01*
X127108662Y-59965451D02*
X126401555Y-60672557D01*
X125997494Y-58854283D02*
X125290387Y-59561389D01*
X125054685Y-59191000D02*
X124987342Y-59191000D01*
X124987342Y-59191000D02*
X124886326Y-59157329D01*
X124886326Y-59157329D02*
X124717968Y-58988970D01*
X124717968Y-58988970D02*
X124684296Y-58887955D01*
X124684296Y-58887955D02*
X124684296Y-58820611D01*
X124684296Y-58820611D02*
X124717968Y-58719596D01*
X124717968Y-58719596D02*
X124785311Y-58652252D01*
X124785311Y-58652252D02*
X124919998Y-58584909D01*
X124919998Y-58584909D02*
X125728120Y-58584909D01*
X125728120Y-58584909D02*
X125290387Y-58147176D01*
X124515937Y-57507413D02*
X124583281Y-57507413D01*
X124583281Y-57507413D02*
X124717968Y-57574756D01*
X124717968Y-57574756D02*
X124785311Y-57642100D01*
X124785311Y-57642100D02*
X124852655Y-57776787D01*
X124852655Y-57776787D02*
X124852655Y-57911474D01*
X124852655Y-57911474D02*
X124818983Y-58012489D01*
X124818983Y-58012489D02*
X124717968Y-58180848D01*
X124717968Y-58180848D02*
X124616952Y-58281863D01*
X124616952Y-58281863D02*
X124448594Y-58382878D01*
X124448594Y-58382878D02*
X124347578Y-58416550D01*
X124347578Y-58416550D02*
X124212891Y-58416550D01*
X124212891Y-58416550D02*
X124078204Y-58349207D01*
X124078204Y-58349207D02*
X124010861Y-58281863D01*
X124010861Y-58281863D02*
X123943517Y-58147176D01*
X123943517Y-58147176D02*
X123943517Y-58079833D01*
X123270082Y-56261558D02*
X123337426Y-56261558D01*
X123337426Y-56261558D02*
X123472113Y-56328901D01*
X123472113Y-56328901D02*
X123539456Y-56396245D01*
X123539456Y-56396245D02*
X123606800Y-56530932D01*
X123606800Y-56530932D02*
X123606800Y-56665619D01*
X123606800Y-56665619D02*
X123573128Y-56766634D01*
X123573128Y-56766634D02*
X123472113Y-56934993D01*
X123472113Y-56934993D02*
X123371097Y-57036008D01*
X123371097Y-57036008D02*
X123202739Y-57137023D01*
X123202739Y-57137023D02*
X123101723Y-57170695D01*
X123101723Y-57170695D02*
X122967036Y-57170695D01*
X122967036Y-57170695D02*
X122832349Y-57103352D01*
X122832349Y-57103352D02*
X122765006Y-57036008D01*
X122765006Y-57036008D02*
X122697662Y-56901321D01*
X122697662Y-56901321D02*
X122697662Y-56833978D01*
X122192586Y-56463588D02*
X122057899Y-56328901D01*
X122057899Y-56328901D02*
X122024227Y-56227886D01*
X122024227Y-56227886D02*
X122024227Y-56093199D01*
X122024227Y-56093199D02*
X122125243Y-55924840D01*
X122125243Y-55924840D02*
X122360945Y-55689138D01*
X122360945Y-55689138D02*
X122529304Y-55588123D01*
X122529304Y-55588123D02*
X122663991Y-55588123D01*
X122663991Y-55588123D02*
X122765006Y-55621795D01*
X122765006Y-55621795D02*
X122899693Y-55756482D01*
X122899693Y-55756482D02*
X122933365Y-55857497D01*
X122933365Y-55857497D02*
X122933365Y-55992184D01*
X122933365Y-55992184D02*
X122832349Y-56160543D01*
X122832349Y-56160543D02*
X122596647Y-56396245D01*
X122596647Y-56396245D02*
X122428288Y-56497260D01*
X122428288Y-56497260D02*
X122293601Y-56497260D01*
X122293601Y-56497260D02*
X122192586Y-56463588D01*
X122293601Y-55150390D02*
X121586495Y-55857497D01*
X121586495Y-55857497D02*
X121889540Y-54746329D01*
X121889540Y-54746329D02*
X121182434Y-55453436D01*
X121552823Y-54409612D02*
X120845716Y-55116718D01*
X120845716Y-55116718D02*
X121148762Y-54005551D01*
X121148762Y-54005551D02*
X120441655Y-54712657D01*
X120441655Y-54039222D02*
X120205953Y-53803520D01*
X120475327Y-53332116D02*
X120812044Y-53668833D01*
X120812044Y-53668833D02*
X120104938Y-54375940D01*
X120104938Y-54375940D02*
X119768220Y-54039222D01*
X119700876Y-52692352D02*
X119768220Y-52692352D01*
X119768220Y-52692352D02*
X119902907Y-52759696D01*
X119902907Y-52759696D02*
X119970251Y-52827039D01*
X119970251Y-52827039D02*
X120037594Y-52961726D01*
X120037594Y-52961726D02*
X120037594Y-53096413D01*
X120037594Y-53096413D02*
X120003922Y-53197429D01*
X120003922Y-53197429D02*
X119902907Y-53365787D01*
X119902907Y-53365787D02*
X119801892Y-53466803D01*
X119801892Y-53466803D02*
X119633533Y-53567818D01*
X119633533Y-53567818D02*
X119532518Y-53601490D01*
X119532518Y-53601490D02*
X119397831Y-53601490D01*
X119397831Y-53601490D02*
X119263144Y-53534146D01*
X119263144Y-53534146D02*
X119195800Y-53466803D01*
X119195800Y-53466803D02*
X119128457Y-53332116D01*
X119128457Y-53332116D02*
X119128457Y-53264772D01*
X118859083Y-53130085D02*
X118455022Y-52726024D01*
X119364159Y-52220948D02*
X118657052Y-52928054D01*
X118084632Y-52355635D02*
X117949945Y-52220948D01*
X117949945Y-52220948D02*
X117916273Y-52119932D01*
X117916273Y-52119932D02*
X117916273Y-51985245D01*
X117916273Y-51985245D02*
X118017289Y-51816887D01*
X118017289Y-51816887D02*
X118252991Y-51581184D01*
X118252991Y-51581184D02*
X118421350Y-51480169D01*
X118421350Y-51480169D02*
X118556037Y-51480169D01*
X118556037Y-51480169D02*
X118657052Y-51513841D01*
X118657052Y-51513841D02*
X118791739Y-51648528D01*
X118791739Y-51648528D02*
X118825411Y-51749543D01*
X118825411Y-51749543D02*
X118825411Y-51884230D01*
X118825411Y-51884230D02*
X118724396Y-52052589D01*
X118724396Y-52052589D02*
X118488693Y-52288291D01*
X118488693Y-52288291D02*
X118320335Y-52389306D01*
X118320335Y-52389306D02*
X118185648Y-52389306D01*
X118185648Y-52389306D02*
X118084632Y-52355635D01*
X117781587Y-50638375D02*
X117680571Y-51210795D01*
X118185648Y-51042436D02*
X117478541Y-51749543D01*
X117478541Y-51749543D02*
X117209167Y-51480169D01*
X117209167Y-51480169D02*
X117175495Y-51379154D01*
X117175495Y-51379154D02*
X117175495Y-51311810D01*
X117175495Y-51311810D02*
X117209167Y-51210795D01*
X117209167Y-51210795D02*
X117310182Y-51109780D01*
X117310182Y-51109780D02*
X117411197Y-51076108D01*
X117411197Y-51076108D02*
X117478541Y-51076108D01*
X117478541Y-51076108D02*
X117579556Y-51109780D01*
X117579556Y-51109780D02*
X117848930Y-51379154D01*
X257779577Y-134122789D02*
X258486684Y-133415682D01*
X258486684Y-133415682D02*
X258756058Y-133685056D01*
X258756058Y-133685056D02*
X258789730Y-133786071D01*
X258789730Y-133786071D02*
X258789730Y-133853415D01*
X258789730Y-133853415D02*
X258756058Y-133954430D01*
X258756058Y-133954430D02*
X258655043Y-134055445D01*
X258655043Y-134055445D02*
X258554028Y-134089117D01*
X258554028Y-134089117D02*
X258486684Y-134089117D01*
X258486684Y-134089117D02*
X258385669Y-134055445D01*
X258385669Y-134055445D02*
X258116295Y-133786071D01*
X259328478Y-134257476D02*
X259463165Y-134392163D01*
X259463165Y-134392163D02*
X259496837Y-134493178D01*
X259496837Y-134493178D02*
X259496837Y-134627865D01*
X259496837Y-134627865D02*
X259395821Y-134796224D01*
X259395821Y-134796224D02*
X259160119Y-135031926D01*
X259160119Y-135031926D02*
X258991760Y-135132941D01*
X258991760Y-135132941D02*
X258857073Y-135132941D01*
X258857073Y-135132941D02*
X258756058Y-135099269D01*
X258756058Y-135099269D02*
X258621371Y-134964582D01*
X258621371Y-134964582D02*
X258587699Y-134863567D01*
X258587699Y-134863567D02*
X258587699Y-134728880D01*
X258587699Y-134728880D02*
X258688715Y-134560521D01*
X258688715Y-134560521D02*
X258924417Y-134324819D01*
X258924417Y-134324819D02*
X259092776Y-134223804D01*
X259092776Y-134223804D02*
X259227463Y-134223804D01*
X259227463Y-134223804D02*
X259328478Y-134257476D01*
X259867226Y-134796224D02*
X259328478Y-135671689D01*
X259328478Y-135671689D02*
X259968241Y-135301300D01*
X259968241Y-135301300D02*
X259597852Y-135941063D01*
X259597852Y-135941063D02*
X260473317Y-135402315D01*
X260405974Y-136008407D02*
X260641676Y-136244109D01*
X260372302Y-136715513D02*
X260035585Y-136378796D01*
X260035585Y-136378796D02*
X260742691Y-135671689D01*
X260742691Y-135671689D02*
X261079409Y-136008407D01*
X261079409Y-137422620D02*
X261180424Y-136850200D01*
X260675348Y-137018559D02*
X261382455Y-136311452D01*
X261382455Y-136311452D02*
X261651829Y-136580826D01*
X261651829Y-136580826D02*
X261685500Y-136681842D01*
X261685500Y-136681842D02*
X261685500Y-136749185D01*
X261685500Y-136749185D02*
X261651829Y-136850200D01*
X261651829Y-136850200D02*
X261550813Y-136951216D01*
X261550813Y-136951216D02*
X261449798Y-136984887D01*
X261449798Y-136984887D02*
X261382455Y-136984887D01*
X261382455Y-136984887D02*
X261281439Y-136951216D01*
X261281439Y-136951216D02*
X261012065Y-136681842D01*
X261146752Y-137624651D02*
X261685500Y-138163399D01*
X262257920Y-138601132D02*
X261921203Y-138264414D01*
X261921203Y-138264414D02*
X262628310Y-137557307D01*
X262864012Y-138466445D02*
X263099714Y-138702147D01*
X262830340Y-139173552D02*
X262493623Y-138836834D01*
X262493623Y-138836834D02*
X263200730Y-138129727D01*
X263200730Y-138129727D02*
X263537447Y-138466445D01*
X263133386Y-139476597D02*
X263840493Y-138769491D01*
X263840493Y-138769491D02*
X264008852Y-138937849D01*
X264008852Y-138937849D02*
X264076195Y-139072536D01*
X264076195Y-139072536D02*
X264076195Y-139207223D01*
X264076195Y-139207223D02*
X264042523Y-139308239D01*
X264042523Y-139308239D02*
X263941508Y-139476597D01*
X263941508Y-139476597D02*
X263840493Y-139577613D01*
X263840493Y-139577613D02*
X263672134Y-139678628D01*
X263672134Y-139678628D02*
X263571119Y-139712300D01*
X263571119Y-139712300D02*
X263436432Y-139712300D01*
X263436432Y-139712300D02*
X263301745Y-139644956D01*
X263301745Y-139644956D02*
X263133386Y-139476597D01*
X264446584Y-139510269D02*
X264513928Y-139510269D01*
X264513928Y-139510269D02*
X264614943Y-139543941D01*
X264614943Y-139543941D02*
X264783302Y-139712300D01*
X264783302Y-139712300D02*
X264816974Y-139813315D01*
X264816974Y-139813315D02*
X264816974Y-139880658D01*
X264816974Y-139880658D02*
X264783302Y-139981674D01*
X264783302Y-139981674D02*
X264715958Y-140049017D01*
X264715958Y-140049017D02*
X264581271Y-140116361D01*
X264581271Y-140116361D02*
X263773149Y-140116361D01*
X263773149Y-140116361D02*
X264210882Y-140554093D01*
X272168757Y-123699328D02*
X272828671Y-123972673D01*
X272828671Y-123972673D02*
X272942430Y-124071336D01*
X272942430Y-124071336D02*
X272993973Y-124195771D01*
X272993973Y-124195771D02*
X272983298Y-124345977D01*
X272983298Y-124345977D02*
X272946852Y-124433965D01*
X272420753Y-123339825D02*
X272394981Y-123277608D01*
X272394981Y-123277608D02*
X272387433Y-123171396D01*
X272387433Y-123171396D02*
X272478548Y-122951425D01*
X272478548Y-122951425D02*
X272558989Y-122881660D01*
X272558989Y-122881660D02*
X272621206Y-122855888D01*
X272621206Y-122855888D02*
X272727417Y-122848340D01*
X272727417Y-122848340D02*
X272815406Y-122884786D01*
X272815406Y-122884786D02*
X272929166Y-122983449D01*
X272929166Y-122983449D02*
X273238421Y-123730057D01*
X273238421Y-123730057D02*
X273475320Y-123158131D01*
X260001934Y-145379057D02*
X260405995Y-145783118D01*
X260405995Y-145783118D02*
X260459870Y-145890868D01*
X260459870Y-145890868D02*
X260459870Y-145998617D01*
X260459870Y-145998617D02*
X260405995Y-146106367D01*
X260405995Y-146106367D02*
X260352120Y-146160242D01*
X261133305Y-145379057D02*
X260810056Y-145702306D01*
X260971680Y-145540681D02*
X260405995Y-144974996D01*
X260405995Y-144974996D02*
X260432932Y-145109683D01*
X260432932Y-145109683D02*
X260432932Y-145217433D01*
X260432932Y-145217433D02*
X260405995Y-145298245D01*
D12*
X249559049Y-140256310D02*
X249666799Y-140148561D01*
X249602149Y-140342510D02*
X249451300Y-140040811D01*
X249451300Y-140040811D02*
X249752999Y-140191661D01*
X249946948Y-139997711D02*
X249817649Y-140127011D01*
X249882298Y-140062361D02*
X249656024Y-139836087D01*
X249656024Y-139836087D02*
X249666799Y-139889962D01*
X249666799Y-139889962D02*
X249666799Y-139933061D01*
X249666799Y-139933061D02*
X249656024Y-139965386D01*
X255019935Y-135536205D02*
X255063035Y-135514655D01*
X255063035Y-135514655D02*
X255084585Y-135514655D01*
X255084585Y-135514655D02*
X255116910Y-135525430D01*
X255116910Y-135525430D02*
X255149234Y-135557755D01*
X255149234Y-135557755D02*
X255160009Y-135590080D01*
X255160009Y-135590080D02*
X255160009Y-135611630D01*
X255160009Y-135611630D02*
X255149234Y-135643955D01*
X255149234Y-135643955D02*
X255063035Y-135730155D01*
X255063035Y-135730155D02*
X254836761Y-135503880D01*
X254836761Y-135503880D02*
X254912185Y-135428456D01*
X254912185Y-135428456D02*
X254944510Y-135417681D01*
X254944510Y-135417681D02*
X254966060Y-135417681D01*
X254966060Y-135417681D02*
X254998385Y-135428456D01*
X254998385Y-135428456D02*
X255019935Y-135450006D01*
X255019935Y-135450006D02*
X255030710Y-135482331D01*
X255030710Y-135482331D02*
X255030710Y-135503880D01*
X255030710Y-135503880D02*
X255019935Y-135536205D01*
X255019935Y-135536205D02*
X254944510Y-135611630D01*
X255407833Y-135385356D02*
X255278534Y-135514655D01*
X255343184Y-135450006D02*
X255116910Y-135223731D01*
X255116910Y-135223731D02*
X255127685Y-135277606D01*
X255127685Y-135277606D02*
X255127685Y-135320706D01*
X255127685Y-135320706D02*
X255116910Y-135353031D01*
X255019935Y-135536205D02*
X255063035Y-135514655D01*
X255063035Y-135514655D02*
X255084585Y-135514655D01*
X255084585Y-135514655D02*
X255116910Y-135525430D01*
X255116910Y-135525430D02*
X255149234Y-135557755D01*
X255149234Y-135557755D02*
X255160009Y-135590080D01*
X255160009Y-135590080D02*
X255160009Y-135611630D01*
X255160009Y-135611630D02*
X255149234Y-135643955D01*
X255149234Y-135643955D02*
X255063035Y-135730155D01*
X255063035Y-135730155D02*
X254836761Y-135503880D01*
X254836761Y-135503880D02*
X254912185Y-135428456D01*
X254912185Y-135428456D02*
X254944510Y-135417681D01*
X254944510Y-135417681D02*
X254966060Y-135417681D01*
X254966060Y-135417681D02*
X254998385Y-135428456D01*
X254998385Y-135428456D02*
X255019935Y-135450006D01*
X255019935Y-135450006D02*
X255030710Y-135482331D01*
X255030710Y-135482331D02*
X255030710Y-135503880D01*
X255030710Y-135503880D02*
X255019935Y-135536205D01*
X255019935Y-135536205D02*
X254944510Y-135611630D01*
X255407833Y-135385356D02*
X255278534Y-135514655D01*
X255343184Y-135450006D02*
X255116910Y-135223731D01*
X255116910Y-135223731D02*
X255127685Y-135277606D01*
X255127685Y-135277606D02*
X255127685Y-135320706D01*
X255127685Y-135320706D02*
X255116910Y-135353031D01*
D11*
X238917745Y-158613587D02*
X239191090Y-159273501D01*
X239191090Y-159273501D02*
X239201765Y-159423707D01*
X239201765Y-159423707D02*
X239150222Y-159548142D01*
X239150222Y-159548142D02*
X239036463Y-159646805D01*
X239036463Y-159646805D02*
X238948474Y-159683251D01*
X239881197Y-158575310D02*
X240136319Y-159191229D01*
X239515442Y-158314471D02*
X239568816Y-159065500D01*
X239568816Y-159065500D02*
X240140741Y-158828600D01*
X182446781Y-152823585D02*
X182546690Y-152936253D01*
X182546690Y-152936253D02*
X182564120Y-153001302D01*
X182564120Y-153001302D02*
X182557740Y-153107590D01*
X182557740Y-153107590D02*
X182486311Y-153231308D01*
X182486311Y-153231308D02*
X182397453Y-153289977D01*
X182397453Y-153289977D02*
X182332404Y-153307407D01*
X182332404Y-153307407D02*
X182226116Y-153301027D01*
X182226116Y-153301027D02*
X181896202Y-153110551D01*
X181896202Y-153110551D02*
X182396202Y-152244526D01*
X182396202Y-152244526D02*
X182684877Y-152411192D01*
X182684877Y-152411192D02*
X182743546Y-152500051D01*
X182743546Y-152500051D02*
X182760976Y-152565099D01*
X182760976Y-152565099D02*
X182754596Y-152671388D01*
X182754596Y-152671388D02*
X182706977Y-152753866D01*
X182706977Y-152753866D02*
X182618118Y-152812535D01*
X182618118Y-152812535D02*
X182553070Y-152829965D01*
X182553070Y-152829965D02*
X182446781Y-152823585D01*
X182446781Y-152823585D02*
X182158106Y-152656919D01*
X183427184Y-152839764D02*
X183592141Y-152935002D01*
X183592141Y-152935002D02*
X183650810Y-153023860D01*
X183650810Y-153023860D02*
X183685670Y-153153958D01*
X183685670Y-153153958D02*
X183631671Y-153342725D01*
X183631671Y-153342725D02*
X183465005Y-153631400D01*
X183465005Y-153631400D02*
X183328527Y-153772547D01*
X183328527Y-153772547D02*
X183198429Y-153807407D01*
X183198429Y-153807407D02*
X183092141Y-153801027D01*
X183092141Y-153801027D02*
X182927184Y-153705789D01*
X182927184Y-153705789D02*
X182868515Y-153616931D01*
X182868515Y-153616931D02*
X182833655Y-153486833D01*
X182833655Y-153486833D02*
X182887654Y-153298066D01*
X182887654Y-153298066D02*
X183054321Y-153009391D01*
X183054321Y-153009391D02*
X183190798Y-152868243D01*
X183190798Y-152868243D02*
X183320896Y-152833384D01*
X183320896Y-152833384D02*
X183427184Y-152839764D01*
X184334449Y-153363573D02*
X184499406Y-153458811D01*
X184499406Y-153458811D02*
X184558075Y-153547670D01*
X184558075Y-153547670D02*
X184592935Y-153677767D01*
X184592935Y-153677767D02*
X184538936Y-153866534D01*
X184538936Y-153866534D02*
X184372269Y-154155209D01*
X184372269Y-154155209D02*
X184235792Y-154296357D01*
X184235792Y-154296357D02*
X184105694Y-154331216D01*
X184105694Y-154331216D02*
X183999406Y-154324837D01*
X183999406Y-154324837D02*
X183834449Y-154229599D01*
X183834449Y-154229599D02*
X183775780Y-154140740D01*
X183775780Y-154140740D02*
X183740920Y-154010643D01*
X183740920Y-154010643D02*
X183794919Y-153821876D01*
X183794919Y-153821876D02*
X183961586Y-153533201D01*
X183961586Y-153533201D02*
X184098063Y-153392053D01*
X184098063Y-153392053D02*
X184228161Y-153357193D01*
X184228161Y-153357193D02*
X184334449Y-153363573D01*
X184953038Y-153720716D02*
X185447910Y-154006430D01*
X184700474Y-154729599D02*
X185200474Y-153863573D01*
X185690218Y-155301027D02*
X185195346Y-155015313D01*
X185442782Y-155158170D02*
X185942782Y-154292145D01*
X185942782Y-154292145D02*
X185788875Y-154368244D01*
X185788875Y-154368244D02*
X185658777Y-154403103D01*
X185658777Y-154403103D02*
X185552489Y-154396723D01*
X172021203Y-56849798D02*
X171516127Y-56344722D01*
X171516127Y-56344722D02*
X171448783Y-56210035D01*
X171448783Y-56210035D02*
X171448783Y-56075348D01*
X171448783Y-56075348D02*
X171516127Y-55940661D01*
X171516127Y-55940661D02*
X171583470Y-55873317D01*
X171751829Y-57119172D02*
X171280424Y-57590577D01*
X171280424Y-57590577D02*
X170876363Y-56580424D01*
X159841829Y-129657217D02*
X160087555Y-129130447D01*
X159556115Y-129162346D02*
X160422140Y-128662346D01*
X160422140Y-128662346D02*
X160612616Y-128992260D01*
X160612616Y-128992260D02*
X160618996Y-129098548D01*
X160618996Y-129098548D02*
X160601566Y-129163597D01*
X160601566Y-129163597D02*
X160542897Y-129252455D01*
X160542897Y-129252455D02*
X160419179Y-129323884D01*
X160419179Y-129323884D02*
X160312891Y-129330264D01*
X160312891Y-129330264D02*
X160247842Y-129312834D01*
X160247842Y-129312834D02*
X160158984Y-129254165D01*
X160158984Y-129254165D02*
X159968508Y-128924250D01*
X160509747Y-129766466D02*
X160676414Y-130055141D01*
X160294210Y-130440764D02*
X160056115Y-130028371D01*
X160056115Y-130028371D02*
X160922140Y-129528371D01*
X160922140Y-129528371D02*
X161160235Y-129940764D01*
X160525926Y-130746869D02*
X160556115Y-130894397D01*
X160556115Y-130894397D02*
X160675162Y-131100593D01*
X160675162Y-131100593D02*
X160764021Y-131159262D01*
X160764021Y-131159262D02*
X160829070Y-131176692D01*
X160829070Y-131176692D02*
X160935358Y-131170312D01*
X160935358Y-131170312D02*
X161017836Y-131122693D01*
X161017836Y-131122693D02*
X161076505Y-131033835D01*
X161076505Y-131033835D02*
X161093935Y-130968786D01*
X161093935Y-130968786D02*
X161087555Y-130862498D01*
X161087555Y-130862498D02*
X161033557Y-130673731D01*
X161033557Y-130673731D02*
X161027177Y-130567443D01*
X161027177Y-130567443D02*
X161044607Y-130502394D01*
X161044607Y-130502394D02*
X161103276Y-130413536D01*
X161103276Y-130413536D02*
X161185754Y-130365917D01*
X161185754Y-130365917D02*
X161292043Y-130359537D01*
X161292043Y-130359537D02*
X161357091Y-130376967D01*
X161357091Y-130376967D02*
X161445950Y-130435636D01*
X161445950Y-130435636D02*
X161564997Y-130641832D01*
X161564997Y-130641832D02*
X161595187Y-130789360D01*
X161438319Y-131374799D02*
X161604985Y-131663475D01*
X161222782Y-132049097D02*
X160984686Y-131636704D01*
X160984686Y-131636704D02*
X161850712Y-131136704D01*
X161850712Y-131136704D02*
X162088807Y-131549097D01*
X162231664Y-131796533D02*
X162517378Y-132291405D01*
X161508496Y-132543969D02*
X162374521Y-132043969D01*
X162079925Y-133533712D02*
X161794210Y-133038841D01*
X161937067Y-133286277D02*
X162803093Y-132786277D01*
X162803093Y-132786277D02*
X162631756Y-132775227D01*
X162631756Y-132775227D02*
X162501658Y-132740367D01*
X162501658Y-132740367D02*
X162412800Y-132681698D01*
X237999328Y-45131242D02*
X238272673Y-44471328D01*
X238272673Y-44471328D02*
X238371336Y-44357569D01*
X238371336Y-44357569D02*
X238495771Y-44306026D01*
X238495771Y-44306026D02*
X238645977Y-44316701D01*
X238645977Y-44316701D02*
X238733965Y-44353147D01*
X237163437Y-44785005D02*
X237339414Y-44857897D01*
X237339414Y-44857897D02*
X237445625Y-44850349D01*
X237445625Y-44850349D02*
X237507842Y-44824577D01*
X237507842Y-44824577D02*
X237650500Y-44729041D01*
X237650500Y-44729041D02*
X237767386Y-44571287D01*
X237767386Y-44571287D02*
X237913171Y-44219332D01*
X237913171Y-44219332D02*
X237905622Y-44113121D01*
X237905622Y-44113121D02*
X237879851Y-44050904D01*
X237879851Y-44050904D02*
X237810086Y-43970463D01*
X237810086Y-43970463D02*
X237634108Y-43897571D01*
X237634108Y-43897571D02*
X237527897Y-43905119D01*
X237527897Y-43905119D02*
X237465680Y-43930891D01*
X237465680Y-43930891D02*
X237385239Y-44000656D01*
X237385239Y-44000656D02*
X237294124Y-44220628D01*
X237294124Y-44220628D02*
X237301672Y-44326839D01*
X237301672Y-44326839D02*
X237327444Y-44389056D01*
X237327444Y-44389056D02*
X237397209Y-44469497D01*
X237397209Y-44469497D02*
X237573186Y-44542389D01*
X237573186Y-44542389D02*
X237679398Y-44534841D01*
X237679398Y-44534841D02*
X237741615Y-44509069D01*
X237741615Y-44509069D02*
X237822055Y-44439304D01*
X258286918Y-57557920D02*
X258791994Y-57052844D01*
X258791994Y-57052844D02*
X258926681Y-56985500D01*
X258926681Y-56985500D02*
X259061368Y-56985500D01*
X259061368Y-56985500D02*
X259196055Y-57052844D01*
X259196055Y-57052844D02*
X259263399Y-57120187D01*
X258286918Y-56143706D02*
X258690979Y-56547767D01*
X258488948Y-56345737D02*
X257781841Y-57052844D01*
X257781841Y-57052844D02*
X257950200Y-57019172D01*
X257950200Y-57019172D02*
X258084887Y-57019172D01*
X258084887Y-57019172D02*
X258185902Y-57052844D01*
X257613483Y-55470271D02*
X258017544Y-55874332D01*
X257815513Y-55672302D02*
X257108406Y-56379409D01*
X257108406Y-56379409D02*
X257276765Y-56345737D01*
X257276765Y-56345737D02*
X257411452Y-56345737D01*
X257411452Y-56345737D02*
X257512467Y-56379409D01*
D10*
X71542580Y-99833333D02*
X71542580Y-99357143D01*
X71542580Y-99357143D02*
X72542580Y-99357143D01*
X72447342Y-100119048D02*
X72494961Y-100166667D01*
X72494961Y-100166667D02*
X72542580Y-100261905D01*
X72542580Y-100261905D02*
X72542580Y-100500000D01*
X72542580Y-100500000D02*
X72494961Y-100595238D01*
X72494961Y-100595238D02*
X72447342Y-100642857D01*
X72447342Y-100642857D02*
X72352104Y-100690476D01*
X72352104Y-100690476D02*
X72256866Y-100690476D01*
X72256866Y-100690476D02*
X72114009Y-100642857D01*
X72114009Y-100642857D02*
X71542580Y-100071429D01*
X71542580Y-100071429D02*
X71542580Y-100690476D01*
X78476190Y-97957419D02*
X78476190Y-96957419D01*
X78476190Y-97433609D02*
X79047618Y-97433609D01*
X79047618Y-97957419D02*
X79047618Y-96957419D01*
X79476190Y-97671704D02*
X79952380Y-97671704D01*
X79380952Y-97957419D02*
X79714285Y-96957419D01*
X79714285Y-96957419D02*
X80047618Y-97957419D01*
X80857142Y-97957419D02*
X80380952Y-97957419D01*
X80380952Y-97957419D02*
X80380952Y-96957419D01*
X81666666Y-97957419D02*
X81190476Y-97957419D01*
X81190476Y-97957419D02*
X81190476Y-96957419D01*
%TO.C,POWER_LED2*%
D13*
X263932376Y-135498995D02*
X262801005Y-134367624D01*
X262998995Y-136432376D02*
X261867624Y-135301005D01*
X261748830Y-134248830D02*
X261536698Y-134036698D01*
X261536698Y-134248830D02*
X261748830Y-134036698D01*
%TO.C,J2*%
D14*
X266173560Y-124077820D02*
G75*
G02*
X265973560Y-124077820I-100000J0D01*
G01*
X265973560Y-124077820D02*
G75*
G02*
X266173560Y-124077820I100000J0D01*
G01*
D15*
X267705734Y-117393622D02*
X267468198Y-117836427D01*
X267012824Y-117106609D02*
X267705734Y-117393622D01*
X272919089Y-120094260D02*
X270163768Y-126746192D01*
X267468198Y-117836427D02*
X272919089Y-120094260D01*
X266867678Y-117587683D02*
X267012824Y-117106609D01*
X266267155Y-117338939D02*
X266867678Y-117587683D01*
X270163768Y-126746192D02*
X268962724Y-126248704D01*
X268962724Y-126248704D02*
X268845292Y-126741258D01*
X268177425Y-125923422D02*
X263511834Y-123990871D01*
X263511834Y-123990871D02*
X266267155Y-117338939D01*
X268845292Y-126741258D02*
X267921413Y-126358575D01*
X267921413Y-126358575D02*
X268177425Y-125923422D01*
%TO.C,J1*%
X248820917Y-140142452D02*
X249421959Y-140743493D01*
X249718943Y-139244426D02*
X248820917Y-140142452D01*
X251331146Y-142652681D02*
X252745359Y-144066895D01*
X254244426Y-134718943D02*
X255142452Y-133820917D01*
X254654548Y-145976083D02*
X256881934Y-148203469D01*
X255142452Y-133820917D02*
X255743493Y-134421957D01*
X256881934Y-148203469D02*
X263203469Y-141881934D01*
X259066894Y-137745359D02*
X257652680Y-136331145D01*
X263203469Y-141881934D02*
X260976083Y-139654548D01*
%TO.C,J4*%
D13*
X241665158Y-156209369D02*
X241033731Y-154684968D01*
X241438705Y-156903897D02*
X236542143Y-158932119D01*
X232569889Y-149342249D01*
X237466451Y-147314027D01*
X241438705Y-156903897D01*
%TO.C,Status_LED_TX1*%
X243785255Y-149681007D02*
X243900060Y-149958171D01*
X243704076Y-149876992D02*
X243981240Y-149762186D01*
X241713467Y-151415908D02*
X243191675Y-150803613D01*
X241208325Y-150196387D02*
X242686533Y-149584092D01*
%TO.C,Status_LED_RX1*%
X244585255Y-151581007D02*
X244700060Y-151858171D01*
X244504076Y-151776992D02*
X244781240Y-151662186D01*
X242513467Y-153315908D02*
X243991675Y-152703613D01*
X242008325Y-152096387D02*
X243486533Y-151484092D01*
%TO.C,REF\u002A\u002A1*%
D10*
X205500000Y-100000000D02*
G75*
G02*
X186500000Y-100000000I-9500000J0D01*
G01*
X186500000Y-100000000D02*
G75*
G02*
X205500000Y-100000000I9500000J0D01*
G01*
%TO.C,REF\u002A\u002A*%
X224500000Y-119000000D02*
G75*
G02*
X205500000Y-119000000I-9500000J0D01*
G01*
X205500000Y-119000000D02*
G75*
G02*
X224500000Y-119000000I9500000J0D01*
G01*
%TO.C,Magnet2*%
X245000000Y-100000000D02*
G75*
G02*
X185000000Y-100000000I-30000000J0D01*
G01*
X185000000Y-100000000D02*
G75*
G02*
X245000000Y-100000000I30000000J0D01*
G01*
X265000000Y-100000000D02*
G75*
G02*
X165000000Y-100000000I-50000000J0D01*
G01*
X165000000Y-100000000D02*
G75*
G02*
X265000000Y-100000000I50000000J0D01*
G01*
%TO.C,BOOT1*%
D13*
X182148885Y-151019800D02*
X187241115Y-153959800D01*
X182886661Y-149401935D02*
X184226661Y-147080987D01*
X183296261Y-144742487D02*
X182646261Y-145868320D01*
X185258885Y-145633122D02*
X190351115Y-148573122D01*
X189613339Y-150190987D02*
X188273339Y-152511935D01*
%TO.C,J7*%
X178435509Y-50884363D02*
X179354748Y-49965124D01*
X185075241Y-52298576D02*
X167298577Y-70075241D01*
X163607480Y-66384143D01*
X181384144Y-48607479D01*
X185075241Y-52298576D01*
%TO.C,REF\u002A\u002A2*%
D10*
X224500000Y-81000000D02*
G75*
G02*
X205500000Y-81000000I-9500000J0D01*
G01*
X205500000Y-81000000D02*
G75*
G02*
X224500000Y-81000000I9500000J0D01*
G01*
%TO.C,RESET1*%
D13*
X161040200Y-127758885D02*
X163980200Y-132851115D01*
X162488065Y-126726661D02*
X164809013Y-125386661D01*
X165172513Y-122896261D02*
X164046680Y-123546261D01*
X166426878Y-124648885D02*
X169366878Y-129741115D01*
X167919013Y-130773339D02*
X165598065Y-132113339D01*
%TO.C,J6*%
X240801382Y-46398597D02*
X239276981Y-45767170D01*
X241132361Y-47049829D02*
X239104139Y-51946391D01*
X231860923Y-48946153D01*
X233889145Y-44049591D01*
X241132361Y-47049829D01*
%TO.C,U4*%
D15*
X77600000Y-99050000D02*
G75*
G02*
X77400000Y-99050000I-100000J0D01*
G01*
X77400000Y-99050000D02*
G75*
G02*
X77600000Y-99050000I100000J0D01*
G01*
%TO.C,J11*%
D13*
X251691771Y-59737340D02*
X250772532Y-58818101D01*
X261902393Y-61894016D02*
X258211295Y-65585113D01*
X249414887Y-56788705D01*
X253105984Y-53097608D01*
X261902393Y-61894016D01*
%TO.C,REF\u002A\u002A3*%
D10*
X243500000Y-100000000D02*
G75*
G02*
X224500000Y-100000000I-9500000J0D01*
G01*
X224500000Y-100000000D02*
G75*
G02*
X243500000Y-100000000I9500000J0D01*
G01*
%TO.C,S6*%
X28500000Y-100000000D02*
G75*
G02*
X21500000Y-100000000I-3500000J0D01*
G01*
X21500000Y-100000000D02*
G75*
G02*
X28500000Y-100000000I3500000J0D01*
G01*
X28500000Y-100000000D02*
G75*
G02*
X21500000Y-100000000I-3500000J0D01*
G01*
X21500000Y-100000000D02*
G75*
G02*
X28500000Y-100000000I3500000J0D01*
G01*
%TO.C,S8*%
X83500000Y-155000000D02*
G75*
G02*
X76500000Y-155000000I-3500000J0D01*
G01*
X76500000Y-155000000D02*
G75*
G02*
X83500000Y-155000000I3500000J0D01*
G01*
X83500000Y-155000000D02*
G75*
G02*
X76500000Y-155000000I-3500000J0D01*
G01*
X76500000Y-155000000D02*
G75*
G02*
X83500000Y-155000000I3500000J0D01*
G01*
%TO.C,L3*%
X83500000Y-119000000D02*
G75*
G02*
X76500000Y-119000000I-3500000J0D01*
G01*
X76500000Y-119000000D02*
G75*
G02*
X83500000Y-119000000I3500000J0D01*
G01*
X89500000Y-119000000D02*
G75*
G02*
X70500000Y-119000000I-9500000J0D01*
G01*
X70500000Y-119000000D02*
G75*
G02*
X89500000Y-119000000I9500000J0D01*
G01*
%TO.C,S3*%
X218500000Y-155000000D02*
G75*
G02*
X211500000Y-155000000I-3500000J0D01*
G01*
X211500000Y-155000000D02*
G75*
G02*
X218500000Y-155000000I3500000J0D01*
G01*
%TO.C,L2*%
X70500000Y-100000000D02*
G75*
G02*
X51500000Y-100000000I-9500000J0D01*
G01*
X51500000Y-100000000D02*
G75*
G02*
X70500000Y-100000000I9500000J0D01*
G01*
X64500000Y-100000000D02*
G75*
G02*
X57500000Y-100000000I-3500000J0D01*
G01*
X57500000Y-100000000D02*
G75*
G02*
X64500000Y-100000000I3500000J0D01*
G01*
%TO.C,L1*%
X89500000Y-81000000D02*
G75*
G02*
X70500000Y-81000000I-9500000J0D01*
G01*
X70500000Y-81000000D02*
G75*
G02*
X89500000Y-81000000I9500000J0D01*
G01*
X83500000Y-81000000D02*
G75*
G02*
X76500000Y-81000000I-3500000J0D01*
G01*
X76500000Y-81000000D02*
G75*
G02*
X83500000Y-81000000I3500000J0D01*
G01*
%TO.C,S1*%
X218500000Y-45000000D02*
G75*
G02*
X211500000Y-45000000I-3500000J0D01*
G01*
X211500000Y-45000000D02*
G75*
G02*
X218500000Y-45000000I3500000J0D01*
G01*
%TO.C,S5*%
X83500000Y-45000000D02*
G75*
G02*
X76500000Y-45000000I-3500000J0D01*
G01*
X76500000Y-45000000D02*
G75*
G02*
X83500000Y-45000000I3500000J0D01*
G01*
X83500000Y-45000000D02*
G75*
G02*
X76500000Y-45000000I-3500000J0D01*
G01*
X76500000Y-45000000D02*
G75*
G02*
X83500000Y-45000000I3500000J0D01*
G01*
%TO.C,L4*%
X102500000Y-100000000D02*
G75*
G02*
X95500000Y-100000000I-3500000J0D01*
G01*
X95500000Y-100000000D02*
G75*
G02*
X102500000Y-100000000I3500000J0D01*
G01*
X108500000Y-100000000D02*
G75*
G02*
X89500000Y-100000000I-9500000J0D01*
G01*
X89500000Y-100000000D02*
G75*
G02*
X108500000Y-100000000I9500000J0D01*
G01*
%TO.C,S2*%
X163500000Y-100000000D02*
G75*
G02*
X156500000Y-100000000I-3500000J0D01*
G01*
X156500000Y-100000000D02*
G75*
G02*
X163500000Y-100000000I3500000J0D01*
G01*
%TO.C,S4*%
X273500000Y-100000000D02*
G75*
G02*
X266500000Y-100000000I-3500000J0D01*
G01*
X266500000Y-100000000D02*
G75*
G02*
X273500000Y-100000000I3500000J0D01*
G01*
%TO.C,HALL*%
X109999999Y-100000000D02*
G75*
G02*
X50000001Y-100000000I-29999999J0D01*
G01*
X50000001Y-100000000D02*
G75*
G02*
X109999999Y-100000000I29999999J0D01*
G01*
X109999999Y-100000000D02*
G75*
G02*
X50000001Y-100000000I-29999999J0D01*
G01*
X50000001Y-100000000D02*
G75*
G02*
X109999999Y-100000000I29999999J0D01*
G01*
X130000000Y-100000000D02*
G75*
G02*
X30000000Y-100000000I-50000000J0D01*
G01*
X30000000Y-100000000D02*
G75*
G02*
X130000000Y-100000000I50000000J0D01*
G01*
%TO.C,S7*%
X138500000Y-100000000D02*
G75*
G02*
X131500000Y-100000000I-3500000J0D01*
G01*
X131500000Y-100000000D02*
G75*
G02*
X138500000Y-100000000I3500000J0D01*
G01*
X138500000Y-100000000D02*
G75*
G02*
X131500000Y-100000000I-3500000J0D01*
G01*
X131500000Y-100000000D02*
G75*
G02*
X138500000Y-100000000I3500000J0D01*
G01*
%TD*%
M02*
