%TF.GenerationSoftware,KiCad,Pcbnew,10.0.0*%
%TF.CreationDate,2026-06-02T15:21:01+02:00*%
%TF.ProjectId,Maglev,4d61676c-6576-42e6-9b69-6361645f7063,rev?*%
%TF.SameCoordinates,Original*%
%TF.FileFunction,Copper,L4,Bot*%
%TF.FilePolarity,Positive*%
%FSLAX46Y46*%
G04 Gerber Fmt 4.6, Leading zero omitted, Abs format (unit mm)*
G04 Created by KiCad (PCBNEW 10.0.0) date 2026-06-02 15:21:01*
%MOMM*%
%LPD*%
G01*
G04 APERTURE LIST*
G04 Aperture macros list*
%AMRoundRect*
0 Rectangle with rounded corners*
0 $1 Rounding radius*
0 $2 $3 $4 $5 $6 $7 $8 $9 X,Y pos of 4 corners*
0 Add a 4 corners polygon primitive as box body*
4,1,4,$2,$3,$4,$5,$6,$7,$8,$9,$2,$3,0*
0 Add four circle primitives for the rounded corners*
1,1,$1+$1,$2,$3*
1,1,$1+$1,$4,$5*
1,1,$1+$1,$6,$7*
1,1,$1+$1,$8,$9*
0 Add four rect primitives between the rounded corners*
20,1,$1+$1,$2,$3,$4,$5,0*
20,1,$1+$1,$4,$5,$6,$7,0*
20,1,$1+$1,$6,$7,$8,$9,0*
20,1,$1+$1,$8,$9,$2,$3,0*%
%AMHorizOval*
0 Thick line with rounded ends*
0 $1 width*
0 $2 $3 position (X,Y) of the first rounded end (center of the circle)*
0 $4 $5 position (X,Y) of the second rounded end (center of the circle)*
0 Add line between two ends*
20,1,$1,$2,$3,$4,$5,0*
0 Add two circle primitives to create the rounded ends*
1,1,$1,$2,$3*
1,1,$1,$4,$5*%
%AMRotRect*
0 Rectangle, with rotation*
0 The origin of the aperture is its center*
0 $1 length*
0 $2 width*
0 $3 Rotation angle, in degrees counterclockwise*
0 Add horizontal line*
21,1,$1,$2,0,0,$3*%
%AMFreePoly0*
4,1,153,0.256581,0.154743,0.258810,0.154000,0.260000,0.154000,0.261581,0.153743,0.263810,0.153000,0.265000,0.153000,0.266581,0.152743,0.269581,0.151743,0.270236,0.151472,0.271920,0.150630,0.273810,0.150000,0.300000,0.150000,0.300000,0.123809,0.300630,0.121920,0.301472,0.120236,0.301743,0.119581,0.302743,0.116581,0.303000,0.115000,0.303000,0.113810,0.303743,0.111581,
0.304000,0.110000,0.304000,0.108810,0.304743,0.106581,0.305000,0.105000,0.305000,-0.455000,0.304743,-0.456581,0.304000,-0.458810,0.304000,-0.460001,0.303743,-0.461581,0.303000,-0.463810,0.303000,-0.465000,0.302743,-0.466581,0.301743,-0.469580,0.301472,-0.470236,0.300630,-0.471920,0.299743,-0.474581,0.298536,-0.476536,0.297108,-0.477965,0.296471,-0.479236,0.295536,-0.480536,
0.294108,-0.481964,0.293472,-0.483235,0.292536,-0.484536,0.284536,-0.492536,0.283236,-0.493471,0.281964,-0.494108,0.280536,-0.495536,0.279236,-0.496472,0.277964,-0.497108,0.276536,-0.498536,0.274581,-0.499743,0.271920,-0.500629,0.270236,-0.501472,0.269581,-0.501742,0.266581,-0.502743,0.265000,-0.503000,0.263810,-0.503000,0.261581,-0.503743,0.260000,-0.504000,0.258810,-0.504000,
0.256581,-0.504743,0.255000,-0.505000,0.095000,-0.505000,0.093419,-0.504743,0.091190,-0.504000,0.090000,-0.504000,0.088419,-0.503743,0.086190,-0.503000,0.085000,-0.503000,0.083419,-0.502743,0.080419,-0.501743,0.079764,-0.501472,0.078080,-0.500630,0.075419,-0.499743,0.073464,-0.498536,0.072037,-0.497108,0.070764,-0.496472,0.069464,-0.495535,0.068036,-0.494108,0.066764,-0.493472,
0.065464,-0.492537,0.057464,-0.484536,0.056528,-0.483236,0.055893,-0.481964,0.054464,-0.480536,0.053528,-0.479236,0.052892,-0.477964,0.051464,-0.476536,0.050258,-0.474581,0.049370,-0.471920,0.048528,-0.470237,0.048257,-0.469581,0.047257,-0.466581,0.047000,-0.465000,0.047000,-0.463810,0.046258,-0.461581,0.046000,-0.460000,0.046000,-0.458810,0.045257,-0.456581,0.045000,-0.455000,
0.045000,-0.155000,-0.255000,-0.155000,-0.256581,-0.154743,-0.258810,-0.154000,-0.260000,-0.154000,-0.261581,-0.153743,-0.263810,-0.153000,-0.265000,-0.153000,-0.266581,-0.152743,-0.269581,-0.151743,-0.270236,-0.151472,-0.271920,-0.150630,-0.273810,-0.150000,-0.300000,-0.150000,-0.300000,-0.123810,-0.300630,-0.121920,-0.301472,-0.120236,-0.301743,-0.119581,-0.302743,-0.116581,-0.303000,-0.115000,
-0.303000,-0.113810,-0.303743,-0.111581,-0.304000,-0.110000,-0.304000,-0.108810,-0.304743,-0.106581,-0.305000,-0.105000,-0.305000,0.105000,-0.304743,0.106581,-0.304000,0.108810,-0.304000,0.110000,-0.303743,0.111581,-0.303000,0.113810,-0.303000,0.115000,-0.302743,0.116581,-0.301743,0.119581,-0.301472,0.120236,-0.300630,0.121920,-0.300000,0.123810,-0.300000,0.150000,-0.273810,0.150000,
-0.271920,0.150630,-0.270236,0.151472,-0.269581,0.151743,-0.266581,0.152743,-0.265000,0.153000,-0.263810,0.153000,-0.261581,0.153743,-0.260000,0.154000,-0.258810,0.154000,-0.256581,0.154743,-0.255000,0.155000,0.255000,0.155000,0.256581,0.154743,0.256581,0.154743,$1*%
%AMFreePoly1*
4,1,153,0.256581,0.504743,0.258810,0.504000,0.260000,0.504000,0.261581,0.503743,0.263810,0.503000,0.265000,0.503000,0.266581,0.502743,0.269581,0.501742,0.270236,0.501472,0.271920,0.500629,0.274581,0.499743,0.276536,0.498536,0.277964,0.497108,0.279236,0.496472,0.280536,0.495536,0.281964,0.494108,0.283236,0.493471,0.284536,0.492536,0.292536,0.484536,0.293472,0.483235,
0.294108,0.481964,0.295536,0.480536,0.296471,0.479236,0.297108,0.477965,0.298536,0.476536,0.299743,0.474581,0.300630,0.471920,0.301472,0.470236,0.301743,0.469580,0.302743,0.466581,0.303000,0.465000,0.303000,0.463810,0.303743,0.461581,0.304000,0.460001,0.304000,0.458810,0.304743,0.456581,0.305000,0.455000,0.305000,-0.105000,0.304743,-0.106581,0.304000,-0.108810,
0.304000,-0.110000,0.303743,-0.111581,0.303000,-0.113810,0.303000,-0.115000,0.302743,-0.116581,0.301743,-0.119581,0.301472,-0.120236,0.300630,-0.121920,0.300000,-0.123810,0.300000,-0.150000,0.273810,-0.150000,0.271920,-0.150630,0.270236,-0.151472,0.269581,-0.151743,0.266581,-0.152743,0.265000,-0.153000,0.263810,-0.153000,0.261581,-0.153743,0.260000,-0.154000,0.258810,-0.154000,
0.256581,-0.154743,0.255000,-0.155000,-0.255000,-0.155000,-0.256581,-0.154743,-0.258810,-0.154000,-0.260000,-0.154000,-0.261581,-0.153743,-0.263810,-0.153000,-0.265000,-0.153000,-0.266581,-0.152743,-0.269581,-0.151743,-0.270236,-0.151472,-0.271920,-0.150630,-0.273810,-0.150000,-0.300000,-0.150000,-0.300000,-0.123810,-0.300630,-0.121920,-0.301472,-0.120236,-0.301743,-0.119581,-0.302743,-0.116581,
-0.303000,-0.115000,-0.303000,-0.113810,-0.303743,-0.111581,-0.304000,-0.110000,-0.304000,-0.108810,-0.304743,-0.106581,-0.305000,-0.105000,-0.305000,0.105000,-0.304743,0.106581,-0.304000,0.108810,-0.304000,0.110000,-0.303743,0.111581,-0.303000,0.113810,-0.303000,0.115000,-0.302743,0.116581,-0.301743,0.119581,-0.301472,0.120236,-0.300630,0.121920,-0.300000,0.123810,-0.300000,0.150000,
-0.273810,0.150000,-0.271920,0.150630,-0.270236,0.151472,-0.269581,0.151743,-0.266581,0.152743,-0.265000,0.153000,-0.263810,0.153000,-0.261581,0.153743,-0.260000,0.154000,-0.258810,0.154000,-0.256581,0.154743,-0.255000,0.155000,0.045000,0.155000,0.045000,0.455000,0.045257,0.456581,0.046000,0.458810,0.046000,0.460000,0.046258,0.461581,0.047000,0.463810,0.047000,0.465000,
0.047257,0.466581,0.048257,0.469581,0.048528,0.470237,0.049370,0.471920,0.050258,0.474581,0.051464,0.476536,0.052892,0.477964,0.053528,0.479236,0.054464,0.480536,0.055893,0.481964,0.056528,0.483236,0.057464,0.484536,0.065464,0.492537,0.066764,0.493472,0.068036,0.494108,0.069464,0.495535,0.070764,0.496472,0.072037,0.497108,0.073464,0.498536,0.075419,0.499743,
0.078080,0.500630,0.079764,0.501472,0.080419,0.501743,0.083419,0.502743,0.085000,0.503000,0.086190,0.503000,0.088419,0.503743,0.090000,0.504000,0.091190,0.504000,0.093419,0.504743,0.095000,0.505000,0.255000,0.505000,0.256581,0.504743,0.256581,0.504743,$1*%
%AMFreePoly2*
4,1,153,-0.093419,0.504743,-0.091190,0.504000,-0.090000,0.504000,-0.088419,0.503743,-0.086190,0.503000,-0.085000,0.503000,-0.083419,0.502743,-0.080419,0.501743,-0.079764,0.501472,-0.078080,0.500630,-0.075419,0.499743,-0.073464,0.498536,-0.072037,0.497108,-0.070764,0.496472,-0.069464,0.495535,-0.068036,0.494108,-0.066764,0.493472,-0.065464,0.492537,-0.057464,0.484536,-0.056528,0.483236,
-0.055893,0.481964,-0.054464,0.480536,-0.053528,0.479236,-0.052892,0.477964,-0.051464,0.476536,-0.050258,0.474581,-0.049370,0.471920,-0.048528,0.470237,-0.048257,0.469581,-0.047257,0.466581,-0.047000,0.465000,-0.047000,0.463810,-0.046258,0.461581,-0.046000,0.460000,-0.046000,0.458810,-0.045257,0.456581,-0.045000,0.455000,-0.045000,0.155000,0.255000,0.155000,0.256581,0.154743,
0.258810,0.154000,0.260000,0.154000,0.261581,0.153743,0.263810,0.153000,0.265000,0.153000,0.266581,0.152743,0.269581,0.151743,0.270236,0.151472,0.271920,0.150630,0.273810,0.150000,0.300000,0.150000,0.300000,0.123809,0.300630,0.121920,0.301472,0.120236,0.301743,0.119581,0.302743,0.116581,0.303000,0.115000,0.303000,0.113810,0.303743,0.111581,0.304000,0.110000,
0.304000,0.108810,0.304743,0.106581,0.305000,0.105000,0.305000,-0.105000,0.304743,-0.106581,0.304000,-0.108810,0.304000,-0.110000,0.303743,-0.111581,0.303000,-0.113810,0.303000,-0.115000,0.302743,-0.116581,0.301743,-0.119581,0.301472,-0.120236,0.300630,-0.121920,0.300000,-0.123810,0.300000,-0.150000,0.273810,-0.150000,0.271920,-0.150630,0.270236,-0.151472,0.269581,-0.151743,
0.266581,-0.152743,0.265000,-0.153000,0.263810,-0.153000,0.261581,-0.153743,0.260000,-0.154000,0.258810,-0.154000,0.256581,-0.154743,0.255000,-0.155000,-0.255000,-0.155000,-0.256581,-0.154743,-0.258810,-0.154000,-0.260000,-0.154000,-0.261581,-0.153743,-0.263810,-0.153000,-0.265000,-0.153000,-0.266581,-0.152743,-0.269581,-0.151743,-0.270236,-0.151472,-0.271920,-0.150630,-0.273810,-0.150000,
-0.300000,-0.150000,-0.300000,-0.123810,-0.300630,-0.121920,-0.301472,-0.120236,-0.301743,-0.119581,-0.302743,-0.116581,-0.303000,-0.115000,-0.303000,-0.113810,-0.303743,-0.111581,-0.304000,-0.110000,-0.304000,-0.108810,-0.304743,-0.106581,-0.305000,-0.105000,-0.305000,0.455000,-0.304743,0.456581,-0.304000,0.458810,-0.304000,0.460001,-0.303743,0.461581,-0.303000,0.463810,-0.303000,0.465000,
-0.302743,0.466581,-0.301743,0.469580,-0.301472,0.470236,-0.300630,0.471920,-0.299743,0.474581,-0.298536,0.476536,-0.297108,0.477965,-0.296471,0.479236,-0.295536,0.480536,-0.294108,0.481964,-0.293472,0.483235,-0.292536,0.484536,-0.284536,0.492536,-0.283236,0.493471,-0.281964,0.494108,-0.280536,0.495536,-0.279236,0.496472,-0.277964,0.497108,-0.276536,0.498536,-0.274581,0.499743,
-0.271920,0.500629,-0.270236,0.501472,-0.269581,0.501742,-0.266581,0.502743,-0.265000,0.503000,-0.263810,0.503000,-0.261581,0.503743,-0.260000,0.504000,-0.258810,0.504000,-0.256581,0.504743,-0.255000,0.505000,-0.095000,0.505000,-0.093419,0.504743,-0.093419,0.504743,$1*%
%AMFreePoly3*
4,1,153,0.256581,0.154743,0.258810,0.154000,0.260000,0.154000,0.261581,0.153743,0.263810,0.153000,0.265000,0.153000,0.266581,0.152743,0.269581,0.151743,0.270236,0.151472,0.271920,0.150630,0.273810,0.150000,0.300000,0.150000,0.300000,0.123809,0.300630,0.121920,0.301472,0.120236,0.301743,0.119581,0.302743,0.116581,0.303000,0.115000,0.303000,0.113810,0.303743,0.111581,
0.304000,0.110000,0.304000,0.108810,0.304743,0.106581,0.305000,0.105000,0.305000,-0.105000,0.304743,-0.106581,0.304000,-0.108810,0.304000,-0.110000,0.303743,-0.111581,0.303000,-0.113810,0.303000,-0.115000,0.302743,-0.116581,0.301743,-0.119581,0.301472,-0.120236,0.300630,-0.121920,0.300000,-0.123810,0.300000,-0.150000,0.273810,-0.150000,0.271920,-0.150630,0.270236,-0.151472,
0.269581,-0.151743,0.266581,-0.152743,0.265000,-0.153000,0.263810,-0.153000,0.261581,-0.153743,0.260000,-0.154000,0.258810,-0.154000,0.256581,-0.154743,0.255000,-0.155000,-0.045000,-0.155000,-0.045000,-0.455000,-0.045257,-0.456581,-0.046000,-0.458810,-0.046000,-0.460000,-0.046258,-0.461581,-0.047000,-0.463810,-0.047000,-0.465000,-0.047257,-0.466581,-0.048257,-0.469581,-0.048528,-0.470237,
-0.049370,-0.471920,-0.050258,-0.474581,-0.051464,-0.476536,-0.052892,-0.477964,-0.053528,-0.479236,-0.054464,-0.480536,-0.055893,-0.481964,-0.056528,-0.483236,-0.057464,-0.484536,-0.065464,-0.492537,-0.066764,-0.493472,-0.068036,-0.494108,-0.069464,-0.495535,-0.070764,-0.496472,-0.072037,-0.497108,-0.073464,-0.498536,-0.075419,-0.499743,-0.078080,-0.500630,-0.079764,-0.501472,-0.080419,-0.501743,
-0.083419,-0.502743,-0.085000,-0.503000,-0.086190,-0.503000,-0.088419,-0.503743,-0.090000,-0.504000,-0.091190,-0.504000,-0.093419,-0.504743,-0.095000,-0.505000,-0.255000,-0.505000,-0.256581,-0.504743,-0.258810,-0.504000,-0.260000,-0.504000,-0.261581,-0.503743,-0.263810,-0.503000,-0.265000,-0.503000,-0.266581,-0.502743,-0.269581,-0.501742,-0.270236,-0.501472,-0.271920,-0.500629,-0.274581,-0.499743,
-0.276536,-0.498536,-0.277964,-0.497108,-0.279236,-0.496472,-0.280536,-0.495536,-0.281964,-0.494108,-0.283236,-0.493471,-0.284536,-0.492536,-0.292536,-0.484536,-0.293472,-0.483235,-0.294108,-0.481964,-0.295536,-0.480536,-0.296471,-0.479236,-0.297108,-0.477965,-0.298536,-0.476536,-0.299743,-0.474581,-0.300630,-0.471920,-0.301472,-0.470236,-0.301743,-0.469580,-0.302743,-0.466581,-0.303000,-0.465000,
-0.303000,-0.463810,-0.303743,-0.461581,-0.304000,-0.460001,-0.304000,-0.458810,-0.304743,-0.456581,-0.305000,-0.455000,-0.305000,0.105000,-0.304743,0.106581,-0.304000,0.108810,-0.304000,0.110000,-0.303743,0.111581,-0.303000,0.113810,-0.303000,0.115000,-0.302743,0.116581,-0.301743,0.119581,-0.301472,0.120236,-0.300630,0.121920,-0.300000,0.123810,-0.300000,0.150000,-0.273810,0.150000,
-0.271920,0.150630,-0.270236,0.151472,-0.269581,0.151743,-0.266581,0.152743,-0.265000,0.153000,-0.263810,0.153000,-0.261581,0.153743,-0.260000,0.154000,-0.258810,0.154000,-0.256581,0.154743,-0.255000,0.155000,0.255000,0.155000,0.256581,0.154743,0.256581,0.154743,$1*%
G04 Aperture macros list end*
%TA.AperFunction,ComponentPad*%
%ADD10RotRect,1.300000X1.300000X45.000000*%
%TD*%
%TA.AperFunction,ComponentPad*%
%ADD11C,1.300000*%
%TD*%
%TA.AperFunction,ComponentPad*%
%ADD12C,1.800000*%
%TD*%
%TA.AperFunction,ComponentPad*%
%ADD13RotRect,1.650000X1.650000X120.000000*%
%TD*%
%TA.AperFunction,ComponentPad*%
%ADD14C,1.650000*%
%TD*%
%TA.AperFunction,ComponentPad*%
%ADD15RotRect,1.650000X1.650000X112.500000*%
%TD*%
%TA.AperFunction,ComponentPad*%
%ADD16HorizOval,1.200000X-0.459619X0.459619X0.459619X-0.459619X0*%
%TD*%
%TA.AperFunction,ComponentPad*%
%ADD17RotRect,1.650000X1.650000X191.250000*%
%TD*%
%TA.AperFunction,ComponentPad*%
%ADD18RotRect,1.650000X1.650000X247.500000*%
%TD*%
%TA.AperFunction,ComponentPad*%
%ADD19RotRect,1.300000X1.300000X135.000000*%
%TD*%
%TA.AperFunction,SMDPad,CuDef*%
%ADD20RoundRect,0.051250X0.733750X0.153750X-0.733750X0.153750X-0.733750X-0.153750X0.733750X-0.153750X0*%
%TD*%
%TA.AperFunction,SMDPad,CuDef*%
%ADD21R,2.480000X3.400000*%
%TD*%
%TA.AperFunction,SMDPad,CuDef*%
%ADD22RotRect,0.950000X1.750000X45.000000*%
%TD*%
%TA.AperFunction,SMDPad,CuDef*%
%ADD23RotRect,1.750000X3.200000X135.000000*%
%TD*%
%TA.AperFunction,SMDPad,CuDef*%
%ADD24RoundRect,0.033750X-0.190919X-0.334108X0.334108X0.190919X0.190919X0.334108X-0.334108X-0.190919X0*%
%TD*%
%TA.AperFunction,SMDPad,CuDef*%
%ADD25RoundRect,0.033750X0.190919X-0.334108X0.334108X-0.190919X-0.190919X0.334108X-0.334108X0.190919X0*%
%TD*%
%TA.AperFunction,SMDPad,CuDef*%
%ADD26RotRect,3.700000X3.700000X45.000000*%
%TD*%
%TA.AperFunction,SMDPad,CuDef*%
%ADD27RotRect,0.900000X1.600000X60.000000*%
%TD*%
%TA.AperFunction,SMDPad,CuDef*%
%ADD28RotRect,0.700000X1.300000X135.000000*%
%TD*%
%TA.AperFunction,SMDPad,CuDef*%
%ADD29R,0.600000X0.900000*%
%TD*%
%TA.AperFunction,SMDPad,CuDef*%
%ADD30R,1.600000X0.900000*%
%TD*%
%TA.AperFunction,SMDPad,CuDef*%
%ADD31RotRect,0.700000X1.300000X225.000000*%
%TD*%
%TA.AperFunction,SMDPad,CuDef*%
%ADD32RotRect,0.780000X0.880000X45.000000*%
%TD*%
%TA.AperFunction,SMDPad,CuDef*%
%ADD33R,0.900000X2.500000*%
%TD*%
%TA.AperFunction,SMDPad,CuDef*%
%ADD34R,1.300000X0.700000*%
%TD*%
%TA.AperFunction,SMDPad,CuDef*%
%ADD35R,0.900000X1.600000*%
%TD*%
%TA.AperFunction,ComponentPad*%
%ADD36RoundRect,0.190500X-0.444500X1.079500X-0.444500X-1.079500X0.444500X-1.079500X0.444500X1.079500X0*%
%TD*%
%TA.AperFunction,SMDPad,CuDef*%
%ADD37RotRect,0.900000X1.600000X225.000000*%
%TD*%
%TA.AperFunction,SMDPad,CuDef*%
%ADD38RotRect,0.900000X1.600000X135.000000*%
%TD*%
%TA.AperFunction,SMDPad,CuDef*%
%ADD39RotRect,0.900000X1.600000X45.000000*%
%TD*%
%TA.AperFunction,ComponentPad*%
%ADD40RoundRect,0.190500X1.079500X0.444500X-1.079500X0.444500X-1.079500X-0.444500X1.079500X-0.444500X0*%
%TD*%
%TA.AperFunction,ComponentPad*%
%ADD41RotRect,1.650000X1.650000X168.750000*%
%TD*%
%TA.AperFunction,SMDPad,CuDef*%
%ADD42RotRect,0.800000X0.800000X45.000000*%
%TD*%
%TA.AperFunction,SMDPad,CuDef*%
%ADD43RotRect,0.625000X1.000000X45.000000*%
%TD*%
%TA.AperFunction,SMDPad,CuDef*%
%ADD44RotRect,0.900000X1.600000X210.000000*%
%TD*%
%TA.AperFunction,ComponentPad*%
%ADD45RoundRect,0.190500X0.444500X-1.079500X0.444500X1.079500X-0.444500X1.079500X-0.444500X-1.079500X0*%
%TD*%
%TA.AperFunction,SMDPad,CuDef*%
%ADD46RotRect,0.900000X1.600000X22.500000*%
%TD*%
%TA.AperFunction,SMDPad,CuDef*%
%ADD47RotRect,0.800000X0.800000X135.000000*%
%TD*%
%TA.AperFunction,SMDPad,CuDef*%
%ADD48RotRect,0.600000X0.900000X135.000000*%
%TD*%
%TA.AperFunction,SMDPad,CuDef*%
%ADD49RotRect,0.625000X1.000000X135.000000*%
%TD*%
%TA.AperFunction,SMDPad,CuDef*%
%ADD50RotRect,0.900000X1.600000X315.000000*%
%TD*%
%TA.AperFunction,SMDPad,CuDef*%
%ADD51RotRect,0.900000X1.600000X30.000000*%
%TD*%
%TA.AperFunction,SMDPad,CuDef*%
%ADD52FreePoly0,135.000000*%
%TD*%
%TA.AperFunction,SMDPad,CuDef*%
%ADD53RoundRect,0.046250X0.235113X-0.123744X-0.123744X0.235113X-0.235113X0.123744X0.123744X-0.235113X0*%
%TD*%
%TA.AperFunction,SMDPad,CuDef*%
%ADD54FreePoly1,135.000000*%
%TD*%
%TA.AperFunction,SMDPad,CuDef*%
%ADD55RoundRect,0.055500X0.876105X0.742462X0.742462X0.876105X-0.876105X-0.742462X-0.742462X-0.876105X0*%
%TD*%
%TA.AperFunction,SMDPad,CuDef*%
%ADD56FreePoly2,135.000000*%
%TD*%
%TA.AperFunction,SMDPad,CuDef*%
%ADD57FreePoly3,135.000000*%
%TD*%
%TA.AperFunction,ComponentPad*%
%ADD58RoundRect,0.190500X-1.079500X-0.444500X1.079500X-0.444500X1.079500X0.444500X-1.079500X0.444500X0*%
%TD*%
%TA.AperFunction,SMDPad,CuDef*%
%ADD59RotRect,0.500000X0.600000X45.000000*%
%TD*%
%TA.AperFunction,SMDPad,CuDef*%
%ADD60RotRect,0.950000X0.700000X135.000000*%
%TD*%
%TA.AperFunction,SMDPad,CuDef*%
%ADD61RotRect,0.600000X1.150000X135.000000*%
%TD*%
%TA.AperFunction,ViaPad*%
%ADD62C,0.610000*%
%TD*%
%TA.AperFunction,Conductor*%
%ADD63C,0.508000*%
%TD*%
%TA.AperFunction,Conductor*%
%ADD64C,0.203200*%
%TD*%
%TA.AperFunction,Conductor*%
%ADD65C,0.762000*%
%TD*%
%TA.AperFunction,Conductor*%
%ADD66C,0.304800*%
%TD*%
%TA.AperFunction,Conductor*%
%ADD67C,0.254000*%
%TD*%
%TA.AperFunction,Conductor*%
%ADD68C,0.152400*%
%TD*%
G04 APERTURE END LIST*
D10*
%TO.P,J7,1,1_1*%
%TO.N,/EM_A_N*%
X180178527Y-51708142D03*
D11*
%TO.P,J7,2,2_2*%
%TO.N,/EM_A_P*%
X181076553Y-54402219D03*
%TO.P,J7,3,3_3*%
%TO.N,/EM_A_N*%
X178382476Y-53504193D03*
%TO.P,J7,4,4_4*%
%TO.N,/EM_A_P*%
X179280501Y-56198270D03*
%TO.P,J7,5,5_5*%
%TO.N,/EM_B_N*%
X176586425Y-55300244D03*
%TO.P,J7,6,6_6*%
%TO.N,/EM_B_P*%
X177484450Y-57994321D03*
%TO.P,J7,7,7_7*%
%TO.N,/EM_B_N*%
X174790373Y-57096296D03*
%TO.P,J7,8,8_8*%
%TO.N,/EM_B_P*%
X175688399Y-59790373D03*
%TO.P,J7,9,9_9*%
%TO.N,/EM_C_N*%
X172994322Y-58892347D03*
%TO.P,J7,10,10_10*%
%TO.N,/EM_C_P*%
X173892348Y-61586424D03*
%TO.P,J7,11,11_11*%
%TO.N,/EM_C_N*%
X171198271Y-60688398D03*
%TO.P,J7,12,12_12*%
%TO.N,/EM_C_P*%
X172096296Y-63382475D03*
%TO.P,J7,13,13_13*%
%TO.N,/EM_D_N*%
X169402220Y-62484449D03*
%TO.P,J7,14,14_14*%
%TO.N,/EM_D_P*%
X170300245Y-65178526D03*
%TO.P,J7,15,15_15*%
%TO.N,/EM_D_N*%
X167606168Y-64280501D03*
%TO.P,J7,16,16_16*%
%TO.N,/EM_D_P*%
X168504194Y-66974577D03*
%TD*%
D12*
%TO.P,J2,1*%
%TO.N,GND*%
X267453377Y-123621086D03*
%TO.P,J2,2*%
%TO.N,Net-(J2-Pad2)*%
X268792769Y-120387508D03*
%TD*%
D13*
%TO.P,I2C1,1,1_1*%
%TO.N,/I2C_SCL*%
X266066461Y-73449705D03*
D14*
%TO.P,I2C1,2,2_2*%
%TO.N,/I2C_SDA*%
X264796461Y-71250000D03*
%TO.P,I2C1,3,3_3*%
%TO.N,/I2C_INT*%
X263526461Y-69050296D03*
%TD*%
D15*
%TO.P,J4,1,1_1*%
%TO.N,Net-(J4-Pad1)*%
X239635648Y-156157046D03*
D14*
%TO.P,J4,2,2_2*%
%TO.N,Net-(U2-U0RXD{slash}GPIO20)*%
X237288994Y-157129062D03*
%TO.P,J4,3,3_3*%
%TO.N,/RXD*%
X238663632Y-153810392D03*
%TO.P,J4,4,4_4*%
%TO.N,Net-(U2-U0RXD{slash}GPIO20)*%
X236316978Y-154782408D03*
%TO.P,J4,5,5_5*%
%TO.N,Net-(J4-Pad5)*%
X237691616Y-151463738D03*
%TO.P,J4,6,6_6*%
%TO.N,Net-(U2-U0TXD{slash}GPIO21)*%
X235344962Y-152435754D03*
%TO.P,J4,7,7_7*%
%TO.N,/TXD*%
X236719600Y-149117084D03*
%TO.P,J4,8,8_8*%
%TO.N,Net-(U2-U0TXD{slash}GPIO21)*%
X234372946Y-150089100D03*
%TD*%
D16*
%TO.P,J1,S1,SHIELD_S1*%
%TO.N,GND*%
X252427162Y-143536565D03*
%TO.P,J1,S2*%
%TO.N,N/C*%
X258586062Y-137476659D03*
%TO.P,J1,S3*%
X255432366Y-146541768D03*
%TO.P,J1,S4*%
X261541768Y-140432366D03*
%TD*%
D17*
%TO.P,UART1,1,1_1*%
%TO.N,/TXD*%
X227463291Y-156147389D03*
D14*
%TO.P,UART1,2,2_2*%
%TO.N,/RXD*%
X224972096Y-156642918D03*
%TD*%
D18*
%TO.P,J6,1,1_1*%
%TO.N,unconnected-(J6-Pad1)*%
X239329304Y-47796680D03*
D14*
%TO.P,J6,2,2_2*%
%TO.N,/Electromagnet Driver/PMODE*%
X238357288Y-50143334D03*
%TO.P,J6,3,3_3*%
%TO.N,+3.3V*%
X236982650Y-46824664D03*
%TO.P,J6,4,4_4*%
%TO.N,/Electromagnet Driver/PMODE*%
X236010634Y-49171318D03*
%TO.P,J6,5,5_5*%
%TO.N,GND*%
X234635996Y-45852648D03*
%TO.P,J6,6,6_6*%
%TO.N,/Electromagnet Driver/PMODE*%
X233663980Y-48199302D03*
%TD*%
D19*
%TO.P,J11,1,1_1*%
%TO.N,/I2C_SCL*%
X252515550Y-57994322D03*
D11*
%TO.P,J11,2,2_2*%
%TO.N,+3.3V*%
X255209627Y-57096296D03*
%TO.P,J11,3,3_3*%
%TO.N,/I2C_SDA*%
X254311601Y-59790373D03*
%TO.P,J11,4,4_4*%
%TO.N,GND*%
X257005678Y-58892348D03*
%TO.P,J11,5,5_5*%
%TO.N,/I2C_INT*%
X256107652Y-61586424D03*
%TO.P,J11,6,6_6*%
%TO.N,GND*%
X258801729Y-60688399D03*
%TD*%
D20*
%TO.P,EMD1,1,EN/IN1_1*%
%TO.N,/HBRIDGE_D_PWM*%
X206498066Y-74027233D03*
%TO.P,EMD1,2,PH/IN2_2*%
%TO.N,/HBRIDGE_D_DIR*%
X206498066Y-74677233D03*
%TO.P,EMD1,3,NSLEEP_3*%
%TO.N,/HBRIDGE_ALL_EN*%
X206498066Y-75327233D03*
%TO.P,EMD1,4,NFAULT_4*%
%TO.N,/HBRIDG_ALL_FAULT*%
X206498066Y-75977233D03*
%TO.P,EMD1,5,VREF_5*%
%TO.N,+3.3V*%
X206498066Y-76627233D03*
%TO.P,EMD1,6,IPROPI_6*%
%TO.N,/HBRIDGE_D_ISENSE*%
X206498066Y-77277233D03*
%TO.P,EMD1,7,IMODE_7*%
%TO.N,Net-(EMD1-IMODE)*%
X206498066Y-77927233D03*
%TO.P,EMD1,8,OUT1_8*%
%TO.N,/EM_D_P*%
X206498066Y-78577233D03*
%TO.P,EMD1,9,PGND_9*%
%TO.N,GND*%
X200758066Y-78577233D03*
%TO.P,EMD1,10,OUT2_10*%
%TO.N,/EM_D_N*%
X200758066Y-77927233D03*
%TO.P,EMD1,11,VM_11*%
%TO.N,+V_HB*%
X200758066Y-77277233D03*
%TO.P,EMD1,12,VCP_12*%
%TO.N,Net-(EMD1-VCP)*%
X200758066Y-76627233D03*
%TO.P,EMD1,13,CPH_13*%
%TO.N,Net-(EMD1-CPH)*%
X200758066Y-75977233D03*
%TO.P,EMD1,14,CPL_14*%
%TO.N,Net-(EMD1-CPL)*%
X200758066Y-75327233D03*
%TO.P,EMD1,15,GND_15*%
%TO.N,GND*%
X200758066Y-74677233D03*
%TO.P,EMD1,16,PMODE_16*%
%TO.N,/Electromagnet Driver/PMODE*%
X200758066Y-74027233D03*
D21*
%TO.P,EMD1,17*%
%TO.N,N/C*%
X203628066Y-76302233D03*
%TD*%
D22*
%TO.P,IC1,1,GND_1*%
%TO.N,GND*%
X252581118Y-115328427D03*
%TO.P,IC1,2,OUTPUT_1_2*%
%TO.N,+3.3V*%
X250954772Y-116954772D03*
%TO.P,IC1,3,INPUT_3*%
%TO.N,+5V*%
X249328427Y-118581118D03*
D23*
%TO.P,IC1,4,OUTPUT_2_4*%
%TO.N,+3.3V*%
X246500000Y-112500000D03*
%TD*%
D24*
%TO.P,U2,1,LNA_IN_1*%
%TO.N,unconnected-(U2-LNA_IN-Pad1)*%
X214508561Y-102966313D03*
%TO.P,U2,2,VDD3P3_2*%
%TO.N,/VDD3P3*%
X214155007Y-102612760D03*
%TO.P,U2,3,VDD3P3_3*%
X213801454Y-102259206D03*
%TO.P,U2,4,XTAL_32K_P/ADC1_CH0_4*%
%TO.N,/HBRIDGE_A_ISENSE*%
X213447901Y-101905653D03*
%TO.P,U2,5,XTAL_32K_N/ADC1_CH1_5*%
%TO.N,/HBRIDGE_B_ISENSE*%
X213094347Y-101552099D03*
%TO.P,U2,6,GPIO2/ADC1_CH2_6*%
%TO.N,/HBRIDGE_C_ISENSE*%
X212740794Y-101198546D03*
%TO.P,U2,7,CHIP_EN_7*%
%TO.N,/CHIP_EN*%
X212387240Y-100844993D03*
%TO.P,U2,8,GPIO3/ADC1_CH3_8*%
%TO.N,/HBRIDGE_D_ISENSE*%
X212033687Y-100491439D03*
D25*
%TO.P,U2,9,MTMS/GPIO4/ADC1_CH4_9*%
%TO.N,/HBRIDGE_D_PWM*%
X212033687Y-99508561D03*
%TO.P,U2,10,MTDI/GPIO5/ADC2_CH0_10*%
%TO.N,/HBRIDGE_D_DIR*%
X212387240Y-99155007D03*
%TO.P,U2,11,VDD3P3_RTC_11*%
%TO.N,+3.3V*%
X212740794Y-98801454D03*
%TO.P,U2,12,MTCK/GPIO6_12*%
%TO.N,/HBRIDGE_ALL_EN*%
X213094347Y-98447901D03*
%TO.P,U2,13,MTDO/GPIO7_13*%
%TO.N,/HBRIDG_ALL_FAULT*%
X213447901Y-98094347D03*
%TO.P,U2,14,GPIO8_14*%
%TO.N,/I2C_SDA*%
X213801454Y-97740794D03*
%TO.P,U2,15,GPIO9/BOOT_15*%
%TO.N,/BOOT*%
X214155007Y-97387240D03*
%TO.P,U2,16,GPIO10_16*%
%TO.N,/I2C_SCL*%
X214508561Y-97033687D03*
D24*
%TO.P,U2,17,VDD3P3_CPU_17*%
%TO.N,+3.3V*%
X215491439Y-97033687D03*
%TO.P,U2,18,VDD_SPI/GPIO11_18*%
%TO.N,/I2C_INT*%
X215844993Y-97387240D03*
%TO.P,U2,19,SPIHD/GPIO12_19*%
%TO.N,/HBRIDGE_C_DIR*%
X216198546Y-97740794D03*
%TO.P,U2,20,SPIWP/GPIO13_20*%
%TO.N,/HBRIDGE_C_PWM*%
X216552099Y-98094347D03*
%TO.P,U2,21,SPICS0/GPIO14_21*%
%TO.N,/HBRIDGE_B_DIR*%
X216905653Y-98447901D03*
%TO.P,U2,22,SPICLK/GPIO15_22*%
%TO.N,/HBRIDGE_B_PWM*%
X217259206Y-98801454D03*
%TO.P,U2,23,SPID/GPIO16_23*%
%TO.N,/HBRIDGE_A_DIR*%
X217612760Y-99155007D03*
%TO.P,U2,24,SPIQ/GPIO17_24*%
%TO.N,/HBRIDGE_A_PWM*%
X217966313Y-99508561D03*
D25*
%TO.P,U2,25,GPIO18/USB_D-_25*%
%TO.N,/USB_D+*%
X217966313Y-100491439D03*
%TO.P,U2,26,GPIO19/USB_D+_26*%
%TO.N,/USB_D-*%
X217612760Y-100844993D03*
%TO.P,U2,27,U0RXD/GPIO20_27*%
%TO.N,Net-(U2-U0RXD{slash}GPIO20)*%
X217259206Y-101198546D03*
%TO.P,U2,28,U0TXD/GPIO21_28*%
%TO.N,Net-(U2-U0TXD{slash}GPIO21)*%
X216905653Y-101552099D03*
%TO.P,U2,29,XTAL_N_29*%
%TO.N,/-XTAL_40_MHz*%
X216552099Y-101905653D03*
%TO.P,U2,30,XTAL_P_30*%
%TO.N,/+XTAL_40_MHz*%
X216198546Y-102259206D03*
%TO.P,U2,31,VDDA_31*%
%TO.N,+3.3V*%
X215844993Y-102612760D03*
%TO.P,U2,32,VDDA_32*%
X215491439Y-102966313D03*
D26*
%TO.P,U2,33,GND_33*%
%TO.N,GND*%
X215000000Y-100000000D03*
%TD*%
D27*
%TO.P,R4,1*%
%TO.N,+3.3V*%
X185400000Y-151300000D03*
%TO.P,R4,2*%
%TO.N,/BOOT*%
X186850000Y-148788526D03*
%TD*%
D28*
%TO.P,R1,1*%
%TO.N,Net-(J1-CC2)*%
X253071751Y-135671751D03*
%TO.P,R1,2*%
%TO.N,GND*%
X251728249Y-134328249D03*
%TD*%
D29*
%TO.P,R26,1*%
%TO.N,GND*%
X203950000Y-68700000D03*
%TO.P,R26,2*%
%TO.N,Net-(R26-Pad2)*%
X202450000Y-68700000D03*
%TD*%
D30*
%TO.P,R16,1*%
%TO.N,/HBRIDGE_B_ISENSE*%
X237931673Y-76475000D03*
%TO.P,R16,2*%
%TO.N,GND*%
X237931673Y-79375000D03*
%TD*%
D31*
%TO.P,R9,1*%
%TO.N,/I2C_SDA*%
X97421751Y-82715436D03*
%TO.P,R9,2*%
%TO.N,+3.3V*%
X96078249Y-84058938D03*
%TD*%
D32*
%TO.P,Y1,1,1_1*%
%TO.N,Net-(C33-Pad2)*%
X219476066Y-105279031D03*
%TO.P,Y1,2,GND_2*%
%TO.N,GND*%
X218570969Y-104373934D03*
%TO.P,Y1,3,3_3*%
%TO.N,/-XTAL_40_MHz*%
X219263934Y-103680969D03*
%TO.P,Y1,4,GND1_4*%
%TO.N,GND*%
X220169031Y-104586066D03*
%TD*%
D29*
%TO.P,R31,1*%
%TO.N,GND*%
X230782006Y-84796115D03*
%TO.P,R31,2*%
%TO.N,Net-(R31-Pad2)*%
X229282006Y-84796115D03*
%TD*%
D33*
%TO.P,C18,1,1_1*%
%TO.N,GND*%
X219850000Y-84100000D03*
%TO.P,C18,2,2_2*%
%TO.N,+V_HB*%
X222950000Y-84100000D03*
%TD*%
D34*
%TO.P,R29,1*%
%TO.N,Net-(R26-Pad2)*%
X201175000Y-66650000D03*
%TO.P,R29,2*%
%TO.N,Net-(EMC1-IMODE)*%
X201175000Y-64750000D03*
%TD*%
D30*
%TO.P,R13,1*%
%TO.N,/HBRIDGE_C_ISENSE*%
X211000000Y-60400000D03*
%TO.P,R13,2*%
%TO.N,GND*%
X211000000Y-63300000D03*
%TD*%
D35*
%TO.P,C13,1,1_1*%
%TO.N,Net-(EMA1-VCP)*%
X223201673Y-62800000D03*
%TO.P,C13,2,2_2*%
%TO.N,+V_HB*%
X220101673Y-62800000D03*
%TD*%
D36*
%TO.P,L3,1,-_1*%
%TO.N,/EM_C_N*%
X77000000Y-107000000D03*
%TO.P,L3,2,+_2*%
%TO.N,/EM_C_P*%
X83000000Y-107000000D03*
%TD*%
D34*
%TO.P,R24,1*%
%TO.N,Net-(R21-Pad2)*%
X228157207Y-66750000D03*
%TO.P,R24,2*%
%TO.N,Net-(EMA1-IMODE)*%
X228157207Y-64850000D03*
%TD*%
D30*
%TO.P,C4,1,1_1*%
%TO.N,+3.3V*%
X208800000Y-99150000D03*
%TO.P,C4,2,2_2*%
%TO.N,GND*%
X208800000Y-96050000D03*
%TD*%
D37*
%TO.P,C6,1,1_1*%
%TO.N,+3.3V*%
X213900000Y-106800000D03*
%TO.P,C6,2,2_2*%
%TO.N,GND*%
X211707968Y-108992032D03*
%TD*%
D38*
%TO.P,C31,1,1_1*%
%TO.N,+5VP*%
X259196016Y-125896016D03*
%TO.P,C31,2,2_2*%
%TO.N,GND*%
X257003984Y-123703984D03*
%TD*%
D33*
%TO.P,C25,1,1_1*%
%TO.N,GND*%
X192950000Y-83900000D03*
%TO.P,C25,2,2_2*%
%TO.N,+V_HB*%
X196050000Y-83900000D03*
%TD*%
D34*
%TO.P,R34,1*%
%TO.N,Net-(R31-Pad2)*%
X228007006Y-82746115D03*
%TO.P,R34,2*%
%TO.N,Net-(EMB1-IMODE)*%
X228007006Y-80846115D03*
%TD*%
%TO.P,R32,1*%
%TO.N,Net-(R30-Pad2)*%
X236007006Y-82696115D03*
%TO.P,R32,2*%
%TO.N,Net-(EMB1-IMODE)*%
X236007006Y-80796115D03*
%TD*%
D35*
%TO.P,R30,1*%
%TO.N,GND*%
X233357006Y-84746115D03*
%TO.P,R30,2*%
%TO.N,Net-(R30-Pad2)*%
X236257006Y-84746115D03*
%TD*%
D39*
%TO.P,C29,1,1_1*%
%TO.N,+3.3V*%
X253203984Y-119196016D03*
%TO.P,C29,2,2_2*%
%TO.N,GND*%
X255396016Y-117003984D03*
%TD*%
D40*
%TO.P,L2,1,-_1*%
%TO.N,/EM_B_N*%
X73000000Y-97000000D03*
%TO.P,L2,2,+_2*%
%TO.N,/EM_B_P*%
X73000000Y-103000000D03*
%TD*%
D34*
%TO.P,R22,1*%
%TO.N,Net-(R20-Pad2)*%
X236157207Y-66700000D03*
%TO.P,R22,2*%
%TO.N,Net-(EMA1-IMODE)*%
X236157207Y-64800000D03*
%TD*%
D38*
%TO.P,C7,1,1_1*%
%TO.N,+3.3V*%
X206396016Y-109196016D03*
%TO.P,C7,2,2_2*%
%TO.N,GND*%
X204203984Y-107003984D03*
%TD*%
D41*
%TO.P,J3,1,1_1*%
%TO.N,unconnected-(J3-Pad1)*%
X273128477Y-109013495D03*
D14*
%TO.P,J3,2,2_2*%
%TO.N,unconnected-(J3-Pad2)*%
X270637282Y-108517966D03*
%TO.P,J3,3,3_3*%
%TO.N,+5VP*%
X272632948Y-111504690D03*
%TO.P,J3,4,4_4*%
%TO.N,+V_HB*%
X270141752Y-111009160D03*
%TO.P,J3,5,5_5*%
%TO.N,Net-(J2-Pad2)*%
X272137417Y-113995883D03*
%TO.P,J3,6,6_6*%
%TO.N,+V_HB*%
X269646224Y-113500355D03*
%TD*%
D42*
%TO.P,C33,1,1_1*%
%TO.N,GND*%
X219469670Y-107430330D03*
%TO.P,C33,2,2_2*%
%TO.N,Net-(C33-Pad2)*%
X220530330Y-106369670D03*
%TD*%
D43*
%TO.P,L5,1,1_1*%
%TO.N,+3.3V*%
X208549219Y-108250781D03*
%TO.P,L5,2,2_2*%
%TO.N,/VDD3P3*%
X209450781Y-107349219D03*
%TD*%
D44*
%TO.P,C1,1,1_1*%
%TO.N,/CHIP_EN*%
X165742339Y-129925000D03*
%TO.P,C1,2,2_2*%
%TO.N,GND*%
X163057661Y-131475000D03*
%TD*%
D37*
%TO.P,C2,1,1_1*%
%TO.N,+3.3V*%
X215700000Y-108600000D03*
%TO.P,C2,2,2_2*%
%TO.N,GND*%
X213507968Y-110792032D03*
%TD*%
D35*
%TO.P,C19,1,1_1*%
%TO.N,Net-(EMB1-CPH)*%
X223001673Y-76400000D03*
%TO.P,C19,2,2_2*%
%TO.N,Net-(EMB1-CPL)*%
X219901673Y-76400000D03*
%TD*%
D39*
%TO.P,C5,1,1_1*%
%TO.N,+3.3V*%
X218053984Y-91096016D03*
%TO.P,C5,2,2_2*%
%TO.N,GND*%
X220246016Y-88903984D03*
%TD*%
%TO.P,C8,1,1_1*%
%TO.N,+3.3V*%
X219903984Y-92896016D03*
%TO.P,C8,2,2_2*%
%TO.N,GND*%
X222096016Y-90703984D03*
%TD*%
D45*
%TO.P,L1,1,-_1*%
%TO.N,/EM_A_N*%
X83000000Y-93000000D03*
%TO.P,L1,2,+_2*%
%TO.N,/EM_A_P*%
X77000000Y-93000000D03*
%TD*%
D35*
%TO.P,R20,1*%
%TO.N,GND*%
X233507207Y-68750000D03*
%TO.P,R20,2*%
%TO.N,Net-(R20-Pad2)*%
X236407207Y-68750000D03*
%TD*%
D46*
%TO.P,R7,1*%
%TO.N,Net-(J4-Pad5)*%
X239660375Y-149254891D03*
%TO.P,R7,2*%
%TO.N,Net-(Status_LED_TX1-+)*%
X242339625Y-148145109D03*
%TD*%
D20*
%TO.P,EMC1,1,EN/IN1_1*%
%TO.N,/HBRIDGE_C_PWM*%
X206619466Y-58150000D03*
%TO.P,EMC1,2,PH/IN2_2*%
%TO.N,/HBRIDGE_C_DIR*%
X206619466Y-58800000D03*
%TO.P,EMC1,3,NSLEEP_3*%
%TO.N,/HBRIDGE_ALL_EN*%
X206619466Y-59450000D03*
%TO.P,EMC1,4,NFAULT_4*%
%TO.N,/HBRIDG_ALL_FAULT*%
X206619466Y-60100000D03*
%TO.P,EMC1,5,VREF_5*%
%TO.N,+3.3V*%
X206619466Y-60750000D03*
%TO.P,EMC1,6,IPROPI_6*%
%TO.N,/HBRIDGE_C_ISENSE*%
X206619466Y-61400000D03*
%TO.P,EMC1,7,IMODE_7*%
%TO.N,Net-(EMC1-IMODE)*%
X206619466Y-62050000D03*
%TO.P,EMC1,8,OUT1_8*%
%TO.N,/EM_C_P*%
X206619466Y-62700000D03*
%TO.P,EMC1,9,PGND_9*%
%TO.N,GND*%
X200879466Y-62700000D03*
%TO.P,EMC1,10,OUT2_10*%
%TO.N,/EM_C_N*%
X200879466Y-62050000D03*
%TO.P,EMC1,11,VM_11*%
%TO.N,+V_HB*%
X200879466Y-61400000D03*
%TO.P,EMC1,12,VCP_12*%
%TO.N,Net-(EMC1-VCP)*%
X200879466Y-60750000D03*
%TO.P,EMC1,13,CPH_13*%
%TO.N,Net-(EMC1-CPH)*%
X200879466Y-60100000D03*
%TO.P,EMC1,14,CPL_14*%
%TO.N,Net-(EMC1-CPL)*%
X200879466Y-59450000D03*
%TO.P,EMC1,15,GND_15*%
%TO.N,GND*%
X200879466Y-58800000D03*
%TO.P,EMC1,16,PMODE_16*%
%TO.N,/Electromagnet Driver/PMODE*%
X200879466Y-58150000D03*
D21*
%TO.P,EMC1,17*%
%TO.N,N/C*%
X203749466Y-60425000D03*
%TD*%
D35*
%TO.P,C16,1,1_1*%
%TO.N,+V_HB*%
X196169466Y-65100000D03*
%TO.P,C16,2,2_2*%
%TO.N,GND*%
X193069466Y-65100000D03*
%TD*%
D34*
%TO.P,R38,1*%
%TO.N,GND*%
X205028066Y-82452233D03*
%TO.P,R38,2*%
%TO.N,Net-(EMD1-IMODE)*%
X205028066Y-80552233D03*
%TD*%
D33*
%TO.P,C17,1,1_1*%
%TO.N,GND*%
X220050000Y-68200000D03*
%TO.P,C17,2,2_2*%
%TO.N,+V_HB*%
X223150000Y-68200000D03*
%TD*%
D34*
%TO.P,R27,1*%
%TO.N,Net-(R25-Pad2)*%
X209175000Y-66600000D03*
%TO.P,R27,2*%
%TO.N,Net-(EMC1-IMODE)*%
X209175000Y-64700000D03*
%TD*%
D20*
%TO.P,EMB1,1,EN/IN1_1*%
%TO.N,/HBRIDGE_B_PWM*%
X233401673Y-74250000D03*
%TO.P,EMB1,2,PH/IN2_2*%
%TO.N,/HBRIDGE_B_DIR*%
X233401673Y-74900000D03*
%TO.P,EMB1,3,NSLEEP_3*%
%TO.N,/HBRIDGE_ALL_EN*%
X233401673Y-75550000D03*
%TO.P,EMB1,4,NFAULT_4*%
%TO.N,/HBRIDG_ALL_FAULT*%
X233401673Y-76200000D03*
%TO.P,EMB1,5,VREF_5*%
%TO.N,+3.3V*%
X233401673Y-76850000D03*
%TO.P,EMB1,6,IPROPI_6*%
%TO.N,/HBRIDGE_B_ISENSE*%
X233401673Y-77500000D03*
%TO.P,EMB1,7,IMODE_7*%
%TO.N,Net-(EMB1-IMODE)*%
X233401673Y-78150000D03*
%TO.P,EMB1,8,OUT1_8*%
%TO.N,/EM_B_P*%
X233401673Y-78800000D03*
%TO.P,EMB1,9,PGND_9*%
%TO.N,GND*%
X227661673Y-78800000D03*
%TO.P,EMB1,10,OUT2_10*%
%TO.N,/EM_B_N*%
X227661673Y-78150000D03*
%TO.P,EMB1,11,VM_11*%
%TO.N,+V_HB*%
X227661673Y-77500000D03*
%TO.P,EMB1,12,VCP_12*%
%TO.N,Net-(EMB1-VCP)*%
X227661673Y-76850000D03*
%TO.P,EMB1,13,CPH_13*%
%TO.N,Net-(EMB1-CPH)*%
X227661673Y-76200000D03*
%TO.P,EMB1,14,CPL_14*%
%TO.N,Net-(EMB1-CPL)*%
X227661673Y-75550000D03*
%TO.P,EMB1,15,GND_15*%
%TO.N,GND*%
X227661673Y-74900000D03*
%TO.P,EMB1,16,PMODE_16*%
%TO.N,/Electromagnet Driver/PMODE*%
X227661673Y-74250000D03*
D21*
%TO.P,EMB1,17*%
%TO.N,N/C*%
X230531673Y-76525000D03*
%TD*%
D34*
%TO.P,R39,1*%
%TO.N,Net-(R36-Pad2)*%
X201028066Y-82452233D03*
%TO.P,R39,2*%
%TO.N,Net-(EMD1-IMODE)*%
X201028066Y-80552233D03*
%TD*%
D35*
%TO.P,C22,1,1_1*%
%TO.N,Net-(EMD1-VCP)*%
X196098066Y-78577233D03*
%TO.P,C22,2,2_2*%
%TO.N,+V_HB*%
X192998066Y-78577233D03*
%TD*%
D30*
%TO.P,R17,1*%
%TO.N,/HBRIDGE_D_ISENSE*%
X210828066Y-76252233D03*
%TO.P,R17,2*%
%TO.N,GND*%
X210828066Y-79152233D03*
%TD*%
D35*
%TO.P,C24,1,1_1*%
%TO.N,+V_HB*%
X196048066Y-80977233D03*
%TO.P,C24,2,2_2*%
%TO.N,GND*%
X192948066Y-80977233D03*
%TD*%
D34*
%TO.P,R28,1*%
%TO.N,GND*%
X205175000Y-66600000D03*
%TO.P,R28,2*%
%TO.N,Net-(EMC1-IMODE)*%
X205175000Y-64700000D03*
%TD*%
D35*
%TO.P,C15,1,1_1*%
%TO.N,+V_HB*%
X223151673Y-65200000D03*
%TO.P,C15,2,2_2*%
%TO.N,GND*%
X220051673Y-65200000D03*
%TD*%
D29*
%TO.P,R21,1*%
%TO.N,GND*%
X230932207Y-68800000D03*
%TO.P,R21,2*%
%TO.N,Net-(R21-Pad2)*%
X229432207Y-68800000D03*
%TD*%
D30*
%TO.P,R12,1*%
%TO.N,/HBRIDGE_A_ISENSE*%
X237982207Y-60500000D03*
%TO.P,R12,2*%
%TO.N,GND*%
X237982207Y-63400000D03*
%TD*%
D47*
%TO.P,C32,1,1_1*%
%TO.N,GND*%
X221330330Y-103730330D03*
%TO.P,C32,2,2_2*%
%TO.N,/-XTAL_40_MHz*%
X220269670Y-102669670D03*
%TD*%
D48*
%TO.P,R18,1*%
%TO.N,Net-(U5-ILM)*%
X255630330Y-129430330D03*
%TO.P,R18,2*%
%TO.N,GND*%
X254569670Y-128369670D03*
%TD*%
D49*
%TO.P,L6,1,1_1*%
%TO.N,Net-(C33-Pad2)*%
X218250781Y-106450781D03*
%TO.P,L6,2,2_2*%
%TO.N,/+XTAL_40_MHz*%
X217349219Y-105549219D03*
%TD*%
D50*
%TO.P,C3,1,1_1*%
%TO.N,+3.3V*%
X207603984Y-110303984D03*
%TO.P,C3,2,2_2*%
%TO.N,GND*%
X209796016Y-112496016D03*
%TD*%
D51*
%TO.P,R3,1*%
%TO.N,+3.3V*%
X161944263Y-129225000D03*
%TO.P,R3,2*%
%TO.N,/CHIP_EN*%
X164455737Y-127775000D03*
%TD*%
D46*
%TO.P,R6,1*%
%TO.N,Net-(J4-Pad1)*%
X242260375Y-155254891D03*
%TO.P,R6,2*%
%TO.N,Net-(Status_LED_RX1-+)*%
X244939625Y-154145109D03*
%TD*%
D31*
%TO.P,R8,1*%
%TO.N,/I2C_SCL*%
X95671751Y-81078249D03*
%TO.P,R8,2*%
%TO.N,+3.3V*%
X94328249Y-82421751D03*
%TD*%
D10*
%TO.P,J8,1,1_1*%
%TO.N,/EM_A_N*%
X46974578Y-53504194D03*
D11*
%TO.P,J8,2,2_2*%
%TO.N,/EM_A_P*%
X44280501Y-52606168D03*
%TO.P,J8,3,3_3*%
%TO.N,/EM_A_N*%
X45178527Y-55300245D03*
%TO.P,J8,4,4_4*%
%TO.N,/EM_A_P*%
X42484450Y-54402220D03*
%TO.P,J8,5,5_5*%
%TO.N,/EM_B_N*%
X43382476Y-57096296D03*
%TO.P,J8,6,6_6*%
%TO.N,/EM_B_P*%
X40688399Y-56198271D03*
%TO.P,J8,7,7_7*%
%TO.N,/EM_B_N*%
X41586424Y-58892348D03*
%TO.P,J8,8,8_8*%
%TO.N,/EM_B_P*%
X38892347Y-57994322D03*
%TO.P,J8,9,9_9*%
%TO.N,/EM_C_N*%
X39790373Y-60688399D03*
%TO.P,J8,10,10_10*%
%TO.N,/EM_C_P*%
X37096296Y-59790373D03*
%TO.P,J8,11,11_11*%
%TO.N,/EM_C_N*%
X37994322Y-62484450D03*
%TO.P,J8,12,12_12*%
%TO.N,/EM_C_P*%
X35300245Y-61586425D03*
%TO.P,J8,13,13_13*%
%TO.N,/EM_D_N*%
X36198271Y-64280501D03*
%TO.P,J8,14,14_14*%
%TO.N,/EM_D_P*%
X33504194Y-63382476D03*
%TO.P,J8,15,15_15*%
%TO.N,/EM_D_N*%
X34402219Y-66076553D03*
%TO.P,J8,16,16_16*%
%TO.N,/EM_D_P*%
X31708143Y-65178527D03*
%TD*%
D52*
%TO.P,U5,1,EN/UVLO_1*%
%TO.N,/USB Power Circuit/USB_VBUS*%
X259031371Y-131341421D03*
D53*
%TO.P,U5,2,OVLO_2*%
%TO.N,unconnected-(U5-OVLO-Pad2)*%
X258695495Y-131677297D03*
%TO.P,U5,3,PG_3*%
%TO.N,unconnected-(U5-PG-Pad3)*%
X258377297Y-131995495D03*
D54*
%TO.P,U5,4,PGTH_4*%
%TO.N,unconnected-(U5-PGTH-Pad4)*%
X258041421Y-132331371D03*
D55*
%TO.P,U5,5,IN_5*%
%TO.N,/USB Power Circuit/USB_VBUS*%
X258076777Y-131376777D03*
%TO.P,U5,6,OUT_6*%
%TO.N,+5VP*%
X257723223Y-131023223D03*
D56*
%TO.P,U5,7,DVDT_7*%
%TO.N,Net-(U5-DVDT)*%
X256768629Y-131058579D03*
D53*
%TO.P,U5,8,GND_8*%
%TO.N,GND*%
X257104505Y-130722703D03*
%TO.P,U5,9,ILM_9*%
%TO.N,Net-(U5-ILM)*%
X257422703Y-130404505D03*
D57*
%TO.P,U5,10,ITIMER_10*%
%TO.N,Net-(U5-ITIMER)*%
X257758579Y-130068629D03*
%TD*%
D19*
%TO.P,J12,1,1_1*%
%TO.N,/I2C_SCL*%
X119311602Y-56198270D03*
D11*
%TO.P,J12,2,2_2*%
%TO.N,+3.3V*%
X118413576Y-58892347D03*
%TO.P,J12,3,3_3*%
%TO.N,/I2C_SDA*%
X121107653Y-57994321D03*
%TO.P,J12,4,4_4*%
%TO.N,GND*%
X120209628Y-60688398D03*
%TO.P,J12,5,5_5*%
%TO.N,/I2C_INT*%
X122903704Y-59790372D03*
%TO.P,J12,6,6_6*%
%TO.N,GND*%
X122005679Y-62484449D03*
%TD*%
D58*
%TO.P,L4,1,-_1*%
%TO.N,/EM_D_N*%
X87000000Y-103000000D03*
%TO.P,L4,2,+_2*%
%TO.N,/EM_D_P*%
X87000000Y-97000000D03*
%TD*%
D34*
%TO.P,R33,1*%
%TO.N,GND*%
X232007006Y-82696115D03*
%TO.P,R33,2*%
%TO.N,Net-(EMB1-IMODE)*%
X232007006Y-80796115D03*
%TD*%
D35*
%TO.P,C12,1,1_1*%
%TO.N,Net-(EMC1-CPH)*%
X196219466Y-60300000D03*
%TO.P,C12,2,2_2*%
%TO.N,Net-(EMC1-CPL)*%
X193119466Y-60300000D03*
%TD*%
D20*
%TO.P,EMA1,1,EN/IN1_1*%
%TO.N,/HBRIDGE_A_PWM*%
X233601673Y-58250000D03*
%TO.P,EMA1,2,PH/IN2_2*%
%TO.N,/HBRIDGE_A_DIR*%
X233601673Y-58900000D03*
%TO.P,EMA1,3,NSLEEP_3*%
%TO.N,/HBRIDGE_ALL_EN*%
X233601673Y-59550000D03*
%TO.P,EMA1,4,NFAULT_4*%
%TO.N,/HBRIDG_ALL_FAULT*%
X233601673Y-60200000D03*
%TO.P,EMA1,5,VREF_5*%
%TO.N,+3.3V*%
X233601673Y-60850000D03*
%TO.P,EMA1,6,IPROPI_6*%
%TO.N,/HBRIDGE_A_ISENSE*%
X233601673Y-61500000D03*
%TO.P,EMA1,7,IMODE_7*%
%TO.N,Net-(EMA1-IMODE)*%
X233601673Y-62150000D03*
%TO.P,EMA1,8,OUT1_8*%
%TO.N,/EM_A_P*%
X233601673Y-62800000D03*
%TO.P,EMA1,9,PGND_9*%
%TO.N,GND*%
X227861673Y-62800000D03*
%TO.P,EMA1,10,OUT2_10*%
%TO.N,/EM_A_N*%
X227861673Y-62150000D03*
%TO.P,EMA1,11,VM_11*%
%TO.N,+V_HB*%
X227861673Y-61500000D03*
%TO.P,EMA1,12,VCP_12*%
%TO.N,Net-(EMA1-VCP)*%
X227861673Y-60850000D03*
%TO.P,EMA1,13,CPH_13*%
%TO.N,Net-(EMA1-CPH)*%
X227861673Y-60200000D03*
%TO.P,EMA1,14,CPL_14*%
%TO.N,Net-(EMA1-CPL)*%
X227861673Y-59550000D03*
%TO.P,EMA1,15,GND_15*%
%TO.N,GND*%
X227861673Y-58900000D03*
%TO.P,EMA1,16,PMODE_16*%
%TO.N,/Electromagnet Driver/PMODE*%
X227861673Y-58250000D03*
D21*
%TO.P,EMA1,17*%
%TO.N,N/C*%
X230731673Y-60525000D03*
%TD*%
D38*
%TO.P,C28,1,1_1*%
%TO.N,Net-(U5-ITIMER)*%
X257296016Y-127796016D03*
%TO.P,C28,2,2_2*%
%TO.N,GND*%
X255103984Y-125603984D03*
%TD*%
D34*
%TO.P,R37,1*%
%TO.N,Net-(R35-Pad2)*%
X209028066Y-82452233D03*
%TO.P,R37,2*%
%TO.N,Net-(EMD1-IMODE)*%
X209028066Y-80552233D03*
%TD*%
D59*
%TO.P,R19,1*%
%TO.N,Net-(POWER_LED2-+)*%
X248746447Y-124153553D03*
%TO.P,R19,2*%
%TO.N,+5V*%
X249453553Y-123446447D03*
%TD*%
D35*
%TO.P,C20,1,1_1*%
%TO.N,Net-(EMD1-CPH)*%
X196098066Y-76177233D03*
%TO.P,C20,2,2_2*%
%TO.N,Net-(EMD1-CPL)*%
X192998066Y-76177233D03*
%TD*%
D33*
%TO.P,C26,1,1_1*%
%TO.N,GND*%
X193050000Y-68000000D03*
%TO.P,C26,2,2_2*%
%TO.N,+V_HB*%
X196150000Y-68000000D03*
%TD*%
D35*
%TO.P,R25,1*%
%TO.N,GND*%
X206525000Y-68650000D03*
%TO.P,R25,2*%
%TO.N,Net-(R25-Pad2)*%
X209425000Y-68650000D03*
%TD*%
%TO.P,R11,1*%
%TO.N,/HBRIDG_ALL_FAULT*%
X212450000Y-91300000D03*
%TO.P,R11,2*%
%TO.N,GND*%
X215350000Y-91300000D03*
%TD*%
%TO.P,R35,1*%
%TO.N,GND*%
X206378066Y-84502233D03*
%TO.P,R35,2*%
%TO.N,Net-(R35-Pad2)*%
X209278066Y-84502233D03*
%TD*%
D37*
%TO.P,C27,1,1_1*%
%TO.N,+5V*%
X247696016Y-120103984D03*
%TO.P,C27,2,2_2*%
%TO.N,GND*%
X245503984Y-122296016D03*
%TD*%
D35*
%TO.P,C10,1,1_1*%
%TO.N,+3.3V*%
X81550000Y-103000000D03*
%TO.P,C10,2,2_2*%
%TO.N,GND*%
X78450000Y-103000000D03*
%TD*%
D38*
%TO.P,C30,1,1_1*%
%TO.N,Net-(U5-DVDT)*%
X253996016Y-131096016D03*
%TO.P,C30,2,2_2*%
%TO.N,GND*%
X251803984Y-128903984D03*
%TD*%
D60*
%TO.P,FB1,1,1_1*%
%TO.N,/USB Power Circuit/USB_VBUS*%
X251283363Y-122183363D03*
%TO.P,FB1,2,2_2*%
%TO.N,+5V*%
X250116637Y-121016637D03*
%TD*%
D38*
%TO.P,C9,1,1_1*%
%TO.N,/VDD3P3*%
X210796016Y-105996016D03*
%TO.P,C9,2,2_2*%
%TO.N,GND*%
X208603984Y-103803984D03*
%TD*%
D35*
%TO.P,C23,1,1_1*%
%TO.N,+V_HB*%
X222951673Y-81200000D03*
%TO.P,C23,2,2_2*%
%TO.N,GND*%
X219851673Y-81200000D03*
%TD*%
D61*
%TO.P,U1,1*%
%TO.N,Net-(J1-D+-PadA6)*%
X248712132Y-131944365D03*
%TO.P,U1,2*%
%TO.N,GND*%
X249383883Y-132616117D03*
%TO.P,U1,3*%
%TO.N,/USB_D+*%
X250055635Y-133287868D03*
%TO.P,U1,4*%
%TO.N,/USB_D-*%
X248287868Y-135055635D03*
%TO.P,U1,5*%
%TO.N,/USB Power Circuit/USB_VBUS*%
X247616117Y-134383883D03*
%TO.P,U1,6*%
%TO.N,Net-(J1-D--PadA7)*%
X246944365Y-133712132D03*
%TD*%
D34*
%TO.P,R23,1*%
%TO.N,GND*%
X232157207Y-66700000D03*
%TO.P,R23,2*%
%TO.N,Net-(EMA1-IMODE)*%
X232157207Y-64800000D03*
%TD*%
D35*
%TO.P,C21,1,1_1*%
%TO.N,Net-(EMB1-VCP)*%
X223001673Y-78800000D03*
%TO.P,C21,2,2_2*%
%TO.N,+V_HB*%
X219901673Y-78800000D03*
%TD*%
D29*
%TO.P,R36,1*%
%TO.N,GND*%
X203778066Y-84502233D03*
%TO.P,R36,2*%
%TO.N,Net-(R36-Pad2)*%
X202278066Y-84502233D03*
%TD*%
D31*
%TO.P,R10,1*%
%TO.N,/I2C_INT*%
X99171751Y-84328249D03*
%TO.P,R10,2*%
%TO.N,+3.3V*%
X97828249Y-85671751D03*
%TD*%
D35*
%TO.P,C11,1,1_1*%
%TO.N,Net-(EMA1-CPH)*%
X223201673Y-60400000D03*
%TO.P,C11,2,2_2*%
%TO.N,Net-(EMA1-CPL)*%
X220101673Y-60400000D03*
%TD*%
D31*
%TO.P,R2,1*%
%TO.N,Net-(J1-CC1)*%
X247171751Y-139828249D03*
%TO.P,R2,2*%
%TO.N,GND*%
X245828249Y-141171751D03*
%TD*%
D35*
%TO.P,C14,1,1_1*%
%TO.N,Net-(EMC1-VCP)*%
X196219466Y-62700000D03*
%TO.P,C14,2,2_2*%
%TO.N,+V_HB*%
X193119466Y-62700000D03*
%TD*%
D62*
%TO.N,/BOOT*%
X213500000Y-96732233D03*
X187400000Y-147600000D03*
%TO.N,GND*%
X77000000Y-35750000D03*
X214250000Y-162000000D03*
X278500000Y-100000000D03*
X277750000Y-101500000D03*
X215750000Y-164250000D03*
X212750000Y-162000000D03*
X18000000Y-100750000D03*
X202869466Y-62700000D03*
X81500000Y-164250000D03*
X217250000Y-162000000D03*
X164400000Y-130700000D03*
X279250000Y-99250000D03*
X194548821Y-80995750D03*
X80750000Y-162750000D03*
X213500000Y-162750000D03*
X78500000Y-163500000D03*
X278500000Y-101500000D03*
X214250000Y-36500000D03*
X79250000Y-162750000D03*
X209100000Y-111800000D03*
X221481673Y-81232582D03*
X16500000Y-102250000D03*
X217250000Y-38000000D03*
X18000000Y-97750000D03*
X79250000Y-163500000D03*
X212000000Y-162750000D03*
X210828066Y-77702233D03*
X277750000Y-103000000D03*
X277000000Y-100750000D03*
X205028066Y-83302233D03*
X16500000Y-97000000D03*
X277750000Y-100750000D03*
X79250000Y-35750000D03*
X194619466Y-65100000D03*
X78500000Y-35750000D03*
X216500000Y-35750000D03*
X215750000Y-37250000D03*
X214500000Y-100500000D03*
X17250000Y-100000000D03*
X16500000Y-99250000D03*
X222000000Y-66800000D03*
X257800000Y-124500000D03*
X212800000Y-107900000D03*
X215000000Y-162750000D03*
X213500000Y-38000000D03*
X215000000Y-163500000D03*
X77750000Y-35750000D03*
X214250000Y-163500000D03*
X204469466Y-62700000D03*
X80750000Y-162000000D03*
X17250000Y-99250000D03*
X256000000Y-130200000D03*
X250000000Y-132000000D03*
X212750000Y-35750000D03*
X81500000Y-37250000D03*
X232058073Y-85417015D03*
X215750000Y-36500000D03*
X212750000Y-38000000D03*
X204900000Y-107700000D03*
X16500000Y-101500000D03*
X278500000Y-99250000D03*
X83000000Y-35750000D03*
X215000000Y-36500000D03*
X77000000Y-36500000D03*
X15750000Y-102250000D03*
X212750000Y-163500000D03*
X217250000Y-164250000D03*
X77000000Y-164250000D03*
X279250000Y-100750000D03*
X215750000Y-163500000D03*
X212000000Y-37250000D03*
X77500000Y-101000000D03*
X246300000Y-121500000D03*
X212000000Y-36500000D03*
X256800000Y-135600000D03*
X80750000Y-36500000D03*
X18000000Y-102250000D03*
X82250000Y-164250000D03*
X194500000Y-83900000D03*
X78500000Y-38000000D03*
X237931673Y-77925000D03*
X212750000Y-162750000D03*
X16500000Y-100000000D03*
X194600000Y-68000000D03*
X16500000Y-97750000D03*
X212750000Y-36500000D03*
X81500000Y-162750000D03*
X254900000Y-118100000D03*
X279250000Y-101500000D03*
X80000000Y-162750000D03*
X278500000Y-98500000D03*
X218000000Y-163500000D03*
X18000000Y-100000000D03*
X215000000Y-38000000D03*
X17250000Y-102250000D03*
X17250000Y-98500000D03*
X277750000Y-100000000D03*
X226400000Y-74800000D03*
X83000000Y-164250000D03*
X216500000Y-163500000D03*
X83000000Y-163500000D03*
X80750000Y-164250000D03*
X217250000Y-162750000D03*
X213500000Y-36500000D03*
X215000000Y-37250000D03*
X213500000Y-162000000D03*
X16500000Y-103000000D03*
X278500000Y-97000000D03*
X215000000Y-35750000D03*
X83000000Y-36500000D03*
X278500000Y-97750000D03*
X18000000Y-98500000D03*
X213500000Y-163500000D03*
X79250000Y-162000000D03*
X214603984Y-109696016D03*
X246500000Y-140500000D03*
X78500000Y-37250000D03*
X216500000Y-162750000D03*
X166750000Y-132450000D03*
X279250000Y-103000000D03*
X256800000Y-136800000D03*
X82250000Y-36500000D03*
X17250000Y-103000000D03*
X252400000Y-135000000D03*
X15750000Y-97000000D03*
X17250000Y-100750000D03*
X217250000Y-37250000D03*
X204463052Y-78577233D03*
X15750000Y-98500000D03*
X214250000Y-37250000D03*
X279250000Y-100000000D03*
X80000000Y-162000000D03*
X77750000Y-162750000D03*
X232182207Y-69400000D03*
X216500000Y-37250000D03*
X82250000Y-37250000D03*
X221000000Y-91800000D03*
X216500000Y-36500000D03*
X218000000Y-162750000D03*
X252200000Y-116400000D03*
X277750000Y-99250000D03*
X77750000Y-36500000D03*
X215750000Y-162750000D03*
X232182207Y-68600000D03*
X77750000Y-37250000D03*
X213500000Y-164250000D03*
X205028066Y-84902233D03*
X15750000Y-97750000D03*
X218000000Y-103500000D03*
X212000000Y-163500000D03*
X212750000Y-37250000D03*
X237982207Y-61950000D03*
X78500000Y-36500000D03*
X77000000Y-162750000D03*
X277750000Y-98500000D03*
X15750000Y-99250000D03*
X215000000Y-164250000D03*
X222000000Y-103000000D03*
X218000000Y-36500000D03*
X232058073Y-84617015D03*
X15750000Y-100750000D03*
X215000000Y-99000000D03*
X215000000Y-162000000D03*
X214000000Y-100000000D03*
X78500000Y-162000000D03*
X188000000Y-155100000D03*
X81500000Y-163500000D03*
X215750000Y-38000000D03*
X221400000Y-84100000D03*
X219100000Y-90000000D03*
X81500000Y-35750000D03*
X215750000Y-162000000D03*
X80000000Y-35750000D03*
X215500000Y-100500000D03*
X279250000Y-97000000D03*
X15750000Y-101500000D03*
X214250000Y-162750000D03*
X202881569Y-78577233D03*
X219469670Y-106600000D03*
X218000000Y-35750000D03*
X212750000Y-164250000D03*
X17250000Y-97750000D03*
X77750000Y-164250000D03*
X215500000Y-99500000D03*
X82250000Y-162750000D03*
X205149466Y-68425000D03*
X216000000Y-100000000D03*
X80000000Y-37250000D03*
X213500000Y-35750000D03*
X277750000Y-102250000D03*
X277000000Y-101500000D03*
X205028066Y-84102233D03*
X16500000Y-100750000D03*
X203681569Y-78577233D03*
X214250000Y-164250000D03*
X214250000Y-35750000D03*
X216500000Y-162000000D03*
X15750000Y-100000000D03*
X79250000Y-38000000D03*
X277000000Y-99250000D03*
X243000000Y-152400000D03*
X277750000Y-97750000D03*
X80750000Y-38000000D03*
X277000000Y-102250000D03*
X255094767Y-128894767D03*
X217250000Y-36500000D03*
X81500000Y-38000000D03*
X79250000Y-36500000D03*
X215750000Y-35750000D03*
X252900000Y-130000000D03*
X212000000Y-35750000D03*
X214250000Y-38000000D03*
X77750000Y-162000000D03*
X242200000Y-150500000D03*
X80750000Y-35750000D03*
X80750000Y-163500000D03*
X216300000Y-91300000D03*
X279250000Y-102250000D03*
X81500000Y-36500000D03*
X80750000Y-37250000D03*
X279250000Y-97750000D03*
X216500000Y-164250000D03*
X83000000Y-162750000D03*
X279250000Y-98500000D03*
X256800000Y-136200000D03*
X17250000Y-97000000D03*
X254300000Y-117500000D03*
X80000000Y-163500000D03*
X262900000Y-135400000D03*
X215000000Y-100000000D03*
X210998271Y-61849887D03*
X77000000Y-163500000D03*
X218000000Y-37250000D03*
X232058073Y-83817015D03*
X209700000Y-104900000D03*
X18000000Y-99250000D03*
X79250000Y-37250000D03*
X251600000Y-115700000D03*
X256200000Y-126700000D03*
X77000000Y-37250000D03*
X277000000Y-97750000D03*
X83000000Y-37250000D03*
X278500000Y-100750000D03*
X15750000Y-103000000D03*
X213500000Y-37250000D03*
X218000000Y-164250000D03*
X18000000Y-101500000D03*
X80000000Y-164250000D03*
X77750000Y-163500000D03*
X80000000Y-36500000D03*
X232182207Y-67800000D03*
X212000000Y-164250000D03*
X17250000Y-101500000D03*
X208800000Y-97000000D03*
X16500000Y-98500000D03*
X78500000Y-162750000D03*
X216500000Y-38000000D03*
X82250000Y-163500000D03*
X77750000Y-38000000D03*
X78500000Y-164250000D03*
X214500000Y-99500000D03*
X163000000Y-125450000D03*
X277000000Y-98500000D03*
X82250000Y-35750000D03*
X277750000Y-97000000D03*
X79250000Y-164250000D03*
X82250000Y-38000000D03*
X81500000Y-162000000D03*
X217250000Y-35750000D03*
X217250000Y-163500000D03*
X203669466Y-62700000D03*
X215000000Y-101000000D03*
X180900000Y-151000000D03*
X80000000Y-38000000D03*
X205149466Y-69225000D03*
X82250000Y-162000000D03*
X278500000Y-102250000D03*
X205149466Y-67625000D03*
X277000000Y-100000000D03*
X278500000Y-103000000D03*
X229800000Y-78800000D03*
X230734421Y-62800000D03*
X231534421Y-62800000D03*
X229934421Y-62800000D03*
X231381839Y-78800000D03*
X230600000Y-78800000D03*
%TO.N,/EM_A_N*%
X225582207Y-64400000D03*
X225582207Y-63800000D03*
X226182207Y-63800000D03*
X226182207Y-64400000D03*
%TO.N,/EM_A_P*%
X235782207Y-63600000D03*
X235182207Y-63000000D03*
X235782207Y-63000000D03*
X235182207Y-63600000D03*
%TO.N,/EM_B_N*%
X225448873Y-79795116D03*
X225448873Y-80395116D03*
X226048873Y-80395116D03*
X226048873Y-79795116D03*
%TO.N,/EM_B_P*%
X235731673Y-79525000D03*
X235731673Y-78925000D03*
X235131673Y-79525000D03*
X235131673Y-78925000D03*
%TO.N,/EM_C_N*%
X199200000Y-64300000D03*
X198600000Y-64300000D03*
X198600000Y-63700000D03*
X199200000Y-63700000D03*
%TO.N,/EM_C_P*%
X208200000Y-63500000D03*
X208200000Y-62900000D03*
X208800000Y-62900000D03*
X208800000Y-63500000D03*
%TO.N,/EM_D_N*%
X198498821Y-79595750D03*
X199098821Y-80195750D03*
X198498821Y-80195750D03*
X199098821Y-79595750D03*
%TO.N,/EM_D_P*%
X208028066Y-78902233D03*
X208628066Y-79502233D03*
X208028066Y-79502233D03*
X208628066Y-78902233D03*
%TO.N,/I2C_SCL*%
X162250000Y-85050000D03*
X98875000Y-79875000D03*
%TO.N,/I2C_SDA*%
X99550312Y-80550312D03*
X155125000Y-93775000D03*
%TO.N,/I2C_INT*%
X100250000Y-81250000D03*
%TO.N,Net-(Status_LED_TX1-+)*%
X243650000Y-148450000D03*
%TO.N,/USB Power Circuit/USB_VBUS*%
X255600000Y-135400000D03*
X255600000Y-134600000D03*
X251800000Y-140800000D03*
X255600000Y-136400000D03*
%TO.N,Net-(J1-CC1)*%
X248100000Y-138900000D03*
%TO.N,Net-(J1-D+-PadA6)*%
X250000000Y-131000000D03*
%TO.N,Net-(J1-D--PadA7)*%
X246100000Y-134600000D03*
%TO.N,Net-(J1-CC2)*%
X254337437Y-136862563D03*
%TO.N,/CHIP_EN*%
X211000000Y-101000000D03*
X165800000Y-128600000D03*
%TO.N,Net-(POWER_LED2-+)*%
X248200000Y-124700000D03*
%TO.N,/Electromagnet Driver/PMODE*%
X199500000Y-74027233D03*
X218300000Y-67700000D03*
%TO.N,+3.3V*%
X208800000Y-98200000D03*
X211800000Y-97800000D03*
X82500000Y-100950000D03*
X218900000Y-93900000D03*
X215000000Y-96400000D03*
X163200000Y-128500000D03*
X215800000Y-104900000D03*
X243900000Y-109200000D03*
X245600000Y-111000000D03*
X96750000Y-85250000D03*
X209400000Y-60800000D03*
X242900000Y-110200000D03*
X235800000Y-76600000D03*
X209400000Y-76749732D03*
X245500000Y-109900000D03*
X244500000Y-110900000D03*
X244400000Y-108700000D03*
X244400000Y-109800000D03*
X235600000Y-60800000D03*
X207800000Y-108800000D03*
X244900000Y-109300000D03*
X243900000Y-110300000D03*
X207200000Y-108200000D03*
X246100000Y-110500000D03*
X244000000Y-111400000D03*
X186000000Y-150200000D03*
X235000000Y-76986564D03*
X208600000Y-109400000D03*
X93250000Y-81750000D03*
X236400000Y-60800000D03*
X245000000Y-110400000D03*
X245100000Y-111500000D03*
X95000000Y-83500000D03*
X243400000Y-109700000D03*
X98250000Y-86750000D03*
X215700000Y-104200000D03*
X208600000Y-60790200D03*
X243400000Y-110800000D03*
X208400000Y-76749732D03*
X244600000Y-112000000D03*
%TO.N,Net-(Status_LED_RX1-+)*%
X245600000Y-153100000D03*
%TO.N,/HBRIDGE_ALL_EN*%
X217300000Y-57400000D03*
X232450000Y-59550000D03*
%TO.N,/HBRIDG_ALL_FAULT*%
X212450000Y-88300000D03*
X208000000Y-60100000D03*
X234990267Y-60200000D03*
X207900000Y-75977233D03*
X234790267Y-76200000D03*
%TO.N,+V_HB*%
X223151673Y-66500000D03*
X196100000Y-82200000D03*
X223000000Y-82400000D03*
X196200000Y-66300000D03*
%TO.N,/HBRIDGE_A_ISENSE*%
X236982207Y-61500000D03*
X209900000Y-103000000D03*
%TO.N,/HBRIDGE_B_ISENSE*%
X237000000Y-77400000D03*
X210400000Y-102300000D03*
%TO.N,/HBRIDGE_C_DIR*%
X213900000Y-93800000D03*
X216800000Y-96600000D03*
%TO.N,/HBRIDGE_C_PWM*%
X217846446Y-96800000D03*
X214450000Y-93000000D03*
%TO.N,/HBRIDGE_B_DIR*%
X219800000Y-97600000D03*
X227400000Y-91600000D03*
%TO.N,/HBRIDGE_B_PWM*%
X219800000Y-98400000D03*
X227400000Y-92400000D03*
%TO.N,/HBRIDGE_A_DIR*%
X227400000Y-93200000D03*
X219800000Y-99200000D03*
%TO.N,/HBRIDGE_A_PWM*%
X227400000Y-94000000D03*
X219800000Y-100000000D03*
%TO.N,/USB_D+*%
X247282843Y-131717157D03*
X219000000Y-100800000D03*
%TO.N,/USB_D-*%
X246717157Y-132282843D03*
X218400000Y-101400000D03*
%TD*%
%TO.N,/BOOT*%
D63*
X187400000Y-147600000D02*
X186850000Y-148150000D01*
X186850000Y-148150000D02*
X186850000Y-148788526D01*
D64*
X213500000Y-96732233D02*
X214155007Y-97387240D01*
%TO.N,GND*%
D65*
X251803984Y-128903984D02*
X252900000Y-130000000D01*
X237931673Y-79375000D02*
X237931673Y-77925000D01*
X220050000Y-68200000D02*
X220600000Y-68200000D01*
X252581118Y-116018882D02*
X252200000Y-116400000D01*
X245503984Y-122296016D02*
X246300000Y-121500000D01*
D63*
X221330330Y-103669670D02*
X222000000Y-103000000D01*
D66*
X78450000Y-101950000D02*
X78450000Y-103000000D01*
X200808821Y-74695750D02*
X201694955Y-74695750D01*
D65*
X220400000Y-65200000D02*
X220051673Y-65200000D01*
D63*
X221330330Y-103730330D02*
X221330330Y-103669670D01*
X218200000Y-104000000D02*
X218200000Y-103700000D01*
X163625000Y-131475000D02*
X164400000Y-130700000D01*
D65*
X209700000Y-104900000D02*
X208603984Y-103803984D01*
X220600000Y-68200000D02*
X222000000Y-66800000D01*
X257800000Y-124500000D02*
X257003984Y-123703984D01*
X194619466Y-65100000D02*
X193069466Y-65100000D01*
X194548821Y-80995750D02*
X192998821Y-80995750D01*
X211707968Y-108992032D02*
X212800000Y-107900000D01*
X209796016Y-112496016D02*
X209100000Y-111800000D01*
X193050000Y-68000000D02*
X194600000Y-68000000D01*
X204203984Y-107003984D02*
X204900000Y-107700000D01*
X213507968Y-110792032D02*
X214603984Y-109696016D01*
X222096016Y-90703984D02*
X221000000Y-91800000D01*
X255103984Y-125603984D02*
X256200000Y-126700000D01*
D63*
X245828249Y-141171751D02*
X246500000Y-140500000D01*
D66*
X227861673Y-62800000D02*
X231534421Y-62800000D01*
D63*
X254569670Y-128369670D02*
X255094767Y-128894767D01*
X221330330Y-103730330D02*
X221169670Y-103730330D01*
D66*
X200879466Y-62700000D02*
X204469466Y-62700000D01*
D65*
X237982207Y-63400000D02*
X237982207Y-61950000D01*
D63*
X220313934Y-104586066D02*
X220169031Y-104586066D01*
X163057661Y-131475000D02*
X163625000Y-131475000D01*
D66*
X231381839Y-78800000D02*
X227661673Y-78800000D01*
D65*
X211000000Y-63300000D02*
X211000000Y-61851616D01*
D66*
X229085273Y-59237466D02*
X229085273Y-62649148D01*
D65*
X210828066Y-79152233D02*
X210828066Y-77702233D01*
D64*
X219469670Y-106600000D02*
X219469670Y-107430330D01*
X227661673Y-74900000D02*
X226500000Y-74900000D01*
D65*
X252581118Y-115328427D02*
X252581118Y-116018882D01*
D63*
X218200000Y-103700000D02*
X218000000Y-103500000D01*
D65*
X254796016Y-117003984D02*
X254300000Y-117500000D01*
D67*
X256109099Y-130209099D02*
X256590901Y-130209099D01*
D63*
X218570969Y-104370969D02*
X218200000Y-104000000D01*
D66*
X202069466Y-59205001D02*
X202069466Y-62700000D01*
D65*
X255396016Y-117003984D02*
X255396016Y-117603984D01*
X211000000Y-61851616D02*
X210998271Y-61849887D01*
D66*
X227861673Y-58900000D02*
X228747807Y-58900000D01*
X200879466Y-58800000D02*
X201664465Y-58800000D01*
D68*
X214200000Y-98846446D02*
X214200000Y-99200000D01*
D65*
X255396016Y-117603984D02*
X254900000Y-118100000D01*
X220246016Y-88903984D02*
X220196016Y-88903984D01*
D63*
X249383883Y-132616117D02*
X250000000Y-132000000D01*
D65*
X251971573Y-115328427D02*
X251600000Y-115700000D01*
D67*
X256000000Y-130100000D02*
X256109099Y-130209099D01*
D65*
X221481673Y-81232582D02*
X219931673Y-81232582D01*
D64*
X226500000Y-74900000D02*
X226400000Y-74800000D01*
D65*
X220196016Y-88903984D02*
X219100000Y-90000000D01*
D66*
X202032421Y-75033216D02*
X202032421Y-78444898D01*
X257005678Y-58892348D02*
X257005678Y-58744322D01*
D63*
X218570969Y-104373934D02*
X218570969Y-104370969D01*
D65*
X255396016Y-117003984D02*
X254796016Y-117003984D01*
X192950000Y-83900000D02*
X194500000Y-83900000D01*
X215350000Y-91300000D02*
X216300000Y-91300000D01*
D66*
X228747807Y-58900000D02*
X229085273Y-59237466D01*
X77500000Y-101000000D02*
X78450000Y-101950000D01*
D65*
X208800000Y-96050000D02*
X208800000Y-97000000D01*
D66*
X204463052Y-78577233D02*
X200758066Y-78577233D01*
D63*
X251728249Y-134328249D02*
X252400000Y-135000000D01*
D65*
X222000000Y-66800000D02*
X220400000Y-65200000D01*
D67*
X256590901Y-130209099D02*
X257104505Y-130722703D01*
D65*
X252581118Y-115328427D02*
X251971573Y-115328427D01*
D63*
X221169670Y-103730330D02*
X220313934Y-104586066D01*
D66*
X201664465Y-58800000D02*
X202069466Y-59205001D01*
X201694955Y-74695750D02*
X202032421Y-75033216D01*
D65*
X219850000Y-84100000D02*
X221400000Y-84100000D01*
D64*
X232157207Y-67775000D02*
X232182207Y-67800000D01*
%TO.N,/EM_A_N*%
D63*
X166502168Y-63823209D02*
X176821184Y-53504193D01*
D66*
X227113608Y-62137466D02*
X227898607Y-62137466D01*
D65*
X180178527Y-51708142D02*
X178382476Y-53504193D01*
D63*
X176821184Y-53504193D02*
X178382476Y-53504193D01*
D65*
X45178527Y-55300245D02*
X45178527Y-55303527D01*
X46974578Y-53504194D02*
X45178527Y-55300245D01*
X45178527Y-55303527D02*
X82875000Y-93000000D01*
D63*
X140550000Y-101800000D02*
X152750000Y-101800000D01*
D66*
X226182207Y-63800000D02*
X226182207Y-63068867D01*
D63*
X131750000Y-93000000D02*
X140550000Y-101800000D01*
X166502168Y-88047832D02*
X166502168Y-63823209D01*
X83000000Y-93000000D02*
X131750000Y-93000000D01*
D65*
X82875000Y-93000000D02*
X83000000Y-93000000D01*
D63*
X152750000Y-101800000D02*
X166502168Y-88047832D01*
D66*
X226182207Y-63068867D02*
X227113608Y-62137466D01*
%TO.N,/EM_A_P*%
D65*
X77000000Y-88917770D02*
X42484450Y-54402220D01*
D66*
X234982207Y-62800000D02*
X235182207Y-63000000D01*
X233601673Y-62800000D02*
X234982207Y-62800000D01*
X233982207Y-63600000D02*
X235182207Y-63600000D01*
D65*
X42484450Y-54402219D02*
X42484450Y-54402220D01*
D66*
X233638607Y-63256400D02*
X233982207Y-63600000D01*
D65*
X77000000Y-93000000D02*
X77000000Y-88917770D01*
D66*
X233638607Y-62787466D02*
X233638607Y-63256400D01*
D65*
X181076553Y-54402219D02*
X179280501Y-56198270D01*
X44280501Y-52606168D02*
X42484450Y-54402219D01*
%TO.N,/EM_B_N*%
X41642348Y-58892348D02*
X41586424Y-58892348D01*
D66*
X227661673Y-78150000D02*
X226876674Y-78150000D01*
D65*
X73000000Y-90250000D02*
X41642348Y-58892348D01*
D66*
X226048873Y-78977801D02*
X226048873Y-79795116D01*
D65*
X176586425Y-55300244D02*
X174790373Y-57096296D01*
D66*
X226876674Y-78150000D02*
X226048873Y-78977801D01*
X225419472Y-79783581D02*
X225432006Y-79796115D01*
D65*
X41586424Y-58892348D02*
X43382476Y-57096296D01*
X73000000Y-97000000D02*
X73000000Y-90250000D01*
%TO.N,/EM_B_P*%
X71000000Y-101000000D02*
X73000000Y-103000000D01*
D66*
X233505273Y-79251516D02*
X233778757Y-79525000D01*
D65*
X40688399Y-56198271D02*
X38892348Y-57994322D01*
D66*
X233778757Y-79525000D02*
X235131673Y-79525000D01*
X233401673Y-78800000D02*
X235006673Y-78800000D01*
X233505273Y-78782582D02*
X233505273Y-79251516D01*
D65*
X38892348Y-57994322D02*
X38892347Y-57994322D01*
X177484450Y-57994321D02*
X175688399Y-59790373D01*
X38892347Y-57994322D02*
X71000000Y-90101975D01*
D66*
X235006673Y-78800000D02*
X235131673Y-78925000D01*
D65*
X71000000Y-90101975D02*
X71000000Y-101000000D01*
%TO.N,/EM_C_N*%
D66*
X199200000Y-62944467D02*
X199200000Y-63700000D01*
X200879466Y-62050000D02*
X200094467Y-62050000D01*
X200094467Y-62050000D02*
X199200000Y-62944467D01*
D65*
X69100000Y-93600000D02*
X69100000Y-102100000D01*
X74750000Y-107750000D02*
X76250000Y-107750000D01*
X37994322Y-62484450D02*
X37994322Y-62494322D01*
X69100000Y-102100000D02*
X74750000Y-107750000D01*
X37994322Y-62494322D02*
X69100000Y-93600000D01*
X172994322Y-58892347D02*
X171198271Y-60688398D01*
X37994322Y-62484450D02*
X39790373Y-60688399D01*
X76250000Y-107750000D02*
X77000000Y-107000000D01*
%TO.N,/EM_C_P*%
X35336425Y-61586425D02*
X68000000Y-94250000D01*
D66*
X206950532Y-63500000D02*
X208175600Y-63500000D01*
X206619466Y-63168934D02*
X206950532Y-63500000D01*
D65*
X37096296Y-59790373D02*
X35300245Y-61586424D01*
X35300245Y-61586424D02*
X35300245Y-61586425D01*
X173892348Y-61586424D02*
X172096296Y-63382475D01*
D66*
X208000000Y-62700000D02*
X208200000Y-62900000D01*
D65*
X35300245Y-61586425D02*
X35336425Y-61586425D01*
X68000000Y-94250000D02*
X68000000Y-103000000D01*
D66*
X206619466Y-62700000D02*
X208000000Y-62700000D01*
X206619466Y-62700000D02*
X206619466Y-63168934D01*
D65*
X80500000Y-109500000D02*
X83000000Y-107000000D01*
X74500000Y-109500000D02*
X80500000Y-109500000D01*
X68000000Y-103000000D02*
X74500000Y-109500000D01*
%TO.N,/EM_D_N*%
X66200000Y-97825000D02*
X66200000Y-103000000D01*
X74000000Y-110800000D02*
X86200000Y-110800000D01*
D66*
X199098821Y-78631478D02*
X199797083Y-77933216D01*
X199797083Y-77933216D02*
X200815221Y-77933216D01*
D65*
X34402219Y-66076553D02*
X36198271Y-64280501D01*
X34451553Y-66076553D02*
X66200000Y-97825000D01*
X169402220Y-62484449D02*
X167606168Y-64280501D01*
X86200000Y-110800000D02*
X87000000Y-110000000D01*
X66200000Y-103000000D02*
X74000000Y-110800000D01*
X34402219Y-66076553D02*
X34451553Y-66076553D01*
D66*
X199098821Y-79595750D02*
X199098821Y-78631478D01*
D65*
X87000000Y-110000000D02*
X87000000Y-103000000D01*
%TO.N,/EM_D_P*%
X31708143Y-65178527D02*
X31708143Y-65208143D01*
X31708143Y-65208143D02*
X65000000Y-98500000D01*
D63*
X168504194Y-97295806D02*
X168504194Y-66974577D01*
D65*
X89000000Y-109750000D02*
X89000000Y-99000000D01*
X65000000Y-103800000D02*
X73200000Y-112000000D01*
D63*
X93550000Y-103550000D02*
X162250000Y-103550000D01*
D65*
X89000000Y-99000000D02*
X87000000Y-97000000D01*
X65000000Y-98500000D02*
X65000000Y-103800000D01*
D66*
X206555221Y-78583216D02*
X206555221Y-79052150D01*
D65*
X33504194Y-63382476D02*
X31708143Y-65178527D01*
D66*
X207703066Y-78577233D02*
X208028066Y-78902233D01*
D63*
X162250000Y-103550000D02*
X168504194Y-97295806D01*
D65*
X170300245Y-65178526D02*
X168504194Y-66974577D01*
D66*
X206498066Y-78577233D02*
X207703066Y-78577233D01*
X206555221Y-79052150D02*
X207005304Y-79502233D01*
D63*
X87000000Y-97000000D02*
X93550000Y-103550000D01*
D65*
X73200000Y-112000000D02*
X86750000Y-112000000D01*
D66*
X207005304Y-79502233D02*
X208028066Y-79502233D01*
D65*
X86750000Y-112000000D02*
X89000000Y-109750000D01*
%TO.N,Net-(J2-Pad2)*%
X268792769Y-117340531D02*
X272137417Y-113995883D01*
X268792769Y-120387508D02*
X268792769Y-117340531D01*
%TO.N,/I2C_SCL*%
D64*
X252515550Y-57994322D02*
X253861316Y-57994322D01*
D63*
X162250000Y-85050000D02*
X150700000Y-96600000D01*
X150700000Y-96600000D02*
X144400000Y-96600000D01*
D64*
X214800000Y-95400000D02*
X214000000Y-96200000D01*
X246530200Y-69569800D02*
X246530200Y-82136774D01*
X246530200Y-82136774D02*
X233266974Y-95400000D01*
D63*
X98875000Y-79875000D02*
X96875000Y-79875000D01*
D64*
X214000000Y-96525126D02*
X214508561Y-97033687D01*
X233266974Y-95400000D02*
X214800000Y-95400000D01*
X253861316Y-57994322D02*
X255263201Y-59396207D01*
X255263201Y-59396207D02*
X255263201Y-60836799D01*
D63*
X144400000Y-96600000D02*
X127675000Y-79875000D01*
D64*
X255263201Y-60836799D02*
X246530200Y-69569800D01*
D63*
X96875000Y-79875000D02*
X95671751Y-81078249D01*
X127675000Y-79875000D02*
X98875000Y-79875000D01*
D64*
X214000000Y-96200000D02*
X214000000Y-96525126D01*
%TO.N,/I2C_SDA*%
X246200000Y-82000000D02*
X246200000Y-67901974D01*
X233200000Y-95000000D02*
X246200000Y-82000000D01*
X212994400Y-96941660D02*
X212994400Y-96522806D01*
X246200000Y-67901974D02*
X254311601Y-59790373D01*
X213298493Y-97237833D02*
X213290573Y-97237833D01*
D66*
X97421751Y-82678873D02*
X97421751Y-82715436D01*
D64*
X213801454Y-97740794D02*
X213298493Y-97237833D01*
X213000000Y-96517206D02*
X213000000Y-96500000D01*
X213290573Y-97237833D02*
X212994400Y-96941660D01*
X213000000Y-96500000D02*
X214500000Y-95000000D01*
D66*
X99550312Y-80550312D02*
X97421751Y-82678873D01*
D64*
X212994400Y-96522806D02*
X213000000Y-96517206D01*
X214500000Y-95000000D02*
X233200000Y-95000000D01*
%TO.N,/I2C_INT*%
X256107652Y-61586424D02*
X246860400Y-70833676D01*
D63*
X100250000Y-81250000D02*
X100250000Y-83250000D01*
D64*
X233133946Y-96000000D02*
X216303116Y-96000000D01*
X246860400Y-70833676D02*
X246860400Y-82273546D01*
X216051558Y-96251558D02*
X216051558Y-97180675D01*
D63*
X100250000Y-83250000D02*
X99171751Y-84328249D01*
D64*
X216051558Y-97180675D02*
X215844993Y-97387240D01*
X246860400Y-82273546D02*
X233133946Y-96000000D01*
X216303116Y-96000000D02*
X216051558Y-96251558D01*
%TO.N,Net-(Status_LED_TX1-+)*%
X243650000Y-148450000D02*
X243700000Y-148500000D01*
X243345109Y-148145109D02*
X243650000Y-148450000D01*
X242339625Y-148145109D02*
X243345109Y-148145109D01*
%TO.N,Net-(J4-Pad1)*%
D66*
X242260375Y-155254891D02*
X240537803Y-155254891D01*
X240537803Y-155254891D02*
X239635648Y-156157046D01*
%TO.N,Net-(U2-U0RXD{slash}GPIO20)*%
D64*
X235593000Y-115178352D02*
X235593000Y-151090539D01*
D65*
X236316978Y-156157046D02*
X236316978Y-154782408D01*
D64*
X219278552Y-102106800D02*
X220078553Y-101306800D01*
X237141978Y-153957408D02*
X236316978Y-154782408D01*
D65*
X237288994Y-157129062D02*
X236316978Y-156157046D01*
D64*
X218167460Y-102106800D02*
X219278552Y-102106800D01*
X235593000Y-151090539D02*
X237141978Y-152639517D01*
X237141978Y-152639517D02*
X237141978Y-153957408D01*
X220078553Y-101306800D02*
X221721448Y-101306800D01*
X221721448Y-101306800D02*
X235593000Y-115178352D01*
X217259206Y-101198546D02*
X218167460Y-102106800D01*
%TO.N,Net-(J4-Pad5)*%
D66*
X239660375Y-149254891D02*
X237691616Y-151223650D01*
X237691616Y-151223650D02*
X237691616Y-151463738D01*
%TO.N,Net-(U2-U0TXD{slash}GPIO21)*%
D64*
X235299800Y-115299800D02*
X235299800Y-149162246D01*
X217753554Y-102400000D02*
X219400000Y-102400000D01*
X220200000Y-101600000D02*
X221600000Y-101600000D01*
D65*
X235344962Y-152435754D02*
X234372946Y-151463738D01*
D64*
X219400000Y-102400000D02*
X220200000Y-101600000D01*
D65*
X234372946Y-151463738D02*
X234372946Y-150089100D01*
D64*
X221600000Y-101600000D02*
X235299800Y-115299800D01*
X216905653Y-101552099D02*
X217753554Y-102400000D01*
X235299800Y-149162246D02*
X234372946Y-150089100D01*
%TO.N,/USB Power Circuit/USB_VBUS*%
D66*
X258064030Y-131376777D02*
X258076777Y-131376777D01*
D63*
X255600000Y-134600000D02*
X255600000Y-136400000D01*
X246100000Y-136100000D02*
X246600000Y-136100000D01*
X251300000Y-140800000D02*
X251800000Y-140800000D01*
D66*
X258076777Y-131376777D02*
X255600000Y-133853554D01*
D63*
X246600000Y-136100000D02*
X246600000Y-135400000D01*
D66*
X258808632Y-131118682D02*
X258334872Y-131118682D01*
D63*
X246600000Y-135400000D02*
X247616117Y-134383883D01*
D66*
X255600000Y-133853554D02*
X255600000Y-134600000D01*
D63*
X251283363Y-124716637D02*
X245200000Y-130800000D01*
D66*
X258334872Y-131118682D02*
X258076777Y-131376777D01*
D63*
X251283363Y-122183363D02*
X251283363Y-124716637D01*
X245200000Y-135200000D02*
X246100000Y-136100000D01*
X245200000Y-130800000D02*
X245200000Y-135200000D01*
D66*
X259031371Y-131341421D02*
X258808632Y-131118682D01*
D63*
X246600000Y-136100000D02*
X251300000Y-140800000D01*
%TO.N,Net-(J1-CC1)*%
X247171751Y-139828249D02*
X248100000Y-138900000D01*
%TO.N,Net-(J1-D+-PadA6)*%
D64*
X250000000Y-131000000D02*
X249055635Y-131944365D01*
X249055635Y-131944365D02*
X248712132Y-131944365D01*
%TO.N,Net-(J1-D--PadA7)*%
D66*
X246944365Y-133755635D02*
X246100000Y-134600000D01*
X246944365Y-133712132D02*
X246944365Y-133755635D01*
%TO.N,Net-(J1-CC2)*%
X253071751Y-135671751D02*
X254262563Y-136862563D01*
X254262563Y-136862563D02*
X254337437Y-136862563D01*
%TO.N,/CHIP_EN*%
D63*
X165280737Y-128600000D02*
X164455737Y-127775000D01*
X165600000Y-129782661D02*
X165742339Y-129925000D01*
D64*
X211000000Y-101000000D02*
X211200000Y-101200000D01*
D63*
X165800000Y-128600000D02*
X165600000Y-128800000D01*
X165800000Y-128600000D02*
X165280737Y-128600000D01*
D64*
X212032233Y-101200000D02*
X212387240Y-100844993D01*
X211200000Y-101200000D02*
X212032233Y-101200000D01*
D63*
X165600000Y-128800000D02*
X165600000Y-129782661D01*
%TO.N,Net-(POWER_LED2-+)*%
D66*
X248746447Y-124153553D02*
X248200000Y-124700000D01*
%TO.N,/Electromagnet Driver/PMODE*%
D67*
X220493673Y-58250000D02*
X218343673Y-56100000D01*
X219000000Y-69600000D02*
X219700000Y-70300000D01*
X199500000Y-74027233D02*
X200758066Y-74027233D01*
X219700000Y-70300000D02*
X225900000Y-70300000D01*
X218343673Y-56100000D02*
X202929466Y-56100000D01*
X227661673Y-72061673D02*
X227661673Y-74250000D01*
X219000000Y-59743673D02*
X219000000Y-67700000D01*
X227861673Y-58250000D02*
X227861673Y-54001609D01*
X220493673Y-58250000D02*
X219000000Y-59743673D01*
X202929466Y-56100000D02*
X200879466Y-58150000D01*
X225900000Y-70300000D02*
X227661673Y-72061673D01*
X227861673Y-58250000D02*
X220493673Y-58250000D01*
X227861673Y-54001609D02*
X233663980Y-48199302D01*
X219000000Y-67700000D02*
X219000000Y-69600000D01*
X218300000Y-67700000D02*
X219000000Y-67700000D01*
%TO.N,+3.3V*%
X215800000Y-104900000D02*
X213900000Y-106800000D01*
X233601673Y-60850000D02*
X235550000Y-60850000D01*
D64*
X215000000Y-96400000D02*
X215000000Y-96542248D01*
D67*
X235550000Y-60850000D02*
X235600000Y-60800000D01*
D65*
X250954772Y-116954772D02*
X246500000Y-112500000D01*
D67*
X215900000Y-103374874D02*
X215491439Y-102966313D01*
X215491439Y-102966313D02*
X215844993Y-102612760D01*
D65*
X185400000Y-150800000D02*
X186000000Y-150200000D01*
D63*
X162475000Y-129225000D02*
X163200000Y-128500000D01*
D67*
X215700000Y-104200000D02*
X215900000Y-104000000D01*
X234863436Y-76850000D02*
X235000000Y-76986564D01*
D65*
X253203984Y-119196016D02*
X250962740Y-116954772D01*
D66*
X209390200Y-60790200D02*
X209400000Y-60800000D01*
D67*
X215800000Y-104900000D02*
X216432233Y-104267767D01*
X206498066Y-76627233D02*
X208277501Y-76627233D01*
D66*
X82500000Y-100950000D02*
X81550000Y-101900000D01*
X218900000Y-93900000D02*
X219903984Y-92896016D01*
D65*
X219853984Y-92896016D02*
X219903984Y-92896016D01*
X208800000Y-99150000D02*
X208800000Y-98200000D01*
D67*
X208400000Y-76749732D02*
X209400000Y-76749732D01*
X211800000Y-97860660D02*
X212740794Y-98801454D01*
D65*
X218053984Y-91096016D02*
X219853984Y-92896016D01*
D66*
X235000000Y-76986564D02*
X235413436Y-76986564D01*
D63*
X161944263Y-129225000D02*
X162475000Y-129225000D01*
D67*
X211800000Y-97800000D02*
X211800000Y-97860660D01*
D66*
X81550000Y-101900000D02*
X81550000Y-103000000D01*
D67*
X208559800Y-60750000D02*
X208600000Y-60790200D01*
X216432233Y-104267767D02*
X216432233Y-103200000D01*
X208277501Y-76627233D02*
X208400000Y-76749732D01*
X233401673Y-76850000D02*
X234863436Y-76850000D01*
D64*
X215000000Y-96542248D02*
X215491439Y-97033687D01*
D66*
X235413436Y-76986564D02*
X235800000Y-76600000D01*
D67*
X215900000Y-104000000D02*
X215900000Y-103374874D01*
D66*
X208600000Y-60790200D02*
X209390200Y-60790200D01*
D65*
X185400000Y-151300000D02*
X185400000Y-150800000D01*
D67*
X206619466Y-60750000D02*
X208559800Y-60750000D01*
D65*
X215700000Y-108600000D02*
X213900000Y-106800000D01*
D67*
X216432233Y-103200000D02*
X215844993Y-102612760D01*
X235600000Y-60800000D02*
X236400000Y-60800000D01*
X213900000Y-106000000D02*
X213900000Y-106800000D01*
X215700000Y-104200000D02*
X213900000Y-106000000D01*
D65*
X250962740Y-116954772D02*
X250954772Y-116954772D01*
%TO.N,Net-(Status_LED_RX1-+)*%
D64*
X244939625Y-154145109D02*
X245600000Y-153484734D01*
X245600000Y-153484734D02*
X245600000Y-153100000D01*
%TO.N,/HBRIDGE_D_PWM*%
X212400000Y-80100000D02*
X210750800Y-81749200D01*
X206498066Y-74027233D02*
X211227233Y-74027233D01*
X210750800Y-98225674D02*
X212033687Y-99508561D01*
X211227233Y-74027233D02*
X212400000Y-75200000D01*
X212400000Y-75200000D02*
X212400000Y-80100000D01*
X210750800Y-81749200D02*
X210750800Y-98225674D01*
%TO.N,/HBRIDGE_D_DIR*%
X205827456Y-74677233D02*
X205459066Y-74308843D01*
X206498066Y-74677233D02*
X205827456Y-74677233D01*
X205459066Y-74308843D02*
X205459066Y-73745623D01*
X205636456Y-73568233D02*
X211235207Y-73568233D01*
X205459066Y-73745623D02*
X205636456Y-73568233D01*
X211081000Y-81885974D02*
X211081000Y-97860081D01*
X211235207Y-73568233D02*
X212730200Y-75063227D01*
X212730200Y-80236774D02*
X211081000Y-81885974D01*
X212730200Y-75063227D02*
X212730200Y-80236774D01*
X212375926Y-99155007D02*
X212387240Y-99155007D01*
X211081000Y-97860081D02*
X212375926Y-99155007D01*
%TO.N,/HBRIDGE_ALL_EN*%
X213060400Y-74926454D02*
X213060400Y-80373548D01*
X205128866Y-73608849D02*
X205499683Y-73238033D01*
D67*
X206619466Y-59450000D02*
X205808596Y-59450000D01*
D64*
X212718599Y-71881401D02*
X211371981Y-73228019D01*
D67*
X235800000Y-70100000D02*
X237900000Y-70100000D01*
X239400000Y-60159793D02*
X238790207Y-59550000D01*
X206048856Y-57400000D02*
X217300000Y-57400000D01*
X237900000Y-70100000D02*
X239400000Y-68600000D01*
X233401673Y-75550000D02*
X232616674Y-75550000D01*
X232362673Y-75295999D02*
X232362673Y-73537327D01*
D64*
X205128866Y-74743032D02*
X205128866Y-73608849D01*
X206498066Y-75327233D02*
X205713067Y-75327233D01*
X213060400Y-80373548D02*
X211411200Y-82022748D01*
X212718599Y-60434599D02*
X212718599Y-71881401D01*
X205499683Y-73238033D02*
X211371981Y-73238033D01*
X211371981Y-73228019D02*
X211371981Y-73238033D01*
D67*
X205580466Y-57868390D02*
X206048856Y-57400000D01*
D64*
X206619466Y-59450000D02*
X211734000Y-59450000D01*
X211371981Y-73238033D02*
X213060400Y-74926454D01*
X211411200Y-96611200D02*
X213094347Y-98294347D01*
D67*
X232616674Y-75550000D02*
X232362673Y-75295999D01*
D64*
X211411200Y-82022748D02*
X211411200Y-96611200D01*
D67*
X239400000Y-68600000D02*
X239400000Y-60159793D01*
X232362673Y-73537327D02*
X235800000Y-70100000D01*
D64*
X213094347Y-98294347D02*
X213094347Y-98447901D01*
D67*
X232450000Y-59550000D02*
X233601673Y-59550000D01*
X238790207Y-59550000D02*
X233601673Y-59550000D01*
X205580466Y-59221870D02*
X205580466Y-57868390D01*
D64*
X205713067Y-75327233D02*
X205128866Y-74743032D01*
X211734000Y-59450000D02*
X212718599Y-60434599D01*
D67*
X205808596Y-59450000D02*
X205580466Y-59221870D01*
%TO.N,/HBRIDG_ALL_FAULT*%
D64*
X212450000Y-91300000D02*
X212450000Y-88300000D01*
X212450000Y-97096446D02*
X212450000Y-91300000D01*
X233401673Y-76200000D02*
X234790267Y-76200000D01*
X213447901Y-98094347D02*
X212450000Y-97096446D01*
X207900000Y-75977233D02*
X206498066Y-75977233D01*
X206619466Y-60100000D02*
X208000000Y-60100000D01*
X206575299Y-75900000D02*
X206498066Y-75977233D01*
X233601673Y-60200000D02*
X234990267Y-60200000D01*
%TO.N,/HBRIDGE_D_ISENSE*%
X210395200Y-81601906D02*
X210395200Y-98852952D01*
D67*
X206536949Y-77316116D02*
X209764183Y-77316116D01*
D64*
X210828066Y-76252233D02*
X212017400Y-77441567D01*
D67*
X206498066Y-77277233D02*
X206536949Y-77316116D01*
D64*
X210395200Y-98852952D02*
X212033687Y-100491439D01*
X212017400Y-77441567D02*
X212017400Y-79979706D01*
D67*
X209764183Y-77316116D02*
X210828066Y-76252233D01*
D64*
X212017400Y-79979706D02*
X210395200Y-81601906D01*
%TO.N,Net-(EMD1-IMODE)*%
D66*
X209028066Y-80552233D02*
X201028066Y-80552233D01*
D67*
X209428066Y-78302233D02*
X209428066Y-80152233D01*
X209053066Y-77927233D02*
X209428066Y-78302233D01*
X206498066Y-77927233D02*
X209053066Y-77927233D01*
X209428066Y-80152233D02*
X209028066Y-80552233D01*
%TO.N,+V_HB*%
D63*
X223151673Y-65200000D02*
X223151673Y-64971234D01*
X223031673Y-81003816D02*
X220860439Y-78832582D01*
X223031673Y-81232582D02*
X223031673Y-81003816D01*
X196098821Y-80995750D02*
X196098821Y-80766984D01*
D66*
X226468403Y-77532582D02*
X227741673Y-77532582D01*
D65*
X223151673Y-65200000D02*
X223151673Y-66500000D01*
D66*
X199869466Y-61400000D02*
X196169466Y-65100000D01*
X223151673Y-64936730D02*
X226588403Y-61500000D01*
D63*
X196169466Y-65100000D02*
X196169466Y-64800000D01*
D65*
X196098821Y-83851179D02*
X196050000Y-83900000D01*
D63*
X220860439Y-78832582D02*
X219981673Y-78832582D01*
D65*
X222950000Y-81201673D02*
X222951673Y-81200000D01*
D63*
X196098821Y-80766984D02*
X193927587Y-78595750D01*
D66*
X199535551Y-77295750D02*
X200808821Y-77295750D01*
X223031673Y-80969312D02*
X226468403Y-77532582D01*
D65*
X223151673Y-66500000D02*
X223151673Y-68198327D01*
D66*
X226588403Y-61500000D02*
X227861673Y-61500000D01*
D63*
X193927587Y-78595750D02*
X193048821Y-78595750D01*
X194069466Y-62700000D02*
X193119466Y-62700000D01*
X223151673Y-64971234D02*
X220980439Y-62800000D01*
D66*
X223151673Y-65200000D02*
X223151673Y-64936730D01*
D65*
X196098821Y-80995750D02*
X196098821Y-83851179D01*
X196169466Y-65100000D02*
X196169466Y-67980534D01*
D63*
X196169466Y-64800000D02*
X194069466Y-62700000D01*
D65*
X196169466Y-67980534D02*
X196150000Y-68000000D01*
D66*
X223031673Y-81232582D02*
X223031673Y-80969312D01*
D65*
X222950000Y-84100000D02*
X222950000Y-81201673D01*
D66*
X196098821Y-80732480D02*
X199535551Y-77295750D01*
D65*
X223151673Y-68198327D02*
X223150000Y-68200000D01*
D66*
X200879466Y-61400000D02*
X199869466Y-61400000D01*
X196098821Y-80995750D02*
X196098821Y-80732480D01*
D63*
X220980439Y-62800000D02*
X220101673Y-62800000D01*
%TO.N,Net-(EMD1-VCP)*%
D66*
X198098821Y-76645750D02*
X196148821Y-78595750D01*
X200808821Y-76645750D02*
X198098821Y-76645750D01*
%TO.N,Net-(EMD1-CPH)*%
X196348821Y-75995750D02*
X196148821Y-76195750D01*
X200808821Y-75995750D02*
X196348821Y-75995750D01*
%TO.N,Net-(EMD1-CPL)*%
X193681569Y-74749732D02*
X193048821Y-75382480D01*
X193048821Y-75382480D02*
X193048821Y-76195750D01*
X200808821Y-75345750D02*
X197685551Y-75345750D01*
X197681569Y-75349732D02*
X197081569Y-74749732D01*
X197685551Y-75345750D02*
X197681569Y-75349732D01*
X197081569Y-74749732D02*
X193681569Y-74749732D01*
%TO.N,+5V*%
D63*
X249453553Y-123446447D02*
X249453553Y-121679721D01*
X249453553Y-121679721D02*
X250116637Y-121016637D01*
%TO.N,/VDD3P3*%
D64*
X210796016Y-105264644D02*
X213801454Y-102259206D01*
X214155007Y-102637025D02*
X210796016Y-105996016D01*
X210796016Y-105996016D02*
X210796016Y-105264644D01*
X214155007Y-102612760D02*
X214155007Y-102637025D01*
X213801454Y-102259206D02*
X214155007Y-102612760D01*
D63*
X209450781Y-107341251D02*
X210796016Y-105996016D01*
%TO.N,/HBRIDGE_A_ISENSE*%
D66*
X236982207Y-61500000D02*
X233601673Y-61500000D01*
X237982207Y-60500000D02*
X236982207Y-61500000D01*
D64*
X213447901Y-101905653D02*
X213447901Y-101952099D01*
X209900000Y-103000000D02*
X212353554Y-103000000D01*
X212353554Y-103000000D02*
X213447901Y-101905653D01*
X213447901Y-101952099D02*
X213400000Y-102000000D01*
%TO.N,/HBRIDGE_B_ISENSE*%
D66*
X233481673Y-77532582D02*
X233503073Y-77553982D01*
D64*
X212346446Y-102300000D02*
X213094347Y-101552099D01*
D67*
X237000000Y-77400000D02*
X236800000Y-77600000D01*
X236800000Y-77600000D02*
X233501673Y-77600000D01*
D64*
X210400000Y-102300000D02*
X212346446Y-102300000D01*
D67*
X233501673Y-77600000D02*
X233401673Y-77500000D01*
X237000000Y-77400000D02*
X237925000Y-76475000D01*
X237925000Y-76475000D02*
X237931673Y-76475000D01*
%TO.N,/HBRIDGE_C_ISENSE*%
D64*
X212400000Y-61800000D02*
X212400000Y-71400000D01*
D66*
X210000000Y-61400000D02*
X206619466Y-61400000D01*
D64*
X212239340Y-101700000D02*
X212740794Y-101198546D01*
X192269466Y-75198633D02*
X192269466Y-85376666D01*
X210892167Y-72907833D02*
X194560266Y-72907833D01*
X211000000Y-60400000D02*
X212400000Y-61800000D01*
X192269466Y-85376666D02*
X208592800Y-101700000D01*
X212400000Y-71400000D02*
X210892167Y-72907833D01*
X208592800Y-101700000D02*
X212239340Y-101700000D01*
X194560266Y-72907833D02*
X192269466Y-75198633D01*
D66*
X211000000Y-60400000D02*
X210000000Y-61400000D01*
%TO.N,/HBRIDGE_C_DIR*%
D64*
X213900000Y-93800000D02*
X213900000Y-60500000D01*
X212200000Y-58800000D02*
X206619466Y-58800000D01*
X213900000Y-60500000D02*
X212200000Y-58800000D01*
X216800000Y-97139340D02*
X216800000Y-96600000D01*
X216198546Y-97740794D02*
X216800000Y-97139340D01*
%TO.N,/HBRIDGE_C_PWM*%
X217846446Y-96800000D02*
X216552099Y-98094347D01*
X212150000Y-58150000D02*
X206619466Y-58150000D01*
X214450000Y-60450000D02*
X212150000Y-58150000D01*
X214450000Y-93000000D02*
X214450000Y-60450000D01*
%TO.N,/HBRIDGE_B_DIR*%
X219800000Y-97600000D02*
X219600000Y-97400000D01*
X227400000Y-91600000D02*
X233433026Y-91600000D01*
X217953554Y-97400000D02*
X216905653Y-98447901D01*
X244018800Y-76803748D02*
X242115052Y-74900000D01*
X219600000Y-97400000D02*
X217953554Y-97400000D01*
X244018800Y-81014226D02*
X244018800Y-76803748D01*
X242115052Y-74900000D02*
X233401673Y-74900000D01*
X233433026Y-91600000D02*
X244018800Y-81014226D01*
%TO.N,/HBRIDGE_B_PWM*%
X218060660Y-98000000D02*
X217982377Y-98078283D01*
X227400000Y-92400000D02*
X233100000Y-92400000D01*
X217678283Y-98382377D02*
X217259206Y-98801454D01*
X217982377Y-98078283D02*
X217982377Y-98086204D01*
X219400000Y-98000000D02*
X218060660Y-98000000D01*
X244349000Y-81151000D02*
X244349000Y-76666974D01*
X217686204Y-98382377D02*
X217678283Y-98382377D01*
X241932026Y-74250000D02*
X233401673Y-74250000D01*
X244349000Y-76666974D02*
X241932026Y-74250000D01*
X219800000Y-98400000D02*
X219400000Y-98000000D01*
X217982377Y-98086204D02*
X217686204Y-98382377D01*
X233100000Y-92400000D02*
X244349000Y-81151000D01*
%TO.N,/HBRIDGE_A_DIR*%
X244679200Y-81306191D02*
X244679200Y-64879200D01*
X217967767Y-98800000D02*
X217612760Y-99155007D01*
X219400000Y-98800000D02*
X217967767Y-98800000D01*
X232785391Y-93200000D02*
X244679200Y-81306191D01*
X244679200Y-64879200D02*
X238700000Y-58900000D01*
X227400000Y-93400000D02*
X227600000Y-93200000D01*
X227400000Y-93200000D02*
X232785391Y-93200000D01*
X238700000Y-58900000D02*
X233601673Y-58900000D01*
X219800000Y-99200000D02*
X219400000Y-98800000D01*
%TO.N,/HBRIDGE_A_PWM*%
X227400000Y-94000000D02*
X232488285Y-94000000D01*
X245034800Y-64731906D02*
X238847294Y-58544400D01*
X238550000Y-58250000D02*
X233601673Y-58250000D01*
X232488285Y-94000000D02*
X245034800Y-81453485D01*
X238844400Y-58544400D02*
X238550000Y-58250000D01*
X238847294Y-58544400D02*
X238844400Y-58544400D01*
X219800000Y-100000000D02*
X218457752Y-100000000D01*
X218457752Y-100000000D02*
X217966313Y-99508561D01*
X245034800Y-81453485D02*
X245034800Y-64731906D01*
%TO.N,/USB_D+*%
D68*
X218015067Y-100540193D02*
X217966313Y-100491439D01*
X218355720Y-100540193D02*
X218015067Y-100540193D01*
X250055635Y-133287868D02*
X249713537Y-132945770D01*
X249258273Y-133401035D02*
X248616562Y-133401035D01*
X248616562Y-133401035D02*
X247282843Y-132067316D01*
X247282843Y-132067316D02*
X247282843Y-131717157D01*
X218615527Y-100800000D02*
X218355720Y-100540193D01*
X249713537Y-132945770D02*
X249258273Y-133401035D01*
X219000000Y-100800000D02*
X218615527Y-100800000D01*
%TO.N,/USB_D-*%
X247945770Y-134713537D02*
X248401035Y-134258273D01*
X248287868Y-135055635D02*
X247945770Y-134713537D01*
X218325011Y-100940538D02*
X218239392Y-101026158D01*
X218400000Y-101400000D02*
X218400000Y-101015527D01*
X248401035Y-134258273D02*
X248401035Y-133616562D01*
X247067316Y-132282843D02*
X246717157Y-132282843D01*
X248401035Y-133616562D02*
X247067316Y-132282843D01*
X218400000Y-101015527D02*
X218325011Y-100940538D01*
X218075070Y-101026158D02*
X217893905Y-100844993D01*
X218239392Y-101026158D02*
X218075070Y-101026158D01*
X217893905Y-100844993D02*
X217612760Y-100844993D01*
%TO.N,/-XTAL_40_MHz*%
D67*
X218382965Y-102800000D02*
X217446446Y-102800000D01*
D63*
X220175233Y-102769670D02*
X219263934Y-103680969D01*
X220269670Y-102769670D02*
X220175233Y-102769670D01*
D67*
X217446446Y-102800000D02*
X216552099Y-101905653D01*
X219263934Y-103680969D02*
X218382965Y-102800000D01*
%TO.N,/+XTAL_40_MHz*%
D64*
X217349219Y-103409879D02*
X217349219Y-105549219D01*
X216198546Y-102259206D02*
X217349219Y-103409879D01*
%TO.N,Net-(R26-Pad2)*%
D66*
X202450000Y-67925000D02*
X201175000Y-66650000D01*
X202450000Y-68700000D02*
X202450000Y-67925000D01*
%TO.N,Net-(C33-Pad2)*%
D63*
X219476066Y-105279031D02*
X219422531Y-105279031D01*
X220530330Y-106369670D02*
X220530330Y-106333295D01*
X220530330Y-106333295D02*
X219476066Y-105279031D01*
X219422531Y-105279031D02*
X218250781Y-106450781D01*
%TO.N,Net-(R31-Pad2)*%
D66*
X229282006Y-84021115D02*
X228007006Y-82746115D01*
X229282006Y-84796115D02*
X229282006Y-84021115D01*
%TO.N,Net-(EMC1-IMODE)*%
X209549466Y-62225000D02*
X209549466Y-64325534D01*
X209125000Y-64750000D02*
X209175000Y-64700000D01*
X209549466Y-64325534D02*
X209175000Y-64700000D01*
X206619466Y-62050000D02*
X209374466Y-62050000D01*
X201175000Y-64750000D02*
X209125000Y-64750000D01*
X209374466Y-62050000D02*
X209549466Y-62225000D01*
%TO.N,Net-(EMA1-VCP)*%
X225151673Y-60850000D02*
X223201673Y-62800000D01*
X227861673Y-60850000D02*
X225151673Y-60850000D01*
%TO.N,Net-(R21-Pad2)*%
X229432207Y-68025000D02*
X228157207Y-66750000D01*
X229432207Y-68800000D02*
X229432207Y-68025000D01*
%TO.N,Net-(EMA1-IMODE)*%
X236157207Y-64800000D02*
X228207207Y-64800000D01*
X236582207Y-62400000D02*
X236582207Y-64375000D01*
X236582207Y-64375000D02*
X236157207Y-64800000D01*
X233601673Y-62150000D02*
X236332207Y-62150000D01*
X228207207Y-64800000D02*
X228157207Y-64850000D01*
X236332207Y-62150000D02*
X236582207Y-62400000D01*
%TO.N,+5VP*%
D65*
X275900000Y-108100000D02*
X273800000Y-106000000D01*
X269000000Y-106000000D02*
X259196016Y-115803984D01*
X259196016Y-115803984D02*
X259196016Y-125896016D01*
D66*
X259196016Y-129550430D02*
X259196016Y-125896016D01*
X257723223Y-131023223D02*
X259196016Y-129550430D01*
D65*
X273800000Y-106000000D02*
X269000000Y-106000000D01*
X274195310Y-111504690D02*
X275900000Y-109800000D01*
X272632948Y-111504690D02*
X274195310Y-111504690D01*
X275900000Y-109800000D02*
X275900000Y-108100000D01*
%TO.N,Net-(EMB1-IMODE)*%
D66*
X235957006Y-80846115D02*
X236007006Y-80796115D01*
X228007006Y-80846115D02*
X235957006Y-80846115D01*
X236156673Y-78150000D02*
X233401673Y-78150000D01*
X236531673Y-80271448D02*
X236531673Y-78525000D01*
X236531673Y-78525000D02*
X236156673Y-78150000D01*
X236007006Y-80796115D02*
X236531673Y-80271448D01*
%TO.N,Net-(R30-Pad2)*%
D63*
X236257006Y-82946115D02*
X236007006Y-82696115D01*
X236257006Y-84746115D02*
X236257006Y-82946115D01*
%TO.N,Net-(R20-Pad2)*%
D66*
X236407207Y-68750000D02*
X236407207Y-66950000D01*
X236407207Y-66950000D02*
X236157207Y-66700000D01*
%TO.N,Net-(EMB1-CPH)*%
X223281673Y-76232582D02*
X223081673Y-76432582D01*
X227741673Y-76232582D02*
X223281673Y-76232582D01*
%TO.N,Net-(EMB1-CPL)*%
X219981673Y-75619312D02*
X219981673Y-76432582D01*
X224614421Y-75586564D02*
X224014421Y-74986564D01*
X224618403Y-75582582D02*
X224614421Y-75586564D01*
X224014421Y-74986564D02*
X220614421Y-74986564D01*
X227741673Y-75582582D02*
X224618403Y-75582582D01*
X220614421Y-74986564D02*
X219981673Y-75619312D01*
%TO.N,Net-(EMC1-VCP)*%
X198150000Y-60750000D02*
X196219466Y-62680534D01*
X200879466Y-60750000D02*
X198150000Y-60750000D01*
X196219466Y-62680534D02*
X196219466Y-62700000D01*
%TO.N,Net-(EMC1-CPH)*%
X200879466Y-60100000D02*
X196419466Y-60100000D01*
X196419466Y-60100000D02*
X196219466Y-60300000D01*
%TO.N,Net-(EMC1-CPL)*%
X193119466Y-59450000D02*
X193119466Y-60300000D01*
X197619466Y-59450000D02*
X197069466Y-58900000D01*
X193669466Y-58900000D02*
X193119466Y-59450000D01*
X200879466Y-59450000D02*
X197619466Y-59450000D01*
X197069466Y-58900000D02*
X193669466Y-58900000D01*
%TO.N,Net-(R25-Pad2)*%
X209425000Y-68650000D02*
X209425000Y-66850000D01*
X209425000Y-66850000D02*
X209175000Y-66600000D01*
%TO.N,Net-(EMB1-VCP)*%
X225031673Y-76882582D02*
X223081673Y-78832582D01*
X227741673Y-76882582D02*
X225031673Y-76882582D01*
%TO.N,Net-(R36-Pad2)*%
D67*
X202278066Y-83702233D02*
X201028066Y-82452233D01*
X202278066Y-84502233D02*
X202278066Y-83702233D01*
%TO.N,Net-(U5-ILM)*%
X256448528Y-129430330D02*
X255630330Y-129430330D01*
X256659099Y-129640901D02*
X256448528Y-129430330D01*
X257422703Y-130404505D02*
X256659099Y-129640901D01*
%TO.N,Net-(U5-DVDT)*%
D66*
X256510050Y-130800000D02*
X256768629Y-131058579D01*
X253996016Y-131096016D02*
X254292032Y-130800000D01*
X254292032Y-130800000D02*
X256510050Y-130800000D01*
%TO.N,Net-(U5-ITIMER)*%
X257758579Y-130068629D02*
X257296016Y-129606066D01*
X257296016Y-129606066D02*
X257296016Y-127796016D01*
%TO.N,Net-(EMA1-CPH)*%
X227861673Y-60200000D02*
X223401673Y-60200000D01*
X223401673Y-60200000D02*
X223201673Y-60400000D01*
%TO.N,Net-(EMA1-CPL)*%
X220734421Y-58953982D02*
X220101673Y-59586730D01*
X220101673Y-59586730D02*
X220101673Y-60400000D01*
X224134421Y-58953982D02*
X220734421Y-58953982D01*
X224734421Y-59553982D02*
X224134421Y-58953982D01*
X227861673Y-59550000D02*
X224738403Y-59550000D01*
X224738403Y-59550000D02*
X224734421Y-59553982D01*
%TO.N,Net-(R35-Pad2)*%
D63*
X209278066Y-84502233D02*
X209278066Y-82702233D01*
X209278066Y-82702233D02*
X209028066Y-82452233D01*
%TD*%
%TA.AperFunction,Conductor*%
%TO.N,/EM_B_P*%
G36*
X236028461Y-78544685D02*
G01*
X236074216Y-78597489D01*
X236085422Y-78649000D01*
X236085422Y-79801000D01*
X236065737Y-79868039D01*
X236012933Y-79913794D01*
X235961422Y-79925000D01*
X234809422Y-79925000D01*
X234742383Y-79905315D01*
X234696628Y-79852511D01*
X234685422Y-79801000D01*
X234685422Y-78649000D01*
X234705107Y-78581961D01*
X234757911Y-78536206D01*
X234809422Y-78525000D01*
X235961422Y-78525000D01*
X236028461Y-78544685D01*
G37*
%TD.AperFunction*%
%TD*%
%TA.AperFunction,Conductor*%
%TO.N,GND*%
G36*
X215151796Y-34992188D02*
G01*
X216586232Y-35010414D01*
X216588462Y-35010463D01*
X216755133Y-35015665D01*
X218195356Y-35069608D01*
X218197482Y-35069707D01*
X218357010Y-35078656D01*
X218357177Y-35078666D01*
X218633709Y-35095879D01*
X218699391Y-35119689D01*
X218741777Y-35175233D01*
X218750000Y-35219638D01*
X218750000Y-37210261D01*
X218730315Y-37277300D01*
X218726903Y-37282335D01*
X217537090Y-38948074D01*
X217482106Y-38991184D01*
X217436187Y-39000000D01*
X212563813Y-39000000D01*
X212496774Y-38980315D01*
X212462910Y-38948074D01*
X211273097Y-37282335D01*
X211250149Y-37216341D01*
X211250000Y-37210261D01*
X211250000Y-35219901D01*
X211269685Y-35152862D01*
X211322489Y-35107107D01*
X211366377Y-35096135D01*
X211757442Y-35072059D01*
X211759481Y-35071952D01*
X211945341Y-35063900D01*
X213366355Y-35011644D01*
X213368459Y-35011586D01*
X213548351Y-35008264D01*
X214976390Y-34991090D01*
X214978439Y-34991085D01*
X215151796Y-34992188D01*
G37*
%TD.AperFunction*%
%TD*%
%TA.AperFunction,Conductor*%
%TO.N,/EM_B_N*%
G36*
X226391912Y-79414801D02*
G01*
X226437667Y-79467605D01*
X226448873Y-79519116D01*
X226448873Y-80671116D01*
X226429188Y-80738155D01*
X226376384Y-80783910D01*
X226324873Y-80795116D01*
X225172873Y-80795116D01*
X225105834Y-80775431D01*
X225060079Y-80722627D01*
X225048873Y-80671116D01*
X225048873Y-79519116D01*
X225068558Y-79452077D01*
X225121362Y-79406322D01*
X225172873Y-79395116D01*
X226324873Y-79395116D01*
X226391912Y-79414801D01*
G37*
%TD.AperFunction*%
%TD*%
%TA.AperFunction,Conductor*%
%TO.N,/EM_D_N*%
G36*
X199441860Y-79215435D02*
G01*
X199487615Y-79268239D01*
X199498821Y-79319750D01*
X199498821Y-80471750D01*
X199479136Y-80538789D01*
X199426332Y-80584544D01*
X199374821Y-80595750D01*
X198222821Y-80595750D01*
X198155782Y-80576065D01*
X198110027Y-80523261D01*
X198098821Y-80471750D01*
X198098821Y-79319750D01*
X198118506Y-79252711D01*
X198171310Y-79206956D01*
X198222821Y-79195750D01*
X199374821Y-79195750D01*
X199441860Y-79215435D01*
G37*
%TD.AperFunction*%
%TD*%
%TA.AperFunction,Conductor*%
%TO.N,GND*%
G36*
X279847476Y-96269685D02*
G01*
X279893231Y-96322489D01*
X279904285Y-96367868D01*
X279964626Y-97586480D01*
X279964740Y-97589544D01*
X280004444Y-99193726D01*
X280004482Y-99196792D01*
X280004503Y-100801464D01*
X280004465Y-100804531D01*
X279964805Y-102408716D01*
X279964691Y-102411780D01*
X279904296Y-103632129D01*
X279881322Y-103698114D01*
X279826321Y-103741203D01*
X279780448Y-103750000D01*
X277789738Y-103750000D01*
X277722699Y-103730315D01*
X277717664Y-103726903D01*
X277677359Y-103698114D01*
X276051926Y-102537090D01*
X276008816Y-102482106D01*
X276000000Y-102436187D01*
X276000000Y-97563813D01*
X276019685Y-97496774D01*
X276051926Y-97462910D01*
X277717664Y-96273097D01*
X277783658Y-96250149D01*
X277789738Y-96250000D01*
X279780437Y-96250000D01*
X279847476Y-96269685D01*
G37*
%TD.AperFunction*%
%TD*%
%TA.AperFunction,Conductor*%
%TO.N,/EM_A_P*%
G36*
X236127501Y-62619685D02*
G01*
X236173256Y-62672489D01*
X236184462Y-62724000D01*
X236184462Y-63876000D01*
X236164777Y-63943039D01*
X236111973Y-63988794D01*
X236060462Y-64000000D01*
X234908462Y-64000000D01*
X234841423Y-63980315D01*
X234795668Y-63927511D01*
X234784462Y-63876000D01*
X234784462Y-62724000D01*
X234804147Y-62656961D01*
X234856951Y-62611206D01*
X234908462Y-62600000D01*
X236060462Y-62600000D01*
X236127501Y-62619685D01*
G37*
%TD.AperFunction*%
%TD*%
%TA.AperFunction,Conductor*%
%TO.N,GND*%
G36*
X80022618Y-35001051D02*
G01*
X81450649Y-35018205D01*
X81630223Y-35021518D01*
X81640608Y-35024777D01*
X83051856Y-35073755D01*
X83053247Y-35073806D01*
X83239113Y-35081855D01*
X83240983Y-35081953D01*
X83633621Y-35106121D01*
X83699322Y-35129886D01*
X83741746Y-35185402D01*
X83750000Y-35229886D01*
X83750000Y-37210261D01*
X83730315Y-37277300D01*
X83726903Y-37282335D01*
X82537090Y-38948074D01*
X82482106Y-38991184D01*
X82436187Y-39000000D01*
X77563813Y-39000000D01*
X77496774Y-38980315D01*
X77462910Y-38948074D01*
X76273097Y-37282335D01*
X76250149Y-37216341D01*
X76250000Y-37210261D01*
X76250000Y-35229614D01*
X76269685Y-35162575D01*
X76322489Y-35116820D01*
X76366290Y-35105854D01*
X76642677Y-35088646D01*
X76801944Y-35079710D01*
X76804125Y-35079607D01*
X78243979Y-35025657D01*
X78244445Y-35025641D01*
X78410781Y-35020447D01*
X78412990Y-35020398D01*
X79847215Y-35002153D01*
X80020631Y-35001046D01*
X80022618Y-35001051D01*
G37*
%TD.AperFunction*%
%TD*%
%TA.AperFunction,Conductor*%
%TO.N,GND*%
G36*
X17277301Y-96269685D02*
G01*
X17282336Y-96273097D01*
X18948074Y-97462910D01*
X18991184Y-97517894D01*
X19000000Y-97563813D01*
X19000000Y-102436187D01*
X18980315Y-102503226D01*
X18948074Y-102537090D01*
X17282336Y-103726903D01*
X17216342Y-103749851D01*
X17210262Y-103750000D01*
X15229531Y-103750000D01*
X15162492Y-103730315D01*
X15116737Y-103677511D01*
X15105683Y-103632131D01*
X15045296Y-102412309D01*
X15045184Y-102409273D01*
X15025352Y-101607569D01*
X15005504Y-100805256D01*
X15005468Y-100802350D01*
X15005468Y-99197842D01*
X15005506Y-99194777D01*
X15045180Y-97590843D01*
X15045294Y-97587778D01*
X15105682Y-96367866D01*
X15128657Y-96301885D01*
X15183658Y-96258797D01*
X15229530Y-96250000D01*
X17210262Y-96250000D01*
X17277301Y-96269685D01*
G37*
%TD.AperFunction*%
%TD*%
%TA.AperFunction,Conductor*%
%TO.N,GND*%
G36*
X217503226Y-161019685D02*
G01*
X217537090Y-161051926D01*
X218726903Y-162717664D01*
X218749851Y-162783658D01*
X218750000Y-162789738D01*
X218750000Y-164780370D01*
X218730315Y-164847409D01*
X218677511Y-164893164D01*
X218633707Y-164904130D01*
X218359353Y-164921215D01*
X218358594Y-164921260D01*
X218199296Y-164930200D01*
X218196992Y-164930308D01*
X216757293Y-164984270D01*
X216756521Y-164984297D01*
X216590290Y-164989490D01*
X216587997Y-164989540D01*
X215153889Y-165007802D01*
X215153103Y-165007809D01*
X214980333Y-165008914D01*
X214978052Y-165008908D01*
X213550542Y-164991779D01*
X213549744Y-164991767D01*
X213370270Y-164988458D01*
X213368002Y-164988395D01*
X211947612Y-164936199D01*
X211946803Y-164936167D01*
X211761359Y-164928139D01*
X211759106Y-164928021D01*
X211366384Y-164903854D01*
X211300680Y-164880089D01*
X211258255Y-164824574D01*
X211250000Y-164780088D01*
X211250000Y-162789738D01*
X211269685Y-162722699D01*
X211273097Y-162717664D01*
X212462910Y-161051926D01*
X212517894Y-161008816D01*
X212563813Y-161000000D01*
X217436187Y-161000000D01*
X217503226Y-161019685D01*
G37*
%TD.AperFunction*%
%TD*%
%TA.AperFunction,Conductor*%
%TO.N,/EM_C_P*%
G36*
X209092505Y-62444685D02*
G01*
X209138260Y-62497489D01*
X209149466Y-62549000D01*
X209149466Y-63701000D01*
X209129781Y-63768039D01*
X209076977Y-63813794D01*
X209025466Y-63825000D01*
X207873466Y-63825000D01*
X207806427Y-63805315D01*
X207760672Y-63752511D01*
X207749466Y-63701000D01*
X207749466Y-62549000D01*
X207769151Y-62481961D01*
X207821955Y-62436206D01*
X207873466Y-62425000D01*
X209025466Y-62425000D01*
X209092505Y-62444685D01*
G37*
%TD.AperFunction*%
%TD*%
%TA.AperFunction,Conductor*%
%TO.N,/EM_A_N*%
G36*
X226525246Y-63419685D02*
G01*
X226571001Y-63472489D01*
X226582207Y-63524000D01*
X226582207Y-64676000D01*
X226562522Y-64743039D01*
X226509718Y-64788794D01*
X226458207Y-64800000D01*
X225306207Y-64800000D01*
X225239168Y-64780315D01*
X225193413Y-64727511D01*
X225182207Y-64676000D01*
X225182207Y-63524000D01*
X225201892Y-63456961D01*
X225254696Y-63411206D01*
X225306207Y-63400000D01*
X226458207Y-63400000D01*
X226525246Y-63419685D01*
G37*
%TD.AperFunction*%
%TD*%
%TA.AperFunction,Conductor*%
%TO.N,GND*%
G36*
X82503226Y-161019685D02*
G01*
X82537090Y-161051926D01*
X83726903Y-162717664D01*
X83749851Y-162783658D01*
X83750000Y-162789738D01*
X83750000Y-164770112D01*
X83730315Y-164837151D01*
X83677511Y-164882906D01*
X83633618Y-164893878D01*
X83241293Y-164918027D01*
X83239040Y-164918145D01*
X83053628Y-164926175D01*
X83052818Y-164926207D01*
X81632628Y-164978414D01*
X81630361Y-164978477D01*
X81450957Y-164981788D01*
X81450159Y-164981800D01*
X80022879Y-164998946D01*
X80020597Y-164998952D01*
X79847711Y-164997848D01*
X79846926Y-164997841D01*
X78413169Y-164979604D01*
X78410876Y-164979554D01*
X78244586Y-164974362D01*
X78243813Y-164974335D01*
X76804343Y-164920401D01*
X76802040Y-164920293D01*
X76642969Y-164911368D01*
X76642209Y-164911323D01*
X76366294Y-164894144D01*
X76300608Y-164870332D01*
X76258223Y-164814787D01*
X76250000Y-164770384D01*
X76250000Y-162789738D01*
X76269685Y-162722699D01*
X76273097Y-162717664D01*
X77462910Y-161051926D01*
X77517894Y-161008816D01*
X77563813Y-161000000D01*
X82436187Y-161000000D01*
X82503226Y-161019685D01*
G37*
%TD.AperFunction*%
%TD*%
%TA.AperFunction,Conductor*%
%TO.N,/EM_C_N*%
G36*
X199492505Y-63308225D02*
G01*
X199538260Y-63361029D01*
X199549466Y-63412540D01*
X199549466Y-64564540D01*
X199529781Y-64631579D01*
X199476977Y-64677334D01*
X199425466Y-64688540D01*
X198273466Y-64688540D01*
X198206427Y-64668855D01*
X198160672Y-64616051D01*
X198149466Y-64564540D01*
X198149466Y-63514875D01*
X198169151Y-63447836D01*
X198185785Y-63427194D01*
X198288120Y-63324859D01*
X198349443Y-63291374D01*
X198375801Y-63288540D01*
X199425466Y-63288540D01*
X199492505Y-63308225D01*
G37*
%TD.AperFunction*%
%TD*%
%TA.AperFunction,Conductor*%
%TO.N,/EM_D_P*%
G36*
X208971105Y-78521918D02*
G01*
X209016860Y-78574722D01*
X209028066Y-78626233D01*
X209028066Y-79778233D01*
X209008381Y-79845272D01*
X208955577Y-79891027D01*
X208904066Y-79902233D01*
X207752066Y-79902233D01*
X207685027Y-79882548D01*
X207639272Y-79829744D01*
X207628066Y-79778233D01*
X207628066Y-78626233D01*
X207647751Y-78559194D01*
X207700555Y-78513439D01*
X207752066Y-78502233D01*
X208904066Y-78502233D01*
X208971105Y-78521918D01*
G37*
%TD.AperFunction*%
%TD*%
%TA.AperFunction,Conductor*%
%TO.N,+3.3V*%
G36*
X208443334Y-107459180D02*
G01*
X208487681Y-107487681D01*
X209312319Y-108312319D01*
X209345804Y-108373642D01*
X209340820Y-108443334D01*
X209312319Y-108487681D01*
X208900000Y-108899999D01*
X208900000Y-110048638D01*
X208880315Y-110115677D01*
X208863681Y-110136319D01*
X207487681Y-111512318D01*
X207426358Y-111545803D01*
X207356666Y-111540819D01*
X207312319Y-111512318D01*
X205237683Y-109437681D01*
X205204198Y-109376358D01*
X205209182Y-109306666D01*
X205237679Y-109262323D01*
X206563681Y-107936318D01*
X206625004Y-107902834D01*
X206651362Y-107900000D01*
X207900000Y-107900000D01*
X208312319Y-107487681D01*
X208373642Y-107454196D01*
X208443334Y-107459180D01*
G37*
%TD.AperFunction*%
%TD*%
%TA.AperFunction,Conductor*%
%TO.N,+5V*%
G36*
X249142919Y-117359532D02*
G01*
X249187188Y-117387961D01*
X250407538Y-118606448D01*
X250441070Y-118667744D01*
X250443924Y-118694101D01*
X250445333Y-120545287D01*
X250912318Y-121012319D01*
X250945800Y-121073644D01*
X250940812Y-121143335D01*
X250912314Y-121187677D01*
X250287681Y-121812317D01*
X250226358Y-121845802D01*
X250156666Y-121840818D01*
X250112318Y-121812317D01*
X249604975Y-121304975D01*
X249604973Y-121304974D01*
X247954302Y-121303994D01*
X247887275Y-121284270D01*
X247866630Y-121267611D01*
X247786813Y-121187677D01*
X246587810Y-119986910D01*
X246554371Y-119925563D01*
X246559407Y-119855875D01*
X246587881Y-119811609D01*
X249011902Y-117388020D01*
X249073228Y-117354541D01*
X249142919Y-117359532D01*
G37*
%TD.AperFunction*%
%TD*%
%TA.AperFunction,Conductor*%
%TO.N,GND*%
G36*
X232997884Y-66219685D02*
G01*
X233018526Y-66236319D01*
X234145888Y-67363681D01*
X234179373Y-67425004D01*
X234182207Y-67451362D01*
X234182207Y-69676000D01*
X234162522Y-69743039D01*
X234109718Y-69788794D01*
X234058207Y-69800000D01*
X230506207Y-69800000D01*
X230439168Y-69780315D01*
X230393413Y-69727511D01*
X230382207Y-69676000D01*
X230382207Y-67444893D01*
X230401892Y-67377854D01*
X230410943Y-67365516D01*
X231345026Y-66244616D01*
X231403065Y-66205718D01*
X231440285Y-66200000D01*
X232930845Y-66200000D01*
X232997884Y-66219685D01*
G37*
%TD.AperFunction*%
%TD*%
%TA.AperFunction,Conductor*%
%TO.N,+3.3V*%
G36*
X244430757Y-107851333D02*
G01*
X244475093Y-107879766D01*
X248519775Y-111915115D01*
X248553331Y-111976399D01*
X248548427Y-112046096D01*
X248519977Y-112090477D01*
X246097372Y-114518685D01*
X246036088Y-114552241D01*
X245966391Y-114547337D01*
X245921977Y-114518854D01*
X241877910Y-110481033D01*
X241844377Y-110419736D01*
X241849308Y-110350040D01*
X241877773Y-110305672D01*
X244299767Y-107879933D01*
X244361061Y-107846402D01*
X244430757Y-107851333D01*
G37*
%TD.AperFunction*%
%TD*%
%TA.AperFunction,Conductor*%
%TO.N,GND*%
G36*
X205965143Y-66044685D02*
G01*
X205985785Y-66061319D01*
X207113147Y-67188681D01*
X207146632Y-67250004D01*
X207149466Y-67276362D01*
X207149466Y-69501000D01*
X207129781Y-69568039D01*
X207076977Y-69613794D01*
X207025466Y-69625000D01*
X203473466Y-69625000D01*
X203406427Y-69605315D01*
X203360672Y-69552511D01*
X203349466Y-69501000D01*
X203349466Y-67269893D01*
X203369151Y-67202854D01*
X203378202Y-67190516D01*
X204312285Y-66069616D01*
X204370324Y-66030718D01*
X204407544Y-66025000D01*
X205898104Y-66025000D01*
X205965143Y-66044685D01*
G37*
%TD.AperFunction*%
%TD*%
%TA.AperFunction,Conductor*%
%TO.N,GND*%
G36*
X205843743Y-81921918D02*
G01*
X205864385Y-81938552D01*
X206991747Y-83065914D01*
X207025232Y-83127237D01*
X207028066Y-83153595D01*
X207028066Y-85378233D01*
X207008381Y-85445272D01*
X206955577Y-85491027D01*
X206904066Y-85502233D01*
X203352066Y-85502233D01*
X203285027Y-85482548D01*
X203239272Y-85429744D01*
X203228066Y-85378233D01*
X203228066Y-83147126D01*
X203247751Y-83080087D01*
X203256802Y-83067749D01*
X204190885Y-81946849D01*
X204248924Y-81907951D01*
X204286144Y-81902233D01*
X205776704Y-81902233D01*
X205843743Y-81921918D01*
G37*
%TD.AperFunction*%
%TD*%
%TA.AperFunction,Conductor*%
%TO.N,GND*%
G36*
X232873750Y-82236700D02*
G01*
X232894392Y-82253334D01*
X234021754Y-83380696D01*
X234055239Y-83442019D01*
X234058073Y-83468377D01*
X234058073Y-85693015D01*
X234038388Y-85760054D01*
X233985584Y-85805809D01*
X233934073Y-85817015D01*
X230382073Y-85817015D01*
X230315034Y-85797330D01*
X230269279Y-85744526D01*
X230258073Y-85693015D01*
X230258073Y-83461908D01*
X230277758Y-83394869D01*
X230286809Y-83382531D01*
X231220892Y-82261631D01*
X231278931Y-82222733D01*
X231316151Y-82217015D01*
X232806711Y-82217015D01*
X232873750Y-82236700D01*
G37*
%TD.AperFunction*%
%TD*%
%TA.AperFunction,Conductor*%
%TO.N,+3.3V*%
G36*
X93668334Y-80821367D02*
G01*
X93712681Y-80849868D01*
X99162319Y-86299506D01*
X99195804Y-86360829D01*
X99190820Y-86430521D01*
X99162319Y-86474868D01*
X98337681Y-87299506D01*
X98276358Y-87332991D01*
X98206666Y-87328007D01*
X98162319Y-87299506D01*
X92712681Y-81849868D01*
X92679196Y-81788545D01*
X92684180Y-81718853D01*
X92712681Y-81674506D01*
X93537319Y-80849868D01*
X93598642Y-80816383D01*
X93668334Y-80821367D01*
G37*
%TD.AperFunction*%
%TD*%
%TA.AperFunction,Conductor*%
%TO.N,/Electromagnet Driver/PMODE*%
G36*
X233115823Y-46847692D02*
G01*
X235087023Y-47659362D01*
X239686493Y-49553261D01*
X239740987Y-49596988D01*
X239763190Y-49663236D01*
X239754410Y-49713973D01*
X239046520Y-51483699D01*
X239003346Y-51538633D01*
X238937325Y-51561505D01*
X238884176Y-51552307D01*
X232313507Y-48846738D01*
X232259012Y-48803011D01*
X232236809Y-48736763D01*
X232245588Y-48686028D01*
X232953481Y-46916297D01*
X232996653Y-46861366D01*
X233062674Y-46838494D01*
X233115823Y-46847692D01*
G37*
%TD.AperFunction*%
%TD*%
M02*
