%TF.GenerationSoftware,KiCad,Pcbnew,10.0.0*%
%TF.CreationDate,2026-06-03T22:32:19+02:00*%
%TF.ProjectId,Maglev,4d61676c-6576-42e6-9b69-6361645f7063,rev?*%
%TF.SameCoordinates,Original*%
%TF.FileFunction,Soldermask,Top*%
%TF.FilePolarity,Negative*%
%FSLAX46Y46*%
G04 Gerber Fmt 4.6, Leading zero omitted, Abs format (unit mm)*
G04 Created by KiCad (PCBNEW 10.0.0) date 2026-06-03 22:32:19*
%MOMM*%
%LPD*%
G01*
G04 APERTURE LIST*
G04 Aperture macros list*
%AMRoundRect*
0 Rectangle with rounded corners*
0 $1 Rounding radius*
0 $2 $3 $4 $5 $6 $7 $8 $9 X,Y pos of 4 corners*
0 Add a 4 corners polygon primitive as box body*
4,1,4,$2,$3,$4,$5,$6,$7,$8,$9,$2,$3,0*
0 Add four circle primitives for the rounded corners*
1,1,$1+$1,$2,$3*
1,1,$1+$1,$4,$5*
1,1,$1+$1,$6,$7*
1,1,$1+$1,$8,$9*
0 Add four rect primitives between the rounded corners*
20,1,$1+$1,$2,$3,$4,$5,0*
20,1,$1+$1,$4,$5,$6,$7,0*
20,1,$1+$1,$6,$7,$8,$9,0*
20,1,$1+$1,$8,$9,$2,$3,0*%
%AMRotRect*
0 Rectangle, with rotation*
0 The origin of the aperture is its center*
0 $1 length*
0 $2 width*
0 $3 Rotation angle, in degrees counterclockwise*
0 Add horizontal line*
21,1,$1,$2,0,0,$3*%
G04 Aperture macros list end*
%ADD10C,0.150000*%
%ADD11C,0.000000*%
%ADD12C,0.100000*%
%ADD13C,2.000000*%
%ADD14RoundRect,0.051000X0.141421X-0.565685X0.565685X-0.141421X-0.141421X0.565685X-0.565685X0.141421X0*%
%ADD15RoundRect,0.051000X0.300520X-0.512652X0.512652X-0.300520X-0.300520X0.512652X-0.512652X0.300520X0*%
%ADD16C,0.650000*%
%ADD17C,0.500000*%
%ADD18RotRect,1.550000X1.300000X330.000000*%
%ADD19C,1.500000*%
%ADD20RotRect,1.300000X1.300000X45.000000*%
%ADD21C,1.300000*%
%ADD22C,2.004000*%
%ADD23RotRect,1.650000X1.650000X120.000000*%
%ADD24C,1.650000*%
%ADD25RotRect,0.700000X0.800000X22.500000*%
%ADD26RotRect,1.650000X1.650000X112.500000*%
%ADD27RoundRect,0.102000X-0.605000X-0.290000X0.605000X-0.290000X0.605000X0.290000X-0.605000X0.290000X0*%
%ADD28RotRect,1.550000X1.300000X300.000000*%
%ADD29RotRect,1.650000X1.650000X191.250000*%
%ADD30RotRect,0.700000X0.800000X135.000000*%
%ADD31RotRect,1.650000X1.650000X247.500000*%
%ADD32RotRect,1.300000X1.300000X135.000000*%
%ADD33C,3.200000*%
%ADD34C,3.300000*%
%ADD35RoundRect,0.190500X-0.444500X1.079500X-0.444500X-1.079500X0.444500X-1.079500X0.444500X1.079500X0*%
%ADD36RoundRect,0.190500X1.079500X0.444500X-1.079500X0.444500X-1.079500X-0.444500X1.079500X-0.444500X0*%
%ADD37RotRect,1.650000X1.650000X168.750000*%
%ADD38RoundRect,0.190500X0.444500X-1.079500X0.444500X1.079500X-0.444500X1.079500X-0.444500X-1.079500X0*%
%ADD39RoundRect,0.190500X-1.079500X-0.444500X1.079500X-0.444500X1.079500X0.444500X-1.079500X0.444500X0*%
G04 APERTURE END LIST*
D10*
X35609250Y-133413757D02*
X35373548Y-133178055D01*
X35003159Y-133548444D02*
X35710265Y-132841337D01*
X35710265Y-132841337D02*
X36046983Y-133178055D01*
X35912296Y-134390238D02*
X35811281Y-134356566D01*
X35811281Y-134356566D02*
X35676594Y-134221879D01*
X35676594Y-134221879D02*
X35642922Y-134120864D01*
X35642922Y-134120864D02*
X35676594Y-134019849D01*
X35676594Y-134019849D02*
X35945968Y-133750475D01*
X35945968Y-133750475D02*
X36046983Y-133716803D01*
X36046983Y-133716803D02*
X36147998Y-133750475D01*
X36147998Y-133750475D02*
X36282685Y-133885162D01*
X36282685Y-133885162D02*
X36316357Y-133986177D01*
X36316357Y-133986177D02*
X36282685Y-134087192D01*
X36282685Y-134087192D02*
X36215342Y-134154536D01*
X36215342Y-134154536D02*
X35811281Y-133885162D01*
X36316357Y-134861642D02*
X36282685Y-134760627D01*
X36282685Y-134760627D02*
X36316357Y-134659612D01*
X36316357Y-134659612D02*
X36922449Y-134053520D01*
X36585732Y-135131017D02*
X37057136Y-134659612D01*
X37292838Y-134423910D02*
X37225495Y-134423910D01*
X37225495Y-134423910D02*
X37225495Y-134491253D01*
X37225495Y-134491253D02*
X37292838Y-134491253D01*
X37292838Y-134491253D02*
X37292838Y-134423910D01*
X37292838Y-134423910D02*
X37225495Y-134491253D01*
X36855105Y-135400390D02*
X37696899Y-135299375D01*
X37326510Y-134928986D02*
X37225494Y-135770780D01*
X38639708Y-136444215D02*
X38707052Y-136578902D01*
X38707052Y-136578902D02*
X38707052Y-136646246D01*
X38707052Y-136646246D02*
X38673380Y-136747261D01*
X38673380Y-136747261D02*
X38572365Y-136848276D01*
X38572365Y-136848276D02*
X38471350Y-136881948D01*
X38471350Y-136881948D02*
X38404006Y-136881948D01*
X38404006Y-136881948D02*
X38302991Y-136848276D01*
X38302991Y-136848276D02*
X38033617Y-136578902D01*
X38033617Y-136578902D02*
X38740724Y-135871795D01*
X38740724Y-135871795D02*
X38976426Y-136107498D01*
X38976426Y-136107498D02*
X39010098Y-136208513D01*
X39010098Y-136208513D02*
X39010098Y-136275856D01*
X39010098Y-136275856D02*
X38976426Y-136376872D01*
X38976426Y-136376872D02*
X38909082Y-136444215D01*
X38909082Y-136444215D02*
X38808067Y-136477887D01*
X38808067Y-136477887D02*
X38740724Y-136477887D01*
X38740724Y-136477887D02*
X38639708Y-136444215D01*
X38639708Y-136444215D02*
X38404006Y-136208513D01*
X39043769Y-137589055D02*
X39414159Y-137218665D01*
X39414159Y-137218665D02*
X39447830Y-137117650D01*
X39447830Y-137117650D02*
X39414159Y-137016635D01*
X39414159Y-137016635D02*
X39279472Y-136881948D01*
X39279472Y-136881948D02*
X39178456Y-136848276D01*
X39077441Y-137555383D02*
X38976426Y-137521711D01*
X38976426Y-137521711D02*
X38808067Y-137353352D01*
X38808067Y-137353352D02*
X38774395Y-137252337D01*
X38774395Y-137252337D02*
X38808067Y-137151322D01*
X38808067Y-137151322D02*
X38875411Y-137083978D01*
X38875411Y-137083978D02*
X38976426Y-137050307D01*
X38976426Y-137050307D02*
X39077441Y-137083978D01*
X39077441Y-137083978D02*
X39245800Y-137252337D01*
X39245800Y-137252337D02*
X39346815Y-137286009D01*
X39683533Y-138161474D02*
X39582517Y-138127803D01*
X39582517Y-138127803D02*
X39447830Y-137993116D01*
X39447830Y-137993116D02*
X39414159Y-137892100D01*
X39414159Y-137892100D02*
X39447830Y-137791085D01*
X39447830Y-137791085D02*
X39717204Y-137521711D01*
X39717204Y-137521711D02*
X39818220Y-137488039D01*
X39818220Y-137488039D02*
X39919235Y-137521711D01*
X39919235Y-137521711D02*
X40053922Y-137656398D01*
X40053922Y-137656398D02*
X40087594Y-137757413D01*
X40087594Y-137757413D02*
X40053922Y-137858429D01*
X40053922Y-137858429D02*
X39986578Y-137925772D01*
X39986578Y-137925772D02*
X39582517Y-137656398D01*
X40323296Y-138801238D02*
X40222281Y-138767566D01*
X40222281Y-138767566D02*
X40087594Y-138632879D01*
X40087594Y-138632879D02*
X40053922Y-138531864D01*
X40053922Y-138531864D02*
X40053922Y-138464520D01*
X40053922Y-138464520D02*
X40087594Y-138363505D01*
X40087594Y-138363505D02*
X40289624Y-138161475D01*
X40289624Y-138161475D02*
X40390640Y-138127803D01*
X40390640Y-138127803D02*
X40457983Y-138127803D01*
X40457983Y-138127803D02*
X40558998Y-138161475D01*
X40558998Y-138161475D02*
X40693685Y-138296162D01*
X40693685Y-138296162D02*
X40727357Y-138397177D01*
X40592670Y-139137955D02*
X41299777Y-138430849D01*
X40895716Y-139441001D02*
X41266105Y-139070612D01*
X41266105Y-139070612D02*
X41299777Y-138969597D01*
X41299777Y-138969597D02*
X41266105Y-138868581D01*
X41266105Y-138868581D02*
X41165090Y-138767566D01*
X41165090Y-138767566D02*
X41064075Y-138733894D01*
X41064075Y-138733894D02*
X40996731Y-138733894D01*
X41333449Y-139878734D02*
X41299777Y-139777719D01*
X41299777Y-139777719D02*
X41333449Y-139676704D01*
X41333449Y-139676704D02*
X41939540Y-139070612D01*
X41905869Y-140383811D02*
X41804854Y-140350139D01*
X41804854Y-140350139D02*
X41670167Y-140215452D01*
X41670167Y-140215452D02*
X41636495Y-140114437D01*
X41636495Y-140114437D02*
X41670167Y-140013421D01*
X41670167Y-140013421D02*
X41939541Y-139744047D01*
X41939541Y-139744047D02*
X42040556Y-139710376D01*
X42040556Y-139710376D02*
X42141571Y-139744047D01*
X42141571Y-139744047D02*
X42276258Y-139878734D01*
X42276258Y-139878734D02*
X42309930Y-139979750D01*
X42309930Y-139979750D02*
X42276258Y-140080765D01*
X42276258Y-140080765D02*
X42208915Y-140148108D01*
X42208915Y-140148108D02*
X41804854Y-139878734D01*
X43387426Y-140518498D02*
X43825159Y-140956231D01*
X43825159Y-140956231D02*
X43320083Y-140989902D01*
X43320083Y-140989902D02*
X43421098Y-141090918D01*
X43421098Y-141090918D02*
X43454770Y-141191933D01*
X43454770Y-141191933D02*
X43454770Y-141259276D01*
X43454770Y-141259276D02*
X43421098Y-141360292D01*
X43421098Y-141360292D02*
X43252739Y-141528650D01*
X43252739Y-141528650D02*
X43151724Y-141562322D01*
X43151724Y-141562322D02*
X43084380Y-141562322D01*
X43084380Y-141562322D02*
X42983365Y-141528650D01*
X42983365Y-141528650D02*
X42781335Y-141326620D01*
X42781335Y-141326620D02*
X42747663Y-141225605D01*
X42747663Y-141225605D02*
X42747663Y-141158261D01*
X43791487Y-142336773D02*
X43387426Y-141932712D01*
X43589457Y-142134742D02*
X44296564Y-141427635D01*
X44296564Y-141427635D02*
X44128205Y-141461307D01*
X44128205Y-141461307D02*
X43993518Y-141461307D01*
X43993518Y-141461307D02*
X43892503Y-141427635D01*
X44936327Y-142067399D02*
X45003670Y-142134742D01*
X45003670Y-142134742D02*
X45037342Y-142235757D01*
X45037342Y-142235757D02*
X45037342Y-142303101D01*
X45037342Y-142303101D02*
X45003670Y-142404116D01*
X45003670Y-142404116D02*
X44902655Y-142572475D01*
X44902655Y-142572475D02*
X44734296Y-142740834D01*
X44734296Y-142740834D02*
X44565938Y-142841849D01*
X44565938Y-142841849D02*
X44464922Y-142875521D01*
X44464922Y-142875521D02*
X44397579Y-142875521D01*
X44397579Y-142875521D02*
X44296564Y-142841849D01*
X44296564Y-142841849D02*
X44229220Y-142774505D01*
X44229220Y-142774505D02*
X44195548Y-142673490D01*
X44195548Y-142673490D02*
X44195548Y-142606147D01*
X44195548Y-142606147D02*
X44229220Y-142505131D01*
X44229220Y-142505131D02*
X44330235Y-142336773D01*
X44330235Y-142336773D02*
X44498594Y-142168414D01*
X44498594Y-142168414D02*
X44666953Y-142067399D01*
X44666953Y-142067399D02*
X44767968Y-142033727D01*
X44767968Y-142033727D02*
X44835312Y-142033727D01*
X44835312Y-142033727D02*
X44936327Y-142067399D01*
X45407731Y-142538803D02*
X45845464Y-142976536D01*
X45845464Y-142976536D02*
X45340388Y-143010208D01*
X45340388Y-143010208D02*
X45441403Y-143111223D01*
X45441403Y-143111223D02*
X45475075Y-143212238D01*
X45475075Y-143212238D02*
X45475075Y-143279582D01*
X45475075Y-143279582D02*
X45441403Y-143380597D01*
X45441403Y-143380597D02*
X45273044Y-143548956D01*
X45273044Y-143548956D02*
X45172029Y-143582627D01*
X45172029Y-143582627D02*
X45104686Y-143582627D01*
X45104686Y-143582627D02*
X45003670Y-143548956D01*
X45003670Y-143548956D02*
X44801640Y-143346925D01*
X44801640Y-143346925D02*
X44767968Y-143245910D01*
X44767968Y-143245910D02*
X44767968Y-143178566D01*
X45811792Y-144357078D02*
X45407731Y-143953017D01*
X45609762Y-144155047D02*
X46316869Y-143447940D01*
X46316869Y-143447940D02*
X46148510Y-143481612D01*
X46148510Y-143481612D02*
X46013823Y-143481612D01*
X46013823Y-143481612D02*
X45912808Y-143447940D01*
X46720930Y-143986688D02*
X46788273Y-143986688D01*
X46788273Y-143986688D02*
X46889289Y-144020360D01*
X46889289Y-144020360D02*
X47057647Y-144188719D01*
X47057647Y-144188719D02*
X47091319Y-144289734D01*
X47091319Y-144289734D02*
X47091319Y-144357078D01*
X47091319Y-144357078D02*
X47057647Y-144458093D01*
X47057647Y-144458093D02*
X46990304Y-144525437D01*
X46990304Y-144525437D02*
X46855617Y-144592780D01*
X46855617Y-144592780D02*
X46047495Y-144592780D01*
X46047495Y-144592780D02*
X46485228Y-145030513D01*
X35245298Y-136067387D02*
X34908581Y-135730670D01*
X34908581Y-135730670D02*
X35615687Y-135023563D01*
X36255451Y-136134731D02*
X35784046Y-136606136D01*
X35952405Y-135831685D02*
X35582016Y-136202075D01*
X35582016Y-136202075D02*
X35548344Y-136303090D01*
X35548344Y-136303090D02*
X35582016Y-136404105D01*
X35582016Y-136404105D02*
X35683031Y-136505120D01*
X35683031Y-136505120D02*
X35784046Y-136538792D01*
X35784046Y-136538792D02*
X35851390Y-136538792D01*
X36457481Y-137212227D02*
X36356466Y-137178555D01*
X36356466Y-137178555D02*
X36221779Y-137043868D01*
X36221779Y-137043868D02*
X36188107Y-136942853D01*
X36188107Y-136942853D02*
X36188107Y-136875510D01*
X36188107Y-136875510D02*
X36221779Y-136774494D01*
X36221779Y-136774494D02*
X36423810Y-136572464D01*
X36423810Y-136572464D02*
X36524825Y-136538792D01*
X36524825Y-136538792D02*
X36592168Y-136538792D01*
X36592168Y-136538792D02*
X36693184Y-136572464D01*
X36693184Y-136572464D02*
X36827871Y-136707151D01*
X36827871Y-136707151D02*
X36861542Y-136808166D01*
X37029901Y-137851991D02*
X37400291Y-137481601D01*
X37400291Y-137481601D02*
X37433962Y-137380586D01*
X37433962Y-137380586D02*
X37400291Y-137279571D01*
X37400291Y-137279571D02*
X37265604Y-137144884D01*
X37265604Y-137144884D02*
X37164588Y-137111212D01*
X37063573Y-137818319D02*
X36962558Y-137784647D01*
X36962558Y-137784647D02*
X36794199Y-137616288D01*
X36794199Y-137616288D02*
X36760527Y-137515273D01*
X36760527Y-137515273D02*
X36794199Y-137414258D01*
X36794199Y-137414258D02*
X36861542Y-137346914D01*
X36861542Y-137346914D02*
X36962558Y-137313242D01*
X36962558Y-137313242D02*
X37063573Y-137346914D01*
X37063573Y-137346914D02*
X37231932Y-137515273D01*
X37231932Y-137515273D02*
X37332947Y-137548945D01*
X37905367Y-138727456D02*
X38612474Y-138020350D01*
X38612474Y-138020350D02*
X38780833Y-138188708D01*
X38780833Y-138188708D02*
X38848176Y-138323395D01*
X38848176Y-138323395D02*
X38848176Y-138458082D01*
X38848176Y-138458082D02*
X38814504Y-138559098D01*
X38814504Y-138559098D02*
X38713489Y-138727456D01*
X38713489Y-138727456D02*
X38612474Y-138828472D01*
X38612474Y-138828472D02*
X38444115Y-138929487D01*
X38444115Y-138929487D02*
X38343100Y-138963159D01*
X38343100Y-138963159D02*
X38208413Y-138963159D01*
X38208413Y-138963159D02*
X38073726Y-138895815D01*
X38073726Y-138895815D02*
X37905367Y-138727456D01*
X38915520Y-139670265D02*
X38814504Y-139636594D01*
X38814504Y-139636594D02*
X38679817Y-139501907D01*
X38679817Y-139501907D02*
X38646146Y-139400891D01*
X38646146Y-139400891D02*
X38679817Y-139299876D01*
X38679817Y-139299876D02*
X38949191Y-139030502D01*
X38949191Y-139030502D02*
X39050207Y-138996830D01*
X39050207Y-138996830D02*
X39151222Y-139030502D01*
X39151222Y-139030502D02*
X39285909Y-139165189D01*
X39285909Y-139165189D02*
X39319581Y-139266204D01*
X39319581Y-139266204D02*
X39285909Y-139367220D01*
X39285909Y-139367220D02*
X39218565Y-139434563D01*
X39218565Y-139434563D02*
X38814504Y-139165189D01*
X39689970Y-139569250D02*
X39218565Y-140040655D01*
X39622626Y-139636594D02*
X39689970Y-139636594D01*
X39689970Y-139636594D02*
X39790985Y-139670265D01*
X39790985Y-139670265D02*
X39892000Y-139771281D01*
X39892000Y-139771281D02*
X39925672Y-139872296D01*
X39925672Y-139872296D02*
X39892000Y-139973311D01*
X39892000Y-139973311D02*
X39521611Y-140343700D01*
X40262390Y-140141670D02*
X40632779Y-140512059D01*
X40632779Y-140512059D02*
X39790985Y-140613075D01*
X39790985Y-140613075D02*
X40161375Y-140983464D01*
X40902153Y-141724243D02*
X41743947Y-141623227D01*
X41373558Y-141252838D02*
X41272543Y-142094632D01*
X41474573Y-142296663D02*
X42316367Y-142195647D01*
X41945978Y-141825258D02*
X41844963Y-142667052D01*
X42754100Y-142161976D02*
X42518398Y-143340487D01*
X43225504Y-142633380D02*
X42046993Y-142869082D01*
X43427535Y-142835411D02*
X43191833Y-144013922D01*
X43898940Y-143306815D02*
X42720428Y-143542518D01*
X43393863Y-144215953D02*
X44235657Y-144114937D01*
X43865268Y-143744548D02*
X43764253Y-144586342D01*
X43966283Y-144788372D02*
X44808077Y-144687357D01*
X44437688Y-144316968D02*
X44336673Y-145158762D01*
X31328977Y-134427870D02*
X32036083Y-133720763D01*
X32036083Y-133720763D02*
X32305457Y-133990137D01*
X32305457Y-133990137D02*
X32339129Y-134091152D01*
X32339129Y-134091152D02*
X32339129Y-134158496D01*
X32339129Y-134158496D02*
X32305457Y-134259511D01*
X32305457Y-134259511D02*
X32204442Y-134360526D01*
X32204442Y-134360526D02*
X32103427Y-134394198D01*
X32103427Y-134394198D02*
X32036083Y-134394198D01*
X32036083Y-134394198D02*
X31935068Y-134360526D01*
X31935068Y-134360526D02*
X31665694Y-134091152D01*
X32036083Y-135134977D02*
X32507488Y-134663572D01*
X32372801Y-134798259D02*
X32473816Y-134764587D01*
X32473816Y-134764587D02*
X32541160Y-134764587D01*
X32541160Y-134764587D02*
X32642175Y-134798259D01*
X32642175Y-134798259D02*
X32709518Y-134865603D01*
X32574832Y-135673725D02*
X32541160Y-135572710D01*
X32541160Y-135572710D02*
X32541160Y-135505366D01*
X32541160Y-135505366D02*
X32574832Y-135404351D01*
X32574832Y-135404351D02*
X32776862Y-135202320D01*
X32776862Y-135202320D02*
X32877877Y-135168649D01*
X32877877Y-135168649D02*
X32945221Y-135168649D01*
X32945221Y-135168649D02*
X33046236Y-135202320D01*
X33046236Y-135202320D02*
X33147251Y-135303336D01*
X33147251Y-135303336D02*
X33180923Y-135404351D01*
X33180923Y-135404351D02*
X33180923Y-135471694D01*
X33180923Y-135471694D02*
X33147251Y-135572710D01*
X33147251Y-135572710D02*
X32945221Y-135774740D01*
X32945221Y-135774740D02*
X32844206Y-135808412D01*
X32844206Y-135808412D02*
X32776862Y-135808412D01*
X32776862Y-135808412D02*
X32675847Y-135774740D01*
X32675847Y-135774740D02*
X32574832Y-135673725D01*
X33584984Y-135741068D02*
X32978893Y-136347160D01*
X32978893Y-136347160D02*
X32877877Y-136380832D01*
X32877877Y-136380832D02*
X32776862Y-136347160D01*
X32776862Y-136347160D02*
X32743190Y-136313488D01*
X33820687Y-135505366D02*
X33753343Y-135505366D01*
X33753343Y-135505366D02*
X33753343Y-135572710D01*
X33753343Y-135572710D02*
X33820687Y-135572710D01*
X33820687Y-135572710D02*
X33820687Y-135505366D01*
X33820687Y-135505366D02*
X33753343Y-135572710D01*
X33753343Y-136784892D02*
X33652327Y-136751221D01*
X33652327Y-136751221D02*
X33517640Y-136616534D01*
X33517640Y-136616534D02*
X33483969Y-136515518D01*
X33483969Y-136515518D02*
X33517640Y-136414503D01*
X33517640Y-136414503D02*
X33787014Y-136145129D01*
X33787014Y-136145129D02*
X33888030Y-136111457D01*
X33888030Y-136111457D02*
X33989045Y-136145129D01*
X33989045Y-136145129D02*
X34123732Y-136279816D01*
X34123732Y-136279816D02*
X34157404Y-136380831D01*
X34157404Y-136380831D02*
X34123732Y-136481847D01*
X34123732Y-136481847D02*
X34056388Y-136549190D01*
X34056388Y-136549190D02*
X33652327Y-136279816D01*
X34393106Y-137424656D02*
X34292091Y-137390984D01*
X34292091Y-137390984D02*
X34157404Y-137256297D01*
X34157404Y-137256297D02*
X34123732Y-137155282D01*
X34123732Y-137155282D02*
X34123732Y-137087938D01*
X34123732Y-137087938D02*
X34157404Y-136986923D01*
X34157404Y-136986923D02*
X34359434Y-136784893D01*
X34359434Y-136784893D02*
X34460450Y-136751221D01*
X34460450Y-136751221D02*
X34527793Y-136751221D01*
X34527793Y-136751221D02*
X34628808Y-136784893D01*
X34628808Y-136784893D02*
X34763495Y-136919580D01*
X34763495Y-136919580D02*
X34797167Y-137020595D01*
X35032869Y-137188954D02*
X35302243Y-137458328D01*
X35369587Y-137054267D02*
X34763495Y-137660358D01*
X34763495Y-137660358D02*
X34729824Y-137761373D01*
X34729824Y-137761373D02*
X34763495Y-137862389D01*
X34763495Y-137862389D02*
X34830839Y-137929732D01*
X35470603Y-137626687D02*
X35133885Y-138232778D01*
X35133885Y-138232778D02*
X35605290Y-138030748D01*
X35605290Y-138030748D02*
X35403259Y-138502152D01*
X35403259Y-138502152D02*
X36009351Y-138165435D01*
X35908335Y-139007229D02*
X35874664Y-138906213D01*
X35874664Y-138906213D02*
X35874664Y-138838870D01*
X35874664Y-138838870D02*
X35908335Y-138737855D01*
X35908335Y-138737855D02*
X36110366Y-138535824D01*
X36110366Y-138535824D02*
X36211381Y-138502152D01*
X36211381Y-138502152D02*
X36278725Y-138502152D01*
X36278725Y-138502152D02*
X36379740Y-138535824D01*
X36379740Y-138535824D02*
X36480755Y-138636839D01*
X36480755Y-138636839D02*
X36514427Y-138737855D01*
X36514427Y-138737855D02*
X36514427Y-138805198D01*
X36514427Y-138805198D02*
X36480755Y-138906213D01*
X36480755Y-138906213D02*
X36278725Y-139108244D01*
X36278725Y-139108244D02*
X36177709Y-139141916D01*
X36177709Y-139141916D02*
X36110366Y-139141916D01*
X36110366Y-139141916D02*
X36009351Y-139108244D01*
X36009351Y-139108244D02*
X35908335Y-139007229D01*
X36447083Y-139545977D02*
X36918488Y-139074572D01*
X36783801Y-139209259D02*
X36884816Y-139175587D01*
X36884816Y-139175587D02*
X36952160Y-139175587D01*
X36952160Y-139175587D02*
X37053175Y-139209259D01*
X37053175Y-139209259D02*
X37120518Y-139276603D01*
X36884816Y-139983710D02*
X37591923Y-139276603D01*
X37221534Y-139781679D02*
X37154190Y-140253084D01*
X37625595Y-139781679D02*
X37086847Y-139781679D01*
X37995984Y-141094878D02*
X38703091Y-140387771D01*
X38366374Y-140724488D02*
X38770435Y-141128550D01*
X38400046Y-141498939D02*
X39107152Y-140791832D01*
X39342855Y-141027534D02*
X39746916Y-141431595D01*
X38837778Y-141936672D02*
X39544885Y-141229565D01*
X39915274Y-141599954D02*
X39376526Y-142475420D01*
X39376526Y-142475420D02*
X40016290Y-142105030D01*
X40016290Y-142105030D02*
X39645900Y-142744794D01*
X39645900Y-142744794D02*
X40521366Y-142206046D01*
X41127457Y-142879481D02*
X41093786Y-142778465D01*
X41093786Y-142778465D02*
X40992770Y-142677450D01*
X40992770Y-142677450D02*
X40858083Y-142610107D01*
X40858083Y-142610107D02*
X40723396Y-142610107D01*
X40723396Y-142610107D02*
X40622381Y-142643778D01*
X40622381Y-142643778D02*
X40454022Y-142744794D01*
X40454022Y-142744794D02*
X40353007Y-142845809D01*
X40353007Y-142845809D02*
X40251992Y-143014168D01*
X40251992Y-143014168D02*
X40218320Y-143115183D01*
X40218320Y-143115183D02*
X40218320Y-143249870D01*
X40218320Y-143249870D02*
X40285664Y-143384557D01*
X40285664Y-143384557D02*
X40353007Y-143451900D01*
X40353007Y-143451900D02*
X40487694Y-143519244D01*
X40487694Y-143519244D02*
X40555038Y-143519244D01*
X40555038Y-143519244D02*
X40790740Y-143283542D01*
X40790740Y-143283542D02*
X40656053Y-143148855D01*
X41329488Y-144361038D02*
X41396832Y-144495725D01*
X41396832Y-144495725D02*
X41565190Y-144664084D01*
X41565190Y-144664084D02*
X41666206Y-144697755D01*
X41666206Y-144697755D02*
X41733549Y-144697755D01*
X41733549Y-144697755D02*
X41834564Y-144664084D01*
X41834564Y-144664084D02*
X41901908Y-144596740D01*
X41901908Y-144596740D02*
X41935580Y-144495725D01*
X41935580Y-144495725D02*
X41935580Y-144428381D01*
X41935580Y-144428381D02*
X41901908Y-144327366D01*
X41901908Y-144327366D02*
X41800893Y-144159007D01*
X41800893Y-144159007D02*
X41767221Y-144057992D01*
X41767221Y-144057992D02*
X41767221Y-143990649D01*
X41767221Y-143990649D02*
X41800893Y-143889633D01*
X41800893Y-143889633D02*
X41868236Y-143822290D01*
X41868236Y-143822290D02*
X41969251Y-143788618D01*
X41969251Y-143788618D02*
X42036595Y-143788618D01*
X42036595Y-143788618D02*
X42137610Y-143822290D01*
X42137610Y-143822290D02*
X42305969Y-143990649D01*
X42305969Y-143990649D02*
X42373312Y-144125336D01*
X42002923Y-145034473D02*
X42070267Y-145169160D01*
X42070267Y-145169160D02*
X42238625Y-145337519D01*
X42238625Y-145337519D02*
X42339641Y-145371190D01*
X42339641Y-145371190D02*
X42406984Y-145371190D01*
X42406984Y-145371190D02*
X42507999Y-145337519D01*
X42507999Y-145337519D02*
X42575343Y-145270175D01*
X42575343Y-145270175D02*
X42609015Y-145169160D01*
X42609015Y-145169160D02*
X42609015Y-145101816D01*
X42609015Y-145101816D02*
X42575343Y-145000801D01*
X42575343Y-145000801D02*
X42474328Y-144832442D01*
X42474328Y-144832442D02*
X42440656Y-144731427D01*
X42440656Y-144731427D02*
X42440656Y-144664084D01*
X42440656Y-144664084D02*
X42474328Y-144563068D01*
X42474328Y-144563068D02*
X42541671Y-144495725D01*
X42541671Y-144495725D02*
X42642686Y-144462053D01*
X42642686Y-144462053D02*
X42710030Y-144462053D01*
X42710030Y-144462053D02*
X42811045Y-144495725D01*
X42811045Y-144495725D02*
X42979404Y-144664084D01*
X42979404Y-144664084D02*
X43046747Y-144798771D01*
X43282450Y-145101816D02*
X43349793Y-145101816D01*
X43349793Y-145101816D02*
X43450809Y-145135488D01*
X43450809Y-145135488D02*
X43619167Y-145303847D01*
X43619167Y-145303847D02*
X43652839Y-145404862D01*
X43652839Y-145404862D02*
X43652839Y-145472206D01*
X43652839Y-145472206D02*
X43619167Y-145573221D01*
X43619167Y-145573221D02*
X43551824Y-145640564D01*
X43551824Y-145640564D02*
X43417137Y-145707908D01*
X43417137Y-145707908D02*
X42609015Y-145707908D01*
X42609015Y-145707908D02*
X43046747Y-146145641D01*
X44191587Y-145876267D02*
X44258931Y-145943610D01*
X44258931Y-145943610D02*
X44292602Y-146044626D01*
X44292602Y-146044626D02*
X44292602Y-146111969D01*
X44292602Y-146111969D02*
X44258931Y-146212984D01*
X44258931Y-146212984D02*
X44157915Y-146381343D01*
X44157915Y-146381343D02*
X43989557Y-146549702D01*
X43989557Y-146549702D02*
X43821198Y-146650717D01*
X43821198Y-146650717D02*
X43720183Y-146684389D01*
X43720183Y-146684389D02*
X43652839Y-146684389D01*
X43652839Y-146684389D02*
X43551824Y-146650717D01*
X43551824Y-146650717D02*
X43484480Y-146583374D01*
X43484480Y-146583374D02*
X43450809Y-146482358D01*
X43450809Y-146482358D02*
X43450809Y-146415015D01*
X43450809Y-146415015D02*
X43484480Y-146314000D01*
X43484480Y-146314000D02*
X43585496Y-146145641D01*
X43585496Y-146145641D02*
X43753854Y-145977282D01*
X43753854Y-145977282D02*
X43922213Y-145876267D01*
X43922213Y-145876267D02*
X44023228Y-145842595D01*
X44023228Y-145842595D02*
X44090572Y-145842595D01*
X44090572Y-145842595D02*
X44191587Y-145876267D01*
X44629320Y-146448687D02*
X44696663Y-146448687D01*
X44696663Y-146448687D02*
X44797679Y-146482358D01*
X44797679Y-146482358D02*
X44966037Y-146650717D01*
X44966037Y-146650717D02*
X44999709Y-146751732D01*
X44999709Y-146751732D02*
X44999709Y-146819076D01*
X44999709Y-146819076D02*
X44966037Y-146920091D01*
X44966037Y-146920091D02*
X44898694Y-146987435D01*
X44898694Y-146987435D02*
X44764007Y-147054778D01*
X44764007Y-147054778D02*
X43955885Y-147054778D01*
X43955885Y-147054778D02*
X44393618Y-147492511D01*
X45706816Y-147391496D02*
X45572129Y-147256809D01*
X45572129Y-147256809D02*
X45471114Y-147223137D01*
X45471114Y-147223137D02*
X45403770Y-147223137D01*
X45403770Y-147223137D02*
X45235411Y-147256809D01*
X45235411Y-147256809D02*
X45067053Y-147357824D01*
X45067053Y-147357824D02*
X44797679Y-147627198D01*
X44797679Y-147627198D02*
X44764007Y-147728213D01*
X44764007Y-147728213D02*
X44764007Y-147795557D01*
X44764007Y-147795557D02*
X44797679Y-147896572D01*
X44797679Y-147896572D02*
X44932366Y-148031259D01*
X44932366Y-148031259D02*
X45033381Y-148064931D01*
X45033381Y-148064931D02*
X45100724Y-148064931D01*
X45100724Y-148064931D02*
X45201740Y-148031259D01*
X45201740Y-148031259D02*
X45370098Y-147862900D01*
X45370098Y-147862900D02*
X45403770Y-147761885D01*
X45403770Y-147761885D02*
X45403770Y-147694541D01*
X45403770Y-147694541D02*
X45370098Y-147593526D01*
X45370098Y-147593526D02*
X45235411Y-147458839D01*
X45235411Y-147458839D02*
X45134396Y-147425167D01*
X45134396Y-147425167D02*
X45067053Y-147425167D01*
X45067053Y-147425167D02*
X44966037Y-147458839D01*
X31587952Y-136963650D02*
X31958342Y-136593260D01*
X31958342Y-136593260D02*
X31992013Y-136492245D01*
X31992013Y-136492245D02*
X31958342Y-136391230D01*
X31958342Y-136391230D02*
X31823654Y-136256543D01*
X31823654Y-136256543D02*
X31722639Y-136222871D01*
X31621624Y-136929978D02*
X31520609Y-136896306D01*
X31520609Y-136896306D02*
X31352250Y-136727947D01*
X31352250Y-136727947D02*
X31318578Y-136626932D01*
X31318578Y-136626932D02*
X31352250Y-136525917D01*
X31352250Y-136525917D02*
X31419593Y-136458573D01*
X31419593Y-136458573D02*
X31520609Y-136424901D01*
X31520609Y-136424901D02*
X31621624Y-136458573D01*
X31621624Y-136458573D02*
X31789983Y-136626932D01*
X31789983Y-136626932D02*
X31890998Y-136660604D01*
X31924670Y-137233024D02*
X31958342Y-137334039D01*
X31958342Y-137334039D02*
X32093029Y-137468726D01*
X32093029Y-137468726D02*
X32194044Y-137502398D01*
X32194044Y-137502398D02*
X32295059Y-137468726D01*
X32295059Y-137468726D02*
X32328731Y-137435054D01*
X32328731Y-137435054D02*
X32362403Y-137334039D01*
X32362403Y-137334039D02*
X32328731Y-137233024D01*
X32328731Y-137233024D02*
X32227716Y-137132008D01*
X32227716Y-137132008D02*
X32194044Y-137030993D01*
X32194044Y-137030993D02*
X32227716Y-136929978D01*
X32227716Y-136929978D02*
X32261387Y-136896306D01*
X32261387Y-136896306D02*
X32362403Y-136862634D01*
X32362403Y-136862634D02*
X32463418Y-136896306D01*
X32463418Y-136896306D02*
X32564433Y-136997321D01*
X32564433Y-136997321D02*
X32598105Y-137098337D01*
X32497090Y-137805443D02*
X32530761Y-137906459D01*
X32530761Y-137906459D02*
X32665448Y-138041146D01*
X32665448Y-138041146D02*
X32766464Y-138074818D01*
X32766464Y-138074818D02*
X32867479Y-138041146D01*
X32867479Y-138041146D02*
X32901151Y-138007474D01*
X32901151Y-138007474D02*
X32934823Y-137906459D01*
X32934823Y-137906459D02*
X32901151Y-137805443D01*
X32901151Y-137805443D02*
X32800135Y-137704428D01*
X32800135Y-137704428D02*
X32766464Y-137603413D01*
X32766464Y-137603413D02*
X32800135Y-137502398D01*
X32800135Y-137502398D02*
X32833807Y-137468726D01*
X32833807Y-137468726D02*
X32934823Y-137435054D01*
X32934823Y-137435054D02*
X33035838Y-137468726D01*
X33035838Y-137468726D02*
X33136853Y-137569741D01*
X33136853Y-137569741D02*
X33170525Y-137670756D01*
X33069510Y-138445207D02*
X33540914Y-137973802D01*
X33776616Y-137738100D02*
X33709273Y-137738100D01*
X33709273Y-137738100D02*
X33709273Y-137805444D01*
X33709273Y-137805444D02*
X33776616Y-137805444D01*
X33776616Y-137805444D02*
X33776616Y-137738100D01*
X33776616Y-137738100D02*
X33709273Y-137805444D01*
X33406227Y-138714581D02*
X33439899Y-138815596D01*
X33439899Y-138815596D02*
X33574586Y-138950283D01*
X33574586Y-138950283D02*
X33675601Y-138983955D01*
X33675601Y-138983955D02*
X33776616Y-138950283D01*
X33776616Y-138950283D02*
X33810288Y-138916611D01*
X33810288Y-138916611D02*
X33843960Y-138815596D01*
X33843960Y-138815596D02*
X33810288Y-138714581D01*
X33810288Y-138714581D02*
X33709273Y-138613565D01*
X33709273Y-138613565D02*
X33675601Y-138512550D01*
X33675601Y-138512550D02*
X33709273Y-138411535D01*
X33709273Y-138411535D02*
X33742944Y-138377863D01*
X33742944Y-138377863D02*
X33843960Y-138344191D01*
X33843960Y-138344191D02*
X33944975Y-138377863D01*
X33944975Y-138377863D02*
X34045990Y-138478878D01*
X34045990Y-138478878D02*
X34079662Y-138579894D01*
X34349036Y-138781924D02*
X34618410Y-139051298D01*
X34685754Y-138647237D02*
X34079662Y-139253329D01*
X34079662Y-139253329D02*
X34045990Y-139354344D01*
X34045990Y-139354344D02*
X34079662Y-139455359D01*
X34079662Y-139455359D02*
X34147005Y-139522703D01*
X34685754Y-139994108D02*
X34584739Y-139960436D01*
X34584739Y-139960436D02*
X34450052Y-139825749D01*
X34450052Y-139825749D02*
X34416380Y-139724734D01*
X34416380Y-139724734D02*
X34450052Y-139623718D01*
X34450052Y-139623718D02*
X34719426Y-139354344D01*
X34719426Y-139354344D02*
X34820441Y-139320673D01*
X34820441Y-139320673D02*
X34921456Y-139354344D01*
X34921456Y-139354344D02*
X35056143Y-139489031D01*
X35056143Y-139489031D02*
X35089815Y-139590047D01*
X35089815Y-139590047D02*
X35056143Y-139691062D01*
X35056143Y-139691062D02*
X34988800Y-139758405D01*
X34988800Y-139758405D02*
X34584739Y-139489031D01*
X35291845Y-140667543D02*
X35998952Y-139960436D01*
X35325517Y-140633871D02*
X35224502Y-140600199D01*
X35224502Y-140600199D02*
X35089815Y-140465512D01*
X35089815Y-140465512D02*
X35056143Y-140364497D01*
X35056143Y-140364497D02*
X35056143Y-140297153D01*
X35056143Y-140297153D02*
X35089815Y-140196138D01*
X35089815Y-140196138D02*
X35291845Y-139994108D01*
X35291845Y-139994108D02*
X35392861Y-139960436D01*
X35392861Y-139960436D02*
X35460204Y-139960436D01*
X35460204Y-139960436D02*
X35561219Y-139994108D01*
X35561219Y-139994108D02*
X35695906Y-140128795D01*
X35695906Y-140128795D02*
X35729578Y-140229810D01*
X36167311Y-141543008D02*
X36874418Y-140835902D01*
X36605044Y-141105276D02*
X36706059Y-141138947D01*
X36706059Y-141138947D02*
X36840746Y-141273634D01*
X36840746Y-141273634D02*
X36874418Y-141374650D01*
X36874418Y-141374650D02*
X36874418Y-141441993D01*
X36874418Y-141441993D02*
X36840746Y-141543008D01*
X36840746Y-141543008D02*
X36638716Y-141745039D01*
X36638716Y-141745039D02*
X36537700Y-141778711D01*
X36537700Y-141778711D02*
X36470357Y-141778711D01*
X36470357Y-141778711D02*
X36369342Y-141745039D01*
X36369342Y-141745039D02*
X36234655Y-141610352D01*
X36234655Y-141610352D02*
X36200983Y-141509337D01*
X37211136Y-141644024D02*
X36908090Y-142283787D01*
X37547853Y-141980741D02*
X36908090Y-142283787D01*
X36908090Y-142283787D02*
X36672388Y-142384802D01*
X36672388Y-142384802D02*
X36605044Y-142384802D01*
X36605044Y-142384802D02*
X36504029Y-142351131D01*
X37884571Y-143260268D02*
X38591678Y-142553161D01*
X38254960Y-142889879D02*
X38659021Y-143293940D01*
X38288632Y-143664329D02*
X38995739Y-142957222D01*
X38692693Y-143933703D02*
X38692693Y-144001047D01*
X38692693Y-144001047D02*
X38625349Y-144001047D01*
X38625349Y-144001047D02*
X38625349Y-143933703D01*
X38625349Y-143933703D02*
X38692693Y-143933703D01*
X38692693Y-143933703D02*
X38625349Y-144001047D01*
X39904876Y-145280573D02*
X40005891Y-144708153D01*
X39500815Y-144876512D02*
X40207922Y-144169405D01*
X40207922Y-144169405D02*
X40477296Y-144438779D01*
X40477296Y-144438779D02*
X40510967Y-144539795D01*
X40510967Y-144539795D02*
X40510967Y-144607138D01*
X40510967Y-144607138D02*
X40477296Y-144708153D01*
X40477296Y-144708153D02*
X40376280Y-144809169D01*
X40376280Y-144809169D02*
X40275265Y-144842840D01*
X40275265Y-144842840D02*
X40207922Y-144842840D01*
X40207922Y-144842840D02*
X40106906Y-144809169D01*
X40106906Y-144809169D02*
X39837532Y-144539795D01*
X40510967Y-145819321D02*
X40409952Y-145785649D01*
X40409952Y-145785649D02*
X40275265Y-145650962D01*
X40275265Y-145650962D02*
X40241593Y-145549947D01*
X40241593Y-145549947D02*
X40275265Y-145448932D01*
X40275265Y-145448932D02*
X40544639Y-145179558D01*
X40544639Y-145179558D02*
X40645654Y-145145886D01*
X40645654Y-145145886D02*
X40746670Y-145179558D01*
X40746670Y-145179558D02*
X40881357Y-145314245D01*
X40881357Y-145314245D02*
X40915028Y-145415260D01*
X40915028Y-145415260D02*
X40881357Y-145516275D01*
X40881357Y-145516275D02*
X40814013Y-145583619D01*
X40814013Y-145583619D02*
X40409952Y-145314245D01*
X40814013Y-146189710D02*
X41521120Y-145482604D01*
X41251746Y-145751978D02*
X41352761Y-145785649D01*
X41352761Y-145785649D02*
X41487448Y-145920336D01*
X41487448Y-145920336D02*
X41521120Y-146021352D01*
X41521120Y-146021352D02*
X41521120Y-146088695D01*
X41521120Y-146088695D02*
X41487448Y-146189710D01*
X41487448Y-146189710D02*
X41285418Y-146391741D01*
X41285418Y-146391741D02*
X41184402Y-146425413D01*
X41184402Y-146425413D02*
X41117059Y-146425413D01*
X41117059Y-146425413D02*
X41016044Y-146391741D01*
X41016044Y-146391741D02*
X40881357Y-146257054D01*
X40881357Y-146257054D02*
X40847685Y-146156039D01*
X41453777Y-146829474D02*
X42160883Y-146122367D01*
X41756822Y-147132520D02*
X42127212Y-146762130D01*
X42127212Y-146762130D02*
X42160883Y-146661115D01*
X42160883Y-146661115D02*
X42127212Y-146560100D01*
X42127212Y-146560100D02*
X42026196Y-146459085D01*
X42026196Y-146459085D02*
X41925181Y-146425413D01*
X41925181Y-146425413D02*
X41857838Y-146425413D01*
X42194555Y-147570252D02*
X42160883Y-147469237D01*
X42160883Y-147469237D02*
X42160883Y-147401894D01*
X42160883Y-147401894D02*
X42194555Y-147300878D01*
X42194555Y-147300878D02*
X42396586Y-147098848D01*
X42396586Y-147098848D02*
X42497601Y-147065176D01*
X42497601Y-147065176D02*
X42564944Y-147065176D01*
X42564944Y-147065176D02*
X42665960Y-147098848D01*
X42665960Y-147098848D02*
X42766975Y-147199863D01*
X42766975Y-147199863D02*
X42800647Y-147300878D01*
X42800647Y-147300878D02*
X42800647Y-147368222D01*
X42800647Y-147368222D02*
X42766975Y-147469237D01*
X42766975Y-147469237D02*
X42564944Y-147671268D01*
X42564944Y-147671268D02*
X42463929Y-147704939D01*
X42463929Y-147704939D02*
X42396586Y-147704939D01*
X42396586Y-147704939D02*
X42295570Y-147671268D01*
X42295570Y-147671268D02*
X42194555Y-147570252D01*
X42834319Y-148210016D02*
X42800647Y-148109001D01*
X42800647Y-148109001D02*
X42834319Y-148007985D01*
X42834319Y-148007985D02*
X43440410Y-147401894D01*
X43507754Y-147940642D02*
X43878143Y-148311031D01*
X43878143Y-148311031D02*
X43036349Y-148412047D01*
X43036349Y-148412047D02*
X43406739Y-148782436D01*
D11*
G36*
X19000000Y-97500000D02*
G01*
X19000000Y-102500000D01*
X17250000Y-103750000D01*
X14750000Y-103750000D01*
X14750000Y-96250000D01*
X17250000Y-96250000D01*
X19000000Y-97500000D01*
G37*
G36*
X83750000Y-37250000D02*
G01*
X82500000Y-39000000D01*
X77500000Y-39000000D01*
X76250000Y-37250000D01*
X76250000Y-34750000D01*
X83750000Y-34750000D01*
X83750000Y-37250000D01*
G37*
G36*
X83750000Y-162750000D02*
G01*
X83750000Y-165250000D01*
X76250000Y-165250000D01*
X76250000Y-162750000D01*
X77500000Y-161000000D01*
X82500000Y-161000000D01*
X83750000Y-162750000D01*
G37*
G36*
X218750000Y-37250000D02*
G01*
X217500000Y-39000000D01*
X212500000Y-39000000D01*
X211250000Y-37250000D01*
X211250000Y-34750000D01*
X218750000Y-34750000D01*
X218750000Y-37250000D01*
G37*
G36*
X218750000Y-162750000D02*
G01*
X218750000Y-165250000D01*
X211250000Y-165250000D01*
X211250000Y-162750000D01*
X212500000Y-161000000D01*
X217500000Y-161000000D01*
X218750000Y-162750000D01*
G37*
G36*
X280250000Y-103750000D02*
G01*
X277750000Y-103750000D01*
X276000000Y-102500000D01*
X276000000Y-97500000D01*
X277750000Y-96250000D01*
X280250000Y-96250000D01*
X280250000Y-103750000D01*
G37*
G36*
X56229730Y-52492382D02*
G01*
X55553721Y-52772394D01*
X55273709Y-52096385D01*
X55949718Y-51816373D01*
X56229730Y-52492382D01*
G37*
G36*
X56307053Y-51404361D02*
G01*
X56773740Y-52531044D01*
X56867078Y-52756380D01*
X55289722Y-53409742D01*
X55196385Y-53184406D01*
X54729698Y-52057723D01*
X54691036Y-51964385D01*
X54955034Y-51964385D01*
X55421721Y-53091069D01*
X56548404Y-52624381D01*
X56081717Y-51497698D01*
X54955034Y-51964385D01*
X54691036Y-51964385D01*
X54636361Y-51832387D01*
X56213716Y-51179025D01*
X56307053Y-51404361D01*
G37*
G36*
X56577684Y-47596288D02*
G01*
X56671022Y-47821625D01*
X56764359Y-48046961D01*
X56857697Y-48272298D01*
X56951034Y-48497634D01*
X57044371Y-48722971D01*
X57231046Y-49173644D01*
X57005710Y-49266981D01*
X56819035Y-48816308D01*
X56368362Y-49002983D01*
X56461700Y-49228320D01*
X56687036Y-49134982D01*
X56780373Y-49360318D01*
X56555037Y-49453656D01*
X56741712Y-49904329D01*
X56516375Y-49997666D01*
X56329700Y-49546993D01*
X56104364Y-49640331D01*
X56197702Y-49865668D01*
X56291039Y-50091004D01*
X56477714Y-50541677D01*
X56571051Y-50767013D01*
X56796387Y-50673676D01*
X56889725Y-50899013D01*
X57076400Y-51349686D01*
X57301737Y-51256348D01*
X57395074Y-51481684D01*
X56944401Y-51668359D01*
X57037739Y-51893696D01*
X57263075Y-51800359D01*
X57356412Y-52025695D01*
X57581749Y-51932357D01*
X57488412Y-51707021D01*
X57713748Y-51613684D01*
X57807085Y-51839020D01*
X57900423Y-52064357D01*
X57675087Y-52157694D01*
X57768424Y-52383030D01*
X57543087Y-52476368D01*
X57449750Y-52251032D01*
X57224414Y-52344369D01*
X57131076Y-52119032D01*
X56905740Y-52212369D01*
X56812403Y-51987033D01*
X56719065Y-51761696D01*
X56625728Y-51536360D01*
X56851064Y-51443023D01*
X56664389Y-50992350D01*
X56439053Y-51085687D01*
X56345715Y-50860350D01*
X55669705Y-51140363D01*
X55576368Y-50915026D01*
X56252378Y-50635014D01*
X56065703Y-50184341D01*
X55840366Y-50277679D01*
X55747029Y-50052342D01*
X55521693Y-50145680D01*
X55428355Y-49920343D01*
X55653691Y-49827005D01*
X55560354Y-49601669D01*
X55335018Y-49695007D01*
X55428355Y-49920343D01*
X55203018Y-50013680D01*
X55296356Y-50239017D01*
X55521693Y-50145680D01*
X55615030Y-50371016D01*
X55164357Y-50557691D01*
X55071020Y-50332355D01*
X54977682Y-50107018D01*
X54752345Y-50200355D01*
X54659008Y-49975019D01*
X54433672Y-50068356D01*
X54527009Y-50293693D01*
X54301672Y-50387030D01*
X54395010Y-50612367D01*
X54620347Y-50519030D01*
X54713684Y-50744366D01*
X54488347Y-50837703D01*
X54768359Y-51513712D01*
X54543023Y-51607050D01*
X54263011Y-50931040D01*
X54169674Y-50705704D01*
X54076336Y-50480367D01*
X53982999Y-50255031D01*
X54208335Y-50161694D01*
X54114997Y-49936357D01*
X54340334Y-49843019D01*
X54246997Y-49617683D01*
X54153660Y-49392347D01*
X54378996Y-49299010D01*
X54472333Y-49524346D01*
X54697670Y-49431009D01*
X54791007Y-49656345D01*
X55016343Y-49563007D01*
X54923006Y-49337671D01*
X54829669Y-49112335D01*
X54736331Y-48886998D01*
X54961668Y-48793661D01*
X55055006Y-49018998D01*
X55505679Y-48832323D01*
X55599016Y-49057659D01*
X55148343Y-49244334D01*
X55241680Y-49469670D01*
X55917689Y-49189658D01*
X55824352Y-48964321D01*
X55731015Y-48738985D01*
X55637677Y-48513648D01*
X55412341Y-48606986D01*
X55319004Y-48381650D01*
X55241680Y-48194975D01*
X55769676Y-48194975D01*
X55863013Y-48420311D01*
X55956351Y-48645648D01*
X56181688Y-48552311D01*
X56275025Y-48777647D01*
X56500361Y-48684309D01*
X56407024Y-48458973D01*
X56181688Y-48552311D01*
X56088350Y-48326974D01*
X56539023Y-48140299D01*
X56445686Y-47914963D01*
X55769676Y-48194975D01*
X55241680Y-48194975D01*
X55225666Y-48156313D01*
X55451002Y-48062975D01*
X55357665Y-47837639D01*
X55583001Y-47744302D01*
X55676338Y-47969638D01*
X56352348Y-47689626D01*
X56259011Y-47464290D01*
X56484347Y-47370952D01*
X56577684Y-47596288D01*
G37*
G36*
X58576433Y-51784344D02*
G01*
X58669770Y-52009680D01*
X57993760Y-52289693D01*
X57900423Y-52064357D01*
X58125760Y-51971019D01*
X58032422Y-51745682D01*
X58483095Y-51559007D01*
X58576433Y-51784344D01*
G37*
G36*
X59345779Y-51729668D02*
G01*
X58895106Y-51916343D01*
X58801769Y-51691007D01*
X59252442Y-51504332D01*
X59345779Y-51729668D01*
G37*
G36*
X59703115Y-51317657D02*
G01*
X60153788Y-51130982D01*
X60247125Y-51356318D01*
X59571115Y-51636331D01*
X59477778Y-51410995D01*
X59384440Y-51185658D01*
X59609777Y-51092320D01*
X59703115Y-51317657D01*
G37*
G36*
X59197765Y-50734985D02*
G01*
X59291103Y-50960322D01*
X59384440Y-51185658D01*
X58933767Y-51372333D01*
X58840430Y-51146997D01*
X59065767Y-51053659D01*
X58972429Y-50828322D01*
X58747092Y-50921660D01*
X58840430Y-51146997D01*
X57939085Y-51520346D01*
X57845747Y-51295009D01*
X58071083Y-51201672D01*
X57977746Y-50976336D01*
X57527073Y-51163011D01*
X57433735Y-50937674D01*
X58109745Y-50657661D01*
X58203083Y-50882998D01*
X58296420Y-51108334D01*
X58521756Y-51014997D01*
X58428419Y-50789661D01*
X59104428Y-50509649D01*
X59197765Y-50734985D01*
G37*
G36*
X55351032Y-51008364D02*
G01*
X55444369Y-51233700D01*
X54993696Y-51420375D01*
X54900359Y-51195039D01*
X55125695Y-51101701D01*
X55032358Y-50876365D01*
X55257695Y-50783028D01*
X55351032Y-51008364D01*
G37*
G36*
X60681783Y-49856287D02*
G01*
X60775121Y-50081623D01*
X60549785Y-50174960D01*
X60736459Y-50625633D01*
X60511123Y-50718970D01*
X60604461Y-50944307D01*
X60697798Y-51169644D01*
X60472461Y-51262981D01*
X60379124Y-51037645D01*
X60153788Y-51130982D01*
X60060450Y-50905645D01*
X60285786Y-50812308D01*
X60099111Y-50361635D01*
X60324448Y-50268297D01*
X60231111Y-50042961D01*
X60456447Y-49949624D01*
X60269772Y-49498951D01*
X60495108Y-49405614D01*
X60681783Y-49856287D01*
G37*
G36*
X59780438Y-50229636D02*
G01*
X60005774Y-50136299D01*
X60099111Y-50361635D01*
X59873775Y-50454972D01*
X59967113Y-50680309D01*
X60060450Y-50905645D01*
X59835113Y-50998983D01*
X59741776Y-50773647D01*
X59516440Y-50866984D01*
X59423102Y-50641647D01*
X59329765Y-50416311D01*
X59236427Y-50190974D01*
X59687101Y-50004299D01*
X59780438Y-50229636D01*
G37*
G36*
X55032358Y-50876365D02*
G01*
X54807021Y-50969703D01*
X54713684Y-50744366D01*
X54939020Y-50651028D01*
X55032358Y-50876365D01*
G37*
G36*
X61544468Y-50026947D02*
G01*
X61637806Y-50252283D01*
X61412469Y-50345621D01*
X61505806Y-50570958D01*
X61599143Y-50796294D01*
X61373807Y-50889631D01*
X61280470Y-50664295D01*
X61055133Y-50757633D01*
X60961795Y-50532296D01*
X60868458Y-50306960D01*
X61319131Y-50120285D01*
X61225794Y-49894948D01*
X61451131Y-49801610D01*
X61544468Y-50026947D01*
G37*
G36*
X62049816Y-50609619D02*
G01*
X61824480Y-50702956D01*
X61731143Y-50477620D01*
X61956479Y-50384283D01*
X62049816Y-50609619D01*
G37*
G36*
X57021724Y-50580338D02*
G01*
X56796387Y-50673676D01*
X56703050Y-50448339D01*
X56928387Y-50355002D01*
X57021724Y-50580338D01*
G37*
G36*
X55933704Y-50503016D02*
G01*
X55708368Y-50596353D01*
X55615030Y-50371016D01*
X55840366Y-50277679D01*
X55933704Y-50503016D01*
G37*
G36*
X58560417Y-50470987D02*
G01*
X58335081Y-50564324D01*
X58241744Y-50338988D01*
X58467080Y-50245651D01*
X58560417Y-50470987D01*
G37*
G36*
X58055069Y-49888315D02*
G01*
X58241744Y-50338988D01*
X57791071Y-50525663D01*
X57604396Y-50074990D01*
X57829733Y-49981652D01*
X57736396Y-49756316D01*
X57961732Y-49662979D01*
X58055069Y-49888315D01*
G37*
G36*
X57472397Y-50393663D02*
G01*
X57247060Y-50487001D01*
X57153723Y-50261665D01*
X57379060Y-50168327D01*
X57472397Y-50393663D01*
G37*
G36*
X62313815Y-49972271D02*
G01*
X62539151Y-49878934D01*
X62632488Y-50104271D01*
X61956479Y-50384283D01*
X61863142Y-50158946D01*
X62088479Y-50065609D01*
X61995141Y-49840272D01*
X62220477Y-49746935D01*
X62313815Y-49972271D01*
G37*
G36*
X62616474Y-48790913D02*
G01*
X62391138Y-48884250D01*
X62297801Y-48658914D01*
X62523137Y-48565577D01*
X62616474Y-48790913D01*
G37*
G36*
X62639122Y-46933545D02*
G01*
X62864458Y-46840208D01*
X62957796Y-47065545D01*
X63408469Y-46878870D01*
X63501806Y-47104206D01*
X63051133Y-47290881D01*
X63144471Y-47516218D01*
X62919135Y-47609555D01*
X63012472Y-47834891D01*
X62787135Y-47928229D01*
X62693798Y-47702893D01*
X62468462Y-47796230D01*
X62561799Y-48021566D01*
X62787135Y-47928229D01*
X62880472Y-48153565D01*
X63105809Y-48060227D01*
X63385822Y-48736237D01*
X63160485Y-48829575D01*
X63253822Y-49054911D01*
X63028486Y-49148248D01*
X63121824Y-49373585D01*
X63572497Y-49186911D01*
X63665834Y-49412247D01*
X63759171Y-49637584D01*
X63984508Y-49544246D01*
X64077845Y-49769582D01*
X63176499Y-50142932D01*
X63083161Y-49917596D01*
X63308498Y-49824258D01*
X63215161Y-49598921D01*
X62539151Y-49878934D01*
X62445813Y-49653598D01*
X62220477Y-49746935D01*
X62127140Y-49521598D01*
X62049816Y-49334923D01*
X62577813Y-49334923D01*
X62671150Y-49560260D01*
X62896487Y-49466923D01*
X62803149Y-49241586D01*
X62577813Y-49334923D01*
X62049816Y-49334923D01*
X62033802Y-49296262D01*
X61132456Y-49669612D01*
X61039119Y-49444275D01*
X60813783Y-49537612D01*
X60720445Y-49312276D01*
X60945781Y-49218939D01*
X60852444Y-48993602D01*
X61077781Y-48900264D01*
X60984444Y-48674928D01*
X61209780Y-48581591D01*
X61303117Y-48806927D01*
X61528454Y-48713589D01*
X61621792Y-48938926D01*
X61396455Y-49032264D01*
X61489792Y-49257600D01*
X61715129Y-49164262D01*
X61621792Y-48938926D01*
X61847128Y-48845589D01*
X61753790Y-48620252D01*
X61528454Y-48713589D01*
X61451131Y-48526915D01*
X61979126Y-48526915D01*
X62072464Y-48752252D01*
X62165801Y-48977588D01*
X62259139Y-49202925D01*
X62935149Y-48922912D01*
X62655136Y-48246902D01*
X61979126Y-48526915D01*
X61451131Y-48526915D01*
X61435117Y-48488253D01*
X61341779Y-48262917D01*
X61116442Y-48356255D01*
X61023105Y-48130918D01*
X60929768Y-47905582D01*
X61155105Y-47812244D01*
X61248442Y-48037580D01*
X61473778Y-47944243D01*
X61567115Y-48169580D01*
X61792452Y-48076243D01*
X61699114Y-47850906D01*
X62375124Y-47570893D01*
X62281787Y-47345557D01*
X62507123Y-47252220D01*
X62413785Y-47026883D01*
X62320448Y-46801547D01*
X62545785Y-46708209D01*
X62639122Y-46933545D01*
G37*
G36*
X59764424Y-48916279D02*
G01*
X59989760Y-48822942D01*
X60083097Y-49048278D01*
X59857761Y-49141615D01*
X59951099Y-49366951D01*
X60176435Y-49273614D01*
X60269772Y-49498951D01*
X60044436Y-49592288D01*
X60137774Y-49817624D01*
X60231111Y-50042961D01*
X60005774Y-50136299D01*
X59912437Y-49910962D01*
X59687101Y-50004299D01*
X59593763Y-49778963D01*
X59500426Y-49553626D01*
X59407088Y-49328290D01*
X59632424Y-49234953D01*
X59539087Y-49009617D01*
X59445750Y-48784280D01*
X59671087Y-48690942D01*
X59764424Y-48916279D01*
G37*
G36*
X57060386Y-50036329D02*
G01*
X56835050Y-50129666D01*
X56741712Y-49904329D01*
X56967048Y-49810992D01*
X57060386Y-50036329D01*
G37*
G36*
X58956415Y-49514965D02*
G01*
X59181751Y-49421628D01*
X59275089Y-49646964D01*
X59049753Y-49740301D01*
X59143090Y-49965638D01*
X58917753Y-50058976D01*
X58824416Y-49833639D01*
X58599080Y-49926976D01*
X58505742Y-49701640D01*
X58731078Y-49608303D01*
X58637741Y-49382967D01*
X58863078Y-49289629D01*
X58956415Y-49514965D01*
G37*
G36*
X61225794Y-49894948D02*
G01*
X61000458Y-49988285D01*
X60907120Y-49762949D01*
X61132456Y-49669612D01*
X61225794Y-49894948D01*
G37*
G36*
X61995141Y-49840272D02*
G01*
X61769804Y-49933610D01*
X61676467Y-49708273D01*
X61901804Y-49614935D01*
X61995141Y-49840272D01*
G37*
G36*
X54021660Y-49711021D02*
G01*
X53796324Y-49804358D01*
X53702986Y-49579022D01*
X53928323Y-49485685D01*
X54021660Y-49711021D01*
G37*
G36*
X57681719Y-48986969D02*
G01*
X57775057Y-49212306D01*
X58225730Y-49025631D01*
X58319067Y-49250967D01*
X58544403Y-49157630D01*
X58637741Y-49382967D01*
X58187068Y-49569641D01*
X58093730Y-49344304D01*
X57417721Y-49624317D01*
X57324384Y-49398981D01*
X57231046Y-49173644D01*
X57456383Y-49080306D01*
X57363046Y-48854970D01*
X57588382Y-48761633D01*
X57681719Y-48986969D01*
G37*
G36*
X64209845Y-49450909D02*
G01*
X63984508Y-49544246D01*
X63797833Y-49093573D01*
X64023170Y-49000236D01*
X64209845Y-49450909D01*
G37*
G36*
X53818971Y-47946991D02*
G01*
X54044308Y-47853653D01*
X54137645Y-48078989D01*
X54362981Y-47985652D01*
X54456319Y-48210989D01*
X54549656Y-48436325D01*
X54324320Y-48529662D01*
X54417658Y-48754999D01*
X54192321Y-48848337D01*
X54285658Y-49073673D01*
X54060322Y-49167010D01*
X54153660Y-49392347D01*
X53928323Y-49485685D01*
X53834985Y-49260348D01*
X53741648Y-49035012D01*
X53966985Y-48941674D01*
X53873647Y-48716337D01*
X54098983Y-48623000D01*
X54005646Y-48397664D01*
X53780310Y-48491001D01*
X53686972Y-48265664D01*
X53461635Y-48359002D01*
X53368298Y-48133666D01*
X53593635Y-48040328D01*
X53500297Y-47814991D01*
X53725633Y-47721654D01*
X53818971Y-47946991D01*
G37*
G36*
X60720445Y-49312276D02*
G01*
X60495108Y-49405614D01*
X60401771Y-49180277D01*
X60627108Y-49086939D01*
X60720445Y-49312276D01*
G37*
G36*
X54604333Y-49205672D02*
G01*
X54378996Y-49299010D01*
X54285658Y-49073673D01*
X54510995Y-48980335D01*
X54604333Y-49205672D01*
G37*
G36*
X60401771Y-49180277D02*
G01*
X60176435Y-49273614D01*
X60083097Y-49048278D01*
X60308434Y-48954941D01*
X60401771Y-49180277D01*
G37*
G36*
X63688481Y-47554879D02*
G01*
X63463145Y-47648216D01*
X63556482Y-47873553D01*
X63781818Y-47780215D01*
X63875156Y-48005552D01*
X63649820Y-48098890D01*
X63743157Y-48324226D01*
X63968493Y-48230888D01*
X64061831Y-48456225D01*
X63836495Y-48549563D01*
X63929832Y-48774899D01*
X63704495Y-48868236D01*
X63797833Y-49093573D01*
X63572497Y-49186911D01*
X63479159Y-48961574D01*
X63385822Y-48736237D01*
X63611158Y-48642900D01*
X63517820Y-48417563D01*
X63424483Y-48192227D01*
X63331145Y-47966890D01*
X63105809Y-48060227D01*
X63012472Y-47834891D01*
X63237808Y-47741554D01*
X63144471Y-47516218D01*
X63595144Y-47329543D01*
X63688481Y-47554879D01*
G37*
G36*
X58676403Y-48838956D02*
G01*
X58901739Y-48745619D01*
X58995076Y-48970955D01*
X58544403Y-49157630D01*
X58451066Y-48932294D01*
X58357729Y-48706957D01*
X58583066Y-48613619D01*
X58676403Y-48838956D01*
G37*
G36*
X53741648Y-49035012D02*
G01*
X53516312Y-49128349D01*
X53422974Y-48903012D01*
X53648310Y-48809675D01*
X53741648Y-49035012D01*
G37*
G36*
X60572432Y-48317593D02*
G01*
X60797769Y-48224255D01*
X60891106Y-48449592D01*
X60665769Y-48542930D01*
X60759107Y-48768266D01*
X60852444Y-48993602D01*
X60627108Y-49086939D01*
X60533771Y-48861603D01*
X60308434Y-48954941D01*
X60215096Y-48729605D01*
X60440433Y-48636267D01*
X60347096Y-48410930D01*
X60253758Y-48185594D01*
X60479094Y-48092257D01*
X60572432Y-48317593D01*
G37*
G36*
X64248506Y-48906898D02*
G01*
X64023170Y-49000236D01*
X63929832Y-48774899D01*
X64155168Y-48681561D01*
X64248506Y-48906898D01*
G37*
G36*
X53873647Y-48716337D02*
G01*
X53648310Y-48809675D01*
X53554973Y-48584339D01*
X53780310Y-48491001D01*
X53873647Y-48716337D01*
G37*
G36*
X58357729Y-48706957D02*
G01*
X58132392Y-48800294D01*
X57945718Y-48349621D01*
X58171054Y-48256283D01*
X58357729Y-48706957D01*
G37*
G36*
X55187004Y-48700323D02*
G01*
X54961668Y-48793661D01*
X54868331Y-48568325D01*
X55093667Y-48474987D01*
X55187004Y-48700323D01*
G37*
G36*
X57813718Y-48668295D02*
G01*
X57588382Y-48761633D01*
X57401707Y-48310960D01*
X57627043Y-48217622D01*
X57813718Y-48668295D01*
G37*
G36*
X59352412Y-48558944D02*
G01*
X59127076Y-48652281D01*
X59033739Y-48426944D01*
X59259075Y-48333607D01*
X59352412Y-48558944D01*
G37*
G36*
X59033739Y-48426944D02*
G01*
X58808402Y-48520282D01*
X58621727Y-48069609D01*
X58847064Y-47976271D01*
X59033739Y-48426944D01*
G37*
G36*
X57401707Y-48310960D02*
G01*
X57176371Y-48404297D01*
X57083034Y-48178961D01*
X57308370Y-48085623D01*
X57401707Y-48310960D01*
G37*
G36*
X60028421Y-48278932D02*
G01*
X59803085Y-48372269D01*
X59709748Y-48146932D01*
X59935084Y-48053595D01*
X60028421Y-48278932D01*
G37*
G36*
X55225666Y-48156313D02*
G01*
X54774993Y-48342988D01*
X54681656Y-48117651D01*
X55132329Y-47930977D01*
X55225666Y-48156313D01*
G37*
G36*
X59616410Y-47921596D02*
G01*
X59391074Y-48014933D01*
X59484412Y-48240269D01*
X59259075Y-48333607D01*
X59165737Y-48108271D01*
X59072400Y-47882934D01*
X59523073Y-47696259D01*
X59616410Y-47921596D01*
G37*
G36*
X53313623Y-47364319D02*
G01*
X53088286Y-47457657D01*
X53181623Y-47682993D01*
X53406960Y-47589655D01*
X53500297Y-47814991D01*
X53274960Y-47908329D01*
X53368298Y-48133666D01*
X53142962Y-48227003D01*
X53049624Y-48001666D01*
X52956287Y-47776330D01*
X52862950Y-47550994D01*
X52769612Y-47325657D01*
X53220285Y-47138982D01*
X53313623Y-47364319D01*
G37*
G36*
X59545720Y-45838891D02*
G01*
X59771057Y-45745554D01*
X59864395Y-45970891D01*
X59413722Y-46157566D01*
X59507059Y-46382902D01*
X59600396Y-46608239D01*
X59375059Y-46701576D01*
X59281722Y-46476239D01*
X59056386Y-46569577D01*
X58963049Y-46344241D01*
X58512375Y-46530915D01*
X58419038Y-46305578D01*
X57968365Y-46492253D01*
X58061702Y-46717590D01*
X58512375Y-46530915D01*
X58605713Y-46756252D01*
X58699050Y-46981589D01*
X58473714Y-47074926D01*
X58380377Y-46849589D01*
X58155040Y-46942926D01*
X58248377Y-47168263D01*
X58473714Y-47074926D01*
X58567052Y-47300262D01*
X58660389Y-47525599D01*
X58435052Y-47618936D01*
X58528389Y-47844273D01*
X58621727Y-48069609D01*
X58396391Y-48162946D01*
X58303053Y-47937610D01*
X58077716Y-48030947D01*
X57984379Y-47805611D01*
X57759043Y-47898949D01*
X57852380Y-48124285D01*
X57627043Y-48217622D01*
X57533706Y-47992286D01*
X57308370Y-48085623D01*
X57215032Y-47860286D01*
X57665705Y-47673612D01*
X57572368Y-47448276D01*
X58023041Y-47261601D01*
X57929704Y-47036264D01*
X57704367Y-47129601D01*
X57611029Y-46904265D01*
X57160356Y-47090940D01*
X57067019Y-46865603D01*
X57743029Y-46585591D01*
X57649691Y-46360255D01*
X58776374Y-45893568D01*
X58869711Y-46118904D01*
X59320384Y-45932229D01*
X59227047Y-45706893D01*
X59452383Y-45613555D01*
X59545720Y-45838891D01*
G37*
G36*
X60929768Y-47905582D02*
G01*
X60479094Y-48092257D01*
X60385757Y-47866920D01*
X60836430Y-47680245D01*
X60929768Y-47905582D01*
G37*
G36*
X60292420Y-47641584D02*
G01*
X60385757Y-47866920D01*
X59935084Y-48053595D01*
X59841747Y-47828259D01*
X60067084Y-47734921D01*
X59973746Y-47509584D01*
X60199082Y-47416247D01*
X60292420Y-47641584D01*
G37*
G36*
X61699114Y-47850906D02*
G01*
X61473778Y-47944243D01*
X61380441Y-47718907D01*
X61605777Y-47625570D01*
X61699114Y-47850906D01*
G37*
G36*
X54813654Y-47798977D02*
G01*
X54588318Y-47892314D01*
X54494981Y-47666978D01*
X54720317Y-47573641D01*
X54813654Y-47798977D01*
G37*
G36*
X53670958Y-46952307D02*
G01*
X53896294Y-46858970D01*
X53989632Y-47084307D01*
X54214969Y-46990969D01*
X54308306Y-47216305D01*
X54533642Y-47122968D01*
X54626979Y-47348304D01*
X54401643Y-47441641D01*
X54494981Y-47666978D01*
X54044308Y-47853653D01*
X53950970Y-47628316D01*
X54176306Y-47534979D01*
X54082969Y-47309643D01*
X53857633Y-47402980D01*
X53764296Y-47177644D01*
X53538959Y-47270982D01*
X53445621Y-47045645D01*
X53220285Y-47138982D01*
X53126948Y-46913646D01*
X53577621Y-46726971D01*
X53670958Y-46952307D01*
G37*
G36*
X61644439Y-47081559D02*
G01*
X61419102Y-47174897D01*
X61512439Y-47400233D01*
X61287103Y-47493570D01*
X61380441Y-47718907D01*
X61155105Y-47812244D01*
X61061767Y-47586907D01*
X60836430Y-47680245D01*
X60743093Y-47454909D01*
X60517757Y-47548246D01*
X60424419Y-47322909D01*
X60875092Y-47136234D01*
X60968430Y-47361571D01*
X61193766Y-47268234D01*
X61100428Y-47042897D01*
X61551101Y-46856222D01*
X61644439Y-47081559D01*
G37*
G36*
X61831114Y-47532232D02*
G01*
X61605777Y-47625570D01*
X61512439Y-47400233D01*
X61737776Y-47306895D01*
X61831114Y-47532232D01*
G37*
G36*
X55715000Y-47425627D02*
G01*
X55264327Y-47612302D01*
X55170990Y-47386966D01*
X55621663Y-47200291D01*
X55715000Y-47425627D01*
G37*
G36*
X53632296Y-47496318D02*
G01*
X53406960Y-47589655D01*
X53313623Y-47364319D01*
X53538959Y-47270982D01*
X53632296Y-47496318D01*
G37*
G36*
X60144407Y-46646900D02*
G01*
X60237744Y-46872237D01*
X60463080Y-46778900D01*
X60556418Y-47004236D01*
X60331082Y-47097573D01*
X60424419Y-47322909D01*
X60199082Y-47416247D01*
X60105745Y-47190911D01*
X59655072Y-47377585D01*
X59561734Y-47152249D01*
X59336398Y-47245587D01*
X59429736Y-47470923D01*
X59204399Y-47564260D01*
X59111062Y-47338924D01*
X58885725Y-47432262D01*
X58792388Y-47206925D01*
X59017725Y-47113587D01*
X58831050Y-46662914D01*
X59056386Y-46569577D01*
X59243061Y-47020250D01*
X59693734Y-46833575D01*
X59600396Y-46608239D01*
X60051070Y-46421564D01*
X60144407Y-46646900D01*
G37*
G36*
X57067019Y-46865603D02*
G01*
X56841683Y-46958940D01*
X56935020Y-47184277D01*
X57160356Y-47090940D01*
X57253694Y-47316276D01*
X56803021Y-47502951D01*
X56709684Y-47277615D01*
X56616347Y-47052278D01*
X55940336Y-47332290D01*
X55846999Y-47106954D01*
X55753662Y-46881617D01*
X55978999Y-46788279D01*
X56072336Y-47013616D01*
X56973681Y-46640267D01*
X57067019Y-46865603D01*
G37*
G36*
X55170990Y-47386966D02*
G01*
X54945654Y-47480304D01*
X54852316Y-47254967D01*
X55077652Y-47161629D01*
X55170990Y-47386966D01*
G37*
G36*
X62188449Y-47120220D02*
G01*
X61963112Y-47213558D01*
X61869775Y-46988222D01*
X62095112Y-46894884D01*
X62188449Y-47120220D01*
G37*
G36*
X61100428Y-47042897D02*
G01*
X60875092Y-47136234D01*
X60688417Y-46685562D01*
X60913754Y-46592225D01*
X61100428Y-47042897D01*
G37*
G36*
X54797640Y-46485620D02*
G01*
X55022976Y-46392283D01*
X55116314Y-46617620D01*
X55341651Y-46524282D01*
X55434988Y-46749618D01*
X55528326Y-46974954D01*
X55302989Y-47068292D01*
X55209651Y-46842956D01*
X54984315Y-46936293D01*
X54890978Y-46710957D01*
X54665642Y-46804294D01*
X54572304Y-46578957D01*
X54346967Y-46672295D01*
X54253630Y-46446959D01*
X54704303Y-46260284D01*
X54797640Y-46485620D01*
G37*
G36*
X54440305Y-46897632D02*
G01*
X54214969Y-46990969D01*
X54121631Y-46765632D01*
X54346967Y-46672295D01*
X54440305Y-46897632D01*
G37*
G36*
X61107061Y-43872172D02*
G01*
X60881725Y-43965510D01*
X60975063Y-44190847D01*
X61068400Y-44416183D01*
X61161737Y-44641519D01*
X61387073Y-44548182D01*
X61480411Y-44773519D01*
X61573748Y-44998855D01*
X61799085Y-44905517D01*
X61892423Y-45130854D01*
X62117759Y-45037517D01*
X62211096Y-45262853D01*
X61985760Y-45356190D01*
X62079098Y-45581527D01*
X62304434Y-45488190D01*
X62397771Y-45713526D01*
X62172435Y-45806863D01*
X62265773Y-46032200D01*
X61815100Y-46218875D01*
X61908437Y-46444211D01*
X62359110Y-46257536D01*
X62452447Y-46482872D01*
X62227110Y-46576210D01*
X62320448Y-46801547D01*
X62095112Y-46894884D01*
X62001774Y-46669547D01*
X61551101Y-46856222D01*
X61457764Y-46630886D01*
X61683100Y-46537549D01*
X61589763Y-46312213D01*
X61496425Y-46086876D01*
X61721762Y-45993538D01*
X61628425Y-45768202D01*
X61535087Y-45542865D01*
X61441750Y-45317529D01*
X61348412Y-45092192D01*
X61255075Y-44866856D01*
X60804402Y-45053531D01*
X60711064Y-44828194D01*
X60936400Y-44734856D01*
X60843063Y-44509520D01*
X60617727Y-44602858D01*
X60524390Y-44377522D01*
X60749726Y-44284184D01*
X60656388Y-44058847D01*
X60563051Y-43833511D01*
X61013724Y-43646836D01*
X61107061Y-43872172D01*
G37*
G36*
X54253630Y-46446959D02*
G01*
X54028294Y-46540296D01*
X54121631Y-46765632D01*
X53896294Y-46858970D01*
X53802957Y-46633634D01*
X53709619Y-46408297D01*
X54160292Y-46221622D01*
X54253630Y-46446959D01*
G37*
G36*
X62716446Y-45845525D02*
G01*
X62809783Y-46070861D01*
X63035119Y-45977524D01*
X63128456Y-46202860D01*
X62903120Y-46296197D01*
X62996458Y-46521534D01*
X63221794Y-46428197D01*
X63315131Y-46653533D01*
X62864458Y-46840208D01*
X62771121Y-46614872D01*
X62677783Y-46389535D01*
X62584446Y-46164199D01*
X62359110Y-46257536D01*
X62265773Y-46032200D01*
X62491109Y-45938863D01*
X62397771Y-45713526D01*
X62623108Y-45620188D01*
X62716446Y-45845525D01*
G37*
G36*
X59085666Y-41541485D02*
G01*
X59179003Y-41766821D01*
X59272341Y-41992158D01*
X59047005Y-42085495D01*
X59140342Y-42310831D01*
X58689669Y-42497506D01*
X58596332Y-42272170D01*
X58821669Y-42178832D01*
X58728331Y-41953495D01*
X58277658Y-42140170D01*
X58370996Y-42365507D01*
X58464333Y-42590843D01*
X58689669Y-42497506D01*
X58783007Y-42722843D01*
X58557671Y-42816180D01*
X58744346Y-43266853D01*
X58519009Y-43360191D01*
X58332334Y-42909518D01*
X58106998Y-43002855D01*
X58200335Y-43228191D01*
X57974998Y-43321529D01*
X57881661Y-43096193D01*
X57656325Y-43189530D01*
X57749662Y-43414866D01*
X57974998Y-43321529D01*
X58068336Y-43546866D01*
X57392326Y-43826878D01*
X57485664Y-44052214D01*
X57711001Y-43958876D01*
X57804338Y-44184213D01*
X58029674Y-44090875D01*
X58123012Y-44316212D01*
X57897676Y-44409550D01*
X57991013Y-44634886D01*
X58216349Y-44541548D01*
X58309687Y-44766885D01*
X58084351Y-44860223D01*
X58177688Y-45085559D01*
X58271025Y-45310896D01*
X58364363Y-45536232D01*
X58139026Y-45629569D01*
X58045688Y-45404233D01*
X57595015Y-45590908D01*
X57501678Y-45365571D01*
X57952351Y-45178896D01*
X57859014Y-44953560D01*
X57765676Y-44728223D01*
X57672339Y-44502887D01*
X57447003Y-44596224D01*
X57540340Y-44821560D01*
X57315003Y-44914898D01*
X57408340Y-45140235D01*
X57183004Y-45233572D01*
X57276342Y-45458908D01*
X57369679Y-45684245D01*
X57144342Y-45777583D01*
X57051005Y-45552246D01*
X56825669Y-45645583D01*
X56919006Y-45870920D01*
X56693669Y-45964258D01*
X56787007Y-46189594D01*
X56880344Y-46414930D01*
X55978999Y-46788279D01*
X55885661Y-46562943D01*
X56336334Y-46376269D01*
X56242997Y-46150932D01*
X55792324Y-46337607D01*
X55698986Y-46112270D01*
X55605649Y-45886934D01*
X55830985Y-45793597D01*
X55792323Y-45700259D01*
X56056322Y-45700259D01*
X56149659Y-45925595D01*
X56374996Y-45832258D01*
X56281658Y-45606922D01*
X56056322Y-45700259D01*
X55792323Y-45700259D01*
X55737648Y-45568260D01*
X56188321Y-45381585D01*
X56094983Y-45156249D01*
X56320319Y-45062912D01*
X56413657Y-45288248D01*
X56638994Y-45194910D01*
X56732331Y-45420247D01*
X56957667Y-45326910D01*
X56864330Y-45101573D01*
X56770993Y-44876237D01*
X56320319Y-45062912D01*
X56226982Y-44837575D01*
X55776310Y-45024249D01*
X55682972Y-44798913D01*
X55457635Y-44892251D01*
X55364298Y-44666915D01*
X55589635Y-44573577D01*
X55496298Y-44348240D01*
X55721634Y-44254903D01*
X55814971Y-44480240D01*
X55908309Y-44705576D01*
X56133645Y-44612239D01*
X56040307Y-44386903D01*
X56017659Y-44332226D01*
X56809655Y-44332226D01*
X56902992Y-44557562D01*
X57353665Y-44370887D01*
X57260328Y-44145551D01*
X56809655Y-44332226D01*
X56017659Y-44332226D01*
X55946970Y-44161566D01*
X56172307Y-44068228D01*
X56078969Y-43842892D01*
X55853632Y-43936230D01*
X55666958Y-43485557D01*
X55892295Y-43392219D01*
X55798957Y-43166882D01*
X55573620Y-43260220D01*
X55480283Y-43034884D01*
X56156293Y-42754871D01*
X56249630Y-42980207D01*
X56024293Y-43073545D01*
X56117631Y-43298882D01*
X56304305Y-43749555D01*
X56397643Y-43974891D01*
X56490980Y-44200228D01*
X56941653Y-44013553D01*
X56848316Y-43788216D01*
X57073653Y-43694878D01*
X56980316Y-43469542D01*
X57205652Y-43376205D01*
X57298989Y-43601541D01*
X57524326Y-43508203D01*
X57430989Y-43282867D01*
X57337651Y-43057530D01*
X57562987Y-42964193D01*
X57469650Y-42738857D01*
X57920323Y-42552182D01*
X57826985Y-42326845D01*
X57601648Y-42420183D01*
X57508311Y-42194847D01*
X57733648Y-42101509D01*
X57640310Y-41876172D01*
X57865646Y-41782835D01*
X57772309Y-41557499D01*
X58448319Y-41277486D01*
X58541656Y-41502822D01*
X58316319Y-41596160D01*
X58409657Y-41821497D01*
X58860330Y-41634822D01*
X58673655Y-41184149D01*
X58898991Y-41090812D01*
X59085666Y-41541485D01*
G37*
G36*
X52846935Y-46237636D02*
G01*
X53297608Y-46050961D01*
X53390946Y-46276298D01*
X53165609Y-46369636D01*
X53258946Y-46594972D01*
X53033610Y-46688309D01*
X52940273Y-46462973D01*
X52489600Y-46649648D01*
X52396262Y-46424311D01*
X52621598Y-46330974D01*
X52528261Y-46105638D01*
X52753598Y-46012300D01*
X52846935Y-46237636D01*
G37*
G36*
X55885661Y-46562943D02*
G01*
X55660324Y-46656281D01*
X55566987Y-46430945D01*
X55792324Y-46337607D01*
X55885661Y-46562943D01*
G37*
G36*
X60595080Y-46460225D02*
G01*
X60369743Y-46553563D01*
X60276406Y-46328227D01*
X60501743Y-46234889D01*
X60595080Y-46460225D01*
G37*
G36*
X53709619Y-46408297D02*
G01*
X53484283Y-46501634D01*
X53390946Y-46276298D01*
X53616282Y-46182961D01*
X53709619Y-46408297D01*
G37*
G36*
X58007027Y-45948243D02*
G01*
X57556354Y-46134918D01*
X57649691Y-46360255D01*
X57424354Y-46453592D01*
X57331017Y-46228255D01*
X57105681Y-46321592D01*
X57012344Y-46096256D01*
X57913690Y-45722907D01*
X58007027Y-45948243D01*
G37*
G36*
X60276406Y-46328227D02*
G01*
X60051070Y-46421564D01*
X59957732Y-46196227D01*
X60183068Y-46102890D01*
X60276406Y-46328227D01*
G37*
G36*
X54858950Y-44084242D02*
G01*
X54633613Y-44177580D01*
X54726950Y-44402917D01*
X54501614Y-44496254D01*
X54594951Y-44721590D01*
X54688289Y-44946927D01*
X54913625Y-44853590D01*
X55006962Y-45078926D01*
X55457635Y-44892251D01*
X55550973Y-45117587D01*
X55644310Y-45342924D01*
X55418974Y-45436261D01*
X55512312Y-45661597D01*
X55061638Y-45848272D01*
X55154976Y-46073609D01*
X55248313Y-46298945D01*
X55022976Y-46392283D01*
X54929639Y-46166947D01*
X54704303Y-46260284D01*
X54610965Y-46034947D01*
X54836301Y-45941610D01*
X54742964Y-45716274D01*
X54649627Y-45490937D01*
X54874964Y-45397599D01*
X54781626Y-45172263D01*
X54105617Y-45452275D01*
X54012280Y-45226939D01*
X53918942Y-45001602D01*
X53732267Y-44550929D01*
X53957604Y-44457592D01*
X54144278Y-44908265D01*
X54369614Y-44814928D01*
X54276277Y-44589592D01*
X54182940Y-44364255D01*
X54408277Y-44270917D01*
X54314939Y-44045581D01*
X54765612Y-43858906D01*
X54858950Y-44084242D01*
G37*
G36*
X61496425Y-46086876D02*
G01*
X61045752Y-46273550D01*
X60859077Y-45822877D01*
X61309750Y-45636203D01*
X61496425Y-46086876D01*
G37*
G36*
X60727079Y-46141552D02*
G01*
X60501743Y-46234889D01*
X60408405Y-46009552D01*
X60633741Y-45916215D01*
X60727079Y-46141552D01*
G37*
G36*
X54610965Y-46034947D02*
G01*
X54385629Y-46128284D01*
X54292292Y-45902948D01*
X54517628Y-45809611D01*
X54610965Y-46034947D01*
G37*
G36*
X60408405Y-46009552D02*
G01*
X60183068Y-46102890D01*
X60089731Y-45877554D01*
X60315068Y-45784216D01*
X60408405Y-46009552D01*
G37*
G36*
X54198954Y-45677611D02*
G01*
X54292292Y-45902948D01*
X53841619Y-46089623D01*
X53748281Y-45864286D01*
X53973617Y-45770949D01*
X53880280Y-45545613D01*
X54105617Y-45452275D01*
X54198954Y-45677611D01*
G37*
G36*
X53429607Y-45732288D02*
G01*
X53654944Y-45638950D01*
X53748281Y-45864286D01*
X53297608Y-46050961D01*
X53204271Y-45825625D01*
X52753598Y-46012300D01*
X52660261Y-45786964D01*
X53336270Y-45506952D01*
X53429607Y-45732288D01*
G37*
G36*
X60711064Y-44828194D02*
G01*
X60485727Y-44921531D01*
X60672402Y-45372204D01*
X61123075Y-45185529D01*
X61216413Y-45410866D01*
X60765740Y-45597541D01*
X60859077Y-45822877D01*
X60633741Y-45916215D01*
X60540404Y-45690879D01*
X60447066Y-45465542D01*
X60260391Y-45014869D01*
X60167054Y-44789533D01*
X60617727Y-44602858D01*
X60711064Y-44828194D01*
G37*
G36*
X59040372Y-45256220D02*
G01*
X59133709Y-45481556D01*
X59227047Y-45706893D01*
X59001710Y-45800230D01*
X58908372Y-45574893D01*
X58457700Y-45761568D01*
X58364363Y-45536232D01*
X58815035Y-45349557D01*
X58721698Y-45124221D01*
X58947035Y-45030883D01*
X59040372Y-45256220D01*
G37*
G36*
X53056257Y-44830942D02*
G01*
X52380248Y-45110954D01*
X52100236Y-44434945D01*
X52776245Y-44154933D01*
X53056257Y-44830942D01*
G37*
G36*
X53133581Y-43742921D02*
G01*
X53600268Y-44869604D01*
X53693605Y-45094940D01*
X52116250Y-45748302D01*
X52022913Y-45522966D01*
X51556225Y-44396283D01*
X51517563Y-44302945D01*
X51781561Y-44302945D01*
X52248249Y-45429628D01*
X53374932Y-44962941D01*
X52908245Y-43836258D01*
X51781561Y-44302945D01*
X51517563Y-44302945D01*
X51462888Y-44170946D01*
X53040243Y-43517585D01*
X53133581Y-43742921D01*
G37*
G36*
X60221730Y-45558879D02*
G01*
X59996393Y-45652217D01*
X59809718Y-45201543D01*
X60035055Y-45108206D01*
X60221730Y-45558879D01*
G37*
G36*
X53880280Y-45545613D02*
G01*
X53654944Y-45638950D01*
X53561607Y-45413614D01*
X53786943Y-45320277D01*
X53880280Y-45545613D01*
G37*
G36*
X59677720Y-45520218D02*
G01*
X59452383Y-45613555D01*
X59359045Y-45388218D01*
X59584382Y-45294881D01*
X59677720Y-45520218D01*
G37*
G36*
X62568432Y-44850842D02*
G01*
X62661769Y-45076178D01*
X62755107Y-45301515D01*
X62304434Y-45488190D01*
X62211096Y-45262853D01*
X62436433Y-45169515D01*
X62343096Y-44944179D01*
X62117759Y-45037517D01*
X62024421Y-44812180D01*
X62475094Y-44625505D01*
X62568432Y-44850842D01*
G37*
G36*
X59809718Y-45201543D02*
G01*
X59584382Y-45294881D01*
X59491045Y-45069545D01*
X59716381Y-44976207D01*
X59809718Y-45201543D01*
G37*
G36*
X58721698Y-45124221D02*
G01*
X58496361Y-45217558D01*
X58309687Y-44766885D01*
X58535023Y-44673548D01*
X58721698Y-45124221D01*
G37*
G36*
X59491045Y-45069545D02*
G01*
X59265708Y-45162882D01*
X59172371Y-44937546D01*
X59397708Y-44844209D01*
X59491045Y-45069545D01*
G37*
G36*
X55045625Y-44534915D02*
G01*
X55270961Y-44441578D01*
X55364298Y-44666915D01*
X54913625Y-44853590D01*
X54820288Y-44628253D01*
X54726950Y-44402917D01*
X54952287Y-44309579D01*
X55045625Y-44534915D01*
G37*
G36*
X58931020Y-43717525D02*
G01*
X59024358Y-43942862D01*
X59117695Y-44168199D01*
X58892358Y-44261536D01*
X58985696Y-44486873D01*
X59211033Y-44393536D01*
X59117695Y-44168199D01*
X59343031Y-44074861D01*
X59436369Y-44300198D01*
X59661706Y-44206861D01*
X59755043Y-44432197D01*
X58853697Y-44805546D01*
X58760360Y-44580210D01*
X58667022Y-44354873D01*
X58216349Y-44541548D01*
X58123012Y-44316212D01*
X58348348Y-44222875D01*
X58255010Y-43997538D01*
X58029674Y-44090875D01*
X57936337Y-43865539D01*
X58387010Y-43678864D01*
X58480347Y-43904200D01*
X58705683Y-43810863D01*
X58612346Y-43585527D01*
X58837683Y-43492189D01*
X58931020Y-43717525D01*
G37*
G36*
X62381757Y-44400169D02*
G01*
X61931084Y-44586844D01*
X61837746Y-44361507D01*
X62288420Y-44174832D01*
X62381757Y-44400169D01*
G37*
G36*
X60431052Y-44152185D02*
G01*
X60524390Y-44377522D01*
X60073717Y-44564196D01*
X59980379Y-44338859D01*
X60205715Y-44245522D01*
X60112378Y-44020186D01*
X60337715Y-43926849D01*
X60431052Y-44152185D01*
G37*
G36*
X54182940Y-44364255D02*
G01*
X53957604Y-44457592D01*
X53770929Y-44006919D01*
X53996265Y-43913582D01*
X54182940Y-44364255D01*
G37*
G36*
X61837746Y-44361507D02*
G01*
X61612410Y-44454844D01*
X61519073Y-44229508D01*
X61744409Y-44136171D01*
X61837746Y-44361507D01*
G37*
G36*
X55309623Y-43897567D02*
G01*
X55534959Y-43804230D01*
X55628296Y-44029567D01*
X55402960Y-44122904D01*
X55496298Y-44348240D01*
X55270961Y-44441578D01*
X55177623Y-44216242D01*
X54952287Y-44309579D01*
X54858950Y-44084242D01*
X55084286Y-43990905D01*
X54990948Y-43765569D01*
X55216285Y-43672231D01*
X55309623Y-43897567D01*
G37*
G36*
X61651072Y-43910835D02*
G01*
X61425736Y-44004172D01*
X61519073Y-44229508D01*
X61293736Y-44322845D01*
X61200399Y-44097509D01*
X61107061Y-43872172D01*
X61557734Y-43685498D01*
X61651072Y-43910835D01*
G37*
G36*
X55946970Y-44161566D02*
G01*
X55721634Y-44254903D01*
X55628296Y-44029567D01*
X55853632Y-43936230D01*
X55946970Y-44161566D01*
G37*
G36*
X60415038Y-42838828D02*
G01*
X60640374Y-42745490D01*
X60733711Y-42970826D01*
X60508375Y-43064164D01*
X60601713Y-43289501D01*
X60376376Y-43382838D01*
X60469713Y-43608174D01*
X60563051Y-43833511D01*
X60337715Y-43926849D01*
X60244377Y-43701512D01*
X60019040Y-43794849D01*
X60112378Y-44020186D01*
X59661706Y-44206861D01*
X59568368Y-43981524D01*
X59475031Y-43756188D01*
X59700367Y-43662850D01*
X59607029Y-43437513D01*
X59381693Y-43530851D01*
X59475031Y-43756188D01*
X59249694Y-43849525D01*
X59156356Y-43624188D01*
X59063019Y-43398852D01*
X59195019Y-43344176D01*
X59832365Y-43344176D01*
X59925703Y-43569513D01*
X60151040Y-43476175D01*
X60057702Y-43250838D01*
X59832365Y-43344176D01*
X59195019Y-43344176D01*
X59739028Y-43118840D01*
X59645691Y-42893504D01*
X60321701Y-42613491D01*
X60415038Y-42838828D01*
G37*
G36*
X53584254Y-43556246D02*
G01*
X54034927Y-43369571D01*
X54128264Y-43594908D01*
X54221602Y-43820244D01*
X53996265Y-43913582D01*
X53902927Y-43688245D01*
X53677591Y-43781583D01*
X53770929Y-44006919D01*
X53545593Y-44100256D01*
X53452255Y-43874920D01*
X53358918Y-43649583D01*
X53265580Y-43424247D01*
X53490916Y-43330910D01*
X53584254Y-43556246D01*
G37*
G36*
X56848316Y-43788216D02*
G01*
X56622980Y-43881553D01*
X56529642Y-43656217D01*
X56754979Y-43562880D01*
X56848316Y-43788216D01*
G37*
G36*
X61145723Y-43328162D02*
G01*
X61371059Y-43234824D01*
X61464397Y-43460161D01*
X61013724Y-43646836D01*
X60920386Y-43421499D01*
X60695050Y-43514837D01*
X60601713Y-43289501D01*
X61052386Y-43102826D01*
X61145723Y-43328162D01*
G37*
G36*
X55122948Y-43446894D02*
G01*
X54672275Y-43633569D01*
X54578937Y-43408233D01*
X55029611Y-43221558D01*
X55122948Y-43446894D01*
G37*
G36*
X61821732Y-43048150D02*
G01*
X62008407Y-43498823D01*
X61783071Y-43592160D01*
X61596396Y-43141487D01*
X61371059Y-43234824D01*
X61277722Y-43009488D01*
X61728395Y-42822814D01*
X61821732Y-43048150D01*
G37*
G36*
X55666958Y-43485557D02*
G01*
X55441621Y-43578894D01*
X55348284Y-43353557D01*
X55573620Y-43260220D01*
X55666958Y-43485557D01*
G37*
G36*
X59063019Y-43398852D02*
G01*
X58837683Y-43492189D01*
X58744346Y-43266853D01*
X58969682Y-43173516D01*
X59063019Y-43398852D01*
G37*
G36*
X56568304Y-43112207D02*
G01*
X56793641Y-43018869D01*
X56886978Y-43244205D01*
X56436305Y-43430880D01*
X56342968Y-43205544D01*
X56249630Y-42980207D01*
X56474966Y-42886870D01*
X56568304Y-43112207D01*
G37*
G36*
X54485600Y-43182896D02*
G01*
X54034927Y-43369571D01*
X53941590Y-43144235D01*
X54392263Y-42957560D01*
X54485600Y-43182896D01*
G37*
G36*
X56738964Y-42249522D02*
G01*
X56832302Y-42474859D01*
X56925639Y-42700195D01*
X57150976Y-42606857D01*
X57057639Y-42381521D01*
X57282975Y-42288184D01*
X57376312Y-42513520D01*
X57469650Y-42738857D01*
X57244314Y-42832194D01*
X57337651Y-43057530D01*
X57112314Y-43150868D01*
X57018977Y-42925532D01*
X56793641Y-43018869D01*
X56700303Y-42793532D01*
X56606966Y-42568196D01*
X56156293Y-42754871D01*
X56062955Y-42529534D01*
X56513628Y-42342859D01*
X56420291Y-42117523D01*
X56645627Y-42024186D01*
X56738964Y-42249522D01*
G37*
G36*
X55386945Y-42809547D02*
G01*
X54710936Y-43089559D01*
X54617599Y-42864223D01*
X55293608Y-42584210D01*
X55386945Y-42809547D01*
G37*
G36*
X59552353Y-42668167D02*
G01*
X59645691Y-42893504D01*
X59195019Y-43080178D01*
X59101681Y-42854841D01*
X59327017Y-42761504D01*
X59140342Y-42310831D01*
X59365678Y-42217494D01*
X59552353Y-42668167D01*
G37*
G36*
X59101681Y-42854841D02*
G01*
X58876344Y-42948179D01*
X58783007Y-42722843D01*
X59008344Y-42629505D01*
X59101681Y-42854841D01*
G37*
G36*
X61635058Y-42597477D02*
G01*
X60959048Y-42877489D01*
X60772374Y-42426817D01*
X61448383Y-42146804D01*
X61635058Y-42597477D01*
G37*
G36*
X60717697Y-41657469D02*
G01*
X60041688Y-41937481D01*
X59761676Y-41261472D01*
X60437685Y-40981460D01*
X60717697Y-41657469D01*
G37*
G36*
X60795021Y-40569448D02*
G01*
X61261708Y-41696131D01*
X61355045Y-41921467D01*
X59777690Y-42574829D01*
X59684353Y-42349493D01*
X59217666Y-41222810D01*
X59179004Y-41129473D01*
X59443002Y-41129473D01*
X59909689Y-42256156D01*
X61036372Y-41789469D01*
X60569685Y-40662785D01*
X59443002Y-41129473D01*
X59179004Y-41129473D01*
X59124328Y-40997474D01*
X60701684Y-40344112D01*
X60795021Y-40569448D01*
G37*
G36*
X57189637Y-42062847D02*
G01*
X56964301Y-42156184D01*
X56870964Y-41930848D01*
X57096300Y-41837511D01*
X57189637Y-42062847D01*
G37*
G36*
X57640310Y-41876172D02*
G01*
X57414973Y-41969510D01*
X57321636Y-41744174D01*
X57546973Y-41650836D01*
X57640310Y-41876172D01*
G37*
D12*
%TO.C,J1*%
X252121541Y-142545050D02*
X252183766Y-142557778D01*
X252243163Y-142577577D01*
X252301146Y-142603032D01*
X252354886Y-142634145D01*
X252405798Y-142670915D01*
X252452467Y-142713341D01*
X253230284Y-143491159D01*
X253272711Y-143537828D01*
X253309480Y-143588739D01*
X253340593Y-143642479D01*
X253366049Y-143700462D01*
X253385848Y-143759859D01*
X253398576Y-143822085D01*
X253404940Y-143883603D01*
X253404940Y-143947242D01*
X253398576Y-144008761D01*
X253385848Y-144070986D01*
X253366049Y-144130383D01*
X253340593Y-144188366D01*
X253309480Y-144242106D01*
X253272711Y-144293018D01*
X253230284Y-144339687D01*
X253183615Y-144382113D01*
X253132703Y-144418883D01*
X253078963Y-144449995D01*
X253020981Y-144475451D01*
X252961584Y-144495250D01*
X252899358Y-144507978D01*
X252837840Y-144514342D01*
X252774200Y-144514342D01*
X252712682Y-144507978D01*
X252650457Y-144495250D01*
X252591060Y-144475451D01*
X252533077Y-144449995D01*
X252479337Y-144418883D01*
X252428425Y-144382113D01*
X252381756Y-144339687D01*
X251603939Y-143561869D01*
X251561512Y-143515200D01*
X251524743Y-143464289D01*
X251493630Y-143410548D01*
X251468174Y-143352566D01*
X251448375Y-143293169D01*
X251435647Y-143230943D01*
X251429283Y-143169425D01*
X251429283Y-143105785D01*
X251435647Y-143044267D01*
X251448375Y-142982042D01*
X251468174Y-142922645D01*
X251493630Y-142864662D01*
X251524743Y-142810922D01*
X251561512Y-142760010D01*
X251603939Y-142713341D01*
X251650608Y-142670915D01*
X251701519Y-142634145D01*
X251755259Y-142603032D01*
X251813242Y-142577577D01*
X251872639Y-142557778D01*
X251934865Y-142545050D01*
X251996383Y-142538686D01*
X252060022Y-142538686D01*
X252121541Y-142545050D01*
G36*
X252121541Y-142545050D02*
G01*
X252183766Y-142557778D01*
X252243163Y-142577577D01*
X252301146Y-142603032D01*
X252354886Y-142634145D01*
X252405798Y-142670915D01*
X252452467Y-142713341D01*
X253230284Y-143491159D01*
X253272711Y-143537828D01*
X253309480Y-143588739D01*
X253340593Y-143642479D01*
X253366049Y-143700462D01*
X253385848Y-143759859D01*
X253398576Y-143822085D01*
X253404940Y-143883603D01*
X253404940Y-143947242D01*
X253398576Y-144008761D01*
X253385848Y-144070986D01*
X253366049Y-144130383D01*
X253340593Y-144188366D01*
X253309480Y-144242106D01*
X253272711Y-144293018D01*
X253230284Y-144339687D01*
X253183615Y-144382113D01*
X253132703Y-144418883D01*
X253078963Y-144449995D01*
X253020981Y-144475451D01*
X252961584Y-144495250D01*
X252899358Y-144507978D01*
X252837840Y-144514342D01*
X252774200Y-144514342D01*
X252712682Y-144507978D01*
X252650457Y-144495250D01*
X252591060Y-144475451D01*
X252533077Y-144449995D01*
X252479337Y-144418883D01*
X252428425Y-144382113D01*
X252381756Y-144339687D01*
X251603939Y-143561869D01*
X251561512Y-143515200D01*
X251524743Y-143464289D01*
X251493630Y-143410548D01*
X251468174Y-143352566D01*
X251448375Y-143293169D01*
X251435647Y-143230943D01*
X251429283Y-143169425D01*
X251429283Y-143105785D01*
X251435647Y-143044267D01*
X251448375Y-142982042D01*
X251468174Y-142922645D01*
X251493630Y-142864662D01*
X251524743Y-142810922D01*
X251561512Y-142760010D01*
X251603939Y-142713341D01*
X251650608Y-142670915D01*
X251701519Y-142634145D01*
X251755259Y-142603032D01*
X251813242Y-142577577D01*
X251872639Y-142557778D01*
X251934865Y-142545050D01*
X251996383Y-142538686D01*
X252060022Y-142538686D01*
X252121541Y-142545050D01*
G37*
X255183313Y-145606822D02*
X255245538Y-145619550D01*
X255304935Y-145639349D01*
X255362918Y-145664805D01*
X255416658Y-145695918D01*
X255467570Y-145732687D01*
X255514239Y-145775114D01*
X256079924Y-146340799D01*
X256122351Y-146387468D01*
X256159120Y-146438380D01*
X256190233Y-146492120D01*
X256215689Y-146550103D01*
X256235488Y-146609500D01*
X256248216Y-146671725D01*
X256254580Y-146733243D01*
X256254580Y-146796883D01*
X256248216Y-146858401D01*
X256235488Y-146920626D01*
X256215689Y-146980023D01*
X256190233Y-147038006D01*
X256159120Y-147091746D01*
X256122351Y-147142658D01*
X256079924Y-147189327D01*
X256033255Y-147231753D01*
X255982344Y-147268523D01*
X255928604Y-147299636D01*
X255870621Y-147325092D01*
X255811224Y-147344891D01*
X255748999Y-147357618D01*
X255687480Y-147363982D01*
X255623841Y-147363982D01*
X255562322Y-147357618D01*
X255500097Y-147344891D01*
X255440700Y-147325092D01*
X255382717Y-147299636D01*
X255328977Y-147268523D01*
X255278065Y-147231753D01*
X255231396Y-147189327D01*
X254665711Y-146623642D01*
X254623285Y-146576973D01*
X254586515Y-146526061D01*
X254555402Y-146472321D01*
X254529946Y-146414338D01*
X254510147Y-146354941D01*
X254497420Y-146292716D01*
X254491056Y-146231197D01*
X254491056Y-146167558D01*
X254497420Y-146106039D01*
X254510147Y-146043814D01*
X254529946Y-145984417D01*
X254555402Y-145926434D01*
X254586515Y-145872694D01*
X254623285Y-145821783D01*
X254665711Y-145775114D01*
X254712380Y-145732687D01*
X254763292Y-145695918D01*
X254817032Y-145664805D01*
X254875015Y-145639349D01*
X254934412Y-145619550D01*
X254996637Y-145606822D01*
X255058155Y-145600458D01*
X255121795Y-145600458D01*
X255183313Y-145606822D01*
G36*
X255183313Y-145606822D02*
G01*
X255245538Y-145619550D01*
X255304935Y-145639349D01*
X255362918Y-145664805D01*
X255416658Y-145695918D01*
X255467570Y-145732687D01*
X255514239Y-145775114D01*
X256079924Y-146340799D01*
X256122351Y-146387468D01*
X256159120Y-146438380D01*
X256190233Y-146492120D01*
X256215689Y-146550103D01*
X256235488Y-146609500D01*
X256248216Y-146671725D01*
X256254580Y-146733243D01*
X256254580Y-146796883D01*
X256248216Y-146858401D01*
X256235488Y-146920626D01*
X256215689Y-146980023D01*
X256190233Y-147038006D01*
X256159120Y-147091746D01*
X256122351Y-147142658D01*
X256079924Y-147189327D01*
X256033255Y-147231753D01*
X255982344Y-147268523D01*
X255928604Y-147299636D01*
X255870621Y-147325092D01*
X255811224Y-147344891D01*
X255748999Y-147357618D01*
X255687480Y-147363982D01*
X255623841Y-147363982D01*
X255562322Y-147357618D01*
X255500097Y-147344891D01*
X255440700Y-147325092D01*
X255382717Y-147299636D01*
X255328977Y-147268523D01*
X255278065Y-147231753D01*
X255231396Y-147189327D01*
X254665711Y-146623642D01*
X254623285Y-146576973D01*
X254586515Y-146526061D01*
X254555402Y-146472321D01*
X254529946Y-146414338D01*
X254510147Y-146354941D01*
X254497420Y-146292716D01*
X254491056Y-146231197D01*
X254491056Y-146167558D01*
X254497420Y-146106039D01*
X254510147Y-146043814D01*
X254529946Y-145984417D01*
X254555402Y-145926434D01*
X254586515Y-145872694D01*
X254623285Y-145821783D01*
X254665711Y-145775114D01*
X254712380Y-145732687D01*
X254763292Y-145695918D01*
X254817032Y-145664805D01*
X254875015Y-145639349D01*
X254934412Y-145619550D01*
X254996637Y-145606822D01*
X255058155Y-145600458D01*
X255121795Y-145600458D01*
X255183313Y-145606822D01*
G37*
X258230943Y-136435647D02*
X258293169Y-136448375D01*
X258352566Y-136468174D01*
X258410548Y-136493630D01*
X258464289Y-136524743D01*
X258515200Y-136561512D01*
X258561869Y-136603939D01*
X259339687Y-137381756D01*
X259382113Y-137428425D01*
X259418883Y-137479337D01*
X259449995Y-137533077D01*
X259475451Y-137591060D01*
X259495250Y-137650457D01*
X259507978Y-137712682D01*
X259514342Y-137774200D01*
X259514342Y-137837840D01*
X259507978Y-137899358D01*
X259495250Y-137961584D01*
X259475451Y-138020981D01*
X259449995Y-138078963D01*
X259418883Y-138132703D01*
X259382113Y-138183615D01*
X259339687Y-138230284D01*
X259293018Y-138272711D01*
X259242106Y-138309480D01*
X259188366Y-138340593D01*
X259130383Y-138366049D01*
X259070986Y-138385848D01*
X259008761Y-138398576D01*
X258947242Y-138404940D01*
X258883603Y-138404940D01*
X258822085Y-138398576D01*
X258759859Y-138385848D01*
X258700462Y-138366049D01*
X258642479Y-138340593D01*
X258588739Y-138309480D01*
X258537828Y-138272711D01*
X258491159Y-138230284D01*
X257713341Y-137452467D01*
X257670915Y-137405798D01*
X257634145Y-137354886D01*
X257603032Y-137301146D01*
X257577577Y-137243163D01*
X257557778Y-137183766D01*
X257545050Y-137121541D01*
X257538686Y-137060022D01*
X257538686Y-136996383D01*
X257545050Y-136934865D01*
X257557778Y-136872639D01*
X257577577Y-136813242D01*
X257603032Y-136755259D01*
X257634145Y-136701519D01*
X257670915Y-136650608D01*
X257713341Y-136603939D01*
X257760010Y-136561512D01*
X257810922Y-136524743D01*
X257864662Y-136493630D01*
X257922645Y-136468174D01*
X257982042Y-136448375D01*
X258044267Y-136435647D01*
X258105785Y-136429283D01*
X258169425Y-136429283D01*
X258230943Y-136435647D01*
G36*
X258230943Y-136435647D02*
G01*
X258293169Y-136448375D01*
X258352566Y-136468174D01*
X258410548Y-136493630D01*
X258464289Y-136524743D01*
X258515200Y-136561512D01*
X258561869Y-136603939D01*
X259339687Y-137381756D01*
X259382113Y-137428425D01*
X259418883Y-137479337D01*
X259449995Y-137533077D01*
X259475451Y-137591060D01*
X259495250Y-137650457D01*
X259507978Y-137712682D01*
X259514342Y-137774200D01*
X259514342Y-137837840D01*
X259507978Y-137899358D01*
X259495250Y-137961584D01*
X259475451Y-138020981D01*
X259449995Y-138078963D01*
X259418883Y-138132703D01*
X259382113Y-138183615D01*
X259339687Y-138230284D01*
X259293018Y-138272711D01*
X259242106Y-138309480D01*
X259188366Y-138340593D01*
X259130383Y-138366049D01*
X259070986Y-138385848D01*
X259008761Y-138398576D01*
X258947242Y-138404940D01*
X258883603Y-138404940D01*
X258822085Y-138398576D01*
X258759859Y-138385848D01*
X258700462Y-138366049D01*
X258642479Y-138340593D01*
X258588739Y-138309480D01*
X258537828Y-138272711D01*
X258491159Y-138230284D01*
X257713341Y-137452467D01*
X257670915Y-137405798D01*
X257634145Y-137354886D01*
X257603032Y-137301146D01*
X257577577Y-137243163D01*
X257557778Y-137183766D01*
X257545050Y-137121541D01*
X257538686Y-137060022D01*
X257538686Y-136996383D01*
X257545050Y-136934865D01*
X257557778Y-136872639D01*
X257577577Y-136813242D01*
X257603032Y-136755259D01*
X257634145Y-136701519D01*
X257670915Y-136650608D01*
X257713341Y-136603939D01*
X257760010Y-136561512D01*
X257810922Y-136524743D01*
X257864662Y-136493630D01*
X257922645Y-136468174D01*
X257982042Y-136448375D01*
X258044267Y-136435647D01*
X258105785Y-136429283D01*
X258169425Y-136429283D01*
X258230943Y-136435647D01*
G37*
X261292716Y-139497420D02*
X261354941Y-139510147D01*
X261414338Y-139529946D01*
X261472321Y-139555402D01*
X261526061Y-139586515D01*
X261576973Y-139623285D01*
X261623642Y-139665711D01*
X262189327Y-140231396D01*
X262231753Y-140278065D01*
X262268523Y-140328977D01*
X262299636Y-140382717D01*
X262325092Y-140440700D01*
X262344891Y-140500097D01*
X262357618Y-140562322D01*
X262363982Y-140623841D01*
X262363982Y-140687480D01*
X262357618Y-140748999D01*
X262344891Y-140811224D01*
X262325092Y-140870621D01*
X262299636Y-140928604D01*
X262268523Y-140982344D01*
X262231753Y-141033255D01*
X262189327Y-141079924D01*
X262142658Y-141122351D01*
X262091746Y-141159120D01*
X262038006Y-141190233D01*
X261980023Y-141215689D01*
X261920626Y-141235488D01*
X261858401Y-141248216D01*
X261796883Y-141254580D01*
X261733243Y-141254580D01*
X261671725Y-141248216D01*
X261609500Y-141235488D01*
X261550103Y-141215689D01*
X261492120Y-141190233D01*
X261438380Y-141159120D01*
X261387468Y-141122351D01*
X261340799Y-141079924D01*
X260775114Y-140514239D01*
X260732687Y-140467570D01*
X260695918Y-140416658D01*
X260664805Y-140362918D01*
X260639349Y-140304935D01*
X260619550Y-140245538D01*
X260606822Y-140183313D01*
X260600458Y-140121795D01*
X260600458Y-140058155D01*
X260606822Y-139996637D01*
X260619550Y-139934412D01*
X260639349Y-139875015D01*
X260664805Y-139817032D01*
X260695918Y-139763292D01*
X260732687Y-139712380D01*
X260775114Y-139665711D01*
X260821783Y-139623285D01*
X260872694Y-139586515D01*
X260926434Y-139555402D01*
X260984417Y-139529946D01*
X261043814Y-139510147D01*
X261106039Y-139497420D01*
X261167558Y-139491056D01*
X261231197Y-139491056D01*
X261292716Y-139497420D01*
G36*
X261292716Y-139497420D02*
G01*
X261354941Y-139510147D01*
X261414338Y-139529946D01*
X261472321Y-139555402D01*
X261526061Y-139586515D01*
X261576973Y-139623285D01*
X261623642Y-139665711D01*
X262189327Y-140231396D01*
X262231753Y-140278065D01*
X262268523Y-140328977D01*
X262299636Y-140382717D01*
X262325092Y-140440700D01*
X262344891Y-140500097D01*
X262357618Y-140562322D01*
X262363982Y-140623841D01*
X262363982Y-140687480D01*
X262357618Y-140748999D01*
X262344891Y-140811224D01*
X262325092Y-140870621D01*
X262299636Y-140928604D01*
X262268523Y-140982344D01*
X262231753Y-141033255D01*
X262189327Y-141079924D01*
X262142658Y-141122351D01*
X262091746Y-141159120D01*
X262038006Y-141190233D01*
X261980023Y-141215689D01*
X261920626Y-141235488D01*
X261858401Y-141248216D01*
X261796883Y-141254580D01*
X261733243Y-141254580D01*
X261671725Y-141248216D01*
X261609500Y-141235488D01*
X261550103Y-141215689D01*
X261492120Y-141190233D01*
X261438380Y-141159120D01*
X261387468Y-141122351D01*
X261340799Y-141079924D01*
X260775114Y-140514239D01*
X260732687Y-140467570D01*
X260695918Y-140416658D01*
X260664805Y-140362918D01*
X260639349Y-140304935D01*
X260619550Y-140245538D01*
X260606822Y-140183313D01*
X260600458Y-140121795D01*
X260600458Y-140058155D01*
X260606822Y-139996637D01*
X260619550Y-139934412D01*
X260639349Y-139875015D01*
X260664805Y-139817032D01*
X260695918Y-139763292D01*
X260732687Y-139712380D01*
X260775114Y-139665711D01*
X260821783Y-139623285D01*
X260872694Y-139586515D01*
X260926434Y-139555402D01*
X260984417Y-139529946D01*
X261043814Y-139510147D01*
X261106039Y-139497420D01*
X261167558Y-139491056D01*
X261231197Y-139491056D01*
X261292716Y-139497420D01*
G37*
%TD*%
D13*
%TO.C,TP8*%
X275478137Y-92037902D03*
%TD*%
%TO.C,TP5*%
X250854900Y-50649963D03*
%TD*%
%TO.C,TP7*%
X247775276Y-48553122D03*
%TD*%
%TO.C,TP3*%
X222962098Y-39521863D03*
%TD*%
%TO.C,TP14*%
X207037902Y-39521863D03*
%TD*%
D14*
%TO.C,J1*%
X252756523Y-142282006D03*
D15*
X253834860Y-141309734D03*
D16*
X253781827Y-142868905D03*
X257868905Y-138781827D03*
D14*
X253318673Y-141712785D03*
D15*
X254188414Y-140956181D03*
X254895521Y-140249074D03*
X255249074Y-139895521D03*
X255956181Y-139188414D03*
D14*
X256712785Y-138318673D03*
X257278470Y-137752987D03*
D15*
X256309734Y-138834860D03*
X255602627Y-139541967D03*
X254541967Y-140602627D03*
%TD*%
D13*
%TO.C,TP11*%
X156078525Y-115787962D03*
%TD*%
%TO.C,TP10*%
X271356651Y-76656311D03*
%TD*%
%TO.C,TP15*%
X199212038Y-41078525D03*
%TD*%
%TO.C,TP4*%
X230787962Y-41078525D03*
%TD*%
%TO.C,TP2*%
X173788997Y-144973918D03*
%TD*%
%TO.C,TP16*%
X191656311Y-43643349D03*
%TD*%
%TO.C,TP1*%
X168271289Y-139210044D03*
%TD*%
%TO.C,TP12*%
X154521863Y-107962098D03*
%TD*%
%TO.C,TP6*%
X244573387Y-46648198D03*
%TD*%
%TO.C,TP9*%
X273921475Y-84212038D03*
%TD*%
%TO.C,TP13*%
X158643349Y-123343689D03*
%TD*%
D17*
%TO.C,MB?*%
X149712821Y-105275819D03*
%TD*%
%TO.C,MB?*%
X149639494Y-95727502D03*
%TD*%
%TO.C,MB?*%
X145499964Y-100068591D03*
%TD*%
D18*
%TO.C,BOOT1*%
X183932549Y-145860404D03*
X181682549Y-149757518D03*
X190817451Y-149835404D03*
X188567451Y-153732518D03*
%TD*%
D17*
%TO.C,MB?*%
X149554619Y-102674322D03*
%TD*%
D19*
%TO.C,J7*%
X182441269Y-51990985D03*
D20*
X180178527Y-51708142D03*
D21*
X181076553Y-54402219D03*
X178382476Y-53504193D03*
X179280501Y-56198270D03*
X176586425Y-55300244D03*
X177484450Y-57994321D03*
X174790373Y-57096296D03*
X175688399Y-59790373D03*
X172994322Y-58892347D03*
X173892348Y-61586424D03*
X171198271Y-60688398D03*
X172096296Y-63382475D03*
X169402220Y-62484449D03*
X170300245Y-65178526D03*
X167606168Y-64280501D03*
X168504194Y-66974577D03*
%TD*%
D22*
%TO.C,J2*%
X267453377Y-123621086D03*
X268792769Y-120387508D03*
%TD*%
D17*
%TO.C,MB?*%
X145493292Y-100937384D03*
%TD*%
%TO.C,MB?*%
X145351414Y-104409378D03*
%TD*%
%TO.C,MB?*%
X145450839Y-97462751D03*
%TD*%
D23*
%TO.C,I2C1*%
X266066461Y-73449705D03*
D24*
X264796461Y-71250000D03*
X263526461Y-69050296D03*
%TD*%
D17*
%TO.C,MB?*%
X145445381Y-102674322D03*
%TD*%
%TO.C,MB?*%
X149521265Y-98331122D03*
%TD*%
D25*
%TO.C,Status_LED_TX1*%
X241414702Y-150825281D03*
X242985298Y-150174719D03*
%TD*%
D17*
%TO.C,MB?*%
X145360506Y-95727502D03*
%TD*%
%TO.C,MB?*%
X149549161Y-97462751D03*
%TD*%
%TO.C,MB?*%
X149506708Y-100937384D03*
%TD*%
D26*
%TO.C,J4*%
X239635648Y-156157046D03*
D24*
X237288994Y-157129062D03*
X238663632Y-153810392D03*
X236316978Y-154782408D03*
X237691616Y-151463738D03*
X235344962Y-152435754D03*
X236719600Y-149117084D03*
X234372946Y-150089100D03*
%TD*%
D27*
%TO.C,U4*%
X78745000Y-99050000D03*
X78745000Y-100000000D03*
X78745000Y-100950000D03*
X81255000Y-100950000D03*
X81255000Y-100000000D03*
X81255000Y-99050000D03*
%TD*%
D28*
%TO.C,RESET1*%
X165164596Y-124182549D03*
X161267482Y-126432549D03*
X169139596Y-131067451D03*
X165242482Y-133317451D03*
%TD*%
D17*
%TO.C,MB?*%
X149648586Y-104409378D03*
%TD*%
D29*
%TO.C,UART1*%
X227463291Y-156147389D03*
D24*
X224972096Y-156642918D03*
%TD*%
D30*
%TO.C,POWER_LED2*%
X264300000Y-140880000D03*
X263097918Y-139677918D03*
%TD*%
D31*
%TO.C,J6*%
X239329304Y-47796680D03*
D24*
X238357288Y-50143334D03*
X236982650Y-46824664D03*
X236010634Y-49171318D03*
X234635996Y-45852648D03*
X233663980Y-48199302D03*
%TD*%
D19*
%TO.C,J11*%
X252798393Y-55731580D03*
D32*
X252515550Y-57994322D03*
D21*
X255209627Y-57096296D03*
X254311601Y-59790373D03*
X257005678Y-58892348D03*
X256107652Y-61586424D03*
X258801729Y-60688399D03*
%TD*%
D17*
%TO.C,MB?*%
X145298085Y-94860929D03*
%TD*%
%TO.C,MB?*%
X149500036Y-100068591D03*
%TD*%
%TO.C,MB?*%
X145287179Y-105275819D03*
%TD*%
%TO.C,MB?*%
X149701915Y-94860929D03*
%TD*%
%TO.C,MB?*%
X145478735Y-98331122D03*
%TD*%
D25*
%TO.C,Status_LED_RX1*%
X242214702Y-152725281D03*
X243785298Y-152074719D03*
%TD*%
D33*
%TO.C,S6*%
X25000000Y-100000000D03*
%TD*%
%TO.C,S8*%
X80000000Y-155000000D03*
%TD*%
D34*
%TO.C,L3*%
X80000000Y-119000000D03*
D35*
X77000000Y-107000000D03*
X83000000Y-107000000D03*
%TD*%
D33*
%TO.C,S3*%
X215000000Y-155000000D03*
%TD*%
D34*
%TO.C,L2*%
X61000000Y-100000000D03*
D36*
X73000000Y-97000000D03*
X73000000Y-103000000D03*
%TD*%
D37*
%TO.C,J3*%
X273128477Y-109013495D03*
D24*
X270637282Y-108517966D03*
X272632948Y-111504690D03*
X270141752Y-111009160D03*
X272137417Y-113995883D03*
X269646224Y-113500355D03*
%TD*%
D34*
%TO.C,L1*%
X80000000Y-81000000D03*
D38*
X83000000Y-93000000D03*
X77000000Y-93000000D03*
%TD*%
D33*
%TO.C,S1*%
X215000000Y-45000000D03*
%TD*%
%TO.C,S5*%
X80000000Y-45000000D03*
%TD*%
D19*
%TO.C,J8*%
X46691735Y-51241452D03*
D20*
X46974578Y-53504194D03*
D21*
X44280501Y-52606168D03*
X45178527Y-55300245D03*
X42484450Y-54402220D03*
X43382476Y-57096296D03*
X40688399Y-56198271D03*
X41586424Y-58892348D03*
X38892347Y-57994322D03*
X39790373Y-60688399D03*
X37096296Y-59790373D03*
X37994322Y-62484450D03*
X35300245Y-61586425D03*
X36198271Y-64280501D03*
X33504194Y-63382476D03*
X34402219Y-66076553D03*
X31708143Y-65178527D03*
%TD*%
D19*
%TO.C,J12*%
X117048860Y-56481113D03*
D32*
X119311602Y-56198270D03*
D21*
X118413576Y-58892347D03*
X121107653Y-57994321D03*
X120209628Y-60688398D03*
X122903704Y-59790372D03*
X122005679Y-62484449D03*
%TD*%
D34*
%TO.C,L4*%
X99000000Y-100000000D03*
D39*
X87000000Y-103000000D03*
X87000000Y-97000000D03*
%TD*%
D33*
%TO.C,S2*%
X160000000Y-100000000D03*
%TD*%
%TO.C,S4*%
X270000000Y-100000000D03*
%TD*%
%TO.C,S7*%
X135000000Y-100000000D03*
%TD*%
M02*
