%TF.GenerationSoftware,KiCad,Pcbnew,10.0.0*%
%TF.CreationDate,2026-06-05T13:55:21+02:00*%
%TF.ProjectId,Maglev,4d61676c-6576-42e6-9b69-6361645f7063,rev?*%
%TF.SameCoordinates,Original*%
%TF.FileFunction,Copper,L4,Bot*%
%TF.FilePolarity,Positive*%
%FSLAX46Y46*%
G04 Gerber Fmt 4.6, Leading zero omitted, Abs format (unit mm)*
G04 Created by KiCad (PCBNEW 10.0.0) date 2026-06-05 13:55:21*
%MOMM*%
%LPD*%
G01*
G04 APERTURE LIST*
G04 Aperture macros list*
%AMRoundRect*
0 Rectangle with rounded corners*
0 $1 Rounding radius*
0 $2 $3 $4 $5 $6 $7 $8 $9 X,Y pos of 4 corners*
0 Add a 4 corners polygon primitive as box body*
4,1,4,$2,$3,$4,$5,$6,$7,$8,$9,$2,$3,0*
0 Add four circle primitives for the rounded corners*
1,1,$1+$1,$2,$3*
1,1,$1+$1,$4,$5*
1,1,$1+$1,$6,$7*
1,1,$1+$1,$8,$9*
0 Add four rect primitives between the rounded corners*
20,1,$1+$1,$2,$3,$4,$5,0*
20,1,$1+$1,$4,$5,$6,$7,0*
20,1,$1+$1,$6,$7,$8,$9,0*
20,1,$1+$1,$8,$9,$2,$3,0*%
%AMHorizOval*
0 Thick line with rounded ends*
0 $1 width*
0 $2 $3 position (X,Y) of the first rounded end (center of the circle)*
0 $4 $5 position (X,Y) of the second rounded end (center of the circle)*
0 Add line between two ends*
20,1,$1,$2,$3,$4,$5,0*
0 Add two circle primitives to create the rounded ends*
1,1,$1,$2,$3*
1,1,$1,$4,$5*%
%AMRotRect*
0 Rectangle, with rotation*
0 The origin of the aperture is its center*
0 $1 length*
0 $2 width*
0 $3 Rotation angle, in degrees counterclockwise*
0 Add horizontal line*
21,1,$1,$2,0,0,$3*%
%AMFreePoly0*
4,1,153,0.256581,0.154743,0.258810,0.154000,0.260000,0.154000,0.261581,0.153743,0.263810,0.153000,0.265000,0.153000,0.266581,0.152743,0.269581,0.151743,0.270236,0.151472,0.271920,0.150630,0.273810,0.150000,0.300000,0.150000,0.300000,0.123809,0.300630,0.121920,0.301472,0.120236,0.301743,0.119581,0.302743,0.116581,0.303000,0.115000,0.303000,0.113810,0.303743,0.111581,
0.304000,0.110000,0.304000,0.108810,0.304743,0.106581,0.305000,0.105000,0.305000,-0.455000,0.304743,-0.456581,0.304000,-0.458810,0.304000,-0.460001,0.303743,-0.461581,0.303000,-0.463810,0.303000,-0.465000,0.302743,-0.466581,0.301743,-0.469580,0.301472,-0.470236,0.300630,-0.471920,0.299743,-0.474581,0.298536,-0.476536,0.297108,-0.477965,0.296471,-0.479236,0.295536,-0.480536,
0.294108,-0.481964,0.293472,-0.483235,0.292536,-0.484536,0.284536,-0.492536,0.283236,-0.493471,0.281964,-0.494108,0.280536,-0.495536,0.279236,-0.496472,0.277964,-0.497108,0.276536,-0.498536,0.274581,-0.499743,0.271920,-0.500629,0.270236,-0.501472,0.269581,-0.501742,0.266581,-0.502743,0.265000,-0.503000,0.263810,-0.503000,0.261581,-0.503743,0.260000,-0.504000,0.258810,-0.504000,
0.256581,-0.504743,0.255000,-0.505000,0.095000,-0.505000,0.093419,-0.504743,0.091190,-0.504000,0.090000,-0.504000,0.088419,-0.503743,0.086190,-0.503000,0.085000,-0.503000,0.083419,-0.502743,0.080419,-0.501743,0.079764,-0.501472,0.078080,-0.500630,0.075419,-0.499743,0.073464,-0.498536,0.072037,-0.497108,0.070764,-0.496472,0.069464,-0.495535,0.068036,-0.494108,0.066764,-0.493472,
0.065464,-0.492537,0.057464,-0.484536,0.056528,-0.483236,0.055893,-0.481964,0.054464,-0.480536,0.053528,-0.479236,0.052892,-0.477964,0.051464,-0.476536,0.050258,-0.474581,0.049370,-0.471920,0.048528,-0.470237,0.048257,-0.469581,0.047257,-0.466581,0.047000,-0.465000,0.047000,-0.463810,0.046258,-0.461581,0.046000,-0.460000,0.046000,-0.458810,0.045257,-0.456581,0.045000,-0.455000,
0.045000,-0.155000,-0.255000,-0.155000,-0.256581,-0.154743,-0.258810,-0.154000,-0.260000,-0.154000,-0.261581,-0.153743,-0.263810,-0.153000,-0.265000,-0.153000,-0.266581,-0.152743,-0.269581,-0.151743,-0.270236,-0.151472,-0.271920,-0.150630,-0.273810,-0.150000,-0.300000,-0.150000,-0.300000,-0.123810,-0.300630,-0.121920,-0.301472,-0.120236,-0.301743,-0.119581,-0.302743,-0.116581,-0.303000,-0.115000,
-0.303000,-0.113810,-0.303743,-0.111581,-0.304000,-0.110000,-0.304000,-0.108810,-0.304743,-0.106581,-0.305000,-0.105000,-0.305000,0.105000,-0.304743,0.106581,-0.304000,0.108810,-0.304000,0.110000,-0.303743,0.111581,-0.303000,0.113810,-0.303000,0.115000,-0.302743,0.116581,-0.301743,0.119581,-0.301472,0.120236,-0.300630,0.121920,-0.300000,0.123810,-0.300000,0.150000,-0.273810,0.150000,
-0.271920,0.150630,-0.270236,0.151472,-0.269581,0.151743,-0.266581,0.152743,-0.265000,0.153000,-0.263810,0.153000,-0.261581,0.153743,-0.260000,0.154000,-0.258810,0.154000,-0.256581,0.154743,-0.255000,0.155000,0.255000,0.155000,0.256581,0.154743,0.256581,0.154743,$1*%
%AMFreePoly1*
4,1,153,0.256581,0.504743,0.258810,0.504000,0.260000,0.504000,0.261581,0.503743,0.263810,0.503000,0.265000,0.503000,0.266581,0.502743,0.269581,0.501742,0.270236,0.501472,0.271920,0.500629,0.274581,0.499743,0.276536,0.498536,0.277964,0.497108,0.279236,0.496472,0.280536,0.495536,0.281964,0.494108,0.283236,0.493471,0.284536,0.492536,0.292536,0.484536,0.293472,0.483235,
0.294108,0.481964,0.295536,0.480536,0.296471,0.479236,0.297108,0.477965,0.298536,0.476536,0.299743,0.474581,0.300630,0.471920,0.301472,0.470236,0.301743,0.469580,0.302743,0.466581,0.303000,0.465000,0.303000,0.463810,0.303743,0.461581,0.304000,0.460001,0.304000,0.458810,0.304743,0.456581,0.305000,0.455000,0.305000,-0.105000,0.304743,-0.106581,0.304000,-0.108810,
0.304000,-0.110000,0.303743,-0.111581,0.303000,-0.113810,0.303000,-0.115000,0.302743,-0.116581,0.301743,-0.119581,0.301472,-0.120236,0.300630,-0.121920,0.300000,-0.123810,0.300000,-0.150000,0.273810,-0.150000,0.271920,-0.150630,0.270236,-0.151472,0.269581,-0.151743,0.266581,-0.152743,0.265000,-0.153000,0.263810,-0.153000,0.261581,-0.153743,0.260000,-0.154000,0.258810,-0.154000,
0.256581,-0.154743,0.255000,-0.155000,-0.255000,-0.155000,-0.256581,-0.154743,-0.258810,-0.154000,-0.260000,-0.154000,-0.261581,-0.153743,-0.263810,-0.153000,-0.265000,-0.153000,-0.266581,-0.152743,-0.269581,-0.151743,-0.270236,-0.151472,-0.271920,-0.150630,-0.273810,-0.150000,-0.300000,-0.150000,-0.300000,-0.123810,-0.300630,-0.121920,-0.301472,-0.120236,-0.301743,-0.119581,-0.302743,-0.116581,
-0.303000,-0.115000,-0.303000,-0.113810,-0.303743,-0.111581,-0.304000,-0.110000,-0.304000,-0.108810,-0.304743,-0.106581,-0.305000,-0.105000,-0.305000,0.105000,-0.304743,0.106581,-0.304000,0.108810,-0.304000,0.110000,-0.303743,0.111581,-0.303000,0.113810,-0.303000,0.115000,-0.302743,0.116581,-0.301743,0.119581,-0.301472,0.120236,-0.300630,0.121920,-0.300000,0.123810,-0.300000,0.150000,
-0.273810,0.150000,-0.271920,0.150630,-0.270236,0.151472,-0.269581,0.151743,-0.266581,0.152743,-0.265000,0.153000,-0.263810,0.153000,-0.261581,0.153743,-0.260000,0.154000,-0.258810,0.154000,-0.256581,0.154743,-0.255000,0.155000,0.045000,0.155000,0.045000,0.455000,0.045257,0.456581,0.046000,0.458810,0.046000,0.460000,0.046258,0.461581,0.047000,0.463810,0.047000,0.465000,
0.047257,0.466581,0.048257,0.469581,0.048528,0.470237,0.049370,0.471920,0.050258,0.474581,0.051464,0.476536,0.052892,0.477964,0.053528,0.479236,0.054464,0.480536,0.055893,0.481964,0.056528,0.483236,0.057464,0.484536,0.065464,0.492537,0.066764,0.493472,0.068036,0.494108,0.069464,0.495535,0.070764,0.496472,0.072037,0.497108,0.073464,0.498536,0.075419,0.499743,
0.078080,0.500630,0.079764,0.501472,0.080419,0.501743,0.083419,0.502743,0.085000,0.503000,0.086190,0.503000,0.088419,0.503743,0.090000,0.504000,0.091190,0.504000,0.093419,0.504743,0.095000,0.505000,0.255000,0.505000,0.256581,0.504743,0.256581,0.504743,$1*%
%AMFreePoly2*
4,1,153,-0.093419,0.504743,-0.091190,0.504000,-0.090000,0.504000,-0.088419,0.503743,-0.086190,0.503000,-0.085000,0.503000,-0.083419,0.502743,-0.080419,0.501743,-0.079764,0.501472,-0.078080,0.500630,-0.075419,0.499743,-0.073464,0.498536,-0.072037,0.497108,-0.070764,0.496472,-0.069464,0.495535,-0.068036,0.494108,-0.066764,0.493472,-0.065464,0.492537,-0.057464,0.484536,-0.056528,0.483236,
-0.055893,0.481964,-0.054464,0.480536,-0.053528,0.479236,-0.052892,0.477964,-0.051464,0.476536,-0.050258,0.474581,-0.049370,0.471920,-0.048528,0.470237,-0.048257,0.469581,-0.047257,0.466581,-0.047000,0.465000,-0.047000,0.463810,-0.046258,0.461581,-0.046000,0.460000,-0.046000,0.458810,-0.045257,0.456581,-0.045000,0.455000,-0.045000,0.155000,0.255000,0.155000,0.256581,0.154743,
0.258810,0.154000,0.260000,0.154000,0.261581,0.153743,0.263810,0.153000,0.265000,0.153000,0.266581,0.152743,0.269581,0.151743,0.270236,0.151472,0.271920,0.150630,0.273810,0.150000,0.300000,0.150000,0.300000,0.123809,0.300630,0.121920,0.301472,0.120236,0.301743,0.119581,0.302743,0.116581,0.303000,0.115000,0.303000,0.113810,0.303743,0.111581,0.304000,0.110000,
0.304000,0.108810,0.304743,0.106581,0.305000,0.105000,0.305000,-0.105000,0.304743,-0.106581,0.304000,-0.108810,0.304000,-0.110000,0.303743,-0.111581,0.303000,-0.113810,0.303000,-0.115000,0.302743,-0.116581,0.301743,-0.119581,0.301472,-0.120236,0.300630,-0.121920,0.300000,-0.123810,0.300000,-0.150000,0.273810,-0.150000,0.271920,-0.150630,0.270236,-0.151472,0.269581,-0.151743,
0.266581,-0.152743,0.265000,-0.153000,0.263810,-0.153000,0.261581,-0.153743,0.260000,-0.154000,0.258810,-0.154000,0.256581,-0.154743,0.255000,-0.155000,-0.255000,-0.155000,-0.256581,-0.154743,-0.258810,-0.154000,-0.260000,-0.154000,-0.261581,-0.153743,-0.263810,-0.153000,-0.265000,-0.153000,-0.266581,-0.152743,-0.269581,-0.151743,-0.270236,-0.151472,-0.271920,-0.150630,-0.273810,-0.150000,
-0.300000,-0.150000,-0.300000,-0.123810,-0.300630,-0.121920,-0.301472,-0.120236,-0.301743,-0.119581,-0.302743,-0.116581,-0.303000,-0.115000,-0.303000,-0.113810,-0.303743,-0.111581,-0.304000,-0.110000,-0.304000,-0.108810,-0.304743,-0.106581,-0.305000,-0.105000,-0.305000,0.455000,-0.304743,0.456581,-0.304000,0.458810,-0.304000,0.460001,-0.303743,0.461581,-0.303000,0.463810,-0.303000,0.465000,
-0.302743,0.466581,-0.301743,0.469580,-0.301472,0.470236,-0.300630,0.471920,-0.299743,0.474581,-0.298536,0.476536,-0.297108,0.477965,-0.296471,0.479236,-0.295536,0.480536,-0.294108,0.481964,-0.293472,0.483235,-0.292536,0.484536,-0.284536,0.492536,-0.283236,0.493471,-0.281964,0.494108,-0.280536,0.495536,-0.279236,0.496472,-0.277964,0.497108,-0.276536,0.498536,-0.274581,0.499743,
-0.271920,0.500629,-0.270236,0.501472,-0.269581,0.501742,-0.266581,0.502743,-0.265000,0.503000,-0.263810,0.503000,-0.261581,0.503743,-0.260000,0.504000,-0.258810,0.504000,-0.256581,0.504743,-0.255000,0.505000,-0.095000,0.505000,-0.093419,0.504743,-0.093419,0.504743,$1*%
%AMFreePoly3*
4,1,153,0.256581,0.154743,0.258810,0.154000,0.260000,0.154000,0.261581,0.153743,0.263810,0.153000,0.265000,0.153000,0.266581,0.152743,0.269581,0.151743,0.270236,0.151472,0.271920,0.150630,0.273810,0.150000,0.300000,0.150000,0.300000,0.123809,0.300630,0.121920,0.301472,0.120236,0.301743,0.119581,0.302743,0.116581,0.303000,0.115000,0.303000,0.113810,0.303743,0.111581,
0.304000,0.110000,0.304000,0.108810,0.304743,0.106581,0.305000,0.105000,0.305000,-0.105000,0.304743,-0.106581,0.304000,-0.108810,0.304000,-0.110000,0.303743,-0.111581,0.303000,-0.113810,0.303000,-0.115000,0.302743,-0.116581,0.301743,-0.119581,0.301472,-0.120236,0.300630,-0.121920,0.300000,-0.123810,0.300000,-0.150000,0.273810,-0.150000,0.271920,-0.150630,0.270236,-0.151472,
0.269581,-0.151743,0.266581,-0.152743,0.265000,-0.153000,0.263810,-0.153000,0.261581,-0.153743,0.260000,-0.154000,0.258810,-0.154000,0.256581,-0.154743,0.255000,-0.155000,-0.045000,-0.155000,-0.045000,-0.455000,-0.045257,-0.456581,-0.046000,-0.458810,-0.046000,-0.460000,-0.046258,-0.461581,-0.047000,-0.463810,-0.047000,-0.465000,-0.047257,-0.466581,-0.048257,-0.469581,-0.048528,-0.470237,
-0.049370,-0.471920,-0.050258,-0.474581,-0.051464,-0.476536,-0.052892,-0.477964,-0.053528,-0.479236,-0.054464,-0.480536,-0.055893,-0.481964,-0.056528,-0.483236,-0.057464,-0.484536,-0.065464,-0.492537,-0.066764,-0.493472,-0.068036,-0.494108,-0.069464,-0.495535,-0.070764,-0.496472,-0.072037,-0.497108,-0.073464,-0.498536,-0.075419,-0.499743,-0.078080,-0.500630,-0.079764,-0.501472,-0.080419,-0.501743,
-0.083419,-0.502743,-0.085000,-0.503000,-0.086190,-0.503000,-0.088419,-0.503743,-0.090000,-0.504000,-0.091190,-0.504000,-0.093419,-0.504743,-0.095000,-0.505000,-0.255000,-0.505000,-0.256581,-0.504743,-0.258810,-0.504000,-0.260000,-0.504000,-0.261581,-0.503743,-0.263810,-0.503000,-0.265000,-0.503000,-0.266581,-0.502743,-0.269581,-0.501742,-0.270236,-0.501472,-0.271920,-0.500629,-0.274581,-0.499743,
-0.276536,-0.498536,-0.277964,-0.497108,-0.279236,-0.496472,-0.280536,-0.495536,-0.281964,-0.494108,-0.283236,-0.493471,-0.284536,-0.492536,-0.292536,-0.484536,-0.293472,-0.483235,-0.294108,-0.481964,-0.295536,-0.480536,-0.296471,-0.479236,-0.297108,-0.477965,-0.298536,-0.476536,-0.299743,-0.474581,-0.300630,-0.471920,-0.301472,-0.470236,-0.301743,-0.469580,-0.302743,-0.466581,-0.303000,-0.465000,
-0.303000,-0.463810,-0.303743,-0.461581,-0.304000,-0.460001,-0.304000,-0.458810,-0.304743,-0.456581,-0.305000,-0.455000,-0.305000,0.105000,-0.304743,0.106581,-0.304000,0.108810,-0.304000,0.110000,-0.303743,0.111581,-0.303000,0.113810,-0.303000,0.115000,-0.302743,0.116581,-0.301743,0.119581,-0.301472,0.120236,-0.300630,0.121920,-0.300000,0.123810,-0.300000,0.150000,-0.273810,0.150000,
-0.271920,0.150630,-0.270236,0.151472,-0.269581,0.151743,-0.266581,0.152743,-0.265000,0.153000,-0.263810,0.153000,-0.261581,0.153743,-0.260000,0.154000,-0.258810,0.154000,-0.256581,0.154743,-0.255000,0.155000,0.255000,0.155000,0.256581,0.154743,0.256581,0.154743,$1*%
G04 Aperture macros list end*
%ADD10C,0.150000*%
%TA.AperFunction,NonConductor*%
%ADD11C,0.150000*%
%TD*%
%TA.AperFunction,ComponentPad*%
%ADD12HorizOval,1.100000X-0.459619X0.459619X0.459619X-0.459619X0*%
%TD*%
%TA.AperFunction,ComponentPad*%
%ADD13HorizOval,1.100000X-0.353553X0.353553X0.353553X-0.353553X0*%
%TD*%
%TA.AperFunction,ComponentPad*%
%ADD14RotRect,1.300000X1.300000X45.000000*%
%TD*%
%TA.AperFunction,ComponentPad*%
%ADD15C,1.300000*%
%TD*%
%TA.AperFunction,ComponentPad*%
%ADD16C,1.800000*%
%TD*%
%TA.AperFunction,ComponentPad*%
%ADD17RotRect,1.650000X1.650000X348.750000*%
%TD*%
%TA.AperFunction,ComponentPad*%
%ADD18C,1.650000*%
%TD*%
%TA.AperFunction,ComponentPad*%
%ADD19RotRect,1.650000X1.650000X120.000000*%
%TD*%
%TA.AperFunction,ComponentPad*%
%ADD20RotRect,1.650000X1.650000X112.500000*%
%TD*%
%TA.AperFunction,ComponentPad*%
%ADD21RotRect,1.650000X1.650000X191.250000*%
%TD*%
%TA.AperFunction,ComponentPad*%
%ADD22RotRect,1.650000X1.650000X247.500000*%
%TD*%
%TA.AperFunction,ComponentPad*%
%ADD23RotRect,1.300000X1.300000X135.000000*%
%TD*%
%TA.AperFunction,SMDPad,CuDef*%
%ADD24RoundRect,0.051250X0.733750X0.153750X-0.733750X0.153750X-0.733750X-0.153750X0.733750X-0.153750X0*%
%TD*%
%TA.AperFunction,SMDPad,CuDef*%
%ADD25R,2.480000X3.400000*%
%TD*%
%TA.AperFunction,SMDPad,CuDef*%
%ADD26RotRect,0.950000X1.750000X45.000000*%
%TD*%
%TA.AperFunction,SMDPad,CuDef*%
%ADD27RotRect,1.750000X3.200000X135.000000*%
%TD*%
%TA.AperFunction,SMDPad,CuDef*%
%ADD28RoundRect,0.062500X-0.220971X-0.309359X0.309359X0.220971X0.220971X0.309359X-0.309359X-0.220971X0*%
%TD*%
%TA.AperFunction,SMDPad,CuDef*%
%ADD29RoundRect,0.062500X0.220971X-0.309359X0.309359X-0.220971X-0.220971X0.309359X-0.309359X0.220971X0*%
%TD*%
%TA.AperFunction,HeatsinkPad*%
%ADD30RotRect,3.450000X3.450000X45.000000*%
%TD*%
%TA.AperFunction,SMDPad,CuDef*%
%ADD31RotRect,0.900000X1.600000X60.000000*%
%TD*%
%TA.AperFunction,SMDPad,CuDef*%
%ADD32RotRect,0.700000X1.300000X315.000000*%
%TD*%
%TA.AperFunction,SMDPad,CuDef*%
%ADD33R,0.600000X0.900000*%
%TD*%
%TA.AperFunction,SMDPad,CuDef*%
%ADD34R,1.600000X0.900000*%
%TD*%
%TA.AperFunction,SMDPad,CuDef*%
%ADD35RotRect,0.700000X1.300000X225.000000*%
%TD*%
%TA.AperFunction,SMDPad,CuDef*%
%ADD36RotRect,0.780000X0.880000X45.000000*%
%TD*%
%TA.AperFunction,SMDPad,CuDef*%
%ADD37R,0.900000X2.500000*%
%TD*%
%TA.AperFunction,SMDPad,CuDef*%
%ADD38R,1.300000X0.700000*%
%TD*%
%TA.AperFunction,SMDPad,CuDef*%
%ADD39R,0.900000X1.600000*%
%TD*%
%TA.AperFunction,ComponentPad*%
%ADD40RoundRect,0.190500X-0.444500X1.079500X-0.444500X-1.079500X0.444500X-1.079500X0.444500X1.079500X0*%
%TD*%
%TA.AperFunction,SMDPad,CuDef*%
%ADD41RotRect,0.900000X1.600000X225.000000*%
%TD*%
%TA.AperFunction,SMDPad,CuDef*%
%ADD42RotRect,0.900000X1.600000X135.000000*%
%TD*%
%TA.AperFunction,SMDPad,CuDef*%
%ADD43RotRect,0.900000X1.600000X45.000000*%
%TD*%
%TA.AperFunction,ComponentPad*%
%ADD44RoundRect,0.190500X1.079500X0.444500X-1.079500X0.444500X-1.079500X-0.444500X1.079500X-0.444500X0*%
%TD*%
%TA.AperFunction,SMDPad,CuDef*%
%ADD45RotRect,0.800000X0.800000X225.000000*%
%TD*%
%TA.AperFunction,SMDPad,CuDef*%
%ADD46RotRect,0.625000X1.000000X45.000000*%
%TD*%
%TA.AperFunction,SMDPad,CuDef*%
%ADD47RotRect,0.900000X1.600000X210.000000*%
%TD*%
%TA.AperFunction,ComponentPad*%
%ADD48RoundRect,0.190500X0.444500X-1.079500X0.444500X1.079500X-0.444500X1.079500X-0.444500X-1.079500X0*%
%TD*%
%TA.AperFunction,SMDPad,CuDef*%
%ADD49RotRect,0.900000X1.600000X22.500000*%
%TD*%
%TA.AperFunction,SMDPad,CuDef*%
%ADD50RotRect,0.800000X0.800000X135.000000*%
%TD*%
%TA.AperFunction,SMDPad,CuDef*%
%ADD51RotRect,0.600000X0.900000X135.000000*%
%TD*%
%TA.AperFunction,SMDPad,CuDef*%
%ADD52RotRect,0.625000X1.000000X135.000000*%
%TD*%
%TA.AperFunction,SMDPad,CuDef*%
%ADD53RotRect,0.900000X1.600000X315.000000*%
%TD*%
%TA.AperFunction,SMDPad,CuDef*%
%ADD54RotRect,0.900000X1.600000X30.000000*%
%TD*%
%TA.AperFunction,SMDPad,CuDef*%
%ADD55FreePoly0,135.000000*%
%TD*%
%TA.AperFunction,SMDPad,CuDef*%
%ADD56RoundRect,0.046250X0.235113X-0.123744X-0.123744X0.235113X-0.235113X0.123744X0.123744X-0.235113X0*%
%TD*%
%TA.AperFunction,SMDPad,CuDef*%
%ADD57FreePoly1,135.000000*%
%TD*%
%TA.AperFunction,SMDPad,CuDef*%
%ADD58RoundRect,0.055500X0.876105X0.742462X0.742462X0.876105X-0.876105X-0.742462X-0.742462X-0.876105X0*%
%TD*%
%TA.AperFunction,SMDPad,CuDef*%
%ADD59FreePoly2,135.000000*%
%TD*%
%TA.AperFunction,SMDPad,CuDef*%
%ADD60FreePoly3,135.000000*%
%TD*%
%TA.AperFunction,ComponentPad*%
%ADD61RoundRect,0.190500X-1.079500X-0.444500X1.079500X-0.444500X1.079500X0.444500X-1.079500X0.444500X0*%
%TD*%
%TA.AperFunction,SMDPad,CuDef*%
%ADD62RotRect,0.500000X0.600000X45.000000*%
%TD*%
%TA.AperFunction,SMDPad,CuDef*%
%ADD63RotRect,0.950000X0.700000X135.000000*%
%TD*%
%TA.AperFunction,SMDPad,CuDef*%
%ADD64RoundRect,0.150000X0.468458X-0.256326X-0.256326X0.468458X-0.468458X0.256326X0.256326X-0.468458X0*%
%TD*%
%TA.AperFunction,ViaPad*%
%ADD65C,0.610000*%
%TD*%
%TA.AperFunction,Conductor*%
%ADD66C,0.203200*%
%TD*%
%TA.AperFunction,Conductor*%
%ADD67C,0.254000*%
%TD*%
%TA.AperFunction,Conductor*%
%ADD68C,0.762000*%
%TD*%
%TA.AperFunction,Conductor*%
%ADD69C,0.304800*%
%TD*%
%TA.AperFunction,Conductor*%
%ADD70C,0.508000*%
%TD*%
%TA.AperFunction,Conductor*%
%ADD71C,0.152400*%
%TD*%
G04 APERTURE END LIST*
D10*
D11*
X46586242Y-144390749D02*
X46821944Y-144626451D01*
X46451555Y-144996840D02*
X47158662Y-144289734D01*
X47158662Y-144289734D02*
X46821944Y-143953016D01*
X45609761Y-144087703D02*
X45643433Y-144188718D01*
X45643433Y-144188718D02*
X45778120Y-144323405D01*
X45778120Y-144323405D02*
X45879135Y-144357077D01*
X45879135Y-144357077D02*
X45980150Y-144323405D01*
X45980150Y-144323405D02*
X46249524Y-144054031D01*
X46249524Y-144054031D02*
X46283196Y-143953016D01*
X46283196Y-143953016D02*
X46249524Y-143852001D01*
X46249524Y-143852001D02*
X46114837Y-143717314D01*
X46114837Y-143717314D02*
X46013822Y-143683642D01*
X46013822Y-143683642D02*
X45912807Y-143717314D01*
X45912807Y-143717314D02*
X45845463Y-143784657D01*
X45845463Y-143784657D02*
X46114837Y-144188718D01*
X45138357Y-143683642D02*
X45239372Y-143717314D01*
X45239372Y-143717314D02*
X45340387Y-143683642D01*
X45340387Y-143683642D02*
X45946479Y-143077550D01*
X44868982Y-143414267D02*
X45340387Y-142942863D01*
X45576089Y-142707161D02*
X45576089Y-142774504D01*
X45576089Y-142774504D02*
X45508746Y-142774504D01*
X45508746Y-142774504D02*
X45508746Y-142707161D01*
X45508746Y-142707161D02*
X45576089Y-142707161D01*
X45576089Y-142707161D02*
X45508746Y-142774504D01*
X44599609Y-143144894D02*
X44700624Y-142303100D01*
X45071013Y-142673489D02*
X44229219Y-142774505D01*
X43555784Y-141360291D02*
X43421097Y-141292947D01*
X43421097Y-141292947D02*
X43353753Y-141292947D01*
X43353753Y-141292947D02*
X43252738Y-141326619D01*
X43252738Y-141326619D02*
X43151723Y-141427634D01*
X43151723Y-141427634D02*
X43118051Y-141528649D01*
X43118051Y-141528649D02*
X43118051Y-141595993D01*
X43118051Y-141595993D02*
X43151723Y-141697008D01*
X43151723Y-141697008D02*
X43421097Y-141966382D01*
X43421097Y-141966382D02*
X44128204Y-141259275D01*
X44128204Y-141259275D02*
X43892501Y-141023573D01*
X43892501Y-141023573D02*
X43791486Y-140989901D01*
X43791486Y-140989901D02*
X43724143Y-140989901D01*
X43724143Y-140989901D02*
X43623127Y-141023573D01*
X43623127Y-141023573D02*
X43555784Y-141090917D01*
X43555784Y-141090917D02*
X43522112Y-141191932D01*
X43522112Y-141191932D02*
X43522112Y-141259275D01*
X43522112Y-141259275D02*
X43555784Y-141360291D01*
X43555784Y-141360291D02*
X43791486Y-141595993D01*
X42410944Y-140956230D02*
X42781334Y-140585840D01*
X42781334Y-140585840D02*
X42882349Y-140552169D01*
X42882349Y-140552169D02*
X42983364Y-140585840D01*
X42983364Y-140585840D02*
X43118051Y-140720527D01*
X43118051Y-140720527D02*
X43151723Y-140821543D01*
X42444616Y-140922558D02*
X42478288Y-141023573D01*
X42478288Y-141023573D02*
X42646647Y-141191932D01*
X42646647Y-141191932D02*
X42747662Y-141225604D01*
X42747662Y-141225604D02*
X42848677Y-141191932D01*
X42848677Y-141191932D02*
X42916021Y-141124588D01*
X42916021Y-141124588D02*
X42949692Y-141023573D01*
X42949692Y-141023573D02*
X42916021Y-140922558D01*
X42916021Y-140922558D02*
X42747662Y-140754199D01*
X42747662Y-140754199D02*
X42713990Y-140653184D01*
X41838525Y-140316466D02*
X41872196Y-140417482D01*
X41872196Y-140417482D02*
X42006883Y-140552169D01*
X42006883Y-140552169D02*
X42107899Y-140585840D01*
X42107899Y-140585840D02*
X42208914Y-140552169D01*
X42208914Y-140552169D02*
X42478288Y-140282795D01*
X42478288Y-140282795D02*
X42511960Y-140181779D01*
X42511960Y-140181779D02*
X42478288Y-140080764D01*
X42478288Y-140080764D02*
X42343601Y-139946077D01*
X42343601Y-139946077D02*
X42242586Y-139912405D01*
X42242586Y-139912405D02*
X42141570Y-139946077D01*
X42141570Y-139946077D02*
X42074227Y-140013421D01*
X42074227Y-140013421D02*
X42343601Y-140417482D01*
X41198761Y-139676703D02*
X41232433Y-139777718D01*
X41232433Y-139777718D02*
X41367120Y-139912405D01*
X41367120Y-139912405D02*
X41468135Y-139946077D01*
X41468135Y-139946077D02*
X41535479Y-139946077D01*
X41535479Y-139946077D02*
X41636494Y-139912405D01*
X41636494Y-139912405D02*
X41838524Y-139710375D01*
X41838524Y-139710375D02*
X41872196Y-139609359D01*
X41872196Y-139609359D02*
X41872196Y-139542016D01*
X41872196Y-139542016D02*
X41838524Y-139441001D01*
X41838524Y-139441001D02*
X41703837Y-139306314D01*
X41703837Y-139306314D02*
X41602822Y-139272642D01*
X40862044Y-139407329D02*
X41569150Y-138700222D01*
X40558998Y-139104283D02*
X40929387Y-138733894D01*
X40929387Y-138733894D02*
X41030402Y-138700222D01*
X41030402Y-138700222D02*
X41131418Y-138733894D01*
X41131418Y-138733894D02*
X41232433Y-138834909D01*
X41232433Y-138834909D02*
X41266105Y-138935924D01*
X41266105Y-138935924D02*
X41266105Y-139003268D01*
X40121265Y-138666550D02*
X40222280Y-138700222D01*
X40222280Y-138700222D02*
X40323295Y-138666550D01*
X40323295Y-138666550D02*
X40929387Y-138060459D01*
X39616188Y-138094130D02*
X39649860Y-138195145D01*
X39649860Y-138195145D02*
X39784547Y-138329832D01*
X39784547Y-138329832D02*
X39885562Y-138363504D01*
X39885562Y-138363504D02*
X39986578Y-138329832D01*
X39986578Y-138329832D02*
X40255952Y-138060458D01*
X40255952Y-138060458D02*
X40289623Y-137959443D01*
X40289623Y-137959443D02*
X40255952Y-137858428D01*
X40255952Y-137858428D02*
X40121265Y-137723741D01*
X40121265Y-137723741D02*
X40020249Y-137690069D01*
X40020249Y-137690069D02*
X39919234Y-137723741D01*
X39919234Y-137723741D02*
X39851891Y-137791084D01*
X39851891Y-137791084D02*
X40121265Y-138195145D01*
X39481501Y-136612573D02*
X39043768Y-136174840D01*
X39043768Y-136174840D02*
X39010097Y-136679916D01*
X39010097Y-136679916D02*
X38909081Y-136578901D01*
X38909081Y-136578901D02*
X38808066Y-136545229D01*
X38808066Y-136545229D02*
X38740723Y-136545229D01*
X38740723Y-136545229D02*
X38639707Y-136578901D01*
X38639707Y-136578901D02*
X38471349Y-136747260D01*
X38471349Y-136747260D02*
X38437677Y-136848275D01*
X38437677Y-136848275D02*
X38437677Y-136915619D01*
X38437677Y-136915619D02*
X38471349Y-137016634D01*
X38471349Y-137016634D02*
X38673379Y-137218664D01*
X38673379Y-137218664D02*
X38774394Y-137252336D01*
X38774394Y-137252336D02*
X38841738Y-137252336D01*
X37663226Y-136208512D02*
X38067287Y-136612573D01*
X37865257Y-136410542D02*
X38572364Y-135703435D01*
X38572364Y-135703435D02*
X38538692Y-135871794D01*
X38538692Y-135871794D02*
X38538692Y-136006481D01*
X38538692Y-136006481D02*
X38572364Y-136107496D01*
X37932600Y-135063672D02*
X37865257Y-134996329D01*
X37865257Y-134996329D02*
X37764242Y-134962657D01*
X37764242Y-134962657D02*
X37696898Y-134962657D01*
X37696898Y-134962657D02*
X37595883Y-134996329D01*
X37595883Y-134996329D02*
X37427524Y-135097344D01*
X37427524Y-135097344D02*
X37259165Y-135265703D01*
X37259165Y-135265703D02*
X37158150Y-135434061D01*
X37158150Y-135434061D02*
X37124478Y-135535077D01*
X37124478Y-135535077D02*
X37124478Y-135602420D01*
X37124478Y-135602420D02*
X37158150Y-135703435D01*
X37158150Y-135703435D02*
X37225494Y-135770779D01*
X37225494Y-135770779D02*
X37326509Y-135804451D01*
X37326509Y-135804451D02*
X37393852Y-135804451D01*
X37393852Y-135804451D02*
X37494868Y-135770779D01*
X37494868Y-135770779D02*
X37663226Y-135669764D01*
X37663226Y-135669764D02*
X37831585Y-135501405D01*
X37831585Y-135501405D02*
X37932600Y-135333046D01*
X37932600Y-135333046D02*
X37966272Y-135232031D01*
X37966272Y-135232031D02*
X37966272Y-135164687D01*
X37966272Y-135164687D02*
X37932600Y-135063672D01*
X37461196Y-134592268D02*
X37023463Y-134154535D01*
X37023463Y-134154535D02*
X36989791Y-134659611D01*
X36989791Y-134659611D02*
X36888776Y-134558596D01*
X36888776Y-134558596D02*
X36787761Y-134524924D01*
X36787761Y-134524924D02*
X36720417Y-134524924D01*
X36720417Y-134524924D02*
X36619402Y-134558596D01*
X36619402Y-134558596D02*
X36451043Y-134726955D01*
X36451043Y-134726955D02*
X36417372Y-134827970D01*
X36417372Y-134827970D02*
X36417372Y-134895313D01*
X36417372Y-134895313D02*
X36451043Y-134996329D01*
X36451043Y-134996329D02*
X36653074Y-135198359D01*
X36653074Y-135198359D02*
X36754089Y-135232031D01*
X36754089Y-135232031D02*
X36821433Y-135232031D01*
X35642921Y-134188207D02*
X36046982Y-134592268D01*
X35844952Y-134390237D02*
X36552059Y-133683130D01*
X36552059Y-133683130D02*
X36518387Y-133851489D01*
X36518387Y-133851489D02*
X36518387Y-133986176D01*
X36518387Y-133986176D02*
X36552059Y-134087191D01*
X36013311Y-133279069D02*
X36013311Y-133211726D01*
X36013311Y-133211726D02*
X35979639Y-133110710D01*
X35979639Y-133110710D02*
X35811280Y-132942352D01*
X35811280Y-132942352D02*
X35710265Y-132908680D01*
X35710265Y-132908680D02*
X35642921Y-132908680D01*
X35642921Y-132908680D02*
X35541906Y-132942352D01*
X35541906Y-132942352D02*
X35474562Y-133009695D01*
X35474562Y-133009695D02*
X35407219Y-133144382D01*
X35407219Y-133144382D02*
X35407219Y-133952504D01*
X35407219Y-133952504D02*
X34969486Y-133514771D01*
X44134642Y-144956731D02*
X44471359Y-145293449D01*
X44471359Y-145293449D02*
X45178466Y-144586342D01*
X44067298Y-143946579D02*
X43595894Y-144417983D01*
X44370344Y-144249624D02*
X43999955Y-144620014D01*
X43999955Y-144620014D02*
X43898940Y-144653685D01*
X43898940Y-144653685D02*
X43797924Y-144620014D01*
X43797924Y-144620014D02*
X43696909Y-144518998D01*
X43696909Y-144518998D02*
X43663237Y-144417983D01*
X43663237Y-144417983D02*
X43663237Y-144350640D01*
X42989802Y-143744548D02*
X43023474Y-143845563D01*
X43023474Y-143845563D02*
X43158161Y-143980250D01*
X43158161Y-143980250D02*
X43259176Y-144013922D01*
X43259176Y-144013922D02*
X43326520Y-144013922D01*
X43326520Y-144013922D02*
X43427535Y-143980250D01*
X43427535Y-143980250D02*
X43629565Y-143778220D01*
X43629565Y-143778220D02*
X43663237Y-143677204D01*
X43663237Y-143677204D02*
X43663237Y-143609861D01*
X43663237Y-143609861D02*
X43629565Y-143508846D01*
X43629565Y-143508846D02*
X43494878Y-143374159D01*
X43494878Y-143374159D02*
X43393863Y-143340487D01*
X42350039Y-143172128D02*
X42720428Y-142801739D01*
X42720428Y-142801739D02*
X42821443Y-142768067D01*
X42821443Y-142768067D02*
X42922459Y-142801739D01*
X42922459Y-142801739D02*
X43057146Y-142936426D01*
X43057146Y-142936426D02*
X43090817Y-143037441D01*
X42383711Y-143138456D02*
X42417382Y-143239472D01*
X42417382Y-143239472D02*
X42585741Y-143407830D01*
X42585741Y-143407830D02*
X42686756Y-143441502D01*
X42686756Y-143441502D02*
X42787772Y-143407830D01*
X42787772Y-143407830D02*
X42855115Y-143340487D01*
X42855115Y-143340487D02*
X42888787Y-143239472D01*
X42888787Y-143239472D02*
X42855115Y-143138456D01*
X42855115Y-143138456D02*
X42686756Y-142970098D01*
X42686756Y-142970098D02*
X42653085Y-142869082D01*
X41474573Y-142296662D02*
X42181680Y-141589556D01*
X42181680Y-141589556D02*
X42013321Y-141421197D01*
X42013321Y-141421197D02*
X41878634Y-141353853D01*
X41878634Y-141353853D02*
X41743947Y-141353853D01*
X41743947Y-141353853D02*
X41642932Y-141387525D01*
X41642932Y-141387525D02*
X41474573Y-141488540D01*
X41474573Y-141488540D02*
X41373558Y-141589556D01*
X41373558Y-141589556D02*
X41272543Y-141757914D01*
X41272543Y-141757914D02*
X41238871Y-141858930D01*
X41238871Y-141858930D02*
X41238871Y-141993617D01*
X41238871Y-141993617D02*
X41306214Y-142128304D01*
X41306214Y-142128304D02*
X41474573Y-142296662D01*
X40531764Y-141286510D02*
X40565436Y-141387525D01*
X40565436Y-141387525D02*
X40700123Y-141522212D01*
X40700123Y-141522212D02*
X40801138Y-141555884D01*
X40801138Y-141555884D02*
X40902153Y-141522212D01*
X40902153Y-141522212D02*
X41171527Y-141252838D01*
X41171527Y-141252838D02*
X41205199Y-141151823D01*
X41205199Y-141151823D02*
X41171527Y-141050807D01*
X41171527Y-141050807D02*
X41036840Y-140916120D01*
X41036840Y-140916120D02*
X40935825Y-140882449D01*
X40935825Y-140882449D02*
X40834810Y-140916120D01*
X40834810Y-140916120D02*
X40767466Y-140983464D01*
X40767466Y-140983464D02*
X41036840Y-141387525D01*
X40632779Y-140512059D02*
X40161375Y-140983464D01*
X40565436Y-140579403D02*
X40565436Y-140512059D01*
X40565436Y-140512059D02*
X40531764Y-140411044D01*
X40531764Y-140411044D02*
X40430749Y-140310029D01*
X40430749Y-140310029D02*
X40329733Y-140276357D01*
X40329733Y-140276357D02*
X40228718Y-140310029D01*
X40228718Y-140310029D02*
X39858329Y-140680418D01*
X40060359Y-139939640D02*
X39689970Y-139569250D01*
X39689970Y-139569250D02*
X39588955Y-140411044D01*
X39588955Y-140411044D02*
X39218565Y-140040655D01*
X39184893Y-138592769D02*
X38747161Y-138155036D01*
X38747161Y-138155036D02*
X38713489Y-138660113D01*
X38713489Y-138660113D02*
X38612474Y-138559097D01*
X38612474Y-138559097D02*
X38511458Y-138525426D01*
X38511458Y-138525426D02*
X38444115Y-138525426D01*
X38444115Y-138525426D02*
X38343100Y-138559097D01*
X38343100Y-138559097D02*
X38174741Y-138727456D01*
X38174741Y-138727456D02*
X38141069Y-138828471D01*
X38141069Y-138828471D02*
X38141069Y-138895815D01*
X38141069Y-138895815D02*
X38174741Y-138996830D01*
X38174741Y-138996830D02*
X38376771Y-139198861D01*
X38376771Y-139198861D02*
X38477787Y-139232532D01*
X38477787Y-139232532D02*
X38545130Y-139232532D01*
X37366619Y-138188708D02*
X37770680Y-138592769D01*
X37568649Y-138390739D02*
X38275756Y-137683632D01*
X38275756Y-137683632D02*
X38242084Y-137851991D01*
X38242084Y-137851991D02*
X38242084Y-137986678D01*
X38242084Y-137986678D02*
X38275756Y-138087693D01*
X37635993Y-137043869D02*
X37568649Y-136976525D01*
X37568649Y-136976525D02*
X37467634Y-136942853D01*
X37467634Y-136942853D02*
X37400291Y-136942853D01*
X37400291Y-136942853D02*
X37299275Y-136976525D01*
X37299275Y-136976525D02*
X37130917Y-137077540D01*
X37130917Y-137077540D02*
X36962558Y-137245899D01*
X36962558Y-137245899D02*
X36861543Y-137414258D01*
X36861543Y-137414258D02*
X36827871Y-137515273D01*
X36827871Y-137515273D02*
X36827871Y-137582617D01*
X36827871Y-137582617D02*
X36861543Y-137683632D01*
X36861543Y-137683632D02*
X36928886Y-137750975D01*
X36928886Y-137750975D02*
X37029901Y-137784647D01*
X37029901Y-137784647D02*
X37097245Y-137784647D01*
X37097245Y-137784647D02*
X37198260Y-137750975D01*
X37198260Y-137750975D02*
X37366619Y-137649960D01*
X37366619Y-137649960D02*
X37534978Y-137481601D01*
X37534978Y-137481601D02*
X37635993Y-137313243D01*
X37635993Y-137313243D02*
X37669665Y-137212227D01*
X37669665Y-137212227D02*
X37669665Y-137144884D01*
X37669665Y-137144884D02*
X37635993Y-137043869D01*
X36558497Y-136437777D02*
X36087092Y-136909181D01*
X36996229Y-136336762D02*
X36659512Y-137010197D01*
X36659512Y-137010197D02*
X36221779Y-136572464D01*
X36087092Y-135494968D02*
X36423810Y-135831685D01*
X36423810Y-135831685D02*
X36120764Y-136202075D01*
X36120764Y-136202075D02*
X36120764Y-136134731D01*
X36120764Y-136134731D02*
X36087092Y-136033716D01*
X36087092Y-136033716D02*
X35918733Y-135865357D01*
X35918733Y-135865357D02*
X35817718Y-135831685D01*
X35817718Y-135831685D02*
X35750375Y-135831685D01*
X35750375Y-135831685D02*
X35649359Y-135865357D01*
X35649359Y-135865357D02*
X35481001Y-136033716D01*
X35481001Y-136033716D02*
X35447329Y-136134731D01*
X35447329Y-136134731D02*
X35447329Y-136202075D01*
X35447329Y-136202075D02*
X35481001Y-136303090D01*
X35481001Y-136303090D02*
X35649359Y-136471449D01*
X35649359Y-136471449D02*
X35750375Y-136505120D01*
X35750375Y-136505120D02*
X35817718Y-136505120D01*
X35817718Y-135225594D02*
X35346314Y-134754189D01*
X35346314Y-134754189D02*
X34942253Y-135764342D01*
X45572129Y-148671022D02*
X46279236Y-147963916D01*
X46279236Y-147963916D02*
X46009862Y-147694542D01*
X46009862Y-147694542D02*
X45908847Y-147660870D01*
X45908847Y-147660870D02*
X45841503Y-147660870D01*
X45841503Y-147660870D02*
X45740488Y-147694542D01*
X45740488Y-147694542D02*
X45639473Y-147795557D01*
X45639473Y-147795557D02*
X45605801Y-147896572D01*
X45605801Y-147896572D02*
X45605801Y-147963916D01*
X45605801Y-147963916D02*
X45639473Y-148064931D01*
X45639473Y-148064931D02*
X45908847Y-148334305D01*
X44865022Y-147963916D02*
X45336427Y-147492511D01*
X45201740Y-147627198D02*
X45235412Y-147526183D01*
X45235412Y-147526183D02*
X45235412Y-147458839D01*
X45235412Y-147458839D02*
X45201740Y-147357824D01*
X45201740Y-147357824D02*
X45134396Y-147290481D01*
X44326274Y-147425167D02*
X44427289Y-147458839D01*
X44427289Y-147458839D02*
X44494633Y-147458839D01*
X44494633Y-147458839D02*
X44595648Y-147425167D01*
X44595648Y-147425167D02*
X44797679Y-147223137D01*
X44797679Y-147223137D02*
X44831350Y-147122122D01*
X44831350Y-147122122D02*
X44831350Y-147054778D01*
X44831350Y-147054778D02*
X44797679Y-146953763D01*
X44797679Y-146953763D02*
X44696663Y-146852748D01*
X44696663Y-146852748D02*
X44595648Y-146819076D01*
X44595648Y-146819076D02*
X44528305Y-146819076D01*
X44528305Y-146819076D02*
X44427289Y-146852748D01*
X44427289Y-146852748D02*
X44225259Y-147054778D01*
X44225259Y-147054778D02*
X44191587Y-147155793D01*
X44191587Y-147155793D02*
X44191587Y-147223137D01*
X44191587Y-147223137D02*
X44225259Y-147324152D01*
X44225259Y-147324152D02*
X44326274Y-147425167D01*
X44258931Y-146415015D02*
X43652839Y-147021106D01*
X43652839Y-147021106D02*
X43619167Y-147122122D01*
X43619167Y-147122122D02*
X43652839Y-147223137D01*
X43652839Y-147223137D02*
X43686511Y-147256809D01*
X44494633Y-146179312D02*
X44494633Y-146246656D01*
X44494633Y-146246656D02*
X44427289Y-146246656D01*
X44427289Y-146246656D02*
X44427289Y-146179312D01*
X44427289Y-146179312D02*
X44494633Y-146179312D01*
X44494633Y-146179312D02*
X44427289Y-146246656D01*
X43215107Y-146246656D02*
X43248778Y-146347672D01*
X43248778Y-146347672D02*
X43383465Y-146482359D01*
X43383465Y-146482359D02*
X43484481Y-146516030D01*
X43484481Y-146516030D02*
X43585496Y-146482359D01*
X43585496Y-146482359D02*
X43854870Y-146212985D01*
X43854870Y-146212985D02*
X43888542Y-146111969D01*
X43888542Y-146111969D02*
X43854870Y-146010954D01*
X43854870Y-146010954D02*
X43720183Y-145876267D01*
X43720183Y-145876267D02*
X43619168Y-145842595D01*
X43619168Y-145842595D02*
X43518152Y-145876267D01*
X43518152Y-145876267D02*
X43450809Y-145943611D01*
X43450809Y-145943611D02*
X43720183Y-146347672D01*
X42575343Y-145606893D02*
X42609015Y-145707908D01*
X42609015Y-145707908D02*
X42743702Y-145842595D01*
X42743702Y-145842595D02*
X42844717Y-145876267D01*
X42844717Y-145876267D02*
X42912061Y-145876267D01*
X42912061Y-145876267D02*
X43013076Y-145842595D01*
X43013076Y-145842595D02*
X43215106Y-145640565D01*
X43215106Y-145640565D02*
X43248778Y-145539549D01*
X43248778Y-145539549D02*
X43248778Y-145472206D01*
X43248778Y-145472206D02*
X43215106Y-145371191D01*
X43215106Y-145371191D02*
X43080419Y-145236504D01*
X43080419Y-145236504D02*
X42979404Y-145202832D01*
X42811045Y-144967130D02*
X42541671Y-144697756D01*
X42945732Y-144630412D02*
X42339641Y-145236504D01*
X42339641Y-145236504D02*
X42238626Y-145270175D01*
X42238626Y-145270175D02*
X42137610Y-145236504D01*
X42137610Y-145236504D02*
X42070267Y-145169160D01*
X42373312Y-144529396D02*
X41767221Y-144866114D01*
X41767221Y-144866114D02*
X41969251Y-144394709D01*
X41969251Y-144394709D02*
X41497847Y-144596740D01*
X41497847Y-144596740D02*
X41834564Y-143990648D01*
X40992770Y-144091664D02*
X41093786Y-144125335D01*
X41093786Y-144125335D02*
X41161129Y-144125335D01*
X41161129Y-144125335D02*
X41262144Y-144091664D01*
X41262144Y-144091664D02*
X41464175Y-143889633D01*
X41464175Y-143889633D02*
X41497847Y-143788618D01*
X41497847Y-143788618D02*
X41497847Y-143721274D01*
X41497847Y-143721274D02*
X41464175Y-143620259D01*
X41464175Y-143620259D02*
X41363160Y-143519244D01*
X41363160Y-143519244D02*
X41262144Y-143485572D01*
X41262144Y-143485572D02*
X41194801Y-143485572D01*
X41194801Y-143485572D02*
X41093786Y-143519244D01*
X41093786Y-143519244D02*
X40891755Y-143721274D01*
X40891755Y-143721274D02*
X40858083Y-143822290D01*
X40858083Y-143822290D02*
X40858083Y-143889633D01*
X40858083Y-143889633D02*
X40891755Y-143990648D01*
X40891755Y-143990648D02*
X40992770Y-144091664D01*
X40454022Y-143552916D02*
X40925427Y-143081511D01*
X40790740Y-143216198D02*
X40824412Y-143115183D01*
X40824412Y-143115183D02*
X40824412Y-143047839D01*
X40824412Y-143047839D02*
X40790740Y-142946824D01*
X40790740Y-142946824D02*
X40723396Y-142879481D01*
X40016289Y-143115183D02*
X40723396Y-142408076D01*
X40218320Y-142778465D02*
X39746915Y-142845809D01*
X40218320Y-142374404D02*
X40218320Y-142913152D01*
X38905121Y-142004015D02*
X39612228Y-141296908D01*
X39275511Y-141633625D02*
X38871449Y-141229564D01*
X38501060Y-141599953D02*
X39208167Y-140892847D01*
X38972465Y-140657144D02*
X38568404Y-140253083D01*
X38063327Y-141162221D02*
X38770434Y-140455114D01*
X38400045Y-140084725D02*
X37524579Y-140623473D01*
X37524579Y-140623473D02*
X37894969Y-139983709D01*
X37894969Y-139983709D02*
X37255205Y-140354099D01*
X37255205Y-140354099D02*
X37793953Y-139478633D01*
X37120518Y-138872542D02*
X37221534Y-138906213D01*
X37221534Y-138906213D02*
X37322549Y-139007229D01*
X37322549Y-139007229D02*
X37389892Y-139141916D01*
X37389892Y-139141916D02*
X37389892Y-139276603D01*
X37389892Y-139276603D02*
X37356221Y-139377618D01*
X37356221Y-139377618D02*
X37255205Y-139545977D01*
X37255205Y-139545977D02*
X37154190Y-139646992D01*
X37154190Y-139646992D02*
X36985831Y-139748007D01*
X36985831Y-139748007D02*
X36884816Y-139781679D01*
X36884816Y-139781679D02*
X36750129Y-139781679D01*
X36750129Y-139781679D02*
X36615442Y-139714335D01*
X36615442Y-139714335D02*
X36548099Y-139646992D01*
X36548099Y-139646992D02*
X36480755Y-139512305D01*
X36480755Y-139512305D02*
X36480755Y-139444961D01*
X36480755Y-139444961D02*
X36716457Y-139209259D01*
X36716457Y-139209259D02*
X36851144Y-139343946D01*
X35638961Y-138670511D02*
X35504274Y-138603167D01*
X35504274Y-138603167D02*
X35335915Y-138434809D01*
X35335915Y-138434809D02*
X35302244Y-138333793D01*
X35302244Y-138333793D02*
X35302244Y-138266450D01*
X35302244Y-138266450D02*
X35335915Y-138165435D01*
X35335915Y-138165435D02*
X35403259Y-138098091D01*
X35403259Y-138098091D02*
X35504274Y-138064419D01*
X35504274Y-138064419D02*
X35571618Y-138064419D01*
X35571618Y-138064419D02*
X35672633Y-138098091D01*
X35672633Y-138098091D02*
X35840992Y-138199106D01*
X35840992Y-138199106D02*
X35942007Y-138232778D01*
X35942007Y-138232778D02*
X36009350Y-138232778D01*
X36009350Y-138232778D02*
X36110366Y-138199106D01*
X36110366Y-138199106D02*
X36177709Y-138131763D01*
X36177709Y-138131763D02*
X36211381Y-138030748D01*
X36211381Y-138030748D02*
X36211381Y-137963404D01*
X36211381Y-137963404D02*
X36177709Y-137862389D01*
X36177709Y-137862389D02*
X36009350Y-137694030D01*
X36009350Y-137694030D02*
X35874663Y-137626687D01*
X34965526Y-137997076D02*
X34830839Y-137929732D01*
X34830839Y-137929732D02*
X34662480Y-137761374D01*
X34662480Y-137761374D02*
X34628809Y-137660358D01*
X34628809Y-137660358D02*
X34628809Y-137593015D01*
X34628809Y-137593015D02*
X34662480Y-137492000D01*
X34662480Y-137492000D02*
X34729824Y-137424656D01*
X34729824Y-137424656D02*
X34830839Y-137390984D01*
X34830839Y-137390984D02*
X34898183Y-137390984D01*
X34898183Y-137390984D02*
X34999198Y-137424656D01*
X34999198Y-137424656D02*
X35167557Y-137525671D01*
X35167557Y-137525671D02*
X35268572Y-137559343D01*
X35268572Y-137559343D02*
X35335915Y-137559343D01*
X35335915Y-137559343D02*
X35436931Y-137525671D01*
X35436931Y-137525671D02*
X35504274Y-137458328D01*
X35504274Y-137458328D02*
X35537946Y-137357313D01*
X35537946Y-137357313D02*
X35537946Y-137289969D01*
X35537946Y-137289969D02*
X35504274Y-137188954D01*
X35504274Y-137188954D02*
X35335915Y-137020595D01*
X35335915Y-137020595D02*
X35201228Y-136953252D01*
X34898183Y-136717549D02*
X34898183Y-136650206D01*
X34898183Y-136650206D02*
X34864511Y-136549190D01*
X34864511Y-136549190D02*
X34696152Y-136380832D01*
X34696152Y-136380832D02*
X34595137Y-136347160D01*
X34595137Y-136347160D02*
X34527793Y-136347160D01*
X34527793Y-136347160D02*
X34426778Y-136380832D01*
X34426778Y-136380832D02*
X34359435Y-136448175D01*
X34359435Y-136448175D02*
X34292091Y-136582862D01*
X34292091Y-136582862D02*
X34292091Y-137390984D01*
X34292091Y-137390984D02*
X33854358Y-136953252D01*
X34123732Y-135808412D02*
X34056389Y-135741068D01*
X34056389Y-135741068D02*
X33955373Y-135707397D01*
X33955373Y-135707397D02*
X33888030Y-135707397D01*
X33888030Y-135707397D02*
X33787015Y-135741068D01*
X33787015Y-135741068D02*
X33618656Y-135842084D01*
X33618656Y-135842084D02*
X33450297Y-136010442D01*
X33450297Y-136010442D02*
X33349282Y-136178801D01*
X33349282Y-136178801D02*
X33315610Y-136279816D01*
X33315610Y-136279816D02*
X33315610Y-136347160D01*
X33315610Y-136347160D02*
X33349282Y-136448175D01*
X33349282Y-136448175D02*
X33416625Y-136515519D01*
X33416625Y-136515519D02*
X33517641Y-136549190D01*
X33517641Y-136549190D02*
X33584984Y-136549190D01*
X33584984Y-136549190D02*
X33685999Y-136515519D01*
X33685999Y-136515519D02*
X33854358Y-136414503D01*
X33854358Y-136414503D02*
X34022717Y-136246145D01*
X34022717Y-136246145D02*
X34123732Y-136077786D01*
X34123732Y-136077786D02*
X34157404Y-135976771D01*
X34157404Y-135976771D02*
X34157404Y-135909427D01*
X34157404Y-135909427D02*
X34123732Y-135808412D01*
X33551312Y-135370679D02*
X33551312Y-135303336D01*
X33551312Y-135303336D02*
X33517641Y-135202320D01*
X33517641Y-135202320D02*
X33349282Y-135033962D01*
X33349282Y-135033962D02*
X33248267Y-135000290D01*
X33248267Y-135000290D02*
X33180923Y-135000290D01*
X33180923Y-135000290D02*
X33079908Y-135033962D01*
X33079908Y-135033962D02*
X33012564Y-135101305D01*
X33012564Y-135101305D02*
X32945221Y-135235992D01*
X32945221Y-135235992D02*
X32945221Y-136044114D01*
X32945221Y-136044114D02*
X32507488Y-135606381D01*
X32608503Y-134293183D02*
X32743190Y-134427870D01*
X32743190Y-134427870D02*
X32776862Y-134528885D01*
X32776862Y-134528885D02*
X32776862Y-134596229D01*
X32776862Y-134596229D02*
X32743190Y-134764588D01*
X32743190Y-134764588D02*
X32642175Y-134932946D01*
X32642175Y-134932946D02*
X32372801Y-135202320D01*
X32372801Y-135202320D02*
X32271786Y-135235992D01*
X32271786Y-135235992D02*
X32204442Y-135235992D01*
X32204442Y-135235992D02*
X32103427Y-135202320D01*
X32103427Y-135202320D02*
X31968740Y-135067633D01*
X31968740Y-135067633D02*
X31935068Y-134966618D01*
X31935068Y-134966618D02*
X31935068Y-134899275D01*
X31935068Y-134899275D02*
X31968740Y-134798259D01*
X31968740Y-134798259D02*
X32137099Y-134629901D01*
X32137099Y-134629901D02*
X32238114Y-134596229D01*
X32238114Y-134596229D02*
X32305458Y-134596229D01*
X32305458Y-134596229D02*
X32406473Y-134629901D01*
X32406473Y-134629901D02*
X32541160Y-134764588D01*
X32541160Y-134764588D02*
X32574832Y-134865603D01*
X32574832Y-134865603D02*
X32574832Y-134932946D01*
X32574832Y-134932946D02*
X32541160Y-135033962D01*
X43036349Y-148412047D02*
X43406739Y-148041657D01*
X43406739Y-148041657D02*
X43507754Y-148007986D01*
X43507754Y-148007986D02*
X43608769Y-148041657D01*
X43608769Y-148041657D02*
X43743456Y-148176345D01*
X43743456Y-148176345D02*
X43777128Y-148277360D01*
X43070021Y-148378375D02*
X43103693Y-148479390D01*
X43103693Y-148479390D02*
X43272052Y-148647749D01*
X43272052Y-148647749D02*
X43373067Y-148681421D01*
X43373067Y-148681421D02*
X43474082Y-148647749D01*
X43474082Y-148647749D02*
X43541426Y-148580406D01*
X43541426Y-148580406D02*
X43575098Y-148479390D01*
X43575098Y-148479390D02*
X43541426Y-148378375D01*
X43541426Y-148378375D02*
X43373067Y-148210016D01*
X43373067Y-148210016D02*
X43339395Y-148109001D01*
X42766975Y-148075329D02*
X42665960Y-148041657D01*
X42665960Y-148041657D02*
X42531273Y-147906970D01*
X42531273Y-147906970D02*
X42497601Y-147805955D01*
X42497601Y-147805955D02*
X42531273Y-147704940D01*
X42531273Y-147704940D02*
X42564945Y-147671268D01*
X42564945Y-147671268D02*
X42665960Y-147637596D01*
X42665960Y-147637596D02*
X42766975Y-147671268D01*
X42766975Y-147671268D02*
X42867991Y-147772283D01*
X42867991Y-147772283D02*
X42969006Y-147805955D01*
X42969006Y-147805955D02*
X43070021Y-147772283D01*
X43070021Y-147772283D02*
X43103693Y-147738612D01*
X43103693Y-147738612D02*
X43137365Y-147637596D01*
X43137365Y-147637596D02*
X43103693Y-147536581D01*
X43103693Y-147536581D02*
X43002678Y-147435566D01*
X43002678Y-147435566D02*
X42901662Y-147401894D01*
X42194556Y-147502909D02*
X42093540Y-147469238D01*
X42093540Y-147469238D02*
X41958853Y-147334551D01*
X41958853Y-147334551D02*
X41925181Y-147233535D01*
X41925181Y-147233535D02*
X41958853Y-147132520D01*
X41958853Y-147132520D02*
X41992525Y-147098848D01*
X41992525Y-147098848D02*
X42093540Y-147065176D01*
X42093540Y-147065176D02*
X42194556Y-147098848D01*
X42194556Y-147098848D02*
X42295571Y-147199864D01*
X42295571Y-147199864D02*
X42396586Y-147233535D01*
X42396586Y-147233535D02*
X42497601Y-147199864D01*
X42497601Y-147199864D02*
X42531273Y-147166192D01*
X42531273Y-147166192D02*
X42564945Y-147065176D01*
X42564945Y-147065176D02*
X42531273Y-146964161D01*
X42531273Y-146964161D02*
X42430258Y-146863146D01*
X42430258Y-146863146D02*
X42329243Y-146829474D01*
X41554792Y-146930489D02*
X42026197Y-146459085D01*
X42261899Y-146223383D02*
X42261899Y-146290726D01*
X42261899Y-146290726D02*
X42194555Y-146290726D01*
X42194555Y-146290726D02*
X42194555Y-146223383D01*
X42194555Y-146223383D02*
X42261899Y-146223383D01*
X42261899Y-146223383D02*
X42194555Y-146290726D01*
X41285418Y-146593772D02*
X41184403Y-146560100D01*
X41184403Y-146560100D02*
X41049716Y-146425413D01*
X41049716Y-146425413D02*
X41016044Y-146324398D01*
X41016044Y-146324398D02*
X41049716Y-146223383D01*
X41049716Y-146223383D02*
X41083388Y-146189711D01*
X41083388Y-146189711D02*
X41184403Y-146156039D01*
X41184403Y-146156039D02*
X41285418Y-146189711D01*
X41285418Y-146189711D02*
X41386434Y-146290726D01*
X41386434Y-146290726D02*
X41487449Y-146324398D01*
X41487449Y-146324398D02*
X41588464Y-146290726D01*
X41588464Y-146290726D02*
X41622136Y-146257055D01*
X41622136Y-146257055D02*
X41655808Y-146156039D01*
X41655808Y-146156039D02*
X41622136Y-146055024D01*
X41622136Y-146055024D02*
X41521121Y-145954009D01*
X41521121Y-145954009D02*
X41420105Y-145920337D01*
X41218075Y-145650963D02*
X40948701Y-145381589D01*
X41352762Y-145314245D02*
X40746670Y-145920337D01*
X40746670Y-145920337D02*
X40645655Y-145954009D01*
X40645655Y-145954009D02*
X40544640Y-145920337D01*
X40544640Y-145920337D02*
X40477296Y-145852994D01*
X40005891Y-145314245D02*
X40039563Y-145415260D01*
X40039563Y-145415260D02*
X40174250Y-145549947D01*
X40174250Y-145549947D02*
X40275265Y-145583619D01*
X40275265Y-145583619D02*
X40376281Y-145549947D01*
X40376281Y-145549947D02*
X40645655Y-145280573D01*
X40645655Y-145280573D02*
X40679326Y-145179558D01*
X40679326Y-145179558D02*
X40645655Y-145078543D01*
X40645655Y-145078543D02*
X40510968Y-144943856D01*
X40510968Y-144943856D02*
X40409952Y-144910184D01*
X40409952Y-144910184D02*
X40308937Y-144943856D01*
X40308937Y-144943856D02*
X40241594Y-145011199D01*
X40241594Y-145011199D02*
X40510968Y-145415260D01*
X39332456Y-144708154D02*
X40039563Y-144001047D01*
X39366128Y-144674482D02*
X39399800Y-144775497D01*
X39399800Y-144775497D02*
X39534487Y-144910184D01*
X39534487Y-144910184D02*
X39635502Y-144943856D01*
X39635502Y-144943856D02*
X39702846Y-144943856D01*
X39702846Y-144943856D02*
X39803861Y-144910184D01*
X39803861Y-144910184D02*
X40005891Y-144708154D01*
X40005891Y-144708154D02*
X40039563Y-144607138D01*
X40039563Y-144607138D02*
X40039563Y-144539795D01*
X40039563Y-144539795D02*
X40005891Y-144438780D01*
X40005891Y-144438780D02*
X39871204Y-144304093D01*
X39871204Y-144304093D02*
X39770189Y-144270421D01*
X38456991Y-143832688D02*
X39164097Y-143125581D01*
X38894723Y-143394955D02*
X38861052Y-143293940D01*
X38861052Y-143293940D02*
X38726365Y-143159253D01*
X38726365Y-143159253D02*
X38625349Y-143125581D01*
X38625349Y-143125581D02*
X38558006Y-143125581D01*
X38558006Y-143125581D02*
X38456991Y-143159253D01*
X38456991Y-143159253D02*
X38254960Y-143361283D01*
X38254960Y-143361283D02*
X38221288Y-143462299D01*
X38221288Y-143462299D02*
X38221288Y-143529642D01*
X38221288Y-143529642D02*
X38254960Y-143630657D01*
X38254960Y-143630657D02*
X38389647Y-143765344D01*
X38389647Y-143765344D02*
X38490662Y-143799016D01*
X38355975Y-142788863D02*
X37716212Y-143091909D01*
X38019258Y-142452146D02*
X37716212Y-143091909D01*
X37716212Y-143091909D02*
X37615197Y-143327611D01*
X37615197Y-143327611D02*
X37615197Y-143394955D01*
X37615197Y-143394955D02*
X37648868Y-143495970D01*
X36739731Y-142115428D02*
X37446838Y-141408321D01*
X37110120Y-141745039D02*
X36706059Y-141340978D01*
X36335670Y-141711367D02*
X37042777Y-141004260D01*
X36066296Y-141307306D02*
X35998952Y-141307306D01*
X35998952Y-141307306D02*
X35998952Y-141374650D01*
X35998952Y-141374650D02*
X36066296Y-141374650D01*
X36066296Y-141374650D02*
X36066296Y-141307306D01*
X36066296Y-141307306D02*
X35998952Y-141374650D01*
X34719426Y-140095123D02*
X35291846Y-139994108D01*
X35123487Y-140499184D02*
X35830594Y-139792077D01*
X35830594Y-139792077D02*
X35561220Y-139522703D01*
X35561220Y-139522703D02*
X35460204Y-139489032D01*
X35460204Y-139489032D02*
X35392861Y-139489032D01*
X35392861Y-139489032D02*
X35291846Y-139522703D01*
X35291846Y-139522703D02*
X35190830Y-139623719D01*
X35190830Y-139623719D02*
X35157159Y-139724734D01*
X35157159Y-139724734D02*
X35157159Y-139792077D01*
X35157159Y-139792077D02*
X35190830Y-139893093D01*
X35190830Y-139893093D02*
X35460204Y-140162467D01*
X34180678Y-139489032D02*
X34214350Y-139590047D01*
X34214350Y-139590047D02*
X34349037Y-139724734D01*
X34349037Y-139724734D02*
X34450052Y-139758406D01*
X34450052Y-139758406D02*
X34551067Y-139724734D01*
X34551067Y-139724734D02*
X34820441Y-139455360D01*
X34820441Y-139455360D02*
X34854113Y-139354345D01*
X34854113Y-139354345D02*
X34820441Y-139253329D01*
X34820441Y-139253329D02*
X34685754Y-139118642D01*
X34685754Y-139118642D02*
X34584739Y-139084971D01*
X34584739Y-139084971D02*
X34483724Y-139118642D01*
X34483724Y-139118642D02*
X34416380Y-139185986D01*
X34416380Y-139185986D02*
X34685754Y-139590047D01*
X33810289Y-139185986D02*
X34517395Y-138478879D01*
X34248021Y-138748253D02*
X34214350Y-138647238D01*
X34214350Y-138647238D02*
X34079663Y-138512551D01*
X34079663Y-138512551D02*
X33978647Y-138478879D01*
X33978647Y-138478879D02*
X33911304Y-138478879D01*
X33911304Y-138478879D02*
X33810289Y-138512551D01*
X33810289Y-138512551D02*
X33608258Y-138714581D01*
X33608258Y-138714581D02*
X33574586Y-138815597D01*
X33574586Y-138815597D02*
X33574586Y-138882940D01*
X33574586Y-138882940D02*
X33608258Y-138983955D01*
X33608258Y-138983955D02*
X33742945Y-139118642D01*
X33742945Y-139118642D02*
X33843960Y-139152314D01*
X33170525Y-138546222D02*
X33877632Y-137839116D01*
X32867479Y-138243177D02*
X33237869Y-137872787D01*
X33237869Y-137872787D02*
X33338884Y-137839116D01*
X33338884Y-137839116D02*
X33439899Y-137872787D01*
X33439899Y-137872787D02*
X33540914Y-137973803D01*
X33540914Y-137973803D02*
X33574586Y-138074818D01*
X33574586Y-138074818D02*
X33574586Y-138142161D01*
X32429747Y-137805444D02*
X32530762Y-137839116D01*
X32530762Y-137839116D02*
X32598105Y-137839116D01*
X32598105Y-137839116D02*
X32699121Y-137805444D01*
X32699121Y-137805444D02*
X32901151Y-137603413D01*
X32901151Y-137603413D02*
X32934823Y-137502398D01*
X32934823Y-137502398D02*
X32934823Y-137435055D01*
X32934823Y-137435055D02*
X32901151Y-137334039D01*
X32901151Y-137334039D02*
X32800136Y-137233024D01*
X32800136Y-137233024D02*
X32699121Y-137199352D01*
X32699121Y-137199352D02*
X32631777Y-137199352D01*
X32631777Y-137199352D02*
X32530762Y-137233024D01*
X32530762Y-137233024D02*
X32328731Y-137435055D01*
X32328731Y-137435055D02*
X32295060Y-137536070D01*
X32295060Y-137536070D02*
X32295060Y-137603413D01*
X32295060Y-137603413D02*
X32328731Y-137704429D01*
X32328731Y-137704429D02*
X32429747Y-137805444D01*
X31789983Y-137165680D02*
X31890998Y-137199352D01*
X31890998Y-137199352D02*
X31992014Y-137165680D01*
X31992014Y-137165680D02*
X32598105Y-136559589D01*
X32059357Y-136492245D02*
X31688968Y-136121856D01*
X31688968Y-136121856D02*
X31587952Y-136963650D01*
X31587952Y-136963650D02*
X31217563Y-136593260D01*
D12*
%TO.P,J1,S1*%
%TO.N,GND*%
X252417111Y-143526514D03*
%TO.P,J1,S2*%
X258526514Y-137417111D03*
D13*
%TO.P,J1,S3*%
X255372818Y-146482220D03*
%TO.P,J1,S4*%
X261482220Y-140372818D03*
%TD*%
D14*
%TO.P,J7,1,1_1*%
%TO.N,/EM_A_N*%
X180178527Y-51708142D03*
D15*
%TO.P,J7,2,2_2*%
%TO.N,/EM_A_P*%
X181076553Y-54402219D03*
%TO.P,J7,3,3_3*%
%TO.N,/EM_A_N*%
X178382476Y-53504193D03*
%TO.P,J7,4,4_4*%
%TO.N,/EM_A_P*%
X179280501Y-56198270D03*
%TO.P,J7,5,5_5*%
%TO.N,/EM_B_N*%
X176586425Y-55300244D03*
%TO.P,J7,6,6_6*%
%TO.N,/EM_B_P*%
X177484450Y-57994321D03*
%TO.P,J7,7,7_7*%
%TO.N,/EM_B_N*%
X174790373Y-57096296D03*
%TO.P,J7,8,8_8*%
%TO.N,/EM_B_P*%
X175688399Y-59790373D03*
%TO.P,J7,9,9_9*%
%TO.N,/EM_C_N*%
X172994322Y-58892347D03*
%TO.P,J7,10,10_10*%
%TO.N,/EM_C_P*%
X173892348Y-61586424D03*
%TO.P,J7,11,11_11*%
%TO.N,/EM_C_N*%
X171198271Y-60688398D03*
%TO.P,J7,12,12_12*%
%TO.N,/EM_C_P*%
X172096296Y-63382475D03*
%TO.P,J7,13,13_13*%
%TO.N,/EM_D_N*%
X169402220Y-62484449D03*
%TO.P,J7,14,14_14*%
%TO.N,/EM_D_P*%
X170300245Y-65178526D03*
%TO.P,J7,15,15_15*%
%TO.N,/EM_D_N*%
X167606168Y-64280501D03*
%TO.P,J7,16,16_16*%
%TO.N,/EM_D_P*%
X168504194Y-66974577D03*
%TD*%
D16*
%TO.P,J2,1*%
%TO.N,GND*%
X267453377Y-123621086D03*
%TO.P,J2,2*%
%TO.N,Net-(J2-Pad2)*%
X268792769Y-120387508D03*
%TD*%
D17*
%TO.P,J3,1,1_1*%
%TO.N,unconnected-(J3-Pad1)*%
X271339933Y-108601041D03*
D18*
%TO.P,J3,2,2_2*%
%TO.N,unconnected-(J3-Pad2)*%
X273831128Y-109096570D03*
%TO.P,J3,3,3_3*%
%TO.N,+5VP*%
X270844404Y-111092236D03*
%TO.P,J3,4,4_4*%
%TO.N,+V_HB*%
X273335599Y-111587765D03*
%TO.P,J3,5,5_5*%
%TO.N,Net-(J2-Pad2)*%
X270348876Y-113583430D03*
%TO.P,J3,6,6_6*%
%TO.N,+V_HB*%
X272840068Y-114078960D03*
%TD*%
D19*
%TO.P,I2C1,1,1_1*%
%TO.N,/I2C_SCL*%
X266066461Y-73449705D03*
D18*
%TO.P,I2C1,2,2_2*%
%TO.N,/I2C_SDA*%
X264796461Y-71250000D03*
%TO.P,I2C1,3,3_3*%
%TO.N,/I2C_INT*%
X263526461Y-69050296D03*
%TD*%
D20*
%TO.P,J4,1,1_1*%
%TO.N,Net-(J4-Pad1)*%
X239635648Y-156157046D03*
D18*
%TO.P,J4,2,2_2*%
%TO.N,Net-(U2-U0RXD{slash}GPIO20)*%
X237288994Y-157129062D03*
%TO.P,J4,3,3_3*%
%TO.N,/RXD*%
X238663632Y-153810392D03*
%TO.P,J4,4,4_4*%
%TO.N,Net-(U2-U0RXD{slash}GPIO20)*%
X236316978Y-154782408D03*
%TO.P,J4,5,5_5*%
%TO.N,Net-(J4-Pad5)*%
X237691616Y-151463738D03*
%TO.P,J4,6,6_6*%
%TO.N,Net-(U2-U0TXD{slash}GPIO21)*%
X235344962Y-152435754D03*
%TO.P,J4,7,7_7*%
%TO.N,/TXD*%
X236719600Y-149117084D03*
%TO.P,J4,8,8_8*%
%TO.N,Net-(U2-U0TXD{slash}GPIO21)*%
X234372946Y-150089100D03*
%TD*%
D21*
%TO.P,UART1,1,1_1*%
%TO.N,/TXD*%
X227463291Y-156147389D03*
D18*
%TO.P,UART1,2,2_2*%
%TO.N,/RXD*%
X224972096Y-156642918D03*
%TD*%
D22*
%TO.P,J6,1,1_1*%
%TO.N,unconnected-(J6-Pad1)*%
X239329304Y-47796680D03*
D18*
%TO.P,J6,2,2_2*%
%TO.N,/Electromagnet Driver/PMODE*%
X238357288Y-50143334D03*
%TO.P,J6,3,3_3*%
%TO.N,+3.3V*%
X236982650Y-46824664D03*
%TO.P,J6,4,4_4*%
%TO.N,/Electromagnet Driver/PMODE*%
X236010634Y-49171318D03*
%TO.P,J6,5,5_5*%
%TO.N,GND*%
X234635996Y-45852648D03*
%TO.P,J6,6,6_6*%
%TO.N,/Electromagnet Driver/PMODE*%
X233663980Y-48199302D03*
%TD*%
D23*
%TO.P,J11,1,1_1*%
%TO.N,/I2C_SCL*%
X252515550Y-57994322D03*
D15*
%TO.P,J11,2,2_2*%
%TO.N,+3.3V*%
X255209627Y-57096296D03*
%TO.P,J11,3,3_3*%
%TO.N,/I2C_SDA*%
X254311601Y-59790373D03*
%TO.P,J11,4,4_4*%
%TO.N,GND*%
X257005678Y-58892348D03*
%TO.P,J11,5,5_5*%
%TO.N,/I2C_INT*%
X256107652Y-61586424D03*
%TO.P,J11,6,6_6*%
%TO.N,GND*%
X258801729Y-60688399D03*
%TD*%
D24*
%TO.P,EMD1,1,EN/IN1_1*%
%TO.N,/HBRIDGE_D_PWM*%
X206498066Y-74027233D03*
%TO.P,EMD1,2,PH/IN2_2*%
%TO.N,/HBRIDGE_D_DIR*%
X206498066Y-74677233D03*
%TO.P,EMD1,3,NSLEEP_3*%
%TO.N,/HBRIDGE_ALL_EN*%
X206498066Y-75327233D03*
%TO.P,EMD1,4,NFAULT_4*%
%TO.N,/HBRIDG_ALL_FAULT*%
X206498066Y-75977233D03*
%TO.P,EMD1,5,VREF_5*%
%TO.N,+3.3V*%
X206498066Y-76627233D03*
%TO.P,EMD1,6,IPROPI_6*%
%TO.N,/HBRIDGE_D_ISENSE*%
X206498066Y-77277233D03*
%TO.P,EMD1,7,IMODE_7*%
%TO.N,Net-(EMD1-IMODE)*%
X206498066Y-77927233D03*
%TO.P,EMD1,8,OUT1_8*%
%TO.N,/EM_D_P*%
X206498066Y-78577233D03*
%TO.P,EMD1,9,PGND_9*%
%TO.N,GND*%
X200758066Y-78577233D03*
%TO.P,EMD1,10,OUT2_10*%
%TO.N,/EM_D_N*%
X200758066Y-77927233D03*
%TO.P,EMD1,11,VM_11*%
%TO.N,+V_HB*%
X200758066Y-77277233D03*
%TO.P,EMD1,12,VCP_12*%
%TO.N,Net-(EMD1-VCP)*%
X200758066Y-76627233D03*
%TO.P,EMD1,13,CPH_13*%
%TO.N,Net-(EMD1-CPH)*%
X200758066Y-75977233D03*
%TO.P,EMD1,14,CPL_14*%
%TO.N,Net-(EMD1-CPL)*%
X200758066Y-75327233D03*
%TO.P,EMD1,15,GND_15*%
%TO.N,GND*%
X200758066Y-74677233D03*
%TO.P,EMD1,16,PMODE_16*%
%TO.N,/Electromagnet Driver/PMODE*%
X200758066Y-74027233D03*
D25*
%TO.P,EMD1,17*%
%TO.N,N/C*%
X203628066Y-76302233D03*
%TD*%
D26*
%TO.P,IC1,1,GND_1*%
%TO.N,GND*%
X252581118Y-115328427D03*
%TO.P,IC1,2,OUTPUT_1_2*%
%TO.N,+3.3V*%
X250954772Y-116954772D03*
%TO.P,IC1,3,INPUT_3*%
%TO.N,+5V*%
X249328427Y-118581118D03*
D27*
%TO.P,IC1,4,OUTPUT_2_4*%
%TO.N,+3.3V*%
X246500000Y-112500000D03*
%TD*%
D28*
%TO.P,U2,1,LNA_IN_1*%
%TO.N,unconnected-(U2-LNA_IN-Pad1)*%
X214513864Y-102961010D03*
%TO.P,U2,2,VDD3P3_2*%
%TO.N,/VDD3P3*%
X214160311Y-102607456D03*
%TO.P,U2,3,VDD3P3_3*%
X213806757Y-102253903D03*
%TO.P,U2,4,XTAL_32K_P/ADC1_CH0_4*%
%TO.N,/HBRIDGE_A_ISENSE*%
X213453204Y-101900349D03*
%TO.P,U2,5,XTAL_32K_N/ADC1_CH1_5*%
%TO.N,/HBRIDGE_B_ISENSE*%
X213099651Y-101546796D03*
%TO.P,U2,6,GPIO2/ADC1_CH2_6*%
%TO.N,/HBRIDGE_C_ISENSE*%
X212746097Y-101193243D03*
%TO.P,U2,7,CHIP_EN_7*%
%TO.N,/CHIP_EN*%
X212392544Y-100839689D03*
%TO.P,U2,8,GPIO3/ADC1_CH3_8*%
%TO.N,/HBRIDGE_D_ISENSE*%
X212038990Y-100486136D03*
D29*
%TO.P,U2,9,MTMS/GPIO4/ADC1_CH4_9*%
%TO.N,/HBRIDGE_D_PWM*%
X212038990Y-99513864D03*
%TO.P,U2,10,MTDI/GPIO5/ADC2_CH0_10*%
%TO.N,/HBRIDGE_D_DIR*%
X212392544Y-99160311D03*
%TO.P,U2,11,VDD3P3_RTC_11*%
%TO.N,+3.3V*%
X212746097Y-98806757D03*
%TO.P,U2,12,MTCK/GPIO6_12*%
%TO.N,/HBRIDGE_ALL_EN*%
X213099651Y-98453204D03*
%TO.P,U2,13,MTDO/GPIO7_13*%
%TO.N,/HBRIDG_ALL_FAULT*%
X213453204Y-98099651D03*
%TO.P,U2,14,GPIO8_14*%
%TO.N,/I2C_SDA*%
X213806757Y-97746097D03*
%TO.P,U2,15,GPIO9/BOOT_15*%
%TO.N,/BOOT*%
X214160311Y-97392544D03*
%TO.P,U2,16,GPIO10_16*%
%TO.N,/I2C_SCL*%
X214513864Y-97038990D03*
D28*
%TO.P,U2,17,VDD3P3_CPU_17*%
%TO.N,+3.3V*%
X215486136Y-97038990D03*
%TO.P,U2,18,VDD_SPI/GPIO11_18*%
%TO.N,/I2C_INT*%
X215839689Y-97392544D03*
%TO.P,U2,19,SPIHD/GPIO12_19*%
%TO.N,/HBRIDGE_C_DIR*%
X216193243Y-97746097D03*
%TO.P,U2,20,SPIWP/GPIO13_20*%
%TO.N,/HBRIDGE_C_PWM*%
X216546796Y-98099651D03*
%TO.P,U2,21,SPICS0/GPIO14_21*%
%TO.N,/HBRIDGE_B_DIR*%
X216900349Y-98453204D03*
%TO.P,U2,22,SPICLK/GPIO15_22*%
%TO.N,/HBRIDGE_B_PWM*%
X217253903Y-98806757D03*
%TO.P,U2,23,SPID/GPIO16_23*%
%TO.N,/HBRIDGE_A_DIR*%
X217607456Y-99160311D03*
%TO.P,U2,24,SPIQ/GPIO17_24*%
%TO.N,/HBRIDGE_A_PWM*%
X217961010Y-99513864D03*
D29*
%TO.P,U2,25,GPIO18/USB_D-_25*%
%TO.N,/USB_D+*%
X217961010Y-100486136D03*
%TO.P,U2,26,GPIO19/USB_D+_26*%
%TO.N,/USB_D-*%
X217607456Y-100839689D03*
%TO.P,U2,27,U0RXD/GPIO20_27*%
%TO.N,Net-(U2-U0RXD{slash}GPIO20)*%
X217253903Y-101193243D03*
%TO.P,U2,28,U0TXD/GPIO21_28*%
%TO.N,Net-(U2-U0TXD{slash}GPIO21)*%
X216900349Y-101546796D03*
%TO.P,U2,29,XTAL_N_29*%
%TO.N,/40 MHz Oscillator/XTAL_40MHz-*%
X216546796Y-101900349D03*
%TO.P,U2,30,XTAL_P_30*%
%TO.N,/40 MHz Oscillator/XTAL_40MHz+*%
X216193243Y-102253903D03*
%TO.P,U2,31,VDDA_31*%
%TO.N,+3.3V*%
X215839689Y-102607456D03*
%TO.P,U2,32,VDDA_32*%
X215486136Y-102961010D03*
D30*
%TO.P,U2,33,GND_33*%
%TO.N,GND*%
X215000000Y-100000000D03*
%TD*%
D31*
%TO.P,R4,1*%
%TO.N,+3.3V*%
X185400000Y-151300000D03*
%TO.P,R4,2*%
%TO.N,/BOOT*%
X186850000Y-148788526D03*
%TD*%
D32*
%TO.P,R1,1*%
%TO.N,Net-(J1-CC2)*%
X259138249Y-141638249D03*
%TO.P,R1,2*%
%TO.N,GND*%
X260481751Y-142981751D03*
%TD*%
D33*
%TO.P,R26,1*%
%TO.N,GND*%
X203950000Y-68700000D03*
%TO.P,R26,2*%
%TO.N,Net-(R26-Pad2)*%
X202450000Y-68700000D03*
%TD*%
D34*
%TO.P,R16,1*%
%TO.N,/HBRIDGE_B_ISENSE*%
X237931673Y-76475000D03*
%TO.P,R16,2*%
%TO.N,GND*%
X237931673Y-79375000D03*
%TD*%
D35*
%TO.P,R9,1*%
%TO.N,/I2C_SDA*%
X97421751Y-82715436D03*
%TO.P,R9,2*%
%TO.N,+3.3V*%
X96078249Y-84058938D03*
%TD*%
D36*
%TO.P,Y1,1,1_1*%
%TO.N,Net-(C33-Pad2)*%
X219339280Y-105636915D03*
%TO.P,Y1,2,GND_2*%
%TO.N,GND*%
X218434183Y-104731818D03*
%TO.P,Y1,3,3_3*%
%TO.N,/40 MHz Oscillator/XTAL_40MHz-*%
X219127148Y-104038853D03*
%TO.P,Y1,4,GND1_4*%
%TO.N,GND*%
X220032245Y-104943950D03*
%TD*%
D33*
%TO.P,R31,1*%
%TO.N,GND*%
X230782006Y-84796115D03*
%TO.P,R31,2*%
%TO.N,Net-(R31-Pad2)*%
X229282006Y-84796115D03*
%TD*%
D37*
%TO.P,C18,1,1_1*%
%TO.N,GND*%
X219850000Y-84100000D03*
%TO.P,C18,2,2_2*%
%TO.N,+V_HB*%
X222950000Y-84100000D03*
%TD*%
D38*
%TO.P,R29,1*%
%TO.N,Net-(R26-Pad2)*%
X201175000Y-66650000D03*
%TO.P,R29,2*%
%TO.N,Net-(EMC1-IMODE)*%
X201175000Y-64750000D03*
%TD*%
D34*
%TO.P,R13,1*%
%TO.N,/HBRIDGE_C_ISENSE*%
X211000000Y-60400000D03*
%TO.P,R13,2*%
%TO.N,GND*%
X211000000Y-63300000D03*
%TD*%
D39*
%TO.P,C13,1,1_1*%
%TO.N,Net-(EMA1-VCP)*%
X223201673Y-62800000D03*
%TO.P,C13,2,2_2*%
%TO.N,+V_HB*%
X220101673Y-62800000D03*
%TD*%
D40*
%TO.P,L3,1,-_1*%
%TO.N,/EM_C_N*%
X77000000Y-107000000D03*
%TO.P,L3,2,+_2*%
%TO.N,/EM_C_P*%
X83000000Y-107000000D03*
%TD*%
D38*
%TO.P,R24,1*%
%TO.N,Net-(R21-Pad2)*%
X228157207Y-66750000D03*
%TO.P,R24,2*%
%TO.N,Net-(EMA1-IMODE)*%
X228157207Y-64850000D03*
%TD*%
D34*
%TO.P,C4,1,1_1*%
%TO.N,+3.3V*%
X208800000Y-99150000D03*
%TO.P,C4,2,2_2*%
%TO.N,GND*%
X208800000Y-96050000D03*
%TD*%
D41*
%TO.P,C6,1,1_1*%
%TO.N,+3.3V*%
X214275000Y-105500000D03*
%TO.P,C6,2,2_2*%
%TO.N,GND*%
X212082968Y-107692032D03*
%TD*%
D42*
%TO.P,C31,1,1_1*%
%TO.N,+5VP*%
X259196016Y-125896016D03*
%TO.P,C31,2,2_2*%
%TO.N,GND*%
X257003984Y-123703984D03*
%TD*%
D37*
%TO.P,C25,1,1_1*%
%TO.N,GND*%
X192950000Y-83900000D03*
%TO.P,C25,2,2_2*%
%TO.N,+V_HB*%
X196050000Y-83900000D03*
%TD*%
D38*
%TO.P,R34,1*%
%TO.N,Net-(R31-Pad2)*%
X228007006Y-82746115D03*
%TO.P,R34,2*%
%TO.N,Net-(EMB1-IMODE)*%
X228007006Y-80846115D03*
%TD*%
%TO.P,R32,1*%
%TO.N,Net-(R30-Pad2)*%
X236007006Y-82696115D03*
%TO.P,R32,2*%
%TO.N,Net-(EMB1-IMODE)*%
X236007006Y-80796115D03*
%TD*%
D39*
%TO.P,R30,1*%
%TO.N,GND*%
X233357006Y-84746115D03*
%TO.P,R30,2*%
%TO.N,Net-(R30-Pad2)*%
X236257006Y-84746115D03*
%TD*%
D43*
%TO.P,C29,1,1_1*%
%TO.N,+3.3V*%
X253203984Y-119196016D03*
%TO.P,C29,2,2_2*%
%TO.N,GND*%
X255396016Y-117003984D03*
%TD*%
D44*
%TO.P,L2,1,-_1*%
%TO.N,/EM_B_N*%
X73000000Y-97000000D03*
%TO.P,L2,2,+_2*%
%TO.N,/EM_B_P*%
X73000000Y-103000000D03*
%TD*%
D38*
%TO.P,R22,1*%
%TO.N,Net-(R20-Pad2)*%
X236157207Y-66700000D03*
%TO.P,R22,2*%
%TO.N,Net-(EMA1-IMODE)*%
X236157207Y-64800000D03*
%TD*%
D42*
%TO.P,C7,1,1_1*%
%TO.N,+3.3V*%
X206396016Y-109196016D03*
%TO.P,C7,2,2_2*%
%TO.N,GND*%
X204203984Y-107003984D03*
%TD*%
D45*
%TO.P,C33,1,1_1*%
%TO.N,GND*%
X221537041Y-105708086D03*
%TO.P,C33,2,2_2*%
%TO.N,Net-(C33-Pad2)*%
X220476381Y-106768746D03*
%TD*%
D46*
%TO.P,L5,1,1_1*%
%TO.N,+3.3V*%
X208549219Y-108250781D03*
%TO.P,L5,2,2_2*%
%TO.N,/VDD3P3*%
X209450781Y-107349219D03*
%TD*%
D47*
%TO.P,C1,1,1_1*%
%TO.N,/CHIP_EN*%
X165742339Y-129925000D03*
%TO.P,C1,2,2_2*%
%TO.N,GND*%
X163057661Y-131475000D03*
%TD*%
D41*
%TO.P,C2,1,1_1*%
%TO.N,+3.3V*%
X216075000Y-107300000D03*
%TO.P,C2,2,2_2*%
%TO.N,GND*%
X213882968Y-109492032D03*
%TD*%
D39*
%TO.P,C19,1,1_1*%
%TO.N,Net-(EMB1-CPH)*%
X223001673Y-76400000D03*
%TO.P,C19,2,2_2*%
%TO.N,Net-(EMB1-CPL)*%
X219901673Y-76400000D03*
%TD*%
D43*
%TO.P,C5,1,1_1*%
%TO.N,+3.3V*%
X218053984Y-91096016D03*
%TO.P,C5,2,2_2*%
%TO.N,GND*%
X220246016Y-88903984D03*
%TD*%
%TO.P,C8,1,1_1*%
%TO.N,+3.3V*%
X219903984Y-92896016D03*
%TO.P,C8,2,2_2*%
%TO.N,GND*%
X222096016Y-90703984D03*
%TD*%
D48*
%TO.P,L1,1,-_1*%
%TO.N,/EM_A_N*%
X83000000Y-93000000D03*
%TO.P,L1,2,+_2*%
%TO.N,/EM_A_P*%
X77000000Y-93000000D03*
%TD*%
D39*
%TO.P,R20,1*%
%TO.N,GND*%
X233507207Y-68750000D03*
%TO.P,R20,2*%
%TO.N,Net-(R20-Pad2)*%
X236407207Y-68750000D03*
%TD*%
D49*
%TO.P,R7,1*%
%TO.N,Net-(J4-Pad5)*%
X239660375Y-149254891D03*
%TO.P,R7,2*%
%TO.N,Net-(Status_LED_TX1-+)*%
X242339625Y-148145109D03*
%TD*%
D24*
%TO.P,EMC1,1,EN/IN1_1*%
%TO.N,/HBRIDGE_C_PWM*%
X206619466Y-58150000D03*
%TO.P,EMC1,2,PH/IN2_2*%
%TO.N,/HBRIDGE_C_DIR*%
X206619466Y-58800000D03*
%TO.P,EMC1,3,NSLEEP_3*%
%TO.N,/HBRIDGE_ALL_EN*%
X206619466Y-59450000D03*
%TO.P,EMC1,4,NFAULT_4*%
%TO.N,/HBRIDG_ALL_FAULT*%
X206619466Y-60100000D03*
%TO.P,EMC1,5,VREF_5*%
%TO.N,+3.3V*%
X206619466Y-60750000D03*
%TO.P,EMC1,6,IPROPI_6*%
%TO.N,/HBRIDGE_C_ISENSE*%
X206619466Y-61400000D03*
%TO.P,EMC1,7,IMODE_7*%
%TO.N,Net-(EMC1-IMODE)*%
X206619466Y-62050000D03*
%TO.P,EMC1,8,OUT1_8*%
%TO.N,/EM_C_P*%
X206619466Y-62700000D03*
%TO.P,EMC1,9,PGND_9*%
%TO.N,GND*%
X200879466Y-62700000D03*
%TO.P,EMC1,10,OUT2_10*%
%TO.N,/EM_C_N*%
X200879466Y-62050000D03*
%TO.P,EMC1,11,VM_11*%
%TO.N,+V_HB*%
X200879466Y-61400000D03*
%TO.P,EMC1,12,VCP_12*%
%TO.N,Net-(EMC1-VCP)*%
X200879466Y-60750000D03*
%TO.P,EMC1,13,CPH_13*%
%TO.N,Net-(EMC1-CPH)*%
X200879466Y-60100000D03*
%TO.P,EMC1,14,CPL_14*%
%TO.N,Net-(EMC1-CPL)*%
X200879466Y-59450000D03*
%TO.P,EMC1,15,GND_15*%
%TO.N,GND*%
X200879466Y-58800000D03*
%TO.P,EMC1,16,PMODE_16*%
%TO.N,/Electromagnet Driver/PMODE*%
X200879466Y-58150000D03*
D25*
%TO.P,EMC1,17*%
%TO.N,N/C*%
X203749466Y-60425000D03*
%TD*%
D39*
%TO.P,C16,1,1_1*%
%TO.N,+V_HB*%
X196169466Y-65100000D03*
%TO.P,C16,2,2_2*%
%TO.N,GND*%
X193069466Y-65100000D03*
%TD*%
D38*
%TO.P,R38,1*%
%TO.N,GND*%
X205028066Y-82452233D03*
%TO.P,R38,2*%
%TO.N,Net-(EMD1-IMODE)*%
X205028066Y-80552233D03*
%TD*%
D37*
%TO.P,C17,1,1_1*%
%TO.N,GND*%
X220050000Y-68200000D03*
%TO.P,C17,2,2_2*%
%TO.N,+V_HB*%
X223150000Y-68200000D03*
%TD*%
D38*
%TO.P,R27,1*%
%TO.N,Net-(R25-Pad2)*%
X209175000Y-66600000D03*
%TO.P,R27,2*%
%TO.N,Net-(EMC1-IMODE)*%
X209175000Y-64700000D03*
%TD*%
D24*
%TO.P,EMB1,1,EN/IN1_1*%
%TO.N,/HBRIDGE_B_PWM*%
X233401673Y-74250000D03*
%TO.P,EMB1,2,PH/IN2_2*%
%TO.N,/HBRIDGE_B_DIR*%
X233401673Y-74900000D03*
%TO.P,EMB1,3,NSLEEP_3*%
%TO.N,/HBRIDGE_ALL_EN*%
X233401673Y-75550000D03*
%TO.P,EMB1,4,NFAULT_4*%
%TO.N,/HBRIDG_ALL_FAULT*%
X233401673Y-76200000D03*
%TO.P,EMB1,5,VREF_5*%
%TO.N,+3.3V*%
X233401673Y-76850000D03*
%TO.P,EMB1,6,IPROPI_6*%
%TO.N,/HBRIDGE_B_ISENSE*%
X233401673Y-77500000D03*
%TO.P,EMB1,7,IMODE_7*%
%TO.N,Net-(EMB1-IMODE)*%
X233401673Y-78150000D03*
%TO.P,EMB1,8,OUT1_8*%
%TO.N,/EM_B_P*%
X233401673Y-78800000D03*
%TO.P,EMB1,9,PGND_9*%
%TO.N,GND*%
X227661673Y-78800000D03*
%TO.P,EMB1,10,OUT2_10*%
%TO.N,/EM_B_N*%
X227661673Y-78150000D03*
%TO.P,EMB1,11,VM_11*%
%TO.N,+V_HB*%
X227661673Y-77500000D03*
%TO.P,EMB1,12,VCP_12*%
%TO.N,Net-(EMB1-VCP)*%
X227661673Y-76850000D03*
%TO.P,EMB1,13,CPH_13*%
%TO.N,Net-(EMB1-CPH)*%
X227661673Y-76200000D03*
%TO.P,EMB1,14,CPL_14*%
%TO.N,Net-(EMB1-CPL)*%
X227661673Y-75550000D03*
%TO.P,EMB1,15,GND_15*%
%TO.N,GND*%
X227661673Y-74900000D03*
%TO.P,EMB1,16,PMODE_16*%
%TO.N,/Electromagnet Driver/PMODE*%
X227661673Y-74250000D03*
D25*
%TO.P,EMB1,17*%
%TO.N,N/C*%
X230531673Y-76525000D03*
%TD*%
D38*
%TO.P,R39,1*%
%TO.N,Net-(R36-Pad2)*%
X201028066Y-82452233D03*
%TO.P,R39,2*%
%TO.N,Net-(EMD1-IMODE)*%
X201028066Y-80552233D03*
%TD*%
D39*
%TO.P,C22,1,1_1*%
%TO.N,Net-(EMD1-VCP)*%
X196098066Y-78577233D03*
%TO.P,C22,2,2_2*%
%TO.N,+V_HB*%
X192998066Y-78577233D03*
%TD*%
D34*
%TO.P,R17,1*%
%TO.N,/HBRIDGE_D_ISENSE*%
X210828066Y-76252233D03*
%TO.P,R17,2*%
%TO.N,GND*%
X210828066Y-79152233D03*
%TD*%
D39*
%TO.P,C24,1,1_1*%
%TO.N,+V_HB*%
X196048066Y-80977233D03*
%TO.P,C24,2,2_2*%
%TO.N,GND*%
X192948066Y-80977233D03*
%TD*%
D38*
%TO.P,R28,1*%
%TO.N,GND*%
X205175000Y-66600000D03*
%TO.P,R28,2*%
%TO.N,Net-(EMC1-IMODE)*%
X205175000Y-64700000D03*
%TD*%
D39*
%TO.P,C15,1,1_1*%
%TO.N,+V_HB*%
X223151673Y-65200000D03*
%TO.P,C15,2,2_2*%
%TO.N,GND*%
X220051673Y-65200000D03*
%TD*%
D33*
%TO.P,R21,1*%
%TO.N,GND*%
X230932207Y-68800000D03*
%TO.P,R21,2*%
%TO.N,Net-(R21-Pad2)*%
X229432207Y-68800000D03*
%TD*%
D34*
%TO.P,R12,1*%
%TO.N,/HBRIDGE_A_ISENSE*%
X237982207Y-60500000D03*
%TO.P,R12,2*%
%TO.N,GND*%
X237982207Y-63400000D03*
%TD*%
D50*
%TO.P,C32,1,1_1*%
%TO.N,GND*%
X221157041Y-104138746D03*
%TO.P,C32,2,2_2*%
%TO.N,/40 MHz Oscillator/XTAL_40MHz-*%
X220096381Y-103078086D03*
%TD*%
D51*
%TO.P,R18,1*%
%TO.N,Net-(U5-ILM)*%
X255630330Y-129430330D03*
%TO.P,R18,2*%
%TO.N,GND*%
X254569670Y-128369670D03*
%TD*%
D52*
%TO.P,L6,1,1_1*%
%TO.N,Net-(C33-Pad2)*%
X218181562Y-106599197D03*
%TO.P,L6,2,2_2*%
%TO.N,/40 MHz Oscillator/XTAL_40MHz+*%
X217280000Y-105697635D03*
%TD*%
D53*
%TO.P,C3,1,1_1*%
%TO.N,+3.3V*%
X207553984Y-110353984D03*
%TO.P,C3,2,2_2*%
%TO.N,GND*%
X209746016Y-112546016D03*
%TD*%
D54*
%TO.P,R3,1*%
%TO.N,+3.3V*%
X161944263Y-129225000D03*
%TO.P,R3,2*%
%TO.N,/CHIP_EN*%
X164455737Y-127775000D03*
%TD*%
D49*
%TO.P,R6,1*%
%TO.N,Net-(J4-Pad1)*%
X242260375Y-155254891D03*
%TO.P,R6,2*%
%TO.N,Net-(Status_LED_RX1-+)*%
X244939625Y-154145109D03*
%TD*%
D35*
%TO.P,R8,1*%
%TO.N,/I2C_SCL*%
X95671751Y-81078249D03*
%TO.P,R8,2*%
%TO.N,+3.3V*%
X94328249Y-82421751D03*
%TD*%
D14*
%TO.P,J8,1,1_1*%
%TO.N,/EM_A_N*%
X46974578Y-53504194D03*
D15*
%TO.P,J8,2,2_2*%
%TO.N,/EM_A_P*%
X44280501Y-52606168D03*
%TO.P,J8,3,3_3*%
%TO.N,/EM_A_N*%
X45178527Y-55300245D03*
%TO.P,J8,4,4_4*%
%TO.N,/EM_A_P*%
X42484450Y-54402220D03*
%TO.P,J8,5,5_5*%
%TO.N,/EM_B_N*%
X43382476Y-57096296D03*
%TO.P,J8,6,6_6*%
%TO.N,/EM_B_P*%
X40688399Y-56198271D03*
%TO.P,J8,7,7_7*%
%TO.N,/EM_B_N*%
X41586424Y-58892348D03*
%TO.P,J8,8,8_8*%
%TO.N,/EM_B_P*%
X38892347Y-57994322D03*
%TO.P,J8,9,9_9*%
%TO.N,/EM_C_N*%
X39790373Y-60688399D03*
%TO.P,J8,10,10_10*%
%TO.N,/EM_C_P*%
X37096296Y-59790373D03*
%TO.P,J8,11,11_11*%
%TO.N,/EM_C_N*%
X37994322Y-62484450D03*
%TO.P,J8,12,12_12*%
%TO.N,/EM_C_P*%
X35300245Y-61586425D03*
%TO.P,J8,13,13_13*%
%TO.N,/EM_D_N*%
X36198271Y-64280501D03*
%TO.P,J8,14,14_14*%
%TO.N,/EM_D_P*%
X33504194Y-63382476D03*
%TO.P,J8,15,15_15*%
%TO.N,/EM_D_N*%
X34402219Y-66076553D03*
%TO.P,J8,16,16_16*%
%TO.N,/EM_D_P*%
X31708143Y-65178527D03*
%TD*%
D55*
%TO.P,U5,1,EN/UVLO_1*%
%TO.N,/USB Power Circuit/USB_VBUS*%
X259031371Y-131341421D03*
D56*
%TO.P,U5,2,OVLO_2*%
%TO.N,unconnected-(U5-OVLO-Pad2)*%
X258695495Y-131677297D03*
%TO.P,U5,3,PG_3*%
%TO.N,unconnected-(U5-PG-Pad3)*%
X258377297Y-131995495D03*
D57*
%TO.P,U5,4,PGTH_4*%
%TO.N,unconnected-(U5-PGTH-Pad4)*%
X258041421Y-132331371D03*
D58*
%TO.P,U5,5,IN_5*%
%TO.N,/USB Power Circuit/USB_VBUS*%
X258076777Y-131376777D03*
%TO.P,U5,6,OUT_6*%
%TO.N,+5VP*%
X257723223Y-131023223D03*
D59*
%TO.P,U5,7,DVDT_7*%
%TO.N,Net-(U5-DVDT)*%
X256768629Y-131058579D03*
D56*
%TO.P,U5,8,GND_8*%
%TO.N,GND*%
X257104505Y-130722703D03*
%TO.P,U5,9,ILM_9*%
%TO.N,Net-(U5-ILM)*%
X257422703Y-130404505D03*
D60*
%TO.P,U5,10,ITIMER_10*%
%TO.N,Net-(U5-ITIMER)*%
X257758579Y-130068629D03*
%TD*%
D23*
%TO.P,J12,1,1_1*%
%TO.N,/I2C_SCL*%
X119311602Y-56198270D03*
D15*
%TO.P,J12,2,2_2*%
%TO.N,+3.3V*%
X118413576Y-58892347D03*
%TO.P,J12,3,3_3*%
%TO.N,/I2C_SDA*%
X121107653Y-57994321D03*
%TO.P,J12,4,4_4*%
%TO.N,GND*%
X120209628Y-60688398D03*
%TO.P,J12,5,5_5*%
%TO.N,/I2C_INT*%
X122903704Y-59790372D03*
%TO.P,J12,6,6_6*%
%TO.N,GND*%
X122005679Y-62484449D03*
%TD*%
D61*
%TO.P,L4,1,-_1*%
%TO.N,/EM_D_N*%
X87000000Y-103000000D03*
%TO.P,L4,2,+_2*%
%TO.N,/EM_D_P*%
X87000000Y-97000000D03*
%TD*%
D38*
%TO.P,R33,1*%
%TO.N,GND*%
X232007006Y-82696115D03*
%TO.P,R33,2*%
%TO.N,Net-(EMB1-IMODE)*%
X232007006Y-80796115D03*
%TD*%
D39*
%TO.P,C12,1,1_1*%
%TO.N,Net-(EMC1-CPH)*%
X196219466Y-60300000D03*
%TO.P,C12,2,2_2*%
%TO.N,Net-(EMC1-CPL)*%
X193119466Y-60300000D03*
%TD*%
D24*
%TO.P,EMA1,1,EN/IN1_1*%
%TO.N,/HBRIDGE_A_PWM*%
X233601673Y-58250000D03*
%TO.P,EMA1,2,PH/IN2_2*%
%TO.N,/HBRIDGE_A_DIR*%
X233601673Y-58900000D03*
%TO.P,EMA1,3,NSLEEP_3*%
%TO.N,/HBRIDGE_ALL_EN*%
X233601673Y-59550000D03*
%TO.P,EMA1,4,NFAULT_4*%
%TO.N,/HBRIDG_ALL_FAULT*%
X233601673Y-60200000D03*
%TO.P,EMA1,5,VREF_5*%
%TO.N,+3.3V*%
X233601673Y-60850000D03*
%TO.P,EMA1,6,IPROPI_6*%
%TO.N,/HBRIDGE_A_ISENSE*%
X233601673Y-61500000D03*
%TO.P,EMA1,7,IMODE_7*%
%TO.N,Net-(EMA1-IMODE)*%
X233601673Y-62150000D03*
%TO.P,EMA1,8,OUT1_8*%
%TO.N,/EM_A_P*%
X233601673Y-62800000D03*
%TO.P,EMA1,9,PGND_9*%
%TO.N,GND*%
X227861673Y-62800000D03*
%TO.P,EMA1,10,OUT2_10*%
%TO.N,/EM_A_N*%
X227861673Y-62150000D03*
%TO.P,EMA1,11,VM_11*%
%TO.N,+V_HB*%
X227861673Y-61500000D03*
%TO.P,EMA1,12,VCP_12*%
%TO.N,Net-(EMA1-VCP)*%
X227861673Y-60850000D03*
%TO.P,EMA1,13,CPH_13*%
%TO.N,Net-(EMA1-CPH)*%
X227861673Y-60200000D03*
%TO.P,EMA1,14,CPL_14*%
%TO.N,Net-(EMA1-CPL)*%
X227861673Y-59550000D03*
%TO.P,EMA1,15,GND_15*%
%TO.N,GND*%
X227861673Y-58900000D03*
%TO.P,EMA1,16,PMODE_16*%
%TO.N,/Electromagnet Driver/PMODE*%
X227861673Y-58250000D03*
D25*
%TO.P,EMA1,17*%
%TO.N,N/C*%
X230731673Y-60525000D03*
%TD*%
D42*
%TO.P,C28,1,1_1*%
%TO.N,Net-(U5-ITIMER)*%
X257296016Y-127796016D03*
%TO.P,C28,2,2_2*%
%TO.N,GND*%
X255103984Y-125603984D03*
%TD*%
D38*
%TO.P,R37,1*%
%TO.N,Net-(R35-Pad2)*%
X209028066Y-82452233D03*
%TO.P,R37,2*%
%TO.N,Net-(EMD1-IMODE)*%
X209028066Y-80552233D03*
%TD*%
D62*
%TO.P,R19,1*%
%TO.N,Net-(POWER_LED2-+)*%
X248746447Y-124153553D03*
%TO.P,R19,2*%
%TO.N,+5V*%
X249453553Y-123446447D03*
%TD*%
D39*
%TO.P,C20,1,1_1*%
%TO.N,Net-(EMD1-CPH)*%
X196098066Y-76177233D03*
%TO.P,C20,2,2_2*%
%TO.N,Net-(EMD1-CPL)*%
X192998066Y-76177233D03*
%TD*%
D37*
%TO.P,C26,1,1_1*%
%TO.N,GND*%
X193050000Y-68000000D03*
%TO.P,C26,2,2_2*%
%TO.N,+V_HB*%
X196150000Y-68000000D03*
%TD*%
D39*
%TO.P,R25,1*%
%TO.N,GND*%
X206525000Y-68650000D03*
%TO.P,R25,2*%
%TO.N,Net-(R25-Pad2)*%
X209425000Y-68650000D03*
%TD*%
%TO.P,R11,1*%
%TO.N,/HBRIDG_ALL_FAULT*%
X212450000Y-91300000D03*
%TO.P,R11,2*%
%TO.N,GND*%
X215350000Y-91300000D03*
%TD*%
%TO.P,R35,1*%
%TO.N,GND*%
X206378066Y-84502233D03*
%TO.P,R35,2*%
%TO.N,Net-(R35-Pad2)*%
X209278066Y-84502233D03*
%TD*%
D41*
%TO.P,C27,1,1_1*%
%TO.N,+5V*%
X247696016Y-120103984D03*
%TO.P,C27,2,2_2*%
%TO.N,GND*%
X245503984Y-122296016D03*
%TD*%
D39*
%TO.P,C10,1,1_1*%
%TO.N,+3.3V*%
X81550000Y-100500000D03*
%TO.P,C10,2,2_2*%
%TO.N,GND*%
X78450000Y-100500000D03*
%TD*%
D42*
%TO.P,C30,1,1_1*%
%TO.N,Net-(U5-DVDT)*%
X253996016Y-131096016D03*
%TO.P,C30,2,2_2*%
%TO.N,GND*%
X251803984Y-128903984D03*
%TD*%
D63*
%TO.P,FB1,1,1_1*%
%TO.N,/USB Power Circuit/USB_VBUS*%
X251283363Y-122183363D03*
%TO.P,FB1,2,2_2*%
%TO.N,+5V*%
X250116637Y-121016637D03*
%TD*%
D42*
%TO.P,C9,1,1_1*%
%TO.N,/VDD3P3*%
X210796016Y-105996016D03*
%TO.P,C9,2,2_2*%
%TO.N,GND*%
X208603984Y-103803984D03*
%TD*%
D39*
%TO.P,C23,1,1_1*%
%TO.N,+V_HB*%
X222951673Y-81200000D03*
%TO.P,C23,2,2_2*%
%TO.N,GND*%
X219851673Y-81200000D03*
%TD*%
D38*
%TO.P,R23,1*%
%TO.N,GND*%
X232157207Y-66700000D03*
%TO.P,R23,2*%
%TO.N,Net-(EMA1-IMODE)*%
X232157207Y-64800000D03*
%TD*%
D39*
%TO.P,C21,1,1_1*%
%TO.N,Net-(EMB1-VCP)*%
X223001673Y-78800000D03*
%TO.P,C21,2,2_2*%
%TO.N,+V_HB*%
X219901673Y-78800000D03*
%TD*%
D33*
%TO.P,R36,1*%
%TO.N,GND*%
X203778066Y-84502233D03*
%TO.P,R36,2*%
%TO.N,Net-(R36-Pad2)*%
X202278066Y-84502233D03*
%TD*%
D64*
%TO.P,U1,1*%
%TO.N,Net-(J1-D+1)*%
X252450000Y-136096498D03*
%TO.P,U1,2*%
%TO.N,/USB Power Circuit/USB_VBUS*%
X251778249Y-136768249D03*
%TO.P,U1,3*%
%TO.N,Net-(J1-D-1)*%
X251106498Y-137440000D03*
%TO.P,U1,4*%
%TO.N,/USB_D-*%
X249497830Y-135831332D03*
%TO.P,U1,5*%
%TO.N,GND*%
X250169581Y-135159581D03*
%TO.P,U1,6*%
%TO.N,/USB_D+*%
X250841332Y-134487830D03*
%TD*%
D35*
%TO.P,R10,1*%
%TO.N,/I2C_INT*%
X99171751Y-84328249D03*
%TO.P,R10,2*%
%TO.N,+3.3V*%
X97828249Y-85671751D03*
%TD*%
D39*
%TO.P,C11,1,1_1*%
%TO.N,Net-(EMA1-CPH)*%
X223201673Y-60400000D03*
%TO.P,C11,2,2_2*%
%TO.N,Net-(EMA1-CPL)*%
X220101673Y-60400000D03*
%TD*%
D32*
%TO.P,R2,1*%
%TO.N,Net-(J1-CC1)*%
X257018249Y-143758249D03*
%TO.P,R2,2*%
%TO.N,GND*%
X258361751Y-145101751D03*
%TD*%
D39*
%TO.P,C14,1,1_1*%
%TO.N,Net-(EMC1-VCP)*%
X196219466Y-62700000D03*
%TO.P,C14,2,2_2*%
%TO.N,+V_HB*%
X193119466Y-62700000D03*
%TD*%
D65*
%TO.N,/HBRIDG_ALL_FAULT*%
X212450000Y-82350000D03*
X208000000Y-60100000D03*
X234990267Y-60200000D03*
X207900000Y-75977233D03*
X234790267Y-76200000D03*
X222962098Y-47830000D03*
X222960000Y-56290000D03*
%TO.N,GND*%
X77000000Y-35750000D03*
X214250000Y-162000000D03*
X278500000Y-100000000D03*
X277750000Y-101500000D03*
X215750000Y-164250000D03*
X212750000Y-162000000D03*
X18000000Y-100750000D03*
X202869466Y-62700000D03*
X81500000Y-164250000D03*
X217250000Y-162000000D03*
X164400000Y-130700000D03*
X279250000Y-99250000D03*
X194548821Y-80995750D03*
X80750000Y-162750000D03*
X213500000Y-162750000D03*
X78500000Y-163500000D03*
X278500000Y-101500000D03*
X214250000Y-36500000D03*
X79250000Y-162750000D03*
X209050000Y-111850000D03*
X218442338Y-102430090D03*
X217790000Y-107710000D03*
X220030000Y-109210000D03*
X221481673Y-81232582D03*
X16500000Y-102250000D03*
X217250000Y-38000000D03*
X18000000Y-97750000D03*
X79250000Y-163500000D03*
X212000000Y-162750000D03*
X210828066Y-77702233D03*
X277750000Y-103000000D03*
X277000000Y-100750000D03*
X205028066Y-83302233D03*
X16500000Y-97000000D03*
X221530000Y-107710000D03*
X219290000Y-109210000D03*
X277750000Y-100750000D03*
X79250000Y-35750000D03*
X194619466Y-65100000D03*
X78500000Y-35750000D03*
X216500000Y-35750000D03*
X215750000Y-37250000D03*
X219700000Y-101920000D03*
X214500000Y-100500000D03*
X17250000Y-100000000D03*
X16500000Y-99250000D03*
X222000000Y-66800000D03*
X257800000Y-124500000D03*
X215000000Y-162750000D03*
X213500000Y-38000000D03*
X215000000Y-163500000D03*
X77750000Y-35750000D03*
X217290000Y-107210000D03*
X214250000Y-163500000D03*
X204469466Y-62700000D03*
X80750000Y-162000000D03*
X17250000Y-99250000D03*
X256000000Y-130200000D03*
X249463915Y-134453915D03*
X212750000Y-35750000D03*
X81500000Y-37250000D03*
X232058073Y-85417015D03*
X215750000Y-36500000D03*
X212750000Y-38000000D03*
X204900000Y-107700000D03*
X16500000Y-101500000D03*
X278500000Y-99250000D03*
X83000000Y-35750000D03*
X215000000Y-36500000D03*
X77000000Y-36500000D03*
X15750000Y-102250000D03*
X212750000Y-163500000D03*
X217250000Y-164250000D03*
X77000000Y-164250000D03*
X279250000Y-100750000D03*
X215750000Y-163500000D03*
X212000000Y-37250000D03*
X77500000Y-100950000D03*
X246300000Y-121500000D03*
X212000000Y-36500000D03*
X256800000Y-135600000D03*
X221030000Y-102210000D03*
X80750000Y-36500000D03*
X18000000Y-102250000D03*
X82250000Y-164250000D03*
X194500000Y-83900000D03*
X78500000Y-38000000D03*
X237931673Y-77925000D03*
X212750000Y-162750000D03*
X16500000Y-100000000D03*
X194600000Y-68000000D03*
X16500000Y-97750000D03*
X212750000Y-36500000D03*
X81500000Y-162750000D03*
X254900000Y-118100000D03*
X279250000Y-101500000D03*
X80000000Y-162750000D03*
X278500000Y-98500000D03*
X218000000Y-163500000D03*
X18000000Y-100000000D03*
X215000000Y-38000000D03*
X223530000Y-104710000D03*
X17250000Y-102250000D03*
X17250000Y-98500000D03*
X277750000Y-100000000D03*
X226400000Y-74800000D03*
X83000000Y-164250000D03*
X216500000Y-163500000D03*
X221530000Y-102710000D03*
X83000000Y-163500000D03*
X80750000Y-164250000D03*
X217250000Y-162750000D03*
X213500000Y-36500000D03*
X216520268Y-103348124D03*
X215000000Y-37250000D03*
X218290000Y-108210000D03*
X223030000Y-104210000D03*
X213500000Y-162000000D03*
X16500000Y-103000000D03*
X278500000Y-97000000D03*
X215000000Y-35750000D03*
X83000000Y-36500000D03*
X278500000Y-97750000D03*
X18000000Y-98500000D03*
X213500000Y-163500000D03*
X79250000Y-162000000D03*
X212975468Y-108584532D03*
X257690000Y-144430000D03*
X78500000Y-37250000D03*
X216500000Y-162750000D03*
X166750000Y-132450000D03*
X279250000Y-103000000D03*
X256800000Y-136800000D03*
X216290000Y-106210000D03*
X82250000Y-36500000D03*
X17250000Y-103000000D03*
X15750000Y-97000000D03*
X17250000Y-100750000D03*
X217250000Y-37250000D03*
X204463052Y-78577233D03*
X15750000Y-98500000D03*
X77500000Y-100000000D03*
X214250000Y-37250000D03*
X279250000Y-100000000D03*
X80000000Y-162000000D03*
X77750000Y-162750000D03*
X222530000Y-106710000D03*
X232182207Y-69400000D03*
X216500000Y-37250000D03*
X82250000Y-37250000D03*
X221000000Y-91800000D03*
X216500000Y-36500000D03*
X218000000Y-162750000D03*
X252200000Y-116400000D03*
X277750000Y-99250000D03*
X77750000Y-36500000D03*
X215750000Y-162750000D03*
X232182207Y-68600000D03*
X77750000Y-37250000D03*
X213500000Y-164250000D03*
X205028066Y-84902233D03*
X15750000Y-97750000D03*
X212000000Y-163500000D03*
X212750000Y-37250000D03*
X237982207Y-61950000D03*
X216790000Y-106710000D03*
X78500000Y-36500000D03*
X77000000Y-162750000D03*
X277750000Y-98500000D03*
X222030000Y-103210000D03*
X15750000Y-99250000D03*
X215000000Y-164250000D03*
X218000000Y-36500000D03*
X232058073Y-84617015D03*
X15750000Y-100750000D03*
X217880000Y-103610000D03*
X215000000Y-99000000D03*
X215000000Y-162000000D03*
X214000000Y-100000000D03*
X222030000Y-107210000D03*
X78500000Y-162000000D03*
X189140000Y-152740000D03*
X81500000Y-163500000D03*
X215750000Y-38000000D03*
X221400000Y-84100000D03*
X219100000Y-90000000D03*
X81500000Y-35750000D03*
X215750000Y-162000000D03*
X80000000Y-35750000D03*
X215500000Y-100500000D03*
X279250000Y-97000000D03*
X15750000Y-101500000D03*
X214250000Y-162750000D03*
X202881569Y-78577233D03*
X218000000Y-35750000D03*
X212750000Y-164250000D03*
X17250000Y-97750000D03*
X77750000Y-164250000D03*
X215500000Y-99500000D03*
X82250000Y-162750000D03*
X205149466Y-68425000D03*
X216000000Y-100000000D03*
X80000000Y-37250000D03*
X213500000Y-35750000D03*
X277750000Y-102250000D03*
X277000000Y-101500000D03*
X205028066Y-84102233D03*
X16500000Y-100750000D03*
X203681569Y-78577233D03*
X214250000Y-164250000D03*
X214250000Y-35750000D03*
X223030000Y-106210000D03*
X216500000Y-162000000D03*
X216180000Y-105460000D03*
X15750000Y-100000000D03*
X220530000Y-108710000D03*
X79250000Y-38000000D03*
X222530000Y-103710000D03*
X277000000Y-99250000D03*
X243000000Y-152400000D03*
X277750000Y-97750000D03*
X80750000Y-38000000D03*
X277000000Y-102250000D03*
X255094767Y-128894767D03*
X217250000Y-36500000D03*
X81500000Y-38000000D03*
X79250000Y-36500000D03*
X215750000Y-35750000D03*
X252350000Y-130450000D03*
X212000000Y-35750000D03*
X221030000Y-108210000D03*
X214250000Y-38000000D03*
X77750000Y-162000000D03*
X242200000Y-150500000D03*
X80750000Y-35750000D03*
X80750000Y-163500000D03*
X216300000Y-91300000D03*
X216420000Y-104050000D03*
X279250000Y-102250000D03*
X81500000Y-36500000D03*
X216280000Y-104740000D03*
X80750000Y-37250000D03*
X279250000Y-97750000D03*
X216500000Y-164250000D03*
X83000000Y-162750000D03*
X259810000Y-142310000D03*
X279250000Y-98500000D03*
X256800000Y-136200000D03*
X17250000Y-97000000D03*
X254300000Y-117500000D03*
X80000000Y-163500000D03*
X263698959Y-140278959D03*
X215000000Y-100000000D03*
X210998271Y-61849887D03*
X77000000Y-163500000D03*
X220530000Y-101710000D03*
X218000000Y-37250000D03*
X232058073Y-83817015D03*
X209700000Y-104900000D03*
X18000000Y-99250000D03*
X79250000Y-37250000D03*
X251600000Y-115700000D03*
X256200000Y-126700000D03*
X77000000Y-37250000D03*
X277000000Y-97750000D03*
X83000000Y-37250000D03*
X278500000Y-100750000D03*
X15750000Y-103000000D03*
X213500000Y-37250000D03*
X218000000Y-164250000D03*
X18000000Y-101500000D03*
X80000000Y-164250000D03*
X77750000Y-163500000D03*
X80000000Y-36500000D03*
X219200000Y-102420000D03*
X232182207Y-67800000D03*
X218790000Y-108710000D03*
X212000000Y-164250000D03*
X17250000Y-101500000D03*
X208800000Y-97000000D03*
X16500000Y-98500000D03*
X78500000Y-162750000D03*
X217730000Y-102320000D03*
X216500000Y-38000000D03*
X82250000Y-163500000D03*
X77750000Y-38000000D03*
X78500000Y-164250000D03*
X214500000Y-99500000D03*
X224030000Y-105210000D03*
X163000000Y-125450000D03*
X277000000Y-98500000D03*
X82250000Y-35750000D03*
X277750000Y-97000000D03*
X79250000Y-164250000D03*
X82250000Y-38000000D03*
X81500000Y-162000000D03*
X217250000Y-35750000D03*
X217250000Y-163500000D03*
X203669466Y-62700000D03*
X223530000Y-105710000D03*
X215000000Y-101000000D03*
X182260000Y-148690000D03*
X80000000Y-38000000D03*
X205149466Y-69225000D03*
X82250000Y-162000000D03*
X278500000Y-102250000D03*
X205149466Y-67625000D03*
X277000000Y-100000000D03*
X278500000Y-103000000D03*
X229800000Y-78800000D03*
X230734421Y-62800000D03*
X231534421Y-62800000D03*
X229934421Y-62800000D03*
X231381839Y-78800000D03*
X230600000Y-78800000D03*
%TO.N,/USB Power Circuit/USB_VBUS*%
X255600000Y-136090997D03*
X255600000Y-135381994D03*
X252000000Y-140400000D03*
X255600000Y-136800000D03*
%TO.N,Net-(J1-CC1)*%
X256090000Y-142830000D03*
%TO.N,Net-(J1-D+1)*%
X253260330Y-137199670D03*
%TO.N,Net-(J1-D-1)*%
X252129670Y-138190330D03*
%TO.N,Net-(J1-CC2)*%
X258325000Y-140825000D03*
%TO.N,/HBRIDGE_B_PWM*%
X220660000Y-97320000D03*
X227400000Y-92400000D03*
%TO.N,/BOOT*%
X213500000Y-96732233D03*
X187400000Y-147600000D03*
%TO.N,/HBRIDGE_D_PWM*%
X210550000Y-91800000D03*
%TO.N,/HBRIDGE_B_ISENSE*%
X237000000Y-77400000D03*
X210400000Y-102300000D03*
%TO.N,/HBRIDGE_C_DIR*%
X199210000Y-46710000D03*
X213900000Y-93800000D03*
X208000000Y-55500000D03*
X216800000Y-96600000D03*
X208500000Y-58800000D03*
%TO.N,/Electromagnet Driver/PMODE*%
X199500000Y-74027233D03*
X218300000Y-67700000D03*
%TO.N,/EM_A_N*%
X225582207Y-64400000D03*
X225582207Y-63800000D03*
X226182207Y-63800000D03*
X226182207Y-64400000D03*
%TO.N,/EM_A_P*%
X235782207Y-63600000D03*
X235182207Y-63000000D03*
X235782207Y-63000000D03*
X235182207Y-63600000D03*
%TO.N,/EM_B_N*%
X225419472Y-79783581D03*
X225448873Y-80395116D03*
X226048873Y-80395116D03*
X226048873Y-79795116D03*
%TO.N,/EM_B_P*%
X235731673Y-79525000D03*
X235731673Y-78925000D03*
X235131673Y-79525000D03*
X235131673Y-78925000D03*
%TO.N,/EM_C_N*%
X199200000Y-64300000D03*
X198600000Y-64300000D03*
X198600000Y-63700000D03*
X199200000Y-63700000D03*
%TO.N,/EM_C_P*%
X208200000Y-63500000D03*
X208200000Y-62900000D03*
X208800000Y-62900000D03*
X208800000Y-63500000D03*
%TO.N,/EM_D_N*%
X198498821Y-79595750D03*
X199098821Y-80195750D03*
X198498821Y-80195750D03*
X199098821Y-79595750D03*
%TO.N,/EM_D_P*%
X208028066Y-78902233D03*
X208628066Y-79502233D03*
X208028066Y-79502233D03*
X208628066Y-78902233D03*
%TO.N,/HBRIDGE_A_PWM*%
X227400000Y-94000000D03*
X245034800Y-56470064D03*
X220650000Y-99000000D03*
%TO.N,/HBRIDGE_C_PWM*%
X211500000Y-53000000D03*
X217846446Y-96396446D03*
X214450000Y-93000000D03*
X217000000Y-58500000D03*
X207037902Y-48110000D03*
%TO.N,+V_HB*%
X245747680Y-88147680D03*
X245246340Y-87646340D03*
X223151673Y-66500000D03*
X244745000Y-87145000D03*
X196100000Y-82200000D03*
X223000000Y-82400000D03*
X196200000Y-66300000D03*
%TO.N,/HBRIDGE_C_ISENSE*%
X202351499Y-55851499D03*
X194300000Y-47800000D03*
X208000000Y-61400000D03*
%TO.N,/CHIP_EN*%
X211000000Y-101000000D03*
X165800000Y-128600000D03*
%TO.N,/I2C_SCL*%
X162250000Y-85050000D03*
X98875000Y-79875000D03*
%TO.N,/I2C_SDA*%
X99550312Y-80550312D03*
X155125000Y-93775000D03*
%TO.N,/I2C_INT*%
X100250000Y-81250000D03*
%TO.N,/HBRIDGE_D_DIR*%
X211150000Y-91250000D03*
%TO.N,Net-(Status_LED_TX1-+)*%
X241480000Y-149000000D03*
%TO.N,/HBRIDGE_A_DIR*%
X227400000Y-93200000D03*
X220660000Y-98160000D03*
X236915000Y-54305000D03*
%TO.N,/HBRIDGE_A_ISENSE*%
X236982207Y-61500000D03*
X239994199Y-56334199D03*
X209900000Y-103000000D03*
%TO.N,/HBRIDGE_B_DIR*%
X239280000Y-84710000D03*
X220700000Y-96490000D03*
X227400000Y-91600000D03*
%TO.N,/HBRIDGE_D_ISENSE*%
X209950000Y-92350000D03*
%TO.N,+3.3V*%
X208800000Y-98200000D03*
X211800000Y-97800000D03*
X82500000Y-100950000D03*
X218900000Y-93900000D03*
X215000000Y-96400000D03*
X163200000Y-128500000D03*
X243900000Y-109200000D03*
X245600000Y-111000000D03*
X96750000Y-85250000D03*
X209400000Y-60800000D03*
X242900000Y-110200000D03*
X235800000Y-76600000D03*
X209400000Y-76749732D03*
X245500000Y-109900000D03*
X244500000Y-110900000D03*
X244400000Y-108700000D03*
X244400000Y-109800000D03*
X215160000Y-106400000D03*
X235600000Y-60800000D03*
X207800000Y-108800000D03*
X244900000Y-109300000D03*
X243900000Y-110300000D03*
X207200000Y-108200000D03*
X246100000Y-110500000D03*
X244000000Y-111400000D03*
X186000000Y-150200000D03*
X235000000Y-76986564D03*
X208600000Y-109400000D03*
X93250000Y-81750000D03*
X236400000Y-60800000D03*
X245000000Y-110400000D03*
X245100000Y-111500000D03*
X95000000Y-83500000D03*
X82500000Y-100000000D03*
X243400000Y-109700000D03*
X98250000Y-86750000D03*
X208600000Y-60790200D03*
X243400000Y-110800000D03*
X208400000Y-76749732D03*
X244600000Y-112000000D03*
%TO.N,Net-(POWER_LED2-+)*%
X248200000Y-124780000D03*
%TO.N,Net-(Status_LED_RX1-+)*%
X243710000Y-154145109D03*
%TO.N,/HBRIDGE_ALL_EN*%
X217300000Y-57400000D03*
X232450000Y-59550000D03*
%TD*%
%TO.N,/HBRIDG_ALL_FAULT*%
D66*
X212450000Y-97096446D02*
X212450000Y-91300000D01*
X222960000Y-56290000D02*
X222960000Y-47832098D01*
X233401673Y-76200000D02*
X234790267Y-76200000D01*
X213447901Y-98094347D02*
X212450000Y-97096446D01*
X207900000Y-75977233D02*
X206498066Y-75977233D01*
X222960000Y-47832098D02*
X222962098Y-47830000D01*
X206619466Y-60100000D02*
X208000000Y-60100000D01*
X212450000Y-91300000D02*
X212450000Y-82350000D01*
X206575299Y-75900000D02*
X206498066Y-75977233D01*
X233601673Y-60200000D02*
X234990267Y-60200000D01*
%TO.N,GND*%
D67*
X217880000Y-103610000D02*
X217950000Y-103680000D01*
D68*
X237931673Y-79375000D02*
X237931673Y-77925000D01*
X220050000Y-68200000D02*
X220600000Y-68200000D01*
D67*
X217950000Y-103680000D02*
X217950000Y-104247635D01*
X256581802Y-130200000D02*
X257104505Y-130722703D01*
D68*
X252581118Y-116018882D02*
X252200000Y-116400000D01*
X245503984Y-122296016D02*
X246300000Y-121500000D01*
D69*
X200808821Y-74695750D02*
X201694955Y-74695750D01*
D68*
X220400000Y-65200000D02*
X220051673Y-65200000D01*
D66*
X219946711Y-104858416D02*
X218560781Y-104858416D01*
D70*
X163625000Y-131475000D02*
X164400000Y-130700000D01*
D68*
X209700000Y-104900000D02*
X208603984Y-103803984D01*
X220600000Y-68200000D02*
X222000000Y-66800000D01*
D66*
X218560781Y-104858416D02*
X218434183Y-104731818D01*
D68*
X257800000Y-124500000D02*
X257003984Y-123703984D01*
D67*
X256000000Y-130200000D02*
X256581802Y-130200000D01*
D68*
X194619466Y-65100000D02*
X193069466Y-65100000D01*
X194548821Y-80995750D02*
X192998821Y-80995750D01*
D70*
X250169581Y-135159581D02*
X249463915Y-134453915D01*
D68*
X209746016Y-112546016D02*
X209050000Y-111850000D01*
X193050000Y-68000000D02*
X194600000Y-68000000D01*
X204203984Y-107003984D02*
X204900000Y-107700000D01*
X222096016Y-90703984D02*
X221000000Y-91800000D01*
X255103984Y-125603984D02*
X256200000Y-126700000D01*
D70*
X258361751Y-145101751D02*
X257690000Y-144430000D01*
D69*
X227861673Y-62800000D02*
X231534421Y-62800000D01*
D67*
X217950000Y-104247635D02*
X218434183Y-104731818D01*
D70*
X254569670Y-128369670D02*
X255094767Y-128894767D01*
D69*
X200879466Y-62700000D02*
X204469466Y-62700000D01*
D68*
X237982207Y-63400000D02*
X237982207Y-61950000D01*
D70*
X163057661Y-131475000D02*
X163625000Y-131475000D01*
D69*
X231381839Y-78800000D02*
X227661673Y-78800000D01*
D70*
X260481751Y-142981751D02*
X259810000Y-142310000D01*
D68*
X211000000Y-63300000D02*
X211000000Y-61851616D01*
D69*
X229085273Y-59237466D02*
X229085273Y-62649148D01*
D68*
X210828066Y-79152233D02*
X210828066Y-77702233D01*
X213882968Y-109492032D02*
X212082968Y-107692032D01*
D66*
X227661673Y-74900000D02*
X226500000Y-74900000D01*
D68*
X252581118Y-115328427D02*
X252581118Y-116018882D01*
X254796016Y-117003984D02*
X254300000Y-117500000D01*
X252350000Y-130450000D02*
X252350000Y-129450000D01*
D69*
X202069466Y-59205001D02*
X202069466Y-62700000D01*
D68*
X255396016Y-117003984D02*
X255396016Y-117603984D01*
X211000000Y-61851616D02*
X210998271Y-61849887D01*
D69*
X227861673Y-58900000D02*
X228747807Y-58900000D01*
X200879466Y-58800000D02*
X201664465Y-58800000D01*
D71*
X214200000Y-98846446D02*
X214200000Y-99200000D01*
D68*
X255396016Y-117603984D02*
X254900000Y-118100000D01*
X220246016Y-88903984D02*
X220196016Y-88903984D01*
X251971573Y-115328427D02*
X251600000Y-115700000D01*
X221481673Y-81232582D02*
X219931673Y-81232582D01*
D66*
X226500000Y-74900000D02*
X226400000Y-74800000D01*
D68*
X220196016Y-88903984D02*
X219100000Y-90000000D01*
D69*
X202032421Y-75033216D02*
X202032421Y-78444898D01*
X257005678Y-58892348D02*
X257005678Y-58744322D01*
D68*
X252350000Y-129450000D02*
X251803984Y-128903984D01*
X255396016Y-117003984D02*
X254796016Y-117003984D01*
X192950000Y-83900000D02*
X194500000Y-83900000D01*
X215350000Y-91300000D02*
X216300000Y-91300000D01*
D69*
X228747807Y-58900000D02*
X229085273Y-59237466D01*
D68*
X208800000Y-96050000D02*
X208800000Y-97000000D01*
D69*
X204463052Y-78577233D02*
X200758066Y-78577233D01*
D68*
X222000000Y-66800000D02*
X220400000Y-65200000D01*
X252581118Y-115328427D02*
X251971573Y-115328427D01*
D69*
X201664465Y-58800000D02*
X202069466Y-59205001D01*
X201694955Y-74695750D02*
X202032421Y-75033216D01*
D68*
X219850000Y-84100000D02*
X221400000Y-84100000D01*
D66*
X232157207Y-67775000D02*
X232182207Y-67800000D01*
%TO.N,/USB Power Circuit/USB_VBUS*%
D69*
X258064030Y-131376777D02*
X258076777Y-131376777D01*
D70*
X251806729Y-133676729D02*
X250576101Y-132446101D01*
X255600000Y-135381994D02*
X255600000Y-136800000D01*
X251806729Y-134945839D02*
X251806729Y-133676729D01*
X250576101Y-132446101D02*
X250576101Y-122890625D01*
X251455887Y-136445887D02*
X251455887Y-135296681D01*
D69*
X255600000Y-135381994D02*
X255600000Y-133853554D01*
D70*
X251778249Y-136768249D02*
X253695000Y-138685000D01*
X253695000Y-138705000D02*
X252000000Y-140400000D01*
X251455887Y-135296681D02*
X251806729Y-134945839D01*
D69*
X258808632Y-131118682D02*
X258334872Y-131118682D01*
X258334872Y-131118682D02*
X258076777Y-131376777D01*
D70*
X251778249Y-136768249D02*
X251455887Y-136445887D01*
X250576101Y-122890625D02*
X251283363Y-122183363D01*
D69*
X259031371Y-131341421D02*
X258808632Y-131118682D01*
X255600000Y-133853554D02*
X258076777Y-131376777D01*
D70*
X255600000Y-136800000D02*
X253695000Y-138705000D01*
X253695000Y-138685000D02*
X253695000Y-138705000D01*
%TO.N,Net-(J1-CC1)*%
X257018249Y-143758249D02*
X256090000Y-142830000D01*
%TO.N,Net-(J1-D+1)*%
D67*
X253260330Y-136906828D02*
X252450000Y-136096498D01*
X253260330Y-137199670D02*
X253260330Y-136906828D01*
%TO.N,Net-(J1-D-1)*%
X251860330Y-138190330D02*
X251110000Y-137440000D01*
X251110000Y-137440000D02*
X251106498Y-137440000D01*
X252129670Y-138190330D02*
X251860330Y-138190330D01*
%TO.N,Net-(J1-CC2)*%
D70*
X258325000Y-140825000D02*
X259138249Y-141638249D01*
%TO.N,/HBRIDGE_B_PWM*%
D66*
X227400000Y-92400000D02*
X233100000Y-92400000D01*
X218740660Y-97320000D02*
X220660000Y-97320000D01*
X217253903Y-98806757D02*
X218740660Y-97320000D01*
X244349000Y-81151000D02*
X244349000Y-76666974D01*
X241932026Y-74250000D02*
X233401673Y-74250000D01*
X244349000Y-76666974D02*
X241932026Y-74250000D01*
X233100000Y-92400000D02*
X244349000Y-81151000D01*
%TO.N,/BOOT*%
D70*
X187400000Y-147600000D02*
X186850000Y-148150000D01*
X186850000Y-148150000D02*
X186850000Y-148788526D01*
D66*
X213500000Y-96732233D02*
X214155007Y-97387240D01*
%TO.N,/HBRIDGE_D_PWM*%
X210550000Y-91800000D02*
X210550000Y-81950000D01*
X212400000Y-80100000D02*
X212400000Y-75200000D01*
X210550000Y-81950000D02*
X212400000Y-80100000D01*
X211227233Y-74027233D02*
X206498066Y-74027233D01*
X210550000Y-98024874D02*
X212033687Y-99508561D01*
X210550000Y-91800000D02*
X210550000Y-98024874D01*
X212400000Y-75200000D02*
X211227233Y-74027233D01*
%TO.N,/HBRIDGE_B_ISENSE*%
D69*
X233481673Y-77532582D02*
X233503073Y-77553982D01*
D66*
X212346446Y-102300000D02*
X213094347Y-101552099D01*
D67*
X237000000Y-77400000D02*
X236800000Y-77600000D01*
X236800000Y-77600000D02*
X233501673Y-77600000D01*
D66*
X210400000Y-102300000D02*
X212346446Y-102300000D01*
D67*
X233501673Y-77600000D02*
X233401673Y-77500000D01*
X237000000Y-77400000D02*
X237925000Y-76475000D01*
X237925000Y-76475000D02*
X237931673Y-76475000D01*
%TO.N,/HBRIDGE_C_DIR*%
D66*
X199210000Y-46710000D02*
X208000000Y-55500000D01*
X213900000Y-93800000D02*
X213900000Y-60500000D01*
X212200000Y-58800000D02*
X206619466Y-58800000D01*
X213900000Y-60500000D02*
X212200000Y-58800000D01*
X216800000Y-97139340D02*
X216800000Y-96600000D01*
X216198546Y-97740794D02*
X216800000Y-97139340D01*
%TO.N,/Electromagnet Driver/PMODE*%
D67*
X220493673Y-58250000D02*
X218343673Y-56100000D01*
X219000000Y-69600000D02*
X219700000Y-70300000D01*
X199500000Y-74027233D02*
X200758066Y-74027233D01*
X219700000Y-70300000D02*
X225900000Y-70300000D01*
X218343673Y-56100000D02*
X202929466Y-56100000D01*
X227661673Y-72061673D02*
X227661673Y-74250000D01*
X219000000Y-59743673D02*
X219000000Y-67700000D01*
X227861673Y-58250000D02*
X227861673Y-54001609D01*
X220493673Y-58250000D02*
X219000000Y-59743673D01*
X202929466Y-56100000D02*
X200879466Y-58150000D01*
X225900000Y-70300000D02*
X227661673Y-72061673D01*
X227861673Y-58250000D02*
X220493673Y-58250000D01*
X227861673Y-54001609D02*
X233663980Y-48199302D01*
X219000000Y-67700000D02*
X219000000Y-69600000D01*
X218300000Y-67700000D02*
X219000000Y-67700000D01*
%TO.N,/EM_A_N*%
D70*
X166502168Y-63823209D02*
X176821184Y-53504193D01*
D69*
X227113608Y-62137466D02*
X227898607Y-62137466D01*
D68*
X180178527Y-51708142D02*
X178382476Y-53504193D01*
D70*
X176821184Y-53504193D02*
X178382476Y-53504193D01*
D68*
X45178527Y-55300245D02*
X45178527Y-55303527D01*
X46974578Y-53504194D02*
X45178527Y-55300245D01*
X45178527Y-55303527D02*
X82875000Y-93000000D01*
D70*
X140550000Y-101800000D02*
X152750000Y-101800000D01*
D69*
X226182207Y-63800000D02*
X226182207Y-63068867D01*
D70*
X131750000Y-93000000D02*
X140550000Y-101800000D01*
X166502168Y-88047832D02*
X166502168Y-63823209D01*
X83000000Y-93000000D02*
X131750000Y-93000000D01*
D68*
X82875000Y-93000000D02*
X83000000Y-93000000D01*
D70*
X152750000Y-101800000D02*
X166502168Y-88047832D01*
D69*
X226182207Y-63068867D02*
X227113608Y-62137466D01*
%TO.N,/EM_A_P*%
D68*
X77000000Y-88917770D02*
X42484450Y-54402220D01*
D69*
X234982207Y-62800000D02*
X235182207Y-63000000D01*
X233601673Y-62800000D02*
X234982207Y-62800000D01*
X233982207Y-63600000D02*
X235182207Y-63600000D01*
D68*
X42484450Y-54402219D02*
X42484450Y-54402220D01*
D69*
X233638607Y-63256400D02*
X233982207Y-63600000D01*
D68*
X77000000Y-93000000D02*
X77000000Y-88917770D01*
D69*
X233638607Y-62787466D02*
X233638607Y-63256400D01*
D68*
X181076553Y-54402219D02*
X179280501Y-56198270D01*
X44280501Y-52606168D02*
X42484450Y-54402219D01*
%TO.N,/EM_B_N*%
X41642348Y-58892348D02*
X41586424Y-58892348D01*
D69*
X227661673Y-78150000D02*
X226876674Y-78150000D01*
D68*
X73000000Y-90250000D02*
X41642348Y-58892348D01*
D69*
X226048873Y-78977801D02*
X226048873Y-79795116D01*
D68*
X176586425Y-55300244D02*
X174790373Y-57096296D01*
D69*
X226876674Y-78150000D02*
X226048873Y-78977801D01*
X225419472Y-79783581D02*
X225432006Y-79796115D01*
D68*
X41586424Y-58892348D02*
X43382476Y-57096296D01*
X73000000Y-97000000D02*
X73000000Y-90250000D01*
%TO.N,/EM_B_P*%
X71000000Y-101000000D02*
X73000000Y-103000000D01*
D69*
X233505273Y-79251516D02*
X233778757Y-79525000D01*
D68*
X40688399Y-56198271D02*
X38892348Y-57994322D01*
D69*
X233778757Y-79525000D02*
X235131673Y-79525000D01*
X233401673Y-78800000D02*
X235006673Y-78800000D01*
X233505273Y-78782582D02*
X233505273Y-79251516D01*
D68*
X38892348Y-57994322D02*
X38892347Y-57994322D01*
X177484450Y-57994321D02*
X175688399Y-59790373D01*
X38892347Y-57994322D02*
X71000000Y-90101975D01*
D69*
X235006673Y-78800000D02*
X235131673Y-78925000D01*
D68*
X71000000Y-90101975D02*
X71000000Y-101000000D01*
%TO.N,/EM_C_N*%
D69*
X199200000Y-62944467D02*
X199200000Y-63700000D01*
X200879466Y-62050000D02*
X200094467Y-62050000D01*
X200094467Y-62050000D02*
X199200000Y-62944467D01*
D68*
X69100000Y-93600000D02*
X69100000Y-102100000D01*
X74750000Y-107750000D02*
X76250000Y-107750000D01*
X37994322Y-62484450D02*
X37994322Y-62494322D01*
X69100000Y-102100000D02*
X74750000Y-107750000D01*
X37994322Y-62494322D02*
X69100000Y-93600000D01*
X172994322Y-58892347D02*
X171198271Y-60688398D01*
X37994322Y-62484450D02*
X39790373Y-60688399D01*
X76250000Y-107750000D02*
X77000000Y-107000000D01*
%TO.N,/EM_C_P*%
X35336425Y-61586425D02*
X68000000Y-94250000D01*
D69*
X206619466Y-63168934D02*
X206950532Y-63500000D01*
D68*
X37096296Y-59790373D02*
X35300245Y-61586424D01*
X35300245Y-61586424D02*
X35300245Y-61586425D01*
X173892348Y-61586424D02*
X172096296Y-63382475D01*
D69*
X206950532Y-63500000D02*
X208200000Y-63500000D01*
X208000000Y-62700000D02*
X208200000Y-62900000D01*
D68*
X35300245Y-61586425D02*
X35336425Y-61586425D01*
X68000000Y-94250000D02*
X68000000Y-103000000D01*
D69*
X206619466Y-62700000D02*
X208000000Y-62700000D01*
X206619466Y-62700000D02*
X206619466Y-63168934D01*
D68*
X80500000Y-109500000D02*
X83000000Y-107000000D01*
X74500000Y-109500000D02*
X80500000Y-109500000D01*
X68000000Y-103000000D02*
X74500000Y-109500000D01*
%TO.N,/EM_D_N*%
X66200000Y-97825000D02*
X66200000Y-103000000D01*
X74000000Y-110800000D02*
X86200000Y-110800000D01*
D69*
X199098821Y-78631478D02*
X199797083Y-77933216D01*
X199797083Y-77933216D02*
X200815221Y-77933216D01*
D68*
X34402219Y-66076553D02*
X36198271Y-64280501D01*
X34451553Y-66076553D02*
X66200000Y-97825000D01*
X169402220Y-62484449D02*
X167606168Y-64280501D01*
X86200000Y-110800000D02*
X87000000Y-110000000D01*
X66200000Y-103000000D02*
X74000000Y-110800000D01*
X34402219Y-66076553D02*
X34451553Y-66076553D01*
D69*
X199098821Y-79595750D02*
X199098821Y-78631478D01*
D68*
X87000000Y-110000000D02*
X87000000Y-103000000D01*
%TO.N,/EM_D_P*%
X31708143Y-65178527D02*
X31708143Y-65208143D01*
X31708143Y-65208143D02*
X65000000Y-98500000D01*
D70*
X168504194Y-97295806D02*
X168504194Y-66974577D01*
D68*
X89000000Y-109750000D02*
X89000000Y-99000000D01*
X65000000Y-103800000D02*
X73200000Y-112000000D01*
D70*
X93550000Y-103550000D02*
X162250000Y-103550000D01*
D68*
X89000000Y-99000000D02*
X87000000Y-97000000D01*
X65000000Y-98500000D02*
X65000000Y-103800000D01*
D69*
X206555221Y-78583216D02*
X206555221Y-79052150D01*
D68*
X33504194Y-63382476D02*
X31708143Y-65178527D01*
D69*
X207703066Y-78577233D02*
X208028066Y-78902233D01*
D70*
X162250000Y-103550000D02*
X168504194Y-97295806D01*
D68*
X170300245Y-65178526D02*
X168504194Y-66974577D01*
D69*
X206498066Y-78577233D02*
X207703066Y-78577233D01*
X206555221Y-79052150D02*
X207005304Y-79502233D01*
D70*
X87000000Y-97000000D02*
X93550000Y-103550000D01*
D68*
X73200000Y-112000000D02*
X86750000Y-112000000D01*
D69*
X207005304Y-79502233D02*
X208028066Y-79502233D01*
D68*
X86750000Y-112000000D02*
X89000000Y-109750000D01*
%TO.N,/HBRIDGE_A_PWM*%
D66*
X227400000Y-94000000D02*
X232488285Y-94000000D01*
X245034800Y-56470064D02*
X245034800Y-64731906D01*
X245034800Y-64731906D02*
X238847294Y-58544400D01*
X238550000Y-58250000D02*
X233601673Y-58250000D01*
X218474874Y-99000000D02*
X220650000Y-99000000D01*
X232488285Y-94000000D02*
X245034800Y-81453485D01*
X238844400Y-58544400D02*
X238550000Y-58250000D01*
X238847294Y-58544400D02*
X238844400Y-58544400D01*
X217961010Y-99513864D02*
X218474874Y-99000000D01*
X245034800Y-81453485D02*
X245034800Y-64731906D01*
%TO.N,Net-(J2-Pad2)*%
D68*
X268792769Y-120387508D02*
X268792769Y-115139537D01*
X268792769Y-115139537D02*
X270348876Y-113583430D01*
%TO.N,/HBRIDGE_C_PWM*%
D66*
X212150000Y-58150000D02*
X212500000Y-58500000D01*
X211500000Y-52572098D02*
X211500000Y-53000000D01*
X212500000Y-58500000D02*
X217000000Y-58500000D01*
X212150000Y-58150000D02*
X206619466Y-58150000D01*
X217846446Y-96800000D02*
X216552099Y-98094347D01*
X217846446Y-96396446D02*
X217846446Y-96800000D01*
X207037902Y-48110000D02*
X211500000Y-52572098D01*
X214450000Y-60450000D02*
X212150000Y-58150000D01*
X214450000Y-93000000D02*
X214450000Y-60450000D01*
%TO.N,+5VP*%
D68*
X259196016Y-115803984D02*
X263907764Y-111092236D01*
X259196016Y-115803984D02*
X259196016Y-125896016D01*
D69*
X259196016Y-129550430D02*
X259196016Y-125896016D01*
X257723223Y-131023223D02*
X259196016Y-129550430D01*
D68*
X263907764Y-111092236D02*
X270844403Y-111092236D01*
%TO.N,+V_HB*%
D70*
X223151673Y-65200000D02*
X223151673Y-64971234D01*
X223031673Y-81003816D02*
X220860439Y-78832582D01*
X223031673Y-81232582D02*
X223031673Y-81003816D01*
D68*
X276440000Y-109760000D02*
X274612235Y-111587765D01*
X245747680Y-88147680D02*
X244745000Y-87145000D01*
D70*
X196098821Y-80995750D02*
X196098821Y-80766984D01*
D68*
X245747680Y-88147680D02*
X263550000Y-105950000D01*
D69*
X226468403Y-77532582D02*
X227741673Y-77532582D01*
D68*
X274740000Y-105950000D02*
X276440000Y-107650000D01*
X223151673Y-65200000D02*
X223151673Y-66500000D01*
D69*
X199869466Y-61400000D02*
X196169466Y-65100000D01*
X223151673Y-64936730D02*
X226588403Y-61500000D01*
D70*
X196169466Y-65100000D02*
X196169466Y-64800000D01*
D68*
X196098821Y-83851179D02*
X196050000Y-83900000D01*
D70*
X220860439Y-78832582D02*
X219981673Y-78832582D01*
D68*
X222950000Y-81201673D02*
X222951673Y-81200000D01*
D70*
X196098821Y-80766984D02*
X193927587Y-78595750D01*
D69*
X199535551Y-77295750D02*
X200808821Y-77295750D01*
X223031673Y-80969312D02*
X226468403Y-77532582D01*
D68*
X223151673Y-66500000D02*
X223151673Y-68198327D01*
D69*
X226588403Y-61500000D02*
X227861673Y-61500000D01*
D70*
X193927587Y-78595750D02*
X193048821Y-78595750D01*
X194069466Y-62700000D02*
X193119466Y-62700000D01*
X223151673Y-64971234D02*
X220980439Y-62800000D01*
D68*
X276440000Y-107650000D02*
X276440000Y-109760000D01*
D69*
X223151673Y-65200000D02*
X223151673Y-64936730D01*
D68*
X196098821Y-80995750D02*
X196098821Y-83851179D01*
X196169466Y-65100000D02*
X196169466Y-67980534D01*
D70*
X196169466Y-64800000D02*
X194069466Y-62700000D01*
D68*
X263550000Y-105950000D02*
X274740000Y-105950000D01*
X196169466Y-67980534D02*
X196150000Y-68000000D01*
D69*
X223031673Y-81232582D02*
X223031673Y-80969312D01*
D68*
X274612235Y-111587765D02*
X273335599Y-111587765D01*
X222950000Y-84100000D02*
X222950000Y-81201673D01*
D69*
X196098821Y-80732480D02*
X199535551Y-77295750D01*
D68*
X223151673Y-68198327D02*
X223150000Y-68200000D01*
D69*
X200879466Y-61400000D02*
X199869466Y-61400000D01*
X196098821Y-80995750D02*
X196098821Y-80732480D01*
D70*
X220980439Y-62800000D02*
X220101673Y-62800000D01*
%TO.N,/HBRIDGE_C_ISENSE*%
D66*
X212400000Y-61800000D02*
X212400000Y-71400000D01*
D69*
X210000000Y-61400000D02*
X206619466Y-61400000D01*
D66*
X212239340Y-101700000D02*
X212740794Y-101198546D01*
X192269466Y-75198633D02*
X192269466Y-85376666D01*
X194300000Y-47800000D02*
X202351499Y-55851499D01*
X210892167Y-72907833D02*
X194560266Y-72907833D01*
X211000000Y-60400000D02*
X212400000Y-61800000D01*
X192269466Y-85376666D02*
X208592800Y-101700000D01*
X212400000Y-71400000D02*
X210892167Y-72907833D01*
X208592800Y-101700000D02*
X212239340Y-101700000D01*
X194560266Y-72907833D02*
X192269466Y-75198633D01*
D69*
X211000000Y-60400000D02*
X210000000Y-61400000D01*
%TO.N,/CHIP_EN*%
D70*
X165280737Y-128600000D02*
X164455737Y-127775000D01*
X165600000Y-129782661D02*
X165742339Y-129925000D01*
D66*
X211000000Y-101000000D02*
X211200000Y-101200000D01*
D70*
X165800000Y-128600000D02*
X165600000Y-128800000D01*
X165800000Y-128600000D02*
X165280737Y-128600000D01*
D66*
X212032233Y-101200000D02*
X212387240Y-100844993D01*
X211200000Y-101200000D02*
X212032233Y-101200000D01*
D70*
X165600000Y-128800000D02*
X165600000Y-129782661D01*
%TO.N,/I2C_SCL*%
D66*
X252515550Y-57994322D02*
X253861316Y-57994322D01*
D70*
X162250000Y-85050000D02*
X150700000Y-96600000D01*
X150700000Y-96600000D02*
X144400000Y-96600000D01*
D66*
X214800000Y-95400000D02*
X214000000Y-96200000D01*
X246530200Y-69569800D02*
X246530200Y-82136774D01*
X246530200Y-82136774D02*
X233266974Y-95400000D01*
D70*
X98875000Y-79875000D02*
X96875000Y-79875000D01*
D66*
X214000000Y-96525126D02*
X214508561Y-97033687D01*
X233266974Y-95400000D02*
X214800000Y-95400000D01*
X253861316Y-57994322D02*
X255263201Y-59396207D01*
X255263201Y-59396207D02*
X255263201Y-60836799D01*
D70*
X144400000Y-96600000D02*
X127675000Y-79875000D01*
D66*
X255263201Y-60836799D02*
X246530200Y-69569800D01*
D70*
X96875000Y-79875000D02*
X95671751Y-81078249D01*
X127675000Y-79875000D02*
X98875000Y-79875000D01*
D66*
X214000000Y-96200000D02*
X214000000Y-96525126D01*
%TO.N,/I2C_SDA*%
X246200000Y-82000000D02*
X246200000Y-67901974D01*
X233200000Y-95000000D02*
X246200000Y-82000000D01*
X212994400Y-96941660D02*
X212994400Y-96522806D01*
X246200000Y-67901974D02*
X254311601Y-59790373D01*
X213298493Y-97237833D02*
X213290573Y-97237833D01*
D70*
X97421751Y-82678873D02*
X97421751Y-82715436D01*
D66*
X213801454Y-97740794D02*
X213298493Y-97237833D01*
X213000000Y-96517206D02*
X213000000Y-96500000D01*
X213290573Y-97237833D02*
X212994400Y-96941660D01*
X213000000Y-96500000D02*
X214500000Y-95000000D01*
D70*
X99550312Y-80550312D02*
X97421751Y-82678873D01*
D66*
X212994400Y-96522806D02*
X213000000Y-96517206D01*
X214500000Y-95000000D02*
X233200000Y-95000000D01*
%TO.N,/I2C_INT*%
X216503116Y-95800000D02*
X216051558Y-96251558D01*
D70*
X100250000Y-81250000D02*
X100250000Y-83250000D01*
D66*
X233333946Y-95800000D02*
X216503116Y-95800000D01*
X246860400Y-82273546D02*
X233333946Y-95800000D01*
D70*
X100250000Y-83250000D02*
X99171751Y-84328249D01*
D66*
X246860400Y-70833676D02*
X246860400Y-82273546D01*
X256107652Y-61586424D02*
X246860400Y-70833676D01*
X216051558Y-97180675D02*
X215844993Y-97387240D01*
X216051558Y-96251558D02*
X216051558Y-97180675D01*
%TO.N,/HBRIDGE_D_DIR*%
X212375926Y-99155007D02*
X212387240Y-99155007D01*
X205459066Y-74308843D02*
X205827456Y-74677233D01*
X205827456Y-74677233D02*
X206498066Y-74677233D01*
X211235207Y-73568233D02*
X205636456Y-73568233D01*
X211150000Y-97929081D02*
X212375926Y-99155007D01*
X205459066Y-73745623D02*
X205459066Y-74308843D01*
X211150000Y-91250000D02*
X211150000Y-97929081D01*
X212730200Y-80236774D02*
X212730200Y-75063227D01*
X211150000Y-81816974D02*
X212730200Y-80236774D01*
X205636456Y-73568233D02*
X205459066Y-73745623D01*
X212730200Y-75063227D02*
X211235207Y-73568233D01*
X211150000Y-91250000D02*
X211150000Y-81816974D01*
%TO.N,Net-(Status_LED_TX1-+)*%
X241480000Y-149000000D02*
X241484734Y-149000000D01*
X241484734Y-149000000D02*
X242339625Y-148145109D01*
%TO.N,/HBRIDGE_A_DIR*%
X217607456Y-99160311D02*
X218607767Y-98160000D01*
X244679200Y-81306191D02*
X244679200Y-64879200D01*
X232460000Y-58630000D02*
X232730000Y-58900000D01*
X233630000Y-57590000D02*
X232780000Y-57590000D01*
X232460000Y-57910000D02*
X232460000Y-58630000D01*
X232785391Y-93200000D02*
X244679200Y-81306191D01*
X244679200Y-64879200D02*
X238700000Y-58900000D01*
X227400000Y-93400000D02*
X227600000Y-93200000D01*
X236915000Y-54305000D02*
X233630000Y-57590000D01*
X218607767Y-98160000D02*
X220660000Y-98160000D01*
X227400000Y-93200000D02*
X232785391Y-93200000D01*
X232730000Y-58900000D02*
X233601673Y-58900000D01*
X238700000Y-58900000D02*
X233601673Y-58900000D01*
X232780000Y-57590000D02*
X232460000Y-57910000D01*
%TO.N,/HBRIDGE_A_ISENSE*%
D69*
X237982207Y-60500000D02*
X236982207Y-61500000D01*
D66*
X213447901Y-101905653D02*
X213447901Y-101952099D01*
X209900000Y-103000000D02*
X212353554Y-103000000D01*
X212353554Y-103000000D02*
X213447901Y-101905653D01*
X213447901Y-101952099D02*
X213400000Y-102000000D01*
D69*
X236982207Y-61500000D02*
X233601673Y-61500000D01*
%TO.N,Net-(J4-Pad1)*%
X242260375Y-155254891D02*
X240537803Y-155254891D01*
X240537803Y-155254891D02*
X239635648Y-156157046D01*
%TO.N,Net-(U2-U0RXD{slash}GPIO20)*%
D71*
X218969594Y-101597600D02*
X217658260Y-101597600D01*
D68*
X236316978Y-156157046D02*
X236316978Y-154782408D01*
D71*
X235474146Y-151007606D02*
X235474146Y-115004146D01*
X221427600Y-100957600D02*
X219609595Y-100957600D01*
D68*
X237288994Y-157129062D02*
X236316978Y-156157046D01*
D71*
X235474146Y-115004146D02*
X221427600Y-100957600D01*
X236446162Y-154653224D02*
X236446162Y-151979622D01*
X236316978Y-154782408D02*
X236446162Y-154653224D01*
X236446162Y-151979622D02*
X235474146Y-151007606D01*
X217658260Y-101597600D02*
X217253903Y-101193243D01*
X219609595Y-100957600D02*
X218969594Y-101597600D01*
%TO.N,Net-(J4-Pad5)*%
D69*
X239660375Y-149254891D02*
X237691616Y-151223650D01*
X237691616Y-151223650D02*
X237691616Y-151463738D01*
%TO.N,Net-(U2-U0TXD{slash}GPIO21)*%
D71*
X219710000Y-101200000D02*
X220920000Y-101200000D01*
X217193553Y-101840000D02*
X219070000Y-101840000D01*
D68*
X235344962Y-152435754D02*
X234372946Y-151463738D01*
D71*
X219070000Y-101840000D02*
X219710000Y-101200000D01*
X220920000Y-101200000D02*
X234690000Y-114970000D01*
X234572646Y-150089100D02*
X234372946Y-150089100D01*
D68*
X234372946Y-151463738D02*
X234372946Y-150089100D01*
D71*
X216900349Y-101546796D02*
X217193553Y-101840000D01*
X234690000Y-149971746D02*
X234572646Y-150089100D01*
X234690000Y-114970000D02*
X234690000Y-149971746D01*
%TO.N,/HBRIDGE_B_DIR*%
D66*
X227400000Y-91600000D02*
X233433026Y-91600000D01*
X216900349Y-98453204D02*
X218863553Y-96490000D01*
X244018800Y-76803748D02*
X242115052Y-74900000D01*
X218863553Y-96490000D02*
X220700000Y-96490000D01*
X239801513Y-85231513D02*
X240016513Y-85016513D01*
X244018800Y-81014226D02*
X244018800Y-76803748D01*
X242115052Y-74900000D02*
X233401673Y-74900000D01*
X239280000Y-84710000D02*
X239801513Y-85231513D01*
X240016513Y-85016513D02*
X244018800Y-81014226D01*
X233433026Y-91600000D02*
X239801513Y-85231513D01*
%TO.N,/HBRIDGE_D_ISENSE*%
X212017400Y-77441567D02*
X212017400Y-79979706D01*
X209950000Y-92350000D02*
X209950000Y-98407752D01*
X209950000Y-82047106D02*
X209950000Y-92350000D01*
D67*
X206536949Y-77316116D02*
X209764183Y-77316116D01*
D66*
X210828066Y-76252233D02*
X212017400Y-77441567D01*
D67*
X206498066Y-77277233D02*
X206536949Y-77316116D01*
X209764183Y-77316116D02*
X210828066Y-76252233D01*
D66*
X212017400Y-79979706D02*
X209950000Y-82047106D01*
X209950000Y-98407752D02*
X212033687Y-100491439D01*
%TO.N,+3.3V*%
D67*
X233601673Y-60850000D02*
X235550000Y-60850000D01*
D66*
X215000000Y-96400000D02*
X215000000Y-96542248D01*
D67*
X235550000Y-60850000D02*
X235600000Y-60800000D01*
D68*
X250954772Y-116954772D02*
X246500000Y-112500000D01*
D70*
X214275000Y-105500000D02*
X214275000Y-104172146D01*
D68*
X185400000Y-150800000D02*
X186000000Y-150200000D01*
D70*
X162475000Y-129225000D02*
X163200000Y-128500000D01*
D67*
X234863436Y-76850000D02*
X235000000Y-76986564D01*
D68*
X253203984Y-119196016D02*
X250962740Y-116954772D01*
D69*
X209390200Y-60790200D02*
X209400000Y-60800000D01*
D67*
X206498066Y-76627233D02*
X208277501Y-76627233D01*
D69*
X218900000Y-93900000D02*
X219903984Y-92896016D01*
D68*
X219853984Y-92896016D02*
X219903984Y-92896016D01*
X208800000Y-99150000D02*
X208800000Y-98200000D01*
D67*
X208400000Y-76749732D02*
X209400000Y-76749732D01*
X211800000Y-97860660D02*
X212740794Y-98801454D01*
D68*
X218053984Y-91096016D02*
X219853984Y-92896016D01*
D69*
X235000000Y-76986564D02*
X235413436Y-76986564D01*
D70*
X161944263Y-129225000D02*
X162475000Y-129225000D01*
D67*
X211800000Y-97800000D02*
X211800000Y-97860660D01*
X208559800Y-60750000D02*
X208600000Y-60790200D01*
X208277501Y-76627233D02*
X208400000Y-76749732D01*
X233401673Y-76850000D02*
X234863436Y-76850000D01*
D66*
X215000000Y-96542248D02*
X215491439Y-97033687D01*
D69*
X235413436Y-76986564D02*
X235800000Y-76600000D01*
X208600000Y-60790200D02*
X209390200Y-60790200D01*
D70*
X214275000Y-104172146D02*
X215486136Y-102961010D01*
D68*
X185400000Y-151300000D02*
X185400000Y-150800000D01*
D67*
X206619466Y-60750000D02*
X208559800Y-60750000D01*
D68*
X216075000Y-107300000D02*
X214275000Y-105500000D01*
D67*
X235600000Y-60800000D02*
X236400000Y-60800000D01*
D68*
X250962740Y-116954772D02*
X250954772Y-116954772D01*
%TO.N,Net-(POWER_LED2-+)*%
D69*
X248200000Y-124780000D02*
X248200000Y-124700000D01*
X248200000Y-124700000D02*
X248746447Y-124153553D01*
%TO.N,Net-(Status_LED_RX1-+)*%
D66*
X243710000Y-154145109D02*
X244939625Y-154145109D01*
%TO.N,/HBRIDGE_ALL_EN*%
X211700000Y-81733948D02*
X211700000Y-96900000D01*
X205128866Y-73608849D02*
X205499683Y-73238033D01*
D67*
X206619466Y-59450000D02*
X205808596Y-59450000D01*
D66*
X212718599Y-71881401D02*
X211371981Y-73228019D01*
D67*
X235800000Y-70100000D02*
X237900000Y-70100000D01*
X239400000Y-60159793D02*
X238790207Y-59550000D01*
D66*
X213094347Y-98294347D02*
X213094347Y-98447901D01*
D67*
X206048856Y-57400000D02*
X217300000Y-57400000D01*
X237900000Y-70100000D02*
X239400000Y-68600000D01*
X233401673Y-75550000D02*
X232616674Y-75550000D01*
X232362673Y-75295999D02*
X232362673Y-73537327D01*
D66*
X205128866Y-74743032D02*
X205128866Y-73608849D01*
X206498066Y-75327233D02*
X205713067Y-75327233D01*
X211371981Y-73238033D02*
X213060400Y-74926454D01*
X212718599Y-60434599D02*
X212718599Y-71881401D01*
X205499683Y-73238033D02*
X211371981Y-73238033D01*
X213060400Y-74926454D02*
X213060400Y-80373548D01*
X211371981Y-73228019D02*
X211371981Y-73238033D01*
X213060400Y-80373548D02*
X211700000Y-81733948D01*
D67*
X205580466Y-57868390D02*
X206048856Y-57400000D01*
D66*
X206619466Y-59450000D02*
X211734000Y-59450000D01*
D67*
X232616674Y-75550000D02*
X232362673Y-75295999D01*
X239400000Y-68600000D02*
X239400000Y-60159793D01*
X232362673Y-73537327D02*
X235800000Y-70100000D01*
X232450000Y-59550000D02*
X233601673Y-59550000D01*
X238790207Y-59550000D02*
X233601673Y-59550000D01*
X205580466Y-59221870D02*
X205580466Y-57868390D01*
D66*
X205713067Y-75327233D02*
X205128866Y-74743032D01*
X211734000Y-59450000D02*
X212718599Y-60434599D01*
D67*
X205808596Y-59450000D02*
X205580466Y-59221870D01*
D66*
X211700000Y-96900000D02*
X213094347Y-98294347D01*
%TO.N,Net-(EMD1-IMODE)*%
D69*
X209028066Y-80552233D02*
X201028066Y-80552233D01*
D67*
X209428066Y-78302233D02*
X209428066Y-80152233D01*
X209053066Y-77927233D02*
X209428066Y-78302233D01*
X206498066Y-77927233D02*
X209053066Y-77927233D01*
X209428066Y-80152233D02*
X209028066Y-80552233D01*
%TO.N,Net-(EMD1-VCP)*%
D69*
X198098821Y-76645750D02*
X196148821Y-78595750D01*
X200808821Y-76645750D02*
X198098821Y-76645750D01*
%TO.N,Net-(EMD1-CPH)*%
X196348821Y-75995750D02*
X196148821Y-76195750D01*
X200808821Y-75995750D02*
X196348821Y-75995750D01*
%TO.N,Net-(EMD1-CPL)*%
X193681569Y-74749732D02*
X193048821Y-75382480D01*
X193048821Y-75382480D02*
X193048821Y-76195750D01*
X200808821Y-75345750D02*
X197685551Y-75345750D01*
X197681569Y-75349732D02*
X197081569Y-74749732D01*
X197685551Y-75345750D02*
X197681569Y-75349732D01*
X197081569Y-74749732D02*
X193681569Y-74749732D01*
%TO.N,+5V*%
D70*
X249453553Y-123446447D02*
X249453553Y-121679721D01*
X249453553Y-121679721D02*
X250116637Y-121016637D01*
%TO.N,/VDD3P3*%
D66*
X210796016Y-105264644D02*
X213801454Y-102259206D01*
X214155007Y-102637025D02*
X210796016Y-105996016D01*
X210796016Y-105996016D02*
X210796016Y-105264644D01*
X214155007Y-102612760D02*
X214155007Y-102637025D01*
X213801454Y-102259206D02*
X214155007Y-102612760D01*
D70*
X209450781Y-107341251D02*
X210796016Y-105996016D01*
%TO.N,/USB_D+*%
D71*
X218776874Y-100997600D02*
X219364074Y-100410400D01*
X222145926Y-100410400D02*
X247752400Y-126016874D01*
X217961010Y-100624162D02*
X218334448Y-100997600D01*
X218334448Y-100997600D02*
X218776874Y-100997600D01*
X247752400Y-126016874D02*
X247752400Y-132526874D01*
X217961010Y-100486136D02*
X217966136Y-100486136D01*
X247752400Y-132526874D02*
X249054264Y-133828738D01*
X219364074Y-100410400D02*
X222145926Y-100410400D01*
X249054264Y-133828738D02*
X250182240Y-133828738D01*
X217961010Y-100486136D02*
X217961010Y-100624162D01*
X250182240Y-133828738D02*
X250841332Y-134487830D01*
%TO.N,/USB_D-*%
X218903126Y-101302400D02*
X219490326Y-100715200D01*
X247447600Y-132653126D02*
X248838738Y-134044264D01*
X217607456Y-100839689D02*
X217745483Y-100839689D01*
X248838738Y-134044264D02*
X248838738Y-135172240D01*
X219490326Y-100715200D02*
X222019674Y-100715200D01*
X222019674Y-100715200D02*
X247447600Y-126143126D01*
X247447600Y-126143126D02*
X247447600Y-132653126D01*
X248838738Y-135172240D02*
X249497830Y-135831332D01*
X217745483Y-100839689D02*
X218208194Y-101302400D01*
X218208194Y-101302400D02*
X218903126Y-101302400D01*
%TO.N,/40 MHz Oscillator/XTAL_40MHz-*%
D67*
X218128295Y-103040000D02*
X217686447Y-103040000D01*
D68*
X220096381Y-103078086D02*
X220087915Y-103078086D01*
D67*
X217686447Y-103040000D02*
X216546796Y-101900349D01*
D68*
X220087915Y-103078086D02*
X219127148Y-104038853D01*
D67*
X219127148Y-104038853D02*
X218128295Y-103040000D01*
D66*
X216546796Y-101900349D02*
X216550349Y-101900349D01*
%TO.N,/40 MHz Oscillator/XTAL_40MHz+*%
D67*
X217280000Y-103340660D02*
X216193243Y-102253903D01*
X217280000Y-105697635D02*
X217280000Y-103340660D01*
%TO.N,Net-(R26-Pad2)*%
D69*
X202450000Y-67925000D02*
X201175000Y-66650000D01*
X202450000Y-68700000D02*
X202450000Y-67925000D01*
%TO.N,Net-(R31-Pad2)*%
X229282006Y-84021115D02*
X228007006Y-82746115D01*
X229282006Y-84796115D02*
X229282006Y-84021115D01*
%TO.N,Net-(EMC1-IMODE)*%
X209549466Y-62225000D02*
X209549466Y-64325534D01*
X209125000Y-64750000D02*
X209175000Y-64700000D01*
X209549466Y-64325534D02*
X209175000Y-64700000D01*
X206619466Y-62050000D02*
X209374466Y-62050000D01*
X201175000Y-64750000D02*
X209125000Y-64750000D01*
X209374466Y-62050000D02*
X209549466Y-62225000D01*
%TO.N,Net-(EMA1-VCP)*%
X225151673Y-60850000D02*
X223201673Y-62800000D01*
X227861673Y-60850000D02*
X225151673Y-60850000D01*
%TO.N,Net-(R21-Pad2)*%
X229432207Y-68025000D02*
X228157207Y-66750000D01*
X229432207Y-68800000D02*
X229432207Y-68025000D01*
%TO.N,Net-(EMA1-IMODE)*%
X236157207Y-64800000D02*
X228207207Y-64800000D01*
X236582207Y-62400000D02*
X236582207Y-64375000D01*
X236582207Y-64375000D02*
X236157207Y-64800000D01*
X233601673Y-62150000D02*
X236332207Y-62150000D01*
X228207207Y-64800000D02*
X228157207Y-64850000D01*
X236332207Y-62150000D02*
X236582207Y-62400000D01*
%TO.N,Net-(EMB1-IMODE)*%
X235957006Y-80846115D02*
X236007006Y-80796115D01*
X228007006Y-80846115D02*
X235957006Y-80846115D01*
X236156673Y-78150000D02*
X233401673Y-78150000D01*
X236531673Y-80271448D02*
X236531673Y-78525000D01*
X236531673Y-78525000D02*
X236156673Y-78150000D01*
X236007006Y-80796115D02*
X236531673Y-80271448D01*
%TO.N,Net-(R30-Pad2)*%
D70*
X236257006Y-82946115D02*
X236007006Y-82696115D01*
X236257006Y-84746115D02*
X236257006Y-82946115D01*
%TO.N,Net-(R20-Pad2)*%
D69*
X236407207Y-68750000D02*
X236407207Y-66950000D01*
X236407207Y-66950000D02*
X236157207Y-66700000D01*
%TO.N,Net-(EMB1-CPH)*%
X223281673Y-76232582D02*
X223081673Y-76432582D01*
X227741673Y-76232582D02*
X223281673Y-76232582D01*
%TO.N,Net-(EMB1-CPL)*%
X219981673Y-75619312D02*
X219981673Y-76432582D01*
X224614421Y-75586564D02*
X224014421Y-74986564D01*
X224618403Y-75582582D02*
X224614421Y-75586564D01*
X224014421Y-74986564D02*
X220614421Y-74986564D01*
X227741673Y-75582582D02*
X224618403Y-75582582D01*
X220614421Y-74986564D02*
X219981673Y-75619312D01*
%TO.N,Net-(EMC1-VCP)*%
X198150000Y-60750000D02*
X196219466Y-62680534D01*
X200879466Y-60750000D02*
X198150000Y-60750000D01*
X196219466Y-62680534D02*
X196219466Y-62700000D01*
%TO.N,Net-(EMC1-CPH)*%
X200879466Y-60100000D02*
X196419466Y-60100000D01*
X196419466Y-60100000D02*
X196219466Y-60300000D01*
%TO.N,Net-(EMC1-CPL)*%
X193119466Y-59450000D02*
X193119466Y-60300000D01*
X197619466Y-59450000D02*
X197069466Y-58900000D01*
X193669466Y-58900000D02*
X193119466Y-59450000D01*
X200879466Y-59450000D02*
X197619466Y-59450000D01*
X197069466Y-58900000D02*
X193669466Y-58900000D01*
%TO.N,Net-(R25-Pad2)*%
X209425000Y-68650000D02*
X209425000Y-66850000D01*
X209425000Y-66850000D02*
X209175000Y-66600000D01*
%TO.N,Net-(EMB1-VCP)*%
X225031673Y-76882582D02*
X223081673Y-78832582D01*
X227741673Y-76882582D02*
X225031673Y-76882582D01*
%TO.N,Net-(R36-Pad2)*%
D67*
X202278066Y-83702233D02*
X201028066Y-82452233D01*
X202278066Y-84502233D02*
X202278066Y-83702233D01*
%TO.N,Net-(U5-ILM)*%
X256448528Y-129430330D02*
X255630330Y-129430330D01*
X256659099Y-129640901D02*
X256448528Y-129430330D01*
X257422703Y-130404505D02*
X256659099Y-129640901D01*
%TO.N,Net-(U5-DVDT)*%
D69*
X256510050Y-130800000D02*
X256768629Y-131058579D01*
X253996016Y-131096016D02*
X254292032Y-130800000D01*
X254292032Y-130800000D02*
X256510050Y-130800000D01*
%TO.N,Net-(U5-ITIMER)*%
X257758579Y-130068629D02*
X257296016Y-129606066D01*
X257296016Y-129606066D02*
X257296016Y-127796016D01*
%TO.N,Net-(EMA1-CPH)*%
X227861673Y-60200000D02*
X223401673Y-60200000D01*
X223401673Y-60200000D02*
X223201673Y-60400000D01*
%TO.N,Net-(EMA1-CPL)*%
X220734421Y-58953982D02*
X220101673Y-59586730D01*
X220101673Y-59586730D02*
X220101673Y-60400000D01*
X224134421Y-58953982D02*
X220734421Y-58953982D01*
X224734421Y-59553982D02*
X224134421Y-58953982D01*
X227861673Y-59550000D02*
X224738403Y-59550000D01*
X224738403Y-59550000D02*
X224734421Y-59553982D01*
%TO.N,Net-(R35-Pad2)*%
D70*
X209278066Y-84502233D02*
X209278066Y-82702233D01*
X209278066Y-82702233D02*
X209028066Y-82452233D01*
%TD*%
%TA.AperFunction,Conductor*%
%TO.N,/EM_B_P*%
G36*
X236028461Y-78544685D02*
G01*
X236074216Y-78597489D01*
X236085422Y-78649000D01*
X236085422Y-79801000D01*
X236065737Y-79868039D01*
X236012933Y-79913794D01*
X235961422Y-79925000D01*
X234809422Y-79925000D01*
X234742383Y-79905315D01*
X234696628Y-79852511D01*
X234685422Y-79801000D01*
X234685422Y-78649000D01*
X234705107Y-78581961D01*
X234757911Y-78536206D01*
X234809422Y-78525000D01*
X235961422Y-78525000D01*
X236028461Y-78544685D01*
G37*
%TD.AperFunction*%
%TD*%
%TA.AperFunction,Conductor*%
%TO.N,GND*%
G36*
X215151796Y-34992188D02*
G01*
X216586232Y-35010414D01*
X216588462Y-35010463D01*
X216755133Y-35015665D01*
X218195356Y-35069608D01*
X218197482Y-35069707D01*
X218357010Y-35078656D01*
X218357177Y-35078666D01*
X218633709Y-35095879D01*
X218699391Y-35119689D01*
X218741777Y-35175233D01*
X218750000Y-35219638D01*
X218750000Y-37210261D01*
X218730315Y-37277300D01*
X218726903Y-37282335D01*
X217537090Y-38948074D01*
X217482106Y-38991184D01*
X217436187Y-39000000D01*
X212563813Y-39000000D01*
X212496774Y-38980315D01*
X212462910Y-38948074D01*
X211273097Y-37282335D01*
X211250149Y-37216341D01*
X211250000Y-37210261D01*
X211250000Y-35219901D01*
X211269685Y-35152862D01*
X211322489Y-35107107D01*
X211366377Y-35096135D01*
X211757442Y-35072059D01*
X211759481Y-35071952D01*
X211945341Y-35063900D01*
X213366355Y-35011644D01*
X213368459Y-35011586D01*
X213548351Y-35008264D01*
X214976390Y-34991090D01*
X214978439Y-34991085D01*
X215151796Y-34992188D01*
G37*
%TD.AperFunction*%
%TD*%
%TA.AperFunction,Conductor*%
%TO.N,/EM_B_N*%
G36*
X226391912Y-79414801D02*
G01*
X226437667Y-79467605D01*
X226448873Y-79519116D01*
X226448873Y-80671116D01*
X226429188Y-80738155D01*
X226376384Y-80783910D01*
X226324873Y-80795116D01*
X225172873Y-80795116D01*
X225105834Y-80775431D01*
X225060079Y-80722627D01*
X225048873Y-80671116D01*
X225048873Y-79519116D01*
X225068558Y-79452077D01*
X225121362Y-79406322D01*
X225172873Y-79395116D01*
X226324873Y-79395116D01*
X226391912Y-79414801D01*
G37*
%TD.AperFunction*%
%TD*%
%TA.AperFunction,Conductor*%
%TO.N,/EM_D_N*%
G36*
X199441860Y-79215435D02*
G01*
X199487615Y-79268239D01*
X199498821Y-79319750D01*
X199498821Y-80471750D01*
X199479136Y-80538789D01*
X199426332Y-80584544D01*
X199374821Y-80595750D01*
X198222821Y-80595750D01*
X198155782Y-80576065D01*
X198110027Y-80523261D01*
X198098821Y-80471750D01*
X198098821Y-79319750D01*
X198118506Y-79252711D01*
X198171310Y-79206956D01*
X198222821Y-79195750D01*
X199374821Y-79195750D01*
X199441860Y-79215435D01*
G37*
%TD.AperFunction*%
%TD*%
%TA.AperFunction,Conductor*%
%TO.N,GND*%
G36*
X279847476Y-96269685D02*
G01*
X279893231Y-96322489D01*
X279904285Y-96367868D01*
X279964626Y-97586480D01*
X279964740Y-97589544D01*
X280004444Y-99193726D01*
X280004482Y-99196792D01*
X280004503Y-100801464D01*
X280004465Y-100804531D01*
X279964805Y-102408716D01*
X279964691Y-102411780D01*
X279904296Y-103632129D01*
X279881322Y-103698114D01*
X279826321Y-103741203D01*
X279780448Y-103750000D01*
X277789738Y-103750000D01*
X277722699Y-103730315D01*
X277717664Y-103726903D01*
X277677359Y-103698114D01*
X276051926Y-102537090D01*
X276008816Y-102482106D01*
X276000000Y-102436187D01*
X276000000Y-97563813D01*
X276019685Y-97496774D01*
X276051926Y-97462910D01*
X277717664Y-96273097D01*
X277783658Y-96250149D01*
X277789738Y-96250000D01*
X279780437Y-96250000D01*
X279847476Y-96269685D01*
G37*
%TD.AperFunction*%
%TD*%
%TA.AperFunction,Conductor*%
%TO.N,/EM_A_P*%
G36*
X236127501Y-62619685D02*
G01*
X236173256Y-62672489D01*
X236184462Y-62724000D01*
X236184462Y-63876000D01*
X236164777Y-63943039D01*
X236111973Y-63988794D01*
X236060462Y-64000000D01*
X234908462Y-64000000D01*
X234841423Y-63980315D01*
X234795668Y-63927511D01*
X234784462Y-63876000D01*
X234784462Y-62724000D01*
X234804147Y-62656961D01*
X234856951Y-62611206D01*
X234908462Y-62600000D01*
X236060462Y-62600000D01*
X236127501Y-62619685D01*
G37*
%TD.AperFunction*%
%TD*%
%TA.AperFunction,Conductor*%
%TO.N,GND*%
G36*
X80022618Y-35001051D02*
G01*
X81450649Y-35018205D01*
X81630223Y-35021518D01*
X81640608Y-35024777D01*
X83051856Y-35073755D01*
X83053247Y-35073806D01*
X83239113Y-35081855D01*
X83240983Y-35081953D01*
X83633621Y-35106121D01*
X83699322Y-35129886D01*
X83741746Y-35185402D01*
X83750000Y-35229886D01*
X83750000Y-37210261D01*
X83730315Y-37277300D01*
X83726903Y-37282335D01*
X82537090Y-38948074D01*
X82482106Y-38991184D01*
X82436187Y-39000000D01*
X77563813Y-39000000D01*
X77496774Y-38980315D01*
X77462910Y-38948074D01*
X76273097Y-37282335D01*
X76250149Y-37216341D01*
X76250000Y-37210261D01*
X76250000Y-35229614D01*
X76269685Y-35162575D01*
X76322489Y-35116820D01*
X76366290Y-35105854D01*
X76642677Y-35088646D01*
X76801944Y-35079710D01*
X76804125Y-35079607D01*
X78243979Y-35025657D01*
X78244445Y-35025641D01*
X78410781Y-35020447D01*
X78412990Y-35020398D01*
X79847215Y-35002153D01*
X80020631Y-35001046D01*
X80022618Y-35001051D01*
G37*
%TD.AperFunction*%
%TD*%
%TA.AperFunction,Conductor*%
%TO.N,GND*%
G36*
X17277301Y-96269685D02*
G01*
X17282336Y-96273097D01*
X18948074Y-97462910D01*
X18991184Y-97517894D01*
X19000000Y-97563813D01*
X19000000Y-102436187D01*
X18980315Y-102503226D01*
X18948074Y-102537090D01*
X17282336Y-103726903D01*
X17216342Y-103749851D01*
X17210262Y-103750000D01*
X15229531Y-103750000D01*
X15162492Y-103730315D01*
X15116737Y-103677511D01*
X15105683Y-103632131D01*
X15045296Y-102412309D01*
X15045184Y-102409273D01*
X15025352Y-101607569D01*
X15005504Y-100805256D01*
X15005468Y-100802350D01*
X15005468Y-99197842D01*
X15005506Y-99194777D01*
X15045180Y-97590843D01*
X15045294Y-97587778D01*
X15105682Y-96367866D01*
X15128657Y-96301885D01*
X15183658Y-96258797D01*
X15229530Y-96250000D01*
X17210262Y-96250000D01*
X17277301Y-96269685D01*
G37*
%TD.AperFunction*%
%TD*%
%TA.AperFunction,Conductor*%
%TO.N,GND*%
G36*
X217503226Y-161019685D02*
G01*
X217537090Y-161051926D01*
X218726903Y-162717664D01*
X218749851Y-162783658D01*
X218750000Y-162789738D01*
X218750000Y-164780370D01*
X218730315Y-164847409D01*
X218677511Y-164893164D01*
X218633707Y-164904130D01*
X218359353Y-164921215D01*
X218358594Y-164921260D01*
X218199296Y-164930200D01*
X218196992Y-164930308D01*
X216757293Y-164984270D01*
X216756521Y-164984297D01*
X216590290Y-164989490D01*
X216587997Y-164989540D01*
X215153889Y-165007802D01*
X215153103Y-165007809D01*
X214980333Y-165008914D01*
X214978052Y-165008908D01*
X213550542Y-164991779D01*
X213549744Y-164991767D01*
X213370270Y-164988458D01*
X213368002Y-164988395D01*
X211947612Y-164936199D01*
X211946803Y-164936167D01*
X211761359Y-164928139D01*
X211759106Y-164928021D01*
X211366384Y-164903854D01*
X211300680Y-164880089D01*
X211258255Y-164824574D01*
X211250000Y-164780088D01*
X211250000Y-162789738D01*
X211269685Y-162722699D01*
X211273097Y-162717664D01*
X212462910Y-161051926D01*
X212517894Y-161008816D01*
X212563813Y-161000000D01*
X217436187Y-161000000D01*
X217503226Y-161019685D01*
G37*
%TD.AperFunction*%
%TD*%
%TA.AperFunction,Conductor*%
%TO.N,/EM_C_P*%
G36*
X209092505Y-62444685D02*
G01*
X209138260Y-62497489D01*
X209149466Y-62549000D01*
X209149466Y-63701000D01*
X209129781Y-63768039D01*
X209076977Y-63813794D01*
X209025466Y-63825000D01*
X207873466Y-63825000D01*
X207806427Y-63805315D01*
X207760672Y-63752511D01*
X207749466Y-63701000D01*
X207749466Y-62549000D01*
X207769151Y-62481961D01*
X207821955Y-62436206D01*
X207873466Y-62425000D01*
X209025466Y-62425000D01*
X209092505Y-62444685D01*
G37*
%TD.AperFunction*%
%TD*%
%TA.AperFunction,Conductor*%
%TO.N,/EM_A_N*%
G36*
X226525246Y-63419685D02*
G01*
X226571001Y-63472489D01*
X226582207Y-63524000D01*
X226582207Y-64676000D01*
X226562522Y-64743039D01*
X226509718Y-64788794D01*
X226458207Y-64800000D01*
X225306207Y-64800000D01*
X225239168Y-64780315D01*
X225193413Y-64727511D01*
X225182207Y-64676000D01*
X225182207Y-63524000D01*
X225201892Y-63456961D01*
X225254696Y-63411206D01*
X225306207Y-63400000D01*
X226458207Y-63400000D01*
X226525246Y-63419685D01*
G37*
%TD.AperFunction*%
%TD*%
%TA.AperFunction,Conductor*%
%TO.N,GND*%
G36*
X82503226Y-161019685D02*
G01*
X82537090Y-161051926D01*
X83726903Y-162717664D01*
X83749851Y-162783658D01*
X83750000Y-162789738D01*
X83750000Y-164770112D01*
X83730315Y-164837151D01*
X83677511Y-164882906D01*
X83633618Y-164893878D01*
X83241293Y-164918027D01*
X83239040Y-164918145D01*
X83053628Y-164926175D01*
X83052818Y-164926207D01*
X81632628Y-164978414D01*
X81630361Y-164978477D01*
X81450957Y-164981788D01*
X81450159Y-164981800D01*
X80022879Y-164998946D01*
X80020597Y-164998952D01*
X79847711Y-164997848D01*
X79846926Y-164997841D01*
X78413169Y-164979604D01*
X78410876Y-164979554D01*
X78244586Y-164974362D01*
X78243813Y-164974335D01*
X76804343Y-164920401D01*
X76802040Y-164920293D01*
X76642969Y-164911368D01*
X76642209Y-164911323D01*
X76366294Y-164894144D01*
X76300608Y-164870332D01*
X76258223Y-164814787D01*
X76250000Y-164770384D01*
X76250000Y-162789738D01*
X76269685Y-162722699D01*
X76273097Y-162717664D01*
X77462910Y-161051926D01*
X77517894Y-161008816D01*
X77563813Y-161000000D01*
X82436187Y-161000000D01*
X82503226Y-161019685D01*
G37*
%TD.AperFunction*%
%TD*%
%TA.AperFunction,Conductor*%
%TO.N,/EM_C_N*%
G36*
X199492505Y-63308225D02*
G01*
X199538260Y-63361029D01*
X199549466Y-63412540D01*
X199549466Y-64564540D01*
X199529781Y-64631579D01*
X199476977Y-64677334D01*
X199425466Y-64688540D01*
X198273466Y-64688540D01*
X198206427Y-64668855D01*
X198160672Y-64616051D01*
X198149466Y-64564540D01*
X198149466Y-63514875D01*
X198169151Y-63447836D01*
X198185785Y-63427194D01*
X198288120Y-63324859D01*
X198349443Y-63291374D01*
X198375801Y-63288540D01*
X199425466Y-63288540D01*
X199492505Y-63308225D01*
G37*
%TD.AperFunction*%
%TD*%
%TA.AperFunction,Conductor*%
%TO.N,/EM_D_P*%
G36*
X208971105Y-78521918D02*
G01*
X209016860Y-78574722D01*
X209028066Y-78626233D01*
X209028066Y-79778233D01*
X209008381Y-79845272D01*
X208955577Y-79891027D01*
X208904066Y-79902233D01*
X207752066Y-79902233D01*
X207685027Y-79882548D01*
X207639272Y-79829744D01*
X207628066Y-79778233D01*
X207628066Y-78626233D01*
X207647751Y-78559194D01*
X207700555Y-78513439D01*
X207752066Y-78502233D01*
X208904066Y-78502233D01*
X208971105Y-78521918D01*
G37*
%TD.AperFunction*%
%TD*%
%TA.AperFunction,Conductor*%
%TO.N,GND*%
G36*
X220715639Y-101371722D02*
G01*
X220723387Y-101373997D01*
X220740868Y-101379130D01*
X220793671Y-101410482D01*
X223065960Y-103685723D01*
X224538929Y-105160606D01*
X224560062Y-105188873D01*
X224567546Y-105202600D01*
X224582353Y-105270883D01*
X224582352Y-105270907D01*
X224582220Y-105272731D01*
X224562835Y-105330857D01*
X224558668Y-105337336D01*
X224542057Y-105357941D01*
X219855288Y-110044711D01*
X219827032Y-110065863D01*
X219813311Y-110073355D01*
X219745051Y-110088207D01*
X219743245Y-110088078D01*
X219685044Y-110068710D01*
X219678529Y-110064523D01*
X219657893Y-110047893D01*
X217126093Y-107516093D01*
X217117924Y-107507081D01*
X217110227Y-107497703D01*
X217102927Y-107487824D01*
X217102914Y-107487833D01*
X217077644Y-107450014D01*
X217077642Y-107450012D01*
X216434877Y-106807248D01*
X215924991Y-106297361D01*
X215924986Y-106297357D01*
X215887069Y-106272021D01*
X215877297Y-106264773D01*
X215867917Y-106257074D01*
X215858907Y-106248907D01*
X215326093Y-105716093D01*
X215317926Y-105707083D01*
X215310227Y-105697703D01*
X215302970Y-105687918D01*
X215292516Y-105672271D01*
X215292516Y-105672272D01*
X215277647Y-105650018D01*
X215277639Y-105650009D01*
X214672589Y-105044960D01*
X214651437Y-105016704D01*
X214643945Y-105002983D01*
X214629091Y-104934753D01*
X214629219Y-104932965D01*
X214648612Y-104874700D01*
X214652818Y-104868160D01*
X214669478Y-104847507D01*
X216475310Y-103044020D01*
X216503572Y-103022890D01*
X216517304Y-103015404D01*
X216585582Y-103000598D01*
X216587437Y-103000732D01*
X216645559Y-103020116D01*
X216652038Y-103024283D01*
X216672643Y-103040894D01*
X217013573Y-103381824D01*
X217034723Y-103410076D01*
X217047331Y-103433165D01*
X217062500Y-103492594D01*
X217062500Y-105187768D01*
X217057476Y-105222705D01*
X217050064Y-105247946D01*
X217018769Y-105300690D01*
X216669452Y-105650009D01*
X216586717Y-105732744D01*
X216586713Y-105732748D01*
X216561446Y-105770562D01*
X216561446Y-105770563D01*
X216549581Y-105830217D01*
X216549581Y-105830218D01*
X216561445Y-105889870D01*
X216561447Y-105889876D01*
X216561448Y-105889878D01*
X216561449Y-105889879D01*
X216586710Y-105927685D01*
X216586711Y-105927686D01*
X216586712Y-105927687D01*
X217049948Y-106390921D01*
X217087759Y-106416187D01*
X217108607Y-106420334D01*
X217147416Y-106428054D01*
X217147417Y-106428054D01*
X217147419Y-106428054D01*
X217187189Y-106420142D01*
X217207076Y-106416187D01*
X217244887Y-106390923D01*
X217973286Y-105662522D01*
X217998552Y-105624711D01*
X218000959Y-105612612D01*
X218010419Y-105565054D01*
X218010419Y-105565049D01*
X217998553Y-105505398D01*
X217998552Y-105505396D01*
X217998552Y-105505394D01*
X217998550Y-105505392D01*
X217998550Y-105505390D01*
X217997628Y-105504011D01*
X217997076Y-105501709D01*
X217991771Y-105495245D01*
X217973289Y-105467584D01*
X217973283Y-105467577D01*
X217546425Y-105040720D01*
X217525274Y-105012465D01*
X217512667Y-104989376D01*
X217497500Y-104929951D01*
X217497500Y-103397445D01*
X217502522Y-103362514D01*
X217506432Y-103349196D01*
X217544204Y-103290417D01*
X217607756Y-103261390D01*
X217616765Y-103260095D01*
X217626042Y-103258762D01*
X217643685Y-103257500D01*
X217969012Y-103257500D01*
X218003944Y-103262521D01*
X218029188Y-103269934D01*
X218081934Y-103301230D01*
X218453819Y-103673115D01*
X218474971Y-103701371D01*
X218482463Y-103715092D01*
X218497315Y-103783352D01*
X218497186Y-103785158D01*
X218477822Y-103843353D01*
X218473641Y-103849860D01*
X218457002Y-103870510D01*
X218421494Y-103906019D01*
X218421486Y-103906028D01*
X218396220Y-103943839D01*
X218396220Y-103943840D01*
X218384355Y-104003496D01*
X218384355Y-104003498D01*
X218396219Y-104063150D01*
X218396221Y-104063156D01*
X218396222Y-104063160D01*
X218421481Y-104100962D01*
X218421484Y-104100965D01*
X218421490Y-104100972D01*
X219065026Y-104744507D01*
X219065029Y-104744510D01*
X219065032Y-104744512D01*
X219065034Y-104744514D01*
X219073279Y-104750023D01*
X219078904Y-104753782D01*
X219087156Y-104763656D01*
X219100151Y-104770454D01*
X219150431Y-104818968D01*
X219166501Y-104886964D01*
X219143259Y-104952855D01*
X219116978Y-104979607D01*
X219103296Y-104989846D01*
X219103284Y-104989857D01*
X217563232Y-106529487D01*
X217542022Y-106555803D01*
X217509317Y-106606695D01*
X217508699Y-106606298D01*
X217490351Y-106632233D01*
X217488279Y-106634306D01*
X217488275Y-106634310D01*
X217463008Y-106672124D01*
X217455657Y-106709086D01*
X217451143Y-106731779D01*
X217451143Y-106731780D01*
X217463007Y-106791432D01*
X217463009Y-106791438D01*
X217488272Y-106829247D01*
X217505660Y-106846635D01*
X217526803Y-106874874D01*
X217536282Y-106892228D01*
X217536284Y-106892231D01*
X217536286Y-106892234D01*
X217545149Y-106904069D01*
X217563223Y-106928208D01*
X217563227Y-106928212D01*
X219143310Y-108507846D01*
X219169599Y-108529025D01*
X219169601Y-108529026D01*
X219169602Y-108529027D01*
X219213951Y-108557519D01*
X219288055Y-108582171D01*
X219357734Y-108587144D01*
X219357736Y-108587144D01*
X219357749Y-108587145D01*
X219365253Y-108587502D01*
X219444681Y-108568222D01*
X219506000Y-108534729D01*
X219541977Y-108507789D01*
X221081171Y-106968157D01*
X221102338Y-106941887D01*
X221102342Y-106941881D01*
X221102343Y-106941880D01*
X221126026Y-106905027D01*
X221142664Y-106884380D01*
X221160829Y-106866216D01*
X221186094Y-106828405D01*
X221190303Y-106807248D01*
X221197961Y-106768748D01*
X221197961Y-106768743D01*
X221186094Y-106709087D01*
X221186094Y-106709086D01*
X221160831Y-106671277D01*
X221160825Y-106671270D01*
X221126358Y-106636803D01*
X221118871Y-106624818D01*
X221118255Y-106622619D01*
X221115195Y-106618530D01*
X221112457Y-106613514D01*
X221108098Y-106605528D01*
X221108096Y-106605525D01*
X221081175Y-106569553D01*
X221081160Y-106569536D01*
X219501966Y-104989910D01*
X219501953Y-104989898D01*
X219475675Y-104968716D01*
X219431339Y-104940214D01*
X219431330Y-104940209D01*
X219416809Y-104935374D01*
X219390697Y-104923145D01*
X219371016Y-104910956D01*
X219363583Y-104905989D01*
X219363582Y-104905988D01*
X219363580Y-104905987D01*
X219361808Y-104905253D01*
X219352940Y-104899760D01*
X219353424Y-104898593D01*
X219338155Y-104890604D01*
X219334329Y-104888234D01*
X219313889Y-104865425D01*
X219291858Y-104844162D01*
X219290793Y-104839653D01*
X219287699Y-104836201D01*
X219282834Y-104805958D01*
X219275798Y-104776164D01*
X219277289Y-104771476D01*
X219276604Y-104767217D01*
X219284111Y-104750023D01*
X219294707Y-104716712D01*
X219299116Y-104709716D01*
X219316337Y-104688150D01*
X219827960Y-104176528D01*
X219830179Y-104174541D01*
X219830986Y-104173663D01*
X219830997Y-104173651D01*
X219832776Y-104171711D01*
X219832803Y-104171685D01*
X219832805Y-104171682D01*
X219832804Y-104171682D01*
X219832809Y-104171678D01*
X219858074Y-104133867D01*
X219859482Y-104126792D01*
X219869941Y-104074210D01*
X219869941Y-104074205D01*
X219867876Y-104063827D01*
X219865986Y-104028588D01*
X219867857Y-104007679D01*
X219887653Y-103950762D01*
X219891338Y-103945139D01*
X219907356Y-103925444D01*
X219984212Y-103848588D01*
X220012469Y-103827437D01*
X220035558Y-103814831D01*
X220090379Y-103800839D01*
X220090323Y-103800263D01*
X220094095Y-103799891D01*
X220094979Y-103799666D01*
X220096382Y-103799666D01*
X220096383Y-103799666D01*
X220149132Y-103789173D01*
X220156040Y-103787799D01*
X220156040Y-103787798D01*
X220156042Y-103787798D01*
X220174945Y-103775167D01*
X220193851Y-103762535D01*
X220780829Y-103175556D01*
X220806094Y-103137745D01*
X220806355Y-103136436D01*
X220817961Y-103078088D01*
X220817961Y-103078083D01*
X220811185Y-103044022D01*
X220808477Y-103030406D01*
X220807875Y-103024296D01*
X220806094Y-103018425D01*
X220780833Y-102980619D01*
X220780831Y-102980617D01*
X220780825Y-102980610D01*
X220198631Y-102398417D01*
X220185415Y-102374214D01*
X220156037Y-102368371D01*
X220156038Y-102368371D01*
X220096383Y-102356506D01*
X220096382Y-102356506D01*
X220096380Y-102356506D01*
X220096379Y-102356506D01*
X220048698Y-102365990D01*
X220042589Y-102366591D01*
X220036720Y-102368371D01*
X219998914Y-102393632D01*
X219426964Y-102965582D01*
X219426963Y-102965583D01*
X219411939Y-102980608D01*
X219411936Y-102980611D01*
X219386666Y-103018429D01*
X219375959Y-103072259D01*
X219373543Y-103077313D01*
X219362366Y-103115380D01*
X219331072Y-103168124D01*
X219281744Y-103217454D01*
X219281741Y-103217457D01*
X219244138Y-103255059D01*
X219215883Y-103276210D01*
X219197466Y-103286266D01*
X219139149Y-103301428D01*
X219132433Y-103301488D01*
X219107145Y-103299113D01*
X219098524Y-103297399D01*
X219098524Y-103297397D01*
X219098509Y-103297396D01*
X219091793Y-103296060D01*
X219091792Y-103296060D01*
X219091791Y-103296060D01*
X219044110Y-103305544D01*
X219038001Y-103306145D01*
X219032132Y-103307925D01*
X218994326Y-103333186D01*
X218961986Y-103365526D01*
X218933731Y-103386676D01*
X218920010Y-103394168D01*
X218851750Y-103409020D01*
X218851076Y-103408971D01*
X218849943Y-103408890D01*
X218791733Y-103389517D01*
X218785225Y-103385334D01*
X218764590Y-103368704D01*
X218336782Y-102940896D01*
X218312683Y-102916797D01*
X218312683Y-102916796D01*
X218251499Y-102855612D01*
X218194972Y-102832198D01*
X218181086Y-102826446D01*
X218171559Y-102822500D01*
X218171558Y-102822500D01*
X218171556Y-102822500D01*
X217845730Y-102822500D01*
X217810794Y-102817477D01*
X217785552Y-102810065D01*
X217732807Y-102778769D01*
X217337524Y-102383486D01*
X217316372Y-102355230D01*
X217308880Y-102341509D01*
X217294026Y-102273276D01*
X217294154Y-102271486D01*
X217313545Y-102213230D01*
X217317756Y-102206682D01*
X217334416Y-102186029D01*
X217465060Y-102055556D01*
X217493321Y-102034429D01*
X217516437Y-102021827D01*
X217575789Y-102006700D01*
X219103157Y-102006700D01*
X219103159Y-102006700D01*
X219164428Y-101981322D01*
X219730126Y-101415623D01*
X219758376Y-101394475D01*
X219781468Y-101381867D01*
X219840893Y-101366700D01*
X220680707Y-101366700D01*
X220715639Y-101371722D01*
G37*
%TD.AperFunction*%
%TD*%
%TA.AperFunction,Conductor*%
%TO.N,+V_HB*%
G36*
X274685329Y-110669124D02*
G01*
X274747125Y-110701724D01*
X274781486Y-110762561D01*
X274782236Y-110815305D01*
X273872310Y-115301359D01*
X273839692Y-115363147D01*
X273778846Y-115397492D01*
X273726135Y-115398234D01*
X271471173Y-114940849D01*
X271409385Y-114908231D01*
X271375040Y-114847385D01*
X271374291Y-114794710D01*
X272282867Y-110309020D01*
X272315467Y-110247225D01*
X272376304Y-110212864D01*
X272429013Y-110212107D01*
X274685329Y-110669124D01*
G37*
%TD.AperFunction*%
%TD*%
%TA.AperFunction,Conductor*%
%TO.N,+3.3V*%
G36*
X208443334Y-107459180D02*
G01*
X208487681Y-107487681D01*
X209312319Y-108312319D01*
X209345804Y-108373642D01*
X209340820Y-108443334D01*
X209312319Y-108487681D01*
X208900000Y-108899999D01*
X208900000Y-110048638D01*
X208880315Y-110115677D01*
X208863681Y-110136319D01*
X207487681Y-111512318D01*
X207426358Y-111545803D01*
X207356666Y-111540819D01*
X207312319Y-111512318D01*
X205237683Y-109437681D01*
X205204198Y-109376358D01*
X205209182Y-109306666D01*
X205237679Y-109262323D01*
X206563681Y-107936318D01*
X206625004Y-107902834D01*
X206651362Y-107900000D01*
X207900000Y-107900000D01*
X208312319Y-107487681D01*
X208373642Y-107454196D01*
X208443334Y-107459180D01*
G37*
%TD.AperFunction*%
%TD*%
%TA.AperFunction,Conductor*%
%TO.N,+5V*%
G36*
X249142919Y-117359532D02*
G01*
X249187188Y-117387961D01*
X250407538Y-118606448D01*
X250441070Y-118667744D01*
X250443924Y-118694101D01*
X250445333Y-120545287D01*
X250912318Y-121012319D01*
X250945800Y-121073644D01*
X250940812Y-121143335D01*
X250912314Y-121187677D01*
X250287681Y-121812317D01*
X250226358Y-121845802D01*
X250156666Y-121840818D01*
X250112318Y-121812317D01*
X249604975Y-121304975D01*
X249604973Y-121304974D01*
X247954302Y-121303994D01*
X247887275Y-121284270D01*
X247866630Y-121267611D01*
X247786813Y-121187677D01*
X246587810Y-119986910D01*
X246554371Y-119925563D01*
X246559407Y-119855875D01*
X246587881Y-119811609D01*
X249011902Y-117388020D01*
X249073228Y-117354541D01*
X249142919Y-117359532D01*
G37*
%TD.AperFunction*%
%TD*%
%TA.AperFunction,Conductor*%
%TO.N,GND*%
G36*
X79443039Y-99519685D02*
G01*
X79488794Y-99572489D01*
X79500000Y-99624000D01*
X79500000Y-101526000D01*
X79480315Y-101593039D01*
X79427511Y-101638794D01*
X79376000Y-101650000D01*
X77124000Y-101650000D01*
X77056961Y-101630315D01*
X77011206Y-101577511D01*
X77000000Y-101526000D01*
X77000000Y-99624000D01*
X77019685Y-99556961D01*
X77072489Y-99511206D01*
X77124000Y-99500000D01*
X79376000Y-99500000D01*
X79443039Y-99519685D01*
G37*
%TD.AperFunction*%
%TD*%
%TA.AperFunction,Conductor*%
%TO.N,GND*%
G36*
X232997884Y-66219685D02*
G01*
X233018526Y-66236319D01*
X234145888Y-67363681D01*
X234179373Y-67425004D01*
X234182207Y-67451362D01*
X234182207Y-69676000D01*
X234162522Y-69743039D01*
X234109718Y-69788794D01*
X234058207Y-69800000D01*
X230506207Y-69800000D01*
X230439168Y-69780315D01*
X230393413Y-69727511D01*
X230382207Y-69676000D01*
X230382207Y-67444893D01*
X230401892Y-67377854D01*
X230410943Y-67365516D01*
X231345026Y-66244616D01*
X231403065Y-66205718D01*
X231440285Y-66200000D01*
X232930845Y-66200000D01*
X232997884Y-66219685D01*
G37*
%TD.AperFunction*%
%TD*%
%TA.AperFunction,Conductor*%
%TO.N,+3.3V*%
G36*
X215611755Y-102176920D02*
G01*
X215669952Y-102196286D01*
X215676464Y-102200472D01*
X215688615Y-102214494D01*
X215690388Y-102212713D01*
X216174500Y-102694500D01*
X216195863Y-102722967D01*
X216203355Y-102736688D01*
X216218207Y-102804948D01*
X216218078Y-102806754D01*
X216198710Y-102864957D01*
X216194529Y-102871463D01*
X216177893Y-102892106D01*
X215770288Y-103299711D01*
X215742032Y-103320863D01*
X215728311Y-103328355D01*
X215660051Y-103343207D01*
X215658245Y-103343078D01*
X215600044Y-103323710D01*
X215593529Y-103319523D01*
X215572893Y-103302893D01*
X215095287Y-102825287D01*
X215074135Y-102797031D01*
X215066643Y-102783310D01*
X215051791Y-102715050D01*
X215051920Y-102713241D01*
X215071287Y-102655044D01*
X215075471Y-102648533D01*
X215092098Y-102627900D01*
X215499716Y-102220282D01*
X215527971Y-102199132D01*
X215541689Y-102191642D01*
X215609945Y-102176791D01*
X215611755Y-102176920D01*
G37*
%TD.AperFunction*%
%TD*%
%TA.AperFunction,Conductor*%
%TO.N,+3.3V*%
G36*
X244430757Y-107851333D02*
G01*
X244475093Y-107879766D01*
X248519775Y-111915115D01*
X248553331Y-111976399D01*
X248548427Y-112046096D01*
X248519977Y-112090477D01*
X246097372Y-114518685D01*
X246036088Y-114552241D01*
X245966391Y-114547337D01*
X245921977Y-114518854D01*
X241877910Y-110481033D01*
X241844377Y-110419736D01*
X241849308Y-110350040D01*
X241877773Y-110305672D01*
X244299767Y-107879933D01*
X244361061Y-107846402D01*
X244430757Y-107851333D01*
G37*
%TD.AperFunction*%
%TD*%
%TA.AperFunction,Conductor*%
%TO.N,GND*%
G36*
X205965143Y-66044685D02*
G01*
X205985785Y-66061319D01*
X207113147Y-67188681D01*
X207146632Y-67250004D01*
X207149466Y-67276362D01*
X207149466Y-69501000D01*
X207129781Y-69568039D01*
X207076977Y-69613794D01*
X207025466Y-69625000D01*
X203473466Y-69625000D01*
X203406427Y-69605315D01*
X203360672Y-69552511D01*
X203349466Y-69501000D01*
X203349466Y-67269893D01*
X203369151Y-67202854D01*
X203378202Y-67190516D01*
X204312285Y-66069616D01*
X204370324Y-66030718D01*
X204407544Y-66025000D01*
X205898104Y-66025000D01*
X205965143Y-66044685D01*
G37*
%TD.AperFunction*%
%TD*%
%TA.AperFunction,Conductor*%
%TO.N,GND*%
G36*
X205843743Y-81921918D02*
G01*
X205864385Y-81938552D01*
X206991747Y-83065914D01*
X207025232Y-83127237D01*
X207028066Y-83153595D01*
X207028066Y-85378233D01*
X207008381Y-85445272D01*
X206955577Y-85491027D01*
X206904066Y-85502233D01*
X203352066Y-85502233D01*
X203285027Y-85482548D01*
X203239272Y-85429744D01*
X203228066Y-85378233D01*
X203228066Y-83147126D01*
X203247751Y-83080087D01*
X203256802Y-83067749D01*
X204190885Y-81946849D01*
X204248924Y-81907951D01*
X204286144Y-81902233D01*
X205776704Y-81902233D01*
X205843743Y-81921918D01*
G37*
%TD.AperFunction*%
%TD*%
%TA.AperFunction,Conductor*%
%TO.N,Net-(C33-Pad2)*%
G36*
X219345948Y-105073033D02*
G01*
X219390289Y-105101538D01*
X220929489Y-106641159D01*
X220969502Y-106681183D01*
X221002979Y-106742511D01*
X220997985Y-106812201D01*
X220969503Y-106856521D01*
X219430309Y-108396153D01*
X219368990Y-108429646D01*
X219299298Y-108424672D01*
X219254946Y-108396178D01*
X219254921Y-108396153D01*
X217674863Y-106816544D01*
X217641372Y-106755227D01*
X217646346Y-106685535D01*
X217674863Y-106641161D01*
X219214932Y-105101514D01*
X219276258Y-105068039D01*
X219345948Y-105073033D01*
G37*
%TD.AperFunction*%
%TD*%
%TA.AperFunction,Conductor*%
%TO.N,GND*%
G36*
X232873750Y-82236700D02*
G01*
X232894392Y-82253334D01*
X234021754Y-83380696D01*
X234055239Y-83442019D01*
X234058073Y-83468377D01*
X234058073Y-85693015D01*
X234038388Y-85760054D01*
X233985584Y-85805809D01*
X233934073Y-85817015D01*
X230382073Y-85817015D01*
X230315034Y-85797330D01*
X230269279Y-85744526D01*
X230258073Y-85693015D01*
X230258073Y-83461908D01*
X230277758Y-83394869D01*
X230286809Y-83382531D01*
X231220892Y-82261631D01*
X231278931Y-82222733D01*
X231316151Y-82217015D01*
X232806711Y-82217015D01*
X232873750Y-82236700D01*
G37*
%TD.AperFunction*%
%TD*%
%TA.AperFunction,Conductor*%
%TO.N,+3.3V*%
G36*
X93668334Y-80821367D02*
G01*
X93712681Y-80849868D01*
X99162319Y-86299506D01*
X99195804Y-86360829D01*
X99190820Y-86430521D01*
X99162319Y-86474868D01*
X98337681Y-87299506D01*
X98276358Y-87332991D01*
X98206666Y-87328007D01*
X98162319Y-87299506D01*
X92712681Y-81849868D01*
X92679196Y-81788545D01*
X92684180Y-81718853D01*
X92712681Y-81674506D01*
X93537319Y-80849868D01*
X93598642Y-80816383D01*
X93668334Y-80821367D01*
G37*
%TD.AperFunction*%
%TD*%
%TA.AperFunction,Conductor*%
%TO.N,/Electromagnet Driver/PMODE*%
G36*
X233115823Y-46847692D02*
G01*
X235087023Y-47659362D01*
X239686493Y-49553261D01*
X239740987Y-49596988D01*
X239763190Y-49663236D01*
X239754410Y-49713973D01*
X239046520Y-51483699D01*
X239003346Y-51538633D01*
X238937325Y-51561505D01*
X238884176Y-51552307D01*
X232313507Y-48846738D01*
X232259012Y-48803011D01*
X232236809Y-48736763D01*
X232245588Y-48686028D01*
X232953481Y-46916297D01*
X232996653Y-46861366D01*
X233062674Y-46838494D01*
X233115823Y-46847692D01*
G37*
%TD.AperFunction*%
%TD*%
%TA.AperFunction,Conductor*%
%TO.N,+3.3V*%
G36*
X82943039Y-99519685D02*
G01*
X82988794Y-99572489D01*
X83000000Y-99624000D01*
X83000000Y-101526000D01*
X82980315Y-101593039D01*
X82927511Y-101638794D01*
X82876000Y-101650000D01*
X80624000Y-101650000D01*
X80556961Y-101630315D01*
X80511206Y-101577511D01*
X80500000Y-101526000D01*
X80500000Y-99624000D01*
X80519685Y-99556961D01*
X80572489Y-99511206D01*
X80624000Y-99500000D01*
X82876000Y-99500000D01*
X82943039Y-99519685D01*
G37*
%TD.AperFunction*%
%TD*%
M02*
