%TF.GenerationSoftware,KiCad,Pcbnew,10.0.0*%
%TF.CreationDate,2026-06-03T22:32:19+02:00*%
%TF.ProjectId,Maglev,4d61676c-6576-42e6-9b69-6361645f7063,rev?*%
%TF.SameCoordinates,Original*%
%TF.FileFunction,Legend,Top*%
%TF.FilePolarity,Positive*%
%FSLAX46Y46*%
G04 Gerber Fmt 4.6, Leading zero omitted, Abs format (unit mm)*
G04 Created by KiCad (PCBNEW 10.0.0) date 2026-06-03 22:32:19*
%MOMM*%
%LPD*%
G01*
G04 APERTURE LIST*
%ADD10C,0.150000*%
%ADD11C,0.120000*%
%ADD12C,0.100000*%
%ADD13C,0.200000*%
%ADD14C,0.300000*%
G04 APERTURE END LIST*
D10*
X144850000Y-100000000D02*
G75*
G02*
X15150000Y-100000000I-64850000J0D01*
G01*
X15150000Y-100000000D02*
G75*
G02*
X144850000Y-100000000I64850000J0D01*
G01*
X245000000Y-100000000D02*
G75*
G02*
X185000000Y-100000000I-30000000J0D01*
G01*
X185000000Y-100000000D02*
G75*
G02*
X245000000Y-100000000I30000000J0D01*
G01*
X265000000Y-100000000D02*
G75*
G02*
X165000000Y-100000000I-50000000J0D01*
G01*
X165000000Y-100000000D02*
G75*
G02*
X265000000Y-100000000I50000000J0D01*
G01*
X279850000Y-100000000D02*
G75*
G02*
X150150000Y-100000000I-64850000J0D01*
G01*
X150150000Y-100000000D02*
G75*
G02*
X279850000Y-100000000I64850000J0D01*
G01*
X79360588Y-159667438D02*
X79265350Y-159619819D01*
X79265350Y-159619819D02*
X79122493Y-159619819D01*
X79122493Y-159619819D02*
X78979636Y-159667438D01*
X78979636Y-159667438D02*
X78884398Y-159762676D01*
X78884398Y-159762676D02*
X78836779Y-159857914D01*
X78836779Y-159857914D02*
X78789160Y-160048390D01*
X78789160Y-160048390D02*
X78789160Y-160191247D01*
X78789160Y-160191247D02*
X78836779Y-160381723D01*
X78836779Y-160381723D02*
X78884398Y-160476961D01*
X78884398Y-160476961D02*
X78979636Y-160572200D01*
X78979636Y-160572200D02*
X79122493Y-160619819D01*
X79122493Y-160619819D02*
X79217731Y-160619819D01*
X79217731Y-160619819D02*
X79360588Y-160572200D01*
X79360588Y-160572200D02*
X79408207Y-160524580D01*
X79408207Y-160524580D02*
X79408207Y-160191247D01*
X79408207Y-160191247D02*
X79217731Y-160191247D01*
X79836779Y-160619819D02*
X79836779Y-159619819D01*
X79836779Y-159619819D02*
X80408207Y-160619819D01*
X80408207Y-160619819D02*
X80408207Y-159619819D01*
X80884398Y-160619819D02*
X80884398Y-159619819D01*
X80884398Y-159619819D02*
X81122493Y-159619819D01*
X81122493Y-159619819D02*
X81265350Y-159667438D01*
X81265350Y-159667438D02*
X81360588Y-159762676D01*
X81360588Y-159762676D02*
X81408207Y-159857914D01*
X81408207Y-159857914D02*
X81455826Y-160048390D01*
X81455826Y-160048390D02*
X81455826Y-160191247D01*
X81455826Y-160191247D02*
X81408207Y-160381723D01*
X81408207Y-160381723D02*
X81360588Y-160476961D01*
X81360588Y-160476961D02*
X81265350Y-160572200D01*
X81265350Y-160572200D02*
X81122493Y-160619819D01*
X81122493Y-160619819D02*
X80884398Y-160619819D01*
X214360588Y-159667438D02*
X214265350Y-159619819D01*
X214265350Y-159619819D02*
X214122493Y-159619819D01*
X214122493Y-159619819D02*
X213979636Y-159667438D01*
X213979636Y-159667438D02*
X213884398Y-159762676D01*
X213884398Y-159762676D02*
X213836779Y-159857914D01*
X213836779Y-159857914D02*
X213789160Y-160048390D01*
X213789160Y-160048390D02*
X213789160Y-160191247D01*
X213789160Y-160191247D02*
X213836779Y-160381723D01*
X213836779Y-160381723D02*
X213884398Y-160476961D01*
X213884398Y-160476961D02*
X213979636Y-160572200D01*
X213979636Y-160572200D02*
X214122493Y-160619819D01*
X214122493Y-160619819D02*
X214217731Y-160619819D01*
X214217731Y-160619819D02*
X214360588Y-160572200D01*
X214360588Y-160572200D02*
X214408207Y-160524580D01*
X214408207Y-160524580D02*
X214408207Y-160191247D01*
X214408207Y-160191247D02*
X214217731Y-160191247D01*
X214836779Y-160619819D02*
X214836779Y-159619819D01*
X214836779Y-159619819D02*
X215408207Y-160619819D01*
X215408207Y-160619819D02*
X215408207Y-159619819D01*
X215884398Y-160619819D02*
X215884398Y-159619819D01*
X215884398Y-159619819D02*
X216122493Y-159619819D01*
X216122493Y-159619819D02*
X216265350Y-159667438D01*
X216265350Y-159667438D02*
X216360588Y-159762676D01*
X216360588Y-159762676D02*
X216408207Y-159857914D01*
X216408207Y-159857914D02*
X216455826Y-160048390D01*
X216455826Y-160048390D02*
X216455826Y-160191247D01*
X216455826Y-160191247D02*
X216408207Y-160381723D01*
X216408207Y-160381723D02*
X216360588Y-160476961D01*
X216360588Y-160476961D02*
X216265350Y-160572200D01*
X216265350Y-160572200D02*
X216122493Y-160619819D01*
X216122493Y-160619819D02*
X215884398Y-160619819D01*
X79833333Y-108954819D02*
X79357143Y-108954819D01*
X79357143Y-108954819D02*
X79357143Y-107954819D01*
X80071429Y-107954819D02*
X80690476Y-107954819D01*
X80690476Y-107954819D02*
X80357143Y-108335771D01*
X80357143Y-108335771D02*
X80500000Y-108335771D01*
X80500000Y-108335771D02*
X80595238Y-108383390D01*
X80595238Y-108383390D02*
X80642857Y-108431009D01*
X80642857Y-108431009D02*
X80690476Y-108526247D01*
X80690476Y-108526247D02*
X80690476Y-108764342D01*
X80690476Y-108764342D02*
X80642857Y-108859580D01*
X80642857Y-108859580D02*
X80595238Y-108907200D01*
X80595238Y-108907200D02*
X80500000Y-108954819D01*
X80500000Y-108954819D02*
X80214286Y-108954819D01*
X80214286Y-108954819D02*
X80119048Y-108907200D01*
X80119048Y-108907200D02*
X80071429Y-108859580D01*
X245101267Y-149768618D02*
X244661325Y-149950848D01*
X244661325Y-149950848D02*
X244278641Y-149026969D01*
X245208774Y-149157120D02*
X245516734Y-149029559D01*
X245849170Y-149458827D02*
X245409228Y-149641057D01*
X245409228Y-149641057D02*
X245026544Y-148717177D01*
X245026544Y-148717177D02*
X245466487Y-148534947D01*
X246245119Y-149294819D02*
X245862435Y-148370940D01*
X245862435Y-148370940D02*
X246082406Y-148279825D01*
X246082406Y-148279825D02*
X246232612Y-148269150D01*
X246232612Y-148269150D02*
X246357047Y-148320692D01*
X246357047Y-148320692D02*
X246437487Y-148390458D01*
X246437487Y-148390458D02*
X246554374Y-148548212D01*
X246554374Y-148548212D02*
X246609043Y-148680195D01*
X246609043Y-148680195D02*
X246637940Y-148874395D01*
X246637940Y-148874395D02*
X246630392Y-148980606D01*
X246630392Y-148980606D02*
X246578850Y-149105041D01*
X246578850Y-149105041D02*
X246465090Y-149203704D01*
X246465090Y-149203704D02*
X246245119Y-149294819D01*
X247482675Y-147802899D02*
X247508446Y-147740682D01*
X247508446Y-147740682D02*
X247578212Y-147660242D01*
X247578212Y-147660242D02*
X247798183Y-147569127D01*
X247798183Y-147569127D02*
X247904395Y-147576675D01*
X247904395Y-147576675D02*
X247966612Y-147602446D01*
X247966612Y-147602446D02*
X248047052Y-147672212D01*
X248047052Y-147672212D02*
X248083498Y-147760200D01*
X248083498Y-147760200D02*
X248094173Y-147910406D01*
X248094173Y-147910406D02*
X247784918Y-148657013D01*
X247784918Y-148657013D02*
X248356843Y-148420114D01*
X245901267Y-151768618D02*
X245461325Y-151950848D01*
X245461325Y-151950848D02*
X245078641Y-151026969D01*
X246008774Y-151157120D02*
X246316734Y-151029559D01*
X246649170Y-151458827D02*
X246209228Y-151641057D01*
X246209228Y-151641057D02*
X245826544Y-150717177D01*
X245826544Y-150717177D02*
X246266487Y-150534947D01*
X247045119Y-151294819D02*
X246662435Y-150370940D01*
X246662435Y-150370940D02*
X246882406Y-150279825D01*
X246882406Y-150279825D02*
X247032612Y-150269150D01*
X247032612Y-150269150D02*
X247157047Y-150320692D01*
X247157047Y-150320692D02*
X247237487Y-150390458D01*
X247237487Y-150390458D02*
X247354374Y-150548212D01*
X247354374Y-150548212D02*
X247409043Y-150680195D01*
X247409043Y-150680195D02*
X247437940Y-150874395D01*
X247437940Y-150874395D02*
X247430392Y-150980606D01*
X247430392Y-150980606D02*
X247378850Y-151105041D01*
X247378850Y-151105041D02*
X247265090Y-151203704D01*
X247265090Y-151203704D02*
X247045119Y-151294819D01*
X249156843Y-150420114D02*
X248628912Y-150638790D01*
X248892878Y-150529452D02*
X248510194Y-149605573D01*
X248510194Y-149605573D02*
X248476875Y-149774002D01*
X248476875Y-149774002D02*
X248425333Y-149898436D01*
X248425333Y-149898436D02*
X248355567Y-149978877D01*
X274667438Y-100639411D02*
X274619819Y-100734649D01*
X274619819Y-100734649D02*
X274619819Y-100877506D01*
X274619819Y-100877506D02*
X274667438Y-101020363D01*
X274667438Y-101020363D02*
X274762676Y-101115601D01*
X274762676Y-101115601D02*
X274857914Y-101163220D01*
X274857914Y-101163220D02*
X275048390Y-101210839D01*
X275048390Y-101210839D02*
X275191247Y-101210839D01*
X275191247Y-101210839D02*
X275381723Y-101163220D01*
X275381723Y-101163220D02*
X275476961Y-101115601D01*
X275476961Y-101115601D02*
X275572200Y-101020363D01*
X275572200Y-101020363D02*
X275619819Y-100877506D01*
X275619819Y-100877506D02*
X275619819Y-100782268D01*
X275619819Y-100782268D02*
X275572200Y-100639411D01*
X275572200Y-100639411D02*
X275524580Y-100591792D01*
X275524580Y-100591792D02*
X275191247Y-100591792D01*
X275191247Y-100591792D02*
X275191247Y-100782268D01*
X275619819Y-100163220D02*
X274619819Y-100163220D01*
X274619819Y-100163220D02*
X275619819Y-99591792D01*
X275619819Y-99591792D02*
X274619819Y-99591792D01*
X275619819Y-99115601D02*
X274619819Y-99115601D01*
X274619819Y-99115601D02*
X274619819Y-98877506D01*
X274619819Y-98877506D02*
X274667438Y-98734649D01*
X274667438Y-98734649D02*
X274762676Y-98639411D01*
X274762676Y-98639411D02*
X274857914Y-98591792D01*
X274857914Y-98591792D02*
X275048390Y-98544173D01*
X275048390Y-98544173D02*
X275191247Y-98544173D01*
X275191247Y-98544173D02*
X275381723Y-98591792D01*
X275381723Y-98591792D02*
X275476961Y-98639411D01*
X275476961Y-98639411D02*
X275572200Y-98734649D01*
X275572200Y-98734649D02*
X275619819Y-98877506D01*
X275619819Y-98877506D02*
X275619819Y-99115601D01*
X88454819Y-100166666D02*
X88454819Y-100642856D01*
X88454819Y-100642856D02*
X87454819Y-100642856D01*
X87788152Y-99404761D02*
X88454819Y-99404761D01*
X87407200Y-99642856D02*
X88121485Y-99880951D01*
X88121485Y-99880951D02*
X88121485Y-99261904D01*
X129027952Y-61884741D02*
X128320845Y-62591848D01*
X128657563Y-62255130D02*
X128253502Y-61851069D01*
X128623891Y-61480680D02*
X127916784Y-62187786D01*
X128118815Y-61379664D02*
X127782097Y-61042947D01*
X128388189Y-61244977D02*
X127445380Y-61716382D01*
X127445380Y-61716382D02*
X127916784Y-60773573D01*
X127344364Y-60201153D02*
X127681082Y-60537871D01*
X127681082Y-60537871D02*
X126973975Y-61244977D01*
X126771944Y-59628733D02*
X127108662Y-59965451D01*
X127108662Y-59965451D02*
X126401555Y-60672557D01*
X125997494Y-58854283D02*
X125290387Y-59561389D01*
X125054685Y-59191000D02*
X124987342Y-59191000D01*
X124987342Y-59191000D02*
X124886326Y-59157329D01*
X124886326Y-59157329D02*
X124717968Y-58988970D01*
X124717968Y-58988970D02*
X124684296Y-58887955D01*
X124684296Y-58887955D02*
X124684296Y-58820611D01*
X124684296Y-58820611D02*
X124717968Y-58719596D01*
X124717968Y-58719596D02*
X124785311Y-58652252D01*
X124785311Y-58652252D02*
X124919998Y-58584909D01*
X124919998Y-58584909D02*
X125728120Y-58584909D01*
X125728120Y-58584909D02*
X125290387Y-58147176D01*
X124515937Y-57507413D02*
X124583281Y-57507413D01*
X124583281Y-57507413D02*
X124717968Y-57574756D01*
X124717968Y-57574756D02*
X124785311Y-57642100D01*
X124785311Y-57642100D02*
X124852655Y-57776787D01*
X124852655Y-57776787D02*
X124852655Y-57911474D01*
X124852655Y-57911474D02*
X124818983Y-58012489D01*
X124818983Y-58012489D02*
X124717968Y-58180848D01*
X124717968Y-58180848D02*
X124616952Y-58281863D01*
X124616952Y-58281863D02*
X124448594Y-58382878D01*
X124448594Y-58382878D02*
X124347578Y-58416550D01*
X124347578Y-58416550D02*
X124212891Y-58416550D01*
X124212891Y-58416550D02*
X124078204Y-58349207D01*
X124078204Y-58349207D02*
X124010861Y-58281863D01*
X124010861Y-58281863D02*
X123943517Y-58147176D01*
X123943517Y-58147176D02*
X123943517Y-58079833D01*
X123270082Y-56261558D02*
X123337426Y-56261558D01*
X123337426Y-56261558D02*
X123472113Y-56328901D01*
X123472113Y-56328901D02*
X123539456Y-56396245D01*
X123539456Y-56396245D02*
X123606800Y-56530932D01*
X123606800Y-56530932D02*
X123606800Y-56665619D01*
X123606800Y-56665619D02*
X123573128Y-56766634D01*
X123573128Y-56766634D02*
X123472113Y-56934993D01*
X123472113Y-56934993D02*
X123371097Y-57036008D01*
X123371097Y-57036008D02*
X123202739Y-57137023D01*
X123202739Y-57137023D02*
X123101723Y-57170695D01*
X123101723Y-57170695D02*
X122967036Y-57170695D01*
X122967036Y-57170695D02*
X122832349Y-57103352D01*
X122832349Y-57103352D02*
X122765006Y-57036008D01*
X122765006Y-57036008D02*
X122697662Y-56901321D01*
X122697662Y-56901321D02*
X122697662Y-56833978D01*
X122192586Y-56463588D02*
X122057899Y-56328901D01*
X122057899Y-56328901D02*
X122024227Y-56227886D01*
X122024227Y-56227886D02*
X122024227Y-56093199D01*
X122024227Y-56093199D02*
X122125243Y-55924840D01*
X122125243Y-55924840D02*
X122360945Y-55689138D01*
X122360945Y-55689138D02*
X122529304Y-55588123D01*
X122529304Y-55588123D02*
X122663991Y-55588123D01*
X122663991Y-55588123D02*
X122765006Y-55621795D01*
X122765006Y-55621795D02*
X122899693Y-55756482D01*
X122899693Y-55756482D02*
X122933365Y-55857497D01*
X122933365Y-55857497D02*
X122933365Y-55992184D01*
X122933365Y-55992184D02*
X122832349Y-56160543D01*
X122832349Y-56160543D02*
X122596647Y-56396245D01*
X122596647Y-56396245D02*
X122428288Y-56497260D01*
X122428288Y-56497260D02*
X122293601Y-56497260D01*
X122293601Y-56497260D02*
X122192586Y-56463588D01*
X122293601Y-55150390D02*
X121586495Y-55857497D01*
X121586495Y-55857497D02*
X121889540Y-54746329D01*
X121889540Y-54746329D02*
X121182434Y-55453436D01*
X121552823Y-54409612D02*
X120845716Y-55116718D01*
X120845716Y-55116718D02*
X121148762Y-54005551D01*
X121148762Y-54005551D02*
X120441655Y-54712657D01*
X120441655Y-54039222D02*
X120205953Y-53803520D01*
X120475327Y-53332116D02*
X120812044Y-53668833D01*
X120812044Y-53668833D02*
X120104938Y-54375940D01*
X120104938Y-54375940D02*
X119768220Y-54039222D01*
X119700876Y-52692352D02*
X119768220Y-52692352D01*
X119768220Y-52692352D02*
X119902907Y-52759696D01*
X119902907Y-52759696D02*
X119970251Y-52827039D01*
X119970251Y-52827039D02*
X120037594Y-52961726D01*
X120037594Y-52961726D02*
X120037594Y-53096413D01*
X120037594Y-53096413D02*
X120003922Y-53197429D01*
X120003922Y-53197429D02*
X119902907Y-53365787D01*
X119902907Y-53365787D02*
X119801892Y-53466803D01*
X119801892Y-53466803D02*
X119633533Y-53567818D01*
X119633533Y-53567818D02*
X119532518Y-53601490D01*
X119532518Y-53601490D02*
X119397831Y-53601490D01*
X119397831Y-53601490D02*
X119263144Y-53534146D01*
X119263144Y-53534146D02*
X119195800Y-53466803D01*
X119195800Y-53466803D02*
X119128457Y-53332116D01*
X119128457Y-53332116D02*
X119128457Y-53264772D01*
X118859083Y-53130085D02*
X118455022Y-52726024D01*
X119364159Y-52220948D02*
X118657052Y-52928054D01*
X118084632Y-52355635D02*
X117949945Y-52220948D01*
X117949945Y-52220948D02*
X117916273Y-52119932D01*
X117916273Y-52119932D02*
X117916273Y-51985245D01*
X117916273Y-51985245D02*
X118017289Y-51816887D01*
X118017289Y-51816887D02*
X118252991Y-51581184D01*
X118252991Y-51581184D02*
X118421350Y-51480169D01*
X118421350Y-51480169D02*
X118556037Y-51480169D01*
X118556037Y-51480169D02*
X118657052Y-51513841D01*
X118657052Y-51513841D02*
X118791739Y-51648528D01*
X118791739Y-51648528D02*
X118825411Y-51749543D01*
X118825411Y-51749543D02*
X118825411Y-51884230D01*
X118825411Y-51884230D02*
X118724396Y-52052589D01*
X118724396Y-52052589D02*
X118488693Y-52288291D01*
X118488693Y-52288291D02*
X118320335Y-52389306D01*
X118320335Y-52389306D02*
X118185648Y-52389306D01*
X118185648Y-52389306D02*
X118084632Y-52355635D01*
X117781587Y-50638375D02*
X117680571Y-51210795D01*
X118185648Y-51042436D02*
X117478541Y-51749543D01*
X117478541Y-51749543D02*
X117209167Y-51480169D01*
X117209167Y-51480169D02*
X117175495Y-51379154D01*
X117175495Y-51379154D02*
X117175495Y-51311810D01*
X117175495Y-51311810D02*
X117209167Y-51210795D01*
X117209167Y-51210795D02*
X117310182Y-51109780D01*
X117310182Y-51109780D02*
X117411197Y-51076108D01*
X117411197Y-51076108D02*
X117478541Y-51076108D01*
X117478541Y-51076108D02*
X117579556Y-51109780D01*
X117579556Y-51109780D02*
X117848930Y-51379154D01*
X80639411Y-40332561D02*
X80734649Y-40380180D01*
X80734649Y-40380180D02*
X80877506Y-40380180D01*
X80877506Y-40380180D02*
X81020363Y-40332561D01*
X81020363Y-40332561D02*
X81115601Y-40237323D01*
X81115601Y-40237323D02*
X81163220Y-40142085D01*
X81163220Y-40142085D02*
X81210839Y-39951609D01*
X81210839Y-39951609D02*
X81210839Y-39808752D01*
X81210839Y-39808752D02*
X81163220Y-39618276D01*
X81163220Y-39618276D02*
X81115601Y-39523038D01*
X81115601Y-39523038D02*
X81020363Y-39427800D01*
X81020363Y-39427800D02*
X80877506Y-39380180D01*
X80877506Y-39380180D02*
X80782268Y-39380180D01*
X80782268Y-39380180D02*
X80639411Y-39427800D01*
X80639411Y-39427800D02*
X80591792Y-39475419D01*
X80591792Y-39475419D02*
X80591792Y-39808752D01*
X80591792Y-39808752D02*
X80782268Y-39808752D01*
X80163220Y-39380180D02*
X80163220Y-40380180D01*
X80163220Y-40380180D02*
X79591792Y-39380180D01*
X79591792Y-39380180D02*
X79591792Y-40380180D01*
X79115601Y-39380180D02*
X79115601Y-40380180D01*
X79115601Y-40380180D02*
X78877506Y-40380180D01*
X78877506Y-40380180D02*
X78734649Y-40332561D01*
X78734649Y-40332561D02*
X78639411Y-40237323D01*
X78639411Y-40237323D02*
X78591792Y-40142085D01*
X78591792Y-40142085D02*
X78544173Y-39951609D01*
X78544173Y-39951609D02*
X78544173Y-39808752D01*
X78544173Y-39808752D02*
X78591792Y-39618276D01*
X78591792Y-39618276D02*
X78639411Y-39523038D01*
X78639411Y-39523038D02*
X78734649Y-39427800D01*
X78734649Y-39427800D02*
X78877506Y-39380180D01*
X78877506Y-39380180D02*
X79115601Y-39380180D01*
X215639411Y-40332561D02*
X215734649Y-40380180D01*
X215734649Y-40380180D02*
X215877506Y-40380180D01*
X215877506Y-40380180D02*
X216020363Y-40332561D01*
X216020363Y-40332561D02*
X216115601Y-40237323D01*
X216115601Y-40237323D02*
X216163220Y-40142085D01*
X216163220Y-40142085D02*
X216210839Y-39951609D01*
X216210839Y-39951609D02*
X216210839Y-39808752D01*
X216210839Y-39808752D02*
X216163220Y-39618276D01*
X216163220Y-39618276D02*
X216115601Y-39523038D01*
X216115601Y-39523038D02*
X216020363Y-39427800D01*
X216020363Y-39427800D02*
X215877506Y-39380180D01*
X215877506Y-39380180D02*
X215782268Y-39380180D01*
X215782268Y-39380180D02*
X215639411Y-39427800D01*
X215639411Y-39427800D02*
X215591792Y-39475419D01*
X215591792Y-39475419D02*
X215591792Y-39808752D01*
X215591792Y-39808752D02*
X215782268Y-39808752D01*
X215163220Y-39380180D02*
X215163220Y-40380180D01*
X215163220Y-40380180D02*
X214591792Y-39380180D01*
X214591792Y-39380180D02*
X214591792Y-40380180D01*
X214115601Y-39380180D02*
X214115601Y-40380180D01*
X214115601Y-40380180D02*
X213877506Y-40380180D01*
X213877506Y-40380180D02*
X213734649Y-40332561D01*
X213734649Y-40332561D02*
X213639411Y-40237323D01*
X213639411Y-40237323D02*
X213591792Y-40142085D01*
X213591792Y-40142085D02*
X213544173Y-39951609D01*
X213544173Y-39951609D02*
X213544173Y-39808752D01*
X213544173Y-39808752D02*
X213591792Y-39618276D01*
X213591792Y-39618276D02*
X213639411Y-39523038D01*
X213639411Y-39523038D02*
X213734649Y-39427800D01*
X213734649Y-39427800D02*
X213877506Y-39380180D01*
X213877506Y-39380180D02*
X214115601Y-39380180D01*
X80166666Y-91045180D02*
X80642856Y-91045180D01*
X80642856Y-91045180D02*
X80642856Y-92045180D01*
X79309523Y-91045180D02*
X79880951Y-91045180D01*
X79595237Y-91045180D02*
X79595237Y-92045180D01*
X79595237Y-92045180D02*
X79690475Y-91902323D01*
X79690475Y-91902323D02*
X79785713Y-91807085D01*
X79785713Y-91807085D02*
X79880951Y-91759466D01*
X42223489Y-50167986D02*
X42223489Y-50100643D01*
X42223489Y-50100643D02*
X42290832Y-49965956D01*
X42290832Y-49965956D02*
X42358176Y-49898612D01*
X42358176Y-49898612D02*
X42492863Y-49831269D01*
X42492863Y-49831269D02*
X42627550Y-49831269D01*
X42627550Y-49831269D02*
X42728565Y-49864940D01*
X42728565Y-49864940D02*
X42896924Y-49965956D01*
X42896924Y-49965956D02*
X42997939Y-50066971D01*
X42997939Y-50066971D02*
X43098954Y-50235330D01*
X43098954Y-50235330D02*
X43132626Y-50336345D01*
X43132626Y-50336345D02*
X43132626Y-50471032D01*
X43132626Y-50471032D02*
X43065282Y-50605719D01*
X43065282Y-50605719D02*
X42997939Y-50673062D01*
X42997939Y-50673062D02*
X42863252Y-50740406D01*
X42863252Y-50740406D02*
X42795908Y-50740406D01*
X42425519Y-51245482D02*
X42290832Y-51380169D01*
X42290832Y-51380169D02*
X42189817Y-51413841D01*
X42189817Y-51413841D02*
X42055130Y-51413841D01*
X42055130Y-51413841D02*
X41886771Y-51312826D01*
X41886771Y-51312826D02*
X41651069Y-51077123D01*
X41651069Y-51077123D02*
X41550054Y-50908765D01*
X41550054Y-50908765D02*
X41550054Y-50774078D01*
X41550054Y-50774078D02*
X41583725Y-50673062D01*
X41583725Y-50673062D02*
X41718412Y-50538375D01*
X41718412Y-50538375D02*
X41819428Y-50504704D01*
X41819428Y-50504704D02*
X41954115Y-50504704D01*
X41954115Y-50504704D02*
X42122473Y-50605719D01*
X42122473Y-50605719D02*
X42358176Y-50841421D01*
X42358176Y-50841421D02*
X42459191Y-51009780D01*
X42459191Y-51009780D02*
X42459191Y-51144467D01*
X42459191Y-51144467D02*
X42425519Y-51245482D01*
X41112321Y-51144467D02*
X41819428Y-51851574D01*
X40438886Y-51817902D02*
X40775604Y-51481184D01*
X40775604Y-51481184D02*
X41482710Y-52188291D01*
X39664436Y-52592352D02*
X40371542Y-53299459D01*
X40371542Y-53299459D02*
X40102168Y-53568833D01*
X40102168Y-53568833D02*
X40001153Y-53602505D01*
X40001153Y-53602505D02*
X39933810Y-53602505D01*
X39933810Y-53602505D02*
X39832794Y-53568833D01*
X39832794Y-53568833D02*
X39731779Y-53467818D01*
X39731779Y-53467818D02*
X39698107Y-53366802D01*
X39698107Y-53366802D02*
X39698107Y-53299459D01*
X39698107Y-53299459D02*
X39731779Y-53198444D01*
X39731779Y-53198444D02*
X40001153Y-52929070D01*
X39529749Y-54141253D02*
X39395062Y-54275940D01*
X39395062Y-54275940D02*
X39294046Y-54309612D01*
X39294046Y-54309612D02*
X39159359Y-54309612D01*
X39159359Y-54309612D02*
X38991001Y-54208596D01*
X38991001Y-54208596D02*
X38755298Y-53972894D01*
X38755298Y-53972894D02*
X38654283Y-53804535D01*
X38654283Y-53804535D02*
X38654283Y-53669848D01*
X38654283Y-53669848D02*
X38687955Y-53568833D01*
X38687955Y-53568833D02*
X38822642Y-53434146D01*
X38822642Y-53434146D02*
X38923657Y-53400474D01*
X38923657Y-53400474D02*
X39058344Y-53400474D01*
X39058344Y-53400474D02*
X39226703Y-53501489D01*
X39226703Y-53501489D02*
X39462405Y-53737192D01*
X39462405Y-53737192D02*
X39563420Y-53905551D01*
X39563420Y-53905551D02*
X39563420Y-54040238D01*
X39563420Y-54040238D02*
X39529749Y-54141253D01*
X38991001Y-54680001D02*
X38115535Y-54141253D01*
X38115535Y-54141253D02*
X38485924Y-54781016D01*
X38485924Y-54781016D02*
X37846161Y-54410627D01*
X37846161Y-54410627D02*
X38384909Y-55286092D01*
X37778818Y-55218749D02*
X37543115Y-55454451D01*
X37071711Y-55185077D02*
X37408428Y-54848359D01*
X37408428Y-54848359D02*
X38115535Y-55555466D01*
X38115535Y-55555466D02*
X37778818Y-55892184D01*
X36364604Y-55892184D02*
X36937024Y-55993199D01*
X36768665Y-55488123D02*
X37475772Y-56195230D01*
X37475772Y-56195230D02*
X37206398Y-56464604D01*
X37206398Y-56464604D02*
X37105382Y-56498275D01*
X37105382Y-56498275D02*
X37038039Y-56498275D01*
X37038039Y-56498275D02*
X36937024Y-56464604D01*
X36937024Y-56464604D02*
X36836008Y-56363588D01*
X36836008Y-56363588D02*
X36802337Y-56262573D01*
X36802337Y-56262573D02*
X36802337Y-56195230D01*
X36802337Y-56195230D02*
X36836008Y-56094214D01*
X36836008Y-56094214D02*
X37105382Y-55824840D01*
X35186092Y-57205382D02*
X35186092Y-57138039D01*
X35186092Y-57138039D02*
X35253436Y-57003352D01*
X35253436Y-57003352D02*
X35320779Y-56936008D01*
X35320779Y-56936008D02*
X35455466Y-56868665D01*
X35455466Y-56868665D02*
X35590154Y-56868665D01*
X35590154Y-56868665D02*
X35691169Y-56902336D01*
X35691169Y-56902336D02*
X35859528Y-57003352D01*
X35859528Y-57003352D02*
X35960543Y-57104367D01*
X35960543Y-57104367D02*
X36061558Y-57272726D01*
X36061558Y-57272726D02*
X36095230Y-57373741D01*
X36095230Y-57373741D02*
X36095230Y-57508428D01*
X36095230Y-57508428D02*
X36027886Y-57643115D01*
X36027886Y-57643115D02*
X35960543Y-57710459D01*
X35960543Y-57710459D02*
X35825856Y-57777802D01*
X35825856Y-57777802D02*
X35758512Y-57777802D01*
X35388123Y-58282878D02*
X35253436Y-58417565D01*
X35253436Y-58417565D02*
X35152421Y-58451237D01*
X35152421Y-58451237D02*
X35017734Y-58451237D01*
X35017734Y-58451237D02*
X34849375Y-58350222D01*
X34849375Y-58350222D02*
X34613673Y-58114520D01*
X34613673Y-58114520D02*
X34512657Y-57946161D01*
X34512657Y-57946161D02*
X34512657Y-57811474D01*
X34512657Y-57811474D02*
X34546329Y-57710459D01*
X34546329Y-57710459D02*
X34681016Y-57575772D01*
X34681016Y-57575772D02*
X34782031Y-57542100D01*
X34782031Y-57542100D02*
X34916718Y-57542100D01*
X34916718Y-57542100D02*
X35085077Y-57643115D01*
X35085077Y-57643115D02*
X35320779Y-57878817D01*
X35320779Y-57878817D02*
X35421795Y-58047176D01*
X35421795Y-58047176D02*
X35421795Y-58181863D01*
X35421795Y-58181863D02*
X35388123Y-58282878D01*
X34074925Y-58181863D02*
X34782032Y-58888970D01*
X34782032Y-58888970D02*
X33670864Y-58585924D01*
X33670864Y-58585924D02*
X34377970Y-59293031D01*
X33334146Y-58922642D02*
X34041253Y-59629748D01*
X34041253Y-59629748D02*
X32930085Y-59326703D01*
X32930085Y-59326703D02*
X33637192Y-60033809D01*
X32963757Y-60033809D02*
X32728055Y-60269512D01*
X32256650Y-60000138D02*
X32593368Y-59663420D01*
X32593368Y-59663420D02*
X33300475Y-60370527D01*
X33300475Y-60370527D02*
X32963757Y-60707244D01*
X31616887Y-60774588D02*
X31616887Y-60707244D01*
X31616887Y-60707244D02*
X31684230Y-60572557D01*
X31684230Y-60572557D02*
X31751574Y-60505214D01*
X31751574Y-60505214D02*
X31886261Y-60437870D01*
X31886261Y-60437870D02*
X32020948Y-60437870D01*
X32020948Y-60437870D02*
X32121963Y-60471542D01*
X32121963Y-60471542D02*
X32290322Y-60572557D01*
X32290322Y-60572557D02*
X32391337Y-60673573D01*
X32391337Y-60673573D02*
X32492352Y-60841931D01*
X32492352Y-60841931D02*
X32526024Y-60942947D01*
X32526024Y-60942947D02*
X32526024Y-61077634D01*
X32526024Y-61077634D02*
X32458681Y-61212321D01*
X32458681Y-61212321D02*
X32391337Y-61279664D01*
X32391337Y-61279664D02*
X32256650Y-61347008D01*
X32256650Y-61347008D02*
X32189307Y-61347008D01*
X32054620Y-61616382D02*
X31650559Y-62020443D01*
X31145482Y-61111305D02*
X31852589Y-61818412D01*
X31280169Y-62390832D02*
X31145482Y-62525519D01*
X31145482Y-62525519D02*
X31044467Y-62559191D01*
X31044467Y-62559191D02*
X30909780Y-62559191D01*
X30909780Y-62559191D02*
X30741421Y-62458176D01*
X30741421Y-62458176D02*
X30505719Y-62222473D01*
X30505719Y-62222473D02*
X30404704Y-62054115D01*
X30404704Y-62054115D02*
X30404704Y-61919428D01*
X30404704Y-61919428D02*
X30438375Y-61818412D01*
X30438375Y-61818412D02*
X30573062Y-61683725D01*
X30573062Y-61683725D02*
X30674078Y-61650054D01*
X30674078Y-61650054D02*
X30808765Y-61650054D01*
X30808765Y-61650054D02*
X30977123Y-61751069D01*
X30977123Y-61751069D02*
X31212826Y-61986771D01*
X31212826Y-61986771D02*
X31313841Y-62155130D01*
X31313841Y-62155130D02*
X31313841Y-62289817D01*
X31313841Y-62289817D02*
X31280169Y-62390832D01*
X29562910Y-62693878D02*
X30135330Y-62794893D01*
X29966971Y-62289817D02*
X30674078Y-62996924D01*
X30674078Y-62996924D02*
X30404704Y-63266298D01*
X30404704Y-63266298D02*
X30303688Y-63299969D01*
X30303688Y-63299969D02*
X30236345Y-63299969D01*
X30236345Y-63299969D02*
X30135330Y-63266298D01*
X30135330Y-63266298D02*
X30034314Y-63165282D01*
X30034314Y-63165282D02*
X30000643Y-63064267D01*
X30000643Y-63064267D02*
X30000643Y-62996924D01*
X30000643Y-62996924D02*
X30034314Y-62895908D01*
X30034314Y-62895908D02*
X30303688Y-62626534D01*
X20332561Y-99360588D02*
X20380180Y-99265350D01*
X20380180Y-99265350D02*
X20380180Y-99122493D01*
X20380180Y-99122493D02*
X20332561Y-98979636D01*
X20332561Y-98979636D02*
X20237323Y-98884398D01*
X20237323Y-98884398D02*
X20142085Y-98836779D01*
X20142085Y-98836779D02*
X19951609Y-98789160D01*
X19951609Y-98789160D02*
X19808752Y-98789160D01*
X19808752Y-98789160D02*
X19618276Y-98836779D01*
X19618276Y-98836779D02*
X19523038Y-98884398D01*
X19523038Y-98884398D02*
X19427800Y-98979636D01*
X19427800Y-98979636D02*
X19380180Y-99122493D01*
X19380180Y-99122493D02*
X19380180Y-99217731D01*
X19380180Y-99217731D02*
X19427800Y-99360588D01*
X19427800Y-99360588D02*
X19475419Y-99408207D01*
X19475419Y-99408207D02*
X19808752Y-99408207D01*
X19808752Y-99408207D02*
X19808752Y-99217731D01*
X19380180Y-99836779D02*
X20380180Y-99836779D01*
X20380180Y-99836779D02*
X19380180Y-100408207D01*
X19380180Y-100408207D02*
X20380180Y-100408207D01*
X19380180Y-100884398D02*
X20380180Y-100884398D01*
X20380180Y-100884398D02*
X20380180Y-101122493D01*
X20380180Y-101122493D02*
X20332561Y-101265350D01*
X20332561Y-101265350D02*
X20237323Y-101360588D01*
X20237323Y-101360588D02*
X20142085Y-101408207D01*
X20142085Y-101408207D02*
X19951609Y-101455826D01*
X19951609Y-101455826D02*
X19808752Y-101455826D01*
X19808752Y-101455826D02*
X19618276Y-101408207D01*
X19618276Y-101408207D02*
X19523038Y-101360588D01*
X19523038Y-101360588D02*
X19427800Y-101265350D01*
X19427800Y-101265350D02*
X19380180Y-101122493D01*
X19380180Y-101122493D02*
X19380180Y-100884398D01*
X277580943Y-93033856D02*
X277506357Y-92467316D01*
X278535095Y-92620060D02*
X277543650Y-92750586D01*
X278454293Y-92006308D02*
X277462848Y-92136834D01*
X277462848Y-92136834D02*
X277413124Y-91759141D01*
X277413124Y-91759141D02*
X277447904Y-91658502D01*
X277447904Y-91658502D02*
X277488901Y-91605075D01*
X277488901Y-91605075D02*
X277577108Y-91545432D01*
X277577108Y-91545432D02*
X277718743Y-91526786D01*
X277718743Y-91526786D02*
X277819382Y-91561566D01*
X277819382Y-91561566D02*
X277872809Y-91602562D01*
X277872809Y-91602562D02*
X277932452Y-91690770D01*
X277932452Y-91690770D02*
X277982176Y-92068463D01*
X277738580Y-90947815D02*
X277703800Y-91048453D01*
X277703800Y-91048453D02*
X277662804Y-91101881D01*
X277662804Y-91101881D02*
X277574596Y-91161523D01*
X277574596Y-91161523D02*
X277527384Y-91167739D01*
X277527384Y-91167739D02*
X277426745Y-91132958D01*
X277426745Y-91132958D02*
X277373318Y-91091962D01*
X277373318Y-91091962D02*
X277313675Y-91003754D01*
X277313675Y-91003754D02*
X277288813Y-90814908D01*
X277288813Y-90814908D02*
X277323594Y-90714269D01*
X277323594Y-90714269D02*
X277364590Y-90660842D01*
X277364590Y-90660842D02*
X277452798Y-90601199D01*
X277452798Y-90601199D02*
X277500009Y-90594983D01*
X277500009Y-90594983D02*
X277600648Y-90629764D01*
X277600648Y-90629764D02*
X277654075Y-90670760D01*
X277654075Y-90670760D02*
X277713718Y-90758968D01*
X277713718Y-90758968D02*
X277738580Y-90947815D01*
X277738580Y-90947815D02*
X277798223Y-91036022D01*
X277798223Y-91036022D02*
X277851650Y-91077019D01*
X277851650Y-91077019D02*
X277952289Y-91111799D01*
X277952289Y-91111799D02*
X278141136Y-91086937D01*
X278141136Y-91086937D02*
X278229343Y-91027294D01*
X278229343Y-91027294D02*
X278270340Y-90973867D01*
X278270340Y-90973867D02*
X278305120Y-90873228D01*
X278305120Y-90873228D02*
X278280258Y-90684382D01*
X278280258Y-90684382D02*
X278220615Y-90596174D01*
X278220615Y-90596174D02*
X278167188Y-90555178D01*
X278167188Y-90555178D02*
X278066549Y-90520397D01*
X278066549Y-90520397D02*
X277877703Y-90545259D01*
X277877703Y-90545259D02*
X277789495Y-90604902D01*
X277789495Y-90604902D02*
X277748499Y-90658329D01*
X277748499Y-90658329D02*
X277713718Y-90758968D01*
X253024817Y-49810210D02*
X252562521Y-49474333D01*
X253381454Y-48833255D02*
X252793669Y-49642272D01*
X252880634Y-48469387D02*
X252292849Y-49278404D01*
X252292849Y-49278404D02*
X251984652Y-49054486D01*
X251984652Y-49054486D02*
X251935592Y-48959982D01*
X251935592Y-48959982D02*
X251925057Y-48893468D01*
X251925057Y-48893468D02*
X251942512Y-48788429D01*
X251942512Y-48788429D02*
X252026482Y-48672855D01*
X252026482Y-48672855D02*
X252120986Y-48623795D01*
X252120986Y-48623795D02*
X252187500Y-48613260D01*
X252187500Y-48613260D02*
X252292539Y-48630715D01*
X252292539Y-48630715D02*
X252600736Y-48854634D01*
X251098586Y-48410721D02*
X251483832Y-48690619D01*
X251483832Y-48690619D02*
X251802254Y-48333363D01*
X251802254Y-48333363D02*
X251735740Y-48343898D01*
X251735740Y-48343898D02*
X251630701Y-48326443D01*
X251630701Y-48326443D02*
X251438078Y-48186494D01*
X251438078Y-48186494D02*
X251389018Y-48091990D01*
X251389018Y-48091990D02*
X251378483Y-48025475D01*
X251378483Y-48025475D02*
X251395938Y-47920436D01*
X251395938Y-47920436D02*
X251535887Y-47727813D01*
X251535887Y-47727813D02*
X251630391Y-47678754D01*
X251630391Y-47678754D02*
X251696906Y-47668219D01*
X251696906Y-47668219D02*
X251801945Y-47685674D01*
X251801945Y-47685674D02*
X251994568Y-47825623D01*
X251994568Y-47825623D02*
X252043627Y-47920127D01*
X252043627Y-47920127D02*
X252054162Y-47986641D01*
X249889879Y-47582464D02*
X249407941Y-47275436D01*
X250186209Y-46585559D02*
X249648910Y-47428950D01*
X249664110Y-46252945D02*
X249126810Y-47096336D01*
X249126810Y-47096336D02*
X248805518Y-46891651D01*
X248805518Y-46891651D02*
X248750781Y-46800318D01*
X248750781Y-46800318D02*
X248736205Y-46734570D01*
X248736205Y-46734570D02*
X248747215Y-46628662D01*
X248747215Y-46628662D02*
X248823972Y-46508177D01*
X248823972Y-46508177D02*
X248915305Y-46453440D01*
X248915305Y-46453440D02*
X248981052Y-46438864D01*
X248981052Y-46438864D02*
X249086961Y-46449874D01*
X249086961Y-46449874D02*
X249408253Y-46654560D01*
X248363742Y-46610208D02*
X247801481Y-46252008D01*
X247801481Y-46252008D02*
X248700234Y-45638888D01*
X224468361Y-37748479D02*
X223901821Y-37673893D01*
X224315617Y-36719741D02*
X224185091Y-37711186D01*
X223701866Y-36638939D02*
X223571339Y-37630384D01*
X223571339Y-37630384D02*
X223193646Y-37580660D01*
X223193646Y-37580660D02*
X223105438Y-37521017D01*
X223105438Y-37521017D02*
X223064442Y-37467590D01*
X223064442Y-37467590D02*
X223029662Y-37366951D01*
X223029662Y-37366951D02*
X223048308Y-37225316D01*
X223048308Y-37225316D02*
X223107951Y-37137108D01*
X223107951Y-37137108D02*
X223161378Y-37096112D01*
X223161378Y-37096112D02*
X223262017Y-37061331D01*
X223262017Y-37061331D02*
X223639710Y-37111056D01*
X222674318Y-37512289D02*
X222060566Y-37431487D01*
X222060566Y-37431487D02*
X222440772Y-37097302D01*
X222440772Y-37097302D02*
X222299137Y-37078656D01*
X222299137Y-37078656D02*
X222210929Y-37019013D01*
X222210929Y-37019013D02*
X222169933Y-36965586D01*
X222169933Y-36965586D02*
X222135153Y-36864947D01*
X222135153Y-36864947D02*
X222166230Y-36628889D01*
X222166230Y-36628889D02*
X222225873Y-36540681D01*
X222225873Y-36540681D02*
X222279300Y-36499685D01*
X222279300Y-36499685D02*
X222379939Y-36464904D01*
X222379939Y-36464904D02*
X222663209Y-36502197D01*
X222663209Y-36502197D02*
X222751417Y-36561840D01*
X222751417Y-36561840D02*
X222792413Y-36615267D01*
X208517543Y-37543592D02*
X207951003Y-37618179D01*
X208103747Y-36589441D02*
X208234273Y-37580886D01*
X207489995Y-36670243D02*
X207620521Y-37661688D01*
X207620521Y-37661688D02*
X207242828Y-37711412D01*
X207242828Y-37711412D02*
X207142189Y-37676631D01*
X207142189Y-37676631D02*
X207088762Y-37635635D01*
X207088762Y-37635635D02*
X207029119Y-37547427D01*
X207029119Y-37547427D02*
X207010473Y-37405792D01*
X207010473Y-37405792D02*
X207045253Y-37305154D01*
X207045253Y-37305154D02*
X207086249Y-37251726D01*
X207086249Y-37251726D02*
X207174457Y-37192084D01*
X207174457Y-37192084D02*
X207552151Y-37142359D01*
X205979222Y-36869140D02*
X206545762Y-36794553D01*
X206262492Y-36831847D02*
X206393018Y-37823291D01*
X206393018Y-37823291D02*
X206468795Y-37669225D01*
X206468795Y-37669225D02*
X206550787Y-37562371D01*
X206550787Y-37562371D02*
X206638995Y-37502728D01*
X205216430Y-37641983D02*
X205129412Y-36981019D01*
X205502212Y-37988598D02*
X205645037Y-37249346D01*
X205645037Y-37249346D02*
X205031286Y-37330148D01*
X252987382Y-138458787D02*
X253492458Y-138963863D01*
X253492458Y-138963863D02*
X253559802Y-139098550D01*
X253559802Y-139098550D02*
X253559802Y-139233237D01*
X253559802Y-139233237D02*
X253492458Y-139367924D01*
X253492458Y-139367924D02*
X253425115Y-139435268D01*
X254401596Y-138458787D02*
X253997535Y-138862848D01*
X254199565Y-138660817D02*
X253492458Y-137953710D01*
X253492458Y-137953710D02*
X253526130Y-138122069D01*
X253526130Y-138122069D02*
X253526130Y-138256756D01*
X253526130Y-138256756D02*
X253492458Y-138357771D01*
X153740462Y-114615035D02*
X153888358Y-115166992D01*
X152848484Y-115149832D02*
X153814410Y-114891013D01*
X153008706Y-115747787D02*
X153974631Y-115488968D01*
X153974631Y-115488968D02*
X154073229Y-115856939D01*
X154073229Y-115856939D02*
X154051882Y-115961257D01*
X154051882Y-115961257D02*
X154018210Y-116019578D01*
X154018210Y-116019578D02*
X153938542Y-116090224D01*
X153938542Y-116090224D02*
X153800553Y-116127198D01*
X153800553Y-116127198D02*
X153696235Y-116105851D01*
X153696235Y-116105851D02*
X153637914Y-116072179D01*
X153637914Y-116072179D02*
X153567268Y-115992511D01*
X153567268Y-115992511D02*
X153468670Y-115624540D01*
X153403097Y-117219674D02*
X153255200Y-116667716D01*
X153329148Y-116943695D02*
X154295074Y-116684876D01*
X154295074Y-116684876D02*
X154132435Y-116629857D01*
X154132435Y-116629857D02*
X154015793Y-116562514D01*
X154015793Y-116562514D02*
X153945147Y-116482845D01*
X153649591Y-118139603D02*
X153501694Y-117587645D01*
X153575643Y-117863624D02*
X154541568Y-117604805D01*
X154541568Y-117604805D02*
X154378930Y-117549786D01*
X154378930Y-117549786D02*
X154262287Y-117482443D01*
X154262287Y-117482443D02*
X154191641Y-117402775D01*
X273827808Y-77514024D02*
X273609132Y-76986092D01*
X274642350Y-76867375D02*
X273718470Y-77250058D01*
X274405450Y-76295449D02*
X273481571Y-76678132D01*
X273481571Y-76678132D02*
X273335786Y-76326178D01*
X273335786Y-76326178D02*
X273343335Y-76219967D01*
X273343335Y-76219967D02*
X273369106Y-76157749D01*
X273369106Y-76157749D02*
X273438871Y-76077309D01*
X273438871Y-76077309D02*
X273570854Y-76022640D01*
X273570854Y-76022640D02*
X273677066Y-76030188D01*
X273677066Y-76030188D02*
X273739283Y-76055959D01*
X273739283Y-76055959D02*
X273819723Y-76125725D01*
X273819723Y-76125725D02*
X273965508Y-76477679D01*
X273822313Y-74887632D02*
X274040990Y-75415564D01*
X273931652Y-75151598D02*
X273007772Y-75534281D01*
X273007772Y-75534281D02*
X273176201Y-75567601D01*
X273176201Y-75567601D02*
X273300635Y-75619143D01*
X273300635Y-75619143D02*
X273381076Y-75688909D01*
X272661535Y-74698390D02*
X272625089Y-74610402D01*
X272625089Y-74610402D02*
X272632637Y-74504190D01*
X272632637Y-74504190D02*
X272658408Y-74441973D01*
X272658408Y-74441973D02*
X272728174Y-74361533D01*
X272728174Y-74361533D02*
X272885928Y-74244646D01*
X272885928Y-74244646D02*
X273105899Y-74153531D01*
X273105899Y-74153531D02*
X273300099Y-74124633D01*
X273300099Y-74124633D02*
X273406311Y-74132182D01*
X273406311Y-74132182D02*
X273468528Y-74157953D01*
X273468528Y-74157953D02*
X273548968Y-74227718D01*
X273548968Y-74227718D02*
X273585414Y-74315707D01*
X273585414Y-74315707D02*
X273577866Y-74421919D01*
X273577866Y-74421919D02*
X273552095Y-74484136D01*
X273552095Y-74484136D02*
X273482329Y-74564576D01*
X273482329Y-74564576D02*
X273324575Y-74681462D01*
X273324575Y-74681462D02*
X273104604Y-74772578D01*
X273104604Y-74772578D02*
X272910404Y-74801475D01*
X272910404Y-74801475D02*
X272804192Y-74793927D01*
X272804192Y-74793927D02*
X272741975Y-74768156D01*
X272741975Y-74768156D02*
X272661535Y-74698390D01*
X200384964Y-38740462D02*
X199833007Y-38888358D01*
X199850167Y-37848484D02*
X200108986Y-38814410D01*
X199252212Y-38008706D02*
X199511031Y-38974631D01*
X199511031Y-38974631D02*
X199143060Y-39073229D01*
X199143060Y-39073229D02*
X199038742Y-39051882D01*
X199038742Y-39051882D02*
X198980421Y-39018210D01*
X198980421Y-39018210D02*
X198909775Y-38938542D01*
X198909775Y-38938542D02*
X198872801Y-38800553D01*
X198872801Y-38800553D02*
X198894148Y-38696235D01*
X198894148Y-38696235D02*
X198927820Y-38637914D01*
X198927820Y-38637914D02*
X199007488Y-38567268D01*
X199007488Y-38567268D02*
X199375459Y-38468670D01*
X197780325Y-38403097D02*
X198332283Y-38255200D01*
X198056304Y-38329148D02*
X198315123Y-39295074D01*
X198315123Y-39295074D02*
X198370142Y-39132435D01*
X198370142Y-39132435D02*
X198437485Y-39015793D01*
X198437485Y-39015793D02*
X198517154Y-38945147D01*
X197165211Y-39603192D02*
X197625176Y-39479945D01*
X197625176Y-39479945D02*
X197547925Y-39007655D01*
X197547925Y-39007655D02*
X197514254Y-39065977D01*
X197514254Y-39065977D02*
X197434585Y-39136623D01*
X197434585Y-39136623D02*
X197204603Y-39198246D01*
X197204603Y-39198246D02*
X197100285Y-39176899D01*
X197100285Y-39176899D02*
X197041964Y-39143227D01*
X197041964Y-39143227D02*
X196971318Y-39063559D01*
X196971318Y-39063559D02*
X196909695Y-38833577D01*
X196909695Y-38833577D02*
X196931042Y-38729259D01*
X196931042Y-38729259D02*
X196964714Y-38670938D01*
X196964714Y-38670938D02*
X197044382Y-38600292D01*
X197044382Y-38600292D02*
X197274364Y-38538668D01*
X197274364Y-38538668D02*
X197378682Y-38560015D01*
X197378682Y-38560015D02*
X197437003Y-38593687D01*
X232512812Y-39516919D02*
X231960854Y-39369022D01*
X232495652Y-38477045D02*
X232236833Y-39442971D01*
X231897698Y-38316823D02*
X231638879Y-39282749D01*
X231638879Y-39282749D02*
X231270907Y-39184151D01*
X231270907Y-39184151D02*
X231191239Y-39113506D01*
X231191239Y-39113506D02*
X231157567Y-39055184D01*
X231157567Y-39055184D02*
X231136220Y-38950867D01*
X231136220Y-38950867D02*
X231173194Y-38812877D01*
X231173194Y-38812877D02*
X231243840Y-38733209D01*
X231243840Y-38733209D02*
X231302161Y-38699537D01*
X231302161Y-38699537D02*
X231406479Y-38678190D01*
X231406479Y-38678190D02*
X231774451Y-38776788D01*
X230345258Y-38591032D02*
X230517804Y-37947082D01*
X230476642Y-39020628D02*
X230891495Y-38392304D01*
X230891495Y-38392304D02*
X230293541Y-38232083D01*
X171537967Y-145562630D02*
X171959268Y-145948682D01*
X171073027Y-146492933D02*
X171748617Y-145755656D01*
X171529437Y-146911156D02*
X172205027Y-146173879D01*
X172205027Y-146173879D02*
X172485895Y-146431246D01*
X172485895Y-146431246D02*
X172523941Y-146530697D01*
X172523941Y-146530697D02*
X172526878Y-146597976D01*
X172526878Y-146597976D02*
X172497645Y-146700364D01*
X172497645Y-146700364D02*
X172401132Y-146805689D01*
X172401132Y-146805689D02*
X172301681Y-146843735D01*
X172301681Y-146843735D02*
X172234402Y-146846673D01*
X172234402Y-146846673D02*
X172132014Y-146817439D01*
X172132014Y-146817439D02*
X171851147Y-146560072D01*
X172842854Y-146887515D02*
X172910134Y-146884577D01*
X172910134Y-146884577D02*
X173012521Y-146913811D01*
X173012521Y-146913811D02*
X173188064Y-147074666D01*
X173188064Y-147074666D02*
X173226110Y-147174116D01*
X173226110Y-147174116D02*
X173229047Y-147241396D01*
X173229047Y-147241396D02*
X173199814Y-147343783D01*
X173199814Y-147343783D02*
X173135472Y-147414000D01*
X173135472Y-147414000D02*
X173003850Y-147487155D01*
X173003850Y-147487155D02*
X172196497Y-147522404D01*
X172196497Y-147522404D02*
X172652907Y-147940627D01*
X192514024Y-41172191D02*
X191986092Y-41390867D01*
X191867375Y-40357649D02*
X192250058Y-41281529D01*
X191295449Y-40594549D02*
X191678132Y-41518428D01*
X191678132Y-41518428D02*
X191326178Y-41664213D01*
X191326178Y-41664213D02*
X191219967Y-41656664D01*
X191219967Y-41656664D02*
X191157749Y-41630893D01*
X191157749Y-41630893D02*
X191077309Y-41561128D01*
X191077309Y-41561128D02*
X191022640Y-41429145D01*
X191022640Y-41429145D02*
X191030188Y-41322933D01*
X191030188Y-41322933D02*
X191055959Y-41260716D01*
X191055959Y-41260716D02*
X191125725Y-41180276D01*
X191125725Y-41180276D02*
X191477679Y-41034491D01*
X189887632Y-41177686D02*
X190415564Y-40959009D01*
X190151598Y-41068347D02*
X190534281Y-41992227D01*
X190534281Y-41992227D02*
X190567601Y-41823798D01*
X190567601Y-41823798D02*
X190619143Y-41699364D01*
X190619143Y-41699364D02*
X190688909Y-41618923D01*
X189478419Y-42429579D02*
X189654396Y-42356687D01*
X189654396Y-42356687D02*
X189724162Y-42276247D01*
X189724162Y-42276247D02*
X189749933Y-42214030D01*
X189749933Y-42214030D02*
X189783252Y-42045601D01*
X189783252Y-42045601D02*
X189754355Y-41851401D01*
X189754355Y-41851401D02*
X189608570Y-41499447D01*
X189608570Y-41499447D02*
X189528130Y-41429681D01*
X189528130Y-41429681D02*
X189465913Y-41403910D01*
X189465913Y-41403910D02*
X189359701Y-41396362D01*
X189359701Y-41396362D02*
X189183724Y-41469254D01*
X189183724Y-41469254D02*
X189113959Y-41549694D01*
X189113959Y-41549694D02*
X189088187Y-41611911D01*
X189088187Y-41611911D02*
X189080639Y-41718123D01*
X189080639Y-41718123D02*
X189171754Y-41938094D01*
X189171754Y-41938094D02*
X189252195Y-42007860D01*
X189252195Y-42007860D02*
X189314412Y-42033631D01*
X189314412Y-42033631D02*
X189420623Y-42041179D01*
X189420623Y-42041179D02*
X189596600Y-41968287D01*
X189596600Y-41968287D02*
X189666366Y-41887847D01*
X189666366Y-41887847D02*
X189692137Y-41825630D01*
X189692137Y-41825630D02*
X189699685Y-41719418D01*
X165962674Y-139499902D02*
X166329981Y-139937641D01*
X165380283Y-140361559D02*
X166146327Y-139718772D01*
X165778199Y-140835777D02*
X166544243Y-140192990D01*
X166544243Y-140192990D02*
X166789115Y-140484816D01*
X166789115Y-140484816D02*
X166813854Y-140588382D01*
X166813854Y-140588382D02*
X166807985Y-140655469D01*
X166807985Y-140655469D02*
X166765637Y-140753165D01*
X166765637Y-140753165D02*
X166656202Y-140844992D01*
X166656202Y-140844992D02*
X166552637Y-140869731D01*
X166552637Y-140869731D02*
X166485550Y-140863862D01*
X166485550Y-140863862D02*
X166387853Y-140821514D01*
X166387853Y-140821514D02*
X166142982Y-140529688D01*
X166757685Y-142003083D02*
X166390378Y-141565343D01*
X166574031Y-141784213D02*
X167340076Y-141141426D01*
X167340076Y-141141426D02*
X167169423Y-141160296D01*
X167169423Y-141160296D02*
X167035248Y-141148557D01*
X167035248Y-141148557D02*
X166937552Y-141106209D01*
X152356900Y-106494027D02*
X152431487Y-107060567D01*
X151402749Y-106907823D02*
X152394194Y-106777297D01*
X151483551Y-107521575D02*
X152474996Y-107391049D01*
X152474996Y-107391049D02*
X152524720Y-107768742D01*
X152524720Y-107768742D02*
X152489939Y-107869381D01*
X152489939Y-107869381D02*
X152448943Y-107922808D01*
X152448943Y-107922808D02*
X152360735Y-107982451D01*
X152360735Y-107982451D02*
X152219100Y-108001097D01*
X152219100Y-108001097D02*
X152118462Y-107966317D01*
X152118462Y-107966317D02*
X152065034Y-107925321D01*
X152065034Y-107925321D02*
X152005392Y-107837113D01*
X152005392Y-107837113D02*
X151955667Y-107459419D01*
X151682448Y-109032348D02*
X151607861Y-108465808D01*
X151645155Y-108749078D02*
X152636599Y-108618552D01*
X152636599Y-108618552D02*
X152482533Y-108542775D01*
X152482533Y-108542775D02*
X152375679Y-108460783D01*
X152375679Y-108460783D02*
X152316036Y-108372575D01*
X152629194Y-109291946D02*
X152682621Y-109332942D01*
X152682621Y-109332942D02*
X152742264Y-109421150D01*
X152742264Y-109421150D02*
X152773341Y-109657208D01*
X152773341Y-109657208D02*
X152738561Y-109757847D01*
X152738561Y-109757847D02*
X152697564Y-109811274D01*
X152697564Y-109811274D02*
X152609357Y-109870917D01*
X152609357Y-109870917D02*
X152514933Y-109883348D01*
X152514933Y-109883348D02*
X152367083Y-109854783D01*
X152367083Y-109854783D02*
X151725957Y-109362830D01*
X151725957Y-109362830D02*
X151806758Y-109976581D01*
X246624788Y-45550258D02*
X246125006Y-45273224D01*
X246859707Y-44537121D02*
X246374897Y-45411741D01*
X246318275Y-44237001D02*
X245833466Y-45111621D01*
X245833466Y-45111621D02*
X245500277Y-44926931D01*
X245500277Y-44926931D02*
X245440066Y-44839110D01*
X245440066Y-44839110D02*
X245421504Y-44774376D01*
X245421504Y-44774376D02*
X245426028Y-44667992D01*
X245426028Y-44667992D02*
X245495286Y-44543047D01*
X245495286Y-44543047D02*
X245583107Y-44482836D01*
X245583107Y-44482836D02*
X245647842Y-44464273D01*
X245647842Y-44464273D02*
X245754225Y-44468797D01*
X245754225Y-44468797D02*
X246087414Y-44653487D01*
X244584009Y-44419036D02*
X244750603Y-44511380D01*
X244750603Y-44511380D02*
X244856986Y-44515904D01*
X244856986Y-44515904D02*
X244921721Y-44497342D01*
X244921721Y-44497342D02*
X245074277Y-44418568D01*
X245074277Y-44418568D02*
X245208270Y-44275060D01*
X245208270Y-44275060D02*
X245392959Y-43941872D01*
X245392959Y-43941872D02*
X245397483Y-43835489D01*
X245397483Y-43835489D02*
X245378921Y-43770754D01*
X245378921Y-43770754D02*
X245318710Y-43682933D01*
X245318710Y-43682933D02*
X245152116Y-43590588D01*
X245152116Y-43590588D02*
X245045732Y-43586064D01*
X245045732Y-43586064D02*
X244980998Y-43604627D01*
X244980998Y-43604627D02*
X244893177Y-43664838D01*
X244893177Y-43664838D02*
X244777746Y-43873081D01*
X244777746Y-43873081D02*
X244773222Y-43979464D01*
X244773222Y-43979464D02*
X244791784Y-44044199D01*
X244791784Y-44044199D02*
X244851995Y-44132019D01*
X244851995Y-44132019D02*
X245018590Y-44224364D01*
X245018590Y-44224364D02*
X245124973Y-44228888D01*
X245124973Y-44228888D02*
X245189708Y-44210326D01*
X245189708Y-44210326D02*
X245277529Y-44150115D01*
X276136290Y-84925000D02*
X275988394Y-84373043D01*
X277028268Y-84390202D02*
X276062342Y-84649021D01*
X276868046Y-83792248D02*
X275902120Y-84051067D01*
X275902120Y-84051067D02*
X275803523Y-83683095D01*
X275803523Y-83683095D02*
X275824870Y-83578778D01*
X275824870Y-83578778D02*
X275858542Y-83520457D01*
X275858542Y-83520457D02*
X275938210Y-83449811D01*
X275938210Y-83449811D02*
X276076199Y-83412837D01*
X276076199Y-83412837D02*
X276180517Y-83434184D01*
X276180517Y-83434184D02*
X276238838Y-83467855D01*
X276238838Y-83467855D02*
X276309484Y-83547524D01*
X276309484Y-83547524D02*
X276408082Y-83915495D01*
X276596903Y-82780326D02*
X276547604Y-82596340D01*
X276547604Y-82596340D02*
X276476958Y-82516672D01*
X276476958Y-82516672D02*
X276418637Y-82483000D01*
X276418637Y-82483000D02*
X276255998Y-82427981D01*
X276255998Y-82427981D02*
X276059687Y-82431284D01*
X276059687Y-82431284D02*
X275691715Y-82529881D01*
X275691715Y-82529881D02*
X275612047Y-82600527D01*
X275612047Y-82600527D02*
X275578375Y-82658848D01*
X275578375Y-82658848D02*
X275557028Y-82763166D01*
X275557028Y-82763166D02*
X275606327Y-82947152D01*
X275606327Y-82947152D02*
X275676973Y-83026820D01*
X275676973Y-83026820D02*
X275735294Y-83060492D01*
X275735294Y-83060492D02*
X275839612Y-83081839D01*
X275839612Y-83081839D02*
X276069594Y-83020215D01*
X276069594Y-83020215D02*
X276149263Y-82949569D01*
X276149263Y-82949569D02*
X276182934Y-82891248D01*
X276182934Y-82891248D02*
X276204281Y-82786931D01*
X276204281Y-82786931D02*
X276154983Y-82602945D01*
X276154983Y-82602945D02*
X276084337Y-82523276D01*
X276084337Y-82523276D02*
X276026015Y-82489605D01*
X276026015Y-82489605D02*
X275921698Y-82468258D01*
X156172191Y-122485975D02*
X156390867Y-123013907D01*
X155357649Y-123132624D02*
X156281529Y-122749941D01*
X155594549Y-123704550D02*
X156518428Y-123321867D01*
X156518428Y-123321867D02*
X156664213Y-123673821D01*
X156664213Y-123673821D02*
X156656664Y-123780032D01*
X156656664Y-123780032D02*
X156630893Y-123842250D01*
X156630893Y-123842250D02*
X156561128Y-123922690D01*
X156561128Y-123922690D02*
X156429145Y-123977359D01*
X156429145Y-123977359D02*
X156322933Y-123969811D01*
X156322933Y-123969811D02*
X156260716Y-123944040D01*
X156260716Y-123944040D02*
X156180276Y-123874274D01*
X156180276Y-123874274D02*
X156034491Y-123522320D01*
X156177686Y-125112367D02*
X155959009Y-124584435D01*
X156068347Y-124848401D02*
X156992227Y-124465718D01*
X156992227Y-124465718D02*
X156823798Y-124432398D01*
X156823798Y-124432398D02*
X156699364Y-124380856D01*
X156699364Y-124380856D02*
X156618923Y-124311090D01*
X157229126Y-125037643D02*
X157466025Y-125609568D01*
X157466025Y-125609568D02*
X156986510Y-125447393D01*
X156986510Y-125447393D02*
X157041179Y-125579376D01*
X157041179Y-125579376D02*
X157033631Y-125685587D01*
X157033631Y-125685587D02*
X157007860Y-125747804D01*
X157007860Y-125747804D02*
X156938094Y-125828245D01*
X156938094Y-125828245D02*
X156718123Y-125919360D01*
X156718123Y-125919360D02*
X156611911Y-125911812D01*
X156611911Y-125911812D02*
X156549694Y-125886040D01*
X156549694Y-125886040D02*
X156469254Y-125816275D01*
X156469254Y-125816275D02*
X156359916Y-125552309D01*
X156359916Y-125552309D02*
X156367464Y-125446098D01*
X156367464Y-125446098D02*
X156393235Y-125383880D01*
X182446781Y-152823584D02*
X182546690Y-152936252D01*
X182546690Y-152936252D02*
X182564120Y-153001301D01*
X182564120Y-153001301D02*
X182557740Y-153107589D01*
X182557740Y-153107589D02*
X182486311Y-153231307D01*
X182486311Y-153231307D02*
X182397453Y-153289976D01*
X182397453Y-153289976D02*
X182332404Y-153307406D01*
X182332404Y-153307406D02*
X182226116Y-153301026D01*
X182226116Y-153301026D02*
X181896202Y-153110550D01*
X181896202Y-153110550D02*
X182396202Y-152244525D01*
X182396202Y-152244525D02*
X182684877Y-152411191D01*
X182684877Y-152411191D02*
X182743546Y-152500050D01*
X182743546Y-152500050D02*
X182760976Y-152565098D01*
X182760976Y-152565098D02*
X182754596Y-152671387D01*
X182754596Y-152671387D02*
X182706977Y-152753865D01*
X182706977Y-152753865D02*
X182618118Y-152812534D01*
X182618118Y-152812534D02*
X182553070Y-152829964D01*
X182553070Y-152829964D02*
X182446781Y-152823584D01*
X182446781Y-152823584D02*
X182158106Y-152656918D01*
X183427184Y-152839763D02*
X183592141Y-152935001D01*
X183592141Y-152935001D02*
X183650810Y-153023859D01*
X183650810Y-153023859D02*
X183685670Y-153153957D01*
X183685670Y-153153957D02*
X183631671Y-153342724D01*
X183631671Y-153342724D02*
X183465005Y-153631399D01*
X183465005Y-153631399D02*
X183328527Y-153772546D01*
X183328527Y-153772546D02*
X183198429Y-153807406D01*
X183198429Y-153807406D02*
X183092141Y-153801026D01*
X183092141Y-153801026D02*
X182927184Y-153705788D01*
X182927184Y-153705788D02*
X182868515Y-153616930D01*
X182868515Y-153616930D02*
X182833655Y-153486832D01*
X182833655Y-153486832D02*
X182887654Y-153298065D01*
X182887654Y-153298065D02*
X183054321Y-153009390D01*
X183054321Y-153009390D02*
X183190798Y-152868242D01*
X183190798Y-152868242D02*
X183320896Y-152833383D01*
X183320896Y-152833383D02*
X183427184Y-152839763D01*
X184334449Y-153363572D02*
X184499406Y-153458810D01*
X184499406Y-153458810D02*
X184558075Y-153547669D01*
X184558075Y-153547669D02*
X184592935Y-153677766D01*
X184592935Y-153677766D02*
X184538936Y-153866533D01*
X184538936Y-153866533D02*
X184372269Y-154155208D01*
X184372269Y-154155208D02*
X184235792Y-154296356D01*
X184235792Y-154296356D02*
X184105694Y-154331215D01*
X184105694Y-154331215D02*
X183999406Y-154324836D01*
X183999406Y-154324836D02*
X183834449Y-154229598D01*
X183834449Y-154229598D02*
X183775780Y-154140739D01*
X183775780Y-154140739D02*
X183740920Y-154010642D01*
X183740920Y-154010642D02*
X183794919Y-153821875D01*
X183794919Y-153821875D02*
X183961586Y-153533200D01*
X183961586Y-153533200D02*
X184098063Y-153392052D01*
X184098063Y-153392052D02*
X184228161Y-153357192D01*
X184228161Y-153357192D02*
X184334449Y-153363572D01*
X184953038Y-153720715D02*
X185447910Y-154006429D01*
X184700474Y-154729598D02*
X185200474Y-153863572D01*
X185690218Y-155301026D02*
X185195346Y-155015312D01*
X185442782Y-155158169D02*
X185942782Y-154292144D01*
X185942782Y-154292144D02*
X185788875Y-154368243D01*
X185788875Y-154368243D02*
X185658777Y-154403102D01*
X185658777Y-154403102D02*
X185552489Y-154396722D01*
X172021203Y-56849799D02*
X171516127Y-56344723D01*
X171516127Y-56344723D02*
X171448783Y-56210036D01*
X171448783Y-56210036D02*
X171448783Y-56075349D01*
X171448783Y-56075349D02*
X171516127Y-55940662D01*
X171516127Y-55940662D02*
X171583470Y-55873318D01*
X171751829Y-57119173D02*
X171280424Y-57590578D01*
X171280424Y-57590578D02*
X170876363Y-56580425D01*
X272168757Y-123699328D02*
X272828671Y-123972673D01*
X272828671Y-123972673D02*
X272942430Y-124071336D01*
X272942430Y-124071336D02*
X272993973Y-124195771D01*
X272993973Y-124195771D02*
X272983298Y-124345977D01*
X272983298Y-124345977D02*
X272946852Y-124433965D01*
X272420753Y-123339825D02*
X272394981Y-123277608D01*
X272394981Y-123277608D02*
X272387433Y-123171396D01*
X272387433Y-123171396D02*
X272478548Y-122951425D01*
X272478548Y-122951425D02*
X272558989Y-122881660D01*
X272558989Y-122881660D02*
X272621206Y-122855888D01*
X272621206Y-122855888D02*
X272727417Y-122848340D01*
X272727417Y-122848340D02*
X272815406Y-122884786D01*
X272815406Y-122884786D02*
X272929166Y-122983449D01*
X272929166Y-122983449D02*
X273238421Y-123730057D01*
X273238421Y-123730057D02*
X273475320Y-123158131D01*
X267920075Y-71030389D02*
X267054049Y-71530389D01*
X266922242Y-71111616D02*
X266857194Y-71094186D01*
X266857194Y-71094186D02*
X266768335Y-71035517D01*
X266768335Y-71035517D02*
X266649288Y-70829321D01*
X266649288Y-70829321D02*
X266642908Y-70723033D01*
X266642908Y-70723033D02*
X266660338Y-70657984D01*
X266660338Y-70657984D02*
X266719007Y-70569126D01*
X266719007Y-70569126D02*
X266801485Y-70521506D01*
X266801485Y-70521506D02*
X266949013Y-70491317D01*
X266949013Y-70491317D02*
X267729599Y-70700475D01*
X267729599Y-70700475D02*
X267420075Y-70164364D01*
X266837596Y-69345957D02*
X266902645Y-69363387D01*
X266902645Y-69363387D02*
X267015313Y-69463295D01*
X267015313Y-69463295D02*
X267062932Y-69545774D01*
X267062932Y-69545774D02*
X267093121Y-69693301D01*
X267093121Y-69693301D02*
X267058262Y-69823399D01*
X267058262Y-69823399D02*
X266999593Y-69912257D01*
X266999593Y-69912257D02*
X266858445Y-70048735D01*
X266858445Y-70048735D02*
X266734727Y-70120163D01*
X266734727Y-70120163D02*
X266545960Y-70174162D01*
X266545960Y-70174162D02*
X266439672Y-70180542D01*
X266439672Y-70180542D02*
X266309575Y-70145682D01*
X266309575Y-70145682D02*
X266196907Y-70045774D01*
X266196907Y-70045774D02*
X266149288Y-69963295D01*
X266149288Y-69963295D02*
X266119098Y-69815768D01*
X266119098Y-69815768D02*
X266136528Y-69750719D01*
X266443884Y-68473552D02*
X266729599Y-68968424D01*
X266586742Y-68720988D02*
X265720716Y-69220988D01*
X265720716Y-69220988D02*
X265892053Y-69232038D01*
X265892053Y-69232038D02*
X266022151Y-69266898D01*
X266022151Y-69266898D02*
X266111009Y-69325567D01*
X238917745Y-158613587D02*
X239191090Y-159273501D01*
X239191090Y-159273501D02*
X239201765Y-159423707D01*
X239201765Y-159423707D02*
X239150222Y-159548142D01*
X239150222Y-159548142D02*
X239036463Y-159646805D01*
X239036463Y-159646805D02*
X238948474Y-159683251D01*
X239881197Y-158575310D02*
X240136319Y-159191229D01*
X239515442Y-158314471D02*
X239568816Y-159065500D01*
X239568816Y-159065500D02*
X240140741Y-158828600D01*
X159841829Y-129657217D02*
X160087555Y-129130447D01*
X159556115Y-129162346D02*
X160422140Y-128662346D01*
X160422140Y-128662346D02*
X160612616Y-128992260D01*
X160612616Y-128992260D02*
X160618996Y-129098548D01*
X160618996Y-129098548D02*
X160601566Y-129163597D01*
X160601566Y-129163597D02*
X160542897Y-129252455D01*
X160542897Y-129252455D02*
X160419179Y-129323884D01*
X160419179Y-129323884D02*
X160312891Y-129330264D01*
X160312891Y-129330264D02*
X160247842Y-129312834D01*
X160247842Y-129312834D02*
X160158984Y-129254165D01*
X160158984Y-129254165D02*
X159968508Y-128924250D01*
X160509747Y-129766466D02*
X160676414Y-130055141D01*
X160294210Y-130440764D02*
X160056115Y-130028371D01*
X160056115Y-130028371D02*
X160922140Y-129528371D01*
X160922140Y-129528371D02*
X161160235Y-129940764D01*
X160525926Y-130746869D02*
X160556115Y-130894397D01*
X160556115Y-130894397D02*
X160675162Y-131100593D01*
X160675162Y-131100593D02*
X160764021Y-131159262D01*
X160764021Y-131159262D02*
X160829070Y-131176692D01*
X160829070Y-131176692D02*
X160935358Y-131170312D01*
X160935358Y-131170312D02*
X161017836Y-131122693D01*
X161017836Y-131122693D02*
X161076505Y-131033835D01*
X161076505Y-131033835D02*
X161093935Y-130968786D01*
X161093935Y-130968786D02*
X161087555Y-130862498D01*
X161087555Y-130862498D02*
X161033557Y-130673731D01*
X161033557Y-130673731D02*
X161027177Y-130567443D01*
X161027177Y-130567443D02*
X161044607Y-130502394D01*
X161044607Y-130502394D02*
X161103276Y-130413536D01*
X161103276Y-130413536D02*
X161185754Y-130365917D01*
X161185754Y-130365917D02*
X161292043Y-130359537D01*
X161292043Y-130359537D02*
X161357091Y-130376967D01*
X161357091Y-130376967D02*
X161445950Y-130435636D01*
X161445950Y-130435636D02*
X161564997Y-130641832D01*
X161564997Y-130641832D02*
X161595187Y-130789360D01*
X161438319Y-131374799D02*
X161604985Y-131663475D01*
X161222782Y-132049097D02*
X160984686Y-131636704D01*
X160984686Y-131636704D02*
X161850712Y-131136704D01*
X161850712Y-131136704D02*
X162088807Y-131549097D01*
X162231664Y-131796533D02*
X162517378Y-132291405D01*
X161508496Y-132543969D02*
X162374521Y-132043969D01*
X162079925Y-133533712D02*
X161794210Y-133038841D01*
X161937067Y-133286277D02*
X162803093Y-132786277D01*
X162803093Y-132786277D02*
X162631756Y-132775227D01*
X162631756Y-132775227D02*
X162501658Y-132740367D01*
X162501658Y-132740367D02*
X162412800Y-132681698D01*
X224575236Y-158755758D02*
X224733166Y-159549727D01*
X224733166Y-159549727D02*
X224798450Y-159633845D01*
X224798450Y-159633845D02*
X224854445Y-159671259D01*
X224854445Y-159671259D02*
X224957143Y-159699383D01*
X224957143Y-159699383D02*
X225143959Y-159662223D01*
X225143959Y-159662223D02*
X225228077Y-159596939D01*
X225228077Y-159596939D02*
X225265491Y-159540945D01*
X225265491Y-159540945D02*
X225293615Y-159438247D01*
X225293615Y-159438247D02*
X225135685Y-158644278D01*
X225695372Y-159261228D02*
X226162412Y-159168328D01*
X225657704Y-159560033D02*
X225789542Y-158514217D01*
X225789542Y-158514217D02*
X226311560Y-159429973D01*
X227198938Y-159253462D02*
X226779109Y-158851452D01*
X226638489Y-159364942D02*
X226443399Y-158384157D01*
X226443399Y-158384157D02*
X226817031Y-158309837D01*
X226817031Y-158309837D02*
X226919729Y-158337961D01*
X226919729Y-158337961D02*
X226975723Y-158375375D01*
X226975723Y-158375375D02*
X227041007Y-158459493D01*
X227041007Y-158459493D02*
X227068878Y-158599605D01*
X227068878Y-158599605D02*
X227040753Y-158702303D01*
X227040753Y-158702303D02*
X227003339Y-158758298D01*
X227003339Y-158758298D02*
X226919221Y-158823582D01*
X226919221Y-158823582D02*
X226545589Y-158897902D01*
X227284072Y-158216937D02*
X227844520Y-158105457D01*
X227759386Y-159141982D02*
X227564296Y-158161197D01*
X228880284Y-158919022D02*
X228319835Y-159030502D01*
X228600060Y-158974762D02*
X228404969Y-157993976D01*
X228404969Y-157993976D02*
X228339431Y-158152669D01*
X228339431Y-158152669D02*
X228264603Y-158264657D01*
X228264603Y-158264657D02*
X228180485Y-158329941D01*
X237999327Y-45131242D02*
X238272672Y-44471328D01*
X238272672Y-44471328D02*
X238371335Y-44357569D01*
X238371335Y-44357569D02*
X238495770Y-44306026D01*
X238495770Y-44306026D02*
X238645976Y-44316701D01*
X238645976Y-44316701D02*
X238733964Y-44353147D01*
X237163436Y-44785005D02*
X237339413Y-44857897D01*
X237339413Y-44857897D02*
X237445624Y-44850349D01*
X237445624Y-44850349D02*
X237507841Y-44824577D01*
X237507841Y-44824577D02*
X237650499Y-44729041D01*
X237650499Y-44729041D02*
X237767385Y-44571287D01*
X237767385Y-44571287D02*
X237913170Y-44219332D01*
X237913170Y-44219332D02*
X237905621Y-44113121D01*
X237905621Y-44113121D02*
X237879850Y-44050904D01*
X237879850Y-44050904D02*
X237810085Y-43970463D01*
X237810085Y-43970463D02*
X237634107Y-43897571D01*
X237634107Y-43897571D02*
X237527896Y-43905119D01*
X237527896Y-43905119D02*
X237465679Y-43930891D01*
X237465679Y-43930891D02*
X237385238Y-44000656D01*
X237385238Y-44000656D02*
X237294123Y-44220628D01*
X237294123Y-44220628D02*
X237301671Y-44326839D01*
X237301671Y-44326839D02*
X237327443Y-44389056D01*
X237327443Y-44389056D02*
X237397208Y-44469497D01*
X237397208Y-44469497D02*
X237573185Y-44542389D01*
X237573185Y-44542389D02*
X237679397Y-44534841D01*
X237679397Y-44534841D02*
X237741614Y-44509069D01*
X237741614Y-44509069D02*
X237822054Y-44439304D01*
X258286918Y-57557920D02*
X258791994Y-57052844D01*
X258791994Y-57052844D02*
X258926681Y-56985500D01*
X258926681Y-56985500D02*
X259061368Y-56985500D01*
X259061368Y-56985500D02*
X259196055Y-57052844D01*
X259196055Y-57052844D02*
X259263399Y-57120187D01*
X258286918Y-56143706D02*
X258690979Y-56547767D01*
X258488948Y-56345737D02*
X257781841Y-57052844D01*
X257781841Y-57052844D02*
X257950200Y-57019172D01*
X257950200Y-57019172D02*
X258084887Y-57019172D01*
X258084887Y-57019172D02*
X258185902Y-57052844D01*
X257613483Y-55470271D02*
X258017544Y-55874332D01*
X257815513Y-55672302D02*
X257108406Y-56379409D01*
X257108406Y-56379409D02*
X257276765Y-56345737D01*
X257276765Y-56345737D02*
X257411452Y-56345737D01*
X257411452Y-56345737D02*
X257512467Y-56379409D01*
X71545180Y-99833333D02*
X71545180Y-99357143D01*
X71545180Y-99357143D02*
X72545180Y-99357143D01*
X72449942Y-100119048D02*
X72497561Y-100166667D01*
X72497561Y-100166667D02*
X72545180Y-100261905D01*
X72545180Y-100261905D02*
X72545180Y-100500000D01*
X72545180Y-100500000D02*
X72497561Y-100595238D01*
X72497561Y-100595238D02*
X72449942Y-100642857D01*
X72449942Y-100642857D02*
X72354704Y-100690476D01*
X72354704Y-100690476D02*
X72259466Y-100690476D01*
X72259466Y-100690476D02*
X72116609Y-100642857D01*
X72116609Y-100642857D02*
X71545180Y-100071429D01*
X71545180Y-100071429D02*
X71545180Y-100690476D01*
%TO.C,TP8*%
D11*
X276728137Y-92037902D02*
G75*
G02*
X274228137Y-92037902I-1250000J0D01*
G01*
X274228137Y-92037902D02*
G75*
G02*
X276728137Y-92037902I1250000J0D01*
G01*
%TO.C,TP5*%
X252104900Y-50649963D02*
G75*
G02*
X249604900Y-50649963I-1250000J0D01*
G01*
X249604900Y-50649963D02*
G75*
G02*
X252104900Y-50649963I1250000J0D01*
G01*
%TO.C,TP7*%
X249025276Y-48553122D02*
G75*
G02*
X246525276Y-48553122I-1250000J0D01*
G01*
X246525276Y-48553122D02*
G75*
G02*
X249025276Y-48553122I1250000J0D01*
G01*
%TO.C,TP3*%
X224212098Y-39521863D02*
G75*
G02*
X221712098Y-39521863I-1250000J0D01*
G01*
X221712098Y-39521863D02*
G75*
G02*
X224212098Y-39521863I1250000J0D01*
G01*
%TO.C,TP14*%
X208287902Y-39521863D02*
G75*
G02*
X205787902Y-39521863I-1250000J0D01*
G01*
X205787902Y-39521863D02*
G75*
G02*
X208287902Y-39521863I1250000J0D01*
G01*
%TO.C,U3*%
D12*
X110000000Y-100000000D02*
G75*
G02*
X50000000Y-100000000I-30000000J0D01*
G01*
X50000000Y-100000000D02*
G75*
G02*
X110000000Y-100000000I30000000J0D01*
G01*
X110000000Y-100000000D02*
G75*
G02*
X50000000Y-100000000I-30000000J0D01*
G01*
X50000000Y-100000000D02*
G75*
G02*
X110000000Y-100000000I30000000J0D01*
G01*
X130000000Y-100000000D02*
G75*
G02*
X30000000Y-100000000I-50000000J0D01*
G01*
X30000000Y-100000000D02*
G75*
G02*
X130000000Y-100000000I50000000J0D01*
G01*
%TO.C,J1*%
D13*
X253399990Y-144862946D02*
X254227305Y-145690261D01*
X256129422Y-147592378D02*
X257105229Y-148568185D01*
X257105229Y-148568185D02*
X263568185Y-142105229D01*
X260605408Y-139142452D02*
X259905372Y-138442416D01*
X263568185Y-142105229D02*
X262592378Y-141129422D01*
%TO.C,TP11*%
D11*
X157328525Y-115787962D02*
G75*
G02*
X154828525Y-115787962I-1250000J0D01*
G01*
X154828525Y-115787962D02*
G75*
G02*
X157328525Y-115787962I1250000J0D01*
G01*
%TO.C,TP10*%
X272606651Y-76656311D02*
G75*
G02*
X270106651Y-76656311I-1250000J0D01*
G01*
X270106651Y-76656311D02*
G75*
G02*
X272606651Y-76656311I1250000J0D01*
G01*
%TO.C,TP15*%
X200462038Y-41078525D02*
G75*
G02*
X197962038Y-41078525I-1250000J0D01*
G01*
X197962038Y-41078525D02*
G75*
G02*
X200462038Y-41078525I1250000J0D01*
G01*
%TO.C,TP4*%
X232037962Y-41078525D02*
G75*
G02*
X229537962Y-41078525I-1250000J0D01*
G01*
X229537962Y-41078525D02*
G75*
G02*
X232037962Y-41078525I1250000J0D01*
G01*
%TO.C,TP2*%
X175038997Y-144973918D02*
G75*
G02*
X172538997Y-144973918I-1250000J0D01*
G01*
X172538997Y-144973918D02*
G75*
G02*
X175038997Y-144973918I1250000J0D01*
G01*
%TO.C,TP16*%
X192906311Y-43643349D02*
G75*
G02*
X190406311Y-43643349I-1250000J0D01*
G01*
X190406311Y-43643349D02*
G75*
G02*
X192906311Y-43643349I1250000J0D01*
G01*
%TO.C,TP1*%
X169521289Y-139210044D02*
G75*
G02*
X167021289Y-139210044I-1250000J0D01*
G01*
X167021289Y-139210044D02*
G75*
G02*
X169521289Y-139210044I1250000J0D01*
G01*
%TO.C,TP12*%
X155771863Y-107962098D02*
G75*
G02*
X153271863Y-107962098I-1250000J0D01*
G01*
X153271863Y-107962098D02*
G75*
G02*
X155771863Y-107962098I1250000J0D01*
G01*
%TO.C,TP6*%
X245823387Y-46648198D02*
G75*
G02*
X243323387Y-46648198I-1250000J0D01*
G01*
X243323387Y-46648198D02*
G75*
G02*
X245823387Y-46648198I1250000J0D01*
G01*
%TO.C,TP9*%
X275171475Y-84212038D02*
G75*
G02*
X272671475Y-84212038I-1250000J0D01*
G01*
X272671475Y-84212038D02*
G75*
G02*
X275171475Y-84212038I1250000J0D01*
G01*
%TO.C,TP13*%
X159893349Y-123343689D02*
G75*
G02*
X157393349Y-123343689I-1250000J0D01*
G01*
X157393349Y-123343689D02*
G75*
G02*
X159893349Y-123343689I1250000J0D01*
G01*
%TO.C,BOOT1*%
X182148885Y-151019800D02*
X187241115Y-153959800D01*
X182886661Y-149401935D02*
X184226661Y-147080987D01*
X183296261Y-144742487D02*
X182646261Y-145868320D01*
X185258885Y-145633122D02*
X190351115Y-148573122D01*
X189613339Y-150190987D02*
X188273339Y-152511935D01*
%TO.C,J7*%
X178435509Y-50884363D02*
X179354748Y-49965124D01*
X185075241Y-52298576D02*
X167298577Y-70075241D01*
X163607480Y-66384143D01*
X181384144Y-48607479D01*
X185075241Y-52298576D01*
%TO.C,J2*%
D13*
X263511834Y-123990871D02*
X266267155Y-117338939D01*
X266267155Y-117338939D02*
X266867678Y-117587683D01*
X266867678Y-117587683D02*
X267012824Y-117106609D01*
X267012824Y-117106609D02*
X267705734Y-117393622D01*
X267468198Y-117836427D02*
X272919089Y-120094260D01*
X267705734Y-117393622D02*
X267468198Y-117836427D01*
X267921414Y-126358575D02*
X268177425Y-125923422D01*
X268177425Y-125923422D02*
X263511834Y-123990871D01*
X268845292Y-126741258D02*
X267921414Y-126358575D01*
X268962724Y-126248704D02*
X268845292Y-126741258D01*
X270163768Y-126746192D02*
X268962724Y-126248704D01*
X272919089Y-120094260D02*
X270163768Y-126746192D01*
D14*
X266173560Y-124077820D02*
G75*
G02*
X265973560Y-124077820I-100000J0D01*
G01*
X265973560Y-124077820D02*
G75*
G02*
X266173560Y-124077820I100000J0D01*
G01*
%TO.C,I2C1*%
D11*
X261641346Y-68545181D02*
X264031576Y-67165181D01*
X265561346Y-75334820D02*
X261641346Y-68545181D01*
X265561346Y-75334820D02*
X267951576Y-73954820D01*
X266279490Y-75468682D02*
X267708432Y-74643682D01*
X267951576Y-73954820D02*
X264031576Y-67165181D01*
%TO.C,Status_LED_TX1*%
X241208325Y-150196388D02*
X242686533Y-149584091D01*
X241713467Y-151415909D02*
X243191675Y-150803612D01*
X243704076Y-149876992D02*
X243981240Y-149762186D01*
X243785255Y-149681007D02*
X243900060Y-149958171D01*
%TO.C,J4*%
X241665158Y-156209369D02*
X241033731Y-154684968D01*
X241438705Y-156903897D02*
X236542143Y-158932119D01*
X232569889Y-149342249D01*
X237466451Y-147314027D01*
X241438705Y-156903897D01*
%TO.C,U4*%
D13*
X77600000Y-99050000D02*
G75*
G02*
X77400000Y-99050000I-100000J0D01*
G01*
X77400000Y-99050000D02*
G75*
G02*
X77600000Y-99050000I100000J0D01*
G01*
%TO.C,RESET1*%
D11*
X161040200Y-127758885D02*
X163980200Y-132851115D01*
X162488065Y-126726661D02*
X164809013Y-125386661D01*
X165172513Y-122896261D02*
X164046680Y-123546261D01*
X166426878Y-124648885D02*
X169366878Y-129741115D01*
X167919013Y-130773339D02*
X165598065Y-132113339D01*
%TO.C,UART1*%
X223887837Y-158265627D02*
X223349388Y-155558659D01*
X228547550Y-154524681D02*
X223349388Y-155558659D01*
X229085999Y-157231648D02*
X223887837Y-158265627D01*
X229085999Y-157231648D02*
X228547550Y-154524681D01*
X229443597Y-156594644D02*
X229121698Y-154976349D01*
%TO.C,POWER_LED2*%
X262335657Y-139127789D02*
X262547789Y-138915657D01*
X262547789Y-139127789D02*
X262335657Y-138915657D01*
X263797954Y-141311335D02*
X262666583Y-140179964D01*
X264731335Y-140377954D02*
X263599964Y-139246583D01*
%TO.C,J6*%
X240801382Y-46398597D02*
X239276981Y-45767170D01*
X241132361Y-47049829D02*
X239104139Y-51946391D01*
X231860923Y-48946153D01*
X233889145Y-44049591D01*
X241132361Y-47049829D01*
%TO.C,J11*%
X251691771Y-59737340D02*
X250772532Y-58818101D01*
X261902393Y-61894016D02*
X258211295Y-65585113D01*
X249414887Y-56788705D01*
X253105984Y-53097608D01*
X261902393Y-61894016D01*
%TO.C,Status_LED_RX1*%
X242008325Y-152096388D02*
X243486533Y-151484091D01*
X242513467Y-153315909D02*
X243991675Y-152703612D01*
X244504076Y-151776992D02*
X244781240Y-151662186D01*
X244585255Y-151581007D02*
X244700060Y-151858171D01*
%TO.C,S6*%
D12*
X28500000Y-100000000D02*
G75*
G02*
X21500000Y-100000000I-3500000J0D01*
G01*
X21500000Y-100000000D02*
G75*
G02*
X28500000Y-100000000I3500000J0D01*
G01*
X28500000Y-100000000D02*
G75*
G02*
X21500000Y-100000000I-3500000J0D01*
G01*
X21500000Y-100000000D02*
G75*
G02*
X28500000Y-100000000I3500000J0D01*
G01*
%TO.C,S8*%
X83500000Y-155000000D02*
G75*
G02*
X76500000Y-155000000I-3500000J0D01*
G01*
X76500000Y-155000000D02*
G75*
G02*
X83500000Y-155000000I3500000J0D01*
G01*
X83500000Y-155000000D02*
G75*
G02*
X76500000Y-155000000I-3500000J0D01*
G01*
X76500000Y-155000000D02*
G75*
G02*
X83500000Y-155000000I3500000J0D01*
G01*
%TO.C,L3*%
X89500000Y-119000000D02*
G75*
G02*
X70500000Y-119000000I-9500000J0D01*
G01*
X70500000Y-119000000D02*
G75*
G02*
X89500000Y-119000000I9500000J0D01*
G01*
%TO.C,S3*%
X218500000Y-155000000D02*
G75*
G02*
X211500000Y-155000000I-3500000J0D01*
G01*
X211500000Y-155000000D02*
G75*
G02*
X218500000Y-155000000I3500000J0D01*
G01*
%TO.C,L2*%
X70500000Y-100000000D02*
G75*
G02*
X51500000Y-100000000I-9500000J0D01*
G01*
X51500000Y-100000000D02*
G75*
G02*
X70500000Y-100000000I9500000J0D01*
G01*
%TO.C,L1*%
X89500000Y-81000000D02*
G75*
G02*
X70500000Y-81000000I-9500000J0D01*
G01*
X70500000Y-81000000D02*
G75*
G02*
X89500000Y-81000000I9500000J0D01*
G01*
%TO.C,S1*%
X218500000Y-45000000D02*
G75*
G02*
X211500000Y-45000000I-3500000J0D01*
G01*
X211500000Y-45000000D02*
G75*
G02*
X218500000Y-45000000I3500000J0D01*
G01*
%TO.C,S5*%
X83500000Y-45000000D02*
G75*
G02*
X76500000Y-45000000I-3500000J0D01*
G01*
X76500000Y-45000000D02*
G75*
G02*
X83500000Y-45000000I3500000J0D01*
G01*
X83500000Y-45000000D02*
G75*
G02*
X76500000Y-45000000I-3500000J0D01*
G01*
X76500000Y-45000000D02*
G75*
G02*
X83500000Y-45000000I3500000J0D01*
G01*
%TO.C,L4*%
X108500000Y-100000000D02*
G75*
G02*
X89500000Y-100000000I-9500000J0D01*
G01*
X89500000Y-100000000D02*
G75*
G02*
X108500000Y-100000000I9500000J0D01*
G01*
%TO.C,S2*%
X163500000Y-100000000D02*
G75*
G02*
X156500000Y-100000000I-3500000J0D01*
G01*
X156500000Y-100000000D02*
G75*
G02*
X163500000Y-100000000I3500000J0D01*
G01*
%TO.C,S4*%
X273500000Y-100000000D02*
G75*
G02*
X266500000Y-100000000I-3500000J0D01*
G01*
X266500000Y-100000000D02*
G75*
G02*
X273500000Y-100000000I3500000J0D01*
G01*
%TO.C,S7*%
X138500000Y-100000000D02*
G75*
G02*
X131500000Y-100000000I-3500000J0D01*
G01*
X131500000Y-100000000D02*
G75*
G02*
X138500000Y-100000000I3500000J0D01*
G01*
X138500000Y-100000000D02*
G75*
G02*
X131500000Y-100000000I-3500000J0D01*
G01*
X131500000Y-100000000D02*
G75*
G02*
X138500000Y-100000000I3500000J0D01*
G01*
%TD*%
M02*
