%TF.GenerationSoftware,KiCad,Pcbnew,10.0.0*%
%TF.CreationDate,2026-06-05T13:55:21+02:00*%
%TF.ProjectId,Maglev,4d61676c-6576-42e6-9b69-6361645f7063,rev?*%
%TF.SameCoordinates,Original*%
%TF.FileFunction,Copper,L1,Top*%
%TF.FilePolarity,Positive*%
%FSLAX46Y46*%
G04 Gerber Fmt 4.6, Leading zero omitted, Abs format (unit mm)*
G04 Created by KiCad (PCBNEW 10.0.0) date 2026-06-05 13:55:21*
%MOMM*%
%LPD*%
G01*
G04 APERTURE LIST*
G04 Aperture macros list*
%AMRoundRect*
0 Rectangle with rounded corners*
0 $1 Rounding radius*
0 $2 $3 $4 $5 $6 $7 $8 $9 X,Y pos of 4 corners*
0 Add a 4 corners polygon primitive as box body*
4,1,4,$2,$3,$4,$5,$6,$7,$8,$9,$2,$3,0*
0 Add four circle primitives for the rounded corners*
1,1,$1+$1,$2,$3*
1,1,$1+$1,$4,$5*
1,1,$1+$1,$6,$7*
1,1,$1+$1,$8,$9*
0 Add four rect primitives between the rounded corners*
20,1,$1+$1,$2,$3,$4,$5,0*
20,1,$1+$1,$4,$5,$6,$7,0*
20,1,$1+$1,$6,$7,$8,$9,0*
20,1,$1+$1,$8,$9,$2,$3,0*%
%AMHorizOval*
0 Thick line with rounded ends*
0 $1 width*
0 $2 $3 position (X,Y) of the first rounded end (center of the circle)*
0 $4 $5 position (X,Y) of the second rounded end (center of the circle)*
0 Add line between two ends*
20,1,$1,$2,$3,$4,$5,0*
0 Add two circle primitives to create the rounded ends*
1,1,$1,$2,$3*
1,1,$1,$4,$5*%
%AMRotRect*
0 Rectangle, with rotation*
0 The origin of the aperture is its center*
0 $1 length*
0 $2 width*
0 $3 Rotation angle, in degrees counterclockwise*
0 Add horizontal line*
21,1,$1,$2,0,0,$3*%
G04 Aperture macros list end*
%ADD10C,0.150000*%
%TA.AperFunction,NonConductor*%
%ADD11C,0.150000*%
%TD*%
%TA.AperFunction,NonConductor*%
%ADD12C,0.000000*%
%TD*%
%TA.AperFunction,SMDPad,CuDef*%
%ADD13C,2.000000*%
%TD*%
%TA.AperFunction,SMDPad,CuDef*%
%ADD14RotRect,0.600000X1.000000X45.000000*%
%TD*%
%TA.AperFunction,SMDPad,CuDef*%
%ADD15RotRect,0.300000X1.150000X45.000000*%
%TD*%
%TA.AperFunction,SMDPad,CuDef*%
%ADD16RotRect,0.300000X1.000000X45.000000*%
%TD*%
%TA.AperFunction,ComponentPad*%
%ADD17HorizOval,1.100000X-0.459619X0.459619X0.459619X-0.459619X0*%
%TD*%
%TA.AperFunction,ComponentPad*%
%ADD18HorizOval,1.100000X-0.353553X0.353553X0.353553X-0.353553X0*%
%TD*%
%TA.AperFunction,SMDPad,CuDef*%
%ADD19RotRect,1.550000X1.300000X330.000000*%
%TD*%
%TA.AperFunction,ComponentPad*%
%ADD20RotRect,1.300000X1.300000X45.000000*%
%TD*%
%TA.AperFunction,ComponentPad*%
%ADD21C,1.300000*%
%TD*%
%TA.AperFunction,ComponentPad*%
%ADD22C,1.800000*%
%TD*%
%TA.AperFunction,ComponentPad*%
%ADD23RotRect,1.650000X1.650000X348.750000*%
%TD*%
%TA.AperFunction,ComponentPad*%
%ADD24C,1.650000*%
%TD*%
%TA.AperFunction,ComponentPad*%
%ADD25RotRect,1.650000X1.650000X120.000000*%
%TD*%
%TA.AperFunction,SMDPad,CuDef*%
%ADD26RotRect,0.700000X0.800000X22.500000*%
%TD*%
%TA.AperFunction,ComponentPad*%
%ADD27RotRect,1.650000X1.650000X112.500000*%
%TD*%
%TA.AperFunction,SMDPad,CuDef*%
%ADD28R,1.210000X0.580000*%
%TD*%
%TA.AperFunction,SMDPad,CuDef*%
%ADD29RotRect,1.550000X1.300000X300.000000*%
%TD*%
%TA.AperFunction,ComponentPad*%
%ADD30RotRect,1.650000X1.650000X191.250000*%
%TD*%
%TA.AperFunction,SMDPad,CuDef*%
%ADD31RotRect,0.700000X0.800000X135.000000*%
%TD*%
%TA.AperFunction,ComponentPad*%
%ADD32RotRect,1.650000X1.650000X247.500000*%
%TD*%
%TA.AperFunction,ComponentPad*%
%ADD33RotRect,1.300000X1.300000X135.000000*%
%TD*%
%TA.AperFunction,ComponentPad*%
%ADD34RoundRect,0.190500X-0.444500X1.079500X-0.444500X-1.079500X0.444500X-1.079500X0.444500X1.079500X0*%
%TD*%
%TA.AperFunction,ComponentPad*%
%ADD35RoundRect,0.190500X1.079500X0.444500X-1.079500X0.444500X-1.079500X-0.444500X1.079500X-0.444500X0*%
%TD*%
%TA.AperFunction,ComponentPad*%
%ADD36RoundRect,0.190500X0.444500X-1.079500X0.444500X1.079500X-0.444500X1.079500X-0.444500X-1.079500X0*%
%TD*%
%TA.AperFunction,ComponentPad*%
%ADD37RoundRect,0.190500X-1.079500X-0.444500X1.079500X-0.444500X1.079500X0.444500X-1.079500X0.444500X0*%
%TD*%
%TA.AperFunction,ViaPad*%
%ADD38C,0.610000*%
%TD*%
%TA.AperFunction,Conductor*%
%ADD39C,0.203200*%
%TD*%
%TA.AperFunction,Conductor*%
%ADD40C,0.508000*%
%TD*%
%TA.AperFunction,Conductor*%
%ADD41C,0.762000*%
%TD*%
%TA.AperFunction,Conductor*%
%ADD42C,0.254000*%
%TD*%
%TA.AperFunction,Conductor*%
%ADD43C,0.304800*%
%TD*%
%TA.AperFunction,Conductor*%
%ADD44C,0.152400*%
%TD*%
G04 APERTURE END LIST*
D10*
D11*
X58001735Y-40918632D02*
X58107946Y-40926180D01*
X58107946Y-40926180D02*
X58239929Y-40871511D01*
X58239929Y-40871511D02*
X58353689Y-40772848D01*
X58353689Y-40772848D02*
X58405231Y-40648413D01*
X58405231Y-40648413D02*
X58412780Y-40542202D01*
X58412780Y-40542202D02*
X58383882Y-40348001D01*
X58383882Y-40348001D02*
X58329213Y-40216019D01*
X58329213Y-40216019D02*
X58212326Y-40058265D01*
X58212326Y-40058265D02*
X58131886Y-39988499D01*
X58131886Y-39988499D02*
X58007452Y-39936957D01*
X58007452Y-39936957D02*
X57857246Y-39947631D01*
X57857246Y-39947631D02*
X57769257Y-39984077D01*
X57769257Y-39984077D02*
X57655497Y-40082741D01*
X57655497Y-40082741D02*
X57629726Y-40144958D01*
X57629726Y-40144958D02*
X57757287Y-40452918D01*
X57757287Y-40452918D02*
X57933264Y-40380026D01*
X57197332Y-40220977D02*
X57452454Y-40836896D01*
X57580015Y-41144856D02*
X57605786Y-41082639D01*
X57605786Y-41082639D02*
X57543569Y-41056868D01*
X57543569Y-41056868D02*
X57517798Y-41119085D01*
X57517798Y-41119085D02*
X57580015Y-41144856D01*
X57580015Y-41144856D02*
X57543569Y-41056868D01*
X57144495Y-40964457D02*
X56792541Y-41110242D01*
X57140073Y-41327086D02*
X56812059Y-40535190D01*
X56812059Y-40535190D02*
X56731618Y-40465424D01*
X56731618Y-40465424D02*
X56625407Y-40457876D01*
X56625407Y-40457876D02*
X56537418Y-40494322D01*
X55525550Y-40913452D02*
X55780672Y-41529371D01*
X55707780Y-41353394D02*
X55700232Y-41459606D01*
X55700232Y-41459606D02*
X55674460Y-41521823D01*
X55674460Y-41521823D02*
X55604695Y-41602263D01*
X55604695Y-41602263D02*
X55516706Y-41638709D01*
X54619893Y-41340129D02*
X54689658Y-41259689D01*
X54689658Y-41259689D02*
X54865635Y-41186797D01*
X54865635Y-41186797D02*
X54971847Y-41194345D01*
X54971847Y-41194345D02*
X55052287Y-41264111D01*
X55052287Y-41264111D02*
X55198071Y-41616065D01*
X55198071Y-41616065D02*
X55190523Y-41722276D01*
X55190523Y-41722276D02*
X55120758Y-41802717D01*
X55120758Y-41802717D02*
X54944780Y-41875609D01*
X54944780Y-41875609D02*
X54838569Y-41868061D01*
X54838569Y-41868061D02*
X54758129Y-41798295D01*
X54758129Y-41798295D02*
X54721683Y-41710307D01*
X54721683Y-41710307D02*
X55125179Y-41440088D01*
X54416849Y-42094285D02*
X54034166Y-41170406D01*
X54398626Y-42050291D02*
X54328861Y-42130731D01*
X54328861Y-42130731D02*
X54152884Y-42203623D01*
X54152884Y-42203623D02*
X54046672Y-42196075D01*
X54046672Y-42196075D02*
X53984455Y-42170304D01*
X53984455Y-42170304D02*
X53904014Y-42100538D01*
X53904014Y-42100538D02*
X53794676Y-41836573D01*
X53794676Y-41836573D02*
X53802225Y-41730361D01*
X53802225Y-41730361D02*
X53827996Y-41668144D01*
X53827996Y-41668144D02*
X53897761Y-41587704D01*
X53897761Y-41587704D02*
X54073738Y-41514811D01*
X54073738Y-41514811D02*
X54179950Y-41522360D01*
X53193853Y-41879272D02*
X53300065Y-41886820D01*
X53300065Y-41886820D02*
X53362282Y-41912591D01*
X53362282Y-41912591D02*
X53442722Y-41982357D01*
X53442722Y-41982357D02*
X53552060Y-42246322D01*
X53552060Y-42246322D02*
X53544512Y-42352534D01*
X53544512Y-42352534D02*
X53518741Y-42414751D01*
X53518741Y-42414751D02*
X53448975Y-42495192D01*
X53448975Y-42495192D02*
X53316993Y-42549861D01*
X53316993Y-42549861D02*
X53210781Y-42542312D01*
X53210781Y-42542312D02*
X53148564Y-42516541D01*
X53148564Y-42516541D02*
X53068123Y-42446776D01*
X53068123Y-42446776D02*
X52958785Y-42182810D01*
X52958785Y-42182810D02*
X52966333Y-42076599D01*
X52966333Y-42076599D02*
X52992105Y-42014381D01*
X52992105Y-42014381D02*
X53061870Y-41933941D01*
X53061870Y-41933941D02*
X53193853Y-41879272D01*
D12*
%TA.AperFunction,NonConductor*%
G36*
X56612413Y-53416261D02*
G01*
X55936404Y-53696273D01*
X55656392Y-53020264D01*
X56332401Y-52740252D01*
X56612413Y-53416261D01*
G37*
%TD.AperFunction*%
%TA.AperFunction,NonConductor*%
G36*
X56689736Y-52328240D02*
G01*
X57156423Y-53454923D01*
X57249761Y-53680259D01*
X55672405Y-54333621D01*
X55579068Y-54108285D01*
X55112381Y-52981602D01*
X55073719Y-52888264D01*
X55337717Y-52888264D01*
X55804404Y-54014948D01*
X56931087Y-53548260D01*
X56464400Y-52421577D01*
X55337717Y-52888264D01*
X55073719Y-52888264D01*
X55019044Y-52756266D01*
X56596399Y-52102904D01*
X56689736Y-52328240D01*
G37*
%TD.AperFunction*%
%TA.AperFunction,NonConductor*%
G36*
X56960367Y-48520167D02*
G01*
X57053705Y-48745504D01*
X57147042Y-48970840D01*
X57240380Y-49196177D01*
X57333717Y-49421513D01*
X57427054Y-49646850D01*
X57613729Y-50097523D01*
X57388393Y-50190860D01*
X57201718Y-49740187D01*
X56751045Y-49926862D01*
X56844383Y-50152199D01*
X57069719Y-50058861D01*
X57163056Y-50284197D01*
X56937720Y-50377535D01*
X57124395Y-50828208D01*
X56899058Y-50921545D01*
X56712383Y-50470872D01*
X56487047Y-50564210D01*
X56580385Y-50789547D01*
X56673722Y-51014883D01*
X56860397Y-51465556D01*
X56953734Y-51690892D01*
X57179070Y-51597555D01*
X57272408Y-51822892D01*
X57459083Y-52273565D01*
X57684420Y-52180227D01*
X57777757Y-52405563D01*
X57327084Y-52592238D01*
X57420422Y-52817575D01*
X57645758Y-52724238D01*
X57739095Y-52949574D01*
X57964432Y-52856236D01*
X57871095Y-52630900D01*
X58096431Y-52537563D01*
X58189768Y-52762899D01*
X58283106Y-52988236D01*
X58057770Y-53081573D01*
X58151107Y-53306909D01*
X57925770Y-53400247D01*
X57832433Y-53174911D01*
X57607097Y-53268248D01*
X57513759Y-53042911D01*
X57288423Y-53136248D01*
X57195086Y-52910912D01*
X57101748Y-52685575D01*
X57008411Y-52460239D01*
X57233747Y-52366902D01*
X57047072Y-51916229D01*
X56821736Y-52009566D01*
X56728398Y-51784229D01*
X56052388Y-52064242D01*
X55959051Y-51838905D01*
X56635061Y-51558893D01*
X56448386Y-51108220D01*
X56223049Y-51201558D01*
X56129712Y-50976221D01*
X55904376Y-51069559D01*
X55811038Y-50844222D01*
X56036374Y-50750884D01*
X55943037Y-50525548D01*
X55717701Y-50618886D01*
X55811038Y-50844222D01*
X55585701Y-50937559D01*
X55679039Y-51162896D01*
X55904376Y-51069559D01*
X55997713Y-51294895D01*
X55547040Y-51481570D01*
X55453703Y-51256234D01*
X55360365Y-51030897D01*
X55135028Y-51124234D01*
X55041691Y-50898898D01*
X54816355Y-50992235D01*
X54909692Y-51217572D01*
X54684355Y-51310909D01*
X54777693Y-51536246D01*
X55003030Y-51442909D01*
X55096367Y-51668245D01*
X54871030Y-51761582D01*
X55151042Y-52437591D01*
X54925706Y-52530929D01*
X54645694Y-51854919D01*
X54552357Y-51629583D01*
X54459019Y-51404246D01*
X54365682Y-51178910D01*
X54591018Y-51085573D01*
X54497680Y-50860236D01*
X54723017Y-50766898D01*
X54629680Y-50541562D01*
X54536343Y-50316226D01*
X54761679Y-50222889D01*
X54855016Y-50448225D01*
X55080353Y-50354888D01*
X55173690Y-50580224D01*
X55399026Y-50486886D01*
X55305689Y-50261550D01*
X55212352Y-50036214D01*
X55119014Y-49810877D01*
X55344351Y-49717540D01*
X55437689Y-49942877D01*
X55888362Y-49756202D01*
X55981699Y-49981538D01*
X55531026Y-50168213D01*
X55624363Y-50393549D01*
X56300372Y-50113537D01*
X56207035Y-49888200D01*
X56113698Y-49662864D01*
X56020360Y-49437527D01*
X55795024Y-49530865D01*
X55701687Y-49305529D01*
X55624363Y-49118854D01*
X56152359Y-49118854D01*
X56245696Y-49344190D01*
X56339034Y-49569527D01*
X56564371Y-49476190D01*
X56657708Y-49701526D01*
X56883044Y-49608188D01*
X56789707Y-49382852D01*
X56564371Y-49476190D01*
X56471033Y-49250853D01*
X56921706Y-49064178D01*
X56828369Y-48838842D01*
X56152359Y-49118854D01*
X55624363Y-49118854D01*
X55608349Y-49080192D01*
X55833685Y-48986854D01*
X55740348Y-48761518D01*
X55965684Y-48668181D01*
X56059021Y-48893517D01*
X56735031Y-48613505D01*
X56641694Y-48388169D01*
X56867030Y-48294831D01*
X56960367Y-48520167D01*
G37*
%TD.AperFunction*%
%TA.AperFunction,NonConductor*%
G36*
X58959116Y-52708223D02*
G01*
X59052453Y-52933559D01*
X58376443Y-53213572D01*
X58283106Y-52988236D01*
X58508443Y-52894898D01*
X58415105Y-52669561D01*
X58865778Y-52482886D01*
X58959116Y-52708223D01*
G37*
%TD.AperFunction*%
%TA.AperFunction,NonConductor*%
G36*
X59728462Y-52653547D02*
G01*
X59277789Y-52840222D01*
X59184452Y-52614886D01*
X59635125Y-52428211D01*
X59728462Y-52653547D01*
G37*
%TD.AperFunction*%
%TA.AperFunction,NonConductor*%
G36*
X60085798Y-52241536D02*
G01*
X60536471Y-52054861D01*
X60629808Y-52280197D01*
X59953798Y-52560210D01*
X59860461Y-52334874D01*
X59767123Y-52109537D01*
X59992460Y-52016199D01*
X60085798Y-52241536D01*
G37*
%TD.AperFunction*%
%TA.AperFunction,NonConductor*%
G36*
X59580448Y-51658864D02*
G01*
X59673786Y-51884201D01*
X59767123Y-52109537D01*
X59316450Y-52296212D01*
X59223113Y-52070876D01*
X59448450Y-51977538D01*
X59355112Y-51752201D01*
X59129775Y-51845539D01*
X59223113Y-52070876D01*
X58321768Y-52444225D01*
X58228430Y-52218888D01*
X58453766Y-52125551D01*
X58360429Y-51900215D01*
X57909756Y-52086890D01*
X57816418Y-51861553D01*
X58492428Y-51581540D01*
X58585766Y-51806877D01*
X58679103Y-52032213D01*
X58904439Y-51938876D01*
X58811102Y-51713540D01*
X59487111Y-51433528D01*
X59580448Y-51658864D01*
G37*
%TD.AperFunction*%
%TA.AperFunction,NonConductor*%
G36*
X55733715Y-51932243D02*
G01*
X55827052Y-52157579D01*
X55376379Y-52344254D01*
X55283042Y-52118918D01*
X55508378Y-52025580D01*
X55415041Y-51800244D01*
X55640378Y-51706907D01*
X55733715Y-51932243D01*
G37*
%TD.AperFunction*%
%TA.AperFunction,NonConductor*%
G36*
X61064466Y-50780166D02*
G01*
X61157804Y-51005502D01*
X60932468Y-51098839D01*
X61119142Y-51549512D01*
X60893806Y-51642849D01*
X60987144Y-51868186D01*
X61080481Y-52093523D01*
X60855144Y-52186860D01*
X60761807Y-51961524D01*
X60536471Y-52054861D01*
X60443133Y-51829524D01*
X60668469Y-51736187D01*
X60481794Y-51285514D01*
X60707131Y-51192176D01*
X60613794Y-50966840D01*
X60839130Y-50873503D01*
X60652455Y-50422830D01*
X60877791Y-50329493D01*
X61064466Y-50780166D01*
G37*
%TD.AperFunction*%
%TA.AperFunction,NonConductor*%
G36*
X60163121Y-51153515D02*
G01*
X60388457Y-51060178D01*
X60481794Y-51285514D01*
X60256458Y-51378851D01*
X60349796Y-51604188D01*
X60443133Y-51829524D01*
X60217796Y-51922862D01*
X60124459Y-51697526D01*
X59899123Y-51790863D01*
X59805785Y-51565526D01*
X59712448Y-51340190D01*
X59619110Y-51114853D01*
X60069784Y-50928178D01*
X60163121Y-51153515D01*
G37*
%TD.AperFunction*%
%TA.AperFunction,NonConductor*%
G36*
X55415041Y-51800244D02*
G01*
X55189704Y-51893582D01*
X55096367Y-51668245D01*
X55321703Y-51574907D01*
X55415041Y-51800244D01*
G37*
%TD.AperFunction*%
%TA.AperFunction,NonConductor*%
G36*
X61927151Y-50950826D02*
G01*
X62020489Y-51176162D01*
X61795152Y-51269500D01*
X61888489Y-51494837D01*
X61981826Y-51720173D01*
X61756490Y-51813510D01*
X61663153Y-51588174D01*
X61437816Y-51681512D01*
X61344478Y-51456175D01*
X61251141Y-51230839D01*
X61701814Y-51044164D01*
X61608477Y-50818827D01*
X61833814Y-50725489D01*
X61927151Y-50950826D01*
G37*
%TD.AperFunction*%
%TA.AperFunction,NonConductor*%
G36*
X62432499Y-51533498D02*
G01*
X62207163Y-51626835D01*
X62113826Y-51401499D01*
X62339162Y-51308162D01*
X62432499Y-51533498D01*
G37*
%TD.AperFunction*%
%TA.AperFunction,NonConductor*%
G36*
X57404407Y-51504217D02*
G01*
X57179070Y-51597555D01*
X57085733Y-51372218D01*
X57311070Y-51278881D01*
X57404407Y-51504217D01*
G37*
%TD.AperFunction*%
%TA.AperFunction,NonConductor*%
G36*
X56316387Y-51426895D02*
G01*
X56091051Y-51520232D01*
X55997713Y-51294895D01*
X56223049Y-51201558D01*
X56316387Y-51426895D01*
G37*
%TD.AperFunction*%
%TA.AperFunction,NonConductor*%
G36*
X58943100Y-51394866D02*
G01*
X58717764Y-51488203D01*
X58624427Y-51262867D01*
X58849763Y-51169530D01*
X58943100Y-51394866D01*
G37*
%TD.AperFunction*%
%TA.AperFunction,NonConductor*%
G36*
X58437752Y-50812194D02*
G01*
X58624427Y-51262867D01*
X58173754Y-51449542D01*
X57987079Y-50998869D01*
X58212416Y-50905531D01*
X58119079Y-50680195D01*
X58344415Y-50586858D01*
X58437752Y-50812194D01*
G37*
%TD.AperFunction*%
%TA.AperFunction,NonConductor*%
G36*
X57855080Y-51317542D02*
G01*
X57629743Y-51410880D01*
X57536406Y-51185544D01*
X57761743Y-51092206D01*
X57855080Y-51317542D01*
G37*
%TD.AperFunction*%
%TA.AperFunction,NonConductor*%
G36*
X62696498Y-50896150D02*
G01*
X62921834Y-50802813D01*
X63015171Y-51028150D01*
X62339162Y-51308162D01*
X62245825Y-51082825D01*
X62471162Y-50989488D01*
X62377824Y-50764151D01*
X62603160Y-50670814D01*
X62696498Y-50896150D01*
G37*
%TD.AperFunction*%
%TA.AperFunction,NonConductor*%
G36*
X62999157Y-49714792D02*
G01*
X62773821Y-49808129D01*
X62680484Y-49582793D01*
X62905820Y-49489456D01*
X62999157Y-49714792D01*
G37*
%TD.AperFunction*%
%TA.AperFunction,NonConductor*%
G36*
X63021805Y-47857424D02*
G01*
X63247141Y-47764087D01*
X63340479Y-47989424D01*
X63791152Y-47802749D01*
X63884489Y-48028085D01*
X63433816Y-48214760D01*
X63527154Y-48440097D01*
X63301818Y-48533434D01*
X63395155Y-48758770D01*
X63169818Y-48852108D01*
X63076481Y-48626772D01*
X62851145Y-48720109D01*
X62944482Y-48945445D01*
X63169818Y-48852108D01*
X63263155Y-49077444D01*
X63488492Y-48984106D01*
X63768505Y-49660116D01*
X63543168Y-49753454D01*
X63636505Y-49978790D01*
X63411169Y-50072127D01*
X63504507Y-50297464D01*
X63955180Y-50110790D01*
X64048517Y-50336126D01*
X64141854Y-50561463D01*
X64367191Y-50468125D01*
X64460528Y-50693461D01*
X63559182Y-51066811D01*
X63465844Y-50841475D01*
X63691181Y-50748137D01*
X63597844Y-50522800D01*
X62921834Y-50802813D01*
X62828496Y-50577477D01*
X62603160Y-50670814D01*
X62509823Y-50445477D01*
X62432499Y-50258802D01*
X62960496Y-50258802D01*
X63053833Y-50484139D01*
X63279170Y-50390802D01*
X63185832Y-50165465D01*
X62960496Y-50258802D01*
X62432499Y-50258802D01*
X62416485Y-50220141D01*
X61515139Y-50593491D01*
X61421802Y-50368154D01*
X61196466Y-50461491D01*
X61103128Y-50236155D01*
X61328464Y-50142818D01*
X61235127Y-49917481D01*
X61460464Y-49824143D01*
X61367127Y-49598807D01*
X61592463Y-49505470D01*
X61685800Y-49730806D01*
X61911137Y-49637468D01*
X62004475Y-49862805D01*
X61779138Y-49956143D01*
X61872475Y-50181479D01*
X62097812Y-50088141D01*
X62004475Y-49862805D01*
X62229811Y-49769468D01*
X62136473Y-49544131D01*
X61911137Y-49637468D01*
X61833814Y-49450794D01*
X62361809Y-49450794D01*
X62455147Y-49676131D01*
X62548484Y-49901467D01*
X62641822Y-50126804D01*
X63317832Y-49846791D01*
X63037819Y-49170781D01*
X62361809Y-49450794D01*
X61833814Y-49450794D01*
X61817800Y-49412132D01*
X61724462Y-49186796D01*
X61499125Y-49280134D01*
X61405788Y-49054797D01*
X61312451Y-48829461D01*
X61537788Y-48736123D01*
X61631125Y-48961459D01*
X61856461Y-48868122D01*
X61949798Y-49093459D01*
X62175135Y-49000122D01*
X62081797Y-48774785D01*
X62757807Y-48494772D01*
X62664470Y-48269436D01*
X62889806Y-48176099D01*
X62796468Y-47950762D01*
X62703131Y-47725426D01*
X62928468Y-47632088D01*
X63021805Y-47857424D01*
G37*
%TD.AperFunction*%
%TA.AperFunction,NonConductor*%
G36*
X60147107Y-49840158D02*
G01*
X60372443Y-49746821D01*
X60465780Y-49972157D01*
X60240444Y-50065494D01*
X60333782Y-50290830D01*
X60559118Y-50197493D01*
X60652455Y-50422830D01*
X60427119Y-50516167D01*
X60520457Y-50741503D01*
X60613794Y-50966840D01*
X60388457Y-51060178D01*
X60295120Y-50834841D01*
X60069784Y-50928178D01*
X59976446Y-50702842D01*
X59883109Y-50477505D01*
X59789771Y-50252169D01*
X60015107Y-50158832D01*
X59921770Y-49933496D01*
X59828433Y-49708159D01*
X60053770Y-49614821D01*
X60147107Y-49840158D01*
G37*
%TD.AperFunction*%
%TA.AperFunction,NonConductor*%
G36*
X57443069Y-50960208D02*
G01*
X57217733Y-51053545D01*
X57124395Y-50828208D01*
X57349731Y-50734871D01*
X57443069Y-50960208D01*
G37*
%TD.AperFunction*%
%TA.AperFunction,NonConductor*%
G36*
X59339098Y-50438844D02*
G01*
X59564434Y-50345507D01*
X59657772Y-50570843D01*
X59432436Y-50664180D01*
X59525773Y-50889517D01*
X59300436Y-50982855D01*
X59207099Y-50757518D01*
X58981763Y-50850855D01*
X58888425Y-50625519D01*
X59113761Y-50532182D01*
X59020424Y-50306846D01*
X59245761Y-50213508D01*
X59339098Y-50438844D01*
G37*
%TD.AperFunction*%
%TA.AperFunction,NonConductor*%
G36*
X61608477Y-50818827D02*
G01*
X61383141Y-50912164D01*
X61289803Y-50686828D01*
X61515139Y-50593491D01*
X61608477Y-50818827D01*
G37*
%TD.AperFunction*%
%TA.AperFunction,NonConductor*%
G36*
X62377824Y-50764151D02*
G01*
X62152487Y-50857489D01*
X62059150Y-50632152D01*
X62284487Y-50538814D01*
X62377824Y-50764151D01*
G37*
%TD.AperFunction*%
%TA.AperFunction,NonConductor*%
G36*
X54404343Y-50634900D02*
G01*
X54179007Y-50728237D01*
X54085669Y-50502901D01*
X54311006Y-50409564D01*
X54404343Y-50634900D01*
G37*
%TD.AperFunction*%
%TA.AperFunction,NonConductor*%
G36*
X58064402Y-49910848D02*
G01*
X58157740Y-50136185D01*
X58608413Y-49949510D01*
X58701750Y-50174846D01*
X58927086Y-50081509D01*
X59020424Y-50306846D01*
X58569751Y-50493520D01*
X58476413Y-50268183D01*
X57800404Y-50548196D01*
X57707067Y-50322860D01*
X57613729Y-50097523D01*
X57839066Y-50004185D01*
X57745729Y-49778849D01*
X57971065Y-49685512D01*
X58064402Y-49910848D01*
G37*
%TD.AperFunction*%
%TA.AperFunction,NonConductor*%
G36*
X64592528Y-50374788D02*
G01*
X64367191Y-50468125D01*
X64180516Y-50017452D01*
X64405853Y-49924115D01*
X64592528Y-50374788D01*
G37*
%TD.AperFunction*%
%TA.AperFunction,NonConductor*%
G36*
X54201654Y-48870870D02*
G01*
X54426991Y-48777532D01*
X54520328Y-49002868D01*
X54745664Y-48909531D01*
X54839002Y-49134868D01*
X54932339Y-49360204D01*
X54707003Y-49453541D01*
X54800341Y-49678878D01*
X54575004Y-49772216D01*
X54668341Y-49997552D01*
X54443005Y-50090889D01*
X54536343Y-50316226D01*
X54311006Y-50409564D01*
X54217668Y-50184227D01*
X54124331Y-49958891D01*
X54349668Y-49865553D01*
X54256330Y-49640216D01*
X54481666Y-49546879D01*
X54388329Y-49321543D01*
X54162993Y-49414880D01*
X54069655Y-49189543D01*
X53844318Y-49282881D01*
X53750981Y-49057545D01*
X53976318Y-48964207D01*
X53882980Y-48738870D01*
X54108316Y-48645533D01*
X54201654Y-48870870D01*
G37*
%TD.AperFunction*%
%TA.AperFunction,NonConductor*%
G36*
X61103128Y-50236155D02*
G01*
X60877791Y-50329493D01*
X60784454Y-50104156D01*
X61009791Y-50010818D01*
X61103128Y-50236155D01*
G37*
%TD.AperFunction*%
%TA.AperFunction,NonConductor*%
G36*
X54987016Y-50129551D02*
G01*
X54761679Y-50222889D01*
X54668341Y-49997552D01*
X54893678Y-49904214D01*
X54987016Y-50129551D01*
G37*
%TD.AperFunction*%
%TA.AperFunction,NonConductor*%
G36*
X60784454Y-50104156D02*
G01*
X60559118Y-50197493D01*
X60465780Y-49972157D01*
X60691117Y-49878820D01*
X60784454Y-50104156D01*
G37*
%TD.AperFunction*%
%TA.AperFunction,NonConductor*%
G36*
X64071164Y-48478758D02*
G01*
X63845828Y-48572095D01*
X63939165Y-48797432D01*
X64164501Y-48704094D01*
X64257839Y-48929431D01*
X64032503Y-49022769D01*
X64125840Y-49248105D01*
X64351176Y-49154767D01*
X64444514Y-49380104D01*
X64219178Y-49473442D01*
X64312515Y-49698778D01*
X64087178Y-49792115D01*
X64180516Y-50017452D01*
X63955180Y-50110790D01*
X63861842Y-49885453D01*
X63768505Y-49660116D01*
X63993841Y-49566779D01*
X63900503Y-49341442D01*
X63807166Y-49116106D01*
X63713828Y-48890769D01*
X63488492Y-48984106D01*
X63395155Y-48758770D01*
X63620491Y-48665433D01*
X63527154Y-48440097D01*
X63977827Y-48253422D01*
X64071164Y-48478758D01*
G37*
%TD.AperFunction*%
%TA.AperFunction,NonConductor*%
G36*
X59059086Y-49762835D02*
G01*
X59284422Y-49669498D01*
X59377759Y-49894834D01*
X58927086Y-50081509D01*
X58833749Y-49856173D01*
X58740412Y-49630836D01*
X58965749Y-49537498D01*
X59059086Y-49762835D01*
G37*
%TD.AperFunction*%
%TA.AperFunction,NonConductor*%
G36*
X54124331Y-49958891D02*
G01*
X53898995Y-50052228D01*
X53805657Y-49826891D01*
X54030993Y-49733554D01*
X54124331Y-49958891D01*
G37*
%TD.AperFunction*%
%TA.AperFunction,NonConductor*%
G36*
X60955115Y-49241472D02*
G01*
X61180452Y-49148134D01*
X61273789Y-49373471D01*
X61048452Y-49466809D01*
X61141790Y-49692145D01*
X61235127Y-49917481D01*
X61009791Y-50010818D01*
X60916454Y-49785482D01*
X60691117Y-49878820D01*
X60597779Y-49653484D01*
X60823116Y-49560146D01*
X60729779Y-49334809D01*
X60636441Y-49109473D01*
X60861777Y-49016136D01*
X60955115Y-49241472D01*
G37*
%TD.AperFunction*%
%TA.AperFunction,NonConductor*%
G36*
X64631189Y-49830777D02*
G01*
X64405853Y-49924115D01*
X64312515Y-49698778D01*
X64537851Y-49605440D01*
X64631189Y-49830777D01*
G37*
%TD.AperFunction*%
%TA.AperFunction,NonConductor*%
G36*
X54256330Y-49640216D02*
G01*
X54030993Y-49733554D01*
X53937656Y-49508218D01*
X54162993Y-49414880D01*
X54256330Y-49640216D01*
G37*
%TD.AperFunction*%
%TA.AperFunction,NonConductor*%
G36*
X58740412Y-49630836D02*
G01*
X58515075Y-49724173D01*
X58328401Y-49273500D01*
X58553737Y-49180162D01*
X58740412Y-49630836D01*
G37*
%TD.AperFunction*%
%TA.AperFunction,NonConductor*%
G36*
X55569687Y-49624202D02*
G01*
X55344351Y-49717540D01*
X55251014Y-49492204D01*
X55476350Y-49398866D01*
X55569687Y-49624202D01*
G37*
%TD.AperFunction*%
%TA.AperFunction,NonConductor*%
G36*
X58196401Y-49592174D02*
G01*
X57971065Y-49685512D01*
X57784390Y-49234839D01*
X58009726Y-49141501D01*
X58196401Y-49592174D01*
G37*
%TD.AperFunction*%
%TA.AperFunction,NonConductor*%
G36*
X59735095Y-49482823D02*
G01*
X59509759Y-49576160D01*
X59416422Y-49350823D01*
X59641758Y-49257486D01*
X59735095Y-49482823D01*
G37*
%TD.AperFunction*%
%TA.AperFunction,NonConductor*%
G36*
X59416422Y-49350823D02*
G01*
X59191085Y-49444161D01*
X59004410Y-48993488D01*
X59229747Y-48900150D01*
X59416422Y-49350823D01*
G37*
%TD.AperFunction*%
%TA.AperFunction,NonConductor*%
G36*
X57784390Y-49234839D02*
G01*
X57559054Y-49328176D01*
X57465717Y-49102840D01*
X57691053Y-49009502D01*
X57784390Y-49234839D01*
G37*
%TD.AperFunction*%
%TA.AperFunction,NonConductor*%
G36*
X60411104Y-49202811D02*
G01*
X60185768Y-49296148D01*
X60092431Y-49070811D01*
X60317767Y-48977474D01*
X60411104Y-49202811D01*
G37*
%TD.AperFunction*%
%TA.AperFunction,NonConductor*%
G36*
X55608349Y-49080192D02*
G01*
X55157676Y-49266867D01*
X55064339Y-49041530D01*
X55515012Y-48854856D01*
X55608349Y-49080192D01*
G37*
%TD.AperFunction*%
%TA.AperFunction,NonConductor*%
G36*
X59999093Y-48845475D02*
G01*
X59773757Y-48938812D01*
X59867095Y-49164148D01*
X59641758Y-49257486D01*
X59548420Y-49032150D01*
X59455083Y-48806813D01*
X59905756Y-48620138D01*
X59999093Y-48845475D01*
G37*
%TD.AperFunction*%
%TA.AperFunction,NonConductor*%
G36*
X53696306Y-48288198D02*
G01*
X53470969Y-48381536D01*
X53564306Y-48606872D01*
X53789643Y-48513534D01*
X53882980Y-48738870D01*
X53657643Y-48832208D01*
X53750981Y-49057545D01*
X53525645Y-49150882D01*
X53432307Y-48925545D01*
X53338970Y-48700209D01*
X53245633Y-48474873D01*
X53152295Y-48249536D01*
X53602968Y-48062861D01*
X53696306Y-48288198D01*
G37*
%TD.AperFunction*%
%TA.AperFunction,NonConductor*%
G36*
X59928403Y-46762770D02*
G01*
X60153740Y-46669433D01*
X60247078Y-46894770D01*
X59796405Y-47081445D01*
X59889742Y-47306781D01*
X59983079Y-47532118D01*
X59757742Y-47625455D01*
X59664405Y-47400118D01*
X59439069Y-47493456D01*
X59345732Y-47268120D01*
X58895058Y-47454794D01*
X58801721Y-47229457D01*
X58351048Y-47416132D01*
X58444385Y-47641469D01*
X58895058Y-47454794D01*
X58988396Y-47680131D01*
X59081733Y-47905468D01*
X58856397Y-47998805D01*
X58763060Y-47773468D01*
X58537723Y-47866805D01*
X58631060Y-48092142D01*
X58856397Y-47998805D01*
X58949735Y-48224141D01*
X59043072Y-48449478D01*
X58817735Y-48542815D01*
X58911072Y-48768152D01*
X59004410Y-48993488D01*
X58779074Y-49086825D01*
X58685736Y-48861489D01*
X58460399Y-48954826D01*
X58367062Y-48729490D01*
X58141726Y-48822828D01*
X58235063Y-49048164D01*
X58009726Y-49141501D01*
X57916389Y-48916165D01*
X57691053Y-49009502D01*
X57597715Y-48784165D01*
X58048388Y-48597491D01*
X57955051Y-48372155D01*
X58405724Y-48185480D01*
X58312387Y-47960143D01*
X58087050Y-48053480D01*
X57993712Y-47828144D01*
X57543039Y-48014819D01*
X57449702Y-47789482D01*
X58125712Y-47509470D01*
X58032374Y-47284134D01*
X59159057Y-46817447D01*
X59252394Y-47042783D01*
X59703067Y-46856108D01*
X59609730Y-46630772D01*
X59835066Y-46537434D01*
X59928403Y-46762770D01*
G37*
%TD.AperFunction*%
%TA.AperFunction,NonConductor*%
G36*
X61312451Y-48829461D02*
G01*
X60861777Y-49016136D01*
X60768440Y-48790799D01*
X61219113Y-48604124D01*
X61312451Y-48829461D01*
G37*
%TD.AperFunction*%
%TA.AperFunction,NonConductor*%
G36*
X60675103Y-48565463D02*
G01*
X60768440Y-48790799D01*
X60317767Y-48977474D01*
X60224430Y-48752138D01*
X60449767Y-48658800D01*
X60356429Y-48433463D01*
X60581765Y-48340126D01*
X60675103Y-48565463D01*
G37*
%TD.AperFunction*%
%TA.AperFunction,NonConductor*%
G36*
X62081797Y-48774785D02*
G01*
X61856461Y-48868122D01*
X61763124Y-48642786D01*
X61988460Y-48549449D01*
X62081797Y-48774785D01*
G37*
%TD.AperFunction*%
%TA.AperFunction,NonConductor*%
G36*
X55196337Y-48722856D02*
G01*
X54971001Y-48816193D01*
X54877664Y-48590857D01*
X55103000Y-48497520D01*
X55196337Y-48722856D01*
G37*
%TD.AperFunction*%
%TA.AperFunction,NonConductor*%
G36*
X54053641Y-47876186D02*
G01*
X54278977Y-47782849D01*
X54372315Y-48008186D01*
X54597652Y-47914848D01*
X54690989Y-48140184D01*
X54916325Y-48046847D01*
X55009662Y-48272183D01*
X54784326Y-48365520D01*
X54877664Y-48590857D01*
X54426991Y-48777532D01*
X54333653Y-48552195D01*
X54558989Y-48458858D01*
X54465652Y-48233522D01*
X54240316Y-48326859D01*
X54146979Y-48101523D01*
X53921642Y-48194861D01*
X53828304Y-47969524D01*
X53602968Y-48062861D01*
X53509631Y-47837525D01*
X53960304Y-47650850D01*
X54053641Y-47876186D01*
G37*
%TD.AperFunction*%
%TA.AperFunction,NonConductor*%
G36*
X62027122Y-48005438D02*
G01*
X61801785Y-48098776D01*
X61895122Y-48324112D01*
X61669786Y-48417449D01*
X61763124Y-48642786D01*
X61537788Y-48736123D01*
X61444450Y-48510786D01*
X61219113Y-48604124D01*
X61125776Y-48378788D01*
X60900440Y-48472125D01*
X60807102Y-48246788D01*
X61257775Y-48060113D01*
X61351113Y-48285450D01*
X61576449Y-48192113D01*
X61483111Y-47966776D01*
X61933784Y-47780101D01*
X62027122Y-48005438D01*
G37*
%TD.AperFunction*%
%TA.AperFunction,NonConductor*%
G36*
X62213797Y-48456111D02*
G01*
X61988460Y-48549449D01*
X61895122Y-48324112D01*
X62120459Y-48230774D01*
X62213797Y-48456111D01*
G37*
%TD.AperFunction*%
%TA.AperFunction,NonConductor*%
G36*
X56097683Y-48349506D02*
G01*
X55647010Y-48536181D01*
X55553673Y-48310845D01*
X56004346Y-48124170D01*
X56097683Y-48349506D01*
G37*
%TD.AperFunction*%
%TA.AperFunction,NonConductor*%
G36*
X54014979Y-48420197D02*
G01*
X53789643Y-48513534D01*
X53696306Y-48288198D01*
X53921642Y-48194861D01*
X54014979Y-48420197D01*
G37*
%TD.AperFunction*%
%TA.AperFunction,NonConductor*%
G36*
X60527090Y-47570779D02*
G01*
X60620427Y-47796116D01*
X60845763Y-47702779D01*
X60939101Y-47928115D01*
X60713765Y-48021452D01*
X60807102Y-48246788D01*
X60581765Y-48340126D01*
X60488428Y-48114790D01*
X60037755Y-48301464D01*
X59944417Y-48076128D01*
X59719081Y-48169466D01*
X59812419Y-48394802D01*
X59587082Y-48488139D01*
X59493745Y-48262803D01*
X59268408Y-48356141D01*
X59175071Y-48130804D01*
X59400408Y-48037466D01*
X59213733Y-47586793D01*
X59439069Y-47493456D01*
X59625744Y-47944129D01*
X60076417Y-47757454D01*
X59983079Y-47532118D01*
X60433753Y-47345443D01*
X60527090Y-47570779D01*
G37*
%TD.AperFunction*%
%TA.AperFunction,NonConductor*%
G36*
X57449702Y-47789482D02*
G01*
X57224366Y-47882819D01*
X57317703Y-48108156D01*
X57543039Y-48014819D01*
X57636377Y-48240155D01*
X57185704Y-48426830D01*
X57092367Y-48201494D01*
X56999030Y-47976157D01*
X56323019Y-48256169D01*
X56229682Y-48030833D01*
X56136345Y-47805496D01*
X56361682Y-47712158D01*
X56455019Y-47937495D01*
X57356364Y-47564146D01*
X57449702Y-47789482D01*
G37*
%TD.AperFunction*%
%TA.AperFunction,NonConductor*%
G36*
X55553673Y-48310845D02*
G01*
X55328337Y-48404183D01*
X55234999Y-48178846D01*
X55460335Y-48085508D01*
X55553673Y-48310845D01*
G37*
%TD.AperFunction*%
%TA.AperFunction,NonConductor*%
G36*
X62571132Y-48044099D02*
G01*
X62345795Y-48137437D01*
X62252458Y-47912101D01*
X62477795Y-47818763D01*
X62571132Y-48044099D01*
G37*
%TD.AperFunction*%
%TA.AperFunction,NonConductor*%
G36*
X61483111Y-47966776D02*
G01*
X61257775Y-48060113D01*
X61071100Y-47609441D01*
X61296437Y-47516104D01*
X61483111Y-47966776D01*
G37*
%TD.AperFunction*%
%TA.AperFunction,NonConductor*%
G36*
X55180323Y-47409499D02*
G01*
X55405659Y-47316162D01*
X55498997Y-47541499D01*
X55724334Y-47448161D01*
X55817671Y-47673497D01*
X55911009Y-47898833D01*
X55685672Y-47992171D01*
X55592334Y-47766835D01*
X55366998Y-47860172D01*
X55273661Y-47634836D01*
X55048325Y-47728173D01*
X54954987Y-47502836D01*
X54729650Y-47596174D01*
X54636313Y-47370838D01*
X55086986Y-47184163D01*
X55180323Y-47409499D01*
G37*
%TD.AperFunction*%
%TA.AperFunction,NonConductor*%
G36*
X54822988Y-47821511D02*
G01*
X54597652Y-47914848D01*
X54504314Y-47689511D01*
X54729650Y-47596174D01*
X54822988Y-47821511D01*
G37*
%TD.AperFunction*%
%TA.AperFunction,NonConductor*%
G36*
X61489744Y-44796051D02*
G01*
X61264408Y-44889389D01*
X61357746Y-45114726D01*
X61451083Y-45340062D01*
X61544420Y-45565398D01*
X61769756Y-45472061D01*
X61863094Y-45697398D01*
X61956431Y-45922734D01*
X62181768Y-45829396D01*
X62275106Y-46054733D01*
X62500442Y-45961396D01*
X62593779Y-46186732D01*
X62368443Y-46280069D01*
X62461781Y-46505406D01*
X62687117Y-46412069D01*
X62780454Y-46637405D01*
X62555118Y-46730742D01*
X62648456Y-46956079D01*
X62197783Y-47142754D01*
X62291120Y-47368090D01*
X62741793Y-47181415D01*
X62835130Y-47406751D01*
X62609793Y-47500089D01*
X62703131Y-47725426D01*
X62477795Y-47818763D01*
X62384457Y-47593426D01*
X61933784Y-47780101D01*
X61840447Y-47554765D01*
X62065783Y-47461428D01*
X61972446Y-47236092D01*
X61879108Y-47010755D01*
X62104445Y-46917417D01*
X62011108Y-46692081D01*
X61917770Y-46466744D01*
X61824433Y-46241408D01*
X61731095Y-46016071D01*
X61637758Y-45790735D01*
X61187085Y-45977410D01*
X61093747Y-45752073D01*
X61319083Y-45658735D01*
X61225746Y-45433399D01*
X61000410Y-45526737D01*
X60907073Y-45301401D01*
X61132409Y-45208063D01*
X61039071Y-44982726D01*
X60945734Y-44757390D01*
X61396407Y-44570715D01*
X61489744Y-44796051D01*
G37*
%TD.AperFunction*%
%TA.AperFunction,NonConductor*%
G36*
X54636313Y-47370838D02*
G01*
X54410977Y-47464175D01*
X54504314Y-47689511D01*
X54278977Y-47782849D01*
X54185640Y-47557513D01*
X54092302Y-47332176D01*
X54542975Y-47145501D01*
X54636313Y-47370838D01*
G37*
%TD.AperFunction*%
%TA.AperFunction,NonConductor*%
G36*
X63099129Y-46769404D02*
G01*
X63192466Y-46994740D01*
X63417802Y-46901403D01*
X63511139Y-47126739D01*
X63285803Y-47220076D01*
X63379141Y-47445413D01*
X63604477Y-47352076D01*
X63697814Y-47577412D01*
X63247141Y-47764087D01*
X63153804Y-47538751D01*
X63060466Y-47313414D01*
X62967129Y-47088078D01*
X62741793Y-47181415D01*
X62648456Y-46956079D01*
X62873792Y-46862742D01*
X62780454Y-46637405D01*
X63005791Y-46544067D01*
X63099129Y-46769404D01*
G37*
%TD.AperFunction*%
%TA.AperFunction,NonConductor*%
G36*
X59468349Y-42465364D02*
G01*
X59561686Y-42690700D01*
X59655024Y-42916037D01*
X59429688Y-43009374D01*
X59523025Y-43234710D01*
X59072352Y-43421385D01*
X58979015Y-43196049D01*
X59204352Y-43102711D01*
X59111014Y-42877374D01*
X58660341Y-43064049D01*
X58753679Y-43289386D01*
X58847016Y-43514722D01*
X59072352Y-43421385D01*
X59165690Y-43646722D01*
X58940354Y-43740059D01*
X59127029Y-44190732D01*
X58901692Y-44284070D01*
X58715017Y-43833397D01*
X58489681Y-43926734D01*
X58583018Y-44152070D01*
X58357681Y-44245408D01*
X58264344Y-44020072D01*
X58039008Y-44113409D01*
X58132345Y-44338745D01*
X58357681Y-44245408D01*
X58451019Y-44470745D01*
X57775009Y-44750757D01*
X57868347Y-44976093D01*
X58093684Y-44882755D01*
X58187021Y-45108092D01*
X58412357Y-45014754D01*
X58505695Y-45240091D01*
X58280359Y-45333429D01*
X58373696Y-45558765D01*
X58599032Y-45465427D01*
X58692370Y-45690764D01*
X58467034Y-45784102D01*
X58560371Y-46009438D01*
X58653708Y-46234775D01*
X58747046Y-46460111D01*
X58521709Y-46553448D01*
X58428371Y-46328112D01*
X57977698Y-46514787D01*
X57884361Y-46289450D01*
X58335034Y-46102775D01*
X58241697Y-45877439D01*
X58148359Y-45652102D01*
X58055022Y-45426766D01*
X57829686Y-45520103D01*
X57923023Y-45745439D01*
X57697686Y-45838777D01*
X57791023Y-46064114D01*
X57565687Y-46157451D01*
X57659025Y-46382787D01*
X57752362Y-46608124D01*
X57527025Y-46701462D01*
X57433688Y-46476125D01*
X57208352Y-46569462D01*
X57301689Y-46794799D01*
X57076352Y-46888137D01*
X57169690Y-47113473D01*
X57263027Y-47338809D01*
X56361682Y-47712158D01*
X56268344Y-47486822D01*
X56719017Y-47300148D01*
X56625680Y-47074811D01*
X56175007Y-47261486D01*
X56081669Y-47036149D01*
X55988332Y-46810813D01*
X56213668Y-46717476D01*
X56175006Y-46624138D01*
X56439005Y-46624138D01*
X56532342Y-46849474D01*
X56757679Y-46756137D01*
X56664341Y-46530801D01*
X56439005Y-46624138D01*
X56175006Y-46624138D01*
X56120331Y-46492139D01*
X56571004Y-46305464D01*
X56477666Y-46080128D01*
X56703002Y-45986791D01*
X56796340Y-46212127D01*
X57021677Y-46118789D01*
X57115014Y-46344126D01*
X57340350Y-46250789D01*
X57247013Y-46025452D01*
X57153676Y-45800116D01*
X56703002Y-45986791D01*
X56609665Y-45761454D01*
X56158993Y-45948128D01*
X56065655Y-45722792D01*
X55840318Y-45816130D01*
X55746981Y-45590794D01*
X55972318Y-45497456D01*
X55878981Y-45272119D01*
X56104317Y-45178782D01*
X56197654Y-45404119D01*
X56290992Y-45629455D01*
X56516328Y-45536118D01*
X56422990Y-45310782D01*
X56400342Y-45256105D01*
X57192338Y-45256105D01*
X57285675Y-45481441D01*
X57736348Y-45294766D01*
X57643011Y-45069430D01*
X57192338Y-45256105D01*
X56400342Y-45256105D01*
X56329653Y-45085445D01*
X56554990Y-44992107D01*
X56461652Y-44766771D01*
X56236315Y-44860109D01*
X56049641Y-44409436D01*
X56274978Y-44316098D01*
X56181640Y-44090761D01*
X55956303Y-44184099D01*
X55862966Y-43958763D01*
X56538976Y-43678750D01*
X56632313Y-43904086D01*
X56406976Y-43997424D01*
X56500314Y-44222761D01*
X56686988Y-44673434D01*
X56780326Y-44898770D01*
X56873663Y-45124107D01*
X57324336Y-44937432D01*
X57230999Y-44712095D01*
X57456336Y-44618757D01*
X57362999Y-44393421D01*
X57588335Y-44300084D01*
X57681672Y-44525420D01*
X57907009Y-44432082D01*
X57813672Y-44206746D01*
X57720334Y-43981409D01*
X57945670Y-43888072D01*
X57852333Y-43662736D01*
X58303006Y-43476061D01*
X58209668Y-43250724D01*
X57984331Y-43344062D01*
X57890994Y-43118726D01*
X58116331Y-43025388D01*
X58022993Y-42800051D01*
X58248329Y-42706714D01*
X58154992Y-42481378D01*
X58831002Y-42201365D01*
X58924339Y-42426701D01*
X58699002Y-42520039D01*
X58792340Y-42745376D01*
X59243013Y-42558701D01*
X59056338Y-42108028D01*
X59281674Y-42014691D01*
X59468349Y-42465364D01*
G37*
%TD.AperFunction*%
%TA.AperFunction,NonConductor*%
G36*
X53229618Y-47161515D02*
G01*
X53680291Y-46974840D01*
X53773629Y-47200177D01*
X53548292Y-47293515D01*
X53641629Y-47518851D01*
X53416293Y-47612188D01*
X53322956Y-47386852D01*
X52872283Y-47573527D01*
X52778945Y-47348190D01*
X53004281Y-47254853D01*
X52910944Y-47029517D01*
X53136281Y-46936179D01*
X53229618Y-47161515D01*
G37*
%TD.AperFunction*%
%TA.AperFunction,NonConductor*%
G36*
X56268344Y-47486822D02*
G01*
X56043007Y-47580160D01*
X55949670Y-47354824D01*
X56175007Y-47261486D01*
X56268344Y-47486822D01*
G37*
%TD.AperFunction*%
%TA.AperFunction,NonConductor*%
G36*
X60977763Y-47384104D02*
G01*
X60752426Y-47477442D01*
X60659089Y-47252106D01*
X60884426Y-47158768D01*
X60977763Y-47384104D01*
G37*
%TD.AperFunction*%
%TA.AperFunction,NonConductor*%
G36*
X54092302Y-47332176D02*
G01*
X53866966Y-47425513D01*
X53773629Y-47200177D01*
X53998965Y-47106840D01*
X54092302Y-47332176D01*
G37*
%TD.AperFunction*%
%TA.AperFunction,NonConductor*%
G36*
X58389710Y-46872122D02*
G01*
X57939037Y-47058797D01*
X58032374Y-47284134D01*
X57807037Y-47377471D01*
X57713700Y-47152134D01*
X57488364Y-47245471D01*
X57395027Y-47020135D01*
X58296373Y-46646786D01*
X58389710Y-46872122D01*
G37*
%TD.AperFunction*%
%TA.AperFunction,NonConductor*%
G36*
X60659089Y-47252106D02*
G01*
X60433753Y-47345443D01*
X60340415Y-47120106D01*
X60565751Y-47026769D01*
X60659089Y-47252106D01*
G37*
%TD.AperFunction*%
%TA.AperFunction,NonConductor*%
G36*
X55241633Y-45008121D02*
G01*
X55016296Y-45101459D01*
X55109633Y-45326796D01*
X54884297Y-45420133D01*
X54977634Y-45645469D01*
X55070972Y-45870806D01*
X55296308Y-45777469D01*
X55389645Y-46002805D01*
X55840318Y-45816130D01*
X55933656Y-46041466D01*
X56026993Y-46266803D01*
X55801657Y-46360140D01*
X55894995Y-46585476D01*
X55444321Y-46772151D01*
X55537659Y-46997488D01*
X55630996Y-47222824D01*
X55405659Y-47316162D01*
X55312322Y-47090826D01*
X55086986Y-47184163D01*
X54993648Y-46958826D01*
X55218984Y-46865489D01*
X55125647Y-46640153D01*
X55032310Y-46414816D01*
X55257647Y-46321478D01*
X55164309Y-46096142D01*
X54488300Y-46376154D01*
X54394963Y-46150818D01*
X54301625Y-45925481D01*
X54114950Y-45474808D01*
X54340287Y-45381471D01*
X54526961Y-45832144D01*
X54752297Y-45738807D01*
X54658960Y-45513471D01*
X54565623Y-45288134D01*
X54790960Y-45194796D01*
X54697622Y-44969460D01*
X55148295Y-44782785D01*
X55241633Y-45008121D01*
G37*
%TD.AperFunction*%
%TA.AperFunction,NonConductor*%
G36*
X61879108Y-47010755D02*
G01*
X61428435Y-47197429D01*
X61241760Y-46746756D01*
X61692433Y-46560082D01*
X61879108Y-47010755D01*
G37*
%TD.AperFunction*%
%TA.AperFunction,NonConductor*%
G36*
X61109762Y-47065431D02*
G01*
X60884426Y-47158768D01*
X60791088Y-46933431D01*
X61016424Y-46840094D01*
X61109762Y-47065431D01*
G37*
%TD.AperFunction*%
%TA.AperFunction,NonConductor*%
G36*
X54993648Y-46958826D02*
G01*
X54768312Y-47052163D01*
X54674975Y-46826827D01*
X54900311Y-46733490D01*
X54993648Y-46958826D01*
G37*
%TD.AperFunction*%
%TA.AperFunction,NonConductor*%
G36*
X60791088Y-46933431D02*
G01*
X60565751Y-47026769D01*
X60472414Y-46801433D01*
X60697751Y-46708095D01*
X60791088Y-46933431D01*
G37*
%TD.AperFunction*%
%TA.AperFunction,NonConductor*%
G36*
X54581637Y-46601490D02*
G01*
X54674975Y-46826827D01*
X54224302Y-47013502D01*
X54130964Y-46788165D01*
X54356300Y-46694828D01*
X54262963Y-46469492D01*
X54488300Y-46376154D01*
X54581637Y-46601490D01*
G37*
%TD.AperFunction*%
%TA.AperFunction,NonConductor*%
G36*
X53812290Y-46656167D02*
G01*
X54037627Y-46562829D01*
X54130964Y-46788165D01*
X53680291Y-46974840D01*
X53586954Y-46749504D01*
X53136281Y-46936179D01*
X53042944Y-46710843D01*
X53718953Y-46430831D01*
X53812290Y-46656167D01*
G37*
%TD.AperFunction*%
%TA.AperFunction,NonConductor*%
G36*
X61093747Y-45752073D02*
G01*
X60868410Y-45845410D01*
X61055085Y-46296083D01*
X61505758Y-46109408D01*
X61599096Y-46334745D01*
X61148423Y-46521420D01*
X61241760Y-46746756D01*
X61016424Y-46840094D01*
X60923087Y-46614758D01*
X60829749Y-46389421D01*
X60643074Y-45938748D01*
X60549737Y-45713412D01*
X61000410Y-45526737D01*
X61093747Y-45752073D01*
G37*
%TD.AperFunction*%
%TA.AperFunction,NonConductor*%
G36*
X59423055Y-46180099D02*
G01*
X59516392Y-46405435D01*
X59609730Y-46630772D01*
X59384393Y-46724109D01*
X59291055Y-46498772D01*
X58840383Y-46685447D01*
X58747046Y-46460111D01*
X59197718Y-46273436D01*
X59104381Y-46048100D01*
X59329718Y-45954762D01*
X59423055Y-46180099D01*
G37*
%TD.AperFunction*%
%TA.AperFunction,NonConductor*%
G36*
X53438940Y-45754821D02*
G01*
X52762931Y-46034833D01*
X52482919Y-45358824D01*
X53158928Y-45078812D01*
X53438940Y-45754821D01*
G37*
%TD.AperFunction*%
%TA.AperFunction,NonConductor*%
G36*
X53516264Y-44666800D02*
G01*
X53982951Y-45793483D01*
X54076288Y-46018819D01*
X52498933Y-46672181D01*
X52405596Y-46446845D01*
X51938908Y-45320162D01*
X51900246Y-45226824D01*
X52164244Y-45226824D01*
X52630932Y-46353507D01*
X53757615Y-45886820D01*
X53290928Y-44760137D01*
X52164244Y-45226824D01*
X51900246Y-45226824D01*
X51845571Y-45094825D01*
X53422926Y-44441464D01*
X53516264Y-44666800D01*
G37*
%TD.AperFunction*%
%TA.AperFunction,NonConductor*%
G36*
X60604413Y-46482758D02*
G01*
X60379076Y-46576096D01*
X60192401Y-46125422D01*
X60417738Y-46032085D01*
X60604413Y-46482758D01*
G37*
%TD.AperFunction*%
%TA.AperFunction,NonConductor*%
G36*
X54262963Y-46469492D02*
G01*
X54037627Y-46562829D01*
X53944290Y-46337493D01*
X54169626Y-46244156D01*
X54262963Y-46469492D01*
G37*
%TD.AperFunction*%
%TA.AperFunction,NonConductor*%
G36*
X60060403Y-46444097D02*
G01*
X59835066Y-46537434D01*
X59741728Y-46312097D01*
X59967065Y-46218760D01*
X60060403Y-46444097D01*
G37*
%TD.AperFunction*%
%TA.AperFunction,NonConductor*%
G36*
X62951115Y-45774721D02*
G01*
X63044452Y-46000057D01*
X63137790Y-46225394D01*
X62687117Y-46412069D01*
X62593779Y-46186732D01*
X62819116Y-46093394D01*
X62725779Y-45868058D01*
X62500442Y-45961396D01*
X62407104Y-45736059D01*
X62857777Y-45549384D01*
X62951115Y-45774721D01*
G37*
%TD.AperFunction*%
%TA.AperFunction,NonConductor*%
G36*
X60192401Y-46125422D02*
G01*
X59967065Y-46218760D01*
X59873728Y-45993424D01*
X60099064Y-45900086D01*
X60192401Y-46125422D01*
G37*
%TD.AperFunction*%
%TA.AperFunction,NonConductor*%
G36*
X59104381Y-46048100D02*
G01*
X58879044Y-46141437D01*
X58692370Y-45690764D01*
X58917706Y-45597427D01*
X59104381Y-46048100D01*
G37*
%TD.AperFunction*%
%TA.AperFunction,NonConductor*%
G36*
X59873728Y-45993424D02*
G01*
X59648391Y-46086761D01*
X59555054Y-45861425D01*
X59780391Y-45768088D01*
X59873728Y-45993424D01*
G37*
%TD.AperFunction*%
%TA.AperFunction,NonConductor*%
G36*
X55428308Y-45458794D02*
G01*
X55653644Y-45365457D01*
X55746981Y-45590794D01*
X55296308Y-45777469D01*
X55202971Y-45552132D01*
X55109633Y-45326796D01*
X55334970Y-45233458D01*
X55428308Y-45458794D01*
G37*
%TD.AperFunction*%
%TA.AperFunction,NonConductor*%
G36*
X59313703Y-44641404D02*
G01*
X59407041Y-44866741D01*
X59500378Y-45092078D01*
X59275041Y-45185415D01*
X59368379Y-45410752D01*
X59593716Y-45317415D01*
X59500378Y-45092078D01*
X59725714Y-44998740D01*
X59819052Y-45224077D01*
X60044389Y-45130740D01*
X60137726Y-45356076D01*
X59236380Y-45729425D01*
X59143043Y-45504089D01*
X59049705Y-45278752D01*
X58599032Y-45465427D01*
X58505695Y-45240091D01*
X58731031Y-45146754D01*
X58637693Y-44921417D01*
X58412357Y-45014754D01*
X58319020Y-44789418D01*
X58769693Y-44602743D01*
X58863030Y-44828079D01*
X59088366Y-44734742D01*
X58995029Y-44509406D01*
X59220366Y-44416068D01*
X59313703Y-44641404D01*
G37*
%TD.AperFunction*%
%TA.AperFunction,NonConductor*%
G36*
X62764440Y-45324048D02*
G01*
X62313767Y-45510723D01*
X62220429Y-45285386D01*
X62671103Y-45098711D01*
X62764440Y-45324048D01*
G37*
%TD.AperFunction*%
%TA.AperFunction,NonConductor*%
G36*
X60813735Y-45076064D02*
G01*
X60907073Y-45301401D01*
X60456400Y-45488075D01*
X60363062Y-45262738D01*
X60588398Y-45169401D01*
X60495061Y-44944065D01*
X60720398Y-44850728D01*
X60813735Y-45076064D01*
G37*
%TD.AperFunction*%
%TA.AperFunction,NonConductor*%
G36*
X54565623Y-45288134D02*
G01*
X54340287Y-45381471D01*
X54153612Y-44930798D01*
X54378948Y-44837461D01*
X54565623Y-45288134D01*
G37*
%TD.AperFunction*%
%TA.AperFunction,NonConductor*%
G36*
X62220429Y-45285386D02*
G01*
X61995093Y-45378723D01*
X61901756Y-45153387D01*
X62127092Y-45060050D01*
X62220429Y-45285386D01*
G37*
%TD.AperFunction*%
%TA.AperFunction,NonConductor*%
G36*
X55692306Y-44821446D02*
G01*
X55917642Y-44728109D01*
X56010979Y-44953446D01*
X55785643Y-45046783D01*
X55878981Y-45272119D01*
X55653644Y-45365457D01*
X55560306Y-45140121D01*
X55334970Y-45233458D01*
X55241633Y-45008121D01*
X55466969Y-44914784D01*
X55373631Y-44689448D01*
X55598968Y-44596110D01*
X55692306Y-44821446D01*
G37*
%TD.AperFunction*%
%TA.AperFunction,NonConductor*%
G36*
X62033755Y-44834714D02*
G01*
X61808419Y-44928051D01*
X61901756Y-45153387D01*
X61676419Y-45246724D01*
X61583082Y-45021388D01*
X61489744Y-44796051D01*
X61940417Y-44609377D01*
X62033755Y-44834714D01*
G37*
%TD.AperFunction*%
%TA.AperFunction,NonConductor*%
G36*
X56329653Y-45085445D02*
G01*
X56104317Y-45178782D01*
X56010979Y-44953446D01*
X56236315Y-44860109D01*
X56329653Y-45085445D01*
G37*
%TD.AperFunction*%
%TA.AperFunction,NonConductor*%
G36*
X60797721Y-43762707D02*
G01*
X61023057Y-43669369D01*
X61116394Y-43894705D01*
X60891058Y-43988043D01*
X60984396Y-44213380D01*
X60759059Y-44306717D01*
X60852396Y-44532053D01*
X60945734Y-44757390D01*
X60720398Y-44850728D01*
X60627060Y-44625391D01*
X60401723Y-44718728D01*
X60495061Y-44944065D01*
X60044389Y-45130740D01*
X59951051Y-44905403D01*
X59857714Y-44680067D01*
X60083050Y-44586729D01*
X59989712Y-44361392D01*
X59764376Y-44454730D01*
X59857714Y-44680067D01*
X59632377Y-44773404D01*
X59539039Y-44548067D01*
X59445702Y-44322731D01*
X59577702Y-44268055D01*
X60215048Y-44268055D01*
X60308386Y-44493392D01*
X60533723Y-44400054D01*
X60440385Y-44174717D01*
X60215048Y-44268055D01*
X59577702Y-44268055D01*
X60121711Y-44042719D01*
X60028374Y-43817383D01*
X60704384Y-43537370D01*
X60797721Y-43762707D01*
G37*
%TD.AperFunction*%
%TA.AperFunction,NonConductor*%
G36*
X53966937Y-44480125D02*
G01*
X54417610Y-44293450D01*
X54510947Y-44518787D01*
X54604285Y-44744123D01*
X54378948Y-44837461D01*
X54285610Y-44612124D01*
X54060274Y-44705462D01*
X54153612Y-44930798D01*
X53928276Y-45024135D01*
X53834938Y-44798799D01*
X53741601Y-44573462D01*
X53648263Y-44348126D01*
X53873599Y-44254789D01*
X53966937Y-44480125D01*
G37*
%TD.AperFunction*%
%TA.AperFunction,NonConductor*%
G36*
X57230999Y-44712095D02*
G01*
X57005663Y-44805432D01*
X56912325Y-44580096D01*
X57137662Y-44486759D01*
X57230999Y-44712095D01*
G37*
%TD.AperFunction*%
%TA.AperFunction,NonConductor*%
G36*
X61528406Y-44252041D02*
G01*
X61753742Y-44158703D01*
X61847080Y-44384040D01*
X61396407Y-44570715D01*
X61303069Y-44345378D01*
X61077733Y-44438716D01*
X60984396Y-44213380D01*
X61435069Y-44026705D01*
X61528406Y-44252041D01*
G37*
%TD.AperFunction*%
%TA.AperFunction,NonConductor*%
G36*
X55505631Y-44370773D02*
G01*
X55054958Y-44557448D01*
X54961620Y-44332112D01*
X55412294Y-44145437D01*
X55505631Y-44370773D01*
G37*
%TD.AperFunction*%
%TA.AperFunction,NonConductor*%
G36*
X62204415Y-43972029D02*
G01*
X62391090Y-44422702D01*
X62165754Y-44516039D01*
X61979079Y-44065366D01*
X61753742Y-44158703D01*
X61660405Y-43933367D01*
X62111078Y-43746693D01*
X62204415Y-43972029D01*
G37*
%TD.AperFunction*%
%TA.AperFunction,NonConductor*%
G36*
X56049641Y-44409436D02*
G01*
X55824304Y-44502773D01*
X55730967Y-44277436D01*
X55956303Y-44184099D01*
X56049641Y-44409436D01*
G37*
%TD.AperFunction*%
%TA.AperFunction,NonConductor*%
G36*
X59445702Y-44322731D02*
G01*
X59220366Y-44416068D01*
X59127029Y-44190732D01*
X59352365Y-44097395D01*
X59445702Y-44322731D01*
G37*
%TD.AperFunction*%
%TA.AperFunction,NonConductor*%
G36*
X56950987Y-44036086D02*
G01*
X57176324Y-43942748D01*
X57269661Y-44168084D01*
X56818988Y-44354759D01*
X56725651Y-44129423D01*
X56632313Y-43904086D01*
X56857649Y-43810749D01*
X56950987Y-44036086D01*
G37*
%TD.AperFunction*%
%TA.AperFunction,NonConductor*%
G36*
X54868283Y-44106775D02*
G01*
X54417610Y-44293450D01*
X54324273Y-44068114D01*
X54774946Y-43881439D01*
X54868283Y-44106775D01*
G37*
%TD.AperFunction*%
%TA.AperFunction,NonConductor*%
G36*
X57121647Y-43173401D02*
G01*
X57214985Y-43398738D01*
X57308322Y-43624074D01*
X57533659Y-43530736D01*
X57440322Y-43305400D01*
X57665658Y-43212063D01*
X57758995Y-43437399D01*
X57852333Y-43662736D01*
X57626997Y-43756073D01*
X57720334Y-43981409D01*
X57494997Y-44074747D01*
X57401660Y-43849411D01*
X57176324Y-43942748D01*
X57082986Y-43717411D01*
X56989649Y-43492075D01*
X56538976Y-43678750D01*
X56445638Y-43453413D01*
X56896311Y-43266738D01*
X56802974Y-43041402D01*
X57028310Y-42948065D01*
X57121647Y-43173401D01*
G37*
%TD.AperFunction*%
%TA.AperFunction,NonConductor*%
G36*
X55769628Y-43733426D02*
G01*
X55093619Y-44013438D01*
X55000282Y-43788102D01*
X55676291Y-43508089D01*
X55769628Y-43733426D01*
G37*
%TD.AperFunction*%
%TA.AperFunction,NonConductor*%
G36*
X59935036Y-43592046D02*
G01*
X60028374Y-43817383D01*
X59577702Y-44004057D01*
X59484364Y-43778720D01*
X59709700Y-43685383D01*
X59523025Y-43234710D01*
X59748361Y-43141373D01*
X59935036Y-43592046D01*
G37*
%TD.AperFunction*%
%TA.AperFunction,NonConductor*%
G36*
X59484364Y-43778720D02*
G01*
X59259027Y-43872058D01*
X59165690Y-43646722D01*
X59391027Y-43553384D01*
X59484364Y-43778720D01*
G37*
%TD.AperFunction*%
%TA.AperFunction,NonConductor*%
G36*
X62017741Y-43521356D02*
G01*
X61341731Y-43801368D01*
X61155057Y-43350696D01*
X61831066Y-43070683D01*
X62017741Y-43521356D01*
G37*
%TD.AperFunction*%
%TA.AperFunction,NonConductor*%
G36*
X61100380Y-42581348D02*
G01*
X60424371Y-42861360D01*
X60144359Y-42185351D01*
X60820368Y-41905339D01*
X61100380Y-42581348D01*
G37*
%TD.AperFunction*%
%TA.AperFunction,NonConductor*%
G36*
X61177704Y-41493327D02*
G01*
X61644391Y-42620010D01*
X61737728Y-42845346D01*
X60160373Y-43498708D01*
X60067036Y-43273372D01*
X59600349Y-42146689D01*
X59561687Y-42053352D01*
X59825685Y-42053352D01*
X60292372Y-43180035D01*
X61419055Y-42713348D01*
X60952368Y-41586664D01*
X59825685Y-42053352D01*
X59561687Y-42053352D01*
X59507011Y-41921353D01*
X61084367Y-41267991D01*
X61177704Y-41493327D01*
G37*
%TD.AperFunction*%
%TA.AperFunction,NonConductor*%
G36*
X57572320Y-42986726D02*
G01*
X57346984Y-43080063D01*
X57253647Y-42854727D01*
X57478983Y-42761390D01*
X57572320Y-42986726D01*
G37*
%TD.AperFunction*%
%TA.AperFunction,NonConductor*%
G36*
X58022993Y-42800051D02*
G01*
X57797656Y-42893389D01*
X57704319Y-42668053D01*
X57929656Y-42574715D01*
X58022993Y-42800051D01*
G37*
%TD.AperFunction*%
D13*
%TO.P,TP3,1,1_1*%
%TO.N,/HBRIDG_ALL_FAULT*%
X222962098Y-39521863D03*
%TD*%
D14*
%TO.P,J1,A1,GND_A1*%
%TO.N,GND*%
X252756523Y-142282006D03*
%TO.P,J1,A4,VBUS_A4*%
%TO.N,/USB Power Circuit/USB_VBUS*%
X253318673Y-141712785D03*
D15*
%TO.P,J1,A5,CC1_A5*%
%TO.N,Net-(J1-CC1)*%
X254188414Y-140956181D03*
%TO.P,J1,A6,D+1_A6*%
%TO.N,Net-(J1-D+1)*%
X254895521Y-140249074D03*
%TO.P,J1,A7,D-1_A7*%
%TO.N,Net-(J1-D-1)*%
X255249074Y-139895521D03*
%TO.P,J1,A8,SBU1_A8*%
%TO.N,unconnected-(J1-SBU1-PadA8)*%
X255956181Y-139188414D03*
D14*
%TO.P,J1,A9,VBUS1_A9*%
%TO.N,/USB Power Circuit/USB_VBUS*%
X256712785Y-138318673D03*
%TO.P,J1,A12,GND1_A12*%
%TO.N,GND*%
X257278470Y-137752987D03*
D16*
%TO.P,J1,B1,GND3_B1*%
X257172404Y-137859053D03*
%TO.P,J1,B4,VBUS3_B4*%
%TO.N,/USB Power Circuit/USB_VBUS*%
X256606719Y-138424739D03*
D15*
%TO.P,J1,B5,CC2_B5*%
%TO.N,Net-(J1-CC2)*%
X256309734Y-138834860D03*
%TO.P,J1,B6,D+2_B6*%
%TO.N,Net-(J1-D+1)*%
X255602627Y-139541967D03*
%TO.P,J1,B7,D-2_B7*%
%TO.N,Net-(J1-D-1)*%
X254541967Y-140602627D03*
%TO.P,J1,B8,SBU2_B8*%
%TO.N,unconnected-(J1-SBU2-PadB8)*%
X253834860Y-141309734D03*
D16*
%TO.P,J1,B9,VBUS2_B9*%
%TO.N,/USB Power Circuit/USB_VBUS*%
X253424739Y-141606719D03*
%TO.P,J1,B12,GND2_B12*%
%TO.N,GND*%
X252862592Y-142175944D03*
D17*
%TO.P,J1,S1*%
X252417111Y-143526514D03*
%TO.P,J1,S2*%
X258526514Y-137417111D03*
D18*
%TO.P,J1,S3*%
X255372818Y-146482220D03*
%TO.P,J1,S4*%
X261482220Y-140372818D03*
%TD*%
D13*
%TO.P,TP8,1,1_1*%
%TO.N,/HBRIDGE_B_PWM*%
X275478137Y-92037902D03*
%TD*%
D19*
%TO.P,BOOT1,1,1_1*%
%TO.N,/BOOT*%
X183932549Y-145860404D03*
%TO.P,BOOT1,2,2_2*%
%TO.N,GND*%
X181682549Y-149757518D03*
%TO.P,BOOT1,3,3_3*%
%TO.N,/BOOT*%
X190817451Y-149835404D03*
%TO.P,BOOT1,4,4_4*%
%TO.N,GND*%
X188567451Y-153732518D03*
%TD*%
D13*
%TO.P,TP11,1,1_1*%
%TO.N,/HBRIDGE_D_PWM*%
X156078525Y-115787962D03*
%TD*%
%TO.P,TP10,1,1_1*%
%TO.N,/HBRIDGE_B_ISENSE*%
X271356651Y-76656311D03*
%TD*%
%TO.P,TP15,1,1_1*%
%TO.N,/HBRIDGE_C_DIR*%
X199212038Y-41078525D03*
%TD*%
%TO.P,TP4,1,1_1*%
%TO.N,/Electromagnet Driver/PMODE*%
X230787962Y-41078525D03*
%TD*%
D20*
%TO.P,J7,1,1_1*%
%TO.N,/EM_A_N*%
X180178527Y-51708142D03*
D21*
%TO.P,J7,2,2_2*%
%TO.N,/EM_A_P*%
X181076553Y-54402219D03*
%TO.P,J7,3,3_3*%
%TO.N,/EM_A_N*%
X178382476Y-53504193D03*
%TO.P,J7,4,4_4*%
%TO.N,/EM_A_P*%
X179280501Y-56198270D03*
%TO.P,J7,5,5_5*%
%TO.N,/EM_B_N*%
X176586425Y-55300244D03*
%TO.P,J7,6,6_6*%
%TO.N,/EM_B_P*%
X177484450Y-57994321D03*
%TO.P,J7,7,7_7*%
%TO.N,/EM_B_N*%
X174790373Y-57096296D03*
%TO.P,J7,8,8_8*%
%TO.N,/EM_B_P*%
X175688399Y-59790373D03*
%TO.P,J7,9,9_9*%
%TO.N,/EM_C_N*%
X172994322Y-58892347D03*
%TO.P,J7,10,10_10*%
%TO.N,/EM_C_P*%
X173892348Y-61586424D03*
%TO.P,J7,11,11_11*%
%TO.N,/EM_C_N*%
X171198271Y-60688398D03*
%TO.P,J7,12,12_12*%
%TO.N,/EM_C_P*%
X172096296Y-63382475D03*
%TO.P,J7,13,13_13*%
%TO.N,/EM_D_N*%
X169402220Y-62484449D03*
%TO.P,J7,14,14_14*%
%TO.N,/EM_D_P*%
X170300245Y-65178526D03*
%TO.P,J7,15,15_15*%
%TO.N,/EM_D_N*%
X167606168Y-64280501D03*
%TO.P,J7,16,16_16*%
%TO.N,/EM_D_P*%
X168504194Y-66974577D03*
%TD*%
D13*
%TO.P,TP5,1,1_1*%
%TO.N,/HBRIDGE_A_PWM*%
X250854900Y-50649963D03*
%TD*%
D22*
%TO.P,J2,1*%
%TO.N,GND*%
X267453377Y-123621086D03*
%TO.P,J2,2*%
%TO.N,Net-(J2-Pad2)*%
X268792769Y-120387508D03*
%TD*%
D13*
%TO.P,TP14,1,1_1*%
%TO.N,/HBRIDGE_C_PWM*%
X207037902Y-39521863D03*
%TD*%
%TO.P,TP2,1,1_1*%
%TO.N,/BOOT*%
X173788997Y-144973918D03*
%TD*%
D23*
%TO.P,J3,1,1_1*%
%TO.N,unconnected-(J3-Pad1)*%
X271339933Y-108601041D03*
D24*
%TO.P,J3,2,2_2*%
%TO.N,unconnected-(J3-Pad2)*%
X273831128Y-109096570D03*
%TO.P,J3,3,3_3*%
%TO.N,+5VP*%
X270844404Y-111092236D03*
%TO.P,J3,4,4_4*%
%TO.N,+V_HB*%
X273335599Y-111587765D03*
%TO.P,J3,5,5_5*%
%TO.N,Net-(J2-Pad2)*%
X270348876Y-113583430D03*
%TO.P,J3,6,6_6*%
%TO.N,+V_HB*%
X272840068Y-114078960D03*
%TD*%
D13*
%TO.P,TP16,1,1_1*%
%TO.N,/HBRIDGE_C_ISENSE*%
X191656311Y-43643349D03*
%TD*%
%TO.P,TP1,1,1_1*%
%TO.N,/CHIP_EN*%
X168271289Y-139210044D03*
%TD*%
D25*
%TO.P,I2C1,1,1_1*%
%TO.N,/I2C_SCL*%
X266066461Y-73449705D03*
D24*
%TO.P,I2C1,2,2_2*%
%TO.N,/I2C_SDA*%
X264796461Y-71250000D03*
%TO.P,I2C1,3,3_3*%
%TO.N,/I2C_INT*%
X263526461Y-69050296D03*
%TD*%
D13*
%TO.P,TP12,1,1_1*%
%TO.N,/HBRIDGE_D_DIR*%
X154521863Y-107962098D03*
%TD*%
D26*
%TO.P,Status_LED_TX1,1,-_1*%
%TO.N,GND*%
X241414702Y-150825281D03*
%TO.P,Status_LED_TX1,2,+_2*%
%TO.N,Net-(Status_LED_TX1-+)*%
X242985298Y-150174719D03*
%TD*%
D13*
%TO.P,TP6,1,1_1*%
%TO.N,/HBRIDGE_A_DIR*%
X244573387Y-46648198D03*
%TD*%
%TO.P,TP7,1,1_1*%
%TO.N,/HBRIDGE_A_ISENSE*%
X247775276Y-48553122D03*
%TD*%
D27*
%TO.P,J4,1,1_1*%
%TO.N,Net-(J4-Pad1)*%
X239635648Y-156157046D03*
D24*
%TO.P,J4,2,2_2*%
%TO.N,Net-(U2-U0RXD{slash}GPIO20)*%
X237288994Y-157129062D03*
%TO.P,J4,3,3_3*%
%TO.N,/RXD*%
X238663632Y-153810392D03*
%TO.P,J4,4,4_4*%
%TO.N,Net-(U2-U0RXD{slash}GPIO20)*%
X236316978Y-154782408D03*
%TO.P,J4,5,5_5*%
%TO.N,Net-(J4-Pad5)*%
X237691616Y-151463738D03*
%TO.P,J4,6,6_6*%
%TO.N,Net-(U2-U0TXD{slash}GPIO21)*%
X235344962Y-152435754D03*
%TO.P,J4,7,7_7*%
%TO.N,/TXD*%
X236719600Y-149117084D03*
%TO.P,J4,8,8_8*%
%TO.N,Net-(U2-U0TXD{slash}GPIO21)*%
X234372946Y-150089100D03*
%TD*%
D13*
%TO.P,TP9,1,1_1*%
%TO.N,/HBRIDGE_B_DIR*%
X273921475Y-84212038D03*
%TD*%
%TO.P,TP13,1,1_1*%
%TO.N,/HBRIDGE_D_ISENSE*%
X158643349Y-123343689D03*
%TD*%
D28*
%TO.P,U4,1,SCL_1*%
%TO.N,/I2C_SCL*%
X78745000Y-99050000D03*
%TO.P,U4,2,GND_2*%
%TO.N,GND*%
X78745000Y-100000000D03*
%TO.P,U4,3,TEST_3*%
X78745000Y-100950000D03*
%TO.P,U4,4,VCC_4*%
%TO.N,+3.3V*%
X81255000Y-100950000D03*
%TO.P,U4,5,~{INT}_5*%
%TO.N,/I2C_INT*%
X81255000Y-100000000D03*
%TO.P,U4,6,SDA_6*%
%TO.N,/I2C_SDA*%
X81255000Y-99050000D03*
%TD*%
D29*
%TO.P,RESET1,1,1_1*%
%TO.N,/CHIP_EN*%
X165164596Y-124182549D03*
%TO.P,RESET1,2,2_2*%
%TO.N,GND*%
X161267482Y-126432549D03*
%TO.P,RESET1,3,3_3*%
%TO.N,/CHIP_EN*%
X169139596Y-131067451D03*
%TO.P,RESET1,4,4_4*%
%TO.N,GND*%
X165242482Y-133317451D03*
%TD*%
D30*
%TO.P,UART1,1,1_1*%
%TO.N,/TXD*%
X227463291Y-156147389D03*
D24*
%TO.P,UART1,2,2_2*%
%TO.N,/RXD*%
X224972096Y-156642918D03*
%TD*%
D31*
%TO.P,POWER_LED2,1,-_1*%
%TO.N,GND*%
X264300000Y-140880000D03*
%TO.P,POWER_LED2,2,+_2*%
%TO.N,Net-(POWER_LED2-+)*%
X263097918Y-139677918D03*
%TD*%
D32*
%TO.P,J6,1,1_1*%
%TO.N,unconnected-(J6-Pad1)*%
X239329304Y-47796680D03*
D24*
%TO.P,J6,2,2_2*%
%TO.N,/Electromagnet Driver/PMODE*%
X238357288Y-50143334D03*
%TO.P,J6,3,3_3*%
%TO.N,+3.3V*%
X236982650Y-46824664D03*
%TO.P,J6,4,4_4*%
%TO.N,/Electromagnet Driver/PMODE*%
X236010634Y-49171318D03*
%TO.P,J6,5,5_5*%
%TO.N,GND*%
X234635996Y-45852648D03*
%TO.P,J6,6,6_6*%
%TO.N,/Electromagnet Driver/PMODE*%
X233663980Y-48199302D03*
%TD*%
D33*
%TO.P,J11,1,1_1*%
%TO.N,/I2C_SCL*%
X252515550Y-57994322D03*
D21*
%TO.P,J11,2,2_2*%
%TO.N,+3.3V*%
X255209627Y-57096296D03*
%TO.P,J11,3,3_3*%
%TO.N,/I2C_SDA*%
X254311601Y-59790373D03*
%TO.P,J11,4,4_4*%
%TO.N,GND*%
X257005678Y-58892348D03*
%TO.P,J11,5,5_5*%
%TO.N,/I2C_INT*%
X256107652Y-61586424D03*
%TO.P,J11,6,6_6*%
%TO.N,GND*%
X258801729Y-60688399D03*
%TD*%
D26*
%TO.P,Status_LED_RX1,1,-_1*%
%TO.N,GND*%
X242214702Y-152725281D03*
%TO.P,Status_LED_RX1,2,+_2*%
%TO.N,Net-(Status_LED_RX1-+)*%
X243785298Y-152074719D03*
%TD*%
D34*
%TO.P,L3,1,-_1*%
%TO.N,/EM_C_N*%
X77000000Y-107000000D03*
%TO.P,L3,2,+_2*%
%TO.N,/EM_C_P*%
X83000000Y-107000000D03*
%TD*%
D35*
%TO.P,L2,1,-_1*%
%TO.N,/EM_B_N*%
X73000000Y-97000000D03*
%TO.P,L2,2,+_2*%
%TO.N,/EM_B_P*%
X73000000Y-103000000D03*
%TD*%
D36*
%TO.P,L1,1,-_1*%
%TO.N,/EM_A_N*%
X83000000Y-93000000D03*
%TO.P,L1,2,+_2*%
%TO.N,/EM_A_P*%
X77000000Y-93000000D03*
%TD*%
D20*
%TO.P,J8,1,1_1*%
%TO.N,/EM_A_N*%
X46974578Y-53504194D03*
D21*
%TO.P,J8,2,2_2*%
%TO.N,/EM_A_P*%
X44280501Y-52606168D03*
%TO.P,J8,3,3_3*%
%TO.N,/EM_A_N*%
X45178527Y-55300245D03*
%TO.P,J8,4,4_4*%
%TO.N,/EM_A_P*%
X42484450Y-54402220D03*
%TO.P,J8,5,5_5*%
%TO.N,/EM_B_N*%
X43382476Y-57096296D03*
%TO.P,J8,6,6_6*%
%TO.N,/EM_B_P*%
X40688399Y-56198271D03*
%TO.P,J8,7,7_7*%
%TO.N,/EM_B_N*%
X41586424Y-58892348D03*
%TO.P,J8,8,8_8*%
%TO.N,/EM_B_P*%
X38892347Y-57994322D03*
%TO.P,J8,9,9_9*%
%TO.N,/EM_C_N*%
X39790373Y-60688399D03*
%TO.P,J8,10,10_10*%
%TO.N,/EM_C_P*%
X37096296Y-59790373D03*
%TO.P,J8,11,11_11*%
%TO.N,/EM_C_N*%
X37994322Y-62484450D03*
%TO.P,J8,12,12_12*%
%TO.N,/EM_C_P*%
X35300245Y-61586425D03*
%TO.P,J8,13,13_13*%
%TO.N,/EM_D_N*%
X36198271Y-64280501D03*
%TO.P,J8,14,14_14*%
%TO.N,/EM_D_P*%
X33504194Y-63382476D03*
%TO.P,J8,15,15_15*%
%TO.N,/EM_D_N*%
X34402219Y-66076553D03*
%TO.P,J8,16,16_16*%
%TO.N,/EM_D_P*%
X31708143Y-65178527D03*
%TD*%
D33*
%TO.P,J12,1,1_1*%
%TO.N,/I2C_SCL*%
X119311602Y-56198270D03*
D21*
%TO.P,J12,2,2_2*%
%TO.N,+3.3V*%
X118413576Y-58892347D03*
%TO.P,J12,3,3_3*%
%TO.N,/I2C_SDA*%
X121107653Y-57994321D03*
%TO.P,J12,4,4_4*%
%TO.N,GND*%
X120209628Y-60688398D03*
%TO.P,J12,5,5_5*%
%TO.N,/I2C_INT*%
X122903704Y-59790372D03*
%TO.P,J12,6,6_6*%
%TO.N,GND*%
X122005679Y-62484449D03*
%TD*%
D37*
%TO.P,L4,1,-_1*%
%TO.N,/EM_D_N*%
X87000000Y-103000000D03*
%TO.P,L4,2,+_2*%
%TO.N,/EM_D_P*%
X87000000Y-97000000D03*
%TD*%
D38*
%TO.N,/HBRIDG_ALL_FAULT*%
X212450000Y-82350000D03*
X208000000Y-60100000D03*
X234990267Y-60200000D03*
X207900000Y-75977233D03*
X234790267Y-76200000D03*
X222962098Y-47830000D03*
%TO.N,GND*%
X77000000Y-35750000D03*
X214250000Y-162000000D03*
X278500000Y-100000000D03*
X277750000Y-101500000D03*
X215750000Y-164250000D03*
X212750000Y-162000000D03*
X18000000Y-100750000D03*
X202869466Y-62700000D03*
X81500000Y-164250000D03*
X217250000Y-162000000D03*
X164400000Y-130700000D03*
X279250000Y-99250000D03*
X194548821Y-80995750D03*
X80750000Y-162750000D03*
X213500000Y-162750000D03*
X78500000Y-163500000D03*
X278500000Y-101500000D03*
X214250000Y-36500000D03*
X79250000Y-162750000D03*
X209050000Y-111850000D03*
X218442338Y-102430090D03*
X217790000Y-107710000D03*
X220030000Y-109210000D03*
X221481673Y-81232582D03*
X16500000Y-102250000D03*
X217250000Y-38000000D03*
X18000000Y-97750000D03*
X79250000Y-163500000D03*
X212000000Y-162750000D03*
X210828066Y-77702233D03*
X277750000Y-103000000D03*
X277000000Y-100750000D03*
X205028066Y-83302233D03*
X16500000Y-97000000D03*
X221530000Y-107710000D03*
X219290000Y-109210000D03*
X277750000Y-100750000D03*
X79250000Y-35750000D03*
X194619466Y-65100000D03*
X78500000Y-35750000D03*
X216500000Y-35750000D03*
X215750000Y-37250000D03*
X219700000Y-101920000D03*
X214500000Y-100500000D03*
X17250000Y-100000000D03*
X16500000Y-99250000D03*
X222000000Y-66800000D03*
X257800000Y-124500000D03*
X215000000Y-162750000D03*
X213500000Y-38000000D03*
X215000000Y-163500000D03*
X77750000Y-35750000D03*
X217290000Y-107210000D03*
X214250000Y-163500000D03*
X204469466Y-62700000D03*
X80750000Y-162000000D03*
X17250000Y-99250000D03*
X256000000Y-130200000D03*
X249463915Y-134453915D03*
X212750000Y-35750000D03*
X81500000Y-37250000D03*
X232058073Y-85417015D03*
X215750000Y-36500000D03*
X212750000Y-38000000D03*
X204900000Y-107700000D03*
X16500000Y-101500000D03*
X278500000Y-99250000D03*
X83000000Y-35750000D03*
X215000000Y-36500000D03*
X77000000Y-36500000D03*
X15750000Y-102250000D03*
X212750000Y-163500000D03*
X217250000Y-164250000D03*
X77000000Y-164250000D03*
X279250000Y-100750000D03*
X215750000Y-163500000D03*
X212000000Y-37250000D03*
X77500000Y-100950000D03*
X246300000Y-121500000D03*
X212000000Y-36500000D03*
X256800000Y-135600000D03*
X221030000Y-102210000D03*
X80750000Y-36500000D03*
X18000000Y-102250000D03*
X82250000Y-164250000D03*
X194500000Y-83900000D03*
X78500000Y-38000000D03*
X237931673Y-77925000D03*
X212750000Y-162750000D03*
X16500000Y-100000000D03*
X194600000Y-68000000D03*
X16500000Y-97750000D03*
X212750000Y-36500000D03*
X81500000Y-162750000D03*
X254900000Y-118100000D03*
X279250000Y-101500000D03*
X80000000Y-162750000D03*
X278500000Y-98500000D03*
X218000000Y-163500000D03*
X18000000Y-100000000D03*
X215000000Y-38000000D03*
X223530000Y-104710000D03*
X17250000Y-102250000D03*
X17250000Y-98500000D03*
X277750000Y-100000000D03*
X226400000Y-74800000D03*
X83000000Y-164250000D03*
X216500000Y-163500000D03*
X221530000Y-102710000D03*
X83000000Y-163500000D03*
X80750000Y-164250000D03*
X217250000Y-162750000D03*
X213500000Y-36500000D03*
X216520268Y-103348124D03*
X215000000Y-37250000D03*
X218290000Y-108210000D03*
X223030000Y-104210000D03*
X213500000Y-162000000D03*
X16500000Y-103000000D03*
X278500000Y-97000000D03*
X215000000Y-35750000D03*
X83000000Y-36500000D03*
X278500000Y-97750000D03*
X18000000Y-98500000D03*
X213500000Y-163500000D03*
X79250000Y-162000000D03*
X212975468Y-108584532D03*
X257690000Y-144430000D03*
X78500000Y-37250000D03*
X216500000Y-162750000D03*
X166750000Y-132450000D03*
X279250000Y-103000000D03*
X256800000Y-136800000D03*
X216290000Y-106210000D03*
X82250000Y-36500000D03*
X17250000Y-103000000D03*
X15750000Y-97000000D03*
X17250000Y-100750000D03*
X217250000Y-37250000D03*
X204463052Y-78577233D03*
X15750000Y-98500000D03*
X77500000Y-100000000D03*
X214250000Y-37250000D03*
X279250000Y-100000000D03*
X80000000Y-162000000D03*
X77750000Y-162750000D03*
X222530000Y-106710000D03*
X232182207Y-69400000D03*
X216500000Y-37250000D03*
X82250000Y-37250000D03*
X221000000Y-91800000D03*
X216500000Y-36500000D03*
X218000000Y-162750000D03*
X252200000Y-116400000D03*
X277750000Y-99250000D03*
X77750000Y-36500000D03*
X215750000Y-162750000D03*
X232182207Y-68600000D03*
X77750000Y-37250000D03*
X213500000Y-164250000D03*
X205028066Y-84902233D03*
X15750000Y-97750000D03*
X212000000Y-163500000D03*
X212750000Y-37250000D03*
X237982207Y-61950000D03*
X216790000Y-106710000D03*
X78500000Y-36500000D03*
X77000000Y-162750000D03*
X277750000Y-98500000D03*
X222030000Y-103210000D03*
X15750000Y-99250000D03*
X215000000Y-164250000D03*
X218000000Y-36500000D03*
X232058073Y-84617015D03*
X15750000Y-100750000D03*
X217880000Y-103610000D03*
X215000000Y-99000000D03*
X215000000Y-162000000D03*
X214000000Y-100000000D03*
X222030000Y-107210000D03*
X78500000Y-162000000D03*
X189140000Y-152740000D03*
X81500000Y-163500000D03*
X215750000Y-38000000D03*
X221400000Y-84100000D03*
X219100000Y-90000000D03*
X81500000Y-35750000D03*
X215750000Y-162000000D03*
X80000000Y-35750000D03*
X215500000Y-100500000D03*
X279250000Y-97000000D03*
X15750000Y-101500000D03*
X214250000Y-162750000D03*
X202881569Y-78577233D03*
X218000000Y-35750000D03*
X212750000Y-164250000D03*
X17250000Y-97750000D03*
X77750000Y-164250000D03*
X215500000Y-99500000D03*
X82250000Y-162750000D03*
X205149466Y-68425000D03*
X216000000Y-100000000D03*
X80000000Y-37250000D03*
X213500000Y-35750000D03*
X277750000Y-102250000D03*
X277000000Y-101500000D03*
X205028066Y-84102233D03*
X16500000Y-100750000D03*
X203681569Y-78577233D03*
X214250000Y-164250000D03*
X214250000Y-35750000D03*
X223030000Y-106210000D03*
X216500000Y-162000000D03*
X216180000Y-105460000D03*
X15750000Y-100000000D03*
X220530000Y-108710000D03*
X79250000Y-38000000D03*
X222530000Y-103710000D03*
X277000000Y-99250000D03*
X243000000Y-152400000D03*
X277750000Y-97750000D03*
X80750000Y-38000000D03*
X277000000Y-102250000D03*
X255094767Y-128894767D03*
X217250000Y-36500000D03*
X81500000Y-38000000D03*
X79250000Y-36500000D03*
X215750000Y-35750000D03*
X252350000Y-130450000D03*
X212000000Y-35750000D03*
X221030000Y-108210000D03*
X214250000Y-38000000D03*
X77750000Y-162000000D03*
X242200000Y-150500000D03*
X80750000Y-35750000D03*
X80750000Y-163500000D03*
X216300000Y-91300000D03*
X216420000Y-104050000D03*
X279250000Y-102250000D03*
X81500000Y-36500000D03*
X216280000Y-104740000D03*
X80750000Y-37250000D03*
X279250000Y-97750000D03*
X216500000Y-164250000D03*
X83000000Y-162750000D03*
X259810000Y-142310000D03*
X279250000Y-98500000D03*
X256800000Y-136200000D03*
X17250000Y-97000000D03*
X254300000Y-117500000D03*
X80000000Y-163500000D03*
X263698959Y-140278959D03*
X215000000Y-100000000D03*
X210998271Y-61849887D03*
X77000000Y-163500000D03*
X220530000Y-101710000D03*
X218000000Y-37250000D03*
X232058073Y-83817015D03*
X209700000Y-104900000D03*
X18000000Y-99250000D03*
X79250000Y-37250000D03*
X251600000Y-115700000D03*
X256200000Y-126700000D03*
X77000000Y-37250000D03*
X277000000Y-97750000D03*
X83000000Y-37250000D03*
X278500000Y-100750000D03*
X15750000Y-103000000D03*
X213500000Y-37250000D03*
X218000000Y-164250000D03*
X18000000Y-101500000D03*
X80000000Y-164250000D03*
X77750000Y-163500000D03*
X80000000Y-36500000D03*
X219200000Y-102420000D03*
X232182207Y-67800000D03*
X218790000Y-108710000D03*
X212000000Y-164250000D03*
X17250000Y-101500000D03*
X208800000Y-97000000D03*
X16500000Y-98500000D03*
X78500000Y-162750000D03*
X217730000Y-102320000D03*
X216500000Y-38000000D03*
X82250000Y-163500000D03*
X77750000Y-38000000D03*
X78500000Y-164250000D03*
X214500000Y-99500000D03*
X224030000Y-105210000D03*
X163000000Y-125450000D03*
X277000000Y-98500000D03*
X82250000Y-35750000D03*
X277750000Y-97000000D03*
X79250000Y-164250000D03*
X82250000Y-38000000D03*
X81500000Y-162000000D03*
X217250000Y-35750000D03*
X217250000Y-163500000D03*
X203669466Y-62700000D03*
X223530000Y-105710000D03*
X215000000Y-101000000D03*
X182260000Y-148690000D03*
X80000000Y-38000000D03*
X205149466Y-69225000D03*
X82250000Y-162000000D03*
X278500000Y-102250000D03*
X205149466Y-67625000D03*
X277000000Y-100000000D03*
X278500000Y-103000000D03*
%TO.N,/USB Power Circuit/USB_VBUS*%
X255600000Y-136090997D03*
X255600000Y-135381994D03*
X252000000Y-140400000D03*
X255600000Y-136800000D03*
%TO.N,Net-(J1-CC1)*%
X256090000Y-142830000D03*
%TO.N,Net-(J1-D+1)*%
X253260330Y-137199670D03*
%TO.N,Net-(J1-D-1)*%
X252129670Y-138190330D03*
%TO.N,Net-(J1-CC2)*%
X258325000Y-140825000D03*
%TO.N,/HBRIDGE_B_PWM*%
X220660000Y-97320000D03*
X227400000Y-92400000D03*
%TO.N,/BOOT*%
X213500000Y-96732233D03*
X187400000Y-147600000D03*
%TO.N,/HBRIDGE_D_PWM*%
X210550000Y-91800000D03*
%TO.N,/HBRIDGE_B_ISENSE*%
X237000000Y-77400000D03*
X210400000Y-102300000D03*
%TO.N,/HBRIDGE_C_DIR*%
X199210000Y-46710000D03*
X213900000Y-93800000D03*
X208000000Y-55500000D03*
X216800000Y-96600000D03*
%TO.N,/Electromagnet Driver/PMODE*%
X199500000Y-74027233D03*
X218300000Y-67700000D03*
%TO.N,/EM_A_N*%
X225582207Y-64400000D03*
X225582207Y-63800000D03*
X226182207Y-63800000D03*
X226182207Y-64400000D03*
%TO.N,/EM_A_P*%
X235782207Y-63600000D03*
X235182207Y-63000000D03*
X235782207Y-63000000D03*
X235182207Y-63600000D03*
%TO.N,/EM_B_N*%
X225419472Y-79783581D03*
X225448873Y-80395116D03*
X226048873Y-80395116D03*
X226048873Y-79795116D03*
%TO.N,/EM_B_P*%
X235731673Y-79525000D03*
X235731673Y-78925000D03*
X235131673Y-79525000D03*
X235131673Y-78925000D03*
%TO.N,/EM_C_N*%
X199200000Y-64300000D03*
X198600000Y-64300000D03*
X198600000Y-63700000D03*
X199200000Y-63700000D03*
%TO.N,/EM_C_P*%
X208200000Y-63500000D03*
X208200000Y-62900000D03*
X208800000Y-62900000D03*
X208800000Y-63500000D03*
%TO.N,/EM_D_N*%
X198498821Y-79595750D03*
X199098821Y-80195750D03*
X198498821Y-80195750D03*
X199098821Y-79595750D03*
%TO.N,/EM_D_P*%
X208028066Y-78902233D03*
X208628066Y-79502233D03*
X208028066Y-79502233D03*
X208628066Y-78902233D03*
%TO.N,/HBRIDGE_A_PWM*%
X227400000Y-94000000D03*
X245034800Y-56470064D03*
X220650000Y-99000000D03*
%TO.N,/HBRIDGE_C_PWM*%
X211500000Y-53000000D03*
X217846446Y-96396446D03*
X214450000Y-93000000D03*
X217000000Y-58500000D03*
X207037902Y-48110000D03*
%TO.N,+V_HB*%
X245747680Y-88147680D03*
X245246340Y-87646340D03*
X223151673Y-66500000D03*
X244745000Y-87145000D03*
X196100000Y-82200000D03*
X223000000Y-82400000D03*
X196200000Y-66300000D03*
%TO.N,/HBRIDGE_C_ISENSE*%
X202351499Y-55851499D03*
X194300000Y-47800000D03*
%TO.N,/CHIP_EN*%
X211000000Y-101000000D03*
X165800000Y-128600000D03*
%TO.N,/I2C_SCL*%
X162250000Y-85050000D03*
X98875000Y-79875000D03*
%TO.N,/I2C_SDA*%
X99550312Y-80550312D03*
X155125000Y-93775000D03*
%TO.N,/I2C_INT*%
X100250000Y-81250000D03*
%TO.N,/HBRIDGE_D_DIR*%
X211150000Y-91250000D03*
%TO.N,Net-(Status_LED_TX1-+)*%
X241480000Y-149000000D03*
%TO.N,/HBRIDGE_A_DIR*%
X227400000Y-93200000D03*
X220660000Y-98160000D03*
X236915000Y-54305000D03*
%TO.N,/HBRIDGE_A_ISENSE*%
X236982207Y-61500000D03*
X239994199Y-56334199D03*
X209900000Y-103000000D03*
%TO.N,/HBRIDGE_B_DIR*%
X239280000Y-84710000D03*
X220700000Y-96490000D03*
X227400000Y-91600000D03*
%TO.N,/HBRIDGE_D_ISENSE*%
X209950000Y-92350000D03*
%TO.N,+3.3V*%
X208800000Y-98200000D03*
X211800000Y-97800000D03*
X82500000Y-100950000D03*
X218900000Y-93900000D03*
X215000000Y-96400000D03*
X163200000Y-128500000D03*
%TO.N,Net-(POWER_LED2-+)*%
X248200000Y-124780000D03*
%TO.N,Net-(Status_LED_RX1-+)*%
X243710000Y-154145109D03*
%TO.N,/HBRIDGE_ALL_EN*%
X217300000Y-57400000D03*
X232450000Y-59550000D03*
%TD*%
%TO.N,/HBRIDG_ALL_FAULT*%
D39*
X222962098Y-47830000D02*
X222962098Y-39521863D01*
%TO.N,GND*%
D40*
X165882549Y-133317451D02*
X165242482Y-133317451D01*
D39*
X241739983Y-150500000D02*
X241414702Y-150825281D01*
D41*
X252763038Y-142500653D02*
X252763038Y-143299683D01*
D40*
X189140000Y-152740000D02*
X188567451Y-153312549D01*
X78745000Y-100000000D02*
X77500000Y-100000000D01*
X264300000Y-140880000D02*
X263698959Y-140278959D01*
X162250031Y-125450000D02*
X161267482Y-126432549D01*
D41*
X252763038Y-143299683D02*
X252476659Y-143586062D01*
D39*
X242539983Y-152400000D02*
X242214702Y-152725281D01*
X243000000Y-152400000D02*
X242539983Y-152400000D01*
D40*
X78745000Y-100950000D02*
X77500000Y-100950000D01*
X256800000Y-135600000D02*
X256800000Y-137262385D01*
X256800000Y-137262385D02*
X257300653Y-137763038D01*
X163000000Y-125450000D02*
X162250031Y-125450000D01*
X181682549Y-149267451D02*
X181682549Y-149757518D01*
X188567451Y-153312549D02*
X188567451Y-153732518D01*
D39*
X242200000Y-150500000D02*
X241739983Y-150500000D01*
D40*
X182260000Y-148690000D02*
X181682549Y-149267451D01*
X166750000Y-132450000D02*
X165882549Y-133317451D01*
%TO.N,/USB Power Circuit/USB_VBUS*%
X255600000Y-135381994D02*
X255600000Y-137200000D01*
X252000000Y-140400000D02*
X253328723Y-141728723D01*
X255600000Y-137200000D02*
X256600000Y-138200000D01*
%TO.N,Net-(J1-CC1)*%
D42*
X254188414Y-140956181D02*
X254196181Y-140956181D01*
X256070000Y-142830000D02*
X256090000Y-142830000D01*
X254196181Y-140956181D02*
X256070000Y-142830000D01*
%TO.N,Net-(J1-D+1)*%
X255978726Y-139918066D02*
X255602627Y-139541967D01*
X255271620Y-140625173D02*
X255639478Y-140625173D01*
X254895521Y-140249074D02*
X255271620Y-140625173D01*
X255978726Y-140285925D02*
X255978726Y-139918066D01*
X255639478Y-140625173D02*
X255978726Y-140285925D01*
X255602627Y-139541967D02*
X253260330Y-137199670D01*
%TO.N,Net-(J1-D-1)*%
X254541967Y-140602627D02*
X252129670Y-138190330D01*
X254505117Y-139519422D02*
X254872975Y-139519422D01*
X254165869Y-140226529D02*
X254165869Y-139858670D01*
X254872975Y-139519422D02*
X255249074Y-139895521D01*
X254165869Y-139858670D02*
X254505117Y-139519422D01*
X254541967Y-140602627D02*
X254165869Y-140226529D01*
%TO.N,Net-(J1-CC2)*%
X258325000Y-140825000D02*
X258299874Y-140825000D01*
X258299874Y-140825000D02*
X256309734Y-138834860D01*
%TO.N,/HBRIDGE_B_PWM*%
D39*
X227762098Y-92037902D02*
X227400000Y-92400000D01*
X226800000Y-92400000D02*
X227400000Y-92400000D01*
X221880000Y-97320000D02*
X226800000Y-92400000D01*
X275478137Y-92037902D02*
X227762098Y-92037902D01*
X220660000Y-97320000D02*
X221880000Y-97320000D01*
%TO.N,/BOOT*%
D40*
X190145404Y-149835404D02*
X190817451Y-149835404D01*
D43*
X213500000Y-96732233D02*
X213000000Y-97232233D01*
X183932549Y-131967451D02*
X183932549Y-145860404D01*
D40*
X187910000Y-147600000D02*
X190145404Y-149835404D01*
D39*
X183046063Y-144973918D02*
X183932549Y-145860404D01*
D40*
X186600000Y-147600000D02*
X185200000Y-146200000D01*
D43*
X213000000Y-97232233D02*
X213000000Y-102900000D01*
D40*
X184272145Y-146200000D02*
X183932549Y-145860404D01*
D39*
X173788997Y-144973918D02*
X183046063Y-144973918D01*
D40*
X187400000Y-147600000D02*
X187910000Y-147600000D01*
X187400000Y-147600000D02*
X186600000Y-147600000D01*
D43*
X213000000Y-102900000D02*
X183932549Y-131967451D01*
D40*
X185200000Y-146200000D02*
X184272145Y-146200000D01*
%TO.N,/HBRIDGE_D_PWM*%
D44*
X209790000Y-91800000D02*
X210550000Y-91800000D01*
X185802038Y-115787962D02*
X209790000Y-91800000D01*
X156078525Y-115787962D02*
X185802038Y-115787962D01*
%TO.N,/HBRIDGE_B_ISENSE*%
D39*
X210400000Y-102300000D02*
X207255600Y-99155600D01*
X237743689Y-76656311D02*
X237000000Y-77400000D01*
X271356651Y-76656311D02*
X237743689Y-76656311D01*
X215000000Y-89400000D02*
X232600000Y-89400000D01*
X207255600Y-99155600D02*
X207255600Y-97144400D01*
X207255600Y-97144400D02*
X215000000Y-89400000D01*
X232600000Y-89400000D02*
X237000000Y-85000000D01*
X237000000Y-85000000D02*
X237000000Y-77400000D01*
%TO.N,/HBRIDGE_C_DIR*%
X199212038Y-41078525D02*
X199212038Y-46707962D01*
X216800000Y-96600000D02*
X214000000Y-93800000D01*
X214000000Y-93800000D02*
X213900000Y-93800000D01*
X199212038Y-46707962D02*
X199210000Y-46710000D01*
%TO.N,/Electromagnet Driver/PMODE*%
D42*
X199500000Y-74027233D02*
X211972767Y-74027233D01*
X211972767Y-74027233D02*
X218300000Y-67700000D01*
D39*
X230787962Y-41078525D02*
X230787962Y-45323284D01*
X230787962Y-45323284D02*
X233663980Y-48199302D01*
%TO.N,/EM_A_N*%
D41*
X221300000Y-64400000D02*
X210275985Y-53375985D01*
X225582207Y-64400000D02*
X221300000Y-64400000D01*
X181867583Y-53375985D02*
X181791598Y-53300000D01*
X210275985Y-53375985D02*
X181867583Y-53375985D01*
X181791598Y-53300000D02*
X181770385Y-53300000D01*
X181770385Y-53300000D02*
X180178527Y-51708142D01*
%TO.N,/EM_A_P*%
X235182207Y-63600000D02*
X233182207Y-65600000D01*
X209602219Y-54402219D02*
X181076553Y-54402219D01*
X233182207Y-65600000D02*
X220800000Y-65600000D01*
X220800000Y-65600000D02*
X209602219Y-54402219D01*
%TO.N,/EM_B_N*%
X225448980Y-73448980D02*
X211300000Y-59300000D01*
X176994077Y-59300000D02*
X174790373Y-57096296D01*
X225419472Y-79783581D02*
X225448980Y-79754073D01*
X225448980Y-79754073D02*
X225448980Y-73448980D01*
X211300000Y-59300000D02*
X176994077Y-59300000D01*
%TO.N,/EM_B_P*%
D40*
X73000000Y-103000000D02*
X74352000Y-104352000D01*
X173686373Y-57788347D02*
X175688399Y-59790373D01*
X165904168Y-63575509D02*
X171691330Y-57788347D01*
X144954300Y-101800000D02*
X153900000Y-101800000D01*
X153900000Y-101800000D02*
X165904168Y-89795832D01*
X74352000Y-104352000D02*
X142402300Y-104352000D01*
X165904168Y-89795832D02*
X165904168Y-63575509D01*
X171691330Y-57788347D02*
X173686373Y-57788347D01*
D41*
X232525000Y-78925000D02*
X211594321Y-57994321D01*
X235131673Y-78925000D02*
X232525000Y-78925000D01*
D40*
X142402300Y-104352000D02*
X144954300Y-101800000D01*
D41*
X211594321Y-57994321D02*
X177484450Y-57994321D01*
%TO.N,/EM_C_N*%
D40*
X79050000Y-104950000D02*
X142650000Y-104950000D01*
X169636979Y-60688398D02*
X171198271Y-60688398D01*
X166502168Y-63823209D02*
X169636979Y-60688398D01*
D41*
X198600000Y-63700000D02*
X174209873Y-63700000D01*
D40*
X144050000Y-103550000D02*
X163100000Y-103550000D01*
X163100000Y-103550000D02*
X166502168Y-100147832D01*
X166502168Y-100147832D02*
X166502168Y-63823209D01*
X142650000Y-104950000D02*
X144050000Y-103550000D01*
D41*
X174209873Y-63700000D02*
X171198271Y-60688398D01*
D40*
X77000000Y-107000000D02*
X79050000Y-104950000D01*
%TO.N,/EM_C_P*%
D41*
X206886424Y-61586424D02*
X173892348Y-61586424D01*
X208200000Y-62900000D02*
X206886424Y-61586424D01*
%TO.N,/EM_D_N*%
X169925667Y-66600000D02*
X167606168Y-64280501D01*
X198498821Y-79595750D02*
X198498821Y-77698821D01*
X187400000Y-66600000D02*
X169925667Y-66600000D01*
X198498821Y-77698821D02*
X187400000Y-66600000D01*
%TO.N,/EM_D_P*%
X170300245Y-65178526D02*
X187978526Y-65178526D01*
X202302233Y-79502233D02*
X208028066Y-79502233D01*
X187978526Y-65178526D02*
X202302233Y-79502233D01*
%TO.N,/HBRIDGE_A_PWM*%
D39*
X222400000Y-99000000D02*
X227400000Y-94000000D01*
X245034800Y-56470064D02*
X250854900Y-50649963D01*
X220650000Y-99000000D02*
X222400000Y-99000000D01*
%TO.N,/HBRIDGE_C_PWM*%
X217846446Y-96396446D02*
X214450000Y-93000000D01*
X207037902Y-48110000D02*
X207037902Y-39521863D01*
X217000000Y-58500000D02*
X211500000Y-53000000D01*
%TO.N,/HBRIDGE_C_ISENSE*%
X194300000Y-46287038D02*
X191656311Y-43643349D01*
X194300000Y-47800000D02*
X194300000Y-46287038D01*
%TO.N,/CHIP_EN*%
D40*
X165800000Y-128600000D02*
X168267451Y-131067451D01*
X165600000Y-124617953D02*
X165164596Y-124182549D01*
X168267451Y-131067451D02*
X169139596Y-131067451D01*
D43*
X211000000Y-101000000D02*
X211300000Y-101300000D01*
X211300000Y-102437612D02*
X182670161Y-131067451D01*
D39*
X168271289Y-139210044D02*
X168271289Y-131935758D01*
D43*
X182670161Y-131067451D02*
X169139596Y-131067451D01*
X211300000Y-101300000D02*
X211300000Y-102437612D01*
D39*
X168271289Y-131935758D02*
X169139596Y-131067451D01*
D40*
X165600000Y-128400000D02*
X165600000Y-124617953D01*
X165800000Y-128600000D02*
X165600000Y-128400000D01*
%TO.N,/I2C_SCL*%
X229734603Y-49138903D02*
X238590022Y-57994322D01*
X98875000Y-79875000D02*
X79700000Y-99050000D01*
X254559872Y-55950000D02*
X252515550Y-57994322D01*
X238590022Y-57994322D02*
X252515550Y-57994322D01*
X117250000Y-58259872D02*
X119311602Y-56198270D01*
X164110168Y-62832409D02*
X177803674Y-49138903D01*
X98875000Y-79875000D02*
X117250000Y-61500000D01*
X164110168Y-83189832D02*
X164110168Y-62832409D01*
X255800000Y-55950000D02*
X254559872Y-55950000D01*
X162250000Y-85050000D02*
X164110168Y-83189832D01*
X79700000Y-99050000D02*
X78745000Y-99050000D01*
X266670403Y-66820403D02*
X255800000Y-55950000D01*
X177803674Y-49138903D02*
X229734603Y-49138903D01*
X266066461Y-73449705D02*
X266670403Y-72845763D01*
X266670403Y-72845763D02*
X266670403Y-66820403D01*
X117250000Y-61500000D02*
X117250000Y-58259872D01*
%TO.N,/I2C_SDA*%
X264805461Y-68520516D02*
X256075318Y-59790373D01*
X155125000Y-93775000D02*
X164708168Y-84191832D01*
X81255000Y-98845625D02*
X81255000Y-99050000D01*
X239540373Y-59790373D02*
X254311601Y-59790373D01*
X118500000Y-60750000D02*
X121107653Y-58142347D01*
X164708168Y-63080109D02*
X178051374Y-49736903D01*
X256075318Y-59790373D02*
X254311601Y-59790373D01*
X264796461Y-71250000D02*
X264805461Y-71241000D01*
X178051374Y-49736903D02*
X229486903Y-49736903D01*
X164708168Y-84191832D02*
X164708168Y-63080109D01*
X99550312Y-80550312D02*
X118500000Y-61600624D01*
X99550312Y-80550312D02*
X81255000Y-98845625D01*
X121107653Y-58142347D02*
X121107653Y-57994321D01*
X118500000Y-61600624D02*
X118500000Y-60750000D01*
X229486903Y-49736903D02*
X239540373Y-59790373D01*
D43*
X121107653Y-58392347D02*
X121107653Y-57994321D01*
D40*
X264805461Y-71241000D02*
X264805461Y-68520516D01*
%TO.N,/I2C_INT*%
X129050000Y-81250000D02*
X144400000Y-96600000D01*
X144400000Y-96600000D02*
X154000000Y-96600000D01*
X100250000Y-81250000D02*
X129050000Y-81250000D01*
X154000000Y-96600000D02*
X165306168Y-85293832D01*
X256107652Y-61631487D02*
X256107652Y-61586424D01*
X82500000Y-99000000D02*
X82500000Y-99500000D01*
X165306168Y-85293832D02*
X165306168Y-63327809D01*
X120500000Y-62250000D02*
X122903704Y-59846296D01*
X229234903Y-50334903D02*
X240486424Y-61586424D01*
D43*
X122903704Y-59790372D02*
X122459628Y-59790372D01*
D40*
X82500000Y-99500000D02*
X82000000Y-100000000D01*
X100250000Y-81250000D02*
X82500000Y-99000000D01*
X240486424Y-61586424D02*
X256107652Y-61586424D01*
X263526461Y-69050296D02*
X256107652Y-61631487D01*
X119250000Y-62250000D02*
X120500000Y-62250000D01*
X122903704Y-59846296D02*
X122903704Y-59790372D01*
X165306168Y-63327809D02*
X178299074Y-50334903D01*
X82000000Y-100000000D02*
X81255000Y-100000000D01*
X100250000Y-81250000D02*
X119250000Y-62250000D01*
X178299074Y-50334903D02*
X229234903Y-50334903D01*
%TO.N,/HBRIDGE_D_DIR*%
D44*
X211150000Y-91250000D02*
X209650000Y-91250000D01*
X185640000Y-115260000D02*
X161819765Y-115260000D01*
X209650000Y-91250000D02*
X185640000Y-115260000D01*
X161819765Y-115260000D02*
X154521863Y-107962098D01*
%TO.N,Net-(Status_LED_TX1-+)*%
D39*
X241480000Y-149000000D02*
X242654719Y-150174719D01*
X242654719Y-150174719D02*
X242985298Y-150174719D01*
%TO.N,/HBRIDGE_A_DIR*%
X220660000Y-98160000D02*
X222240000Y-98160000D01*
X227200000Y-93200000D02*
X227400000Y-93200000D01*
X236916585Y-54305000D02*
X244573387Y-46648198D01*
X222240000Y-98160000D02*
X227200000Y-93200000D01*
X236915000Y-54305000D02*
X236916585Y-54305000D01*
%TO.N,/HBRIDGE_A_ISENSE*%
X239994199Y-56334199D02*
X247775276Y-48553122D01*
X206800000Y-97000000D02*
X214800000Y-89000000D01*
X214800000Y-89000000D02*
X232400000Y-89000000D01*
X209900000Y-103000000D02*
X206800000Y-99900000D01*
X236400000Y-85000000D02*
X236400000Y-62080000D01*
X232400000Y-89000000D02*
X236400000Y-85000000D01*
X206800000Y-99900000D02*
X206800000Y-97000000D01*
X236400000Y-62080000D02*
X236980000Y-61500000D01*
X236980000Y-61500000D02*
X236982207Y-61500000D01*
%TO.N,/RXD*%
D42*
X234958561Y-157770000D02*
X238663632Y-154064929D01*
X238663632Y-154064929D02*
X238663632Y-153810392D01*
X224972096Y-156642918D02*
X226099178Y-157770000D01*
X226099178Y-157770000D02*
X234958561Y-157770000D01*
%TO.N,/TXD*%
X236719600Y-149371621D02*
X236719600Y-149117084D01*
X229943832Y-156147389D02*
X236719600Y-149371621D01*
X227463291Y-156147389D02*
X229943832Y-156147389D01*
%TO.N,/HBRIDGE_B_DIR*%
D39*
X239280000Y-84710000D02*
X239777962Y-84212038D01*
X226600000Y-91600000D02*
X227400000Y-91600000D01*
X221710000Y-96490000D02*
X226600000Y-91600000D01*
X220700000Y-96490000D02*
X221710000Y-96490000D01*
X239777962Y-84212038D02*
X273921475Y-84212038D01*
%TO.N,/HBRIDGE_D_ISENSE*%
D44*
X186030000Y-116270000D02*
X209950000Y-92350000D01*
X158643349Y-123343689D02*
X165717038Y-116270000D01*
X165717038Y-116270000D02*
X186030000Y-116270000D01*
%TO.N,+3.3V*%
D40*
X82500000Y-100950000D02*
X81255000Y-100950000D01*
D43*
X211800000Y-97800000D02*
X211400000Y-98200000D01*
X211400000Y-98200000D02*
X208800000Y-98200000D01*
%TO.N,Net-(POWER_LED2-+)*%
X248200000Y-124780000D02*
X263097918Y-139677918D01*
%TO.N,Net-(Status_LED_RX1-+)*%
D39*
X243785298Y-154069811D02*
X243785298Y-152074719D01*
X243710000Y-154145109D02*
X243785298Y-154069811D01*
%TO.N,/HBRIDGE_ALL_EN*%
D42*
X232450000Y-59550000D02*
X230300000Y-57400000D01*
X230300000Y-57400000D02*
X217300000Y-57400000D01*
%TD*%
%TA.AperFunction,Conductor*%
%TO.N,/EM_B_P*%
G36*
X236028461Y-78544685D02*
G01*
X236074216Y-78597489D01*
X236085422Y-78649000D01*
X236085422Y-79801000D01*
X236065737Y-79868039D01*
X236012933Y-79913794D01*
X235961422Y-79925000D01*
X234809422Y-79925000D01*
X234742383Y-79905315D01*
X234696628Y-79852511D01*
X234685422Y-79801000D01*
X234685422Y-78649000D01*
X234705107Y-78581961D01*
X234757911Y-78536206D01*
X234809422Y-78525000D01*
X235961422Y-78525000D01*
X236028461Y-78544685D01*
G37*
%TD.AperFunction*%
%TD*%
%TA.AperFunction,Conductor*%
%TO.N,GND*%
G36*
X215151796Y-34992188D02*
G01*
X216586232Y-35010414D01*
X216588462Y-35010463D01*
X216755133Y-35015665D01*
X218195356Y-35069608D01*
X218197482Y-35069707D01*
X218357010Y-35078656D01*
X218357177Y-35078666D01*
X218633709Y-35095879D01*
X218699391Y-35119689D01*
X218741777Y-35175233D01*
X218750000Y-35219638D01*
X218750000Y-37210261D01*
X218730315Y-37277300D01*
X218726903Y-37282335D01*
X217537090Y-38948074D01*
X217482106Y-38991184D01*
X217436187Y-39000000D01*
X212563813Y-39000000D01*
X212496774Y-38980315D01*
X212462910Y-38948074D01*
X211273097Y-37282335D01*
X211250149Y-37216341D01*
X211250000Y-37210261D01*
X211250000Y-35219901D01*
X211269685Y-35152862D01*
X211322489Y-35107107D01*
X211366377Y-35096135D01*
X211757442Y-35072059D01*
X211759481Y-35071952D01*
X211945341Y-35063900D01*
X213366355Y-35011644D01*
X213368459Y-35011586D01*
X213548351Y-35008264D01*
X214976390Y-34991090D01*
X214978439Y-34991085D01*
X215151796Y-34992188D01*
G37*
%TD.AperFunction*%
%TD*%
%TA.AperFunction,Conductor*%
%TO.N,/EM_B_N*%
G36*
X226391912Y-79414801D02*
G01*
X226437667Y-79467605D01*
X226448873Y-79519116D01*
X226448873Y-80671116D01*
X226429188Y-80738155D01*
X226376384Y-80783910D01*
X226324873Y-80795116D01*
X225172873Y-80795116D01*
X225105834Y-80775431D01*
X225060079Y-80722627D01*
X225048873Y-80671116D01*
X225048873Y-79519116D01*
X225068558Y-79452077D01*
X225121362Y-79406322D01*
X225172873Y-79395116D01*
X226324873Y-79395116D01*
X226391912Y-79414801D01*
G37*
%TD.AperFunction*%
%TD*%
%TA.AperFunction,Conductor*%
%TO.N,/EM_D_N*%
G36*
X199441860Y-79215435D02*
G01*
X199487615Y-79268239D01*
X199498821Y-79319750D01*
X199498821Y-80471750D01*
X199479136Y-80538789D01*
X199426332Y-80584544D01*
X199374821Y-80595750D01*
X198222821Y-80595750D01*
X198155782Y-80576065D01*
X198110027Y-80523261D01*
X198098821Y-80471750D01*
X198098821Y-79319750D01*
X198118506Y-79252711D01*
X198171310Y-79206956D01*
X198222821Y-79195750D01*
X199374821Y-79195750D01*
X199441860Y-79215435D01*
G37*
%TD.AperFunction*%
%TD*%
%TA.AperFunction,Conductor*%
%TO.N,GND*%
G36*
X279847476Y-96269685D02*
G01*
X279893231Y-96322489D01*
X279904285Y-96367868D01*
X279964626Y-97586480D01*
X279964740Y-97589544D01*
X280004444Y-99193726D01*
X280004482Y-99196792D01*
X280004503Y-100801464D01*
X280004465Y-100804531D01*
X279964805Y-102408716D01*
X279964691Y-102411780D01*
X279904296Y-103632129D01*
X279881322Y-103698114D01*
X279826321Y-103741203D01*
X279780448Y-103750000D01*
X277789738Y-103750000D01*
X277722699Y-103730315D01*
X277717664Y-103726903D01*
X277677359Y-103698114D01*
X276051926Y-102537090D01*
X276008816Y-102482106D01*
X276000000Y-102436187D01*
X276000000Y-97563813D01*
X276019685Y-97496774D01*
X276051926Y-97462910D01*
X277717664Y-96273097D01*
X277783658Y-96250149D01*
X277789738Y-96250000D01*
X279780437Y-96250000D01*
X279847476Y-96269685D01*
G37*
%TD.AperFunction*%
%TD*%
%TA.AperFunction,Conductor*%
%TO.N,/EM_A_P*%
G36*
X236127501Y-62619685D02*
G01*
X236173256Y-62672489D01*
X236184462Y-62724000D01*
X236184462Y-63876000D01*
X236164777Y-63943039D01*
X236111973Y-63988794D01*
X236060462Y-64000000D01*
X234908462Y-64000000D01*
X234841423Y-63980315D01*
X234795668Y-63927511D01*
X234784462Y-63876000D01*
X234784462Y-62724000D01*
X234804147Y-62656961D01*
X234856951Y-62611206D01*
X234908462Y-62600000D01*
X236060462Y-62600000D01*
X236127501Y-62619685D01*
G37*
%TD.AperFunction*%
%TD*%
%TA.AperFunction,Conductor*%
%TO.N,GND*%
G36*
X80022618Y-35001051D02*
G01*
X81450649Y-35018205D01*
X81630223Y-35021518D01*
X81640608Y-35024777D01*
X83051856Y-35073755D01*
X83053247Y-35073806D01*
X83239113Y-35081855D01*
X83240983Y-35081953D01*
X83633621Y-35106121D01*
X83699322Y-35129886D01*
X83741746Y-35185402D01*
X83750000Y-35229886D01*
X83750000Y-37210261D01*
X83730315Y-37277300D01*
X83726903Y-37282335D01*
X82537090Y-38948074D01*
X82482106Y-38991184D01*
X82436187Y-39000000D01*
X77563813Y-39000000D01*
X77496774Y-38980315D01*
X77462910Y-38948074D01*
X76273097Y-37282335D01*
X76250149Y-37216341D01*
X76250000Y-37210261D01*
X76250000Y-35229614D01*
X76269685Y-35162575D01*
X76322489Y-35116820D01*
X76366290Y-35105854D01*
X76642677Y-35088646D01*
X76801944Y-35079710D01*
X76804125Y-35079607D01*
X78243979Y-35025657D01*
X78244445Y-35025641D01*
X78410781Y-35020447D01*
X78412990Y-35020398D01*
X79847215Y-35002153D01*
X80020631Y-35001046D01*
X80022618Y-35001051D01*
G37*
%TD.AperFunction*%
%TD*%
%TA.AperFunction,Conductor*%
%TO.N,GND*%
G36*
X17277301Y-96269685D02*
G01*
X17282336Y-96273097D01*
X18948074Y-97462910D01*
X18991184Y-97517894D01*
X19000000Y-97563813D01*
X19000000Y-102436187D01*
X18980315Y-102503226D01*
X18948074Y-102537090D01*
X17282336Y-103726903D01*
X17216342Y-103749851D01*
X17210262Y-103750000D01*
X15229531Y-103750000D01*
X15162492Y-103730315D01*
X15116737Y-103677511D01*
X15105683Y-103632131D01*
X15045296Y-102412309D01*
X15045184Y-102409273D01*
X15025352Y-101607569D01*
X15005504Y-100805256D01*
X15005468Y-100802350D01*
X15005468Y-99197842D01*
X15005506Y-99194777D01*
X15045180Y-97590843D01*
X15045294Y-97587778D01*
X15105682Y-96367866D01*
X15128657Y-96301885D01*
X15183658Y-96258797D01*
X15229530Y-96250000D01*
X17210262Y-96250000D01*
X17277301Y-96269685D01*
G37*
%TD.AperFunction*%
%TD*%
%TA.AperFunction,Conductor*%
%TO.N,GND*%
G36*
X217503226Y-161019685D02*
G01*
X217537090Y-161051926D01*
X218726903Y-162717664D01*
X218749851Y-162783658D01*
X218750000Y-162789738D01*
X218750000Y-164780370D01*
X218730315Y-164847409D01*
X218677511Y-164893164D01*
X218633707Y-164904130D01*
X218359353Y-164921215D01*
X218358594Y-164921260D01*
X218199296Y-164930200D01*
X218196992Y-164930308D01*
X216757293Y-164984270D01*
X216756521Y-164984297D01*
X216590290Y-164989490D01*
X216587997Y-164989540D01*
X215153889Y-165007802D01*
X215153103Y-165007809D01*
X214980333Y-165008914D01*
X214978052Y-165008908D01*
X213550542Y-164991779D01*
X213549744Y-164991767D01*
X213370270Y-164988458D01*
X213368002Y-164988395D01*
X211947612Y-164936199D01*
X211946803Y-164936167D01*
X211761359Y-164928139D01*
X211759106Y-164928021D01*
X211366384Y-164903854D01*
X211300680Y-164880089D01*
X211258255Y-164824574D01*
X211250000Y-164780088D01*
X211250000Y-162789738D01*
X211269685Y-162722699D01*
X211273097Y-162717664D01*
X212462910Y-161051926D01*
X212517894Y-161008816D01*
X212563813Y-161000000D01*
X217436187Y-161000000D01*
X217503226Y-161019685D01*
G37*
%TD.AperFunction*%
%TD*%
%TA.AperFunction,Conductor*%
%TO.N,/EM_C_P*%
G36*
X209092505Y-62444685D02*
G01*
X209138260Y-62497489D01*
X209149466Y-62549000D01*
X209149466Y-63701000D01*
X209129781Y-63768039D01*
X209076977Y-63813794D01*
X209025466Y-63825000D01*
X207873466Y-63825000D01*
X207806427Y-63805315D01*
X207760672Y-63752511D01*
X207749466Y-63701000D01*
X207749466Y-62549000D01*
X207769151Y-62481961D01*
X207821955Y-62436206D01*
X207873466Y-62425000D01*
X209025466Y-62425000D01*
X209092505Y-62444685D01*
G37*
%TD.AperFunction*%
%TD*%
%TA.AperFunction,Conductor*%
%TO.N,/EM_A_N*%
G36*
X226525246Y-63419685D02*
G01*
X226571001Y-63472489D01*
X226582207Y-63524000D01*
X226582207Y-64676000D01*
X226562522Y-64743039D01*
X226509718Y-64788794D01*
X226458207Y-64800000D01*
X225306207Y-64800000D01*
X225239168Y-64780315D01*
X225193413Y-64727511D01*
X225182207Y-64676000D01*
X225182207Y-63524000D01*
X225201892Y-63456961D01*
X225254696Y-63411206D01*
X225306207Y-63400000D01*
X226458207Y-63400000D01*
X226525246Y-63419685D01*
G37*
%TD.AperFunction*%
%TD*%
%TA.AperFunction,Conductor*%
%TO.N,GND*%
G36*
X82503226Y-161019685D02*
G01*
X82537090Y-161051926D01*
X83726903Y-162717664D01*
X83749851Y-162783658D01*
X83750000Y-162789738D01*
X83750000Y-164770112D01*
X83730315Y-164837151D01*
X83677511Y-164882906D01*
X83633618Y-164893878D01*
X83241293Y-164918027D01*
X83239040Y-164918145D01*
X83053628Y-164926175D01*
X83052818Y-164926207D01*
X81632628Y-164978414D01*
X81630361Y-164978477D01*
X81450957Y-164981788D01*
X81450159Y-164981800D01*
X80022879Y-164998946D01*
X80020597Y-164998952D01*
X79847711Y-164997848D01*
X79846926Y-164997841D01*
X78413169Y-164979604D01*
X78410876Y-164979554D01*
X78244586Y-164974362D01*
X78243813Y-164974335D01*
X76804343Y-164920401D01*
X76802040Y-164920293D01*
X76642969Y-164911368D01*
X76642209Y-164911323D01*
X76366294Y-164894144D01*
X76300608Y-164870332D01*
X76258223Y-164814787D01*
X76250000Y-164770384D01*
X76250000Y-162789738D01*
X76269685Y-162722699D01*
X76273097Y-162717664D01*
X77462910Y-161051926D01*
X77517894Y-161008816D01*
X77563813Y-161000000D01*
X82436187Y-161000000D01*
X82503226Y-161019685D01*
G37*
%TD.AperFunction*%
%TD*%
%TA.AperFunction,Conductor*%
%TO.N,/EM_C_N*%
G36*
X199492505Y-63308225D02*
G01*
X199538260Y-63361029D01*
X199549466Y-63412540D01*
X199549466Y-64564540D01*
X199529781Y-64631579D01*
X199476977Y-64677334D01*
X199425466Y-64688540D01*
X198273466Y-64688540D01*
X198206427Y-64668855D01*
X198160672Y-64616051D01*
X198149466Y-64564540D01*
X198149466Y-63412540D01*
X198169151Y-63345501D01*
X198221955Y-63299746D01*
X198273466Y-63288540D01*
X199425466Y-63288540D01*
X199492505Y-63308225D01*
G37*
%TD.AperFunction*%
%TD*%
%TA.AperFunction,Conductor*%
%TO.N,/EM_D_P*%
G36*
X208971105Y-78521918D02*
G01*
X209016860Y-78574722D01*
X209028066Y-78626233D01*
X209028066Y-79778233D01*
X209008381Y-79845272D01*
X208955577Y-79891027D01*
X208904066Y-79902233D01*
X207752066Y-79902233D01*
X207685027Y-79882548D01*
X207639272Y-79829744D01*
X207628066Y-79778233D01*
X207628066Y-78626233D01*
X207647751Y-78559194D01*
X207700555Y-78513439D01*
X207752066Y-78502233D01*
X208904066Y-78502233D01*
X208971105Y-78521918D01*
G37*
%TD.AperFunction*%
%TD*%
%TA.AperFunction,Conductor*%
%TO.N,GND*%
G36*
X219497359Y-100128341D02*
G01*
X219541685Y-100156869D01*
X222160783Y-102779369D01*
X224551529Y-105173222D01*
X224584974Y-105234567D01*
X224579945Y-105304255D01*
X224551472Y-105348527D01*
X219842681Y-110057319D01*
X219781358Y-110090804D01*
X219711666Y-110085820D01*
X219667319Y-110057319D01*
X214651162Y-105041162D01*
X214617677Y-104979839D01*
X214622661Y-104910147D01*
X214651215Y-104865748D01*
X219366328Y-100156755D01*
X219427671Y-100123312D01*
X219497359Y-100128341D01*
G37*
%TD.AperFunction*%
%TD*%
M02*
