%TF.GenerationSoftware,KiCad,Pcbnew,10.0.0*%
%TF.CreationDate,2026-06-05T13:55:21+02:00*%
%TF.ProjectId,Maglev,4d61676c-6576-42e6-9b69-6361645f7063,rev?*%
%TF.SameCoordinates,Original*%
%TF.FileFunction,Legend,Bot*%
%TF.FilePolarity,Positive*%
%FSLAX46Y46*%
G04 Gerber Fmt 4.6, Leading zero omitted, Abs format (unit mm)*
G04 Created by KiCad (PCBNEW 10.0.0) date 2026-06-05 13:55:21*
%MOMM*%
%LPD*%
G01*
G04 APERTURE LIST*
%ADD10C,0.150000*%
%ADD11C,0.127000*%
%ADD12C,0.200000*%
%ADD13C,0.120000*%
%ADD14C,0.100000*%
G04 APERTURE END LIST*
D10*
X80889411Y-159667438D02*
X80984649Y-159619819D01*
X80984649Y-159619819D02*
X81127506Y-159619819D01*
X81127506Y-159619819D02*
X81270363Y-159667438D01*
X81270363Y-159667438D02*
X81365601Y-159762676D01*
X81365601Y-159762676D02*
X81413220Y-159857914D01*
X81413220Y-159857914D02*
X81460839Y-160048390D01*
X81460839Y-160048390D02*
X81460839Y-160191247D01*
X81460839Y-160191247D02*
X81413220Y-160381723D01*
X81413220Y-160381723D02*
X81365601Y-160476961D01*
X81365601Y-160476961D02*
X81270363Y-160572200D01*
X81270363Y-160572200D02*
X81127506Y-160619819D01*
X81127506Y-160619819D02*
X81032268Y-160619819D01*
X81032268Y-160619819D02*
X80889411Y-160572200D01*
X80889411Y-160572200D02*
X80841792Y-160524580D01*
X80841792Y-160524580D02*
X80841792Y-160191247D01*
X80841792Y-160191247D02*
X81032268Y-160191247D01*
X80413220Y-160619819D02*
X80413220Y-159619819D01*
X80413220Y-159619819D02*
X79841792Y-160619819D01*
X79841792Y-160619819D02*
X79841792Y-159619819D01*
X79365601Y-160619819D02*
X79365601Y-159619819D01*
X79365601Y-159619819D02*
X79127506Y-159619819D01*
X79127506Y-159619819D02*
X78984649Y-159667438D01*
X78984649Y-159667438D02*
X78889411Y-159762676D01*
X78889411Y-159762676D02*
X78841792Y-159857914D01*
X78841792Y-159857914D02*
X78794173Y-160048390D01*
X78794173Y-160048390D02*
X78794173Y-160191247D01*
X78794173Y-160191247D02*
X78841792Y-160381723D01*
X78841792Y-160381723D02*
X78889411Y-160476961D01*
X78889411Y-160476961D02*
X78984649Y-160572200D01*
X78984649Y-160572200D02*
X79127506Y-160619819D01*
X79127506Y-160619819D02*
X79365601Y-160619819D01*
X215889411Y-159667438D02*
X215984649Y-159619819D01*
X215984649Y-159619819D02*
X216127506Y-159619819D01*
X216127506Y-159619819D02*
X216270363Y-159667438D01*
X216270363Y-159667438D02*
X216365601Y-159762676D01*
X216365601Y-159762676D02*
X216413220Y-159857914D01*
X216413220Y-159857914D02*
X216460839Y-160048390D01*
X216460839Y-160048390D02*
X216460839Y-160191247D01*
X216460839Y-160191247D02*
X216413220Y-160381723D01*
X216413220Y-160381723D02*
X216365601Y-160476961D01*
X216365601Y-160476961D02*
X216270363Y-160572200D01*
X216270363Y-160572200D02*
X216127506Y-160619819D01*
X216127506Y-160619819D02*
X216032268Y-160619819D01*
X216032268Y-160619819D02*
X215889411Y-160572200D01*
X215889411Y-160572200D02*
X215841792Y-160524580D01*
X215841792Y-160524580D02*
X215841792Y-160191247D01*
X215841792Y-160191247D02*
X216032268Y-160191247D01*
X215413220Y-160619819D02*
X215413220Y-159619819D01*
X215413220Y-159619819D02*
X214841792Y-160619819D01*
X214841792Y-160619819D02*
X214841792Y-159619819D01*
X214365601Y-160619819D02*
X214365601Y-159619819D01*
X214365601Y-159619819D02*
X214127506Y-159619819D01*
X214127506Y-159619819D02*
X213984649Y-159667438D01*
X213984649Y-159667438D02*
X213889411Y-159762676D01*
X213889411Y-159762676D02*
X213841792Y-159857914D01*
X213841792Y-159857914D02*
X213794173Y-160048390D01*
X213794173Y-160048390D02*
X213794173Y-160191247D01*
X213794173Y-160191247D02*
X213841792Y-160381723D01*
X213841792Y-160381723D02*
X213889411Y-160476961D01*
X213889411Y-160476961D02*
X213984649Y-160572200D01*
X213984649Y-160572200D02*
X214127506Y-160619819D01*
X214127506Y-160619819D02*
X214365601Y-160619819D01*
X274667438Y-99110588D02*
X274619819Y-99015350D01*
X274619819Y-99015350D02*
X274619819Y-98872493D01*
X274619819Y-98872493D02*
X274667438Y-98729636D01*
X274667438Y-98729636D02*
X274762676Y-98634398D01*
X274762676Y-98634398D02*
X274857914Y-98586779D01*
X274857914Y-98586779D02*
X275048390Y-98539160D01*
X275048390Y-98539160D02*
X275191247Y-98539160D01*
X275191247Y-98539160D02*
X275381723Y-98586779D01*
X275381723Y-98586779D02*
X275476961Y-98634398D01*
X275476961Y-98634398D02*
X275572200Y-98729636D01*
X275572200Y-98729636D02*
X275619819Y-98872493D01*
X275619819Y-98872493D02*
X275619819Y-98967731D01*
X275619819Y-98967731D02*
X275572200Y-99110588D01*
X275572200Y-99110588D02*
X275524580Y-99158207D01*
X275524580Y-99158207D02*
X275191247Y-99158207D01*
X275191247Y-99158207D02*
X275191247Y-98967731D01*
X275619819Y-99586779D02*
X274619819Y-99586779D01*
X274619819Y-99586779D02*
X275619819Y-100158207D01*
X275619819Y-100158207D02*
X274619819Y-100158207D01*
X275619819Y-100634398D02*
X274619819Y-100634398D01*
X274619819Y-100634398D02*
X274619819Y-100872493D01*
X274619819Y-100872493D02*
X274667438Y-101015350D01*
X274667438Y-101015350D02*
X274762676Y-101110588D01*
X274762676Y-101110588D02*
X274857914Y-101158207D01*
X274857914Y-101158207D02*
X275048390Y-101205826D01*
X275048390Y-101205826D02*
X275191247Y-101205826D01*
X275191247Y-101205826D02*
X275381723Y-101158207D01*
X275381723Y-101158207D02*
X275476961Y-101110588D01*
X275476961Y-101110588D02*
X275572200Y-101015350D01*
X275572200Y-101015350D02*
X275619819Y-100872493D01*
X275619819Y-100872493D02*
X275619819Y-100634398D01*
X112215258Y-56822047D02*
X111508151Y-57529154D01*
X111844869Y-57192436D02*
X112248930Y-57596497D01*
X112619319Y-57226108D02*
X111912213Y-57933215D01*
X112720335Y-57731184D02*
X113057052Y-58067902D01*
X112855022Y-57461810D02*
X112383617Y-58404619D01*
X112383617Y-58404619D02*
X113326426Y-57933215D01*
X113898846Y-58505635D02*
X113562128Y-58168917D01*
X113562128Y-58168917D02*
X112855022Y-58876024D01*
X114471266Y-59078055D02*
X114134548Y-58741337D01*
X114134548Y-58741337D02*
X113427442Y-59448444D01*
X115245716Y-59852505D02*
X114538610Y-60559612D01*
X114908999Y-60795314D02*
X114908999Y-60862657D01*
X114908999Y-60862657D02*
X114942670Y-60963673D01*
X114942670Y-60963673D02*
X115111029Y-61132031D01*
X115111029Y-61132031D02*
X115212044Y-61165703D01*
X115212044Y-61165703D02*
X115279388Y-61165703D01*
X115279388Y-61165703D02*
X115380403Y-61132031D01*
X115380403Y-61132031D02*
X115447747Y-61064688D01*
X115447747Y-61064688D02*
X115515090Y-60930001D01*
X115515090Y-60930001D02*
X115515090Y-60121879D01*
X115515090Y-60121879D02*
X115952823Y-60559612D01*
X116592586Y-61334062D02*
X116592586Y-61266718D01*
X116592586Y-61266718D02*
X116525243Y-61132031D01*
X116525243Y-61132031D02*
X116457899Y-61064688D01*
X116457899Y-61064688D02*
X116323212Y-60997344D01*
X116323212Y-60997344D02*
X116188525Y-60997344D01*
X116188525Y-60997344D02*
X116087510Y-61031016D01*
X116087510Y-61031016D02*
X115919151Y-61132031D01*
X115919151Y-61132031D02*
X115818136Y-61233047D01*
X115818136Y-61233047D02*
X115717121Y-61401405D01*
X115717121Y-61401405D02*
X115683449Y-61502421D01*
X115683449Y-61502421D02*
X115683449Y-61637108D01*
X115683449Y-61637108D02*
X115750792Y-61771795D01*
X115750792Y-61771795D02*
X115818136Y-61839138D01*
X115818136Y-61839138D02*
X115952823Y-61906482D01*
X115952823Y-61906482D02*
X116020166Y-61906482D01*
X117838441Y-62579917D02*
X117838441Y-62512573D01*
X117838441Y-62512573D02*
X117771098Y-62377886D01*
X117771098Y-62377886D02*
X117703754Y-62310543D01*
X117703754Y-62310543D02*
X117569067Y-62243199D01*
X117569067Y-62243199D02*
X117434380Y-62243199D01*
X117434380Y-62243199D02*
X117333365Y-62276871D01*
X117333365Y-62276871D02*
X117165006Y-62377886D01*
X117165006Y-62377886D02*
X117063991Y-62478902D01*
X117063991Y-62478902D02*
X116962976Y-62647260D01*
X116962976Y-62647260D02*
X116929304Y-62748276D01*
X116929304Y-62748276D02*
X116929304Y-62882963D01*
X116929304Y-62882963D02*
X116996647Y-63017650D01*
X116996647Y-63017650D02*
X117063991Y-63084993D01*
X117063991Y-63084993D02*
X117198678Y-63152337D01*
X117198678Y-63152337D02*
X117266021Y-63152337D01*
X117636411Y-63657413D02*
X117771098Y-63792100D01*
X117771098Y-63792100D02*
X117872113Y-63825772D01*
X117872113Y-63825772D02*
X118006800Y-63825772D01*
X118006800Y-63825772D02*
X118175159Y-63724756D01*
X118175159Y-63724756D02*
X118410861Y-63489054D01*
X118410861Y-63489054D02*
X118511876Y-63320695D01*
X118511876Y-63320695D02*
X118511876Y-63186008D01*
X118511876Y-63186008D02*
X118478204Y-63084993D01*
X118478204Y-63084993D02*
X118343517Y-62950306D01*
X118343517Y-62950306D02*
X118242502Y-62916634D01*
X118242502Y-62916634D02*
X118107815Y-62916634D01*
X118107815Y-62916634D02*
X117939456Y-63017650D01*
X117939456Y-63017650D02*
X117703754Y-63253352D01*
X117703754Y-63253352D02*
X117602739Y-63421711D01*
X117602739Y-63421711D02*
X117602739Y-63556398D01*
X117602739Y-63556398D02*
X117636411Y-63657413D01*
X118949609Y-63556398D02*
X118242502Y-64263504D01*
X118242502Y-64263504D02*
X119353670Y-63960459D01*
X119353670Y-63960459D02*
X118646563Y-64667565D01*
X119690387Y-64297176D02*
X118983281Y-65004283D01*
X118983281Y-65004283D02*
X120094448Y-64701237D01*
X120094448Y-64701237D02*
X119387342Y-65408344D01*
X120060777Y-65408344D02*
X120296479Y-65644046D01*
X120767883Y-65374672D02*
X120431166Y-65037955D01*
X120431166Y-65037955D02*
X119724059Y-65745061D01*
X119724059Y-65745061D02*
X120060777Y-66081779D01*
X121407647Y-66149123D02*
X121407647Y-66081779D01*
X121407647Y-66081779D02*
X121340303Y-65947092D01*
X121340303Y-65947092D02*
X121272960Y-65879748D01*
X121272960Y-65879748D02*
X121138273Y-65812405D01*
X121138273Y-65812405D02*
X121003586Y-65812405D01*
X121003586Y-65812405D02*
X120902570Y-65846077D01*
X120902570Y-65846077D02*
X120734212Y-65947092D01*
X120734212Y-65947092D02*
X120633196Y-66048107D01*
X120633196Y-66048107D02*
X120532181Y-66216466D01*
X120532181Y-66216466D02*
X120498509Y-66317481D01*
X120498509Y-66317481D02*
X120498509Y-66452168D01*
X120498509Y-66452168D02*
X120565853Y-66586855D01*
X120565853Y-66586855D02*
X120633196Y-66654199D01*
X120633196Y-66654199D02*
X120767883Y-66721542D01*
X120767883Y-66721542D02*
X120835227Y-66721542D01*
X120969914Y-66990916D02*
X121373975Y-67394977D01*
X121879051Y-66485840D02*
X121171945Y-67192947D01*
X121744364Y-67765367D02*
X121879051Y-67900054D01*
X121879051Y-67900054D02*
X121980067Y-67933726D01*
X121980067Y-67933726D02*
X122114754Y-67933726D01*
X122114754Y-67933726D02*
X122283112Y-67832710D01*
X122283112Y-67832710D02*
X122518815Y-67597008D01*
X122518815Y-67597008D02*
X122619830Y-67428649D01*
X122619830Y-67428649D02*
X122619830Y-67293962D01*
X122619830Y-67293962D02*
X122586158Y-67192947D01*
X122586158Y-67192947D02*
X122451471Y-67058260D01*
X122451471Y-67058260D02*
X122350456Y-67024588D01*
X122350456Y-67024588D02*
X122215769Y-67024588D01*
X122215769Y-67024588D02*
X122047410Y-67125603D01*
X122047410Y-67125603D02*
X121811708Y-67361306D01*
X121811708Y-67361306D02*
X121710693Y-67529664D01*
X121710693Y-67529664D02*
X121710693Y-67664351D01*
X121710693Y-67664351D02*
X121744364Y-67765367D01*
X123461624Y-68068412D02*
X122889204Y-68169428D01*
X123057563Y-67664351D02*
X122350456Y-68371458D01*
X122350456Y-68371458D02*
X122619830Y-68640832D01*
X122619830Y-68640832D02*
X122720845Y-68674504D01*
X122720845Y-68674504D02*
X122788189Y-68674504D01*
X122788189Y-68674504D02*
X122889204Y-68640832D01*
X122889204Y-68640832D02*
X122990219Y-68539817D01*
X122990219Y-68539817D02*
X123023891Y-68438802D01*
X123023891Y-68438802D02*
X123023891Y-68371458D01*
X123023891Y-68371458D02*
X122990219Y-68270443D01*
X122990219Y-68270443D02*
X122720845Y-68001069D01*
X79110588Y-40332561D02*
X79015350Y-40380180D01*
X79015350Y-40380180D02*
X78872493Y-40380180D01*
X78872493Y-40380180D02*
X78729636Y-40332561D01*
X78729636Y-40332561D02*
X78634398Y-40237323D01*
X78634398Y-40237323D02*
X78586779Y-40142085D01*
X78586779Y-40142085D02*
X78539160Y-39951609D01*
X78539160Y-39951609D02*
X78539160Y-39808752D01*
X78539160Y-39808752D02*
X78586779Y-39618276D01*
X78586779Y-39618276D02*
X78634398Y-39523038D01*
X78634398Y-39523038D02*
X78729636Y-39427800D01*
X78729636Y-39427800D02*
X78872493Y-39380180D01*
X78872493Y-39380180D02*
X78967731Y-39380180D01*
X78967731Y-39380180D02*
X79110588Y-39427800D01*
X79110588Y-39427800D02*
X79158207Y-39475419D01*
X79158207Y-39475419D02*
X79158207Y-39808752D01*
X79158207Y-39808752D02*
X78967731Y-39808752D01*
X79586779Y-39380180D02*
X79586779Y-40380180D01*
X79586779Y-40380180D02*
X80158207Y-39380180D01*
X80158207Y-39380180D02*
X80158207Y-40380180D01*
X80634398Y-39380180D02*
X80634398Y-40380180D01*
X80634398Y-40380180D02*
X80872493Y-40380180D01*
X80872493Y-40380180D02*
X81015350Y-40332561D01*
X81015350Y-40332561D02*
X81110588Y-40237323D01*
X81110588Y-40237323D02*
X81158207Y-40142085D01*
X81158207Y-40142085D02*
X81205826Y-39951609D01*
X81205826Y-39951609D02*
X81205826Y-39808752D01*
X81205826Y-39808752D02*
X81158207Y-39618276D01*
X81158207Y-39618276D02*
X81110588Y-39523038D01*
X81110588Y-39523038D02*
X81015350Y-39427800D01*
X81015350Y-39427800D02*
X80872493Y-39380180D01*
X80872493Y-39380180D02*
X80634398Y-39380180D01*
X214110588Y-40332561D02*
X214015350Y-40380180D01*
X214015350Y-40380180D02*
X213872493Y-40380180D01*
X213872493Y-40380180D02*
X213729636Y-40332561D01*
X213729636Y-40332561D02*
X213634398Y-40237323D01*
X213634398Y-40237323D02*
X213586779Y-40142085D01*
X213586779Y-40142085D02*
X213539160Y-39951609D01*
X213539160Y-39951609D02*
X213539160Y-39808752D01*
X213539160Y-39808752D02*
X213586779Y-39618276D01*
X213586779Y-39618276D02*
X213634398Y-39523038D01*
X213634398Y-39523038D02*
X213729636Y-39427800D01*
X213729636Y-39427800D02*
X213872493Y-39380180D01*
X213872493Y-39380180D02*
X213967731Y-39380180D01*
X213967731Y-39380180D02*
X214110588Y-39427800D01*
X214110588Y-39427800D02*
X214158207Y-39475419D01*
X214158207Y-39475419D02*
X214158207Y-39808752D01*
X214158207Y-39808752D02*
X213967731Y-39808752D01*
X214586779Y-39380180D02*
X214586779Y-40380180D01*
X214586779Y-40380180D02*
X215158207Y-39380180D01*
X215158207Y-39380180D02*
X215158207Y-40380180D01*
X215634398Y-39380180D02*
X215634398Y-40380180D01*
X215634398Y-40380180D02*
X215872493Y-40380180D01*
X215872493Y-40380180D02*
X216015350Y-40332561D01*
X216015350Y-40332561D02*
X216110588Y-40237323D01*
X216110588Y-40237323D02*
X216158207Y-40142085D01*
X216158207Y-40142085D02*
X216205826Y-39951609D01*
X216205826Y-39951609D02*
X216205826Y-39808752D01*
X216205826Y-39808752D02*
X216158207Y-39618276D01*
X216158207Y-39618276D02*
X216110588Y-39523038D01*
X216110588Y-39523038D02*
X216015350Y-39427800D01*
X216015350Y-39427800D02*
X215872493Y-39380180D01*
X215872493Y-39380180D02*
X215634398Y-39380180D01*
X35917986Y-68073489D02*
X35850643Y-68073489D01*
X35850643Y-68073489D02*
X35715956Y-68140832D01*
X35715956Y-68140832D02*
X35648612Y-68208176D01*
X35648612Y-68208176D02*
X35581269Y-68342863D01*
X35581269Y-68342863D02*
X35581269Y-68477550D01*
X35581269Y-68477550D02*
X35614940Y-68578565D01*
X35614940Y-68578565D02*
X35715956Y-68746924D01*
X35715956Y-68746924D02*
X35816971Y-68847939D01*
X35816971Y-68847939D02*
X35985330Y-68948954D01*
X35985330Y-68948954D02*
X36086345Y-68982626D01*
X36086345Y-68982626D02*
X36221032Y-68982626D01*
X36221032Y-68982626D02*
X36355719Y-68915282D01*
X36355719Y-68915282D02*
X36423062Y-68847939D01*
X36423062Y-68847939D02*
X36490406Y-68713252D01*
X36490406Y-68713252D02*
X36490406Y-68645908D01*
X36995482Y-68275519D02*
X37130169Y-68140832D01*
X37130169Y-68140832D02*
X37163841Y-68039817D01*
X37163841Y-68039817D02*
X37163841Y-67905130D01*
X37163841Y-67905130D02*
X37062826Y-67736771D01*
X37062826Y-67736771D02*
X36827123Y-67501069D01*
X36827123Y-67501069D02*
X36658765Y-67400054D01*
X36658765Y-67400054D02*
X36524078Y-67400054D01*
X36524078Y-67400054D02*
X36423062Y-67433725D01*
X36423062Y-67433725D02*
X36288375Y-67568412D01*
X36288375Y-67568412D02*
X36254704Y-67669428D01*
X36254704Y-67669428D02*
X36254704Y-67804115D01*
X36254704Y-67804115D02*
X36355719Y-67972473D01*
X36355719Y-67972473D02*
X36591421Y-68208176D01*
X36591421Y-68208176D02*
X36759780Y-68309191D01*
X36759780Y-68309191D02*
X36894467Y-68309191D01*
X36894467Y-68309191D02*
X36995482Y-68275519D01*
X36894467Y-66962321D02*
X37601574Y-67669428D01*
X37567902Y-66288886D02*
X37231184Y-66625604D01*
X37231184Y-66625604D02*
X37938291Y-67332710D01*
X38342352Y-65514436D02*
X39049459Y-66221542D01*
X39049459Y-66221542D02*
X39318833Y-65952168D01*
X39318833Y-65952168D02*
X39352505Y-65851153D01*
X39352505Y-65851153D02*
X39352505Y-65783810D01*
X39352505Y-65783810D02*
X39318833Y-65682794D01*
X39318833Y-65682794D02*
X39217818Y-65581779D01*
X39217818Y-65581779D02*
X39116802Y-65548107D01*
X39116802Y-65548107D02*
X39049459Y-65548107D01*
X39049459Y-65548107D02*
X38948444Y-65581779D01*
X38948444Y-65581779D02*
X38679070Y-65851153D01*
X39891253Y-65379749D02*
X40025940Y-65245062D01*
X40025940Y-65245062D02*
X40059612Y-65144046D01*
X40059612Y-65144046D02*
X40059612Y-65009359D01*
X40059612Y-65009359D02*
X39958596Y-64841001D01*
X39958596Y-64841001D02*
X39722894Y-64605298D01*
X39722894Y-64605298D02*
X39554535Y-64504283D01*
X39554535Y-64504283D02*
X39419848Y-64504283D01*
X39419848Y-64504283D02*
X39318833Y-64537955D01*
X39318833Y-64537955D02*
X39184146Y-64672642D01*
X39184146Y-64672642D02*
X39150474Y-64773657D01*
X39150474Y-64773657D02*
X39150474Y-64908344D01*
X39150474Y-64908344D02*
X39251489Y-65076703D01*
X39251489Y-65076703D02*
X39487192Y-65312405D01*
X39487192Y-65312405D02*
X39655551Y-65413420D01*
X39655551Y-65413420D02*
X39790238Y-65413420D01*
X39790238Y-65413420D02*
X39891253Y-65379749D01*
X40430001Y-64841001D02*
X39891253Y-63965535D01*
X39891253Y-63965535D02*
X40531016Y-64335924D01*
X40531016Y-64335924D02*
X40160627Y-63696161D01*
X40160627Y-63696161D02*
X41036092Y-64234909D01*
X40968749Y-63628818D02*
X41204451Y-63393115D01*
X40935077Y-62921711D02*
X40598359Y-63258428D01*
X40598359Y-63258428D02*
X41305466Y-63965535D01*
X41305466Y-63965535D02*
X41642184Y-63628818D01*
X41642184Y-62214604D02*
X41743199Y-62787024D01*
X41238123Y-62618665D02*
X41945230Y-63325772D01*
X41945230Y-63325772D02*
X42214604Y-63056398D01*
X42214604Y-63056398D02*
X42248275Y-62955382D01*
X42248275Y-62955382D02*
X42248275Y-62888039D01*
X42248275Y-62888039D02*
X42214604Y-62787024D01*
X42214604Y-62787024D02*
X42113588Y-62686008D01*
X42113588Y-62686008D02*
X42012573Y-62652337D01*
X42012573Y-62652337D02*
X41945230Y-62652337D01*
X41945230Y-62652337D02*
X41844214Y-62686008D01*
X41844214Y-62686008D02*
X41574840Y-62955382D01*
X42955382Y-61036092D02*
X42888039Y-61036092D01*
X42888039Y-61036092D02*
X42753352Y-61103436D01*
X42753352Y-61103436D02*
X42686008Y-61170779D01*
X42686008Y-61170779D02*
X42618665Y-61305466D01*
X42618665Y-61305466D02*
X42618665Y-61440154D01*
X42618665Y-61440154D02*
X42652336Y-61541169D01*
X42652336Y-61541169D02*
X42753352Y-61709528D01*
X42753352Y-61709528D02*
X42854367Y-61810543D01*
X42854367Y-61810543D02*
X43022726Y-61911558D01*
X43022726Y-61911558D02*
X43123741Y-61945230D01*
X43123741Y-61945230D02*
X43258428Y-61945230D01*
X43258428Y-61945230D02*
X43393115Y-61877886D01*
X43393115Y-61877886D02*
X43460459Y-61810543D01*
X43460459Y-61810543D02*
X43527802Y-61675856D01*
X43527802Y-61675856D02*
X43527802Y-61608512D01*
X44032878Y-61238123D02*
X44167565Y-61103436D01*
X44167565Y-61103436D02*
X44201237Y-61002421D01*
X44201237Y-61002421D02*
X44201237Y-60867734D01*
X44201237Y-60867734D02*
X44100222Y-60699375D01*
X44100222Y-60699375D02*
X43864520Y-60463673D01*
X43864520Y-60463673D02*
X43696161Y-60362657D01*
X43696161Y-60362657D02*
X43561474Y-60362657D01*
X43561474Y-60362657D02*
X43460459Y-60396329D01*
X43460459Y-60396329D02*
X43325772Y-60531016D01*
X43325772Y-60531016D02*
X43292100Y-60632031D01*
X43292100Y-60632031D02*
X43292100Y-60766718D01*
X43292100Y-60766718D02*
X43393115Y-60935077D01*
X43393115Y-60935077D02*
X43628817Y-61170779D01*
X43628817Y-61170779D02*
X43797176Y-61271795D01*
X43797176Y-61271795D02*
X43931863Y-61271795D01*
X43931863Y-61271795D02*
X44032878Y-61238123D01*
X43931863Y-59924925D02*
X44638970Y-60632032D01*
X44638970Y-60632032D02*
X44335924Y-59520864D01*
X44335924Y-59520864D02*
X45043031Y-60227970D01*
X44672642Y-59184146D02*
X45379748Y-59891253D01*
X45379748Y-59891253D02*
X45076703Y-58780085D01*
X45076703Y-58780085D02*
X45783809Y-59487192D01*
X45783809Y-58813757D02*
X46019512Y-58578055D01*
X45750138Y-58106650D02*
X45413420Y-58443368D01*
X45413420Y-58443368D02*
X46120527Y-59150475D01*
X46120527Y-59150475D02*
X46457244Y-58813757D01*
X46524588Y-57466887D02*
X46457244Y-57466887D01*
X46457244Y-57466887D02*
X46322557Y-57534230D01*
X46322557Y-57534230D02*
X46255214Y-57601574D01*
X46255214Y-57601574D02*
X46187870Y-57736261D01*
X46187870Y-57736261D02*
X46187870Y-57870948D01*
X46187870Y-57870948D02*
X46221542Y-57971963D01*
X46221542Y-57971963D02*
X46322557Y-58140322D01*
X46322557Y-58140322D02*
X46423573Y-58241337D01*
X46423573Y-58241337D02*
X46591931Y-58342352D01*
X46591931Y-58342352D02*
X46692947Y-58376024D01*
X46692947Y-58376024D02*
X46827634Y-58376024D01*
X46827634Y-58376024D02*
X46962321Y-58308681D01*
X46962321Y-58308681D02*
X47029664Y-58241337D01*
X47029664Y-58241337D02*
X47097008Y-58106650D01*
X47097008Y-58106650D02*
X47097008Y-58039307D01*
X47366382Y-57904620D02*
X47770443Y-57500559D01*
X46861305Y-56995482D02*
X47568412Y-57702589D01*
X48140832Y-57130169D02*
X48275519Y-56995482D01*
X48275519Y-56995482D02*
X48309191Y-56894467D01*
X48309191Y-56894467D02*
X48309191Y-56759780D01*
X48309191Y-56759780D02*
X48208176Y-56591421D01*
X48208176Y-56591421D02*
X47972473Y-56355719D01*
X47972473Y-56355719D02*
X47804115Y-56254704D01*
X47804115Y-56254704D02*
X47669428Y-56254704D01*
X47669428Y-56254704D02*
X47568412Y-56288375D01*
X47568412Y-56288375D02*
X47433725Y-56423062D01*
X47433725Y-56423062D02*
X47400054Y-56524078D01*
X47400054Y-56524078D02*
X47400054Y-56658765D01*
X47400054Y-56658765D02*
X47501069Y-56827123D01*
X47501069Y-56827123D02*
X47736771Y-57062826D01*
X47736771Y-57062826D02*
X47905130Y-57163841D01*
X47905130Y-57163841D02*
X48039817Y-57163841D01*
X48039817Y-57163841D02*
X48140832Y-57130169D01*
X48443878Y-55412910D02*
X48544893Y-55985330D01*
X48039817Y-55816971D02*
X48746924Y-56524078D01*
X48746924Y-56524078D02*
X49016298Y-56254704D01*
X49016298Y-56254704D02*
X49049969Y-56153688D01*
X49049969Y-56153688D02*
X49049969Y-56086345D01*
X49049969Y-56086345D02*
X49016298Y-55985330D01*
X49016298Y-55985330D02*
X48915282Y-55884314D01*
X48915282Y-55884314D02*
X48814267Y-55850643D01*
X48814267Y-55850643D02*
X48746924Y-55850643D01*
X48746924Y-55850643D02*
X48645908Y-55884314D01*
X48645908Y-55884314D02*
X48376534Y-56153688D01*
X20332561Y-100889411D02*
X20380180Y-100984649D01*
X20380180Y-100984649D02*
X20380180Y-101127506D01*
X20380180Y-101127506D02*
X20332561Y-101270363D01*
X20332561Y-101270363D02*
X20237323Y-101365601D01*
X20237323Y-101365601D02*
X20142085Y-101413220D01*
X20142085Y-101413220D02*
X19951609Y-101460839D01*
X19951609Y-101460839D02*
X19808752Y-101460839D01*
X19808752Y-101460839D02*
X19618276Y-101413220D01*
X19618276Y-101413220D02*
X19523038Y-101365601D01*
X19523038Y-101365601D02*
X19427800Y-101270363D01*
X19427800Y-101270363D02*
X19380180Y-101127506D01*
X19380180Y-101127506D02*
X19380180Y-101032268D01*
X19380180Y-101032268D02*
X19427800Y-100889411D01*
X19427800Y-100889411D02*
X19475419Y-100841792D01*
X19475419Y-100841792D02*
X19808752Y-100841792D01*
X19808752Y-100841792D02*
X19808752Y-101032268D01*
X19380180Y-100413220D02*
X20380180Y-100413220D01*
X20380180Y-100413220D02*
X19380180Y-99841792D01*
X19380180Y-99841792D02*
X20380180Y-99841792D01*
X19380180Y-99365601D02*
X20380180Y-99365601D01*
X20380180Y-99365601D02*
X20380180Y-99127506D01*
X20380180Y-99127506D02*
X20332561Y-98984649D01*
X20332561Y-98984649D02*
X20237323Y-98889411D01*
X20237323Y-98889411D02*
X20142085Y-98841792D01*
X20142085Y-98841792D02*
X19951609Y-98794173D01*
X19951609Y-98794173D02*
X19808752Y-98794173D01*
X19808752Y-98794173D02*
X19618276Y-98841792D01*
X19618276Y-98841792D02*
X19523038Y-98889411D01*
X19523038Y-98889411D02*
X19427800Y-98984649D01*
X19427800Y-98984649D02*
X19380180Y-99127506D01*
X19380180Y-99127506D02*
X19380180Y-99365601D01*
X71545180Y-100166666D02*
X71545180Y-100642856D01*
X71545180Y-100642856D02*
X72545180Y-100642856D01*
X72449942Y-99880951D02*
X72497561Y-99833332D01*
X72497561Y-99833332D02*
X72545180Y-99738094D01*
X72545180Y-99738094D02*
X72545180Y-99499999D01*
X72545180Y-99499999D02*
X72497561Y-99404761D01*
X72497561Y-99404761D02*
X72449942Y-99357142D01*
X72449942Y-99357142D02*
X72354704Y-99309523D01*
X72354704Y-99309523D02*
X72259466Y-99309523D01*
X72259466Y-99309523D02*
X72116609Y-99357142D01*
X72116609Y-99357142D02*
X71545180Y-99928570D01*
X71545180Y-99928570D02*
X71545180Y-99309523D01*
X206317589Y-72760480D02*
X206050923Y-72760480D01*
X205936637Y-73179528D02*
X206317589Y-73179528D01*
X206317589Y-73179528D02*
X206317589Y-72379528D01*
X206317589Y-72379528D02*
X205936637Y-72379528D01*
X205593779Y-73179528D02*
X205593779Y-72379528D01*
X205593779Y-72379528D02*
X205327113Y-72950956D01*
X205327113Y-72950956D02*
X205060446Y-72379528D01*
X205060446Y-72379528D02*
X205060446Y-73179528D01*
X204679493Y-73179528D02*
X204679493Y-72379528D01*
X204679493Y-72379528D02*
X204489017Y-72379528D01*
X204489017Y-72379528D02*
X204374731Y-72417623D01*
X204374731Y-72417623D02*
X204298541Y-72493813D01*
X204298541Y-72493813D02*
X204260446Y-72570004D01*
X204260446Y-72570004D02*
X204222350Y-72722385D01*
X204222350Y-72722385D02*
X204222350Y-72836671D01*
X204222350Y-72836671D02*
X204260446Y-72989052D01*
X204260446Y-72989052D02*
X204298541Y-73065242D01*
X204298541Y-73065242D02*
X204374731Y-73141433D01*
X204374731Y-73141433D02*
X204489017Y-73179528D01*
X204489017Y-73179528D02*
X204679493Y-73179528D01*
X203460446Y-73179528D02*
X203917589Y-73179528D01*
X203689017Y-73179528D02*
X203689017Y-72379528D01*
X203689017Y-72379528D02*
X203765208Y-72493813D01*
X203765208Y-72493813D02*
X203841398Y-72570004D01*
X203841398Y-72570004D02*
X203917589Y-72608099D01*
X252266715Y-112886572D02*
X253164741Y-111988546D01*
X251411453Y-111860257D02*
X251411453Y-111945783D01*
X251411453Y-111945783D02*
X251496979Y-112116836D01*
X251496979Y-112116836D02*
X251582505Y-112202362D01*
X251582505Y-112202362D02*
X251753558Y-112287888D01*
X251753558Y-112287888D02*
X251924610Y-112287888D01*
X251924610Y-112287888D02*
X252052900Y-112245125D01*
X252052900Y-112245125D02*
X252266715Y-112116836D01*
X252266715Y-112116836D02*
X252395005Y-111988546D01*
X252395005Y-111988546D02*
X252523294Y-111774731D01*
X252523294Y-111774731D02*
X252566057Y-111646441D01*
X252566057Y-111646441D02*
X252566057Y-111475389D01*
X252566057Y-111475389D02*
X252480531Y-111304336D01*
X252480531Y-111304336D02*
X252395005Y-111218810D01*
X252395005Y-111218810D02*
X252223952Y-111133284D01*
X252223952Y-111133284D02*
X252138426Y-111133284D01*
X250470664Y-111090521D02*
X250983822Y-111603678D01*
X250727243Y-111347099D02*
X251625268Y-110449074D01*
X251625268Y-110449074D02*
X251582505Y-110662889D01*
X251582505Y-110662889D02*
X251582505Y-110833942D01*
X251582505Y-110833942D02*
X251625268Y-110962231D01*
X215741904Y-94864819D02*
X215741904Y-95674342D01*
X215741904Y-95674342D02*
X215694285Y-95769580D01*
X215694285Y-95769580D02*
X215646666Y-95817200D01*
X215646666Y-95817200D02*
X215551428Y-95864819D01*
X215551428Y-95864819D02*
X215360952Y-95864819D01*
X215360952Y-95864819D02*
X215265714Y-95817200D01*
X215265714Y-95817200D02*
X215218095Y-95769580D01*
X215218095Y-95769580D02*
X215170476Y-95674342D01*
X215170476Y-95674342D02*
X215170476Y-94864819D01*
X214741904Y-94960057D02*
X214694285Y-94912438D01*
X214694285Y-94912438D02*
X214599047Y-94864819D01*
X214599047Y-94864819D02*
X214360952Y-94864819D01*
X214360952Y-94864819D02*
X214265714Y-94912438D01*
X214265714Y-94912438D02*
X214218095Y-94960057D01*
X214218095Y-94960057D02*
X214170476Y-95055295D01*
X214170476Y-95055295D02*
X214170476Y-95150533D01*
X214170476Y-95150533D02*
X214218095Y-95293390D01*
X214218095Y-95293390D02*
X214789523Y-95864819D01*
X214789523Y-95864819D02*
X214170476Y-95864819D01*
X187316927Y-148277217D02*
X187843698Y-148031491D01*
X187811799Y-148562932D02*
X188311799Y-147696906D01*
X188311799Y-147696906D02*
X187981884Y-147506430D01*
X187981884Y-147506430D02*
X187875596Y-147500050D01*
X187875596Y-147500050D02*
X187810547Y-147517480D01*
X187810547Y-147517480D02*
X187721689Y-147576149D01*
X187721689Y-147576149D02*
X187650260Y-147699867D01*
X187650260Y-147699867D02*
X187643881Y-147806155D01*
X187643881Y-147806155D02*
X187661311Y-147871204D01*
X187661311Y-147871204D02*
X187719980Y-147960062D01*
X187719980Y-147960062D02*
X188049894Y-148150539D01*
X186907953Y-147271296D02*
X186574620Y-147848646D01*
X187304626Y-147060429D02*
X187153679Y-147798066D01*
X187153679Y-147798066D02*
X186617568Y-147488542D01*
X257906245Y-141099456D02*
X258478664Y-140998441D01*
X258310306Y-141503517D02*
X259017412Y-140796410D01*
X259017412Y-140796410D02*
X258748038Y-140527036D01*
X258748038Y-140527036D02*
X258647023Y-140493364D01*
X258647023Y-140493364D02*
X258579680Y-140493364D01*
X258579680Y-140493364D02*
X258478664Y-140527036D01*
X258478664Y-140527036D02*
X258377649Y-140628051D01*
X258377649Y-140628051D02*
X258343977Y-140729067D01*
X258343977Y-140729067D02*
X258343977Y-140796410D01*
X258343977Y-140796410D02*
X258377649Y-140897425D01*
X258377649Y-140897425D02*
X258647023Y-141166799D01*
X257232810Y-140426021D02*
X257636871Y-140830082D01*
X257434840Y-140628051D02*
X258141947Y-139920945D01*
X258141947Y-139920945D02*
X258108275Y-140089303D01*
X258108275Y-140089303D02*
X258108275Y-140223990D01*
X258108275Y-140223990D02*
X258141947Y-140325006D01*
X201042857Y-69154819D02*
X201376190Y-68678628D01*
X201614285Y-69154819D02*
X201614285Y-68154819D01*
X201614285Y-68154819D02*
X201233333Y-68154819D01*
X201233333Y-68154819D02*
X201138095Y-68202438D01*
X201138095Y-68202438D02*
X201090476Y-68250057D01*
X201090476Y-68250057D02*
X201042857Y-68345295D01*
X201042857Y-68345295D02*
X201042857Y-68488152D01*
X201042857Y-68488152D02*
X201090476Y-68583390D01*
X201090476Y-68583390D02*
X201138095Y-68631009D01*
X201138095Y-68631009D02*
X201233333Y-68678628D01*
X201233333Y-68678628D02*
X201614285Y-68678628D01*
X200661904Y-68250057D02*
X200614285Y-68202438D01*
X200614285Y-68202438D02*
X200519047Y-68154819D01*
X200519047Y-68154819D02*
X200280952Y-68154819D01*
X200280952Y-68154819D02*
X200185714Y-68202438D01*
X200185714Y-68202438D02*
X200138095Y-68250057D01*
X200138095Y-68250057D02*
X200090476Y-68345295D01*
X200090476Y-68345295D02*
X200090476Y-68440533D01*
X200090476Y-68440533D02*
X200138095Y-68583390D01*
X200138095Y-68583390D02*
X200709523Y-69154819D01*
X200709523Y-69154819D02*
X200090476Y-69154819D01*
X199233333Y-68154819D02*
X199423809Y-68154819D01*
X199423809Y-68154819D02*
X199519047Y-68202438D01*
X199519047Y-68202438D02*
X199566666Y-68250057D01*
X199566666Y-68250057D02*
X199661904Y-68392914D01*
X199661904Y-68392914D02*
X199709523Y-68583390D01*
X199709523Y-68583390D02*
X199709523Y-68964342D01*
X199709523Y-68964342D02*
X199661904Y-69059580D01*
X199661904Y-69059580D02*
X199614285Y-69107200D01*
X199614285Y-69107200D02*
X199519047Y-69154819D01*
X199519047Y-69154819D02*
X199328571Y-69154819D01*
X199328571Y-69154819D02*
X199233333Y-69107200D01*
X199233333Y-69107200D02*
X199185714Y-69059580D01*
X199185714Y-69059580D02*
X199138095Y-68964342D01*
X199138095Y-68964342D02*
X199138095Y-68726247D01*
X199138095Y-68726247D02*
X199185714Y-68631009D01*
X199185714Y-68631009D02*
X199233333Y-68583390D01*
X199233333Y-68583390D02*
X199328571Y-68535771D01*
X199328571Y-68535771D02*
X199519047Y-68535771D01*
X199519047Y-68535771D02*
X199614285Y-68583390D01*
X199614285Y-68583390D02*
X199661904Y-68631009D01*
X199661904Y-68631009D02*
X199709523Y-68726247D01*
X239322871Y-78567857D02*
X239799062Y-78901190D01*
X239322871Y-79139285D02*
X240322871Y-79139285D01*
X240322871Y-79139285D02*
X240322871Y-78758333D01*
X240322871Y-78758333D02*
X240275252Y-78663095D01*
X240275252Y-78663095D02*
X240227633Y-78615476D01*
X240227633Y-78615476D02*
X240132395Y-78567857D01*
X240132395Y-78567857D02*
X239989538Y-78567857D01*
X239989538Y-78567857D02*
X239894300Y-78615476D01*
X239894300Y-78615476D02*
X239846681Y-78663095D01*
X239846681Y-78663095D02*
X239799062Y-78758333D01*
X239799062Y-78758333D02*
X239799062Y-79139285D01*
X239322871Y-77615476D02*
X239322871Y-78186904D01*
X239322871Y-77901190D02*
X240322871Y-77901190D01*
X240322871Y-77901190D02*
X240180014Y-77996428D01*
X240180014Y-77996428D02*
X240084776Y-78091666D01*
X240084776Y-78091666D02*
X240037157Y-78186904D01*
X240322871Y-76758333D02*
X240322871Y-76948809D01*
X240322871Y-76948809D02*
X240275252Y-77044047D01*
X240275252Y-77044047D02*
X240227633Y-77091666D01*
X240227633Y-77091666D02*
X240084776Y-77186904D01*
X240084776Y-77186904D02*
X239894300Y-77234523D01*
X239894300Y-77234523D02*
X239513348Y-77234523D01*
X239513348Y-77234523D02*
X239418110Y-77186904D01*
X239418110Y-77186904D02*
X239370491Y-77139285D01*
X239370491Y-77139285D02*
X239322871Y-77044047D01*
X239322871Y-77044047D02*
X239322871Y-76853571D01*
X239322871Y-76853571D02*
X239370491Y-76758333D01*
X239370491Y-76758333D02*
X239418110Y-76710714D01*
X239418110Y-76710714D02*
X239513348Y-76663095D01*
X239513348Y-76663095D02*
X239751443Y-76663095D01*
X239751443Y-76663095D02*
X239846681Y-76710714D01*
X239846681Y-76710714D02*
X239894300Y-76758333D01*
X239894300Y-76758333D02*
X239941919Y-76853571D01*
X239941919Y-76853571D02*
X239941919Y-77044047D01*
X239941919Y-77044047D02*
X239894300Y-77139285D01*
X239894300Y-77139285D02*
X239846681Y-77186904D01*
X239846681Y-77186904D02*
X239751443Y-77234523D01*
X22192800Y-100761904D02*
X22145180Y-100619047D01*
X22145180Y-100619047D02*
X22145180Y-100380952D01*
X22145180Y-100380952D02*
X22192800Y-100285714D01*
X22192800Y-100285714D02*
X22240419Y-100238095D01*
X22240419Y-100238095D02*
X22335657Y-100190476D01*
X22335657Y-100190476D02*
X22430895Y-100190476D01*
X22430895Y-100190476D02*
X22526133Y-100238095D01*
X22526133Y-100238095D02*
X22573752Y-100285714D01*
X22573752Y-100285714D02*
X22621371Y-100380952D01*
X22621371Y-100380952D02*
X22668990Y-100571428D01*
X22668990Y-100571428D02*
X22716609Y-100666666D01*
X22716609Y-100666666D02*
X22764228Y-100714285D01*
X22764228Y-100714285D02*
X22859466Y-100761904D01*
X22859466Y-100761904D02*
X22954704Y-100761904D01*
X22954704Y-100761904D02*
X23049942Y-100714285D01*
X23049942Y-100714285D02*
X23097561Y-100666666D01*
X23097561Y-100666666D02*
X23145180Y-100571428D01*
X23145180Y-100571428D02*
X23145180Y-100333333D01*
X23145180Y-100333333D02*
X23097561Y-100190476D01*
X23145180Y-99333333D02*
X23145180Y-99523809D01*
X23145180Y-99523809D02*
X23097561Y-99619047D01*
X23097561Y-99619047D02*
X23049942Y-99666666D01*
X23049942Y-99666666D02*
X22907085Y-99761904D01*
X22907085Y-99761904D02*
X22716609Y-99809523D01*
X22716609Y-99809523D02*
X22335657Y-99809523D01*
X22335657Y-99809523D02*
X22240419Y-99761904D01*
X22240419Y-99761904D02*
X22192800Y-99714285D01*
X22192800Y-99714285D02*
X22145180Y-99619047D01*
X22145180Y-99619047D02*
X22145180Y-99428571D01*
X22145180Y-99428571D02*
X22192800Y-99333333D01*
X22192800Y-99333333D02*
X22240419Y-99285714D01*
X22240419Y-99285714D02*
X22335657Y-99238095D01*
X22335657Y-99238095D02*
X22573752Y-99238095D01*
X22573752Y-99238095D02*
X22668990Y-99285714D01*
X22668990Y-99285714D02*
X22716609Y-99333333D01*
X22716609Y-99333333D02*
X22764228Y-99428571D01*
X22764228Y-99428571D02*
X22764228Y-99619047D01*
X22764228Y-99619047D02*
X22716609Y-99714285D01*
X22716609Y-99714285D02*
X22668990Y-99761904D01*
X22668990Y-99761904D02*
X22573752Y-99809523D01*
X94939456Y-85703754D02*
X94838441Y-85131335D01*
X95343517Y-85299693D02*
X94636410Y-84592587D01*
X94636410Y-84592587D02*
X94367036Y-84861961D01*
X94367036Y-84861961D02*
X94333364Y-84962976D01*
X94333364Y-84962976D02*
X94333364Y-85030319D01*
X94333364Y-85030319D02*
X94367036Y-85131335D01*
X94367036Y-85131335D02*
X94468051Y-85232350D01*
X94468051Y-85232350D02*
X94569067Y-85266022D01*
X94569067Y-85266022D02*
X94636410Y-85266022D01*
X94636410Y-85266022D02*
X94737425Y-85232350D01*
X94737425Y-85232350D02*
X95006799Y-84962976D01*
X94602738Y-86040472D02*
X94468051Y-86175159D01*
X94468051Y-86175159D02*
X94367036Y-86208831D01*
X94367036Y-86208831D02*
X94299693Y-86208831D01*
X94299693Y-86208831D02*
X94131334Y-86175159D01*
X94131334Y-86175159D02*
X93962975Y-86074144D01*
X93962975Y-86074144D02*
X93693601Y-85804770D01*
X93693601Y-85804770D02*
X93659929Y-85703754D01*
X93659929Y-85703754D02*
X93659929Y-85636411D01*
X93659929Y-85636411D02*
X93693601Y-85535396D01*
X93693601Y-85535396D02*
X93828288Y-85400709D01*
X93828288Y-85400709D02*
X93929303Y-85367037D01*
X93929303Y-85367037D02*
X93996647Y-85367037D01*
X93996647Y-85367037D02*
X94097662Y-85400709D01*
X94097662Y-85400709D02*
X94266021Y-85569067D01*
X94266021Y-85569067D02*
X94299693Y-85670083D01*
X94299693Y-85670083D02*
X94299693Y-85737426D01*
X94299693Y-85737426D02*
X94266021Y-85838441D01*
X94266021Y-85838441D02*
X94131334Y-85973128D01*
X94131334Y-85973128D02*
X94030319Y-86006800D01*
X94030319Y-86006800D02*
X93962975Y-86006800D01*
X93962975Y-86006800D02*
X93861960Y-85973128D01*
X218084819Y-103006054D02*
X218421537Y-103342772D01*
X217950132Y-102399963D02*
X218084819Y-103006054D01*
X218084819Y-103006054D02*
X217478728Y-102871367D01*
X217579743Y-104184565D02*
X217983804Y-103780504D01*
X217781773Y-103982535D02*
X217074667Y-103275428D01*
X217074667Y-103275428D02*
X217243025Y-103309100D01*
X217243025Y-103309100D02*
X217377712Y-103309100D01*
X217377712Y-103309100D02*
X217478728Y-103275428D01*
X227874863Y-85250934D02*
X228208196Y-84774743D01*
X228446291Y-85250934D02*
X228446291Y-84250934D01*
X228446291Y-84250934D02*
X228065339Y-84250934D01*
X228065339Y-84250934D02*
X227970101Y-84298553D01*
X227970101Y-84298553D02*
X227922482Y-84346172D01*
X227922482Y-84346172D02*
X227874863Y-84441410D01*
X227874863Y-84441410D02*
X227874863Y-84584267D01*
X227874863Y-84584267D02*
X227922482Y-84679505D01*
X227922482Y-84679505D02*
X227970101Y-84727124D01*
X227970101Y-84727124D02*
X228065339Y-84774743D01*
X228065339Y-84774743D02*
X228446291Y-84774743D01*
X227541529Y-84250934D02*
X226922482Y-84250934D01*
X226922482Y-84250934D02*
X227255815Y-84631886D01*
X227255815Y-84631886D02*
X227112958Y-84631886D01*
X227112958Y-84631886D02*
X227017720Y-84679505D01*
X227017720Y-84679505D02*
X226970101Y-84727124D01*
X226970101Y-84727124D02*
X226922482Y-84822362D01*
X226922482Y-84822362D02*
X226922482Y-85060457D01*
X226922482Y-85060457D02*
X226970101Y-85155695D01*
X226970101Y-85155695D02*
X227017720Y-85203315D01*
X227017720Y-85203315D02*
X227112958Y-85250934D01*
X227112958Y-85250934D02*
X227398672Y-85250934D01*
X227398672Y-85250934D02*
X227493910Y-85203315D01*
X227493910Y-85203315D02*
X227541529Y-85155695D01*
X225970101Y-85250934D02*
X226541529Y-85250934D01*
X226255815Y-85250934D02*
X226255815Y-84250934D01*
X226255815Y-84250934D02*
X226351053Y-84393791D01*
X226351053Y-84393791D02*
X226446291Y-84489029D01*
X226446291Y-84489029D02*
X226541529Y-84536648D01*
X218442857Y-84459580D02*
X218490476Y-84507200D01*
X218490476Y-84507200D02*
X218633333Y-84554819D01*
X218633333Y-84554819D02*
X218728571Y-84554819D01*
X218728571Y-84554819D02*
X218871428Y-84507200D01*
X218871428Y-84507200D02*
X218966666Y-84411961D01*
X218966666Y-84411961D02*
X219014285Y-84316723D01*
X219014285Y-84316723D02*
X219061904Y-84126247D01*
X219061904Y-84126247D02*
X219061904Y-83983390D01*
X219061904Y-83983390D02*
X219014285Y-83792914D01*
X219014285Y-83792914D02*
X218966666Y-83697676D01*
X218966666Y-83697676D02*
X218871428Y-83602438D01*
X218871428Y-83602438D02*
X218728571Y-83554819D01*
X218728571Y-83554819D02*
X218633333Y-83554819D01*
X218633333Y-83554819D02*
X218490476Y-83602438D01*
X218490476Y-83602438D02*
X218442857Y-83650057D01*
X217490476Y-84554819D02*
X218061904Y-84554819D01*
X217776190Y-84554819D02*
X217776190Y-83554819D01*
X217776190Y-83554819D02*
X217871428Y-83697676D01*
X217871428Y-83697676D02*
X217966666Y-83792914D01*
X217966666Y-83792914D02*
X218061904Y-83840533D01*
X216919047Y-83983390D02*
X217014285Y-83935771D01*
X217014285Y-83935771D02*
X217061904Y-83888152D01*
X217061904Y-83888152D02*
X217109523Y-83792914D01*
X217109523Y-83792914D02*
X217109523Y-83745295D01*
X217109523Y-83745295D02*
X217061904Y-83650057D01*
X217061904Y-83650057D02*
X217014285Y-83602438D01*
X217014285Y-83602438D02*
X216919047Y-83554819D01*
X216919047Y-83554819D02*
X216728571Y-83554819D01*
X216728571Y-83554819D02*
X216633333Y-83602438D01*
X216633333Y-83602438D02*
X216585714Y-83650057D01*
X216585714Y-83650057D02*
X216538095Y-83745295D01*
X216538095Y-83745295D02*
X216538095Y-83792914D01*
X216538095Y-83792914D02*
X216585714Y-83888152D01*
X216585714Y-83888152D02*
X216633333Y-83935771D01*
X216633333Y-83935771D02*
X216728571Y-83983390D01*
X216728571Y-83983390D02*
X216919047Y-83983390D01*
X216919047Y-83983390D02*
X217014285Y-84031009D01*
X217014285Y-84031009D02*
X217061904Y-84078628D01*
X217061904Y-84078628D02*
X217109523Y-84173866D01*
X217109523Y-84173866D02*
X217109523Y-84364342D01*
X217109523Y-84364342D02*
X217061904Y-84459580D01*
X217061904Y-84459580D02*
X217014285Y-84507200D01*
X217014285Y-84507200D02*
X216919047Y-84554819D01*
X216919047Y-84554819D02*
X216728571Y-84554819D01*
X216728571Y-84554819D02*
X216633333Y-84507200D01*
X216633333Y-84507200D02*
X216585714Y-84459580D01*
X216585714Y-84459580D02*
X216538095Y-84364342D01*
X216538095Y-84364342D02*
X216538095Y-84173866D01*
X216538095Y-84173866D02*
X216585714Y-84078628D01*
X216585714Y-84078628D02*
X216633333Y-84031009D01*
X216633333Y-84031009D02*
X216728571Y-83983390D01*
X202720180Y-66342857D02*
X203196371Y-66676190D01*
X202720180Y-66914285D02*
X203720180Y-66914285D01*
X203720180Y-66914285D02*
X203720180Y-66533333D01*
X203720180Y-66533333D02*
X203672561Y-66438095D01*
X203672561Y-66438095D02*
X203624942Y-66390476D01*
X203624942Y-66390476D02*
X203529704Y-66342857D01*
X203529704Y-66342857D02*
X203386847Y-66342857D01*
X203386847Y-66342857D02*
X203291609Y-66390476D01*
X203291609Y-66390476D02*
X203243990Y-66438095D01*
X203243990Y-66438095D02*
X203196371Y-66533333D01*
X203196371Y-66533333D02*
X203196371Y-66914285D01*
X203624942Y-65961904D02*
X203672561Y-65914285D01*
X203672561Y-65914285D02*
X203720180Y-65819047D01*
X203720180Y-65819047D02*
X203720180Y-65580952D01*
X203720180Y-65580952D02*
X203672561Y-65485714D01*
X203672561Y-65485714D02*
X203624942Y-65438095D01*
X203624942Y-65438095D02*
X203529704Y-65390476D01*
X203529704Y-65390476D02*
X203434466Y-65390476D01*
X203434466Y-65390476D02*
X203291609Y-65438095D01*
X203291609Y-65438095D02*
X202720180Y-66009523D01*
X202720180Y-66009523D02*
X202720180Y-65390476D01*
X202720180Y-64914285D02*
X202720180Y-64723809D01*
X202720180Y-64723809D02*
X202767800Y-64628571D01*
X202767800Y-64628571D02*
X202815419Y-64580952D01*
X202815419Y-64580952D02*
X202958276Y-64485714D01*
X202958276Y-64485714D02*
X203148752Y-64438095D01*
X203148752Y-64438095D02*
X203529704Y-64438095D01*
X203529704Y-64438095D02*
X203624942Y-64485714D01*
X203624942Y-64485714D02*
X203672561Y-64533333D01*
X203672561Y-64533333D02*
X203720180Y-64628571D01*
X203720180Y-64628571D02*
X203720180Y-64819047D01*
X203720180Y-64819047D02*
X203672561Y-64914285D01*
X203672561Y-64914285D02*
X203624942Y-64961904D01*
X203624942Y-64961904D02*
X203529704Y-65009523D01*
X203529704Y-65009523D02*
X203291609Y-65009523D01*
X203291609Y-65009523D02*
X203196371Y-64961904D01*
X203196371Y-64961904D02*
X203148752Y-64914285D01*
X203148752Y-64914285D02*
X203101133Y-64819047D01*
X203101133Y-64819047D02*
X203101133Y-64628571D01*
X203101133Y-64628571D02*
X203148752Y-64533333D01*
X203148752Y-64533333D02*
X203196371Y-64485714D01*
X203196371Y-64485714D02*
X203291609Y-64438095D01*
X212345180Y-62492857D02*
X212821371Y-62826190D01*
X212345180Y-63064285D02*
X213345180Y-63064285D01*
X213345180Y-63064285D02*
X213345180Y-62683333D01*
X213345180Y-62683333D02*
X213297561Y-62588095D01*
X213297561Y-62588095D02*
X213249942Y-62540476D01*
X213249942Y-62540476D02*
X213154704Y-62492857D01*
X213154704Y-62492857D02*
X213011847Y-62492857D01*
X213011847Y-62492857D02*
X212916609Y-62540476D01*
X212916609Y-62540476D02*
X212868990Y-62588095D01*
X212868990Y-62588095D02*
X212821371Y-62683333D01*
X212821371Y-62683333D02*
X212821371Y-63064285D01*
X212345180Y-61540476D02*
X212345180Y-62111904D01*
X212345180Y-61826190D02*
X213345180Y-61826190D01*
X213345180Y-61826190D02*
X213202323Y-61921428D01*
X213202323Y-61921428D02*
X213107085Y-62016666D01*
X213107085Y-62016666D02*
X213059466Y-62111904D01*
X213345180Y-61207142D02*
X213345180Y-60588095D01*
X213345180Y-60588095D02*
X212964228Y-60921428D01*
X212964228Y-60921428D02*
X212964228Y-60778571D01*
X212964228Y-60778571D02*
X212916609Y-60683333D01*
X212916609Y-60683333D02*
X212868990Y-60635714D01*
X212868990Y-60635714D02*
X212773752Y-60588095D01*
X212773752Y-60588095D02*
X212535657Y-60588095D01*
X212535657Y-60588095D02*
X212440419Y-60635714D01*
X212440419Y-60635714D02*
X212392800Y-60683333D01*
X212392800Y-60683333D02*
X212345180Y-60778571D01*
X212345180Y-60778571D02*
X212345180Y-61064285D01*
X212345180Y-61064285D02*
X212392800Y-61159523D01*
X212392800Y-61159523D02*
X212440419Y-61207142D01*
X80761904Y-157807200D02*
X80619047Y-157854819D01*
X80619047Y-157854819D02*
X80380952Y-157854819D01*
X80380952Y-157854819D02*
X80285714Y-157807200D01*
X80285714Y-157807200D02*
X80238095Y-157759580D01*
X80238095Y-157759580D02*
X80190476Y-157664342D01*
X80190476Y-157664342D02*
X80190476Y-157569104D01*
X80190476Y-157569104D02*
X80238095Y-157473866D01*
X80238095Y-157473866D02*
X80285714Y-157426247D01*
X80285714Y-157426247D02*
X80380952Y-157378628D01*
X80380952Y-157378628D02*
X80571428Y-157331009D01*
X80571428Y-157331009D02*
X80666666Y-157283390D01*
X80666666Y-157283390D02*
X80714285Y-157235771D01*
X80714285Y-157235771D02*
X80761904Y-157140533D01*
X80761904Y-157140533D02*
X80761904Y-157045295D01*
X80761904Y-157045295D02*
X80714285Y-156950057D01*
X80714285Y-156950057D02*
X80666666Y-156902438D01*
X80666666Y-156902438D02*
X80571428Y-156854819D01*
X80571428Y-156854819D02*
X80333333Y-156854819D01*
X80333333Y-156854819D02*
X80190476Y-156902438D01*
X79619047Y-157283390D02*
X79714285Y-157235771D01*
X79714285Y-157235771D02*
X79761904Y-157188152D01*
X79761904Y-157188152D02*
X79809523Y-157092914D01*
X79809523Y-157092914D02*
X79809523Y-157045295D01*
X79809523Y-157045295D02*
X79761904Y-156950057D01*
X79761904Y-156950057D02*
X79714285Y-156902438D01*
X79714285Y-156902438D02*
X79619047Y-156854819D01*
X79619047Y-156854819D02*
X79428571Y-156854819D01*
X79428571Y-156854819D02*
X79333333Y-156902438D01*
X79333333Y-156902438D02*
X79285714Y-156950057D01*
X79285714Y-156950057D02*
X79238095Y-157045295D01*
X79238095Y-157045295D02*
X79238095Y-157092914D01*
X79238095Y-157092914D02*
X79285714Y-157188152D01*
X79285714Y-157188152D02*
X79333333Y-157235771D01*
X79333333Y-157235771D02*
X79428571Y-157283390D01*
X79428571Y-157283390D02*
X79619047Y-157283390D01*
X79619047Y-157283390D02*
X79714285Y-157331009D01*
X79714285Y-157331009D02*
X79761904Y-157378628D01*
X79761904Y-157378628D02*
X79809523Y-157473866D01*
X79809523Y-157473866D02*
X79809523Y-157664342D01*
X79809523Y-157664342D02*
X79761904Y-157759580D01*
X79761904Y-157759580D02*
X79714285Y-157807200D01*
X79714285Y-157807200D02*
X79619047Y-157854819D01*
X79619047Y-157854819D02*
X79428571Y-157854819D01*
X79428571Y-157854819D02*
X79333333Y-157807200D01*
X79333333Y-157807200D02*
X79285714Y-157759580D01*
X79285714Y-157759580D02*
X79238095Y-157664342D01*
X79238095Y-157664342D02*
X79238095Y-157473866D01*
X79238095Y-157473866D02*
X79285714Y-157378628D01*
X79285714Y-157378628D02*
X79333333Y-157331009D01*
X79333333Y-157331009D02*
X79428571Y-157283390D01*
X218577278Y-63159580D02*
X218624897Y-63207200D01*
X218624897Y-63207200D02*
X218767754Y-63254819D01*
X218767754Y-63254819D02*
X218862992Y-63254819D01*
X218862992Y-63254819D02*
X219005849Y-63207200D01*
X219005849Y-63207200D02*
X219101087Y-63111961D01*
X219101087Y-63111961D02*
X219148706Y-63016723D01*
X219148706Y-63016723D02*
X219196325Y-62826247D01*
X219196325Y-62826247D02*
X219196325Y-62683390D01*
X219196325Y-62683390D02*
X219148706Y-62492914D01*
X219148706Y-62492914D02*
X219101087Y-62397676D01*
X219101087Y-62397676D02*
X219005849Y-62302438D01*
X219005849Y-62302438D02*
X218862992Y-62254819D01*
X218862992Y-62254819D02*
X218767754Y-62254819D01*
X218767754Y-62254819D02*
X218624897Y-62302438D01*
X218624897Y-62302438D02*
X218577278Y-62350057D01*
X217624897Y-63254819D02*
X218196325Y-63254819D01*
X217910611Y-63254819D02*
X217910611Y-62254819D01*
X217910611Y-62254819D02*
X218005849Y-62397676D01*
X218005849Y-62397676D02*
X218101087Y-62492914D01*
X218101087Y-62492914D02*
X218196325Y-62540533D01*
X217291563Y-62254819D02*
X216672516Y-62254819D01*
X216672516Y-62254819D02*
X217005849Y-62635771D01*
X217005849Y-62635771D02*
X216862992Y-62635771D01*
X216862992Y-62635771D02*
X216767754Y-62683390D01*
X216767754Y-62683390D02*
X216720135Y-62731009D01*
X216720135Y-62731009D02*
X216672516Y-62826247D01*
X216672516Y-62826247D02*
X216672516Y-63064342D01*
X216672516Y-63064342D02*
X216720135Y-63159580D01*
X216720135Y-63159580D02*
X216767754Y-63207200D01*
X216767754Y-63207200D02*
X216862992Y-63254819D01*
X216862992Y-63254819D02*
X217148706Y-63254819D01*
X217148706Y-63254819D02*
X217243944Y-63207200D01*
X217243944Y-63207200D02*
X217291563Y-63159580D01*
X80166666Y-108954819D02*
X80642856Y-108954819D01*
X80642856Y-108954819D02*
X80642856Y-107954819D01*
X79928570Y-107954819D02*
X79309523Y-107954819D01*
X79309523Y-107954819D02*
X79642856Y-108335771D01*
X79642856Y-108335771D02*
X79499999Y-108335771D01*
X79499999Y-108335771D02*
X79404761Y-108383390D01*
X79404761Y-108383390D02*
X79357142Y-108431009D01*
X79357142Y-108431009D02*
X79309523Y-108526247D01*
X79309523Y-108526247D02*
X79309523Y-108764342D01*
X79309523Y-108764342D02*
X79357142Y-108859580D01*
X79357142Y-108859580D02*
X79404761Y-108907200D01*
X79404761Y-108907200D02*
X79499999Y-108954819D01*
X79499999Y-108954819D02*
X79785713Y-108954819D01*
X79785713Y-108954819D02*
X79880951Y-108907200D01*
X79880951Y-108907200D02*
X79928570Y-108859580D01*
X78573866Y-106619048D02*
X78573866Y-107380953D01*
X78954819Y-107000000D02*
X78192914Y-107000000D01*
X81573866Y-106619048D02*
X81573866Y-107380953D01*
X229702387Y-66442857D02*
X230178578Y-66776190D01*
X229702387Y-67014285D02*
X230702387Y-67014285D01*
X230702387Y-67014285D02*
X230702387Y-66633333D01*
X230702387Y-66633333D02*
X230654768Y-66538095D01*
X230654768Y-66538095D02*
X230607149Y-66490476D01*
X230607149Y-66490476D02*
X230511911Y-66442857D01*
X230511911Y-66442857D02*
X230369054Y-66442857D01*
X230369054Y-66442857D02*
X230273816Y-66490476D01*
X230273816Y-66490476D02*
X230226197Y-66538095D01*
X230226197Y-66538095D02*
X230178578Y-66633333D01*
X230178578Y-66633333D02*
X230178578Y-67014285D01*
X230607149Y-66061904D02*
X230654768Y-66014285D01*
X230654768Y-66014285D02*
X230702387Y-65919047D01*
X230702387Y-65919047D02*
X230702387Y-65680952D01*
X230702387Y-65680952D02*
X230654768Y-65585714D01*
X230654768Y-65585714D02*
X230607149Y-65538095D01*
X230607149Y-65538095D02*
X230511911Y-65490476D01*
X230511911Y-65490476D02*
X230416673Y-65490476D01*
X230416673Y-65490476D02*
X230273816Y-65538095D01*
X230273816Y-65538095D02*
X229702387Y-66109523D01*
X229702387Y-66109523D02*
X229702387Y-65490476D01*
X230369054Y-64633333D02*
X229702387Y-64633333D01*
X230750007Y-64871428D02*
X230035721Y-65109523D01*
X230035721Y-65109523D02*
X230035721Y-64490476D01*
X208966666Y-95259580D02*
X209014285Y-95307200D01*
X209014285Y-95307200D02*
X209157142Y-95354819D01*
X209157142Y-95354819D02*
X209252380Y-95354819D01*
X209252380Y-95354819D02*
X209395237Y-95307200D01*
X209395237Y-95307200D02*
X209490475Y-95211961D01*
X209490475Y-95211961D02*
X209538094Y-95116723D01*
X209538094Y-95116723D02*
X209585713Y-94926247D01*
X209585713Y-94926247D02*
X209585713Y-94783390D01*
X209585713Y-94783390D02*
X209538094Y-94592914D01*
X209538094Y-94592914D02*
X209490475Y-94497676D01*
X209490475Y-94497676D02*
X209395237Y-94402438D01*
X209395237Y-94402438D02*
X209252380Y-94354819D01*
X209252380Y-94354819D02*
X209157142Y-94354819D01*
X209157142Y-94354819D02*
X209014285Y-94402438D01*
X209014285Y-94402438D02*
X208966666Y-94450057D01*
X208109523Y-94688152D02*
X208109523Y-95354819D01*
X208347618Y-94307200D02*
X208585713Y-95021485D01*
X208585713Y-95021485D02*
X207966666Y-95021485D01*
X211347112Y-109036411D02*
X211414456Y-109036411D01*
X211414456Y-109036411D02*
X211549143Y-108969067D01*
X211549143Y-108969067D02*
X211616486Y-108901724D01*
X211616486Y-108901724D02*
X211683830Y-108767037D01*
X211683830Y-108767037D02*
X211683830Y-108632350D01*
X211683830Y-108632350D02*
X211650158Y-108531335D01*
X211650158Y-108531335D02*
X211549143Y-108362976D01*
X211549143Y-108362976D02*
X211448128Y-108261961D01*
X211448128Y-108261961D02*
X211279769Y-108160945D01*
X211279769Y-108160945D02*
X211178754Y-108127274D01*
X211178754Y-108127274D02*
X211044067Y-108127274D01*
X211044067Y-108127274D02*
X210909380Y-108194617D01*
X210909380Y-108194617D02*
X210842036Y-108261961D01*
X210842036Y-108261961D02*
X210774693Y-108396648D01*
X210774693Y-108396648D02*
X210774693Y-108463991D01*
X210101258Y-109002739D02*
X210235945Y-108868052D01*
X210235945Y-108868052D02*
X210336960Y-108834380D01*
X210336960Y-108834380D02*
X210404303Y-108834380D01*
X210404303Y-108834380D02*
X210572662Y-108868052D01*
X210572662Y-108868052D02*
X210741021Y-108969067D01*
X210741021Y-108969067D02*
X211010395Y-109238441D01*
X211010395Y-109238441D02*
X211044067Y-109339457D01*
X211044067Y-109339457D02*
X211044067Y-109406800D01*
X211044067Y-109406800D02*
X211010395Y-109507815D01*
X211010395Y-109507815D02*
X210875708Y-109642502D01*
X210875708Y-109642502D02*
X210774693Y-109676174D01*
X210774693Y-109676174D02*
X210707349Y-109676174D01*
X210707349Y-109676174D02*
X210606334Y-109642502D01*
X210606334Y-109642502D02*
X210437975Y-109474144D01*
X210437975Y-109474144D02*
X210404303Y-109373128D01*
X210404303Y-109373128D02*
X210404303Y-109305785D01*
X210404303Y-109305785D02*
X210437975Y-109204770D01*
X210437975Y-109204770D02*
X210572662Y-109070083D01*
X210572662Y-109070083D02*
X210673677Y-109036411D01*
X210673677Y-109036411D02*
X210741021Y-109036411D01*
X210741021Y-109036411D02*
X210842036Y-109070083D01*
X215761904Y-158007200D02*
X215619047Y-158054819D01*
X215619047Y-158054819D02*
X215380952Y-158054819D01*
X215380952Y-158054819D02*
X215285714Y-158007200D01*
X215285714Y-158007200D02*
X215238095Y-157959580D01*
X215238095Y-157959580D02*
X215190476Y-157864342D01*
X215190476Y-157864342D02*
X215190476Y-157769104D01*
X215190476Y-157769104D02*
X215238095Y-157673866D01*
X215238095Y-157673866D02*
X215285714Y-157626247D01*
X215285714Y-157626247D02*
X215380952Y-157578628D01*
X215380952Y-157578628D02*
X215571428Y-157531009D01*
X215571428Y-157531009D02*
X215666666Y-157483390D01*
X215666666Y-157483390D02*
X215714285Y-157435771D01*
X215714285Y-157435771D02*
X215761904Y-157340533D01*
X215761904Y-157340533D02*
X215761904Y-157245295D01*
X215761904Y-157245295D02*
X215714285Y-157150057D01*
X215714285Y-157150057D02*
X215666666Y-157102438D01*
X215666666Y-157102438D02*
X215571428Y-157054819D01*
X215571428Y-157054819D02*
X215333333Y-157054819D01*
X215333333Y-157054819D02*
X215190476Y-157102438D01*
X214857142Y-157054819D02*
X214238095Y-157054819D01*
X214238095Y-157054819D02*
X214571428Y-157435771D01*
X214571428Y-157435771D02*
X214428571Y-157435771D01*
X214428571Y-157435771D02*
X214333333Y-157483390D01*
X214333333Y-157483390D02*
X214285714Y-157531009D01*
X214285714Y-157531009D02*
X214238095Y-157626247D01*
X214238095Y-157626247D02*
X214238095Y-157864342D01*
X214238095Y-157864342D02*
X214285714Y-157959580D01*
X214285714Y-157959580D02*
X214333333Y-158007200D01*
X214333333Y-158007200D02*
X214428571Y-158054819D01*
X214428571Y-158054819D02*
X214714285Y-158054819D01*
X214714285Y-158054819D02*
X214809523Y-158007200D01*
X214809523Y-158007200D02*
X214857142Y-157959580D01*
X255800306Y-123008830D02*
X255800306Y-123076174D01*
X255800306Y-123076174D02*
X255867650Y-123210861D01*
X255867650Y-123210861D02*
X255934993Y-123278204D01*
X255934993Y-123278204D02*
X256069680Y-123345548D01*
X256069680Y-123345548D02*
X256204367Y-123345548D01*
X256204367Y-123345548D02*
X256305382Y-123311876D01*
X256305382Y-123311876D02*
X256473741Y-123210861D01*
X256473741Y-123210861D02*
X256574756Y-123109846D01*
X256574756Y-123109846D02*
X256675772Y-122941487D01*
X256675772Y-122941487D02*
X256709443Y-122840472D01*
X256709443Y-122840472D02*
X256709443Y-122705785D01*
X256709443Y-122705785D02*
X256642100Y-122571098D01*
X256642100Y-122571098D02*
X256574756Y-122503754D01*
X256574756Y-122503754D02*
X256440069Y-122436411D01*
X256440069Y-122436411D02*
X256372726Y-122436411D01*
X256204367Y-122133365D02*
X255766634Y-121695632D01*
X255766634Y-121695632D02*
X255732963Y-122200708D01*
X255732963Y-122200708D02*
X255631947Y-122099693D01*
X255631947Y-122099693D02*
X255530932Y-122066021D01*
X255530932Y-122066021D02*
X255463589Y-122066021D01*
X255463589Y-122066021D02*
X255362573Y-122099693D01*
X255362573Y-122099693D02*
X255194215Y-122268052D01*
X255194215Y-122268052D02*
X255160543Y-122369067D01*
X255160543Y-122369067D02*
X255160543Y-122436411D01*
X255160543Y-122436411D02*
X255194215Y-122537426D01*
X255194215Y-122537426D02*
X255396245Y-122739456D01*
X255396245Y-122739456D02*
X255497260Y-122773128D01*
X255497260Y-122773128D02*
X255564604Y-122773128D01*
X254386092Y-121729304D02*
X254790153Y-122133365D01*
X254588123Y-121931334D02*
X255295230Y-121224227D01*
X255295230Y-121224227D02*
X255261558Y-121392586D01*
X255261558Y-121392586D02*
X255261558Y-121527273D01*
X255261558Y-121527273D02*
X255295230Y-121628288D01*
X191542857Y-84259580D02*
X191590476Y-84307200D01*
X191590476Y-84307200D02*
X191733333Y-84354819D01*
X191733333Y-84354819D02*
X191828571Y-84354819D01*
X191828571Y-84354819D02*
X191971428Y-84307200D01*
X191971428Y-84307200D02*
X192066666Y-84211961D01*
X192066666Y-84211961D02*
X192114285Y-84116723D01*
X192114285Y-84116723D02*
X192161904Y-83926247D01*
X192161904Y-83926247D02*
X192161904Y-83783390D01*
X192161904Y-83783390D02*
X192114285Y-83592914D01*
X192114285Y-83592914D02*
X192066666Y-83497676D01*
X192066666Y-83497676D02*
X191971428Y-83402438D01*
X191971428Y-83402438D02*
X191828571Y-83354819D01*
X191828571Y-83354819D02*
X191733333Y-83354819D01*
X191733333Y-83354819D02*
X191590476Y-83402438D01*
X191590476Y-83402438D02*
X191542857Y-83450057D01*
X191161904Y-83450057D02*
X191114285Y-83402438D01*
X191114285Y-83402438D02*
X191019047Y-83354819D01*
X191019047Y-83354819D02*
X190780952Y-83354819D01*
X190780952Y-83354819D02*
X190685714Y-83402438D01*
X190685714Y-83402438D02*
X190638095Y-83450057D01*
X190638095Y-83450057D02*
X190590476Y-83545295D01*
X190590476Y-83545295D02*
X190590476Y-83640533D01*
X190590476Y-83640533D02*
X190638095Y-83783390D01*
X190638095Y-83783390D02*
X191209523Y-84354819D01*
X191209523Y-84354819D02*
X190590476Y-84354819D01*
X189685714Y-83354819D02*
X190161904Y-83354819D01*
X190161904Y-83354819D02*
X190209523Y-83831009D01*
X190209523Y-83831009D02*
X190161904Y-83783390D01*
X190161904Y-83783390D02*
X190066666Y-83735771D01*
X190066666Y-83735771D02*
X189828571Y-83735771D01*
X189828571Y-83735771D02*
X189733333Y-83783390D01*
X189733333Y-83783390D02*
X189685714Y-83831009D01*
X189685714Y-83831009D02*
X189638095Y-83926247D01*
X189638095Y-83926247D02*
X189638095Y-84164342D01*
X189638095Y-84164342D02*
X189685714Y-84259580D01*
X189685714Y-84259580D02*
X189733333Y-84307200D01*
X189733333Y-84307200D02*
X189828571Y-84354819D01*
X189828571Y-84354819D02*
X190066666Y-84354819D01*
X190066666Y-84354819D02*
X190161904Y-84307200D01*
X190161904Y-84307200D02*
X190209523Y-84259580D01*
X229552186Y-82438972D02*
X230028377Y-82772305D01*
X229552186Y-83010400D02*
X230552186Y-83010400D01*
X230552186Y-83010400D02*
X230552186Y-82629448D01*
X230552186Y-82629448D02*
X230504567Y-82534210D01*
X230504567Y-82534210D02*
X230456948Y-82486591D01*
X230456948Y-82486591D02*
X230361710Y-82438972D01*
X230361710Y-82438972D02*
X230218853Y-82438972D01*
X230218853Y-82438972D02*
X230123615Y-82486591D01*
X230123615Y-82486591D02*
X230075996Y-82534210D01*
X230075996Y-82534210D02*
X230028377Y-82629448D01*
X230028377Y-82629448D02*
X230028377Y-83010400D01*
X230552186Y-82105638D02*
X230552186Y-81486591D01*
X230552186Y-81486591D02*
X230171234Y-81819924D01*
X230171234Y-81819924D02*
X230171234Y-81677067D01*
X230171234Y-81677067D02*
X230123615Y-81581829D01*
X230123615Y-81581829D02*
X230075996Y-81534210D01*
X230075996Y-81534210D02*
X229980758Y-81486591D01*
X229980758Y-81486591D02*
X229742663Y-81486591D01*
X229742663Y-81486591D02*
X229647425Y-81534210D01*
X229647425Y-81534210D02*
X229599806Y-81581829D01*
X229599806Y-81581829D02*
X229552186Y-81677067D01*
X229552186Y-81677067D02*
X229552186Y-81962781D01*
X229552186Y-81962781D02*
X229599806Y-82058019D01*
X229599806Y-82058019D02*
X229647425Y-82105638D01*
X230218853Y-80629448D02*
X229552186Y-80629448D01*
X230599806Y-80867543D02*
X229885520Y-81105638D01*
X229885520Y-81105638D02*
X229885520Y-80486591D01*
X237552186Y-82388972D02*
X238028377Y-82722305D01*
X237552186Y-82960400D02*
X238552186Y-82960400D01*
X238552186Y-82960400D02*
X238552186Y-82579448D01*
X238552186Y-82579448D02*
X238504567Y-82484210D01*
X238504567Y-82484210D02*
X238456948Y-82436591D01*
X238456948Y-82436591D02*
X238361710Y-82388972D01*
X238361710Y-82388972D02*
X238218853Y-82388972D01*
X238218853Y-82388972D02*
X238123615Y-82436591D01*
X238123615Y-82436591D02*
X238075996Y-82484210D01*
X238075996Y-82484210D02*
X238028377Y-82579448D01*
X238028377Y-82579448D02*
X238028377Y-82960400D01*
X238552186Y-82055638D02*
X238552186Y-81436591D01*
X238552186Y-81436591D02*
X238171234Y-81769924D01*
X238171234Y-81769924D02*
X238171234Y-81627067D01*
X238171234Y-81627067D02*
X238123615Y-81531829D01*
X238123615Y-81531829D02*
X238075996Y-81484210D01*
X238075996Y-81484210D02*
X237980758Y-81436591D01*
X237980758Y-81436591D02*
X237742663Y-81436591D01*
X237742663Y-81436591D02*
X237647425Y-81484210D01*
X237647425Y-81484210D02*
X237599806Y-81531829D01*
X237599806Y-81531829D02*
X237552186Y-81627067D01*
X237552186Y-81627067D02*
X237552186Y-81912781D01*
X237552186Y-81912781D02*
X237599806Y-82008019D01*
X237599806Y-82008019D02*
X237647425Y-82055638D01*
X238456948Y-81055638D02*
X238504567Y-81008019D01*
X238504567Y-81008019D02*
X238552186Y-80912781D01*
X238552186Y-80912781D02*
X238552186Y-80674686D01*
X238552186Y-80674686D02*
X238504567Y-80579448D01*
X238504567Y-80579448D02*
X238456948Y-80531829D01*
X238456948Y-80531829D02*
X238361710Y-80484210D01*
X238361710Y-80484210D02*
X238266472Y-80484210D01*
X238266472Y-80484210D02*
X238123615Y-80531829D01*
X238123615Y-80531829D02*
X237552186Y-81103257D01*
X237552186Y-81103257D02*
X237552186Y-80484210D01*
X239274863Y-85250934D02*
X239608196Y-84774743D01*
X239846291Y-85250934D02*
X239846291Y-84250934D01*
X239846291Y-84250934D02*
X239465339Y-84250934D01*
X239465339Y-84250934D02*
X239370101Y-84298553D01*
X239370101Y-84298553D02*
X239322482Y-84346172D01*
X239322482Y-84346172D02*
X239274863Y-84441410D01*
X239274863Y-84441410D02*
X239274863Y-84584267D01*
X239274863Y-84584267D02*
X239322482Y-84679505D01*
X239322482Y-84679505D02*
X239370101Y-84727124D01*
X239370101Y-84727124D02*
X239465339Y-84774743D01*
X239465339Y-84774743D02*
X239846291Y-84774743D01*
X238941529Y-84250934D02*
X238322482Y-84250934D01*
X238322482Y-84250934D02*
X238655815Y-84631886D01*
X238655815Y-84631886D02*
X238512958Y-84631886D01*
X238512958Y-84631886D02*
X238417720Y-84679505D01*
X238417720Y-84679505D02*
X238370101Y-84727124D01*
X238370101Y-84727124D02*
X238322482Y-84822362D01*
X238322482Y-84822362D02*
X238322482Y-85060457D01*
X238322482Y-85060457D02*
X238370101Y-85155695D01*
X238370101Y-85155695D02*
X238417720Y-85203315D01*
X238417720Y-85203315D02*
X238512958Y-85250934D01*
X238512958Y-85250934D02*
X238798672Y-85250934D01*
X238798672Y-85250934D02*
X238893910Y-85203315D01*
X238893910Y-85203315D02*
X238941529Y-85155695D01*
X237703434Y-84250934D02*
X237608196Y-84250934D01*
X237608196Y-84250934D02*
X237512958Y-84298553D01*
X237512958Y-84298553D02*
X237465339Y-84346172D01*
X237465339Y-84346172D02*
X237417720Y-84441410D01*
X237417720Y-84441410D02*
X237370101Y-84631886D01*
X237370101Y-84631886D02*
X237370101Y-84869981D01*
X237370101Y-84869981D02*
X237417720Y-85060457D01*
X237417720Y-85060457D02*
X237465339Y-85155695D01*
X237465339Y-85155695D02*
X237512958Y-85203315D01*
X237512958Y-85203315D02*
X237608196Y-85250934D01*
X237608196Y-85250934D02*
X237703434Y-85250934D01*
X237703434Y-85250934D02*
X237798672Y-85203315D01*
X237798672Y-85203315D02*
X237846291Y-85155695D01*
X237846291Y-85155695D02*
X237893910Y-85060457D01*
X237893910Y-85060457D02*
X237941529Y-84869981D01*
X237941529Y-84869981D02*
X237941529Y-84631886D01*
X237941529Y-84631886D02*
X237893910Y-84441410D01*
X237893910Y-84441410D02*
X237846291Y-84346172D01*
X237846291Y-84346172D02*
X237798672Y-84298553D01*
X237798672Y-84298553D02*
X237703434Y-84250934D01*
X256408830Y-119199693D02*
X256476174Y-119199693D01*
X256476174Y-119199693D02*
X256610861Y-119132349D01*
X256610861Y-119132349D02*
X256678204Y-119065006D01*
X256678204Y-119065006D02*
X256745548Y-118930319D01*
X256745548Y-118930319D02*
X256745548Y-118795632D01*
X256745548Y-118795632D02*
X256711876Y-118694617D01*
X256711876Y-118694617D02*
X256610861Y-118526258D01*
X256610861Y-118526258D02*
X256509846Y-118425243D01*
X256509846Y-118425243D02*
X256341487Y-118324227D01*
X256341487Y-118324227D02*
X256240472Y-118290556D01*
X256240472Y-118290556D02*
X256105785Y-118290556D01*
X256105785Y-118290556D02*
X255971098Y-118357899D01*
X255971098Y-118357899D02*
X255903754Y-118425243D01*
X255903754Y-118425243D02*
X255836411Y-118559930D01*
X255836411Y-118559930D02*
X255836411Y-118627273D01*
X255567037Y-118896647D02*
X255499693Y-118896647D01*
X255499693Y-118896647D02*
X255398678Y-118930319D01*
X255398678Y-118930319D02*
X255230319Y-119098678D01*
X255230319Y-119098678D02*
X255196647Y-119199693D01*
X255196647Y-119199693D02*
X255196647Y-119267036D01*
X255196647Y-119267036D02*
X255230319Y-119368052D01*
X255230319Y-119368052D02*
X255297663Y-119435395D01*
X255297663Y-119435395D02*
X255432350Y-119502739D01*
X255432350Y-119502739D02*
X256240472Y-119502739D01*
X256240472Y-119502739D02*
X255802739Y-119940471D01*
X255466021Y-120277189D02*
X255331334Y-120411876D01*
X255331334Y-120411876D02*
X255230319Y-120445548D01*
X255230319Y-120445548D02*
X255162975Y-120445548D01*
X255162975Y-120445548D02*
X254994617Y-120411876D01*
X254994617Y-120411876D02*
X254826258Y-120310861D01*
X254826258Y-120310861D02*
X254556884Y-120041487D01*
X254556884Y-120041487D02*
X254523212Y-119940472D01*
X254523212Y-119940472D02*
X254523212Y-119873128D01*
X254523212Y-119873128D02*
X254556884Y-119772113D01*
X254556884Y-119772113D02*
X254691571Y-119637426D01*
X254691571Y-119637426D02*
X254792586Y-119603754D01*
X254792586Y-119603754D02*
X254859930Y-119603754D01*
X254859930Y-119603754D02*
X254960945Y-119637426D01*
X254960945Y-119637426D02*
X255129304Y-119805785D01*
X255129304Y-119805785D02*
X255162975Y-119906800D01*
X255162975Y-119906800D02*
X255162975Y-119974143D01*
X255162975Y-119974143D02*
X255129304Y-120075159D01*
X255129304Y-120075159D02*
X254994617Y-120209846D01*
X254994617Y-120209846D02*
X254893601Y-120243517D01*
X254893601Y-120243517D02*
X254826258Y-120243517D01*
X254826258Y-120243517D02*
X254725243Y-120209846D01*
X73380951Y-98573866D02*
X72619047Y-98573866D01*
X72999999Y-98954819D02*
X72999999Y-98192914D01*
X73380951Y-101573866D02*
X72619047Y-101573866D01*
X237702387Y-66392857D02*
X238178578Y-66726190D01*
X237702387Y-66964285D02*
X238702387Y-66964285D01*
X238702387Y-66964285D02*
X238702387Y-66583333D01*
X238702387Y-66583333D02*
X238654768Y-66488095D01*
X238654768Y-66488095D02*
X238607149Y-66440476D01*
X238607149Y-66440476D02*
X238511911Y-66392857D01*
X238511911Y-66392857D02*
X238369054Y-66392857D01*
X238369054Y-66392857D02*
X238273816Y-66440476D01*
X238273816Y-66440476D02*
X238226197Y-66488095D01*
X238226197Y-66488095D02*
X238178578Y-66583333D01*
X238178578Y-66583333D02*
X238178578Y-66964285D01*
X238607149Y-66011904D02*
X238654768Y-65964285D01*
X238654768Y-65964285D02*
X238702387Y-65869047D01*
X238702387Y-65869047D02*
X238702387Y-65630952D01*
X238702387Y-65630952D02*
X238654768Y-65535714D01*
X238654768Y-65535714D02*
X238607149Y-65488095D01*
X238607149Y-65488095D02*
X238511911Y-65440476D01*
X238511911Y-65440476D02*
X238416673Y-65440476D01*
X238416673Y-65440476D02*
X238273816Y-65488095D01*
X238273816Y-65488095D02*
X237702387Y-66059523D01*
X237702387Y-66059523D02*
X237702387Y-65440476D01*
X238607149Y-65059523D02*
X238654768Y-65011904D01*
X238654768Y-65011904D02*
X238702387Y-64916666D01*
X238702387Y-64916666D02*
X238702387Y-64678571D01*
X238702387Y-64678571D02*
X238654768Y-64583333D01*
X238654768Y-64583333D02*
X238607149Y-64535714D01*
X238607149Y-64535714D02*
X238511911Y-64488095D01*
X238511911Y-64488095D02*
X238416673Y-64488095D01*
X238416673Y-64488095D02*
X238273816Y-64535714D01*
X238273816Y-64535714D02*
X237702387Y-65107142D01*
X237702387Y-65107142D02*
X237702387Y-64488095D01*
X203772113Y-106236411D02*
X203839457Y-106236411D01*
X203839457Y-106236411D02*
X203974144Y-106169067D01*
X203974144Y-106169067D02*
X204041487Y-106101724D01*
X204041487Y-106101724D02*
X204108831Y-105967037D01*
X204108831Y-105967037D02*
X204108831Y-105832350D01*
X204108831Y-105832350D02*
X204075159Y-105731335D01*
X204075159Y-105731335D02*
X203974144Y-105562976D01*
X203974144Y-105562976D02*
X203873129Y-105461961D01*
X203873129Y-105461961D02*
X203704770Y-105360945D01*
X203704770Y-105360945D02*
X203603755Y-105327274D01*
X203603755Y-105327274D02*
X203469068Y-105327274D01*
X203469068Y-105327274D02*
X203334381Y-105394617D01*
X203334381Y-105394617D02*
X203267037Y-105461961D01*
X203267037Y-105461961D02*
X203199694Y-105596648D01*
X203199694Y-105596648D02*
X203199694Y-105663991D01*
X202896648Y-105832350D02*
X202425243Y-106303754D01*
X202425243Y-106303754D02*
X203435396Y-106707815D01*
X222818831Y-107139693D02*
X222886175Y-107139693D01*
X222886175Y-107139693D02*
X223020862Y-107072349D01*
X223020862Y-107072349D02*
X223088205Y-107005006D01*
X223088205Y-107005006D02*
X223155549Y-106870319D01*
X223155549Y-106870319D02*
X223155549Y-106735632D01*
X223155549Y-106735632D02*
X223121877Y-106634617D01*
X223121877Y-106634617D02*
X223020862Y-106466258D01*
X223020862Y-106466258D02*
X222919847Y-106365243D01*
X222919847Y-106365243D02*
X222751488Y-106264227D01*
X222751488Y-106264227D02*
X222650473Y-106230556D01*
X222650473Y-106230556D02*
X222515786Y-106230556D01*
X222515786Y-106230556D02*
X222381099Y-106297899D01*
X222381099Y-106297899D02*
X222313755Y-106365243D01*
X222313755Y-106365243D02*
X222246412Y-106499930D01*
X222246412Y-106499930D02*
X222246412Y-106567273D01*
X221943366Y-106735632D02*
X221505633Y-107173365D01*
X221505633Y-107173365D02*
X222010709Y-107207036D01*
X222010709Y-107207036D02*
X221909694Y-107308052D01*
X221909694Y-107308052D02*
X221876022Y-107409067D01*
X221876022Y-107409067D02*
X221876022Y-107476410D01*
X221876022Y-107476410D02*
X221909694Y-107577426D01*
X221909694Y-107577426D02*
X222078053Y-107745784D01*
X222078053Y-107745784D02*
X222179068Y-107779456D01*
X222179068Y-107779456D02*
X222246412Y-107779456D01*
X222246412Y-107779456D02*
X222347427Y-107745784D01*
X222347427Y-107745784D02*
X222549457Y-107543754D01*
X222549457Y-107543754D02*
X222583129Y-107442739D01*
X222583129Y-107442739D02*
X222583129Y-107375395D01*
X221269931Y-107409067D02*
X220832198Y-107846800D01*
X220832198Y-107846800D02*
X221337274Y-107880472D01*
X221337274Y-107880472D02*
X221236259Y-107981487D01*
X221236259Y-107981487D02*
X221202587Y-108082502D01*
X221202587Y-108082502D02*
X221202587Y-108149846D01*
X221202587Y-108149846D02*
X221236259Y-108250861D01*
X221236259Y-108250861D02*
X221404618Y-108419220D01*
X221404618Y-108419220D02*
X221505633Y-108452891D01*
X221505633Y-108452891D02*
X221572976Y-108452891D01*
X221572976Y-108452891D02*
X221673992Y-108419220D01*
X221673992Y-108419220D02*
X221876022Y-108217189D01*
X221876022Y-108217189D02*
X221909694Y-108116174D01*
X221909694Y-108116174D02*
X221909694Y-108048830D01*
X208339456Y-106903754D02*
X208676174Y-106567037D01*
X208676174Y-106567037D02*
X207969067Y-105859930D01*
X207059929Y-106769067D02*
X207396647Y-106432350D01*
X207396647Y-106432350D02*
X207767036Y-106735396D01*
X207767036Y-106735396D02*
X207699693Y-106735396D01*
X207699693Y-106735396D02*
X207598677Y-106769067D01*
X207598677Y-106769067D02*
X207430319Y-106937426D01*
X207430319Y-106937426D02*
X207396647Y-107038441D01*
X207396647Y-107038441D02*
X207396647Y-107105785D01*
X207396647Y-107105785D02*
X207430319Y-107206800D01*
X207430319Y-107206800D02*
X207598677Y-107375159D01*
X207598677Y-107375159D02*
X207699693Y-107408831D01*
X207699693Y-107408831D02*
X207767036Y-107408831D01*
X207767036Y-107408831D02*
X207868051Y-107375159D01*
X207868051Y-107375159D02*
X208036410Y-107206800D01*
X208036410Y-107206800D02*
X208070082Y-107105785D01*
X208070082Y-107105785D02*
X208070082Y-107038441D01*
X166971926Y-129524127D02*
X166954497Y-129589176D01*
X166954497Y-129589176D02*
X166984686Y-129736703D01*
X166984686Y-129736703D02*
X167032305Y-129819182D01*
X167032305Y-129819182D02*
X167144973Y-129919090D01*
X167144973Y-129919090D02*
X167275070Y-129953950D01*
X167275070Y-129953950D02*
X167381359Y-129947570D01*
X167381359Y-129947570D02*
X167570125Y-129893571D01*
X167570125Y-129893571D02*
X167693843Y-129822143D01*
X167693843Y-129822143D02*
X167834991Y-129685665D01*
X167834991Y-129685665D02*
X167893660Y-129596807D01*
X167893660Y-129596807D02*
X167928520Y-129466709D01*
X167928520Y-129466709D02*
X167898330Y-129319182D01*
X167898330Y-129319182D02*
X167850711Y-129236703D01*
X167850711Y-129236703D02*
X167738043Y-129136795D01*
X167738043Y-129136795D02*
X167672995Y-129119365D01*
X166413257Y-128746960D02*
X166698972Y-129241832D01*
X166556114Y-128994396D02*
X167422140Y-128494396D01*
X167422140Y-128494396D02*
X167346041Y-128648303D01*
X167346041Y-128648303D02*
X167311181Y-128778401D01*
X167311181Y-128778401D02*
X167317561Y-128884689D01*
X216751096Y-109932427D02*
X216818440Y-109932427D01*
X216818440Y-109932427D02*
X216953127Y-109865083D01*
X216953127Y-109865083D02*
X217020470Y-109797740D01*
X217020470Y-109797740D02*
X217087814Y-109663053D01*
X217087814Y-109663053D02*
X217087814Y-109528366D01*
X217087814Y-109528366D02*
X217054142Y-109427351D01*
X217054142Y-109427351D02*
X216953127Y-109258992D01*
X216953127Y-109258992D02*
X216852112Y-109157977D01*
X216852112Y-109157977D02*
X216683753Y-109056961D01*
X216683753Y-109056961D02*
X216582738Y-109023290D01*
X216582738Y-109023290D02*
X216448051Y-109023290D01*
X216448051Y-109023290D02*
X216313364Y-109090633D01*
X216313364Y-109090633D02*
X216246020Y-109157977D01*
X216246020Y-109157977D02*
X216178677Y-109292664D01*
X216178677Y-109292664D02*
X216178677Y-109360007D01*
X215909303Y-109629381D02*
X215841959Y-109629381D01*
X215841959Y-109629381D02*
X215740944Y-109663053D01*
X215740944Y-109663053D02*
X215572585Y-109831412D01*
X215572585Y-109831412D02*
X215538913Y-109932427D01*
X215538913Y-109932427D02*
X215538913Y-109999770D01*
X215538913Y-109999770D02*
X215572585Y-110100786D01*
X215572585Y-110100786D02*
X215639929Y-110168129D01*
X215639929Y-110168129D02*
X215774616Y-110235473D01*
X215774616Y-110235473D02*
X216582738Y-110235473D01*
X216582738Y-110235473D02*
X216145005Y-110673205D01*
X218377278Y-76713562D02*
X218424897Y-76761182D01*
X218424897Y-76761182D02*
X218567754Y-76808801D01*
X218567754Y-76808801D02*
X218662992Y-76808801D01*
X218662992Y-76808801D02*
X218805849Y-76761182D01*
X218805849Y-76761182D02*
X218901087Y-76665943D01*
X218901087Y-76665943D02*
X218948706Y-76570705D01*
X218948706Y-76570705D02*
X218996325Y-76380229D01*
X218996325Y-76380229D02*
X218996325Y-76237372D01*
X218996325Y-76237372D02*
X218948706Y-76046896D01*
X218948706Y-76046896D02*
X218901087Y-75951658D01*
X218901087Y-75951658D02*
X218805849Y-75856420D01*
X218805849Y-75856420D02*
X218662992Y-75808801D01*
X218662992Y-75808801D02*
X218567754Y-75808801D01*
X218567754Y-75808801D02*
X218424897Y-75856420D01*
X218424897Y-75856420D02*
X218377278Y-75904039D01*
X217424897Y-76808801D02*
X217996325Y-76808801D01*
X217710611Y-76808801D02*
X217710611Y-75808801D01*
X217710611Y-75808801D02*
X217805849Y-75951658D01*
X217805849Y-75951658D02*
X217901087Y-76046896D01*
X217901087Y-76046896D02*
X217996325Y-76094515D01*
X216948706Y-76808801D02*
X216758230Y-76808801D01*
X216758230Y-76808801D02*
X216662992Y-76761182D01*
X216662992Y-76761182D02*
X216615373Y-76713562D01*
X216615373Y-76713562D02*
X216520135Y-76570705D01*
X216520135Y-76570705D02*
X216472516Y-76380229D01*
X216472516Y-76380229D02*
X216472516Y-75999277D01*
X216472516Y-75999277D02*
X216520135Y-75904039D01*
X216520135Y-75904039D02*
X216567754Y-75856420D01*
X216567754Y-75856420D02*
X216662992Y-75808801D01*
X216662992Y-75808801D02*
X216853468Y-75808801D01*
X216853468Y-75808801D02*
X216948706Y-75856420D01*
X216948706Y-75856420D02*
X216996325Y-75904039D01*
X216996325Y-75904039D02*
X217043944Y-75999277D01*
X217043944Y-75999277D02*
X217043944Y-76237372D01*
X217043944Y-76237372D02*
X216996325Y-76332610D01*
X216996325Y-76332610D02*
X216948706Y-76380229D01*
X216948706Y-76380229D02*
X216853468Y-76427848D01*
X216853468Y-76427848D02*
X216662992Y-76427848D01*
X216662992Y-76427848D02*
X216567754Y-76380229D01*
X216567754Y-76380229D02*
X216520135Y-76332610D01*
X216520135Y-76332610D02*
X216472516Y-76237372D01*
X221063587Y-88372112D02*
X221063587Y-88439456D01*
X221063587Y-88439456D02*
X221130931Y-88574143D01*
X221130931Y-88574143D02*
X221198274Y-88641486D01*
X221198274Y-88641486D02*
X221332961Y-88708830D01*
X221332961Y-88708830D02*
X221467648Y-88708830D01*
X221467648Y-88708830D02*
X221568663Y-88675158D01*
X221568663Y-88675158D02*
X221737022Y-88574143D01*
X221737022Y-88574143D02*
X221838037Y-88473128D01*
X221838037Y-88473128D02*
X221939053Y-88304769D01*
X221939053Y-88304769D02*
X221972724Y-88203754D01*
X221972724Y-88203754D02*
X221972724Y-88069067D01*
X221972724Y-88069067D02*
X221905381Y-87934380D01*
X221905381Y-87934380D02*
X221838037Y-87867036D01*
X221838037Y-87867036D02*
X221703350Y-87799693D01*
X221703350Y-87799693D02*
X221636007Y-87799693D01*
X221063587Y-87092586D02*
X221400305Y-87429303D01*
X221400305Y-87429303D02*
X221097259Y-87799693D01*
X221097259Y-87799693D02*
X221097259Y-87732349D01*
X221097259Y-87732349D02*
X221063587Y-87631334D01*
X221063587Y-87631334D02*
X220895228Y-87462975D01*
X220895228Y-87462975D02*
X220794213Y-87429303D01*
X220794213Y-87429303D02*
X220726870Y-87429303D01*
X220726870Y-87429303D02*
X220625854Y-87462975D01*
X220625854Y-87462975D02*
X220457496Y-87631334D01*
X220457496Y-87631334D02*
X220423824Y-87732349D01*
X220423824Y-87732349D02*
X220423824Y-87799693D01*
X220423824Y-87799693D02*
X220457496Y-87900708D01*
X220457496Y-87900708D02*
X220625854Y-88069067D01*
X220625854Y-88069067D02*
X220726870Y-88102738D01*
X220726870Y-88102738D02*
X220794213Y-88102738D01*
X222863588Y-90172112D02*
X222863588Y-90239456D01*
X222863588Y-90239456D02*
X222930932Y-90374143D01*
X222930932Y-90374143D02*
X222998275Y-90441486D01*
X222998275Y-90441486D02*
X223132962Y-90508830D01*
X223132962Y-90508830D02*
X223267649Y-90508830D01*
X223267649Y-90508830D02*
X223368664Y-90475158D01*
X223368664Y-90475158D02*
X223537023Y-90374143D01*
X223537023Y-90374143D02*
X223638038Y-90273128D01*
X223638038Y-90273128D02*
X223739054Y-90104769D01*
X223739054Y-90104769D02*
X223772725Y-90003754D01*
X223772725Y-90003754D02*
X223772725Y-89869067D01*
X223772725Y-89869067D02*
X223705382Y-89734380D01*
X223705382Y-89734380D02*
X223638038Y-89667036D01*
X223638038Y-89667036D02*
X223503351Y-89599693D01*
X223503351Y-89599693D02*
X223436008Y-89599693D01*
X222796245Y-89431334D02*
X222897260Y-89465006D01*
X222897260Y-89465006D02*
X222964603Y-89465006D01*
X222964603Y-89465006D02*
X223065619Y-89431334D01*
X223065619Y-89431334D02*
X223099290Y-89397662D01*
X223099290Y-89397662D02*
X223132962Y-89296647D01*
X223132962Y-89296647D02*
X223132962Y-89229303D01*
X223132962Y-89229303D02*
X223099290Y-89128288D01*
X223099290Y-89128288D02*
X222964603Y-88993601D01*
X222964603Y-88993601D02*
X222863588Y-88959929D01*
X222863588Y-88959929D02*
X222796245Y-88959929D01*
X222796245Y-88959929D02*
X222695229Y-88993601D01*
X222695229Y-88993601D02*
X222661558Y-89027273D01*
X222661558Y-89027273D02*
X222627886Y-89128288D01*
X222627886Y-89128288D02*
X222627886Y-89195632D01*
X222627886Y-89195632D02*
X222661558Y-89296647D01*
X222661558Y-89296647D02*
X222796245Y-89431334D01*
X222796245Y-89431334D02*
X222829916Y-89532349D01*
X222829916Y-89532349D02*
X222829916Y-89599693D01*
X222829916Y-89599693D02*
X222796245Y-89700708D01*
X222796245Y-89700708D02*
X222661558Y-89835395D01*
X222661558Y-89835395D02*
X222560542Y-89869067D01*
X222560542Y-89869067D02*
X222493199Y-89869067D01*
X222493199Y-89869067D02*
X222392184Y-89835395D01*
X222392184Y-89835395D02*
X222257497Y-89700708D01*
X222257497Y-89700708D02*
X222223825Y-89599693D01*
X222223825Y-89599693D02*
X222223825Y-89532349D01*
X222223825Y-89532349D02*
X222257497Y-89431334D01*
X222257497Y-89431334D02*
X222392184Y-89296647D01*
X222392184Y-89296647D02*
X222493199Y-89262975D01*
X222493199Y-89262975D02*
X222560542Y-89262975D01*
X222560542Y-89262975D02*
X222661558Y-89296647D01*
X79833333Y-91045180D02*
X79357143Y-91045180D01*
X79357143Y-91045180D02*
X79357143Y-92045180D01*
X80690476Y-91045180D02*
X80119048Y-91045180D01*
X80404762Y-91045180D02*
X80404762Y-92045180D01*
X80404762Y-92045180D02*
X80309524Y-91902323D01*
X80309524Y-91902323D02*
X80214286Y-91807085D01*
X80214286Y-91807085D02*
X80119048Y-91759466D01*
X78426133Y-93380951D02*
X78426133Y-92619047D01*
X81426133Y-93380951D02*
X81426133Y-92619047D01*
X81045180Y-92999999D02*
X81807085Y-92999999D01*
X239425064Y-69254819D02*
X239758397Y-68778628D01*
X239996492Y-69254819D02*
X239996492Y-68254819D01*
X239996492Y-68254819D02*
X239615540Y-68254819D01*
X239615540Y-68254819D02*
X239520302Y-68302438D01*
X239520302Y-68302438D02*
X239472683Y-68350057D01*
X239472683Y-68350057D02*
X239425064Y-68445295D01*
X239425064Y-68445295D02*
X239425064Y-68588152D01*
X239425064Y-68588152D02*
X239472683Y-68683390D01*
X239472683Y-68683390D02*
X239520302Y-68731009D01*
X239520302Y-68731009D02*
X239615540Y-68778628D01*
X239615540Y-68778628D02*
X239996492Y-68778628D01*
X239044111Y-68350057D02*
X238996492Y-68302438D01*
X238996492Y-68302438D02*
X238901254Y-68254819D01*
X238901254Y-68254819D02*
X238663159Y-68254819D01*
X238663159Y-68254819D02*
X238567921Y-68302438D01*
X238567921Y-68302438D02*
X238520302Y-68350057D01*
X238520302Y-68350057D02*
X238472683Y-68445295D01*
X238472683Y-68445295D02*
X238472683Y-68540533D01*
X238472683Y-68540533D02*
X238520302Y-68683390D01*
X238520302Y-68683390D02*
X239091730Y-69254819D01*
X239091730Y-69254819D02*
X238472683Y-69254819D01*
X237853635Y-68254819D02*
X237758397Y-68254819D01*
X237758397Y-68254819D02*
X237663159Y-68302438D01*
X237663159Y-68302438D02*
X237615540Y-68350057D01*
X237615540Y-68350057D02*
X237567921Y-68445295D01*
X237567921Y-68445295D02*
X237520302Y-68635771D01*
X237520302Y-68635771D02*
X237520302Y-68873866D01*
X237520302Y-68873866D02*
X237567921Y-69064342D01*
X237567921Y-69064342D02*
X237615540Y-69159580D01*
X237615540Y-69159580D02*
X237663159Y-69207200D01*
X237663159Y-69207200D02*
X237758397Y-69254819D01*
X237758397Y-69254819D02*
X237853635Y-69254819D01*
X237853635Y-69254819D02*
X237948873Y-69207200D01*
X237948873Y-69207200D02*
X237996492Y-69159580D01*
X237996492Y-69159580D02*
X238044111Y-69064342D01*
X238044111Y-69064342D02*
X238091730Y-68873866D01*
X238091730Y-68873866D02*
X238091730Y-68635771D01*
X238091730Y-68635771D02*
X238044111Y-68445295D01*
X238044111Y-68445295D02*
X237996492Y-68350057D01*
X237996492Y-68350057D02*
X237948873Y-68302438D01*
X237948873Y-68302438D02*
X237853635Y-68254819D01*
X240728031Y-147356417D02*
X240853760Y-146788913D01*
X241255962Y-147137741D02*
X240873278Y-146213861D01*
X240873278Y-146213861D02*
X240521324Y-146359646D01*
X240521324Y-146359646D02*
X240451559Y-146440086D01*
X240451559Y-146440086D02*
X240425788Y-146502303D01*
X240425788Y-146502303D02*
X240418239Y-146608515D01*
X240418239Y-146608515D02*
X240472908Y-146740497D01*
X240472908Y-146740497D02*
X240553349Y-146810263D01*
X240553349Y-146810263D02*
X240615566Y-146836034D01*
X240615566Y-146836034D02*
X240721778Y-146843582D01*
X240721778Y-146843582D02*
X241073732Y-146697798D01*
X240037387Y-146560099D02*
X239421468Y-146815221D01*
X239421468Y-146815221D02*
X240200100Y-147575093D01*
X206438989Y-56883247D02*
X206172323Y-56883247D01*
X206058037Y-57302295D02*
X206438989Y-57302295D01*
X206438989Y-57302295D02*
X206438989Y-56502295D01*
X206438989Y-56502295D02*
X206058037Y-56502295D01*
X205715179Y-57302295D02*
X205715179Y-56502295D01*
X205715179Y-56502295D02*
X205448513Y-57073723D01*
X205448513Y-57073723D02*
X205181846Y-56502295D01*
X205181846Y-56502295D02*
X205181846Y-57302295D01*
X204343750Y-57226104D02*
X204381846Y-57264200D01*
X204381846Y-57264200D02*
X204496131Y-57302295D01*
X204496131Y-57302295D02*
X204572322Y-57302295D01*
X204572322Y-57302295D02*
X204686608Y-57264200D01*
X204686608Y-57264200D02*
X204762798Y-57188009D01*
X204762798Y-57188009D02*
X204800893Y-57111819D01*
X204800893Y-57111819D02*
X204838989Y-56959438D01*
X204838989Y-56959438D02*
X204838989Y-56845152D01*
X204838989Y-56845152D02*
X204800893Y-56692771D01*
X204800893Y-56692771D02*
X204762798Y-56616580D01*
X204762798Y-56616580D02*
X204686608Y-56540390D01*
X204686608Y-56540390D02*
X204572322Y-56502295D01*
X204572322Y-56502295D02*
X204496131Y-56502295D01*
X204496131Y-56502295D02*
X204381846Y-56540390D01*
X204381846Y-56540390D02*
X204343750Y-56578485D01*
X203581846Y-57302295D02*
X204038989Y-57302295D01*
X203810417Y-57302295D02*
X203810417Y-56502295D01*
X203810417Y-56502295D02*
X203886608Y-56616580D01*
X203886608Y-56616580D02*
X203962798Y-56692771D01*
X203962798Y-56692771D02*
X204038989Y-56730866D01*
X191462323Y-65459580D02*
X191509942Y-65507200D01*
X191509942Y-65507200D02*
X191652799Y-65554819D01*
X191652799Y-65554819D02*
X191748037Y-65554819D01*
X191748037Y-65554819D02*
X191890894Y-65507200D01*
X191890894Y-65507200D02*
X191986132Y-65411961D01*
X191986132Y-65411961D02*
X192033751Y-65316723D01*
X192033751Y-65316723D02*
X192081370Y-65126247D01*
X192081370Y-65126247D02*
X192081370Y-64983390D01*
X192081370Y-64983390D02*
X192033751Y-64792914D01*
X192033751Y-64792914D02*
X191986132Y-64697676D01*
X191986132Y-64697676D02*
X191890894Y-64602438D01*
X191890894Y-64602438D02*
X191748037Y-64554819D01*
X191748037Y-64554819D02*
X191652799Y-64554819D01*
X191652799Y-64554819D02*
X191509942Y-64602438D01*
X191509942Y-64602438D02*
X191462323Y-64650057D01*
X190509942Y-65554819D02*
X191081370Y-65554819D01*
X190795656Y-65554819D02*
X190795656Y-64554819D01*
X190795656Y-64554819D02*
X190890894Y-64697676D01*
X190890894Y-64697676D02*
X190986132Y-64792914D01*
X190986132Y-64792914D02*
X191081370Y-64840533D01*
X189652799Y-64554819D02*
X189843275Y-64554819D01*
X189843275Y-64554819D02*
X189938513Y-64602438D01*
X189938513Y-64602438D02*
X189986132Y-64650057D01*
X189986132Y-64650057D02*
X190081370Y-64792914D01*
X190081370Y-64792914D02*
X190128989Y-64983390D01*
X190128989Y-64983390D02*
X190128989Y-65364342D01*
X190128989Y-65364342D02*
X190081370Y-65459580D01*
X190081370Y-65459580D02*
X190033751Y-65507200D01*
X190033751Y-65507200D02*
X189938513Y-65554819D01*
X189938513Y-65554819D02*
X189748037Y-65554819D01*
X189748037Y-65554819D02*
X189652799Y-65507200D01*
X189652799Y-65507200D02*
X189605180Y-65459580D01*
X189605180Y-65459580D02*
X189557561Y-65364342D01*
X189557561Y-65364342D02*
X189557561Y-65126247D01*
X189557561Y-65126247D02*
X189605180Y-65031009D01*
X189605180Y-65031009D02*
X189652799Y-64983390D01*
X189652799Y-64983390D02*
X189748037Y-64935771D01*
X189748037Y-64935771D02*
X189938513Y-64935771D01*
X189938513Y-64935771D02*
X190033751Y-64983390D01*
X190033751Y-64983390D02*
X190081370Y-65031009D01*
X190081370Y-65031009D02*
X190128989Y-65126247D01*
X206573246Y-82145090D02*
X207049437Y-82478423D01*
X206573246Y-82716518D02*
X207573246Y-82716518D01*
X207573246Y-82716518D02*
X207573246Y-82335566D01*
X207573246Y-82335566D02*
X207525627Y-82240328D01*
X207525627Y-82240328D02*
X207478008Y-82192709D01*
X207478008Y-82192709D02*
X207382770Y-82145090D01*
X207382770Y-82145090D02*
X207239913Y-82145090D01*
X207239913Y-82145090D02*
X207144675Y-82192709D01*
X207144675Y-82192709D02*
X207097056Y-82240328D01*
X207097056Y-82240328D02*
X207049437Y-82335566D01*
X207049437Y-82335566D02*
X207049437Y-82716518D01*
X207573246Y-81811756D02*
X207573246Y-81192709D01*
X207573246Y-81192709D02*
X207192294Y-81526042D01*
X207192294Y-81526042D02*
X207192294Y-81383185D01*
X207192294Y-81383185D02*
X207144675Y-81287947D01*
X207144675Y-81287947D02*
X207097056Y-81240328D01*
X207097056Y-81240328D02*
X207001818Y-81192709D01*
X207001818Y-81192709D02*
X206763723Y-81192709D01*
X206763723Y-81192709D02*
X206668485Y-81240328D01*
X206668485Y-81240328D02*
X206620866Y-81287947D01*
X206620866Y-81287947D02*
X206573246Y-81383185D01*
X206573246Y-81383185D02*
X206573246Y-81668899D01*
X206573246Y-81668899D02*
X206620866Y-81764137D01*
X206620866Y-81764137D02*
X206668485Y-81811756D01*
X207144675Y-80621280D02*
X207192294Y-80716518D01*
X207192294Y-80716518D02*
X207239913Y-80764137D01*
X207239913Y-80764137D02*
X207335151Y-80811756D01*
X207335151Y-80811756D02*
X207382770Y-80811756D01*
X207382770Y-80811756D02*
X207478008Y-80764137D01*
X207478008Y-80764137D02*
X207525627Y-80716518D01*
X207525627Y-80716518D02*
X207573246Y-80621280D01*
X207573246Y-80621280D02*
X207573246Y-80430804D01*
X207573246Y-80430804D02*
X207525627Y-80335566D01*
X207525627Y-80335566D02*
X207478008Y-80287947D01*
X207478008Y-80287947D02*
X207382770Y-80240328D01*
X207382770Y-80240328D02*
X207335151Y-80240328D01*
X207335151Y-80240328D02*
X207239913Y-80287947D01*
X207239913Y-80287947D02*
X207192294Y-80335566D01*
X207192294Y-80335566D02*
X207144675Y-80430804D01*
X207144675Y-80430804D02*
X207144675Y-80621280D01*
X207144675Y-80621280D02*
X207097056Y-80716518D01*
X207097056Y-80716518D02*
X207049437Y-80764137D01*
X207049437Y-80764137D02*
X206954199Y-80811756D01*
X206954199Y-80811756D02*
X206763723Y-80811756D01*
X206763723Y-80811756D02*
X206668485Y-80764137D01*
X206668485Y-80764137D02*
X206620866Y-80716518D01*
X206620866Y-80716518D02*
X206573246Y-80621280D01*
X206573246Y-80621280D02*
X206573246Y-80430804D01*
X206573246Y-80430804D02*
X206620866Y-80335566D01*
X206620866Y-80335566D02*
X206668485Y-80287947D01*
X206668485Y-80287947D02*
X206763723Y-80240328D01*
X206763723Y-80240328D02*
X206954199Y-80240328D01*
X206954199Y-80240328D02*
X207049437Y-80287947D01*
X207049437Y-80287947D02*
X207097056Y-80335566D01*
X207097056Y-80335566D02*
X207144675Y-80430804D01*
X218542857Y-68559580D02*
X218590476Y-68607200D01*
X218590476Y-68607200D02*
X218733333Y-68654819D01*
X218733333Y-68654819D02*
X218828571Y-68654819D01*
X218828571Y-68654819D02*
X218971428Y-68607200D01*
X218971428Y-68607200D02*
X219066666Y-68511961D01*
X219066666Y-68511961D02*
X219114285Y-68416723D01*
X219114285Y-68416723D02*
X219161904Y-68226247D01*
X219161904Y-68226247D02*
X219161904Y-68083390D01*
X219161904Y-68083390D02*
X219114285Y-67892914D01*
X219114285Y-67892914D02*
X219066666Y-67797676D01*
X219066666Y-67797676D02*
X218971428Y-67702438D01*
X218971428Y-67702438D02*
X218828571Y-67654819D01*
X218828571Y-67654819D02*
X218733333Y-67654819D01*
X218733333Y-67654819D02*
X218590476Y-67702438D01*
X218590476Y-67702438D02*
X218542857Y-67750057D01*
X217590476Y-68654819D02*
X218161904Y-68654819D01*
X217876190Y-68654819D02*
X217876190Y-67654819D01*
X217876190Y-67654819D02*
X217971428Y-67797676D01*
X217971428Y-67797676D02*
X218066666Y-67892914D01*
X218066666Y-67892914D02*
X218161904Y-67940533D01*
X217257142Y-67654819D02*
X216590476Y-67654819D01*
X216590476Y-67654819D02*
X217019047Y-68654819D01*
X210720180Y-66292857D02*
X211196371Y-66626190D01*
X210720180Y-66864285D02*
X211720180Y-66864285D01*
X211720180Y-66864285D02*
X211720180Y-66483333D01*
X211720180Y-66483333D02*
X211672561Y-66388095D01*
X211672561Y-66388095D02*
X211624942Y-66340476D01*
X211624942Y-66340476D02*
X211529704Y-66292857D01*
X211529704Y-66292857D02*
X211386847Y-66292857D01*
X211386847Y-66292857D02*
X211291609Y-66340476D01*
X211291609Y-66340476D02*
X211243990Y-66388095D01*
X211243990Y-66388095D02*
X211196371Y-66483333D01*
X211196371Y-66483333D02*
X211196371Y-66864285D01*
X211624942Y-65911904D02*
X211672561Y-65864285D01*
X211672561Y-65864285D02*
X211720180Y-65769047D01*
X211720180Y-65769047D02*
X211720180Y-65530952D01*
X211720180Y-65530952D02*
X211672561Y-65435714D01*
X211672561Y-65435714D02*
X211624942Y-65388095D01*
X211624942Y-65388095D02*
X211529704Y-65340476D01*
X211529704Y-65340476D02*
X211434466Y-65340476D01*
X211434466Y-65340476D02*
X211291609Y-65388095D01*
X211291609Y-65388095D02*
X210720180Y-65959523D01*
X210720180Y-65959523D02*
X210720180Y-65340476D01*
X211720180Y-65007142D02*
X211720180Y-64340476D01*
X211720180Y-64340476D02*
X210720180Y-64769047D01*
X233221196Y-72983247D02*
X232954530Y-72983247D01*
X232840244Y-73402295D02*
X233221196Y-73402295D01*
X233221196Y-73402295D02*
X233221196Y-72602295D01*
X233221196Y-72602295D02*
X232840244Y-72602295D01*
X232497386Y-73402295D02*
X232497386Y-72602295D01*
X232497386Y-72602295D02*
X232230720Y-73173723D01*
X232230720Y-73173723D02*
X231964053Y-72602295D01*
X231964053Y-72602295D02*
X231964053Y-73402295D01*
X231316434Y-72983247D02*
X231202148Y-73021342D01*
X231202148Y-73021342D02*
X231164053Y-73059438D01*
X231164053Y-73059438D02*
X231125957Y-73135628D01*
X231125957Y-73135628D02*
X231125957Y-73249914D01*
X231125957Y-73249914D02*
X231164053Y-73326104D01*
X231164053Y-73326104D02*
X231202148Y-73364200D01*
X231202148Y-73364200D02*
X231278338Y-73402295D01*
X231278338Y-73402295D02*
X231583100Y-73402295D01*
X231583100Y-73402295D02*
X231583100Y-72602295D01*
X231583100Y-72602295D02*
X231316434Y-72602295D01*
X231316434Y-72602295D02*
X231240243Y-72640390D01*
X231240243Y-72640390D02*
X231202148Y-72678485D01*
X231202148Y-72678485D02*
X231164053Y-72754676D01*
X231164053Y-72754676D02*
X231164053Y-72830866D01*
X231164053Y-72830866D02*
X231202148Y-72907057D01*
X231202148Y-72907057D02*
X231240243Y-72945152D01*
X231240243Y-72945152D02*
X231316434Y-72983247D01*
X231316434Y-72983247D02*
X231583100Y-72983247D01*
X230364053Y-73402295D02*
X230821196Y-73402295D01*
X230592624Y-73402295D02*
X230592624Y-72602295D01*
X230592624Y-72602295D02*
X230668815Y-72716580D01*
X230668815Y-72716580D02*
X230745005Y-72792771D01*
X230745005Y-72792771D02*
X230821196Y-72830866D01*
X202573246Y-82145090D02*
X203049437Y-82478423D01*
X202573246Y-82716518D02*
X203573246Y-82716518D01*
X203573246Y-82716518D02*
X203573246Y-82335566D01*
X203573246Y-82335566D02*
X203525627Y-82240328D01*
X203525627Y-82240328D02*
X203478008Y-82192709D01*
X203478008Y-82192709D02*
X203382770Y-82145090D01*
X203382770Y-82145090D02*
X203239913Y-82145090D01*
X203239913Y-82145090D02*
X203144675Y-82192709D01*
X203144675Y-82192709D02*
X203097056Y-82240328D01*
X203097056Y-82240328D02*
X203049437Y-82335566D01*
X203049437Y-82335566D02*
X203049437Y-82716518D01*
X203573246Y-81811756D02*
X203573246Y-81192709D01*
X203573246Y-81192709D02*
X203192294Y-81526042D01*
X203192294Y-81526042D02*
X203192294Y-81383185D01*
X203192294Y-81383185D02*
X203144675Y-81287947D01*
X203144675Y-81287947D02*
X203097056Y-81240328D01*
X203097056Y-81240328D02*
X203001818Y-81192709D01*
X203001818Y-81192709D02*
X202763723Y-81192709D01*
X202763723Y-81192709D02*
X202668485Y-81240328D01*
X202668485Y-81240328D02*
X202620866Y-81287947D01*
X202620866Y-81287947D02*
X202573246Y-81383185D01*
X202573246Y-81383185D02*
X202573246Y-81668899D01*
X202573246Y-81668899D02*
X202620866Y-81764137D01*
X202620866Y-81764137D02*
X202668485Y-81811756D01*
X202573246Y-80716518D02*
X202573246Y-80526042D01*
X202573246Y-80526042D02*
X202620866Y-80430804D01*
X202620866Y-80430804D02*
X202668485Y-80383185D01*
X202668485Y-80383185D02*
X202811342Y-80287947D01*
X202811342Y-80287947D02*
X203001818Y-80240328D01*
X203001818Y-80240328D02*
X203382770Y-80240328D01*
X203382770Y-80240328D02*
X203478008Y-80287947D01*
X203478008Y-80287947D02*
X203525627Y-80335566D01*
X203525627Y-80335566D02*
X203573246Y-80430804D01*
X203573246Y-80430804D02*
X203573246Y-80621280D01*
X203573246Y-80621280D02*
X203525627Y-80716518D01*
X203525627Y-80716518D02*
X203478008Y-80764137D01*
X203478008Y-80764137D02*
X203382770Y-80811756D01*
X203382770Y-80811756D02*
X203144675Y-80811756D01*
X203144675Y-80811756D02*
X203049437Y-80764137D01*
X203049437Y-80764137D02*
X203001818Y-80716518D01*
X203001818Y-80716518D02*
X202954199Y-80621280D01*
X202954199Y-80621280D02*
X202954199Y-80430804D01*
X202954199Y-80430804D02*
X203001818Y-80335566D01*
X203001818Y-80335566D02*
X203049437Y-80287947D01*
X203049437Y-80287947D02*
X203144675Y-80240328D01*
X191470923Y-78890795D02*
X191518542Y-78938415D01*
X191518542Y-78938415D02*
X191661399Y-78986034D01*
X191661399Y-78986034D02*
X191756637Y-78986034D01*
X191756637Y-78986034D02*
X191899494Y-78938415D01*
X191899494Y-78938415D02*
X191994732Y-78843176D01*
X191994732Y-78843176D02*
X192042351Y-78747938D01*
X192042351Y-78747938D02*
X192089970Y-78557462D01*
X192089970Y-78557462D02*
X192089970Y-78414605D01*
X192089970Y-78414605D02*
X192042351Y-78224129D01*
X192042351Y-78224129D02*
X191994732Y-78128891D01*
X191994732Y-78128891D02*
X191899494Y-78033653D01*
X191899494Y-78033653D02*
X191756637Y-77986034D01*
X191756637Y-77986034D02*
X191661399Y-77986034D01*
X191661399Y-77986034D02*
X191518542Y-78033653D01*
X191518542Y-78033653D02*
X191470923Y-78081272D01*
X191089970Y-78081272D02*
X191042351Y-78033653D01*
X191042351Y-78033653D02*
X190947113Y-77986034D01*
X190947113Y-77986034D02*
X190709018Y-77986034D01*
X190709018Y-77986034D02*
X190613780Y-78033653D01*
X190613780Y-78033653D02*
X190566161Y-78081272D01*
X190566161Y-78081272D02*
X190518542Y-78176510D01*
X190518542Y-78176510D02*
X190518542Y-78271748D01*
X190518542Y-78271748D02*
X190566161Y-78414605D01*
X190566161Y-78414605D02*
X191137589Y-78986034D01*
X191137589Y-78986034D02*
X190518542Y-78986034D01*
X190137589Y-78081272D02*
X190089970Y-78033653D01*
X190089970Y-78033653D02*
X189994732Y-77986034D01*
X189994732Y-77986034D02*
X189756637Y-77986034D01*
X189756637Y-77986034D02*
X189661399Y-78033653D01*
X189661399Y-78033653D02*
X189613780Y-78081272D01*
X189613780Y-78081272D02*
X189566161Y-78176510D01*
X189566161Y-78176510D02*
X189566161Y-78271748D01*
X189566161Y-78271748D02*
X189613780Y-78414605D01*
X189613780Y-78414605D02*
X190185208Y-78986034D01*
X190185208Y-78986034D02*
X189566161Y-78986034D01*
X214238095Y-41992800D02*
X214380952Y-41945180D01*
X214380952Y-41945180D02*
X214619047Y-41945180D01*
X214619047Y-41945180D02*
X214714285Y-41992800D01*
X214714285Y-41992800D02*
X214761904Y-42040419D01*
X214761904Y-42040419D02*
X214809523Y-42135657D01*
X214809523Y-42135657D02*
X214809523Y-42230895D01*
X214809523Y-42230895D02*
X214761904Y-42326133D01*
X214761904Y-42326133D02*
X214714285Y-42373752D01*
X214714285Y-42373752D02*
X214619047Y-42421371D01*
X214619047Y-42421371D02*
X214428571Y-42468990D01*
X214428571Y-42468990D02*
X214333333Y-42516609D01*
X214333333Y-42516609D02*
X214285714Y-42564228D01*
X214285714Y-42564228D02*
X214238095Y-42659466D01*
X214238095Y-42659466D02*
X214238095Y-42754704D01*
X214238095Y-42754704D02*
X214285714Y-42849942D01*
X214285714Y-42849942D02*
X214333333Y-42897561D01*
X214333333Y-42897561D02*
X214428571Y-42945180D01*
X214428571Y-42945180D02*
X214666666Y-42945180D01*
X214666666Y-42945180D02*
X214809523Y-42897561D01*
X215761904Y-41945180D02*
X215190476Y-41945180D01*
X215476190Y-41945180D02*
X215476190Y-42945180D01*
X215476190Y-42945180D02*
X215380952Y-42802323D01*
X215380952Y-42802323D02*
X215285714Y-42707085D01*
X215285714Y-42707085D02*
X215190476Y-42659466D01*
X212219264Y-78345090D02*
X212695455Y-78678423D01*
X212219264Y-78916518D02*
X213219264Y-78916518D01*
X213219264Y-78916518D02*
X213219264Y-78535566D01*
X213219264Y-78535566D02*
X213171645Y-78440328D01*
X213171645Y-78440328D02*
X213124026Y-78392709D01*
X213124026Y-78392709D02*
X213028788Y-78345090D01*
X213028788Y-78345090D02*
X212885931Y-78345090D01*
X212885931Y-78345090D02*
X212790693Y-78392709D01*
X212790693Y-78392709D02*
X212743074Y-78440328D01*
X212743074Y-78440328D02*
X212695455Y-78535566D01*
X212695455Y-78535566D02*
X212695455Y-78916518D01*
X212219264Y-77392709D02*
X212219264Y-77964137D01*
X212219264Y-77678423D02*
X213219264Y-77678423D01*
X213219264Y-77678423D02*
X213076407Y-77773661D01*
X213076407Y-77773661D02*
X212981169Y-77868899D01*
X212981169Y-77868899D02*
X212933550Y-77964137D01*
X213219264Y-77059375D02*
X213219264Y-76392709D01*
X213219264Y-76392709D02*
X212219264Y-76821280D01*
X191470923Y-81290795D02*
X191518542Y-81338415D01*
X191518542Y-81338415D02*
X191661399Y-81386034D01*
X191661399Y-81386034D02*
X191756637Y-81386034D01*
X191756637Y-81386034D02*
X191899494Y-81338415D01*
X191899494Y-81338415D02*
X191994732Y-81243176D01*
X191994732Y-81243176D02*
X192042351Y-81147938D01*
X192042351Y-81147938D02*
X192089970Y-80957462D01*
X192089970Y-80957462D02*
X192089970Y-80814605D01*
X192089970Y-80814605D02*
X192042351Y-80624129D01*
X192042351Y-80624129D02*
X191994732Y-80528891D01*
X191994732Y-80528891D02*
X191899494Y-80433653D01*
X191899494Y-80433653D02*
X191756637Y-80386034D01*
X191756637Y-80386034D02*
X191661399Y-80386034D01*
X191661399Y-80386034D02*
X191518542Y-80433653D01*
X191518542Y-80433653D02*
X191470923Y-80481272D01*
X191089970Y-80481272D02*
X191042351Y-80433653D01*
X191042351Y-80433653D02*
X190947113Y-80386034D01*
X190947113Y-80386034D02*
X190709018Y-80386034D01*
X190709018Y-80386034D02*
X190613780Y-80433653D01*
X190613780Y-80433653D02*
X190566161Y-80481272D01*
X190566161Y-80481272D02*
X190518542Y-80576510D01*
X190518542Y-80576510D02*
X190518542Y-80671748D01*
X190518542Y-80671748D02*
X190566161Y-80814605D01*
X190566161Y-80814605D02*
X191137589Y-81386034D01*
X191137589Y-81386034D02*
X190518542Y-81386034D01*
X189661399Y-80719367D02*
X189661399Y-81386034D01*
X189899494Y-80338415D02*
X190137589Y-81052700D01*
X190137589Y-81052700D02*
X189518542Y-81052700D01*
X79238095Y-42192800D02*
X79380952Y-42145180D01*
X79380952Y-42145180D02*
X79619047Y-42145180D01*
X79619047Y-42145180D02*
X79714285Y-42192800D01*
X79714285Y-42192800D02*
X79761904Y-42240419D01*
X79761904Y-42240419D02*
X79809523Y-42335657D01*
X79809523Y-42335657D02*
X79809523Y-42430895D01*
X79809523Y-42430895D02*
X79761904Y-42526133D01*
X79761904Y-42526133D02*
X79714285Y-42573752D01*
X79714285Y-42573752D02*
X79619047Y-42621371D01*
X79619047Y-42621371D02*
X79428571Y-42668990D01*
X79428571Y-42668990D02*
X79333333Y-42716609D01*
X79333333Y-42716609D02*
X79285714Y-42764228D01*
X79285714Y-42764228D02*
X79238095Y-42859466D01*
X79238095Y-42859466D02*
X79238095Y-42954704D01*
X79238095Y-42954704D02*
X79285714Y-43049942D01*
X79285714Y-43049942D02*
X79333333Y-43097561D01*
X79333333Y-43097561D02*
X79428571Y-43145180D01*
X79428571Y-43145180D02*
X79666666Y-43145180D01*
X79666666Y-43145180D02*
X79809523Y-43097561D01*
X80714285Y-43145180D02*
X80238095Y-43145180D01*
X80238095Y-43145180D02*
X80190476Y-42668990D01*
X80190476Y-42668990D02*
X80238095Y-42716609D01*
X80238095Y-42716609D02*
X80333333Y-42764228D01*
X80333333Y-42764228D02*
X80571428Y-42764228D01*
X80571428Y-42764228D02*
X80666666Y-42716609D01*
X80666666Y-42716609D02*
X80714285Y-42668990D01*
X80714285Y-42668990D02*
X80761904Y-42573752D01*
X80761904Y-42573752D02*
X80761904Y-42335657D01*
X80761904Y-42335657D02*
X80714285Y-42240419D01*
X80714285Y-42240419D02*
X80666666Y-42192800D01*
X80666666Y-42192800D02*
X80571428Y-42145180D01*
X80571428Y-42145180D02*
X80333333Y-42145180D01*
X80333333Y-42145180D02*
X80238095Y-42192800D01*
X80238095Y-42192800D02*
X80190476Y-42240419D01*
X206745180Y-66342857D02*
X207221371Y-66676190D01*
X206745180Y-66914285D02*
X207745180Y-66914285D01*
X207745180Y-66914285D02*
X207745180Y-66533333D01*
X207745180Y-66533333D02*
X207697561Y-66438095D01*
X207697561Y-66438095D02*
X207649942Y-66390476D01*
X207649942Y-66390476D02*
X207554704Y-66342857D01*
X207554704Y-66342857D02*
X207411847Y-66342857D01*
X207411847Y-66342857D02*
X207316609Y-66390476D01*
X207316609Y-66390476D02*
X207268990Y-66438095D01*
X207268990Y-66438095D02*
X207221371Y-66533333D01*
X207221371Y-66533333D02*
X207221371Y-66914285D01*
X207649942Y-65961904D02*
X207697561Y-65914285D01*
X207697561Y-65914285D02*
X207745180Y-65819047D01*
X207745180Y-65819047D02*
X207745180Y-65580952D01*
X207745180Y-65580952D02*
X207697561Y-65485714D01*
X207697561Y-65485714D02*
X207649942Y-65438095D01*
X207649942Y-65438095D02*
X207554704Y-65390476D01*
X207554704Y-65390476D02*
X207459466Y-65390476D01*
X207459466Y-65390476D02*
X207316609Y-65438095D01*
X207316609Y-65438095D02*
X206745180Y-66009523D01*
X206745180Y-66009523D02*
X206745180Y-65390476D01*
X207316609Y-64819047D02*
X207364228Y-64914285D01*
X207364228Y-64914285D02*
X207411847Y-64961904D01*
X207411847Y-64961904D02*
X207507085Y-65009523D01*
X207507085Y-65009523D02*
X207554704Y-65009523D01*
X207554704Y-65009523D02*
X207649942Y-64961904D01*
X207649942Y-64961904D02*
X207697561Y-64914285D01*
X207697561Y-64914285D02*
X207745180Y-64819047D01*
X207745180Y-64819047D02*
X207745180Y-64628571D01*
X207745180Y-64628571D02*
X207697561Y-64533333D01*
X207697561Y-64533333D02*
X207649942Y-64485714D01*
X207649942Y-64485714D02*
X207554704Y-64438095D01*
X207554704Y-64438095D02*
X207507085Y-64438095D01*
X207507085Y-64438095D02*
X207411847Y-64485714D01*
X207411847Y-64485714D02*
X207364228Y-64533333D01*
X207364228Y-64533333D02*
X207316609Y-64628571D01*
X207316609Y-64628571D02*
X207316609Y-64819047D01*
X207316609Y-64819047D02*
X207268990Y-64914285D01*
X207268990Y-64914285D02*
X207221371Y-64961904D01*
X207221371Y-64961904D02*
X207126133Y-65009523D01*
X207126133Y-65009523D02*
X206935657Y-65009523D01*
X206935657Y-65009523D02*
X206840419Y-64961904D01*
X206840419Y-64961904D02*
X206792800Y-64914285D01*
X206792800Y-64914285D02*
X206745180Y-64819047D01*
X206745180Y-64819047D02*
X206745180Y-64628571D01*
X206745180Y-64628571D02*
X206792800Y-64533333D01*
X206792800Y-64533333D02*
X206840419Y-64485714D01*
X206840419Y-64485714D02*
X206935657Y-64438095D01*
X206935657Y-64438095D02*
X207126133Y-64438095D01*
X207126133Y-64438095D02*
X207221371Y-64485714D01*
X207221371Y-64485714D02*
X207268990Y-64533333D01*
X207268990Y-64533333D02*
X207316609Y-64628571D01*
X218494530Y-65559580D02*
X218542149Y-65607200D01*
X218542149Y-65607200D02*
X218685006Y-65654819D01*
X218685006Y-65654819D02*
X218780244Y-65654819D01*
X218780244Y-65654819D02*
X218923101Y-65607200D01*
X218923101Y-65607200D02*
X219018339Y-65511961D01*
X219018339Y-65511961D02*
X219065958Y-65416723D01*
X219065958Y-65416723D02*
X219113577Y-65226247D01*
X219113577Y-65226247D02*
X219113577Y-65083390D01*
X219113577Y-65083390D02*
X219065958Y-64892914D01*
X219065958Y-64892914D02*
X219018339Y-64797676D01*
X219018339Y-64797676D02*
X218923101Y-64702438D01*
X218923101Y-64702438D02*
X218780244Y-64654819D01*
X218780244Y-64654819D02*
X218685006Y-64654819D01*
X218685006Y-64654819D02*
X218542149Y-64702438D01*
X218542149Y-64702438D02*
X218494530Y-64750057D01*
X217542149Y-65654819D02*
X218113577Y-65654819D01*
X217827863Y-65654819D02*
X217827863Y-64654819D01*
X217827863Y-64654819D02*
X217923101Y-64797676D01*
X217923101Y-64797676D02*
X218018339Y-64892914D01*
X218018339Y-64892914D02*
X218113577Y-64940533D01*
X216637387Y-64654819D02*
X217113577Y-64654819D01*
X217113577Y-64654819D02*
X217161196Y-65131009D01*
X217161196Y-65131009D02*
X217113577Y-65083390D01*
X217113577Y-65083390D02*
X217018339Y-65035771D01*
X217018339Y-65035771D02*
X216780244Y-65035771D01*
X216780244Y-65035771D02*
X216685006Y-65083390D01*
X216685006Y-65083390D02*
X216637387Y-65131009D01*
X216637387Y-65131009D02*
X216589768Y-65226247D01*
X216589768Y-65226247D02*
X216589768Y-65464342D01*
X216589768Y-65464342D02*
X216637387Y-65559580D01*
X216637387Y-65559580D02*
X216685006Y-65607200D01*
X216685006Y-65607200D02*
X216780244Y-65654819D01*
X216780244Y-65654819D02*
X217018339Y-65654819D01*
X217018339Y-65654819D02*
X217113577Y-65607200D01*
X217113577Y-65607200D02*
X217161196Y-65559580D01*
X228025064Y-69254819D02*
X228358397Y-68778628D01*
X228596492Y-69254819D02*
X228596492Y-68254819D01*
X228596492Y-68254819D02*
X228215540Y-68254819D01*
X228215540Y-68254819D02*
X228120302Y-68302438D01*
X228120302Y-68302438D02*
X228072683Y-68350057D01*
X228072683Y-68350057D02*
X228025064Y-68445295D01*
X228025064Y-68445295D02*
X228025064Y-68588152D01*
X228025064Y-68588152D02*
X228072683Y-68683390D01*
X228072683Y-68683390D02*
X228120302Y-68731009D01*
X228120302Y-68731009D02*
X228215540Y-68778628D01*
X228215540Y-68778628D02*
X228596492Y-68778628D01*
X227644111Y-68350057D02*
X227596492Y-68302438D01*
X227596492Y-68302438D02*
X227501254Y-68254819D01*
X227501254Y-68254819D02*
X227263159Y-68254819D01*
X227263159Y-68254819D02*
X227167921Y-68302438D01*
X227167921Y-68302438D02*
X227120302Y-68350057D01*
X227120302Y-68350057D02*
X227072683Y-68445295D01*
X227072683Y-68445295D02*
X227072683Y-68540533D01*
X227072683Y-68540533D02*
X227120302Y-68683390D01*
X227120302Y-68683390D02*
X227691730Y-69254819D01*
X227691730Y-69254819D02*
X227072683Y-69254819D01*
X226120302Y-69254819D02*
X226691730Y-69254819D01*
X226406016Y-69254819D02*
X226406016Y-68254819D01*
X226406016Y-68254819D02*
X226501254Y-68397676D01*
X226501254Y-68397676D02*
X226596492Y-68492914D01*
X226596492Y-68492914D02*
X226691730Y-68540533D01*
X239327387Y-62592857D02*
X239803578Y-62926190D01*
X239327387Y-63164285D02*
X240327387Y-63164285D01*
X240327387Y-63164285D02*
X240327387Y-62783333D01*
X240327387Y-62783333D02*
X240279768Y-62688095D01*
X240279768Y-62688095D02*
X240232149Y-62640476D01*
X240232149Y-62640476D02*
X240136911Y-62592857D01*
X240136911Y-62592857D02*
X239994054Y-62592857D01*
X239994054Y-62592857D02*
X239898816Y-62640476D01*
X239898816Y-62640476D02*
X239851197Y-62688095D01*
X239851197Y-62688095D02*
X239803578Y-62783333D01*
X239803578Y-62783333D02*
X239803578Y-63164285D01*
X239327387Y-61640476D02*
X239327387Y-62211904D01*
X239327387Y-61926190D02*
X240327387Y-61926190D01*
X240327387Y-61926190D02*
X240184530Y-62021428D01*
X240184530Y-62021428D02*
X240089292Y-62116666D01*
X240089292Y-62116666D02*
X240041673Y-62211904D01*
X240232149Y-61259523D02*
X240279768Y-61211904D01*
X240279768Y-61211904D02*
X240327387Y-61116666D01*
X240327387Y-61116666D02*
X240327387Y-60878571D01*
X240327387Y-60878571D02*
X240279768Y-60783333D01*
X240279768Y-60783333D02*
X240232149Y-60735714D01*
X240232149Y-60735714D02*
X240136911Y-60688095D01*
X240136911Y-60688095D02*
X240041673Y-60688095D01*
X240041673Y-60688095D02*
X239898816Y-60735714D01*
X239898816Y-60735714D02*
X239327387Y-61307142D01*
X239327387Y-61307142D02*
X239327387Y-60688095D01*
X221993743Y-103150520D02*
X221993743Y-103217864D01*
X221993743Y-103217864D02*
X222061087Y-103352551D01*
X222061087Y-103352551D02*
X222128430Y-103419894D01*
X222128430Y-103419894D02*
X222263117Y-103487238D01*
X222263117Y-103487238D02*
X222397804Y-103487238D01*
X222397804Y-103487238D02*
X222498819Y-103453566D01*
X222498819Y-103453566D02*
X222667178Y-103352551D01*
X222667178Y-103352551D02*
X222768193Y-103251536D01*
X222768193Y-103251536D02*
X222869209Y-103083177D01*
X222869209Y-103083177D02*
X222902880Y-102982162D01*
X222902880Y-102982162D02*
X222902880Y-102847475D01*
X222902880Y-102847475D02*
X222835537Y-102712788D01*
X222835537Y-102712788D02*
X222768193Y-102645444D01*
X222768193Y-102645444D02*
X222633506Y-102578101D01*
X222633506Y-102578101D02*
X222566163Y-102578101D01*
X222397804Y-102275055D02*
X221960071Y-101837322D01*
X221960071Y-101837322D02*
X221926400Y-102342398D01*
X221926400Y-102342398D02*
X221825384Y-102241383D01*
X221825384Y-102241383D02*
X221724369Y-102207711D01*
X221724369Y-102207711D02*
X221657026Y-102207711D01*
X221657026Y-102207711D02*
X221556010Y-102241383D01*
X221556010Y-102241383D02*
X221387652Y-102409742D01*
X221387652Y-102409742D02*
X221353980Y-102510757D01*
X221353980Y-102510757D02*
X221353980Y-102578101D01*
X221353980Y-102578101D02*
X221387652Y-102679116D01*
X221387652Y-102679116D02*
X221589682Y-102881146D01*
X221589682Y-102881146D02*
X221690697Y-102914818D01*
X221690697Y-102914818D02*
X221758041Y-102914818D01*
X221623354Y-101635291D02*
X221623354Y-101567948D01*
X221623354Y-101567948D02*
X221589682Y-101466933D01*
X221589682Y-101466933D02*
X221421323Y-101298574D01*
X221421323Y-101298574D02*
X221320308Y-101264902D01*
X221320308Y-101264902D02*
X221252964Y-101264902D01*
X221252964Y-101264902D02*
X221151949Y-101298574D01*
X221151949Y-101298574D02*
X221084606Y-101365917D01*
X221084606Y-101365917D02*
X221017262Y-101500604D01*
X221017262Y-101500604D02*
X221017262Y-102308726D01*
X221017262Y-102308726D02*
X220579529Y-101870994D01*
X252132963Y-126576174D02*
X252705382Y-126475159D01*
X252537024Y-126980235D02*
X253244130Y-126273128D01*
X253244130Y-126273128D02*
X252974756Y-126003754D01*
X252974756Y-126003754D02*
X252873741Y-125970082D01*
X252873741Y-125970082D02*
X252806398Y-125970082D01*
X252806398Y-125970082D02*
X252705382Y-126003754D01*
X252705382Y-126003754D02*
X252604367Y-126104769D01*
X252604367Y-126104769D02*
X252570695Y-126205785D01*
X252570695Y-126205785D02*
X252570695Y-126273128D01*
X252570695Y-126273128D02*
X252604367Y-126374143D01*
X252604367Y-126374143D02*
X252873741Y-126643517D01*
X251459528Y-125902739D02*
X251863589Y-126306800D01*
X251661558Y-126104769D02*
X252368665Y-125397663D01*
X252368665Y-125397663D02*
X252334993Y-125566021D01*
X252334993Y-125566021D02*
X252334993Y-125700708D01*
X252334993Y-125700708D02*
X252368665Y-125801724D01*
X251459527Y-125094617D02*
X251560543Y-125128288D01*
X251560543Y-125128288D02*
X251627886Y-125128288D01*
X251627886Y-125128288D02*
X251728901Y-125094617D01*
X251728901Y-125094617D02*
X251762573Y-125060945D01*
X251762573Y-125060945D02*
X251796245Y-124959930D01*
X251796245Y-124959930D02*
X251796245Y-124892586D01*
X251796245Y-124892586D02*
X251762573Y-124791571D01*
X251762573Y-124791571D02*
X251627886Y-124656884D01*
X251627886Y-124656884D02*
X251526871Y-124623212D01*
X251526871Y-124623212D02*
X251459527Y-124623212D01*
X251459527Y-124623212D02*
X251358512Y-124656884D01*
X251358512Y-124656884D02*
X251324840Y-124690556D01*
X251324840Y-124690556D02*
X251291169Y-124791571D01*
X251291169Y-124791571D02*
X251291169Y-124858914D01*
X251291169Y-124858914D02*
X251324840Y-124959930D01*
X251324840Y-124959930D02*
X251459527Y-125094617D01*
X251459527Y-125094617D02*
X251493199Y-125195632D01*
X251493199Y-125195632D02*
X251493199Y-125262975D01*
X251493199Y-125262975D02*
X251459527Y-125363991D01*
X251459527Y-125363991D02*
X251324840Y-125498678D01*
X251324840Y-125498678D02*
X251223825Y-125532349D01*
X251223825Y-125532349D02*
X251156482Y-125532349D01*
X251156482Y-125532349D02*
X251055466Y-125498678D01*
X251055466Y-125498678D02*
X250920779Y-125363991D01*
X250920779Y-125363991D02*
X250887108Y-125262975D01*
X250887108Y-125262975D02*
X250887108Y-125195632D01*
X250887108Y-125195632D02*
X250920779Y-125094617D01*
X250920779Y-125094617D02*
X251055466Y-124959930D01*
X251055466Y-124959930D02*
X251156482Y-124926258D01*
X251156482Y-124926258D02*
X251223825Y-124926258D01*
X251223825Y-124926258D02*
X251324840Y-124959930D01*
X216770237Y-104977170D02*
X217106955Y-104640453D01*
X217106955Y-104640453D02*
X216399848Y-103933346D01*
X215524382Y-104808812D02*
X215659069Y-104674125D01*
X215659069Y-104674125D02*
X215760084Y-104640453D01*
X215760084Y-104640453D02*
X215827428Y-104640453D01*
X215827428Y-104640453D02*
X215995787Y-104674125D01*
X215995787Y-104674125D02*
X216164145Y-104775140D01*
X216164145Y-104775140D02*
X216433519Y-105044514D01*
X216433519Y-105044514D02*
X216467191Y-105145529D01*
X216467191Y-105145529D02*
X216467191Y-105212873D01*
X216467191Y-105212873D02*
X216433519Y-105313888D01*
X216433519Y-105313888D02*
X216298832Y-105448575D01*
X216298832Y-105448575D02*
X216197817Y-105482247D01*
X216197817Y-105482247D02*
X216130474Y-105482247D01*
X216130474Y-105482247D02*
X216029458Y-105448575D01*
X216029458Y-105448575D02*
X215861100Y-105280216D01*
X215861100Y-105280216D02*
X215827428Y-105179201D01*
X215827428Y-105179201D02*
X215827428Y-105111857D01*
X215827428Y-105111857D02*
X215861100Y-105010842D01*
X215861100Y-105010842D02*
X215995787Y-104876155D01*
X215995787Y-104876155D02*
X216096802Y-104842483D01*
X216096802Y-104842483D02*
X216164145Y-104842483D01*
X216164145Y-104842483D02*
X216265161Y-104876155D01*
X211122112Y-113786411D02*
X211189456Y-113786411D01*
X211189456Y-113786411D02*
X211324143Y-113719067D01*
X211324143Y-113719067D02*
X211391486Y-113651724D01*
X211391486Y-113651724D02*
X211458830Y-113517037D01*
X211458830Y-113517037D02*
X211458830Y-113382350D01*
X211458830Y-113382350D02*
X211425158Y-113281335D01*
X211425158Y-113281335D02*
X211324143Y-113112976D01*
X211324143Y-113112976D02*
X211223128Y-113011961D01*
X211223128Y-113011961D02*
X211054769Y-112910945D01*
X211054769Y-112910945D02*
X210953754Y-112877274D01*
X210953754Y-112877274D02*
X210819067Y-112877274D01*
X210819067Y-112877274D02*
X210684380Y-112944617D01*
X210684380Y-112944617D02*
X210617036Y-113011961D01*
X210617036Y-113011961D02*
X210549693Y-113146648D01*
X210549693Y-113146648D02*
X210549693Y-113213991D01*
X210246647Y-113382350D02*
X209808914Y-113820083D01*
X209808914Y-113820083D02*
X210313990Y-113853754D01*
X210313990Y-113853754D02*
X210212975Y-113954770D01*
X210212975Y-113954770D02*
X210179303Y-114055785D01*
X210179303Y-114055785D02*
X210179303Y-114123128D01*
X210179303Y-114123128D02*
X210212975Y-114224144D01*
X210212975Y-114224144D02*
X210381334Y-114392502D01*
X210381334Y-114392502D02*
X210482349Y-114426174D01*
X210482349Y-114426174D02*
X210549693Y-114426174D01*
X210549693Y-114426174D02*
X210650708Y-114392502D01*
X210650708Y-114392502D02*
X210852738Y-114190472D01*
X210852738Y-114190472D02*
X210886410Y-114089457D01*
X210886410Y-114089457D02*
X210886410Y-114022113D01*
X165489448Y-127371746D02*
X166068507Y-127422326D01*
X165775162Y-127866618D02*
X166641187Y-127366618D01*
X166641187Y-127366618D02*
X166450711Y-127036703D01*
X166450711Y-127036703D02*
X166361853Y-126978034D01*
X166361853Y-126978034D02*
X166296804Y-126960605D01*
X166296804Y-126960605D02*
X166190516Y-126966984D01*
X166190516Y-126966984D02*
X166066798Y-127038413D01*
X166066798Y-127038413D02*
X166008129Y-127127271D01*
X166008129Y-127127271D02*
X165990699Y-127192320D01*
X165990699Y-127192320D02*
X165997079Y-127298608D01*
X165997079Y-127298608D02*
X166187555Y-127628523D01*
X166188806Y-126583071D02*
X165879283Y-126046960D01*
X165879283Y-126046960D02*
X165716035Y-126526111D01*
X165716035Y-126526111D02*
X165644606Y-126402393D01*
X165644606Y-126402393D02*
X165555748Y-126343724D01*
X165555748Y-126343724D02*
X165490699Y-126326295D01*
X165490699Y-126326295D02*
X165384411Y-126332674D01*
X165384411Y-126332674D02*
X165178214Y-126451722D01*
X165178214Y-126451722D02*
X165119545Y-126540580D01*
X165119545Y-126540580D02*
X165102116Y-126605629D01*
X165102116Y-126605629D02*
X165108495Y-126711917D01*
X165108495Y-126711917D02*
X165251353Y-126959353D01*
X165251353Y-126959353D02*
X165340211Y-127018022D01*
X165340211Y-127018022D02*
X165405260Y-127035452D01*
X244693398Y-156904176D02*
X244819127Y-156336672D01*
X245221329Y-156685500D02*
X244838645Y-155761620D01*
X244838645Y-155761620D02*
X244486691Y-155907405D01*
X244486691Y-155907405D02*
X244416926Y-155987845D01*
X244416926Y-155987845D02*
X244391155Y-156050062D01*
X244391155Y-156050062D02*
X244383606Y-156156274D01*
X244383606Y-156156274D02*
X244438275Y-156288256D01*
X244438275Y-156288256D02*
X244518716Y-156358022D01*
X244518716Y-156358022D02*
X244580933Y-156383793D01*
X244580933Y-156383793D02*
X244687145Y-156391341D01*
X244687145Y-156391341D02*
X245039099Y-156245557D01*
X243518818Y-156308311D02*
X243694795Y-156235419D01*
X243694795Y-156235419D02*
X243801006Y-156242967D01*
X243801006Y-156242967D02*
X243863223Y-156268738D01*
X243863223Y-156268738D02*
X244005881Y-156364275D01*
X244005881Y-156364275D02*
X244122767Y-156522029D01*
X244122767Y-156522029D02*
X244268552Y-156873983D01*
X244268552Y-156873983D02*
X244261003Y-156980195D01*
X244261003Y-156980195D02*
X244235232Y-157042412D01*
X244235232Y-157042412D02*
X244165467Y-157122852D01*
X244165467Y-157122852D02*
X243989489Y-157195744D01*
X243989489Y-157195744D02*
X243883278Y-157188196D01*
X243883278Y-157188196D02*
X243821061Y-157162425D01*
X243821061Y-157162425D02*
X243740620Y-157092659D01*
X243740620Y-157092659D02*
X243649505Y-156872688D01*
X243649505Y-156872688D02*
X243657053Y-156766477D01*
X243657053Y-156766477D02*
X243682825Y-156704259D01*
X243682825Y-156704259D02*
X243752590Y-156623819D01*
X243752590Y-156623819D02*
X243928567Y-156550927D01*
X243928567Y-156550927D02*
X244034779Y-156558475D01*
X244034779Y-156558475D02*
X244096996Y-156584246D01*
X244096996Y-156584246D02*
X244177436Y-156654012D01*
X93439456Y-83953754D02*
X93338441Y-83381335D01*
X93843517Y-83549693D02*
X93136410Y-82842587D01*
X93136410Y-82842587D02*
X92867036Y-83111961D01*
X92867036Y-83111961D02*
X92833364Y-83212976D01*
X92833364Y-83212976D02*
X92833364Y-83280319D01*
X92833364Y-83280319D02*
X92867036Y-83381335D01*
X92867036Y-83381335D02*
X92968051Y-83482350D01*
X92968051Y-83482350D02*
X93069067Y-83516022D01*
X93069067Y-83516022D02*
X93136410Y-83516022D01*
X93136410Y-83516022D02*
X93237425Y-83482350D01*
X93237425Y-83482350D02*
X93506799Y-83212976D01*
X92631334Y-83953754D02*
X92665006Y-83852739D01*
X92665006Y-83852739D02*
X92665006Y-83785396D01*
X92665006Y-83785396D02*
X92631334Y-83684380D01*
X92631334Y-83684380D02*
X92597662Y-83650709D01*
X92597662Y-83650709D02*
X92496647Y-83617037D01*
X92496647Y-83617037D02*
X92429303Y-83617037D01*
X92429303Y-83617037D02*
X92328288Y-83650709D01*
X92328288Y-83650709D02*
X92193601Y-83785396D01*
X92193601Y-83785396D02*
X92159929Y-83886411D01*
X92159929Y-83886411D02*
X92159929Y-83953754D01*
X92159929Y-83953754D02*
X92193601Y-84054770D01*
X92193601Y-84054770D02*
X92227273Y-84088441D01*
X92227273Y-84088441D02*
X92328288Y-84122113D01*
X92328288Y-84122113D02*
X92395632Y-84122113D01*
X92395632Y-84122113D02*
X92496647Y-84088441D01*
X92496647Y-84088441D02*
X92631334Y-83953754D01*
X92631334Y-83953754D02*
X92732349Y-83920083D01*
X92732349Y-83920083D02*
X92799693Y-83920083D01*
X92799693Y-83920083D02*
X92900708Y-83953754D01*
X92900708Y-83953754D02*
X93035395Y-84088441D01*
X93035395Y-84088441D02*
X93069067Y-84189457D01*
X93069067Y-84189457D02*
X93069067Y-84256800D01*
X93069067Y-84256800D02*
X93035395Y-84357815D01*
X93035395Y-84357815D02*
X92900708Y-84492502D01*
X92900708Y-84492502D02*
X92799693Y-84526174D01*
X92799693Y-84526174D02*
X92732349Y-84526174D01*
X92732349Y-84526174D02*
X92631334Y-84492502D01*
X92631334Y-84492502D02*
X92496647Y-84357815D01*
X92496647Y-84357815D02*
X92462975Y-84256800D01*
X92462975Y-84256800D02*
X92462975Y-84189457D01*
X92462975Y-84189457D02*
X92496647Y-84088441D01*
X36749798Y-57421203D02*
X36244722Y-56916127D01*
X36244722Y-56916127D02*
X36110035Y-56848783D01*
X36110035Y-56848783D02*
X35975348Y-56848783D01*
X35975348Y-56848783D02*
X35840661Y-56916127D01*
X35840661Y-56916127D02*
X35773317Y-56983470D01*
X36884485Y-56680424D02*
X36850814Y-56781440D01*
X36850814Y-56781440D02*
X36850814Y-56848783D01*
X36850814Y-56848783D02*
X36884485Y-56949798D01*
X36884485Y-56949798D02*
X36918157Y-56983470D01*
X36918157Y-56983470D02*
X37019172Y-57017142D01*
X37019172Y-57017142D02*
X37086516Y-57017142D01*
X37086516Y-57017142D02*
X37187531Y-56983470D01*
X37187531Y-56983470D02*
X37322218Y-56848783D01*
X37322218Y-56848783D02*
X37355890Y-56747768D01*
X37355890Y-56747768D02*
X37355890Y-56680424D01*
X37355890Y-56680424D02*
X37322218Y-56579409D01*
X37322218Y-56579409D02*
X37288546Y-56545737D01*
X37288546Y-56545737D02*
X37187531Y-56512066D01*
X37187531Y-56512066D02*
X37120188Y-56512066D01*
X37120188Y-56512066D02*
X37019172Y-56545737D01*
X37019172Y-56545737D02*
X36884485Y-56680424D01*
X36884485Y-56680424D02*
X36783470Y-56714096D01*
X36783470Y-56714096D02*
X36716127Y-56714096D01*
X36716127Y-56714096D02*
X36615111Y-56680424D01*
X36615111Y-56680424D02*
X36480424Y-56545737D01*
X36480424Y-56545737D02*
X36446753Y-56444722D01*
X36446753Y-56444722D02*
X36446753Y-56377379D01*
X36446753Y-56377379D02*
X36480424Y-56276363D01*
X36480424Y-56276363D02*
X36615111Y-56141676D01*
X36615111Y-56141676D02*
X36716127Y-56108005D01*
X36716127Y-56108005D02*
X36783470Y-56108005D01*
X36783470Y-56108005D02*
X36884485Y-56141676D01*
X36884485Y-56141676D02*
X37019172Y-56276363D01*
X37019172Y-56276363D02*
X37052844Y-56377379D01*
X37052844Y-56377379D02*
X37052844Y-56444722D01*
X37052844Y-56444722D02*
X37019172Y-56545737D01*
X257447472Y-132876469D02*
X256875052Y-133448889D01*
X256875052Y-133448889D02*
X256774037Y-133482561D01*
X256774037Y-133482561D02*
X256706693Y-133482561D01*
X256706693Y-133482561D02*
X256605678Y-133448889D01*
X256605678Y-133448889D02*
X256470991Y-133314202D01*
X256470991Y-133314202D02*
X256437319Y-133213187D01*
X256437319Y-133213187D02*
X256437319Y-133145843D01*
X256437319Y-133145843D02*
X256470991Y-133044828D01*
X256470991Y-133044828D02*
X257043411Y-132472408D01*
X256369976Y-131798973D02*
X256706693Y-132135691D01*
X256706693Y-132135691D02*
X256403647Y-132506080D01*
X256403647Y-132506080D02*
X256403647Y-132438737D01*
X256403647Y-132438737D02*
X256369976Y-132337721D01*
X256369976Y-132337721D02*
X256201617Y-132169363D01*
X256201617Y-132169363D02*
X256100602Y-132135691D01*
X256100602Y-132135691D02*
X256033258Y-132135691D01*
X256033258Y-132135691D02*
X255932243Y-132169363D01*
X255932243Y-132169363D02*
X255763884Y-132337721D01*
X255763884Y-132337721D02*
X255730212Y-132438737D01*
X255730212Y-132438737D02*
X255730212Y-132506080D01*
X255730212Y-132506080D02*
X255763884Y-132607095D01*
X255763884Y-132607095D02*
X255932243Y-132775454D01*
X255932243Y-132775454D02*
X256033258Y-132809126D01*
X256033258Y-132809126D02*
X256100602Y-132809126D01*
X122242079Y-56313081D02*
X122747155Y-55808005D01*
X122747155Y-55808005D02*
X122814499Y-55673318D01*
X122814499Y-55673318D02*
X122814499Y-55538631D01*
X122814499Y-55538631D02*
X122747155Y-55403944D01*
X122747155Y-55403944D02*
X122679812Y-55336600D01*
X123656293Y-56313081D02*
X123252232Y-55909020D01*
X123454262Y-56111051D02*
X122747155Y-56818158D01*
X122747155Y-56818158D02*
X122780827Y-56649799D01*
X122780827Y-56649799D02*
X122780827Y-56515112D01*
X122780827Y-56515112D02*
X122747155Y-56414097D01*
X123285903Y-57222219D02*
X123285903Y-57289562D01*
X123285903Y-57289562D02*
X123319575Y-57390577D01*
X123319575Y-57390577D02*
X123487934Y-57558936D01*
X123487934Y-57558936D02*
X123588949Y-57592608D01*
X123588949Y-57592608D02*
X123656293Y-57592608D01*
X123656293Y-57592608D02*
X123757308Y-57558936D01*
X123757308Y-57558936D02*
X123824651Y-57491593D01*
X123824651Y-57491593D02*
X123891995Y-57356906D01*
X123891995Y-57356906D02*
X123891995Y-56548784D01*
X123891995Y-56548784D02*
X124329728Y-56986516D01*
X88454819Y-99833333D02*
X88454819Y-99357143D01*
X88454819Y-99357143D02*
X87454819Y-99357143D01*
X87788152Y-100595238D02*
X88454819Y-100595238D01*
X87407200Y-100357143D02*
X88121485Y-100119048D01*
X88121485Y-100119048D02*
X88121485Y-100738095D01*
X86619048Y-98426133D02*
X87380953Y-98426133D01*
X86619048Y-101426133D02*
X87380953Y-101426133D01*
X87000000Y-101045180D02*
X87000000Y-101807085D01*
X233552186Y-82388972D02*
X234028377Y-82722305D01*
X233552186Y-82960400D02*
X234552186Y-82960400D01*
X234552186Y-82960400D02*
X234552186Y-82579448D01*
X234552186Y-82579448D02*
X234504567Y-82484210D01*
X234504567Y-82484210D02*
X234456948Y-82436591D01*
X234456948Y-82436591D02*
X234361710Y-82388972D01*
X234361710Y-82388972D02*
X234218853Y-82388972D01*
X234218853Y-82388972D02*
X234123615Y-82436591D01*
X234123615Y-82436591D02*
X234075996Y-82484210D01*
X234075996Y-82484210D02*
X234028377Y-82579448D01*
X234028377Y-82579448D02*
X234028377Y-82960400D01*
X234552186Y-82055638D02*
X234552186Y-81436591D01*
X234552186Y-81436591D02*
X234171234Y-81769924D01*
X234171234Y-81769924D02*
X234171234Y-81627067D01*
X234171234Y-81627067D02*
X234123615Y-81531829D01*
X234123615Y-81531829D02*
X234075996Y-81484210D01*
X234075996Y-81484210D02*
X233980758Y-81436591D01*
X233980758Y-81436591D02*
X233742663Y-81436591D01*
X233742663Y-81436591D02*
X233647425Y-81484210D01*
X233647425Y-81484210D02*
X233599806Y-81531829D01*
X233599806Y-81531829D02*
X233552186Y-81627067D01*
X233552186Y-81627067D02*
X233552186Y-81912781D01*
X233552186Y-81912781D02*
X233599806Y-82008019D01*
X233599806Y-82008019D02*
X233647425Y-82055638D01*
X234552186Y-81103257D02*
X234552186Y-80484210D01*
X234552186Y-80484210D02*
X234171234Y-80817543D01*
X234171234Y-80817543D02*
X234171234Y-80674686D01*
X234171234Y-80674686D02*
X234123615Y-80579448D01*
X234123615Y-80579448D02*
X234075996Y-80531829D01*
X234075996Y-80531829D02*
X233980758Y-80484210D01*
X233980758Y-80484210D02*
X233742663Y-80484210D01*
X233742663Y-80484210D02*
X233647425Y-80531829D01*
X233647425Y-80531829D02*
X233599806Y-80579448D01*
X233599806Y-80579448D02*
X233552186Y-80674686D01*
X233552186Y-80674686D02*
X233552186Y-80960400D01*
X233552186Y-80960400D02*
X233599806Y-81055638D01*
X233599806Y-81055638D02*
X233647425Y-81103257D01*
X191512323Y-60659580D02*
X191559942Y-60707200D01*
X191559942Y-60707200D02*
X191702799Y-60754819D01*
X191702799Y-60754819D02*
X191798037Y-60754819D01*
X191798037Y-60754819D02*
X191940894Y-60707200D01*
X191940894Y-60707200D02*
X192036132Y-60611961D01*
X192036132Y-60611961D02*
X192083751Y-60516723D01*
X192083751Y-60516723D02*
X192131370Y-60326247D01*
X192131370Y-60326247D02*
X192131370Y-60183390D01*
X192131370Y-60183390D02*
X192083751Y-59992914D01*
X192083751Y-59992914D02*
X192036132Y-59897676D01*
X192036132Y-59897676D02*
X191940894Y-59802438D01*
X191940894Y-59802438D02*
X191798037Y-59754819D01*
X191798037Y-59754819D02*
X191702799Y-59754819D01*
X191702799Y-59754819D02*
X191559942Y-59802438D01*
X191559942Y-59802438D02*
X191512323Y-59850057D01*
X190559942Y-60754819D02*
X191131370Y-60754819D01*
X190845656Y-60754819D02*
X190845656Y-59754819D01*
X190845656Y-59754819D02*
X190940894Y-59897676D01*
X190940894Y-59897676D02*
X191036132Y-59992914D01*
X191036132Y-59992914D02*
X191131370Y-60040533D01*
X190178989Y-59850057D02*
X190131370Y-59802438D01*
X190131370Y-59802438D02*
X190036132Y-59754819D01*
X190036132Y-59754819D02*
X189798037Y-59754819D01*
X189798037Y-59754819D02*
X189702799Y-59802438D01*
X189702799Y-59802438D02*
X189655180Y-59850057D01*
X189655180Y-59850057D02*
X189607561Y-59945295D01*
X189607561Y-59945295D02*
X189607561Y-60040533D01*
X189607561Y-60040533D02*
X189655180Y-60183390D01*
X189655180Y-60183390D02*
X190226608Y-60754819D01*
X190226608Y-60754819D02*
X189607561Y-60754819D01*
X233364053Y-56983247D02*
X233097387Y-56983247D01*
X232983101Y-57402295D02*
X233364053Y-57402295D01*
X233364053Y-57402295D02*
X233364053Y-56602295D01*
X233364053Y-56602295D02*
X232983101Y-56602295D01*
X232640243Y-57402295D02*
X232640243Y-56602295D01*
X232640243Y-56602295D02*
X232373577Y-57173723D01*
X232373577Y-57173723D02*
X232106910Y-56602295D01*
X232106910Y-56602295D02*
X232106910Y-57402295D01*
X231764053Y-57173723D02*
X231383100Y-57173723D01*
X231840243Y-57402295D02*
X231573576Y-56602295D01*
X231573576Y-56602295D02*
X231306910Y-57402295D01*
X230621196Y-57402295D02*
X231078339Y-57402295D01*
X230849767Y-57402295D02*
X230849767Y-56602295D01*
X230849767Y-56602295D02*
X230925958Y-56716580D01*
X230925958Y-56716580D02*
X231002148Y-56792771D01*
X231002148Y-56792771D02*
X231078339Y-56830866D01*
X253900306Y-124908830D02*
X253900306Y-124976174D01*
X253900306Y-124976174D02*
X253967650Y-125110861D01*
X253967650Y-125110861D02*
X254034993Y-125178204D01*
X254034993Y-125178204D02*
X254169680Y-125245548D01*
X254169680Y-125245548D02*
X254304367Y-125245548D01*
X254304367Y-125245548D02*
X254405382Y-125211876D01*
X254405382Y-125211876D02*
X254573741Y-125110861D01*
X254573741Y-125110861D02*
X254674756Y-125009846D01*
X254674756Y-125009846D02*
X254775772Y-124841487D01*
X254775772Y-124841487D02*
X254809443Y-124740472D01*
X254809443Y-124740472D02*
X254809443Y-124605785D01*
X254809443Y-124605785D02*
X254742100Y-124471098D01*
X254742100Y-124471098D02*
X254674756Y-124403754D01*
X254674756Y-124403754D02*
X254540069Y-124336411D01*
X254540069Y-124336411D02*
X254472726Y-124336411D01*
X254203352Y-124067037D02*
X254203352Y-123999693D01*
X254203352Y-123999693D02*
X254169680Y-123898678D01*
X254169680Y-123898678D02*
X254001321Y-123730319D01*
X254001321Y-123730319D02*
X253900306Y-123696647D01*
X253900306Y-123696647D02*
X253832963Y-123696647D01*
X253832963Y-123696647D02*
X253731947Y-123730319D01*
X253731947Y-123730319D02*
X253664604Y-123797663D01*
X253664604Y-123797663D02*
X253597260Y-123932350D01*
X253597260Y-123932350D02*
X253597260Y-124740472D01*
X253597260Y-124740472D02*
X253159528Y-124302739D01*
X253159527Y-123494617D02*
X253260543Y-123528288D01*
X253260543Y-123528288D02*
X253327886Y-123528288D01*
X253327886Y-123528288D02*
X253428901Y-123494617D01*
X253428901Y-123494617D02*
X253462573Y-123460945D01*
X253462573Y-123460945D02*
X253496245Y-123359930D01*
X253496245Y-123359930D02*
X253496245Y-123292586D01*
X253496245Y-123292586D02*
X253462573Y-123191571D01*
X253462573Y-123191571D02*
X253327886Y-123056884D01*
X253327886Y-123056884D02*
X253226871Y-123023212D01*
X253226871Y-123023212D02*
X253159527Y-123023212D01*
X253159527Y-123023212D02*
X253058512Y-123056884D01*
X253058512Y-123056884D02*
X253024840Y-123090556D01*
X253024840Y-123090556D02*
X252991169Y-123191571D01*
X252991169Y-123191571D02*
X252991169Y-123258914D01*
X252991169Y-123258914D02*
X253024840Y-123359930D01*
X253024840Y-123359930D02*
X253159527Y-123494617D01*
X253159527Y-123494617D02*
X253193199Y-123595632D01*
X253193199Y-123595632D02*
X253193199Y-123662975D01*
X253193199Y-123662975D02*
X253159527Y-123763991D01*
X253159527Y-123763991D02*
X253024840Y-123898678D01*
X253024840Y-123898678D02*
X252923825Y-123932349D01*
X252923825Y-123932349D02*
X252856482Y-123932349D01*
X252856482Y-123932349D02*
X252755466Y-123898678D01*
X252755466Y-123898678D02*
X252620779Y-123763991D01*
X252620779Y-123763991D02*
X252587108Y-123662975D01*
X252587108Y-123662975D02*
X252587108Y-123595632D01*
X252587108Y-123595632D02*
X252620779Y-123494617D01*
X252620779Y-123494617D02*
X252755466Y-123359930D01*
X252755466Y-123359930D02*
X252856482Y-123326258D01*
X252856482Y-123326258D02*
X252923825Y-123326258D01*
X252923825Y-123326258D02*
X253024840Y-123359930D01*
X210573246Y-82145090D02*
X211049437Y-82478423D01*
X210573246Y-82716518D02*
X211573246Y-82716518D01*
X211573246Y-82716518D02*
X211573246Y-82335566D01*
X211573246Y-82335566D02*
X211525627Y-82240328D01*
X211525627Y-82240328D02*
X211478008Y-82192709D01*
X211478008Y-82192709D02*
X211382770Y-82145090D01*
X211382770Y-82145090D02*
X211239913Y-82145090D01*
X211239913Y-82145090D02*
X211144675Y-82192709D01*
X211144675Y-82192709D02*
X211097056Y-82240328D01*
X211097056Y-82240328D02*
X211049437Y-82335566D01*
X211049437Y-82335566D02*
X211049437Y-82716518D01*
X211573246Y-81811756D02*
X211573246Y-81192709D01*
X211573246Y-81192709D02*
X211192294Y-81526042D01*
X211192294Y-81526042D02*
X211192294Y-81383185D01*
X211192294Y-81383185D02*
X211144675Y-81287947D01*
X211144675Y-81287947D02*
X211097056Y-81240328D01*
X211097056Y-81240328D02*
X211001818Y-81192709D01*
X211001818Y-81192709D02*
X210763723Y-81192709D01*
X210763723Y-81192709D02*
X210668485Y-81240328D01*
X210668485Y-81240328D02*
X210620866Y-81287947D01*
X210620866Y-81287947D02*
X210573246Y-81383185D01*
X210573246Y-81383185D02*
X210573246Y-81668899D01*
X210573246Y-81668899D02*
X210620866Y-81764137D01*
X210620866Y-81764137D02*
X210668485Y-81811756D01*
X211573246Y-80859375D02*
X211573246Y-80192709D01*
X211573246Y-80192709D02*
X210573246Y-80621280D01*
X248976174Y-122667036D02*
X248875159Y-122094617D01*
X249380235Y-122262975D02*
X248673128Y-121555869D01*
X248673128Y-121555869D02*
X248403754Y-121825243D01*
X248403754Y-121825243D02*
X248370082Y-121926258D01*
X248370082Y-121926258D02*
X248370082Y-121993601D01*
X248370082Y-121993601D02*
X248403754Y-122094617D01*
X248403754Y-122094617D02*
X248504769Y-122195632D01*
X248504769Y-122195632D02*
X248605785Y-122229304D01*
X248605785Y-122229304D02*
X248673128Y-122229304D01*
X248673128Y-122229304D02*
X248774143Y-122195632D01*
X248774143Y-122195632D02*
X249043517Y-121926258D01*
X248302739Y-123340471D02*
X248706800Y-122936410D01*
X248504769Y-123138441D02*
X247797663Y-122431334D01*
X247797663Y-122431334D02*
X247966021Y-122465006D01*
X247966021Y-122465006D02*
X248100708Y-122465006D01*
X248100708Y-122465006D02*
X248201724Y-122431334D01*
X247966021Y-123677189D02*
X247831334Y-123811876D01*
X247831334Y-123811876D02*
X247730319Y-123845548D01*
X247730319Y-123845548D02*
X247662975Y-123845548D01*
X247662975Y-123845548D02*
X247494617Y-123811876D01*
X247494617Y-123811876D02*
X247326258Y-123710861D01*
X247326258Y-123710861D02*
X247056884Y-123441487D01*
X247056884Y-123441487D02*
X247023212Y-123340472D01*
X247023212Y-123340472D02*
X247023212Y-123273128D01*
X247023212Y-123273128D02*
X247056884Y-123172113D01*
X247056884Y-123172113D02*
X247191571Y-123037426D01*
X247191571Y-123037426D02*
X247292586Y-123003754D01*
X247292586Y-123003754D02*
X247359930Y-123003754D01*
X247359930Y-123003754D02*
X247460945Y-123037426D01*
X247460945Y-123037426D02*
X247629304Y-123205785D01*
X247629304Y-123205785D02*
X247662975Y-123306800D01*
X247662975Y-123306800D02*
X247662975Y-123374143D01*
X247662975Y-123374143D02*
X247629304Y-123475159D01*
X247629304Y-123475159D02*
X247494617Y-123609846D01*
X247494617Y-123609846D02*
X247393601Y-123643517D01*
X247393601Y-123643517D02*
X247326258Y-123643517D01*
X247326258Y-123643517D02*
X247225243Y-123609846D01*
X191470923Y-76490795D02*
X191518542Y-76538415D01*
X191518542Y-76538415D02*
X191661399Y-76586034D01*
X191661399Y-76586034D02*
X191756637Y-76586034D01*
X191756637Y-76586034D02*
X191899494Y-76538415D01*
X191899494Y-76538415D02*
X191994732Y-76443176D01*
X191994732Y-76443176D02*
X192042351Y-76347938D01*
X192042351Y-76347938D02*
X192089970Y-76157462D01*
X192089970Y-76157462D02*
X192089970Y-76014605D01*
X192089970Y-76014605D02*
X192042351Y-75824129D01*
X192042351Y-75824129D02*
X191994732Y-75728891D01*
X191994732Y-75728891D02*
X191899494Y-75633653D01*
X191899494Y-75633653D02*
X191756637Y-75586034D01*
X191756637Y-75586034D02*
X191661399Y-75586034D01*
X191661399Y-75586034D02*
X191518542Y-75633653D01*
X191518542Y-75633653D02*
X191470923Y-75681272D01*
X191089970Y-75681272D02*
X191042351Y-75633653D01*
X191042351Y-75633653D02*
X190947113Y-75586034D01*
X190947113Y-75586034D02*
X190709018Y-75586034D01*
X190709018Y-75586034D02*
X190613780Y-75633653D01*
X190613780Y-75633653D02*
X190566161Y-75681272D01*
X190566161Y-75681272D02*
X190518542Y-75776510D01*
X190518542Y-75776510D02*
X190518542Y-75871748D01*
X190518542Y-75871748D02*
X190566161Y-76014605D01*
X190566161Y-76014605D02*
X191137589Y-76586034D01*
X191137589Y-76586034D02*
X190518542Y-76586034D01*
X189899494Y-75586034D02*
X189804256Y-75586034D01*
X189804256Y-75586034D02*
X189709018Y-75633653D01*
X189709018Y-75633653D02*
X189661399Y-75681272D01*
X189661399Y-75681272D02*
X189613780Y-75776510D01*
X189613780Y-75776510D02*
X189566161Y-75966986D01*
X189566161Y-75966986D02*
X189566161Y-76205081D01*
X189566161Y-76205081D02*
X189613780Y-76395557D01*
X189613780Y-76395557D02*
X189661399Y-76490795D01*
X189661399Y-76490795D02*
X189709018Y-76538415D01*
X189709018Y-76538415D02*
X189804256Y-76586034D01*
X189804256Y-76586034D02*
X189899494Y-76586034D01*
X189899494Y-76586034D02*
X189994732Y-76538415D01*
X189994732Y-76538415D02*
X190042351Y-76490795D01*
X190042351Y-76490795D02*
X190089970Y-76395557D01*
X190089970Y-76395557D02*
X190137589Y-76205081D01*
X190137589Y-76205081D02*
X190137589Y-75966986D01*
X190137589Y-75966986D02*
X190089970Y-75776510D01*
X190089970Y-75776510D02*
X190042351Y-75681272D01*
X190042351Y-75681272D02*
X189994732Y-75633653D01*
X189994732Y-75633653D02*
X189899494Y-75586034D01*
X191552576Y-68359580D02*
X191600195Y-68407200D01*
X191600195Y-68407200D02*
X191743052Y-68454819D01*
X191743052Y-68454819D02*
X191838290Y-68454819D01*
X191838290Y-68454819D02*
X191981147Y-68407200D01*
X191981147Y-68407200D02*
X192076385Y-68311961D01*
X192076385Y-68311961D02*
X192124004Y-68216723D01*
X192124004Y-68216723D02*
X192171623Y-68026247D01*
X192171623Y-68026247D02*
X192171623Y-67883390D01*
X192171623Y-67883390D02*
X192124004Y-67692914D01*
X192124004Y-67692914D02*
X192076385Y-67597676D01*
X192076385Y-67597676D02*
X191981147Y-67502438D01*
X191981147Y-67502438D02*
X191838290Y-67454819D01*
X191838290Y-67454819D02*
X191743052Y-67454819D01*
X191743052Y-67454819D02*
X191600195Y-67502438D01*
X191600195Y-67502438D02*
X191552576Y-67550057D01*
X191171623Y-67550057D02*
X191124004Y-67502438D01*
X191124004Y-67502438D02*
X191028766Y-67454819D01*
X191028766Y-67454819D02*
X190790671Y-67454819D01*
X190790671Y-67454819D02*
X190695433Y-67502438D01*
X190695433Y-67502438D02*
X190647814Y-67550057D01*
X190647814Y-67550057D02*
X190600195Y-67645295D01*
X190600195Y-67645295D02*
X190600195Y-67740533D01*
X190600195Y-67740533D02*
X190647814Y-67883390D01*
X190647814Y-67883390D02*
X191219242Y-68454819D01*
X191219242Y-68454819D02*
X190600195Y-68454819D01*
X189743052Y-67454819D02*
X189933528Y-67454819D01*
X189933528Y-67454819D02*
X190028766Y-67502438D01*
X190028766Y-67502438D02*
X190076385Y-67550057D01*
X190076385Y-67550057D02*
X190171623Y-67692914D01*
X190171623Y-67692914D02*
X190219242Y-67883390D01*
X190219242Y-67883390D02*
X190219242Y-68264342D01*
X190219242Y-68264342D02*
X190171623Y-68359580D01*
X190171623Y-68359580D02*
X190124004Y-68407200D01*
X190124004Y-68407200D02*
X190028766Y-68454819D01*
X190028766Y-68454819D02*
X189838290Y-68454819D01*
X189838290Y-68454819D02*
X189743052Y-68407200D01*
X189743052Y-68407200D02*
X189695433Y-68359580D01*
X189695433Y-68359580D02*
X189647814Y-68264342D01*
X189647814Y-68264342D02*
X189647814Y-68026247D01*
X189647814Y-68026247D02*
X189695433Y-67931009D01*
X189695433Y-67931009D02*
X189743052Y-67883390D01*
X189743052Y-67883390D02*
X189838290Y-67835771D01*
X189838290Y-67835771D02*
X190028766Y-67835771D01*
X190028766Y-67835771D02*
X190124004Y-67883390D01*
X190124004Y-67883390D02*
X190171623Y-67931009D01*
X190171623Y-67931009D02*
X190219242Y-68026247D01*
X212442857Y-69154819D02*
X212776190Y-68678628D01*
X213014285Y-69154819D02*
X213014285Y-68154819D01*
X213014285Y-68154819D02*
X212633333Y-68154819D01*
X212633333Y-68154819D02*
X212538095Y-68202438D01*
X212538095Y-68202438D02*
X212490476Y-68250057D01*
X212490476Y-68250057D02*
X212442857Y-68345295D01*
X212442857Y-68345295D02*
X212442857Y-68488152D01*
X212442857Y-68488152D02*
X212490476Y-68583390D01*
X212490476Y-68583390D02*
X212538095Y-68631009D01*
X212538095Y-68631009D02*
X212633333Y-68678628D01*
X212633333Y-68678628D02*
X213014285Y-68678628D01*
X212061904Y-68250057D02*
X212014285Y-68202438D01*
X212014285Y-68202438D02*
X211919047Y-68154819D01*
X211919047Y-68154819D02*
X211680952Y-68154819D01*
X211680952Y-68154819D02*
X211585714Y-68202438D01*
X211585714Y-68202438D02*
X211538095Y-68250057D01*
X211538095Y-68250057D02*
X211490476Y-68345295D01*
X211490476Y-68345295D02*
X211490476Y-68440533D01*
X211490476Y-68440533D02*
X211538095Y-68583390D01*
X211538095Y-68583390D02*
X212109523Y-69154819D01*
X212109523Y-69154819D02*
X211490476Y-69154819D01*
X210585714Y-68154819D02*
X211061904Y-68154819D01*
X211061904Y-68154819D02*
X211109523Y-68631009D01*
X211109523Y-68631009D02*
X211061904Y-68583390D01*
X211061904Y-68583390D02*
X210966666Y-68535771D01*
X210966666Y-68535771D02*
X210728571Y-68535771D01*
X210728571Y-68535771D02*
X210633333Y-68583390D01*
X210633333Y-68583390D02*
X210585714Y-68631009D01*
X210585714Y-68631009D02*
X210538095Y-68726247D01*
X210538095Y-68726247D02*
X210538095Y-68964342D01*
X210538095Y-68964342D02*
X210585714Y-69059580D01*
X210585714Y-69059580D02*
X210633333Y-69107200D01*
X210633333Y-69107200D02*
X210728571Y-69154819D01*
X210728571Y-69154819D02*
X210966666Y-69154819D01*
X210966666Y-69154819D02*
X211061904Y-69107200D01*
X211061904Y-69107200D02*
X211109523Y-69059580D01*
X214542857Y-89854819D02*
X214876190Y-89378628D01*
X215114285Y-89854819D02*
X215114285Y-88854819D01*
X215114285Y-88854819D02*
X214733333Y-88854819D01*
X214733333Y-88854819D02*
X214638095Y-88902438D01*
X214638095Y-88902438D02*
X214590476Y-88950057D01*
X214590476Y-88950057D02*
X214542857Y-89045295D01*
X214542857Y-89045295D02*
X214542857Y-89188152D01*
X214542857Y-89188152D02*
X214590476Y-89283390D01*
X214590476Y-89283390D02*
X214638095Y-89331009D01*
X214638095Y-89331009D02*
X214733333Y-89378628D01*
X214733333Y-89378628D02*
X215114285Y-89378628D01*
X213590476Y-89854819D02*
X214161904Y-89854819D01*
X213876190Y-89854819D02*
X213876190Y-88854819D01*
X213876190Y-88854819D02*
X213971428Y-88997676D01*
X213971428Y-88997676D02*
X214066666Y-89092914D01*
X214066666Y-89092914D02*
X214161904Y-89140533D01*
X212638095Y-89854819D02*
X213209523Y-89854819D01*
X212923809Y-89854819D02*
X212923809Y-88854819D01*
X212923809Y-88854819D02*
X213019047Y-88997676D01*
X213019047Y-88997676D02*
X213114285Y-89092914D01*
X213114285Y-89092914D02*
X213209523Y-89140533D01*
X212070923Y-84957052D02*
X212404256Y-84480861D01*
X212642351Y-84957052D02*
X212642351Y-83957052D01*
X212642351Y-83957052D02*
X212261399Y-83957052D01*
X212261399Y-83957052D02*
X212166161Y-84004671D01*
X212166161Y-84004671D02*
X212118542Y-84052290D01*
X212118542Y-84052290D02*
X212070923Y-84147528D01*
X212070923Y-84147528D02*
X212070923Y-84290385D01*
X212070923Y-84290385D02*
X212118542Y-84385623D01*
X212118542Y-84385623D02*
X212166161Y-84433242D01*
X212166161Y-84433242D02*
X212261399Y-84480861D01*
X212261399Y-84480861D02*
X212642351Y-84480861D01*
X211737589Y-83957052D02*
X211118542Y-83957052D01*
X211118542Y-83957052D02*
X211451875Y-84338004D01*
X211451875Y-84338004D02*
X211309018Y-84338004D01*
X211309018Y-84338004D02*
X211213780Y-84385623D01*
X211213780Y-84385623D02*
X211166161Y-84433242D01*
X211166161Y-84433242D02*
X211118542Y-84528480D01*
X211118542Y-84528480D02*
X211118542Y-84766575D01*
X211118542Y-84766575D02*
X211166161Y-84861813D01*
X211166161Y-84861813D02*
X211213780Y-84909433D01*
X211213780Y-84909433D02*
X211309018Y-84957052D01*
X211309018Y-84957052D02*
X211594732Y-84957052D01*
X211594732Y-84957052D02*
X211689970Y-84909433D01*
X211689970Y-84909433D02*
X211737589Y-84861813D01*
X210213780Y-83957052D02*
X210689970Y-83957052D01*
X210689970Y-83957052D02*
X210737589Y-84433242D01*
X210737589Y-84433242D02*
X210689970Y-84385623D01*
X210689970Y-84385623D02*
X210594732Y-84338004D01*
X210594732Y-84338004D02*
X210356637Y-84338004D01*
X210356637Y-84338004D02*
X210261399Y-84385623D01*
X210261399Y-84385623D02*
X210213780Y-84433242D01*
X210213780Y-84433242D02*
X210166161Y-84528480D01*
X210166161Y-84528480D02*
X210166161Y-84766575D01*
X210166161Y-84766575D02*
X210213780Y-84861813D01*
X210213780Y-84861813D02*
X210261399Y-84909433D01*
X210261399Y-84909433D02*
X210356637Y-84957052D01*
X210356637Y-84957052D02*
X210594732Y-84957052D01*
X210594732Y-84957052D02*
X210689970Y-84909433D01*
X210689970Y-84909433D02*
X210737589Y-84861813D01*
X246058830Y-119649693D02*
X246126174Y-119649693D01*
X246126174Y-119649693D02*
X246260861Y-119582349D01*
X246260861Y-119582349D02*
X246328204Y-119515006D01*
X246328204Y-119515006D02*
X246395548Y-119380319D01*
X246395548Y-119380319D02*
X246395548Y-119245632D01*
X246395548Y-119245632D02*
X246361876Y-119144617D01*
X246361876Y-119144617D02*
X246260861Y-118976258D01*
X246260861Y-118976258D02*
X246159846Y-118875243D01*
X246159846Y-118875243D02*
X245991487Y-118774227D01*
X245991487Y-118774227D02*
X245890472Y-118740556D01*
X245890472Y-118740556D02*
X245755785Y-118740556D01*
X245755785Y-118740556D02*
X245621098Y-118807899D01*
X245621098Y-118807899D02*
X245553754Y-118875243D01*
X245553754Y-118875243D02*
X245486411Y-119009930D01*
X245486411Y-119009930D02*
X245486411Y-119077273D01*
X245217037Y-119346647D02*
X245149693Y-119346647D01*
X245149693Y-119346647D02*
X245048678Y-119380319D01*
X245048678Y-119380319D02*
X244880319Y-119548678D01*
X244880319Y-119548678D02*
X244846647Y-119649693D01*
X244846647Y-119649693D02*
X244846647Y-119717036D01*
X244846647Y-119717036D02*
X244880319Y-119818052D01*
X244880319Y-119818052D02*
X244947663Y-119885395D01*
X244947663Y-119885395D02*
X245082350Y-119952739D01*
X245082350Y-119952739D02*
X245890472Y-119952739D01*
X245890472Y-119952739D02*
X245452739Y-120390471D01*
X244509930Y-119919067D02*
X244038525Y-120390472D01*
X244038525Y-120390472D02*
X245048678Y-120794533D01*
X157192800Y-100761904D02*
X157145180Y-100619047D01*
X157145180Y-100619047D02*
X157145180Y-100380952D01*
X157145180Y-100380952D02*
X157192800Y-100285714D01*
X157192800Y-100285714D02*
X157240419Y-100238095D01*
X157240419Y-100238095D02*
X157335657Y-100190476D01*
X157335657Y-100190476D02*
X157430895Y-100190476D01*
X157430895Y-100190476D02*
X157526133Y-100238095D01*
X157526133Y-100238095D02*
X157573752Y-100285714D01*
X157573752Y-100285714D02*
X157621371Y-100380952D01*
X157621371Y-100380952D02*
X157668990Y-100571428D01*
X157668990Y-100571428D02*
X157716609Y-100666666D01*
X157716609Y-100666666D02*
X157764228Y-100714285D01*
X157764228Y-100714285D02*
X157859466Y-100761904D01*
X157859466Y-100761904D02*
X157954704Y-100761904D01*
X157954704Y-100761904D02*
X158049942Y-100714285D01*
X158049942Y-100714285D02*
X158097561Y-100666666D01*
X158097561Y-100666666D02*
X158145180Y-100571428D01*
X158145180Y-100571428D02*
X158145180Y-100333333D01*
X158145180Y-100333333D02*
X158097561Y-100190476D01*
X158049942Y-99809523D02*
X158097561Y-99761904D01*
X158097561Y-99761904D02*
X158145180Y-99666666D01*
X158145180Y-99666666D02*
X158145180Y-99428571D01*
X158145180Y-99428571D02*
X158097561Y-99333333D01*
X158097561Y-99333333D02*
X158049942Y-99285714D01*
X158049942Y-99285714D02*
X157954704Y-99238095D01*
X157954704Y-99238095D02*
X157859466Y-99238095D01*
X157859466Y-99238095D02*
X157716609Y-99285714D01*
X157716609Y-99285714D02*
X157145180Y-99857142D01*
X157145180Y-99857142D02*
X157145180Y-99238095D01*
X80642857Y-102859580D02*
X80690476Y-102907200D01*
X80690476Y-102907200D02*
X80833333Y-102954819D01*
X80833333Y-102954819D02*
X80928571Y-102954819D01*
X80928571Y-102954819D02*
X81071428Y-102907200D01*
X81071428Y-102907200D02*
X81166666Y-102811961D01*
X81166666Y-102811961D02*
X81214285Y-102716723D01*
X81214285Y-102716723D02*
X81261904Y-102526247D01*
X81261904Y-102526247D02*
X81261904Y-102383390D01*
X81261904Y-102383390D02*
X81214285Y-102192914D01*
X81214285Y-102192914D02*
X81166666Y-102097676D01*
X81166666Y-102097676D02*
X81071428Y-102002438D01*
X81071428Y-102002438D02*
X80928571Y-101954819D01*
X80928571Y-101954819D02*
X80833333Y-101954819D01*
X80833333Y-101954819D02*
X80690476Y-102002438D01*
X80690476Y-102002438D02*
X80642857Y-102050057D01*
X79690476Y-102954819D02*
X80261904Y-102954819D01*
X79976190Y-102954819D02*
X79976190Y-101954819D01*
X79976190Y-101954819D02*
X80071428Y-102097676D01*
X80071428Y-102097676D02*
X80166666Y-102192914D01*
X80166666Y-102192914D02*
X80261904Y-102240533D01*
X79071428Y-101954819D02*
X78976190Y-101954819D01*
X78976190Y-101954819D02*
X78880952Y-102002438D01*
X78880952Y-102002438D02*
X78833333Y-102050057D01*
X78833333Y-102050057D02*
X78785714Y-102145295D01*
X78785714Y-102145295D02*
X78738095Y-102335771D01*
X78738095Y-102335771D02*
X78738095Y-102573866D01*
X78738095Y-102573866D02*
X78785714Y-102764342D01*
X78785714Y-102764342D02*
X78833333Y-102859580D01*
X78833333Y-102859580D02*
X78880952Y-102907200D01*
X78880952Y-102907200D02*
X78976190Y-102954819D01*
X78976190Y-102954819D02*
X79071428Y-102954819D01*
X79071428Y-102954819D02*
X79166666Y-102907200D01*
X79166666Y-102907200D02*
X79214285Y-102859580D01*
X79214285Y-102859580D02*
X79261904Y-102764342D01*
X79261904Y-102764342D02*
X79309523Y-102573866D01*
X79309523Y-102573866D02*
X79309523Y-102335771D01*
X79309523Y-102335771D02*
X79261904Y-102145295D01*
X79261904Y-102145295D02*
X79214285Y-102050057D01*
X79214285Y-102050057D02*
X79166666Y-102002438D01*
X79166666Y-102002438D02*
X79071428Y-101954819D01*
X272807200Y-99238095D02*
X272854819Y-99380952D01*
X272854819Y-99380952D02*
X272854819Y-99619047D01*
X272854819Y-99619047D02*
X272807200Y-99714285D01*
X272807200Y-99714285D02*
X272759580Y-99761904D01*
X272759580Y-99761904D02*
X272664342Y-99809523D01*
X272664342Y-99809523D02*
X272569104Y-99809523D01*
X272569104Y-99809523D02*
X272473866Y-99761904D01*
X272473866Y-99761904D02*
X272426247Y-99714285D01*
X272426247Y-99714285D02*
X272378628Y-99619047D01*
X272378628Y-99619047D02*
X272331009Y-99428571D01*
X272331009Y-99428571D02*
X272283390Y-99333333D01*
X272283390Y-99333333D02*
X272235771Y-99285714D01*
X272235771Y-99285714D02*
X272140533Y-99238095D01*
X272140533Y-99238095D02*
X272045295Y-99238095D01*
X272045295Y-99238095D02*
X271950057Y-99285714D01*
X271950057Y-99285714D02*
X271902438Y-99333333D01*
X271902438Y-99333333D02*
X271854819Y-99428571D01*
X271854819Y-99428571D02*
X271854819Y-99666666D01*
X271854819Y-99666666D02*
X271902438Y-99809523D01*
X272188152Y-100666666D02*
X272854819Y-100666666D01*
X271807200Y-100428571D02*
X272521485Y-100190476D01*
X272521485Y-100190476D02*
X272521485Y-100809523D01*
X250700306Y-128108830D02*
X250700306Y-128176174D01*
X250700306Y-128176174D02*
X250767650Y-128310861D01*
X250767650Y-128310861D02*
X250834993Y-128378204D01*
X250834993Y-128378204D02*
X250969680Y-128445548D01*
X250969680Y-128445548D02*
X251104367Y-128445548D01*
X251104367Y-128445548D02*
X251205382Y-128411876D01*
X251205382Y-128411876D02*
X251373741Y-128310861D01*
X251373741Y-128310861D02*
X251474756Y-128209846D01*
X251474756Y-128209846D02*
X251575772Y-128041487D01*
X251575772Y-128041487D02*
X251609443Y-127940472D01*
X251609443Y-127940472D02*
X251609443Y-127805785D01*
X251609443Y-127805785D02*
X251542100Y-127671098D01*
X251542100Y-127671098D02*
X251474756Y-127603754D01*
X251474756Y-127603754D02*
X251340069Y-127536411D01*
X251340069Y-127536411D02*
X251272726Y-127536411D01*
X251104367Y-127233365D02*
X250666634Y-126795632D01*
X250666634Y-126795632D02*
X250632963Y-127300708D01*
X250632963Y-127300708D02*
X250531947Y-127199693D01*
X250531947Y-127199693D02*
X250430932Y-127166021D01*
X250430932Y-127166021D02*
X250363589Y-127166021D01*
X250363589Y-127166021D02*
X250262573Y-127199693D01*
X250262573Y-127199693D02*
X250094215Y-127368052D01*
X250094215Y-127368052D02*
X250060543Y-127469067D01*
X250060543Y-127469067D02*
X250060543Y-127536411D01*
X250060543Y-127536411D02*
X250094215Y-127637426D01*
X250094215Y-127637426D02*
X250296245Y-127839456D01*
X250296245Y-127839456D02*
X250397260Y-127873128D01*
X250397260Y-127873128D02*
X250464604Y-127873128D01*
X250228901Y-126357899D02*
X250161558Y-126290556D01*
X250161558Y-126290556D02*
X250060543Y-126256884D01*
X250060543Y-126256884D02*
X249993199Y-126256884D01*
X249993199Y-126256884D02*
X249892184Y-126290556D01*
X249892184Y-126290556D02*
X249723825Y-126391571D01*
X249723825Y-126391571D02*
X249555466Y-126559930D01*
X249555466Y-126559930D02*
X249454451Y-126728288D01*
X249454451Y-126728288D02*
X249420779Y-126829304D01*
X249420779Y-126829304D02*
X249420779Y-126896647D01*
X249420779Y-126896647D02*
X249454451Y-126997662D01*
X249454451Y-126997662D02*
X249521795Y-127065006D01*
X249521795Y-127065006D02*
X249622810Y-127098678D01*
X249622810Y-127098678D02*
X249690153Y-127098678D01*
X249690153Y-127098678D02*
X249791169Y-127065006D01*
X249791169Y-127065006D02*
X249959527Y-126963991D01*
X249959527Y-126963991D02*
X250127886Y-126795632D01*
X250127886Y-126795632D02*
X250228901Y-126627273D01*
X250228901Y-126627273D02*
X250262573Y-126526258D01*
X250262573Y-126526258D02*
X250262573Y-126458914D01*
X250262573Y-126458914D02*
X250228901Y-126357899D01*
X252438039Y-121140472D02*
X252673741Y-121376174D01*
X252303352Y-121746563D02*
X253010459Y-121039456D01*
X253010459Y-121039456D02*
X252673741Y-120702739D01*
X251831947Y-120534380D02*
X251697260Y-120467036D01*
X251697260Y-120467036D02*
X251629917Y-120467036D01*
X251629917Y-120467036D02*
X251528901Y-120500708D01*
X251528901Y-120500708D02*
X251427886Y-120601723D01*
X251427886Y-120601723D02*
X251394214Y-120702739D01*
X251394214Y-120702739D02*
X251394214Y-120770082D01*
X251394214Y-120770082D02*
X251427886Y-120871097D01*
X251427886Y-120871097D02*
X251697260Y-121140471D01*
X251697260Y-121140471D02*
X252404367Y-120433365D01*
X252404367Y-120433365D02*
X252168665Y-120197662D01*
X252168665Y-120197662D02*
X252067649Y-120163991D01*
X252067649Y-120163991D02*
X252000306Y-120163991D01*
X252000306Y-120163991D02*
X251899291Y-120197662D01*
X251899291Y-120197662D02*
X251831947Y-120265006D01*
X251831947Y-120265006D02*
X251798275Y-120366021D01*
X251798275Y-120366021D02*
X251798275Y-120433365D01*
X251798275Y-120433365D02*
X251831947Y-120534380D01*
X251831947Y-120534380D02*
X252067649Y-120770082D01*
X250619764Y-120062975D02*
X251023825Y-120467036D01*
X250821795Y-120265006D02*
X251528901Y-119557899D01*
X251528901Y-119557899D02*
X251495230Y-119726258D01*
X251495230Y-119726258D02*
X251495230Y-119860945D01*
X251495230Y-119860945D02*
X251528901Y-119961960D01*
X208072112Y-103036411D02*
X208139456Y-103036411D01*
X208139456Y-103036411D02*
X208274143Y-102969067D01*
X208274143Y-102969067D02*
X208341486Y-102901724D01*
X208341486Y-102901724D02*
X208408830Y-102767037D01*
X208408830Y-102767037D02*
X208408830Y-102632350D01*
X208408830Y-102632350D02*
X208375158Y-102531335D01*
X208375158Y-102531335D02*
X208274143Y-102362976D01*
X208274143Y-102362976D02*
X208173128Y-102261961D01*
X208173128Y-102261961D02*
X208004769Y-102160945D01*
X208004769Y-102160945D02*
X207903754Y-102127274D01*
X207903754Y-102127274D02*
X207769067Y-102127274D01*
X207769067Y-102127274D02*
X207634380Y-102194617D01*
X207634380Y-102194617D02*
X207567036Y-102261961D01*
X207567036Y-102261961D02*
X207499693Y-102396648D01*
X207499693Y-102396648D02*
X207499693Y-102463991D01*
X207802738Y-103440472D02*
X207668051Y-103575159D01*
X207668051Y-103575159D02*
X207567036Y-103608831D01*
X207567036Y-103608831D02*
X207499693Y-103608831D01*
X207499693Y-103608831D02*
X207331334Y-103575159D01*
X207331334Y-103575159D02*
X207162975Y-103474144D01*
X207162975Y-103474144D02*
X206893601Y-103204770D01*
X206893601Y-103204770D02*
X206859929Y-103103754D01*
X206859929Y-103103754D02*
X206859929Y-103036411D01*
X206859929Y-103036411D02*
X206893601Y-102935396D01*
X206893601Y-102935396D02*
X207028288Y-102800709D01*
X207028288Y-102800709D02*
X207129303Y-102767037D01*
X207129303Y-102767037D02*
X207196647Y-102767037D01*
X207196647Y-102767037D02*
X207297662Y-102800709D01*
X207297662Y-102800709D02*
X207466021Y-102969067D01*
X207466021Y-102969067D02*
X207499693Y-103070083D01*
X207499693Y-103070083D02*
X207499693Y-103137426D01*
X207499693Y-103137426D02*
X207466021Y-103238441D01*
X207466021Y-103238441D02*
X207331334Y-103373128D01*
X207331334Y-103373128D02*
X207230319Y-103406800D01*
X207230319Y-103406800D02*
X207162975Y-103406800D01*
X207162975Y-103406800D02*
X207061960Y-103373128D01*
X137807200Y-99238095D02*
X137854819Y-99380952D01*
X137854819Y-99380952D02*
X137854819Y-99619047D01*
X137854819Y-99619047D02*
X137807200Y-99714285D01*
X137807200Y-99714285D02*
X137759580Y-99761904D01*
X137759580Y-99761904D02*
X137664342Y-99809523D01*
X137664342Y-99809523D02*
X137569104Y-99809523D01*
X137569104Y-99809523D02*
X137473866Y-99761904D01*
X137473866Y-99761904D02*
X137426247Y-99714285D01*
X137426247Y-99714285D02*
X137378628Y-99619047D01*
X137378628Y-99619047D02*
X137331009Y-99428571D01*
X137331009Y-99428571D02*
X137283390Y-99333333D01*
X137283390Y-99333333D02*
X137235771Y-99285714D01*
X137235771Y-99285714D02*
X137140533Y-99238095D01*
X137140533Y-99238095D02*
X137045295Y-99238095D01*
X137045295Y-99238095D02*
X136950057Y-99285714D01*
X136950057Y-99285714D02*
X136902438Y-99333333D01*
X136902438Y-99333333D02*
X136854819Y-99428571D01*
X136854819Y-99428571D02*
X136854819Y-99666666D01*
X136854819Y-99666666D02*
X136902438Y-99809523D01*
X136854819Y-100142857D02*
X136854819Y-100809523D01*
X136854819Y-100809523D02*
X137854819Y-100380952D01*
X218377278Y-81513562D02*
X218424897Y-81561182D01*
X218424897Y-81561182D02*
X218567754Y-81608801D01*
X218567754Y-81608801D02*
X218662992Y-81608801D01*
X218662992Y-81608801D02*
X218805849Y-81561182D01*
X218805849Y-81561182D02*
X218901087Y-81465943D01*
X218901087Y-81465943D02*
X218948706Y-81370705D01*
X218948706Y-81370705D02*
X218996325Y-81180229D01*
X218996325Y-81180229D02*
X218996325Y-81037372D01*
X218996325Y-81037372D02*
X218948706Y-80846896D01*
X218948706Y-80846896D02*
X218901087Y-80751658D01*
X218901087Y-80751658D02*
X218805849Y-80656420D01*
X218805849Y-80656420D02*
X218662992Y-80608801D01*
X218662992Y-80608801D02*
X218567754Y-80608801D01*
X218567754Y-80608801D02*
X218424897Y-80656420D01*
X218424897Y-80656420D02*
X218377278Y-80704039D01*
X217996325Y-80704039D02*
X217948706Y-80656420D01*
X217948706Y-80656420D02*
X217853468Y-80608801D01*
X217853468Y-80608801D02*
X217615373Y-80608801D01*
X217615373Y-80608801D02*
X217520135Y-80656420D01*
X217520135Y-80656420D02*
X217472516Y-80704039D01*
X217472516Y-80704039D02*
X217424897Y-80799277D01*
X217424897Y-80799277D02*
X217424897Y-80894515D01*
X217424897Y-80894515D02*
X217472516Y-81037372D01*
X217472516Y-81037372D02*
X218043944Y-81608801D01*
X218043944Y-81608801D02*
X217424897Y-81608801D01*
X217091563Y-80608801D02*
X216472516Y-80608801D01*
X216472516Y-80608801D02*
X216805849Y-80989753D01*
X216805849Y-80989753D02*
X216662992Y-80989753D01*
X216662992Y-80989753D02*
X216567754Y-81037372D01*
X216567754Y-81037372D02*
X216520135Y-81084991D01*
X216520135Y-81084991D02*
X216472516Y-81180229D01*
X216472516Y-81180229D02*
X216472516Y-81418324D01*
X216472516Y-81418324D02*
X216520135Y-81513562D01*
X216520135Y-81513562D02*
X216567754Y-81561182D01*
X216567754Y-81561182D02*
X216662992Y-81608801D01*
X216662992Y-81608801D02*
X216948706Y-81608801D01*
X216948706Y-81608801D02*
X217043944Y-81561182D01*
X217043944Y-81561182D02*
X217091563Y-81513562D01*
X233702387Y-66392857D02*
X234178578Y-66726190D01*
X233702387Y-66964285D02*
X234702387Y-66964285D01*
X234702387Y-66964285D02*
X234702387Y-66583333D01*
X234702387Y-66583333D02*
X234654768Y-66488095D01*
X234654768Y-66488095D02*
X234607149Y-66440476D01*
X234607149Y-66440476D02*
X234511911Y-66392857D01*
X234511911Y-66392857D02*
X234369054Y-66392857D01*
X234369054Y-66392857D02*
X234273816Y-66440476D01*
X234273816Y-66440476D02*
X234226197Y-66488095D01*
X234226197Y-66488095D02*
X234178578Y-66583333D01*
X234178578Y-66583333D02*
X234178578Y-66964285D01*
X234607149Y-66011904D02*
X234654768Y-65964285D01*
X234654768Y-65964285D02*
X234702387Y-65869047D01*
X234702387Y-65869047D02*
X234702387Y-65630952D01*
X234702387Y-65630952D02*
X234654768Y-65535714D01*
X234654768Y-65535714D02*
X234607149Y-65488095D01*
X234607149Y-65488095D02*
X234511911Y-65440476D01*
X234511911Y-65440476D02*
X234416673Y-65440476D01*
X234416673Y-65440476D02*
X234273816Y-65488095D01*
X234273816Y-65488095D02*
X233702387Y-66059523D01*
X233702387Y-66059523D02*
X233702387Y-65440476D01*
X234702387Y-65107142D02*
X234702387Y-64488095D01*
X234702387Y-64488095D02*
X234321435Y-64821428D01*
X234321435Y-64821428D02*
X234321435Y-64678571D01*
X234321435Y-64678571D02*
X234273816Y-64583333D01*
X234273816Y-64583333D02*
X234226197Y-64535714D01*
X234226197Y-64535714D02*
X234130959Y-64488095D01*
X234130959Y-64488095D02*
X233892864Y-64488095D01*
X233892864Y-64488095D02*
X233797626Y-64535714D01*
X233797626Y-64535714D02*
X233750007Y-64583333D01*
X233750007Y-64583333D02*
X233702387Y-64678571D01*
X233702387Y-64678571D02*
X233702387Y-64964285D01*
X233702387Y-64964285D02*
X233750007Y-65059523D01*
X233750007Y-65059523D02*
X233797626Y-65107142D01*
X218377278Y-79113562D02*
X218424897Y-79161182D01*
X218424897Y-79161182D02*
X218567754Y-79208801D01*
X218567754Y-79208801D02*
X218662992Y-79208801D01*
X218662992Y-79208801D02*
X218805849Y-79161182D01*
X218805849Y-79161182D02*
X218901087Y-79065943D01*
X218901087Y-79065943D02*
X218948706Y-78970705D01*
X218948706Y-78970705D02*
X218996325Y-78780229D01*
X218996325Y-78780229D02*
X218996325Y-78637372D01*
X218996325Y-78637372D02*
X218948706Y-78446896D01*
X218948706Y-78446896D02*
X218901087Y-78351658D01*
X218901087Y-78351658D02*
X218805849Y-78256420D01*
X218805849Y-78256420D02*
X218662992Y-78208801D01*
X218662992Y-78208801D02*
X218567754Y-78208801D01*
X218567754Y-78208801D02*
X218424897Y-78256420D01*
X218424897Y-78256420D02*
X218377278Y-78304039D01*
X217996325Y-78304039D02*
X217948706Y-78256420D01*
X217948706Y-78256420D02*
X217853468Y-78208801D01*
X217853468Y-78208801D02*
X217615373Y-78208801D01*
X217615373Y-78208801D02*
X217520135Y-78256420D01*
X217520135Y-78256420D02*
X217472516Y-78304039D01*
X217472516Y-78304039D02*
X217424897Y-78399277D01*
X217424897Y-78399277D02*
X217424897Y-78494515D01*
X217424897Y-78494515D02*
X217472516Y-78637372D01*
X217472516Y-78637372D02*
X218043944Y-79208801D01*
X218043944Y-79208801D02*
X217424897Y-79208801D01*
X216472516Y-79208801D02*
X217043944Y-79208801D01*
X216758230Y-79208801D02*
X216758230Y-78208801D01*
X216758230Y-78208801D02*
X216853468Y-78351658D01*
X216853468Y-78351658D02*
X216948706Y-78446896D01*
X216948706Y-78446896D02*
X217043944Y-78494515D01*
X201070923Y-84957052D02*
X201404256Y-84480861D01*
X201642351Y-84957052D02*
X201642351Y-83957052D01*
X201642351Y-83957052D02*
X201261399Y-83957052D01*
X201261399Y-83957052D02*
X201166161Y-84004671D01*
X201166161Y-84004671D02*
X201118542Y-84052290D01*
X201118542Y-84052290D02*
X201070923Y-84147528D01*
X201070923Y-84147528D02*
X201070923Y-84290385D01*
X201070923Y-84290385D02*
X201118542Y-84385623D01*
X201118542Y-84385623D02*
X201166161Y-84433242D01*
X201166161Y-84433242D02*
X201261399Y-84480861D01*
X201261399Y-84480861D02*
X201642351Y-84480861D01*
X200737589Y-83957052D02*
X200118542Y-83957052D01*
X200118542Y-83957052D02*
X200451875Y-84338004D01*
X200451875Y-84338004D02*
X200309018Y-84338004D01*
X200309018Y-84338004D02*
X200213780Y-84385623D01*
X200213780Y-84385623D02*
X200166161Y-84433242D01*
X200166161Y-84433242D02*
X200118542Y-84528480D01*
X200118542Y-84528480D02*
X200118542Y-84766575D01*
X200118542Y-84766575D02*
X200166161Y-84861813D01*
X200166161Y-84861813D02*
X200213780Y-84909433D01*
X200213780Y-84909433D02*
X200309018Y-84957052D01*
X200309018Y-84957052D02*
X200594732Y-84957052D01*
X200594732Y-84957052D02*
X200689970Y-84909433D01*
X200689970Y-84909433D02*
X200737589Y-84861813D01*
X199261399Y-83957052D02*
X199451875Y-83957052D01*
X199451875Y-83957052D02*
X199547113Y-84004671D01*
X199547113Y-84004671D02*
X199594732Y-84052290D01*
X199594732Y-84052290D02*
X199689970Y-84195147D01*
X199689970Y-84195147D02*
X199737589Y-84385623D01*
X199737589Y-84385623D02*
X199737589Y-84766575D01*
X199737589Y-84766575D02*
X199689970Y-84861813D01*
X199689970Y-84861813D02*
X199642351Y-84909433D01*
X199642351Y-84909433D02*
X199547113Y-84957052D01*
X199547113Y-84957052D02*
X199356637Y-84957052D01*
X199356637Y-84957052D02*
X199261399Y-84909433D01*
X199261399Y-84909433D02*
X199213780Y-84861813D01*
X199213780Y-84861813D02*
X199166161Y-84766575D01*
X199166161Y-84766575D02*
X199166161Y-84528480D01*
X199166161Y-84528480D02*
X199213780Y-84433242D01*
X199213780Y-84433242D02*
X199261399Y-84385623D01*
X199261399Y-84385623D02*
X199356637Y-84338004D01*
X199356637Y-84338004D02*
X199547113Y-84338004D01*
X199547113Y-84338004D02*
X199642351Y-84385623D01*
X199642351Y-84385623D02*
X199689970Y-84433242D01*
X199689970Y-84433242D02*
X199737589Y-84528480D01*
X250178164Y-137787161D02*
X249605744Y-138359581D01*
X249605744Y-138359581D02*
X249504729Y-138393253D01*
X249504729Y-138393253D02*
X249437385Y-138393253D01*
X249437385Y-138393253D02*
X249336370Y-138359581D01*
X249336370Y-138359581D02*
X249201683Y-138224894D01*
X249201683Y-138224894D02*
X249168011Y-138123879D01*
X249168011Y-138123879D02*
X249168011Y-138056535D01*
X249168011Y-138056535D02*
X249201683Y-137955520D01*
X249201683Y-137955520D02*
X249774103Y-137383100D01*
X248359889Y-137383100D02*
X248763950Y-137787161D01*
X248561920Y-137585131D02*
X249269026Y-136878024D01*
X249269026Y-136878024D02*
X249235355Y-137046383D01*
X249235355Y-137046383D02*
X249235355Y-137181070D01*
X249235355Y-137181070D02*
X249269026Y-137282085D01*
X96776174Y-87367036D02*
X96675159Y-86794617D01*
X97180235Y-86962975D02*
X96473128Y-86255869D01*
X96473128Y-86255869D02*
X96203754Y-86525243D01*
X96203754Y-86525243D02*
X96170082Y-86626258D01*
X96170082Y-86626258D02*
X96170082Y-86693601D01*
X96170082Y-86693601D02*
X96203754Y-86794617D01*
X96203754Y-86794617D02*
X96304769Y-86895632D01*
X96304769Y-86895632D02*
X96405785Y-86929304D01*
X96405785Y-86929304D02*
X96473128Y-86929304D01*
X96473128Y-86929304D02*
X96574143Y-86895632D01*
X96574143Y-86895632D02*
X96843517Y-86626258D01*
X96102739Y-88040471D02*
X96506800Y-87636410D01*
X96304769Y-87838441D02*
X95597663Y-87131334D01*
X95597663Y-87131334D02*
X95766021Y-87165006D01*
X95766021Y-87165006D02*
X95900708Y-87165006D01*
X95900708Y-87165006D02*
X96001724Y-87131334D01*
X94957899Y-87771098D02*
X94890556Y-87838441D01*
X94890556Y-87838441D02*
X94856884Y-87939456D01*
X94856884Y-87939456D02*
X94856884Y-88006800D01*
X94856884Y-88006800D02*
X94890556Y-88107815D01*
X94890556Y-88107815D02*
X94991571Y-88276174D01*
X94991571Y-88276174D02*
X95159930Y-88444533D01*
X95159930Y-88444533D02*
X95328288Y-88545548D01*
X95328288Y-88545548D02*
X95429304Y-88579220D01*
X95429304Y-88579220D02*
X95496647Y-88579220D01*
X95496647Y-88579220D02*
X95597662Y-88545548D01*
X95597662Y-88545548D02*
X95665006Y-88478204D01*
X95665006Y-88478204D02*
X95698678Y-88377189D01*
X95698678Y-88377189D02*
X95698678Y-88309846D01*
X95698678Y-88309846D02*
X95665006Y-88208830D01*
X95665006Y-88208830D02*
X95563991Y-88040472D01*
X95563991Y-88040472D02*
X95395632Y-87872113D01*
X95395632Y-87872113D02*
X95227273Y-87771098D01*
X95227273Y-87771098D02*
X95126258Y-87737426D01*
X95126258Y-87737426D02*
X95058914Y-87737426D01*
X95058914Y-87737426D02*
X94957899Y-87771098D01*
X218494530Y-60759580D02*
X218542149Y-60807200D01*
X218542149Y-60807200D02*
X218685006Y-60854819D01*
X218685006Y-60854819D02*
X218780244Y-60854819D01*
X218780244Y-60854819D02*
X218923101Y-60807200D01*
X218923101Y-60807200D02*
X219018339Y-60711961D01*
X219018339Y-60711961D02*
X219065958Y-60616723D01*
X219065958Y-60616723D02*
X219113577Y-60426247D01*
X219113577Y-60426247D02*
X219113577Y-60283390D01*
X219113577Y-60283390D02*
X219065958Y-60092914D01*
X219065958Y-60092914D02*
X219018339Y-59997676D01*
X219018339Y-59997676D02*
X218923101Y-59902438D01*
X218923101Y-59902438D02*
X218780244Y-59854819D01*
X218780244Y-59854819D02*
X218685006Y-59854819D01*
X218685006Y-59854819D02*
X218542149Y-59902438D01*
X218542149Y-59902438D02*
X218494530Y-59950057D01*
X217542149Y-60854819D02*
X218113577Y-60854819D01*
X217827863Y-60854819D02*
X217827863Y-59854819D01*
X217827863Y-59854819D02*
X217923101Y-59997676D01*
X217923101Y-59997676D02*
X218018339Y-60092914D01*
X218018339Y-60092914D02*
X218113577Y-60140533D01*
X216589768Y-60854819D02*
X217161196Y-60854819D01*
X216875482Y-60854819D02*
X216875482Y-59854819D01*
X216875482Y-59854819D02*
X216970720Y-59997676D01*
X216970720Y-59997676D02*
X217065958Y-60092914D01*
X217065958Y-60092914D02*
X217161196Y-60140533D01*
X255746245Y-143259456D02*
X256318664Y-143158441D01*
X256150306Y-143663517D02*
X256857412Y-142956410D01*
X256857412Y-142956410D02*
X256588038Y-142687036D01*
X256588038Y-142687036D02*
X256487023Y-142653364D01*
X256487023Y-142653364D02*
X256419680Y-142653364D01*
X256419680Y-142653364D02*
X256318664Y-142687036D01*
X256318664Y-142687036D02*
X256217649Y-142788051D01*
X256217649Y-142788051D02*
X256183977Y-142889067D01*
X256183977Y-142889067D02*
X256183977Y-142956410D01*
X256183977Y-142956410D02*
X256217649Y-143057425D01*
X256217649Y-143057425D02*
X256487023Y-143326799D01*
X256116634Y-142350319D02*
X256116634Y-142282975D01*
X256116634Y-142282975D02*
X256082962Y-142181960D01*
X256082962Y-142181960D02*
X255914603Y-142013601D01*
X255914603Y-142013601D02*
X255813588Y-141979929D01*
X255813588Y-141979929D02*
X255746245Y-141979929D01*
X255746245Y-141979929D02*
X255645229Y-142013601D01*
X255645229Y-142013601D02*
X255577886Y-142080945D01*
X255577886Y-142080945D02*
X255510542Y-142215632D01*
X255510542Y-142215632D02*
X255510542Y-143023754D01*
X255510542Y-143023754D02*
X255072810Y-142586021D01*
X191512323Y-63059580D02*
X191559942Y-63107200D01*
X191559942Y-63107200D02*
X191702799Y-63154819D01*
X191702799Y-63154819D02*
X191798037Y-63154819D01*
X191798037Y-63154819D02*
X191940894Y-63107200D01*
X191940894Y-63107200D02*
X192036132Y-63011961D01*
X192036132Y-63011961D02*
X192083751Y-62916723D01*
X192083751Y-62916723D02*
X192131370Y-62726247D01*
X192131370Y-62726247D02*
X192131370Y-62583390D01*
X192131370Y-62583390D02*
X192083751Y-62392914D01*
X192083751Y-62392914D02*
X192036132Y-62297676D01*
X192036132Y-62297676D02*
X191940894Y-62202438D01*
X191940894Y-62202438D02*
X191798037Y-62154819D01*
X191798037Y-62154819D02*
X191702799Y-62154819D01*
X191702799Y-62154819D02*
X191559942Y-62202438D01*
X191559942Y-62202438D02*
X191512323Y-62250057D01*
X190559942Y-63154819D02*
X191131370Y-63154819D01*
X190845656Y-63154819D02*
X190845656Y-62154819D01*
X190845656Y-62154819D02*
X190940894Y-62297676D01*
X190940894Y-62297676D02*
X191036132Y-62392914D01*
X191036132Y-62392914D02*
X191131370Y-62440533D01*
X189702799Y-62488152D02*
X189702799Y-63154819D01*
X189940894Y-62107200D02*
X190178989Y-62821485D01*
X190178989Y-62821485D02*
X189559942Y-62821485D01*
%TO.C,EMD1*%
D11*
X205828066Y-73502233D02*
X201428066Y-73502233D01*
X205828066Y-79102233D02*
X201428066Y-79102233D01*
D12*
X207928066Y-73902233D02*
G75*
G02*
X207728066Y-73902233I-100000J0D01*
G01*
X207728066Y-73902233D02*
G75*
G02*
X207928066Y-73902233I100000J0D01*
G01*
%TO.C,IC1*%
X245191852Y-115788046D02*
X247666726Y-118262920D01*
X247666726Y-118262920D02*
X252262920Y-113666726D01*
X249788046Y-111191852D02*
X245191852Y-115788046D01*
X252262920Y-113666726D02*
X249788046Y-111191852D01*
X253783199Y-115363782D02*
X252545763Y-114126345D01*
%TO.C,U2*%
D13*
X211308903Y-100000000D02*
X211644778Y-100335876D01*
X211644778Y-99664124D02*
X211308903Y-100000000D01*
X214664124Y-103355222D02*
X215000000Y-103691097D01*
X215000000Y-96308903D02*
X214664124Y-96644778D01*
X215000000Y-103691097D02*
X215335876Y-103355222D01*
X215335876Y-96644778D02*
X215000000Y-96308903D01*
X218355222Y-100335876D02*
X218691097Y-100000000D01*
X218691097Y-100000000D02*
X218355222Y-99664124D01*
X213953482Y-103860803D02*
X213614071Y-103521392D01*
X214017122Y-103457752D01*
X213953482Y-103860803D01*
G36*
X213953482Y-103860803D02*
G01*
X213614071Y-103521392D01*
X214017122Y-103457752D01*
X213953482Y-103860803D01*
G37*
%TO.C,R4*%
X184432013Y-150856602D02*
X185982013Y-148171924D01*
X186267987Y-151916602D02*
X187817987Y-149231924D01*
%TO.C,R1*%
X258459426Y-142246360D02*
X259873640Y-143660574D01*
X259746360Y-140959426D02*
X261160574Y-142373640D01*
%TO.C,R26*%
X204000000Y-67990000D02*
X202400000Y-67990000D01*
X204000000Y-69410000D02*
X202400000Y-69410000D01*
%TO.C,R16*%
X236871673Y-76375000D02*
X236871673Y-79475000D01*
X238991673Y-76375000D02*
X238991673Y-79475000D01*
%TO.C,S6*%
D14*
X28500000Y-100000000D02*
G75*
G02*
X21500000Y-100000000I-3500000J0D01*
G01*
X21500000Y-100000000D02*
G75*
G02*
X28500000Y-100000000I3500000J0D01*
G01*
%TO.C,R9*%
D13*
X96813640Y-82036613D02*
X95399426Y-83450827D01*
X98100574Y-83323547D02*
X96686360Y-84737761D01*
%TO.C,Y1*%
X217720005Y-104456046D02*
X218851376Y-103324675D01*
X220180737Y-105785407D02*
X220746423Y-105219722D01*
%TO.C,R31*%
X230832006Y-84086115D02*
X229232006Y-84086115D01*
X230832006Y-85506115D02*
X229232006Y-85506115D01*
%TO.C,C18*%
X219800000Y-82590000D02*
X223000000Y-82590000D01*
X219800000Y-85610000D02*
X223000000Y-85610000D01*
%TO.C,R29*%
X200265000Y-66700000D02*
X200265000Y-64700000D01*
X202085000Y-66700000D02*
X202085000Y-64700000D01*
%TO.C,R13*%
X209940000Y-60300000D02*
X209940000Y-63400000D01*
X212060000Y-60300000D02*
X212060000Y-63400000D01*
%TO.C,S8*%
D14*
X83500000Y-155000000D02*
G75*
G02*
X76500000Y-155000000I-3500000J0D01*
G01*
X76500000Y-155000000D02*
G75*
G02*
X83500000Y-155000000I3500000J0D01*
G01*
%TO.C,C13*%
D13*
X223251673Y-61740000D02*
X220051673Y-61740000D01*
X223251673Y-63860000D02*
X220051673Y-63860000D01*
%TO.C,L3*%
D14*
X89500000Y-119000000D02*
G75*
G02*
X70500000Y-119000000I-9500000J0D01*
G01*
X70500000Y-119000000D02*
G75*
G02*
X89500000Y-119000000I9500000J0D01*
G01*
%TO.C,R24*%
D13*
X227247207Y-66800000D02*
X227247207Y-64800000D01*
X229067207Y-66800000D02*
X229067207Y-64800000D01*
%TO.C,C4*%
X207740000Y-99200000D02*
X207740000Y-96000000D01*
X209860000Y-99200000D02*
X209860000Y-96000000D01*
%TO.C,C6*%
X213560822Y-104715112D02*
X211298080Y-106977854D01*
X215059888Y-106214178D02*
X212797146Y-108476920D01*
%TO.C,S3*%
D14*
X218500000Y-155000000D02*
G75*
G02*
X211500000Y-155000000I-3500000J0D01*
G01*
X211500000Y-155000000D02*
G75*
G02*
X218500000Y-155000000I3500000J0D01*
G01*
%TO.C,C31*%
D13*
X258481838Y-126680904D02*
X256219096Y-124418162D01*
X259980904Y-125181838D02*
X257718162Y-122919096D01*
%TO.C,C25*%
X192900000Y-82390000D02*
X196100000Y-82390000D01*
X192900000Y-85410000D02*
X196100000Y-85410000D01*
%TO.C,R34*%
X227097006Y-82796115D02*
X227097006Y-80796115D01*
X228917006Y-82796115D02*
X228917006Y-80796115D01*
%TO.C,R32*%
X235097006Y-82746115D02*
X235097006Y-80746115D01*
X236917006Y-82746115D02*
X236917006Y-80746115D01*
%TO.C,R30*%
X233257006Y-83686115D02*
X236357006Y-83686115D01*
X233257006Y-85806115D02*
X236357006Y-85806115D01*
%TO.C,C29*%
X252419096Y-118481838D02*
X254681838Y-116219096D01*
X253918162Y-119980904D02*
X256180904Y-117718162D01*
%TO.C,L2*%
D14*
X70500000Y-100000000D02*
G75*
G02*
X51500000Y-100000000I-9500000J0D01*
G01*
X51500000Y-100000000D02*
G75*
G02*
X70500000Y-100000000I9500000J0D01*
G01*
%TO.C,R22*%
D13*
X235247207Y-66750000D02*
X235247207Y-64750000D01*
X237067207Y-66750000D02*
X237067207Y-64750000D01*
%TO.C,C7*%
X205681838Y-109980904D02*
X203419096Y-107718162D01*
X207180904Y-108481838D02*
X204918162Y-106219096D01*
%TO.C,C33*%
X221105706Y-105206040D02*
X219974335Y-106337411D01*
X222039087Y-106139421D02*
X220907716Y-107270792D01*
%TO.C,L5*%
X207896913Y-107828284D02*
X209028284Y-106696913D01*
X208971716Y-108903087D02*
X210103087Y-107771716D01*
%TO.C,C1*%
X165255640Y-128982014D02*
X162484359Y-130582013D01*
X166315641Y-130817987D02*
X163544360Y-132417986D01*
%TO.C,C2*%
X215360822Y-106515112D02*
X213098080Y-108777854D01*
X216859888Y-108014178D02*
X214597146Y-110276920D01*
%TO.C,C19*%
X223051673Y-75340000D02*
X219851673Y-75340000D01*
X223051673Y-77460000D02*
X219851673Y-77460000D01*
%TO.C,C5*%
X217269096Y-90381838D02*
X219531838Y-88119096D01*
X218768162Y-91880904D02*
X221030904Y-89618162D01*
%TO.C,C8*%
X219119096Y-92181838D02*
X221381838Y-89919096D01*
X220618162Y-93680904D02*
X222880904Y-91418162D01*
%TO.C,L1*%
D14*
X89500000Y-81000000D02*
G75*
G02*
X70500000Y-81000000I-9500000J0D01*
G01*
X70500000Y-81000000D02*
G75*
G02*
X89500000Y-81000000I9500000J0D01*
G01*
%TO.C,REF\u002A\u002A*%
X130000000Y-100000000D02*
G75*
G02*
X30000000Y-100000000I-50000000J0D01*
G01*
X30000000Y-100000000D02*
G75*
G02*
X130000000Y-100000000I50000000J0D01*
G01*
X110000000Y-100000000D02*
G75*
G02*
X50000000Y-100000000I-30000000J0D01*
G01*
X50000000Y-100000000D02*
G75*
G02*
X110000000Y-100000000I30000000J0D01*
G01*
%TO.C,R20*%
D13*
X233407207Y-67690000D02*
X236507207Y-67690000D01*
X233407207Y-69810000D02*
X236507207Y-69810000D01*
%TO.C,R7*%
X239162342Y-148313847D02*
X242026369Y-147127528D01*
X239973631Y-150272472D02*
X242837658Y-149086153D01*
%TO.C,EMC1*%
D11*
X205949466Y-57625000D02*
X201549466Y-57625000D01*
X205949466Y-63225000D02*
X201549466Y-63225000D01*
D12*
X208049466Y-58025000D02*
G75*
G02*
X207849466Y-58025000I-100000J0D01*
G01*
X207849466Y-58025000D02*
G75*
G02*
X208049466Y-58025000I100000J0D01*
G01*
%TO.C,C16*%
D13*
X196219466Y-64040000D02*
X193019466Y-64040000D01*
X196219466Y-66160000D02*
X193019466Y-66160000D01*
%TO.C,R38*%
X204118066Y-82502233D02*
X204118066Y-80502233D01*
X205938066Y-82502233D02*
X205938066Y-80502233D01*
%TO.C,C17*%
X220000000Y-66690000D02*
X223200000Y-66690000D01*
X220000000Y-69710000D02*
X223200000Y-69710000D01*
%TO.C,R27*%
X208265000Y-66650000D02*
X208265000Y-64650000D01*
X210085000Y-66650000D02*
X210085000Y-64650000D01*
%TO.C,EMB1*%
D11*
X232731673Y-73725000D02*
X228331673Y-73725000D01*
X232731673Y-79325000D02*
X228331673Y-79325000D01*
D12*
X234831673Y-74125000D02*
G75*
G02*
X234631673Y-74125000I-100000J0D01*
G01*
X234631673Y-74125000D02*
G75*
G02*
X234831673Y-74125000I100000J0D01*
G01*
%TO.C,R39*%
D13*
X200118066Y-82502233D02*
X200118066Y-80502233D01*
X201938066Y-82502233D02*
X201938066Y-80502233D01*
%TO.C,C22*%
X196148066Y-77517233D02*
X192948066Y-77517233D01*
X196148066Y-79637233D02*
X192948066Y-79637233D01*
%TO.C,S1*%
D14*
X218500000Y-45000000D02*
G75*
G02*
X211500000Y-45000000I-3500000J0D01*
G01*
X211500000Y-45000000D02*
G75*
G02*
X218500000Y-45000000I3500000J0D01*
G01*
%TO.C,R17*%
D13*
X209768066Y-76152233D02*
X209768066Y-79252233D01*
X211888066Y-76152233D02*
X211888066Y-79252233D01*
%TO.C,C24*%
X196098066Y-79917233D02*
X192898066Y-79917233D01*
X196098066Y-82037233D02*
X192898066Y-82037233D01*
%TO.C,S5*%
D14*
X83500000Y-45000000D02*
G75*
G02*
X76500000Y-45000000I-3500000J0D01*
G01*
X76500000Y-45000000D02*
G75*
G02*
X83500000Y-45000000I3500000J0D01*
G01*
%TO.C,R28*%
D13*
X204265000Y-66650000D02*
X204265000Y-64650000D01*
X206085000Y-66650000D02*
X206085000Y-64650000D01*
%TO.C,C15*%
X223201673Y-64140000D02*
X220001673Y-64140000D01*
X223201673Y-66260000D02*
X220001673Y-66260000D01*
%TO.C,R21*%
X230982207Y-68090000D02*
X229382207Y-68090000D01*
X230982207Y-69510000D02*
X229382207Y-69510000D01*
%TO.C,R12*%
X236922207Y-60400000D02*
X236922207Y-63500000D01*
X239042207Y-60400000D02*
X239042207Y-63500000D01*
%TO.C,C32*%
X220725706Y-104640792D02*
X219594335Y-103509421D01*
X221659087Y-103707411D02*
X220527716Y-102576040D01*
%TO.C,R18*%
X255163640Y-129967731D02*
X254032269Y-128836360D01*
X256167731Y-128963640D02*
X255036360Y-127832269D01*
%TO.C,L6*%
X217759065Y-107251503D02*
X216627694Y-106120132D01*
X218833868Y-106176700D02*
X217702497Y-105045329D01*
%TO.C,C3*%
X206769096Y-111068162D02*
X209031838Y-113330904D01*
X208268162Y-109569096D02*
X210530904Y-111831838D01*
%TO.C,R3*%
X161327660Y-128357014D02*
X164012339Y-126807013D01*
X162387661Y-130192987D02*
X165072340Y-128642986D01*
%TO.C,R6*%
X241762342Y-154313847D02*
X244626369Y-153127528D01*
X242573631Y-156272472D02*
X245437658Y-155086153D01*
%TO.C,R8*%
X95063640Y-80399426D02*
X93649426Y-81813640D01*
X96350574Y-81686360D02*
X94936360Y-83100574D01*
%TO.C,J8*%
X47798357Y-55247212D02*
X48717596Y-54327973D01*
X50075241Y-52298577D02*
X32298577Y-70075241D01*
X28607479Y-66384144D01*
X46384144Y-48607480D01*
X50075241Y-52298577D01*
%TO.C,U5*%
D12*
X259838478Y-132048528D02*
G75*
G02*
X259638478Y-132048528I-100000J0D01*
G01*
X259638478Y-132048528D02*
G75*
G02*
X259838478Y-132048528I100000J0D01*
G01*
%TO.C,J12*%
D13*
X121054620Y-55374491D02*
X120135381Y-54455252D01*
X126902393Y-61894015D02*
X123211296Y-65585113D01*
X114414888Y-56788704D01*
X118105985Y-53097607D01*
X126902393Y-61894015D01*
%TO.C,L4*%
D14*
X108500000Y-100000000D02*
G75*
G02*
X89500000Y-100000000I-9500000J0D01*
G01*
X89500000Y-100000000D02*
G75*
G02*
X108500000Y-100000000I9500000J0D01*
G01*
%TO.C,R33*%
D13*
X231097006Y-82746115D02*
X231097006Y-80746115D01*
X232917006Y-82746115D02*
X232917006Y-80746115D01*
%TO.C,C12*%
X196269466Y-59240000D02*
X193069466Y-59240000D01*
X196269466Y-61360000D02*
X193069466Y-61360000D01*
%TO.C,EMA1*%
D11*
X232931673Y-57725000D02*
X228531673Y-57725000D01*
X232931673Y-63325000D02*
X228531673Y-63325000D01*
D12*
X235031673Y-58125000D02*
G75*
G02*
X234831673Y-58125000I-100000J0D01*
G01*
X234831673Y-58125000D02*
G75*
G02*
X235031673Y-58125000I100000J0D01*
G01*
%TO.C,C28*%
D13*
X256581838Y-128580904D02*
X254319096Y-126318162D01*
X258080904Y-127081838D02*
X255818162Y-124819096D01*
%TO.C,R37*%
X208118066Y-82502233D02*
X208118066Y-80502233D01*
X209938066Y-82502233D02*
X209938066Y-80502233D01*
%TO.C,R19*%
X248350467Y-123757574D02*
X249057574Y-123050467D01*
X249142426Y-124549533D02*
X249849533Y-123842426D01*
%TO.C,C20*%
X196148066Y-75117233D02*
X192948066Y-75117233D01*
X196148066Y-77237233D02*
X192948066Y-77237233D01*
%TO.C,C26*%
X193000000Y-66490000D02*
X196200000Y-66490000D01*
X193000000Y-69510000D02*
X196200000Y-69510000D01*
%TO.C,R25*%
X206425000Y-67590000D02*
X209525000Y-67590000D01*
X206425000Y-69710000D02*
X209525000Y-69710000D01*
%TO.C,R11*%
X212350000Y-90240000D02*
X215450000Y-90240000D01*
X212350000Y-92360000D02*
X215450000Y-92360000D01*
%TO.C,R35*%
X206278066Y-83442233D02*
X209378066Y-83442233D01*
X206278066Y-85562233D02*
X209378066Y-85562233D01*
%TO.C,C27*%
X246981838Y-119319096D02*
X244719096Y-121581838D01*
X248480904Y-120818162D02*
X246218162Y-123080904D01*
%TO.C,S2*%
D14*
X163500000Y-100000000D02*
G75*
G02*
X156500000Y-100000000I-3500000J0D01*
G01*
X156500000Y-100000000D02*
G75*
G02*
X163500000Y-100000000I3500000J0D01*
G01*
%TO.C,C10*%
D13*
X81600000Y-99440000D02*
X78400000Y-99440000D01*
X81600000Y-101560000D02*
X78400000Y-101560000D01*
%TO.C,S4*%
D14*
X273500000Y-100000000D02*
G75*
G02*
X266500000Y-100000000I-3500000J0D01*
G01*
X266500000Y-100000000D02*
G75*
G02*
X273500000Y-100000000I3500000J0D01*
G01*
%TO.C,C30*%
D13*
X253281838Y-131880904D02*
X251019096Y-129618162D01*
X254780904Y-130381838D02*
X252518162Y-128119096D01*
%TO.C,FB1*%
X250834350Y-122597021D02*
X249702979Y-121465650D01*
X251697021Y-121734350D02*
X250565650Y-120602979D01*
%TO.C,C9*%
X210081838Y-106780904D02*
X207819096Y-104518162D01*
X211580904Y-105281838D02*
X209318162Y-103019096D01*
%TO.C,S7*%
D14*
X138500000Y-100000000D02*
G75*
G02*
X131500000Y-100000000I-3500000J0D01*
G01*
X131500000Y-100000000D02*
G75*
G02*
X138500000Y-100000000I3500000J0D01*
G01*
%TO.C,C23*%
D13*
X223001673Y-80140000D02*
X219801673Y-80140000D01*
X223001673Y-82260000D02*
X219801673Y-82260000D01*
%TO.C,R23*%
X231247207Y-66750000D02*
X231247207Y-64750000D01*
X233067207Y-66750000D02*
X233067207Y-64750000D01*
%TO.C,C21*%
X223051673Y-77740000D02*
X219851673Y-77740000D01*
X223051673Y-79860000D02*
X219851673Y-79860000D01*
%TO.C,R36*%
X203828066Y-83792233D02*
X202228066Y-83792233D01*
X203828066Y-85212233D02*
X202228066Y-85212233D01*
%TO.C,U1*%
X249227361Y-136423534D02*
X250514296Y-137710469D01*
X249262717Y-136388179D02*
X249227361Y-136423534D01*
X250514296Y-137710469D02*
X250549651Y-137675113D01*
X251433534Y-134217361D02*
X251398179Y-134252717D01*
X252685113Y-135539651D02*
X252720469Y-135504296D01*
X252720469Y-135504296D02*
X251433534Y-134217361D01*
X253470002Y-135857849D02*
X253066951Y-135921489D01*
X253130591Y-135518438D01*
X253470002Y-135857849D01*
G36*
X253470002Y-135857849D02*
G01*
X253066951Y-135921489D01*
X253130591Y-135518438D01*
X253470002Y-135857849D01*
G37*
%TO.C,R10*%
X98563640Y-83649426D02*
X97149426Y-85063640D01*
X99850574Y-84936360D02*
X98436360Y-86350574D01*
%TO.C,C11*%
X223251673Y-59340000D02*
X220051673Y-59340000D01*
X223251673Y-61460000D02*
X220051673Y-61460000D01*
%TO.C,R2*%
X256339426Y-144366360D02*
X257753640Y-145780574D01*
X257626360Y-143079426D02*
X259040574Y-144493640D01*
%TO.C,C14*%
X196269466Y-61640000D02*
X193069466Y-61640000D01*
X196269466Y-63760000D02*
X193069466Y-63760000D01*
%TD*%
M02*
